<?xml version="1.0" encoding="iso-8859-1"?>
<!-- Generator: Adobe Illustrator 13.0.0, SVG Export Plug-In . SVG Version: 6.00 Build 14948)  -->
<!DOCTYPE svg PUBLIC "-//W3C//DTD SVG 1.1//EN" "http://www.w3.org/Graphics/SVG/1.1/DTD/svg11.dtd">
<svg version="1.1" id="Layer_1" xmlns="http://www.w3.org/2000/svg" xmlns:xlink="http://www.w3.org/1999/xlink" x="0px" y="0px"
	 width="13px" height="32px" viewBox="0 0 13 32" style="enable-background:new 0 0 13 32;" xml:space="preserve">
<path style="fill:#FFFFFF;" d="M0,5.791V32h13V5.787C12.993,2.597,10.518,0,7.473,0H5.525C2.477,0,0,2.597,0,5.791z"/>
<path style="fill:#FFFFFF;fill-opacity:0.7;" d="M10.999,5.789c-0.004-2.09-1.604-3.791-3.526-3.791H5.524
	c-1.926,0-3.523,1.701-3.523,3.791V32H11L10.999,5.789L10.999,5.789z"/>
<path d="M3.5,5.789c0-1.25,0.941-2.291,2.023-2.291h1.954c1.08,0,2.021,1.041,2.021,2.291V32h1.5V5.789
	c-0.004-2.09-1.604-3.791-3.523-3.791H5.524c-1.926,0-3.523,1.701-3.523,3.791V32H3.5V5.789z"/>
</svg>
