<?xml version="1.0" encoding="iso-8859-1"?>
<!-- Generator: Adobe Illustrator 13.0.0, SVG Export Plug-In . SVG Version: 6.00 Build 14948)  -->
<!DOCTYPE svg PUBLIC "-//W3C//DTD SVG 1.1//EN" "http://www.w3.org/Graphics/SVG/1.1/DTD/svg11.dtd">
<svg version="1.1" id="Layer_1" xmlns="http://www.w3.org/2000/svg" xmlns:xlink="http://www.w3.org/1999/xlink" x="0px" y="0px"
	 width="32px" height="13px" viewBox="0 0 32 13" style="enable-background:new 0 0 32 13;" xml:space="preserve">
<path d="M5.792,13H32V0H5.789C2.598,0.003,0,2.479,0,5.526v1.947C0,10.522,2.598,13,5.792,13z"/>
<path style="fill:#D0D0D0;fill-opacity:0.75;" d="M5.789,2C3.699,2.003,1.998,3.606,1.998,5.526v1.947
	C1.998,9.401,3.699,11,5.789,11H32V1.998L5.789,2L5.789,2z"/>
<path style="fill:#00FFFF;" d="M5.789,9.499c-1.25,0-2.291-0.941-2.291-2.022V5.522c0-1.08,1.041-2.021,2.291-2.021H32V2H5.789
	C3.699,2.004,1.998,3.606,1.998,5.526v1.95c0,1.927,1.701,3.525,3.791,3.525H32V9.499H5.789z"/>
</svg>
