<?xml version="1.0" encoding="iso-8859-1"?>
<!-- Generator: Adobe Illustrator 13.0.0, SVG Export Plug-In . SVG Version: 6.00 Build 14948)  -->
<!DOCTYPE svg PUBLIC "-//W3C//DTD SVG 1.1//EN" "http://www.w3.org/Graphics/SVG/1.1/DTD/svg11.dtd">
<svg version="1.1" id="Layer_1" xmlns="http://www.w3.org/2000/svg" xmlns:xlink="http://www.w3.org/1999/xlink" x="0px" y="0px"
	 width="32px" height="13px" viewBox="0 0 32 13" style="enable-background:new 0 0 32 13;" xml:space="preserve">
<path d="M26.208,12.998c3.194,0,5.792-2.477,5.792-5.525V5.521C32,2.478,29.404,0,26.208,0H0v13h26.208V12.998z"/>
<path style="fill:#D0D0D0;fill-opacity:0.75;" d="M26.208,10.998C28.3,10.998,30,9.4,30,7.472V5.521
	c0-1.924-1.734-3.523-3.792-3.523H0v9H26.208L26.208,10.998z"/>
<path style="fill:#00FFFF;" d="M26.208,3.498c1.25,0,2.292,0.943,2.292,2.025v1.949c0,1.084-1.042,2.025-2.292,2.025H0v1.5h26.208
	c2.092,0,3.792-1.6,3.792-3.525V5.519c0-1.922-1.7-3.523-3.792-3.523H0v1.501H26.208L26.208,3.498z"/>
</svg>
