<?xml version="1.0" encoding="iso-8859-1"?>
<!-- Generator: Adobe Illustrator 13.0.0, SVG Export Plug-In . SVG Version: 6.00 Build 14948)  -->
<!DOCTYPE svg PUBLIC "-//W3C//DTD SVG 1.1//EN" "http://www.w3.org/Graphics/SVG/1.1/DTD/svg11.dtd">
<svg version="1.1" id="Layer_1" xmlns="http://www.w3.org/2000/svg" xmlns:xlink="http://www.w3.org/1999/xlink" x="0px" y="0px"
	 width="13px" height="32px" viewBox="0 0 13 32" style="enable-background:new 0 0 13 32;" xml:space="preserve">
<path style="fill:#00FFFF;" d="M0,26.208C0,29.4,2.477,32,5.524,32h1.955C10.523,32,13,29.4,13,26.208V0H0V26.208L0,26.208z"/>
<path style="fill:#00FFFF;fill-opacity:0.7;" d="M2,26.206c0,2.095,1.598,3.793,3.523,3.793h1.954c1.922,0,3.522-1.733,3.522-3.793
	V0h-9L2,26.206L2,26.206z"/>
<path d="M9.499,26.206c0,1.25-0.94,2.293-2.022,2.293H5.524c-1.083,0-2.024-1.043-2.024-2.293V0H2v26.208
	C2,28.303,3.598,30,5.523,30h1.954c1.922,0,3.522-1.697,3.522-3.793V0h-1.5V26.206z"/>
</svg>
