<?xml version="1.0" encoding="utf-8"?>
<!-- Generator: Adobe Illustrator 13.0.2, SVG Export Plug-In  -->
<!DOCTYPE svg PUBLIC "-//W3C//DTD SVG 1.1//EN" "http://www.w3.org/Graphics/SVG/1.1/DTD/svg11.dtd" [
	<!ENTITY ns_flows "http://ns.adobe.com/Flows/1.0/">
]>
<svg version="1.1"
	 xmlns="http://www.w3.org/2000/svg" xmlns:xlink="http://www.w3.org/1999/xlink" xmlns:a="http://ns.adobe.com/AdobeSVGViewerExtensions/3.0/"
	 x="0px" y="0px" width="25px" height="38px" viewBox="0 0 25 38" enable-background="new 0 0 25 38" xml:space="preserve">
<defs>
</defs>
<linearGradient id="SVGID_1_" gradientUnits="userSpaceOnUse" x1="12.4995" y1="0" x2="12.4995" y2="38.0005">
	<stop  offset="0" style="stop-color:#FAFAFA"/>
	<stop  offset="1" style="stop-color:#E5E5E5"/>
</linearGradient>
<path fill="url(#SVGID_1_)" d="M6,0H0v38h6c10.493,0,19-8.507,19-19S16.493,0,6,0z"/>
<linearGradient id="SVGID_2_" gradientUnits="userSpaceOnUse" x1="11.4995" y1="2" x2="11.4995" y2="36.0005">
	<stop  offset="0" style="stop-color:#E5E5E5"/>
	<stop  offset="1" style="stop-color:#B2B2B2"/>
</linearGradient>
<path fill="url(#SVGID_2_)" d="M6.06,2H0v34h6.06C15.415,36,23,28.388,23,19S15.415,2,6.06,2z"/>
<linearGradient id="SVGID_3_" gradientUnits="userSpaceOnUse" x1="11.5005" y1="36" x2="11.5005" y2="2.0005">
	<stop  offset="0" style="stop-color:#FFFFFF"/>
	<stop  offset="1" style="stop-color:#B2B2B2"/>
</linearGradient>
<path fill="url(#SVGID_3_)" d="M6.06,2H0v0.999h6.059c8.792,0,15.947,7.179,15.947,16c0,8.823-7.155,16.003-15.947,16.003H0V36h6.06
	C15.415,36,23,28.388,23,19S15.415,2,6.06,2z"/>
<rect fill="none" width="25" height="38"/>
</svg>
