<?xml version="1.0" encoding="utf-8"?>
<!-- Generator: Adobe Illustrator 13.0.2, SVG Export Plug-In  -->
<!DOCTYPE svg PUBLIC "-//W3C//DTD SVG 1.1//EN" "http://www.w3.org/Graphics/SVG/1.1/DTD/svg11.dtd" [
	<!ENTITY ns_flows "http://ns.adobe.com/Flows/1.0/">
]>
<svg version="1.1"
	 xmlns="http://www.w3.org/2000/svg" xmlns:xlink="http://www.w3.org/1999/xlink" xmlns:a="http://ns.adobe.com/AdobeSVGViewerExtensions/3.0/"
	 x="0px" y="0px" width="25px" height="38px" viewBox="0 0 25 38" enable-background="new 0 0 25 38" xml:space="preserve">
<defs>
</defs>
<linearGradient id="SVGID_1_" gradientUnits="userSpaceOnUse" x1="12.4995" y1="0" x2="12.4995" y2="38.0005">
	<stop  offset="0" style="stop-color:#FAFAFA"/>
	<stop  offset="1" style="stop-color:#E5E5E5"/>
</linearGradient>
<path fill="url(#SVGID_1_)" d="M19,0C8.507,0,0,8.507,0,19s8.507,19,19,19h6V0H19z"/>
<linearGradient id="SVGID_2_" gradientUnits="userSpaceOnUse" x1="13.5" y1="2" x2="13.5" y2="36.0005">
	<stop  offset="0" style="stop-color:#E5E5E5"/>
	<stop  offset="1" style="stop-color:#B2B2B2"/>
</linearGradient>
<path fill="url(#SVGID_2_)" d="M18.94,2C9.585,2,2,9.612,2,19s7.585,17,16.94,17H25V2H18.94z"/>
<linearGradient id="SVGID_3_" gradientUnits="userSpaceOnUse" x1="13.5" y1="36" x2="13.5" y2="2.0005">
	<stop  offset="0" style="stop-color:#FFFFFF"/>
	<stop  offset="1" style="stop-color:#B2B2B2"/>
</linearGradient>
<path fill="url(#SVGID_3_)" d="M18.94,35.002c-8.791,0-15.944-7.18-15.944-16.003c0-8.821,7.153-16,15.944-16H25V2h-6.06
	C9.585,2,2,9.612,2,19s7.585,17,16.94,17H25v-0.998H18.94z"/>
<rect fill="none" width="25" height="38"/>
</svg>
