<?xml version="1.0" encoding="UTF-8"?>
<!DOCTYPE svg PUBLIC "-//W3C//DTD SVG 1.1 Tiny//EN" "http://www.w3.org/Graphics/SVG/1.1/DTD/svg11-tiny.dtd">
<svg baseProfile="tiny" height="30px" style="enable-background:new 0 0 30 30;" version="1.1" viewBox="0 0 30 30" width="30px" x="0px" xmlns="http://www.w3.org/2000/svg" xmlns:xlink="http://www.w3.org/1999/xlink" y="0px">
<path d="M15.86,11.48v-3.576h-3.576v2.608h-1.194v-2.606h-3.58v3.581h2.609l-0.009,1.205-2.613,0.016,0.014,3.553,3.556-0.013,0.007-2.597h1.211v2.609h3.577v-3.581h-2.62v-1.192h2.607zm-3.56,1.2h-0.014v0.018h-1.22v-1.209h0.017v-0.014h1.194v0.014h0.014v1.187z"/>
<polygon points="11.7,3.709,17.4,9.396,18.07,8.726,11.66,2.296,5.248,8.708,5.99,9.432"/>
<polygon points="24.06,22.35,6.608,22.35,10.38,28.39,12.24,27.24,10.55,24.54,10.56,24.54,10.56,24.54,24.06,24.54"/>
<polygon points="20.29,14,18.44,15.16,20.11,17.85,6.608,17.85,6.608,20.04,24.06,20.03"/>
<polygon points="10.35,28.39,12.21,27.23,10.53,24.53,13.27,24.53,15.68,28.39,17.53,27.23,15.85,24.53,24.04,24.53,24.04,22.34,6.583,22.34"/>
<rect fill="none" height="29.03" width="29.03" x="0.14" y="0.83"/>
<rect fill="none" height="29.03" width="29.03" x="0.14" y="0.83"/>
</svg>
