<?xml version="1.0" encoding="UTF-8" standalone="no"?>
<!DOCTYPE svg PUBLIC "-//W3C//DTD SVG 1.1 Tiny//EN" "http://www.w3.org/Graphics/SVG/1.1/DTD/svg11-tiny.dtd">
<svg xmlns="http://www.w3.org/2000/svg" xmlns:xlink="http://www.w3.org/1999/xlink" baseProfile="tiny" height="30px" version="1.1" viewBox="0 0 30 30" width="30px" x="0px" y="0px">
<path d="M12.871,3.721c0.038,12.177,0.038,12.177,0.038,12.177s0.008,2.131,2.138,2.137c2.13,0.008,2.124-2.124,2.124-2.124  C17.131,3.735,17.131,3.735,17.131,3.735s-0.158-2.284-2.138-2.138C12.863,1.59,12.871,3.721,12.871,3.721L12.871,3.721z"/>
<path d="M18.112,5.663v3.796c2.921,1.176,4.832,4.033,4.832,7.37c0,4.382-3.563,7.945-7.945,7.945c-4.379,0-7.943-3.563-7.943-7.945  c0-3.279,1.831-6.101,4.674-7.313V5.704C6.927,7.12,3.408,11.563,3.408,16.818c0,6.392,5.201,11.591,11.591,11.591  c6.393,0,11.593-5.199,11.593-11.591C26.592,11.505,22.995,7.027,18.112,5.663z"/>
<rect fill="none" height="30" width="30"/>
</svg>
