<?xml version="1.0" encoding="UTF-8" standalone="no"?>
<!DOCTYPE svg PUBLIC "-//W3C//DTD SVG 1.1 Tiny//EN" "http://www.w3.org/Graphics/SVG/1.1/DTD/svg11-tiny.dtd">
<svg xmlns="http://www.w3.org/2000/svg" xmlns:xlink="http://www.w3.org/1999/xlink" baseProfile="tiny" height="30px" version="1.1" viewBox="0 0 30 30" width="30px" x="0px" y="0px">
<rect fill="none" height="30" width="30"/>
<path d="M15.133,6.023c-4.971,0-9,4.029-9,9s4.029,9,9,9s9-4.029,9-9  S20.104,6.023,15.133,6.023z M15.133,21.023c-3.313,0-6-2.688-6-6c0-3.314,2.688-6,6-6c3.314,0,6,2.686,6,6  C21.133,18.336,18.447,21.023,15.133,21.023z" fill-rule="evenodd"/>
<path d="M16.633,28.943v-4.037c-0.994,0.15-2.006,0.146-3-0.004v4.041  C14.631,29.049,15.637,29.049,16.633,28.943z" fill-rule="evenodd"/>
<path d="M13.633,1.104v4.035c0.994-0.148,2.006-0.146,3,0.006V1.104  C15.635,0.996,14.629,0.996,13.633,1.104z" fill-rule="evenodd"/>
<path d="M1.213,16.523h4.036c-0.149-0.994-0.146-2.006,0.005-3H1.213  C1.106,14.521,1.106,15.527,1.213,16.523z" fill-rule="evenodd"/>
<path d="M29.053,13.523h-4.036c0.149,0.994,0.146,2.006-0.005,3h4.041  C29.159,15.525,29.159,14.52,29.053,13.523z" fill-rule="evenodd"/>
<path d="M23.915,4.119l-2.854,2.854c0.81,0.598,1.522,1.316,2.118,2.125l2.857-2.857  C25.406,5.459,24.694,4.748,23.915,4.119z" fill-rule="evenodd"/>
<path d="M6.351,25.926l2.854-2.854c-0.809-0.598-1.521-1.314-2.117-2.125l-2.857,2.857  C4.859,24.586,5.571,25.297,6.351,25.926z" fill-rule="evenodd"/>
<path d="M4.229,6.24l2.854,2.855c0.598-0.811,1.315-1.523,2.125-2.119L6.351,4.119  C5.569,4.75,4.858,5.461,4.229,6.24z" fill-rule="evenodd"/>
<path d="M26.036,23.805l-2.854-2.854c-0.598,0.809-1.315,1.521-2.125,2.117l2.857,2.857  C24.696,25.297,25.407,24.584,26.036,23.805z" fill-rule="evenodd"/>
</svg>
