<?xml version="1.0" encoding="UTF-8"?>
<!DOCTYPE svg PUBLIC "-//W3C//DTD SVG 1.1 Tiny//EN" "http://www.w3.org/Graphics/SVG/1.1/DTD/svg11-tiny.dtd">
<svg baseProfile="tiny" height="31px" version="1.1" viewBox="-0.558 -0.801 31 31" width="31px" x="0px" xmlns="http://www.w3.org/2000/svg" xmlns:xlink="http://www.w3.org/1999/xlink" y="0px">
<path d="M10.031,14.485c1.288-0.899,2.01-2.207,2.01-3.754c0-2.27-1.652-4.561-5.34-4.561c-2.02,0-3.773,0.743-4.667,1.378  L1.601,7.859L2.705,10.8l0.731-0.526c0.612-0.435,1.722-0.942,2.843-0.942c1.385,0,2.148,0.624,2.148,1.752  c0,1.505-1.748,2.052-2.924,2.052H3.587v3.033h1.917c0.58,0,3.472,0.122,3.499,2.559c0.01,0.628-0.218,1.229-0.629,1.651  c-0.52,0.525-1.304,0.79-2.344,0.79c-1.371,0-2.687-0.563-3.239-0.898l-0.725-0.434l-1.067,2.979l0.455,0.303  c0.856,0.558,2.566,1.208,4.598,1.208c4.543,0,6.611-2.881,6.611-5.556C12.663,16.896,11.645,15.323,10.031,14.485z"/>
<path d="M22.079,13.834v3.132h3.396V20.8c-0.385,0.114-1.056,0.244-2.204,0.244c-3.634,0-5.795-2.28-5.795-6.094  c0-3.742,2.323-6.068,6.065-6.068c1.386,0,2.475,0.208,3.422,0.656l0.721,0.341l0.963-3.104l-0.535-0.258  c-0.801-0.389-2.47-0.843-4.517-0.843c-2.907,0-5.382,0.921-7.152,2.659c-1.712,1.678-2.647,4.063-2.647,6.717  c0,2.727,0.931,5.191,2.556,6.762c1.705,1.625,3.914,2.415,6.769,2.415c2.713,0,4.846-0.742,5.441-0.969L29,23.085v-9.251H22.079z"/>
<rect fill="none" height="30" width="30"/>
<rect fill="none" height="30" width="30"/>
</svg>
