<?xml version="1.0" encoding="UTF-8"?>
<!DOCTYPE svg PUBLIC "-//W3C//DTD SVG 1.1 Tiny//EN" "http://www.w3.org/Graphics/SVG/1.1/DTD/svg11-tiny.dtd">
<svg baseProfile="tiny" height="60" viewBox="0 0 60 60" width="60" xmlns="http://www.w3.org/2000/svg" xmlns:xlink="http://www.w3.org/1999/xlink">
<g>
<rect fill="none" height="60" width="60"/>
<linearGradient gradientUnits="userSpaceOnUse" id="SVGID_1" x1="30" x2="30" y1="8.47" y2="51.33">
<stop offset="0" stop-color="#F2F2F2"/>
<stop offset="0.25" stop-color="#4F88BD"/>
<stop offset="0.73" stop-color="#0055A3"/>
<stop offset="1" stop-color="#64AEFB"/>
</linearGradient>
<path d="M30,51.428C18.184,51.428,8.57,41.816,8.57,30C8.57,18.186,18.184,8.572,30,8.572 c11.814,0,21.43,9.613,21.43,21.428C51.43,41.816,41.814,51.428,30,51.428L30,51.428z" fill="url(#SVGID_1)"/>
<radialGradient cx="29.8" cy="13.11" gradientUnits="userSpaceOnUse" id="SVGID_2" r="39.33">
<stop offset="0" stop-color="#96E9FA"/>
<stop offset="0.15" stop-color="#96E9FA"/>
<stop offset="0.75" stop-color="#005BCC"/>
<stop offset="1" stop-color="#0087D9"/>
</radialGradient>
<path d="M50.816,30c0,11.498-9.322,20.816-20.816,20.816C18.504,50.816,9.184,41.498,9.184,30 c0-11.494,9.32-20.816,20.816-20.816C41.494,9.184,50.816,18.506,50.816,30z" fill="url(#SVGID_2)"/>
<linearGradient gradientUnits="userSpaceOnUse" id="SVGID_3" x1="30" x2="30" y1="15.46" y2="43.93">
<stop offset="0" stop-color="#0B81FA"/>
<stop offset="1" stop-color="#47DAFA"/>
</linearGradient>
<path d="M29.998,44.193c-3.898,0-7.273-1.402-10.029-4.172c-2.762-2.773-4.16-6.152-4.16-10.041 c0-3.871,1.402-7.238,4.168-10.008c2.771-2.764,6.143-4.164,10.021-4.164c3.898,0,7.273,1.398,10.033,4.156 c2.758,2.758,4.16,6.127,4.16,10.016c0,2.268-0.469,4.27-1.387,5.949c-1.176,2.16-2.906,3.262-5.145,3.262 c-1.936,0-3.418-0.859-4.414-2.555c-1.078,0.883-2.398,1.33-3.936,1.33c-2.152,0-3.908-0.84-5.217-2.49 c-1.186-1.494-1.787-3.336-1.787-5.477c0-2.152,0.604-3.986,1.795-5.453c1.285-1.604,3.041-2.42,5.209-2.42 c1.107,0,2.068,0.213,2.873,0.633v-0.313h4.09v10.496c0,2.27,0.971,2.27,1.387,2.27c0.299,0,1.215,0,1.947-1.867 c0.4-1.041,0.604-2.174,0.604-3.365c0-2.805-0.98-5.139-3.004-7.141c-1.992-1.971-4.418-2.971-7.209-2.971 c-2.84,0-5.186,0.965-7.174,2.947c-1.986,1.984-2.953,4.328-2.953,7.164c0,2.842,0.973,5.189,2.967,7.182 c1.967,1.975,4.373,2.973,7.16,2.973h0.611v4.059H29.998L29.998,44.193z M29.311,26.146c-0.887,0-1.553,0.389-2.039,1.184 c-0.455,0.734-0.684,1.633-0.684,2.67c0,3.535,1.553,3.943,2.723,3.943c1.158,0,2.701-0.42,2.701-4.072 C32.012,26.531,30.469,26.146,29.311,26.146L29.311,26.146z" fill="url(#SVGID_3)"/>
<path d="M43.578,29.98c0,2.176-0.438,4.061-1.313,5.654c-1.063,1.961-2.598,2.943-4.605,2.943 c-1.953,0-3.363-0.982-4.242-2.943c-1.059,1.145-2.43,1.719-4.107,1.719c-1.967,0-3.543-0.752-4.736-2.258 c-1.102-1.391-1.656-3.084-1.656-5.096c0-2.021,0.555-3.707,1.656-5.064c1.178-1.467,2.756-2.197,4.736-2.197 c1.477,0,2.639,0.4,3.486,1.207v-0.885h2.863v9.883c0,1.922,0.664,2.883,2,2.883c1.09,0,1.928-0.754,2.516-2.256 c0.43-1.119,0.648-2.313,0.648-3.59c0-2.953-1.063-5.477-3.188-7.576c-2.121-2.1-4.668-3.146-7.639-3.146 c-2.982,0-5.518,1.041-7.607,3.125c-2.086,2.086-3.131,4.615-3.131,7.598c0,2.979,1.045,5.52,3.145,7.615 c2.092,2.102,4.627,3.152,7.594,3.152v2.834c-3.744,0-6.945-1.332-9.596-3.992c-2.654-2.666-3.982-5.873-3.982-9.609 c0-3.727,1.33-6.914,3.99-9.576c2.664-2.654,5.855-3.984,9.588-3.984c3.744,0,6.945,1.322,9.6,3.979 C42.25,23.045,43.578,26.24,43.578,29.98z M32.625,29.871c0-2.893-1.105-4.336-3.314-4.336c-1.104,0-1.961,0.49-2.561,1.479 c-0.52,0.832-0.773,1.826-0.773,2.986c0,3.039,1.109,4.557,3.332,4.557C31.52,34.557,32.625,32.996,32.625,29.871z" fill="#FFFFFF"/>
</g>
</svg>
