<?xml version="1.0" encoding="UTF-8"?>
<!DOCTYPE svg PUBLIC "-//W3C//DTD SVG 1.1 Tiny//EN" "http://www.w3.org/Graphics/SVG/1.1/DTD/svg11-tiny.dtd">
<svg baseProfile="tiny" height="30px" version="1.1" viewBox="0 0 30 30" width="30px" x="0px" xmlns="http://www.w3.org/2000/svg" xmlns:xlink="http://www.w3.org/1999/xlink" y="0px">
<rect fill="none" height="30" width="29.999"/>
<rect height="4" width="6.999" x="14"/>
<polygon points="24.999,17 27.999,17 27.999,1 22.999,1 22.999,4 24.999,4 "/>
<polygon points="19.999,22 10,22 10,4 12,4 12,1 7,1 7,25 19.999,25 "/>
<polygon points="21.999,25 21.999,19 27.999,19 "/>
<rect height="2" width="5.999" x="16.043" y="12"/>
<rect height="2" width="2" x="12.959" y="12"/>
<rect height="2" width="5.999" x="16.043" y="7"/>
<rect height="2" width="2" x="12.959" y="7"/>
<polygon points="15,27 5,27 5,6 2,6 2,30 15,30 "/>
</svg>
