<?xml version="1.0" encoding="UTF-8"?>
<!DOCTYPE svg PUBLIC "-//W3C//DTD SVG 1.1 Tiny//EN" "http://www.w3.org/Graphics/SVG/1.1/DTD/svg11-tiny.dtd">
<svg baseProfile="tiny" height="60px" style="enable-background:new 0 0 30 60;" version="1.1" viewBox="0 0 30 60" width="30px" x="0px" xmlns="http://www.w3.org/2000/svg" xmlns:xlink="http://www.w3.org/1999/xlink" y="0px">
<g>
<path d="M0,0.5h26.869c1.45,0,2.631,1.57,2.631,3.5v52c0,1.93-1.181,3.5-2.631,3.5H0V0.5z" style="fill:url(#SVGID_1_);"/>
<path d="M0.007,59h26.862C28.024,59,29,57.626,29,56V4c0-1.626-0.976-3-2.131-3H0.007V0h26.862   C28.598,0,30,1.791,30,4v52c0,2.207-1.402,4-3.131,4H0.007V59z" style="fill:#E0E0E0;"/>
<defs>
<linearGradient gradientTransform="matrix(-1 0 0 1 30 0)" gradientUnits="userSpaceOnUse" id="SVGID_1_" x1="15.2505" x2="15.2505" y1="59.2354" y2="-0.6073">
<stop offset="0" style="stop-color:#D2D2D2"/>
<stop offset="1" style="stop-color:#AAAAAA"/>
</linearGradient>
</defs>
</g>
<g>
<polygon points="0.007,60 30,60 30,0 0,0  " style="fill:none;"/>
</g>
</svg>
