<?xml version="1.0" encoding="UTF-8"?>
<!DOCTYPE svg PUBLIC "-//W3C//DTD SVG 1.1 Tiny//EN" "http://www.w3.org/Graphics/SVG/1.1/DTD/svg11-tiny.dtd">
<svg baseProfile="tiny" height="30px" version="1.1" viewBox="0 0 30 30" width="30px" x="0px" xmlns="http://www.w3.org/2000/svg" xmlns:xlink="http://www.w3.org/1999/xlink" y="0px">
<path d="M13.261,19.395c0.291,0,0.582,0.014,0.869,0.042V2.29l8.262,2.275V3.137L12.826,0.5v7.031v10.004  c-0.669-0.218-1.403-0.339-2.174-0.339C7.53,17.196,5,19.164,5,21.591c0,1.09,0.513,2.083,1.355,2.851  C6.759,21.604,9.7,19.395,13.261,19.395z"/>
<path d="M25,6.652l-9.565-2.637v7.03V21.05c-0.669-0.217-1.403-0.338-2.174-0.338c-3.122,0-5.652,1.968-5.652,4.394  c0,2.427,2.53,4.395,5.652,4.395c3.123,0,5.652-1.968,5.652-4.395V12.005L25,13.683V6.652z"/>
<g fill-opacity="0.5" stroke-opacity="0.5">
<rect fill="none" height="30" width="30"/>
</g>
</svg>
