<?xml version="1.0" encoding="UTF-8"?>
<!DOCTYPE svg PUBLIC "-//W3C//DTD SVG 1.1 Tiny//EN" "http://www.w3.org/Graphics/SVG/1.1/DTD/svg11-tiny.dtd">
<svg baseProfile="tiny" height="30" viewBox="0 0 30 30" width="30" xmlns="http://www.w3.org/2000/svg" xmlns:xlink="http://www.w3.org/1999/xlink">
<g>
<path d="M15,30C6.729,30,0,23.271,0,15S6.729,0,15,0c8.271,0,15,6.729,15,15S23.271,30,15,30L15,30z" fill-opacity="0.6" stroke-opacity="0.6"/>
<radialGradient cx="15" cy="2.8335" gradientUnits="userSpaceOnUse" id="SVGID_1_" r="24.8358">
<stop offset="0" style="stop-color:#FEE891"/>
<stop offset="0.7818" style="stop-color:#FFB701"/>
<stop offset="1" style="stop-color:#FFC501"/>
</radialGradient>
<circle cx="15" cy="15" fill="url(#SVGID_1_)" r="14"/>
<path d="M15.075,26c-5.617,0-9.75-2.753-11.056-7.363c-0.075-0.266,0.079-0.543,0.345-0.618  c0.262-0.075,0.542,0.079,0.617,0.345C6.158,22.519,9.855,24,15,24c5.143,0,8.992-1.481,10.17-5.637  c0.074-0.266,0.355-0.42,0.617-0.345c0.266,0.075,0.42,0.353,0.344,0.618C24.826,23.247,20.692,26,15.075,26L15.075,26z" fill-opacity="0.2" stroke-opacity="0.2"/>
<path d="M15,2c7.563,0,13.709,6.002,13.975,13.5C28.98,15.332,29,15.169,29,15c0-7.732-6.268-14-14-14  C7.268,1,1,7.268,1,15c0,0.169,0.02,0.332,0.025,0.5C1.291,8.002,7.437,2,15,2z" fill="#FFFFFF" fill-opacity="0.3" stroke-opacity="0.3"/>
<linearGradient gradientUnits="userSpaceOnUse" id="SVGID_2_" x1="8.7505" x2="8.7505" y1="7.9351" y2="14.8952">
<stop offset="0" style="stop-color:#DB9D00"/>
<stop offset="1" style="stop-color:#FFEEA9"/>
</linearGradient>
<path d="M11,15c-0.754,0-1.394-0.564-1.487-1.313C9.3,12,8.874,12,8.691,12c-0.134,0-0.49,0-0.703,1.688  C7.894,14.436,7.254,15,6.5,15H6.443l-0.118-0.01c-0.41-0.053-0.765-0.254-1.01-0.57c-0.246-0.317-0.354-0.711-0.304-1.108  C5.424,10.035,6.893,8,8.846,8c1.111,0,3.063,0.69,3.644,5.313c0.05,0.396-0.058,0.79-0.304,1.107  c-0.245,0.316-0.6,0.518-0.997,0.568l-0.063,0.008L11,15z" fill="url(#SVGID_2_)"/>
<path d="M11,14c-0.248,0-0.464-0.186-0.495-0.438C10.214,11.248,9.371,11,8.691,11s-1.404,0.248-1.695,2.563  c-0.034,0.273-0.273,0.466-0.559,0.434c-0.273-0.035-0.468-0.285-0.434-0.559C6.343,10.742,7.458,9,8.846,9s2.313,1.742,2.651,4.438  c0.034,0.273-0.16,0.523-0.434,0.559C11.042,13.998,11.021,14,11,14L11,14z" fill="#0C3554"/>
<linearGradient gradientTransform="matrix(-1 0 0 1 -566.5 0)" gradientUnits="userSpaceOnUse" id="SVGID_3_" x1="-587.7495" x2="-587.7495" y1="7.9351" y2="14.8952">
<stop offset="0" style="stop-color:#DB9D00"/>
<stop offset="1" style="stop-color:#FFEEA9"/>
</linearGradient>
<path d="M19,15c0.754,0,1.394-0.564,1.487-1.313C20.7,12,21.126,12,21.309,12c0.134,0,0.49,0,0.703,1.688  C22.106,14.436,22.746,15,23.5,15h0.057l0.118-0.01c0.41-0.053,0.765-0.254,1.01-0.57c0.246-0.317,0.354-0.711,0.304-1.108  C24.576,10.035,23.107,8,21.154,8c-1.111,0-3.063,0.69-3.644,5.313c-0.05,0.396,0.058,0.79,0.304,1.107  c0.245,0.316,0.6,0.518,0.997,0.568l0.063,0.008L19,15z" fill="url(#SVGID_3_)"/>
<path d="M19,14c0.248,0,0.464-0.186,0.495-0.438C19.786,11.248,20.629,11,21.309,11s1.404,0.248,1.695,2.563  c0.034,0.273,0.273,0.466,0.559,0.434c0.273-0.035,0.468-0.285,0.434-0.559C23.657,10.742,22.542,9,21.154,9  s-2.313,1.742-2.651,4.438c-0.034,0.273,0.16,0.523,0.434,0.559C18.958,13.998,18.979,14,19,14L19,14z" fill="#0C3554"/>
<path d="M27,20.969l-0.942-2.238c0.062-0.307-0.087-0.621-0.347-0.707  c-0.262-0.09-0.542,0.092-0.617,0.408C23.917,23.367,20.145,25.5,15,25.5c-5.143,0-8.917-2.133-10.094-7.068  c-0.075-0.316-0.355-0.498-0.617-0.408c-0.259,0.086-0.408,0.4-0.346,0.707L3,20.969c0.497,0,0.957-0.506,1.293-1.015  C5.888,24.701,9.807,27,15,27c5.189,0,9.107-2.295,10.704-7.039C25.994,20.344,26.407,20.734,27,20.969z" fill="#FFFFFF" fill-opacity="0.6" stroke-opacity="0.6"/>
<linearGradient gradientUnits="userSpaceOnUse" id="SVGID_4_" x1="14.9995" x2="14.9995" y1="18.1426" y2="26.0441">
<stop offset="0" style="stop-color:#460800"/>
<stop offset="1" style="stop-color:#992323"/>
</linearGradient>
<path d="M27,20.5l-0.942-1.885c0.062-0.259-0.087-0.523-0.347-0.597c-0.262-0.075-0.542,0.079-0.617,0.345  C23.917,22.519,20.144,25,15,25s-8.917-2.481-10.094-6.637c-0.075-0.266-0.355-0.42-0.617-0.345  c-0.259,0.073-0.408,0.338-0.346,0.597L3,20.5c0.497,0,0.957-0.426,1.293-0.854C5.888,23.644,9.807,26,15,26  c5.189,0,9.107-2.354,10.704-6.348C25.994,19.973,26.407,20.303,27,20.5z" fill="url(#SVGID_4_)"/>
</g>
</svg>
