<?xml version="1.0" encoding="UTF-8"?>
<!DOCTYPE svg PUBLIC "-//W3C//DTD SVG 1.1 Tiny//EN" "http://www.w3.org/Graphics/SVG/1.1/DTD/svg11-tiny.dtd">
<svg baseProfile="tiny" height="52px" version="1.1" viewBox="0 1 52 52" width="52px" x="0px" xmlns="http://www.w3.org/2000/svg" xmlns:xlink="http://www.w3.org/1999/xlink" y="0px">
<rect fill="none" height="52" width="52"/>
<path d="M40.264,6.367c-0.025-0.02-0.055-0.038-0.078-0.057l-3.355,4.621  c0.023,0.018,0.053,0.037,0.078,0.055c8.277,6.017,10.119,17.644,4.105,25.921c-6.016,8.278-17.643,10.12-25.922,4.104  C6.916,35.072,5.018,23.658,10.764,15.4l-4.619-3.356c-7.598,10.806-5.133,25.797,5.59,33.588c10.826,7.865,26.033,5.459,33.9-5.368  C53.498,29.439,51.088,14.23,40.264,6.367z" fill="url(#SVGID_1_)"/>
<defs>
<linearGradient gradientTransform="matrix(0.809 0.5878 -0.5878 0.809 -288.5716 -720.7115)" gradientUnits="userSpaceOnUse" id="SVGID_1_" x1="695.1816" x2="689.1973" y1="428.7139" y2="396.4937">
<stop offset="0" style="stop-color:#0067B1"/>
<stop offset="1" style="stop-color:#0069B1;stop-opacity:0.25"/>
</linearGradient>
</defs>
</svg>
