<?xml version="1.0" encoding="UTF-8"?>
<!DOCTYPE svg PUBLIC "-//W3C//DTD SVG 1.1 Tiny//EN" "http://www.w3.org/Graphics/SVG/1.1/DTD/svg11-tiny.dtd">
<svg baseProfile="tiny" height="30" viewBox="0 0 30 30" width="30" xmlns="http://www.w3.org/2000/svg" xmlns:xlink="http://www.w3.org/1999/xlink">
<rect fill="none" height="30" width="30"/>
<rect fill="none" height="30" width="30"/>
<rect height="2.25" width="2.25" x="8.625" y="7.875"/>
<rect height="2.25" width="2.25" x="6.375" y="14.625"/>
<rect height="2.25" width="2.25" x="8.625" y="16.875"/>
<rect height="2.25" width="2.25" x="6.375" y="10.125"/>
<rect height="2.25" width="2.25" x="13.125" y="7.875"/>
<rect height="2.25" width="2.25" x="10.875" y="10.125"/>
<rect height="2.25" width="2.25" x="10.875" y="14.625"/>
<rect height="2.25" width="2.25" x="8.625" y="12.375"/>
<rect height="2.25" width="2.25" x="13.125" y="12.375"/>
<rect height="2.25" width="2.25" x="15.375" y="10.125"/>
<rect height="2.25" width="2.25" x="15.375" y="14.625"/>
<path d="M15.876,26.127v-0.882c0.317,0.081,0.67,0.123,1.056,0.123c0.567,0,0.995-0.177,1.282-0.53 c0.287-0.355,0.456-0.933,0.508-1.736c-0.353,0.322-0.802,0.482-1.349,0.482c-0.656,0-1.156-0.211-1.5-0.636 c-0.344-0.423-0.515-1.023-0.515-1.799c0-0.854,0.204-1.519,0.613-1.995c0.408-0.475,0.999-0.712,1.771-0.712 c0.803,0,1.41,0.281,1.82,0.843c0.41,0.563,0.615,1.517,0.615,2.863c0,1.324-0.259,2.338-0.774,3.043 c-0.514,0.705-1.279,1.059-2.291,1.059C16.746,26.25,16.334,26.209,15.876,26.127z M17.711,22.723c0.336,0,0.592-0.123,0.771-0.372 c0.18-0.247,0.27-0.599,0.27-1.053c0-0.667-0.084-1.168-0.252-1.503c-0.167-0.334-0.418-0.502-0.748-0.502 c-0.326,0-0.572,0.125-0.741,0.374c-0.169,0.25-0.253,0.743-0.253,1.482c0,0.56,0.078,0.963,0.238,1.208 C17.154,22.601,17.393,22.723,17.711,22.723z"/>
<path d="M15.118,18.422c0.074-0.085,0.162-0.173,0.257-0.262v-1.285h-2.25v2.25h1.543C14.794,18.871,14.937,18.631,15.118,18.422z"/>
<path d="M14.248,21.375h-1.123v-2.25h-2.25v2.25h-2.25v-2.25h-2.25v2.25h-2.25v-2.25h2.25v-2.25h-2.25v-2.25h2.25v-2.25h-2.25v-2.25 h2.25v-2.25h-2.25v-2.25h2.25v2.25h2.25v-2.25h2.25v2.25h2.25v-2.25h2.25v2.25h2.25v-2.25h2.25v2.25h-2.25v2.25h2.25v2.25h-2.25 v2.25h2.25v2.25h-2.25v0.448c0.041-0.001,0.076-0.007,0.117-0.007c1.351,0,2.153,0.602,2.612,1.16v-1.078h1.396V3.75H2.25v19.5 h12.484C14.438,22.734,14.276,22.104,14.248,21.375z"/>
<path d="M27.75,18.523v7.645h-1.395v-5.291l-1.44,2.748h-0.589l-1.447-2.748v5.291H21.48v-7.645h1.179l1.964,3.737l1.963-3.737 H27.75z"/>
</svg>
