<?xml version="1.0" ?>
<!DOCTYPE svg  PUBLIC '-//W3C//DTD SVG 1.1 Tiny//EN'  'http://www.w3.org/Graphics/SVG/1.1/DTD/svg11-tiny.dtd'>
<svg baseProfile="tiny" height="30px" version="1.1" viewBox="0 0 30 30" width="30px" x="0px" xmlns="http://www.w3.org/2000/svg" xmlns:xlink="http://www.w3.org/1999/xlink" y="0px">

<g fill-opacity="0.5" stroke-opacity="0.5">

<rect fill="none" height="30" width="30"/>

</g>

<path d="M9.293,14.96c0,1.567,0.373,2.805,1.121,3.712,0.747,0.907,1.668,1.36,2.762,1.36,0.608,0,1.148-0.108,1.626-0.32l1.918-1.918c0.072-0.123,0.146-0.239,0.216-0.373,0.012,0.041,0.029,0.076,0.041,0.115l2.424-2.423c0.02-1.68,0.336-4.327,0.953-7.96h-3.787c-2.206,0-3.97,0.692-5.291,2.078-1.317,1.382-1.977,3.292-1.977,5.722zm4.237-4.17c0.665-0.993,1.472-1.49,2.42-1.49h0.848l-0.506,4.006c-0.219,1.695-0.497,2.885-0.834,3.568-0.338,0.684-0.779,1.025-1.326,1.025-0.611,0-1.03-0.246-1.258-0.738-0.229-0.492-0.342-1.271-0.342-2.338,0-1.69,0.33-3.04,1-4.03z"/>

<path d="M6.736,13.33c0-2.825,0.818-5.033,2.454-6.624s3.762-2.386,6.378-2.386c2.479,0,4.391,0.754,5.735,2.263,1.062,1.19,1.696,2.781,1.921,4.758,0.777-0.527,1.844-0.448,2.533,0.241l0.206,0.206c-0.173-2.918-1.066-5.232-2.691-6.935-1.82-1.903-4.41-2.855-7.77-2.855-3.373,0-6.157,1.019-8.354,3.056s-3.295,4.842-3.295,8.415c0,3.746,1.068,6.629,3.206,8.647,1.26,1.189,2.782,2.02,4.554,2.508l0.138-1.24c0.044-0.399,0.212-0.769,0.471-1.072-3.65-1.1-5.484-4.09-5.484-8.99z"/>

<path d="M24.34,13l-10.6,10.61-0.707,6.364,6.364-0.707,10.61-10.6-5.66-5.66zm-5.65,14.14l-2.828-2.828,8.484-8.485,2.829,2.829-8.48,8.49z"/>

</svg>