<?xml version="1.0" encoding="utf-8"?>
<!-- Generator: Adobe Illustrator 13.0.2, SVG Export Plug-In  -->
<!DOCTYPE svg PUBLIC "-//W3C//DTD SVG 1.1//EN" "http://www.w3.org/Graphics/SVG/1.1/DTD/svg11.dtd" [
	<!ENTITY ns_flows "http://ns.adobe.com/Flows/1.0/">
]>
<svg version="1.1"
	 xmlns="http://www.w3.org/2000/svg" xmlns:xlink="http://www.w3.org/1999/xlink" xmlns:a="http://ns.adobe.com/AdobeSVGViewerExtensions/3.0/"
	 x="0px" y="0px" width="80px" height="80px" viewBox="0 0 80 80" enable-background="new 0 0 80 80" xml:space="preserve">
<defs>
</defs>
<linearGradient id="SVGID_1_" gradientUnits="userSpaceOnUse" x1="43" y1="6.0918" x2="43" y2="75.1871">
	<stop  offset="0" style="stop-color:#00B9FF"/>
	<stop  offset="0.2458" style="stop-color:#00A0EE"/>
	<stop  offset="0.563" style="stop-color:#0087DC"/>
	<stop  offset="0.7527" style="stop-color:#007DD5"/>
</linearGradient>
<path fill="url(#SVGID_1_)" d="M24.194,6.92C29.596,5.641,34.545,5,39.042,5c7.337,0,12.966,1.428,16.884,4.285
	c3.919,2.857,5.879,7.08,5.879,12.67c0,2.123-0.344,4.066-1.031,5.83s-1.585,3.35-2.692,4.754c-1.108,1.404-3.037,3.451-5.784,6.137
	c-2.686,2.527-4.473,4.488-5.363,5.877s-1.335,2.975-1.335,4.754v2.014H30.893v-2.668c0-2.623,0.546-5.043,1.639-7.26
	c1.094-2.219,3.295-4.857,6.604-7.916c2.592-2.404,4.348-4.34,5.269-5.809c0.921-1.467,1.381-3.105,1.381-4.918
	c0-2.717-0.818-4.809-2.458-6.275s-4.02-2.201-7.143-2.201c-3.247,0-7.244,0.609-11.99,1.826V6.92z M38.292,56.311
	c2.717,0,4.964,0.875,6.745,2.625c1.779,1.748,2.67,3.98,2.67,6.697s-0.906,4.957-2.717,6.721C43.179,74.117,40.945,75,38.292,75
	c-2.654,0-4.87-0.883-6.651-2.646c-1.779-1.764-2.669-4.004-2.669-6.721s0.875-4.949,2.622-6.697
	C33.343,57.186,35.576,56.311,38.292,56.311z"/>
<linearGradient id="SVGID_2_" gradientUnits="userSpaceOnUse" x1="43" y1="5.6294" x2="43" y2="67.664">
	<stop  offset="0" style="stop-color:#8CE0FF"/>
	<stop  offset="0.1167" style="stop-color:#78D6F9"/>
	<stop  offset="0.4027" style="stop-color:#4DBFED"/>
	<stop  offset="0.6262" style="stop-color:#33B0E5"/>
	<stop  offset="0.7582" style="stop-color:#29ABE2"/>
</linearGradient>
<path fill="url(#SVGID_2_)" d="M55.926,9.285C52.008,6.428,46.379,5,39.042,5c-4.497,0-9.446,0.641-14.848,1.92v2.664
	c5.401-1.281,10.351-1.92,14.848-1.92c7.337,0,12.966,1.428,16.884,4.285c3.611,2.633,5.539,6.443,5.822,11.396
	c0.032-0.455,0.057-0.918,0.057-1.391C61.805,16.365,59.845,12.143,55.926,9.285z M39.136,36.141
	c2.592-2.404,4.348-4.34,5.269-5.807c0.921-1.469,1.381-3.107,1.381-4.92c0-0.475-0.033-0.926-0.084-1.363
	c-0.17,1.305-0.602,2.51-1.297,3.617c-0.921,1.469-2.677,3.404-5.269,5.809c-3.31,3.059-5.511,5.697-6.604,7.916
	c-1.093,2.217-1.639,4.637-1.639,7.26v2.662c0-2.621,0.546-5.041,1.639-7.258C33.625,41.84,35.826,39.201,39.136,36.141z
	 M38.292,56.311c-2.716,0-4.949,0.875-6.698,2.625c-1.747,1.748-2.622,3.98-2.622,6.697c0,0.457,0.035,0.896,0.084,1.326
	c0.247-2.117,1.087-3.908,2.538-5.359c1.749-1.75,3.982-2.623,6.698-2.623c2.717,0,4.964,0.873,6.745,2.623
	c1.477,1.451,2.332,3.242,2.582,5.359c0.052-0.43,0.088-0.869,0.088-1.326c0-2.717-0.891-4.949-2.67-6.697
	C43.256,57.186,41.009,56.311,38.292,56.311z"/>
<path opacity="0.3" fill="#005EC2" d="M43.327,16.475c1.466,1.313,2.271,3.129,2.427,5.439c0.008-0.166,0.031-0.324,0.031-0.496
	c0-2.717-0.818-4.809-2.458-6.275c-1.64-1.469-4.02-2.201-7.143-2.201c-3.247,0-7.244,0.609-11.99,1.826V16.1
	c4.746-1.217,8.743-1.826,11.99-1.826C39.308,14.273,41.688,15.008,43.327,16.475z M30.893,51.32h14.706v-1.332H30.893V51.32z
	 M44.99,71.021c-1.812,1.764-4.045,2.646-6.698,2.646c-2.654,0-4.87-0.883-6.651-2.646c-1.633-1.619-2.506-3.643-2.642-6.061
	c-0.012,0.221-0.027,0.441-0.027,0.672c0,2.717,0.89,4.957,2.669,6.721C33.422,74.117,35.638,75,38.292,75
	c2.653,0,4.887-0.883,6.698-2.646c1.811-1.764,2.717-4.004,2.717-6.721c0-0.23-0.017-0.451-0.029-0.672
	C47.541,67.379,46.651,69.402,44.99,71.021z M61.776,21.318c-0.069,1.85-0.393,3.566-1.003,5.135
	c-0.688,1.764-1.585,3.35-2.692,4.754c-1.108,1.404-3.037,3.449-5.784,6.135c-2.686,2.529-4.473,4.49-5.363,5.879
	s-1.335,2.975-1.335,4.754v1.332c0-1.779,0.444-3.365,1.335-4.754s2.678-3.35,5.363-5.877c2.747-2.686,4.676-4.732,5.784-6.137
	c1.107-1.404,2.005-2.99,2.692-4.754s1.031-3.707,1.031-5.83C61.805,21.736,61.781,21.533,61.776,21.318z"/>
<rect fill="none" width="80" height="80"/>
</svg>
