<?xml version="1.0" encoding="UTF-8"?>
<!DOCTYPE svg PUBLIC "-//W3C//DTD SVG 1.1 Tiny//EN" "http://www.w3.org/Graphics/SVG/1.1/DTD/svg11-tiny.dtd">
<svg baseProfile="tiny" height="15px" version="1.1" viewBox="0 0 15 15" width="15px" x="0px" xmlns="http://www.w3.org/2000/svg" xmlns:xlink="http://www.w3.org/1999/xlink" y="0px">
<g>
<path d="M15,15c0-4.963-4.038-9-9-9H0v9H15z" fill="#14141E" fill-opacity="0.1" fill-rule="evenodd" stroke-opacity="0.1"/>
<path d="M14,15c0-4.41-3.589-8-8-8H0v8H14z" fill="url(#SVGID_1_)" fill-rule="evenodd"/>
<path d="M6,7H0v1h6c3.859,0,7,3.141,7,7h1C14,10.59,10.411,7,6,7z" fill-opacity="0.2" stroke-opacity="0.2"/>
<path d="M6,8H0v1h6c3.309,0,6,2.691,6,6h1   C13,11.141,9.859,8,6,8z" fill="#FFFFFF" fill-opacity="0.2" fill-rule="evenodd" stroke-opacity="0.2"/>
<rect fill="none" height="15" width="15"/>
<defs>
<linearGradient gradientUnits="userSpaceOnUse" id="SVGID_1_" x1="6.9995" x2="6.9995" y1="8.5771" y2="52.8435">
<stop offset="0" style="stop-color:#66CCAD"/>
<stop offset="1" style="stop-color:#3FA990"/>
</linearGradient>
</defs>
</g>
</svg>
