<?xml version="1.0" encoding="UTF-8"?>
<!DOCTYPE svg PUBLIC "-//W3C//DTD SVG 1.1 Tiny//EN" "http://www.w3.org/Graphics/SVG/1.1/DTD/svg11-tiny.dtd">
<svg baseProfile="tiny" height="30px" version="1.1" viewBox="0 0 30 30" width="30px" x="0px" xmlns="http://www.w3.org/2000/svg" xmlns:xlink="http://www.w3.org/1999/xlink" y="0px">
<g fill-opacity="0.5" stroke-opacity="0.5">
<rect fill="none" height="30" width="30"/>
</g>
<polygon points="26,4 12,4 12,2 2,2 2,4 2,5 2,6 26,6 "/>
<polygon points="5,11 25,11 25,12 28,12 28,8 2,8 2,25 9,25 9,22 5,22 "/>
<path d="M30,16v-2H11v2h1v2h-1v2h3v4h-3v2h1v2h-1v2h19v-2h-1v-2h1v-2h-3v-4h3v-2h-1v-2H30z M19,18v-2h3v2H19z M14,16h3v2h-3V16z   M22,26v2h-3v-2H22z M14,26h3v2h-3V26z M27,28h-3v-2h3V28z M24,24h-7v-4h7V24z M27,18h-3v-2h3V18z"/>
</svg>
