<?xml version="1.0" encoding="UTF-8" standalone="no"?>
<!DOCTYPE svg PUBLIC "-//W3C//DTD SVG 1.1 Tiny//EN" "http://www.w3.org/Graphics/SVG/1.1/DTD/svg11-tiny.dtd">
<svg xmlns="http://www.w3.org/2000/svg" xmlns:xlink="http://www.w3.org/1999/xlink" baseProfile="tiny" height="30px" version="1.1" viewBox="0 0 30 30" width="30px" x="0px" y="0px">
<g fill-opacity="0.5" stroke-opacity="0.5">
<rect fill="none" height="30" width="30"/>
</g>
<polygon points="9.49,8.148 17.801,10.801 19.199,8 13.601,6.601 "/>
<path d="M15,1C7.267,1,1,7.267,1,15c0,0.278,0.025,0.55,0.042,0.824c0.045-0.025,0.082-0.062,0.13-0.083l4.591-2.088  c-0.423-1.019,0.124-3.402,0.441-3.792c0.328-0.4,2.885-2.153,2.885-2.153L8.76,7.233C8.538,6.758,9.964,6.102,9.964,6.102  c0.548,0.367,0.912,0,0.912,0l0.146-0.366l-0.146-0.546l1.132-1.405l1.082-0.25c0.624-0.103,1.259-0.171,1.911-0.171  c1.384,0,2.705,0.255,3.936,0.7l-1.136,1.136l1.398,1.401l1.401-1.401l-0.772-0.771c3.815,1.754,6.528,5.505,6.777,9.915  c-0.795-1.197-1.602-3.495-1.602-3.495l-1.788-0.328L21.608,9.9l0.913,1.239l0.656-0.291c0,0,0.804,0.767,0.766,1.021  c-0.034,0.258-1.237,1.424-1.237,1.424l-1.057,0.377l-1.391-1.145l-1.06-0.874l0.656,1.569l0.878,0.913c0,0,1.534-0.219,1.753-0.037  c0.22,0.181-0.293,1.572-0.293,1.572l-2.557,2.626l-0.253,2.627c-1.426,0.734-1.571,1.859-1.571,1.859s-0.365-0.069-1.313,0.991  c-0.95,1.057-1.973,0.78-1.973,0.78c-1.206,0-1.425-0.78-1.425-1.037c0-0.107-0.212-0.519-0.457-1.004  c0.017,0.693-0.313,1.353-0.901,1.731c-0.329,0.212-0.706,0.318-1.083,0.318c-0.345,0-0.69-0.089-1-0.268l-0.866-0.501l-0.839,1.453  c-0.129,0.752-0.032,1.416,0.099,1.899C10.103,28.319,12.47,29,15,29c7.733,0,14-6.267,14-14S22.733,1,15,1z M24.172,22.484  c-0.474,0.579-1.002,1.112-1.575,1.593l-1.185-1.067l1.399-2.801l1.989,0.392L24.172,22.484z"/>
<path d="M6.062,24.525l2-3.464l2.599,1.5L9.83,14L2,17.562l2.598,1.5l-2,3.464c0,0-1.938,5.475,4.063,6.475  C6.66,29,5.463,27.051,6.062,24.525z"/>
</svg>
