<?xml version="1.0" encoding="UTF-8" standalone="no"?>
<!DOCTYPE svg PUBLIC "-//W3C//DTD SVG 1.1 Tiny//EN" "http://www.w3.org/Graphics/SVG/1.1/DTD/svg11-tiny.dtd">
<svg xmlns="http://www.w3.org/2000/svg" xmlns:xlink="http://www.w3.org/1999/xlink" baseProfile="tiny" height="60" viewBox="0 0 60 60" width="60">
<g>
<rect fill="none" height="60" width="60"/>
<linearGradient gradientUnits="userSpaceOnUse" id="SVGID_1_" x1="30" x2="30" y1="18.4185" y2="40.575">
<stop offset="0" style="stop-color:#A8B1B3"/>
<stop offset="0.3879" style="stop-color:#FFFFFF"/>
<stop offset="1" style="stop-color:#A2A6A8"/>
</linearGradient>
<rect fill="url(#SVGID_1_)" height="22.247" width="56" x="2" y="18.306"/>
<linearGradient gradientUnits="userSpaceOnUse" id="SVGID_2_" x1="30" x2="30" y1="20.687" y2="39.4278">
<stop offset="0" style="stop-color:#A9AAAD"/>
<stop offset="1" style="stop-color:#000000"/>
</linearGradient>
<rect fill="url(#SVGID_2_)" height="18.817" width="46.884" x="6.558" y="20.592"/>
<rect fill="#231F20" fill-opacity="0.2" height="18.817" stroke-opacity="0.2" width="1.143" x="52.285" y="20.592"/>
<rect fill="#231F20" fill-opacity="0.2" height="18.817" stroke-opacity="0.2" width="1.143" x="6.717" y="20.592"/>
<linearGradient gradientUnits="userSpaceOnUse" id="SVGID_3_" x1="30" x2="30" y1="18.4243" y2="41.7178">
<stop offset="0" style="stop-color:#D2D3D3"/>
<stop offset="1" style="stop-color:#7B7E80"/>
</linearGradient>
<path d="M2,18.306v23.389h56V18.306H2z M56.856,40.553H3.143V19.448h53.714V40.553z" fill="url(#SVGID_3_)"/>
<polygon points="37.213,27.633 36.295,27.103 34.896,29.523 33.5,27.103 32.58,27.633 33.979,30.055 31.184,30.055 31.184,31.116   33.979,31.116 32.58,33.536 33.498,34.066 34.896,31.646 36.295,34.066 37.214,33.536 35.816,31.116 38.611,31.116 38.611,30.055   35.814,30.055 "/>
<polygon points="26.602,27.633 25.684,27.103 24.285,29.523 22.889,27.103 21.969,27.633 23.367,30.055 20.57,30.055 20.57,31.116   23.367,31.116 21.969,33.536 22.887,34.066 24.285,31.646 25.684,34.066 26.603,33.536 25.204,31.116 27.999,31.116 27.999,30.055   25.203,30.055 "/>
<polygon points="15.989,27.633 15.072,27.103 13.674,29.523 12.277,27.103 11.357,27.633 12.756,30.055 9.959,30.055 9.959,31.116   12.756,31.116 11.357,33.536 12.276,34.066 13.674,31.646 15.072,34.066 15.99,33.536 14.593,31.116 17.388,31.116 17.388,30.055   14.592,30.055 "/>
<rect height="1.303" width="6.512" x="42.371" y="32.94"/>
<polygon fill-opacity="0.2" points="31.691,33.056 32.851,31.048 30.531,31.048 30.531,28.684 32.851,28.684 31.691,26.674   33.738,25.495 34.896,27.502 36.057,25.494 38.102,26.675 36.943,28.684 39.262,28.684 39.262,31.048 36.943,31.048 38.104,33.057   36.056,34.235 34.896,32.228 33.738,34.235 " stroke-opacity="0.2"/>
<polygon fill="#FFFFFF" points="38.611,29.335 35.814,29.335 37.213,26.913 36.295,26.384 34.896,28.805 33.5,26.384 32.58,26.913   33.979,29.335 31.184,29.335 31.184,30.396 33.979,30.396 32.58,32.817 33.498,33.348 34.896,30.927 36.295,33.348 37.214,32.817   35.816,30.396 38.611,30.396 "/>
<polygon fill-opacity="0.2" points="21.08,33.056 22.238,31.048 19.92,31.048 19.92,28.684 22.239,28.684 21.08,26.675 23.127,25.495   24.285,27.502 25.445,25.495 27.49,26.675 26.331,28.684 28.65,28.684 28.65,31.048 26.332,31.048 27.492,33.057 25.445,34.235   24.285,32.228 23.125,34.236 " stroke-opacity="0.2"/>
<polygon fill="#FFFFFF" points="27.999,29.335 25.203,29.335 26.602,26.913 25.684,26.384 24.285,28.805 22.889,26.384   21.969,26.913 23.367,29.335 20.57,29.335 20.57,30.396 23.367,30.396 21.969,32.817 22.887,33.348 24.285,30.927 25.684,33.348   26.603,32.817 25.204,30.396 27.999,30.396 "/>
<polygon fill-opacity="0.2" points="10.469,33.056 11.627,31.048 9.309,31.048 9.309,28.684 11.627,28.684 10.469,26.675 12.516,25.495   13.674,27.502 14.834,25.494 16.879,26.675 15.72,28.684 18.039,28.684 18.039,31.048 15.721,31.048 16.881,33.056 14.834,34.235   13.674,32.228 12.515,34.235 " stroke-opacity="0.2"/>
<polygon fill="#FFFFFF" points="17.388,29.335 14.592,29.335 15.989,26.913 15.072,26.384 13.674,28.805 12.277,26.384   11.357,26.913 12.756,29.335 9.959,29.335 9.959,30.396 12.756,30.396 11.357,32.817 12.276,33.348 13.674,30.927 15.072,33.348   15.99,32.817 14.593,30.396 17.388,30.396 "/>
<rect fill-opacity="0.2" height="2.604" stroke-opacity="0.2" width="7.813" x="41.721" y="31.569"/>
<rect fill="#E6E6E6" height="1.303" width="6.512" x="42.371" y="32.22"/>
<rect fill-opacity="0.3" height="0.651" stroke-opacity="0.3" width="46.884" x="6.558" y="20.592"/>
<rect fill="none" height="60" width="60"/>
</g>
</svg>
