<?xml version="1.0" encoding="UTF-8"?>
<!DOCTYPE svg PUBLIC "-//W3C//DTD SVG 1.1 Tiny//EN" "http://www.w3.org/Graphics/SVG/1.1/DTD/svg11-tiny.dtd">
<svg baseProfile="tiny" height="30" viewBox="0 0 30 30" width="30" xmlns="http://www.w3.org/2000/svg" xmlns:xlink="http://www.w3.org/1999/xlink">
<rect fill="none" height="30" width="30"/>
<rect height="2" width="2" x="5" y="6"/>
<rect height="2" width="2" x="5" y="11"/>
<rect height="2" width="2" x="5" y="16"/>
<rect height="2" width="2" x="5" y="21"/>
<path d="M14.041,21H8.059v2h2.916c0.254-0.184,0.603-0.404,1.137-0.74C12.846,21.798,13.482,21.381,14.041,21z"/>
<path d="M8.059,18h7.27c-0.252-0.354-0.477-0.729-0.67-1.138c-0.125-0.264-0.229-0.554-0.316-0.862H8.059V18z"/>
<path d="M8.059,11v2h5.885c-0.023-0.741-0.004-1.437,0.025-2H8.059z"/>
<path d="M8.059,6v2h6.486c0.354-0.734,0.87-1.414,1.486-2H8.059z"/>
<path d="M3,3h18v1h0.591C22.363,4,23.197,4.233,24,4.629V0H0v29h10v-3H3V3z"/>
<path d="M20.399,6c-1.88,0-4.354,2.176-4.354,4.034c0,0-0.431,4.175,0.419,5.972c0.467,0.982,1.139,1.708,2.092,2.334 c0.003,0.128,0.01,0.794,0.002,0.921c-0.006,0.087-0.037,0.179-0.068,0.271h5.021c-0.031-0.093-0.063-0.185-0.068-0.271 c-0.009-0.135-0.001-0.784,0.001-0.921c0.931-0.628,1.583-1.365,2.073-2.328c0.908-1.782,0.423-5.978,0.423-5.978 c0-1.858-2.47-4.034-4.35-4.034H20.399z"/>
<path d="M23.916,20.221L21,26.816l-2.916-6.596c-1.453,1.828-5.831,4.192-6.084,4.525V30h18v-5.25 C29.747,24.416,25.369,22.05,23.916,20.221z"/>
</svg>
