<?xml version="1.0" encoding="UTF-8"?>
<!DOCTYPE svg PUBLIC "-//W3C//DTD SVG 1.1 Tiny//EN" "http://www.w3.org/Graphics/SVG/1.1/DTD/svg11-tiny.dtd">
<svg baseProfile="tiny" height="15px" version="1.1" viewBox="0 0 15 15" width="15px" x="0px" xmlns="http://www.w3.org/2000/svg" xmlns:xlink="http://www.w3.org/1999/xlink" y="0px">
<g>
<path d="M0,0v9h4c4.61,0,7.485,2.654,8.638,5.141   C12.968,14.852,13.448,15,13.793,15c0.555,0,1.016-0.406,1.176-1.035L15,13.844V0H0z" fill="#14141E" fill-opacity="0.1" fill-rule="evenodd" stroke-opacity="0.1"/>
<path d="M0,0v8h4c5,0,8.203,2.827,9.545,5.719   c0.294,0.633,0.455,0,0.455,0V0H0z" fill="url(#SVGID_1_)" fill-rule="evenodd"/>
<path d="M13,0v1v10.03C11.156,8.824,8.157,7,4,7H0v1h4c5,0,8.203,2.827,9.545,5.719c0.294,0.633,0.455,0,0.455,0V1V0   H13z" fill-opacity="0.2" stroke-opacity="0.2"/>
<path d="M12,0v8.667C9.809,6.933,7.043,6,4,6H0v1h4   c4.157,0,7.156,1.825,9,4.03V0H12z" fill="#FFFFFF" fill-opacity="0.2" fill-rule="evenodd" stroke-opacity="0.2"/>
<rect fill="none" height="15" width="15" y="0"/>
<defs>
<linearGradient gradientUnits="userSpaceOnUse" id="SVGID_1_" x1="6.9995" x2="6.9995" y1="-36.4253" y2="7.8415">
<stop offset="0" style="stop-color:#66CCAD"/>
<stop offset="1" style="stop-color:#3FA990"/>
</linearGradient>
</defs>
</g>
</svg>
