<?xml version="1.0" ?>
<!DOCTYPE svg  PUBLIC '-//W3C//DTD SVG 1.1//EN'  'http://www.w3.org/Graphics/SVG/1.1/DTD/svg11.dtd'>
<svg height="60" viewBox="0 0 60 60" width="60" xmlns="http://www.w3.org/2000/svg" xmlns:xlink="http://www.w3.org/1999/xlink">
<g>
<defs>
</defs>
<rect fill="none" height="60" width="60.001"/>
<radialGradient cx="-2784.4399" cy="950.8906" gradientTransform="matrix(2.2479 0 0 -2.2479 6289.1426 2167.5063)" gradientUnits="userSpaceOnUse" id="SVGID_1_" r="11.5664">
	<stop offset="0" style="stop-color:#C7D4E6"/>
	<stop offset="0.2865" style="stop-color:#C7D4E6"/>
	<stop offset="0.6966" style="stop-color:#7288A2"/>
	<stop offset="1" style="stop-color:#2B3842"/>
</radialGradient>
<path d="M30.001,4C44.36,4,55.999,15.639,55.999,30c0,14.355-11.639,26-25.998,26  C15.644,56,3.999,44.355,3.999,30C3.999,15.639,15.644,4,30.001,4z" fill="url(#SVGID_1_)"/>
<linearGradient gradientTransform="matrix(1.1364 0 0 -1.1364 921.2343 225.8096)" gradientUnits="userSpaceOnUse" id="SVGID_2_" x1="-784.1318" x2="-784.1318" y1="179.2046" y2="193.8286">
	<stop offset="0" style="stop-color:#627995"/>
	<stop offset="0.8708" style="stop-color:#FFFFFF"/>
	<stop offset="1" style="stop-color:#FFFFFF"/>
</linearGradient>
<path d="M10.954,21.855c14.129-24.376,34.65-9.408,38.398,0.283  c0.004,0.043,0.035,0.021,0.021-0.025c-1.256-9.354-9.393-16.57-19.244-16.57c-9.758,0-17.836,7.076-19.209,16.299  C10.909,21.906,10.941,21.922,10.954,21.855z" fill="url(#SVGID_2_)" opacity="0.9"/>
<radialGradient cx="-2784.6987" cy="972.9805" gradientTransform="matrix(2.2479 0 0 -2.2479 6289.1426 2167.5063)" gradientUnits="userSpaceOnUse" id="SVGID_3_" r="20.134">
	<stop offset="0" style="stop-color:#FFFFFF"/>
	<stop offset="0.4831" style="stop-color:#FFFFFF"/>
	<stop offset="0.8989" style="stop-color:#627995"/>
	<stop offset="1" style="stop-color:#3F607E"/>
</radialGradient>
<path d="M30.13,6.475c-9.691,0-17.723,6.912-19.182,15.391c4.369,2.057,7.584-2.965,17.989-2.326  c9.461,0.411,16.292,4.969,20.405,2.609C48.022,13.534,39.923,6.475,30.13,6.475z" fill="url(#SVGID_3_)"/>
<path d="M40.485,13.187c-9.441,0-13.418,7.935-15.832,14.851c-2.535,7.271-4.158,8.449-7.061,8.449h-0.861  c-0.667,0-1.205,0.537-1.205,1.203v6.673c0,0.671,0.538,1.206,1.205,1.206h0.861c8.631,0,12.34-6.012,14.545-11.559  c1.281,0,6.207,0,6.207,0c0.672,0,1.209-0.538,1.209-1.207v-6.672c0-0.671-0.537-1.207-1.209-1.207c0,0-1.121,0-2.246,0  c1.559-2.259,3.027-2.647,4.387-2.647h0.859c0.666,0,1.205-0.542,1.205-1.21v-6.672c0-0.663-0.539-1.207-1.205-1.207L40.485,13.187  L40.485,13.187z" fill="#1F2430"/>
<radialGradient cx="-2784.8672" cy="951.167" gradientTransform="matrix(2.2479 0 0 -2.2479 6289.1426 2167.5063)" gradientUnits="userSpaceOnUse" id="SVGID_4_" r="6.1">
	<stop offset="0" style="stop-color:#1F2430"/>
	<stop offset="0.1011" style="stop-color:#1F2430"/>
	<stop offset="1" style="stop-color:#FFFFFF"/>
</radialGradient>
<path d="M40.485,14.391c-8.629,0-12.268,7.097-14.693,14.041l0,0c-2.504,7.183-4.342,9.258-8.199,9.258  h-0.861v6.678h0.861c8.127,0,11.533-5.752,13.721-11.566c0.99,0,7.035,0,7.035,0v-6.67c0,0-2.956,0-4.377,0  c1.818-3.563,3.754-5.064,6.51-5.064h0.863v-6.674h-0.859V14.391z" fill="url(#SVGID_4_)"/>
<path d="M26.401,28.646L26.401,28.646c-2.291,6.567-4.151,9.69-9.023,9.69v5.38c8.25,0,11.383-5.817,13.486-11.557  c0.284,0,6.827,0,6.827,0v-5.387c0,0-4.159,0-4.751,0c2.047-4.433,4.256-6.352,7.752-6.352v-5.381  C32.188,15.041,28.753,21.918,26.401,28.646z" fill="#FFFFFF"/>
<path d="M30.13,6.475c-9.691,0-17.723,6.912-19.182,15.391c4.369,2.057,7.584-2.965,17.989-2.326  c9.461,0.411,16.292,4.969,20.405,2.609C48.022,13.534,39.923,6.475,30.13,6.475z" fill="#FFFFFF" fill-opacity="0.3"/>
<rect fill="none" height="60" width="60.001"/>
</g>
</svg>