<?xml version="1.0" encoding="UTF-8"?>
<!DOCTYPE svg PUBLIC "-//W3C//DTD SVG 1.1 Tiny//EN" "http://www.w3.org/Graphics/SVG/1.1/DTD/svg11-tiny.dtd">
<svg baseProfile="tiny" height="60px" version="1.1" viewBox="45 45 60 60" width="60px" x="0px" xmlns="http://www.w3.org/2000/svg" xmlns:xlink="http://www.w3.org/1999/xlink" y="0px">
<g>
<rect fill="none" height="52" width="52" x="49" y="49"/>
<path d="M60.735,55.369c-0.025,0.018-0.052,0.039-0.077,0.057l3.356,4.619   c0.024-0.018,0.052-0.038,0.078-0.056c8.279-6.015,19.907-4.173,25.921,4.104c6.016,8.28,4.173,19.906-4.106,25.921   c-8.176,5.939-19.617,4.22-25.695-3.799l-4.621,3.356c7.929,10.565,22.948,12.854,33.672,5.063   c10.825-7.864,13.236-23.071,5.37-33.898C86.768,49.911,71.56,47.504,60.735,55.369z" fill="url(#SVGID_1_)"/>
<defs>
<linearGradient gradientTransform="matrix(0.809 -0.5878 -0.5878 -0.809 -492.5839 4.0465)" gradientUnits="userSpaceOnUse" id="SVGID_1_" x1="419.2471" x2="413.2627" y1="-400.5405" y2="-368.3203">
<stop offset="0" style="stop-color:#3B87C0"/>
<stop offset="1" style="stop-color:#0069B2;stop-opacity:0"/>
</linearGradient>
</defs>
</g>
</svg>
