<?xml version="1.0" encoding="UTF-8"?>
<!DOCTYPE svg PUBLIC "-//W3C//DTD SVG 1.1 Tiny//EN" "http://www.w3.org/Graphics/SVG/1.1/DTD/svg11-tiny.dtd">
<svg baseProfile="tiny" height="60" viewBox="0 0 60 60" width="60" xmlns="http://www.w3.org/2000/svg" xmlns:xlink="http://www.w3.org/1999/xlink">
<g>
<linearGradient gradientUnits="userSpaceOnUse" id="SVGID_1_" x1="29.9995" x2="29.9995" y1="5.937" y2="55.9156">
<stop offset="0" style="stop-color:#F0EDDC"/>
<stop offset="1" style="stop-color:#B39C4D"/>
</linearGradient>
<polygon fill="url(#SVGID_1_)" points="2,54.248 30,5.752 58,54.248 "/>
<linearGradient gradientUnits="userSpaceOnUse" id="SVGID_2_" x1="29.9995" x2="29.9995" y1="8.3774" y2="52.771">
<stop offset="0" style="stop-color:#D3CA99"/>
<stop offset="0.1394" style="stop-color:#D3CA99"/>
<stop offset="0.7879" style="stop-color:#AC8A4A"/>
<stop offset="1" style="stop-color:#C3B475"/>
</linearGradient>
<polygon fill="url(#SVGID_2_)" points="4.564,52.768 30,8.713 55.436,52.768 "/>
<rect fill-opacity="0.1" height="18.612" stroke-opacity="0.1" width="5.91" x="26.86" y="22.119"/>
<circle cx="29.815" cy="46.689" fill-opacity="0.1" r="3.242" stroke-opacity="0.1"/>
<rect fill-opacity="0.2" height="18.612" stroke-opacity="0.2" width="5.91" x="26.86" y="21.511"/>
<circle cx="29.815" cy="46.08" fill-opacity="0.2" r="3.242" stroke-opacity="0.2"/>
<linearGradient gradientUnits="userSpaceOnUse" id="SVGID_3_" x1="29.8145" x2="29.8145" y1="20.8052" y2="48.7668">
<stop offset="0" style="stop-color:#666666"/>
<stop offset="1" style="stop-color:#000000"/>
</linearGradient>
<rect fill="url(#SVGID_3_)" height="18.612" width="5.91" x="26.86" y="20.902"/>
<linearGradient gradientUnits="userSpaceOnUse" id="SVGID_4_" x1="29.8145" x2="29.8145" y1="42.1816" y2="48.7683">
<stop offset="0" style="stop-color:#666666"/>
<stop offset="1" style="stop-color:#000000"/>
</linearGradient>
<circle cx="29.815" cy="45.475" fill="url(#SVGID_4_)" r="3.242"/>
<rect fill="none" height="60" width="60"/>
</g>
<g transform="matrix(1 0 0 1 30 30)">
<rect fill="none" height="30" width="30"/>
<path d="M25.643,12.037h-0.42H9.994c-0.737-1.82-0.377-3.996,1.081-5.453  c1.916-1.916,5.071-1.949,7.015-0.086l1.679,1.678l3.591-3.592l-1.688-1.686C17.73-0.932,11.365-0.889,7.482,2.994  c-2.439,2.439-3.361,5.857-2.758,9.043H4.357c-0.941,0-1.709,0.768-1.709,1.711v14.543C2.648,29.232,3.416,30,4.357,30h21.285  c0.941,0,1.709-0.768,1.709-1.709V13.748C27.352,12.805,26.584,12.037,25.643,12.037z" fill-opacity="0.35" stroke-opacity="0.35"/>
<linearGradient gradientTransform="matrix(0.7071 -0.7071 0.7071 0.7071 -922.6214 -538.3001)" gradientUnits="userSpaceOnUse" id="SVGID_1__" x1="265.9668" x2="283.899" y1="1047.5938" y2="1047.5938">
<stop offset="0" style="stop-color:#8C8C8C"/>
<stop offset="0.5333" style="stop-color:#B3B3B3"/>
<stop offset="1" style="stop-color:#808080"/>
</linearGradient>
<path d="M8.189,3.701C4.666,7.225,4.639,12.92,8.104,16.484l2.36,2.359l2.177-2.176l-2.36-2.359  c-2.261-2.359-2.234-6.109,0.086-8.43s6.071-2.346,8.43-0.086l1.045,1.045l2.177-2.178l-1.045-1.045  C17.41,0.15,11.715,0.176,8.189,3.701z" fill="url(#SVGID_1__)"/>
<linearGradient gradientTransform="matrix(0.7071 -0.7071 0.7071 0.7071 -922.6214 -538.3001)" gradientUnits="userSpaceOnUse" id="SVGID_2__" x1="266.5254" x2="283.3367" y1="1048.4473" y2="1048.4473">
<stop offset="0" style="stop-color:#CCCCCC"/>
<stop offset="0.5152" style="stop-color:#FFFFFF"/>
<stop offset="1" style="stop-color:#CCCCCC"/>
</linearGradient>
<path d="M19.844,6.031l-0.645-0.643c-2.581-2.473-6.718-2.43-9.234,0.086  c-2.518,2.518-2.56,6.654-0.096,9.229l3.174,3.174l-1.371,1.371l-3.166-3.166c-3.231-3.324-3.193-8.701,0.086-11.98  c3.28-3.279,8.654-3.316,11.984-0.078l0.637,0.637L19.844,6.031L19.844,6.031z" fill="url(#SVGID_2__)"/>
<linearGradient gradientTransform="matrix(0.7071 -0.7071 0.7071 0.7071 -922.6214 -538.3001)" gradientUnits="userSpaceOnUse" id="SVGID_3__" x1="266.876" x2="282.9888" y1="1048.4473" y2="1048.4473">
<stop offset="0" style="stop-color:#FFFFFF"/>
<stop offset="0.5" style="stop-color:#B3B3B3"/>
<stop offset="1" style="stop-color:#FFFFFF"/>
</linearGradient>
<path d="M11.672,18.746l-2.915-2.914C5.662,12.648,5.699,7.498,8.843,4.354  c3.145-3.145,8.295-3.178,11.486-0.078l0.383,0.383l-0.871,0.871L19.45,5.137c-2.72-2.605-7.084-2.564-9.735,0.086  c-2.651,2.652-2.695,7.014-0.1,9.725l2.929,2.928L11.672,18.746z" fill="url(#SVGID_3__)"/>
<linearGradient gradientTransform="matrix(1 0 0 1 -176.4805 -1042.5195)" gradientUnits="userSpaceOnUse" id="SVGID_4__" x1="180.1289" x2="202.832" y1="1063.5381" y2="1063.5381">
<stop offset="0" style="stop-color:#AA8250"/>
<stop offset="0.24" style="stop-color:#DED7B3"/>
<stop offset="0.75" style="stop-color:#AA8250"/>
<stop offset="0.8667" style="stop-color:#BCA162"/>
<stop offset="1" style="stop-color:#AA8250"/>
</linearGradient>
<path d="M26.352,28.291c0,0.391-0.316,0.709-0.709,0.709H4.357c-0.393,0-0.709-0.318-0.709-0.709V13.748  c0-0.393,0.316-0.711,0.709-0.711h21.283c0.393,0,0.709,0.318,0.709,0.711v14.543H26.352z" fill="url(#SVGID_4__)"/>
<path d="M25.643,13.037H4.357c-0.393,0-0.709,0.318-0.709,0.711v0.709  c0-0.393,0.316-0.709,0.709-0.709h21.283c0.393,0,0.709,0.316,0.709,0.709v-0.709C26.352,13.355,26.033,13.037,25.643,13.037z" fill="#FFFFFF" fill-opacity="0.4" stroke-opacity="0.4"/>
<path d="M25.643,29H4.357c-0.393,0-0.709-0.318-0.709-0.709v-0.709  c0,0.391,0.316,0.709,0.709,0.709h21.283c0.393,0,0.709-0.318,0.709-0.709v0.709C26.352,28.682,26.033,29,25.643,29z" fill-opacity="0.25" stroke-opacity="0.25"/>
<path d="M15,25.82c-0.689,0-1.25-0.562-1.25-1.25v-1.838  c-0.77-0.441-1.25-1.256-1.25-2.162c0-1.379,1.121-2.5,2.5-2.5s2.5,1.121,2.5,2.5c0,0.904-0.48,1.721-1.25,2.162v1.838  C16.25,25.26,15.689,25.82,15,25.82L15,25.82z" fill="#DED7B2" fill-opacity="0.25" stroke-opacity="0.25"/>
<linearGradient gradientTransform="matrix(1 0 0 1 -176.4805 -1042.5195)" gradientUnits="userSpaceOnUse" id="SVGID_5_" x1="191.4805" x2="191.4805" y1="1067.5986" y2="1061.2186">
<stop offset="0" style="stop-color:#8D7B6B"/>
<stop offset="1" style="stop-color:#492C2A"/>
</linearGradient>
<path d="M17,20.57c0-1.104-0.896-2-2-2s-2,0.896-2,2c0,0.84,0.518,1.555,1.25,1.852v2.148  c0,0.414,0.336,0.75,0.75,0.75s0.75-0.336,0.75-0.75v-2.148C16.482,22.125,17,21.41,17,20.57z" fill="url(#SVGID_5_)"/>
</g>
</svg>
