<?xml version="1.0" encoding="UTF-8"?>
<!DOCTYPE svg PUBLIC "-//W3C//DTD SVG 1.1 Tiny//EN" "http://www.w3.org/Graphics/SVG/1.1/DTD/svg11-tiny.dtd">
<svg baseProfile="tiny" height="31px" version="1.1" viewBox="-0.334 -0.801 31 31" width="31px" x="0px" xmlns="http://www.w3.org/2000/svg" xmlns:xlink="http://www.w3.org/1999/xlink" y="0px">
<polygon points="9.648,24.738 9.653,24.738 8.139,22.304 5.279,22.304 9.48,29.03 11.525,27.749 10.818,26.61 "/>
<polygon points="10.491,22.302 12.008,24.738 16.132,24.738 14.617,22.302 "/>
<polygon points="16.97,22.302 18.488,24.738 22.631,24.738 21.117,22.302 "/>
<polygon points="23.469,22.302 24.721,24.32 24.721,22.302 "/>
<polygon points="20.303,17.285 21.814,19.719 24.721,19.719 20.52,12.992 18.453,14.283 20.325,17.285 "/>
<polygon points="19.462,19.719 17.95,17.285 13.861,17.287 15.376,19.719 "/>
<polygon points="13.023,19.719 11.514,17.287 7.378,17.287 8.893,19.721 "/>
<polygon points="5.279,17.688 5.279,19.721 6.54,19.721 "/>
<path d="M11.949,5.939c0.667-0.515,1.049-1.233,1.049-2.08c0-0.721-0.281-1.381-0.789-1.862c-0.56-0.529-1.357-0.805-2.313-0.805  c-1.163,0-2.172,0.429-2.685,0.792L6.903,2.206l0.697,1.863l0.526-0.376c0.333-0.234,0.93-0.507,1.531-0.507  c0.501,0,1.095,0.151,1.095,0.872c0,0.852-1.106,1.04-1.532,1.04H8.038v1.919h1.187c0.305,0,1.838,0.064,1.852,1.327  c0.002,0.153-0.025,0.539-0.323,0.841c-0.271,0.269-0.686,0.41-1.235,0.41c-0.744,0-1.456-0.308-1.756-0.487L7.24,8.791  l-0.674,1.883l0.33,0.215c0.486,0.322,1.475,0.699,2.635,0.699c2.619,0,3.813-1.674,3.813-3.227  C13.344,7.323,12.806,6.441,11.949,5.939z"/>
<path d="M19.336,5.54v1.979h1.9v1.939c-0.251,0.066-0.59,0.124-1.121,0.124c-1.964,0-3.137-1.236-3.137-3.304  c0-1.015,0.307-1.854,0.888-2.426c0.573-0.565,1.404-0.864,2.401-0.864c0.76,0,1.354,0.114,1.874,0.356l0.518,0.246l0.604-1.95  l-0.391-0.187c-0.456-0.225-1.411-0.483-2.577-0.483c-3.352,0-5.603,2.157-5.603,5.363c0,1.56,0.536,2.97,1.468,3.869  c0.976,0.93,2.239,1.386,3.868,1.386c1.538,0,2.753-0.421,3.087-0.55l0.318-0.125V5.54H19.336z"/>
<rect fill="none" height="30" width="30"/>
<rect fill="none" height="30" width="30"/>
</svg>
