<?xml version="1.0" ?>
<!DOCTYPE svg  PUBLIC '-//W3C//DTD SVG 1.1//EN'  'http://www.w3.org/Graphics/SVG/1.1/DTD/svg11.dtd'>
<svg height="30" viewBox="0 0 30 30" width="30" xmlns="http://www.w3.org/2000/svg" xmlns:xlink="http://www.w3.org/1999/xlink">
<g>
<rect fill="none" height="30" width="30"/>
<linearGradient gradientUnits="userSpaceOnUse" id="SVGID_1_" x1="14.9995" x2="14.9995" y1="2" y2="28.0005">
	<stop offset="0" style="stop-color:#F9F9F9"/>
	<stop offset="1" style="stop-color:#B5B5B5"/>
</linearGradient>
<polygon fill="url(#SVGID_1_)" points="4,2 4,28 20,28 26,22 26,2 "/>
<polygon fill="#FFFFFF" points="26,22 20,22 20,28 "/>
<rect enable-background="new    " height="1.5" opacity="0.5" width="16" x="7" y="6.5"/>
<rect enable-background="new    " height="1.5" opacity="0.5" width="16" x="7" y="10.5"/>
<rect enable-background="new    " height="1.5" opacity="0.5" width="11" x="7" y="14.5"/>
<g>
	<rect height="1" width="2" x="7" y="28"/>
	<rect height="1" width="2" x="5" y="1"/>
	<rect height="1" width="2" x="3" y="28"/>
	<rect height="1" width="2" x="11" y="28"/>
	<rect height="1" width="2" x="9" y="1"/>
	<rect height="1" width="2" x="13" y="1"/>
	<rect height="2" width="1" x="3" y="25"/>
	<rect height="2" width="1" x="3" y="1"/>
	<rect height="2" width="1" x="3" y="9"/>
	<rect height="2" width="1" x="3" y="21"/>
	<rect height="2" width="1" x="3" y="17"/>
	<rect height="2" width="1" x="3" y="13"/>
	<rect height="1" width="2" x="21" y="1"/>
	<rect height="2" width="1" x="26" y="15.143"/>
	<rect height="2" width="1" x="26" y="19.143"/>
	<rect height="2" width="1" x="26" y="7.143"/>
	<rect height="1" width="2" x="15" y="28"/>
	<rect height="2" width="1" x="26" y="11.143"/>
	<rect height="2" transform="matrix(-0.7071 -0.7071 0.7071 -0.7071 26.9375 57.7243)" width="1" x="24.924" y="22.283"/>
	<polygon points="19,28 19,29 20.414,29 20.828,28.586 20.242,28  "/>
	<rect height="2" transform="matrix(-0.7071 -0.7071 0.7071 -0.7071 20.1098 60.5524)" width="1" x="22.096" y="25.111"/>
	<rect height="1" width="2" x="17" y="1"/>
	<rect height="1" width="2" x="25" y="1"/>
	<rect height="2" width="1" x="3" y="5"/>
	<rect height="2" width="1" x="26" y="3"/>
</g>
</g>
</svg>