<?xml version="1.0" encoding="UTF-8"?>
<!DOCTYPE svg PUBLIC "-//W3C//DTD SVG 1.1 Tiny//EN" "http://www.w3.org/Graphics/SVG/1.1/DTD/svg11-tiny.dtd">
<svg baseProfile="tiny" height="30" viewBox="0 0 30 30" width="30" xmlns="http://www.w3.org/2000/svg" xmlns:xlink="http://www.w3.org/1999/xlink">
<rect fill="none" height="30" width="30"/>
<rect fill="none" height="30" width="30"/>
<circle cx="6.375" cy="15.47" r="1.62"/>
<polygon points="23.512,11.576 22.451,12.741 24.507,12.741 24.507,26.991 3.507,26.991 3.507,12.741 17.597,12.741 17.8,10.491 1.257,10.491 1.257,29.241 26.757,29.241 26.757,11.87 "/>
<path d="M17.062,18.662l0.274-3.028c-0.875-0.647-1.954-1.035-3.123-1.035c-2.905,0-5.268,2.362-5.268,5.268 c0,2.904,2.363,5.267,5.268,5.267s5.267-2.362,5.267-5.267c0-1.071-0.323-2.067-0.875-2.9L17.062,18.662z M14.213,22.884 c-1.665,0-3.018-1.354-3.018-3.017c0-1.664,1.354-3.018,3.018-3.018s3.017,1.354,3.017,3.018 C17.23,21.53,15.877,22.884,14.213,22.884z"/>
<polygon points="24.407,6.597 28.742,10.543 22.903,10.016 18.957,14.351 19.484,8.514 15.15,4.566 20.988,5.093 24.936,0.758 "/>
</svg>
