<?xml version="1.0" encoding="UTF-8"?>
<!DOCTYPE svg PUBLIC "-//W3C//DTD SVG 1.1 Tiny//EN" "http://www.w3.org/Graphics/SVG/1.1/DTD/svg11-tiny.dtd">
<svg baseProfile="tiny" height="60" viewBox="0 0 60 60" width="60" xmlns="http://www.w3.org/2000/svg" xmlns:xlink="http://www.w3.org/1999/xlink">
<g>
<g>
<rect fill="none" height="60" width="60" x="0"/>
<rect fill="#E6E6E6" height="60" width="60" x="0"/>
<g>
<g>
<linearGradient gradientTransform="matrix(1 0 0 -1 236.9351 -721.8799)" gradientUnits="userSpaceOnUse" id="SVGID_1_" x1="-206.9343" x2="-206.9343" y1="-762.707" y2="-741.0518">
<stop offset="0" style="stop-color:#B89A8C"/>
<stop offset="0.2061" style="stop-color:#5D3941"/>
<stop offset="1" style="stop-color:#C4AE9D"/>
</linearGradient>
<path d="M29.988,19.172c-2.629,0-4.649,0.909-6.004,2.703c-1.302,1.723-1.962,4.366-1.962,7.854     c0,3.746,0.639,6.451,1.951,8.269c1.354,1.877,3.378,2.829,6.015,2.829c2.643,0,4.672-0.953,6.036-2.835     c1.315-1.821,1.955-4.523,1.955-8.263c0-3.401-0.655-6.02-1.951-7.782C34.669,20.106,32.638,19.172,29.988,19.172z      M31.727,35.631c-0.562,1.116-1.262,1.244-1.739,1.244c-0.474,0-1.167-0.145-1.729-1.382c-0.514-1.136-0.774-3.072-0.774-5.764     c0-3.373,0.411-4.837,0.756-5.47c0.426-0.783,0.967-1.135,1.749-1.135c0.784,0,1.323,0.37,1.748,1.195     c0.346,0.674,0.759,2.161,0.759,5.409C32.494,33.344,32.078,34.936,31.727,35.631z" fill="url(#SVGID_1_)"/>
<linearGradient gradientTransform="matrix(1 0 0 -1 236.9351 -721.8799)" gradientUnits="userSpaceOnUse" id="SVGID_2_" x1="-206.9348" x2="-206.9348" y1="-761.8584" y2="-741.9009">
<stop offset="0" style="stop-color:#A27163"/>
<stop offset="0.2061" style="stop-color:#844E54"/>
<stop offset="1" style="stop-color:#AB8572"/>
</linearGradient>
<path d="M29.988,39.979c-2.349,0-4.14-0.834-5.327-2.479c-1.205-1.668-1.789-4.21-1.789-7.771     c0-3.3,0.604-5.771,1.789-7.343c1.188-1.57,2.979-2.365,5.327-2.365c2.364,0,4.166,0.818,5.353,2.432     c1.188,1.612,1.788,4.06,1.788,7.276c0,3.555-0.585,6.095-1.793,7.766C34.143,39.143,32.343,39.979,29.988,39.979L29.988,39.979z      M29.988,22.275c-1.101,0-1.918,0.516-2.497,1.577c-0.569,1.047-0.857,3.024-0.857,5.877c0,2.851,0.278,4.852,0.851,6.112     c0.566,1.248,1.409,1.882,2.503,1.882c1.086,0,1.926-0.576,2.497-1.709c0.57-1.138,0.856-3.25,0.856-6.285     c0-2.745-0.286-4.695-0.853-5.8C31.917,22.817,31.1,22.275,29.988,22.275L29.988,22.275z" fill="url(#SVGID_2_)"/>
</g>
<g>
<linearGradient gradientTransform="matrix(1 0 0 1 113.4702 -360.708)" gradientUnits="userSpaceOnUse" id="SVGID_3_" x1="-99.5857" x2="-99.5857" y1="379.8799" y2="401.5352">
<stop offset="0" style="stop-color:#B89A8C"/>
<stop offset="0.2061" style="stop-color:#5D3941"/>
<stop offset="1" style="stop-color:#C4AE9D"/>
</linearGradient>
<path d="M15.673,27.678c-1.15-0.637-1.961-1.172-2.406-1.59c-0.33-0.305-0.483-0.702-0.483-1.244     c0-0.541,0.172-0.93,0.541-1.22c0.419-0.332,1.017-0.499,1.778-0.499c0.99,0,2.082,0.134,3.247,0.399l1.037,0.233v-4.023     l-0.662-0.149c-1.221-0.274-2.566-0.413-4.001-0.413c-2.082,0-3.812,0.505-5.141,1.501c-1.404,1.05-2.117,2.616-2.117,4.654     c0,1.263,0.31,2.41,0.924,3.414c0.616,1.004,1.729,1.948,3.396,2.882c1.329,0.757,2.24,1.365,2.703,1.809     c0.344,0.329,0.513,0.797,0.513,1.424c0,0.66-0.196,1.123-0.62,1.459c-0.467,0.373-1.164,0.562-2.07,0.562     c-1.09,0-2.369-0.196-3.802-0.584L7.44,35.998V40.1l0.636,0.164c1.447,0.373,2.936,0.563,4.42,0.563     c2.52,0,4.465-0.563,5.782-1.675c1.363-1.148,2.051-2.854,2.051-5.072c0-1.255-0.333-2.4-0.989-3.411     C18.692,29.671,17.493,28.693,15.673,27.678z" fill="url(#SVGID_3_)"/>
<linearGradient gradientTransform="matrix(1 0 0 -1 236.9351 -721.8799)" gradientUnits="userSpaceOnUse" id="SVGID_4_" x1="-223.051" x2="-223.051" y1="-761.8584" y2="-741.9009">
<stop offset="0" style="stop-color:#A27163"/>
<stop offset="0.2061" style="stop-color:#844E54"/>
<stop offset="1" style="stop-color:#AB8572"/>
</linearGradient>
<path d="M12.496,39.979c-1.415,0-2.83-0.181-4.207-0.539v-2.33c1.504,0.408,2.858,0.615,4.022,0.615     c1.104,0,1.979-0.252,2.601-0.746c0.622-0.498,0.938-1.211,0.938-2.123c0-0.86-0.263-1.547-0.773-2.037     c-0.522-0.5-1.464-1.131-2.871-1.934c-1.544-0.864-2.556-1.71-3.094-2.587c-0.527-0.867-0.795-1.866-0.795-2.971     c0-1.781,0.581-3.082,1.774-3.976c1.18-0.883,2.737-1.33,4.632-1.33c1.371,0,2.654,0.132,3.813,0.393v2.281     c-1.223-0.277-2.38-0.418-3.434-0.418c-0.957,0-1.731,0.229-2.306,0.681c-0.571,0.45-0.862,1.083-0.862,1.888     c0,0.783,0.246,1.394,0.752,1.865c0.503,0.472,1.345,1.029,2.573,1.711c1.695,0.944,2.798,1.833,3.368,2.713     c0.565,0.868,0.852,1.86,0.852,2.947c0,1.957-0.587,3.443-1.749,4.422C16.571,39.48,14.81,39.979,12.496,39.979L12.496,39.979z" fill="url(#SVGID_4_)"/>
</g>
<g>
<linearGradient gradientTransform="matrix(1 0 0 -1 236.9351 -721.8799)" gradientUnits="userSpaceOnUse" id="SVGID_5_" x1="-190.8186" x2="-190.8186" y1="-762.709" y2="-741.0518">
<stop offset="0" style="stop-color:#B89A8C"/>
<stop offset="0.2061" style="stop-color:#5D3941"/>
<stop offset="1" style="stop-color:#C4AE9D"/>
</linearGradient>
<path d="M51.568,30.67c-0.654-1.001-1.853-1.979-3.668-2.992c-1.147-0.637-1.957-1.172-2.406-1.588     c-0.329-0.307-0.482-0.704-0.482-1.246c0-0.541,0.173-0.929,0.542-1.219c0.422-0.333,1.02-0.5,1.78-0.5     c0.99,0,2.082,0.134,3.246,0.399l1.036,0.233v-4.023l-0.661-0.149c-1.223-0.274-2.565-0.413-4.002-0.413     c-2.084,0-3.813,0.506-5.14,1.501c-1.405,1.05-2.118,2.616-2.118,4.654c0,1.264,0.313,2.411,0.926,3.412     c0.617,1.006,1.729,1.95,3.396,2.884c1.332,0.758,2.241,1.365,2.703,1.807c0.342,0.332,0.512,0.799,0.512,1.426     c0,0.66-0.193,1.123-0.615,1.459c-0.47,0.373-1.166,0.562-2.073,0.562c-1.091,0-2.369-0.196-3.798-0.584l-1.074-0.293V40.1     l0.638,0.166c1.444,0.373,2.932,0.563,4.416,0.563c2.521,0,4.466-0.563,5.784-1.677c1.36-1.146,2.052-2.852,2.052-5.069     C52.556,32.824,52.225,31.678,51.568,30.67z" fill="url(#SVGID_5_)"/>
<linearGradient gradientTransform="matrix(1 0 0 1 113.4702 -360.708)" gradientUnits="userSpaceOnUse" id="SVGID_6_" x1="-67.3562" x2="-67.3562" y1="380.7295" y2="400.6865">
<stop offset="0" style="stop-color:#A27163"/>
<stop offset="0.2061" style="stop-color:#844E54"/>
<stop offset="1" style="stop-color:#AB8572"/>
</linearGradient>
<path d="M44.723,39.979c-1.413,0-2.829-0.181-4.204-0.539v-2.33c1.504,0.408,2.856,0.615,4.021,0.615     c1.105,0,1.981-0.252,2.604-0.746c0.62-0.496,0.937-1.211,0.937-2.123c0-0.858-0.26-1.545-0.771-2.037     c-0.521-0.498-1.459-1.131-2.869-1.934c-1.545-0.864-2.559-1.71-3.095-2.587c-0.531-0.865-0.801-1.864-0.801-2.969     c0-1.782,0.582-3.081,1.775-3.976c1.182-0.883,2.74-1.331,4.633-1.331c1.371,0,2.652,0.133,3.813,0.393v2.282     c-1.223-0.277-2.375-0.419-3.434-0.419c-0.958,0-1.731,0.23-2.308,0.682c-0.572,0.451-0.865,1.087-0.865,1.886     c0,0.784,0.248,1.396,0.755,1.868c0.508,0.471,1.35,1.029,2.573,1.709c1.689,0.941,2.791,1.829,3.367,2.713     c0.565,0.867,0.854,1.859,0.854,2.949c0,1.956-0.588,3.445-1.752,4.421C48.797,39.48,47.039,39.979,44.723,39.979L44.723,39.979z     " fill="url(#SVGID_6_)"/>
</g>
</g>
</g>
</g>
</svg>
