<?xml version="1.0" encoding="UTF-8"?>
<!DOCTYPE svg PUBLIC "-//W3C//DTD SVG 1.1 Tiny//EN" "http://www.w3.org/Graphics/SVG/1.1/DTD/svg11-tiny.dtd">
<svg baseProfile="tiny" height="30" viewBox="0 0 30 30" width="30" xmlns="http://www.w3.org/2000/svg" xmlns:xlink="http://www.w3.org/1999/xlink">
<rect fill="none" height="30" width="30"/>
<rect fill="none" height="30" width="30"/>
<path d="M2.854,21.552V20.04h1.081V9.959H2.854V8.447h4.588v1.512H6.36V20.04h1.081v1.512H2.854z"/>
<path d="M11.581,21.693c-0.955,0-1.895-0.12-2.821-0.36v-1.564c1.014,0.275,1.913,0.413,2.699,0.413 c0.744,0,1.326-0.167,1.744-0.501c0.418-0.333,0.628-0.809,0.628-1.423c0-0.58-0.172-1.036-0.518-1.367 c-0.346-0.33-0.987-0.764-1.924-1.297c-1.025-0.573-1.717-1.152-2.075-1.735c-0.358-0.583-0.536-1.247-0.536-1.99 c0-1.184,0.396-2.073,1.191-2.668s1.829-0.892,3.107-0.892c0.925,0,1.778,0.088,2.557,0.264v1.529 c-0.826-0.188-1.594-0.281-2.302-0.281c-0.645,0-1.16,0.152-1.547,0.457c-0.387,0.304-0.58,0.727-0.58,1.266 c0,0.521,0.168,0.939,0.505,1.252s0.913,0.696,1.727,1.146c1.125,0.627,1.878,1.234,2.259,1.819 c0.381,0.586,0.571,1.245,0.571,1.979c0,1.318-0.391,2.307-1.173,2.966S13.14,21.693,11.581,21.693z"/>
<path d="M22.357,21.693c-1.582,0-2.773-0.554-3.574-1.662c-0.8-1.107-1.199-2.844-1.199-5.211c0-2.227,0.399-3.868,1.199-4.926 c0.801-1.058,1.991-1.586,3.574-1.586c1.594,0,2.79,0.544,3.59,1.631c0.799,1.086,1.199,2.714,1.199,4.882 c0,2.361-0.4,4.097-1.203,5.207C25.141,21.139,23.944,21.693,22.357,21.693z M22.357,20.182c0.732,0,1.29-0.383,1.674-1.147 c0.383-0.765,0.576-2.17,0.576-4.214c0-1.852-0.191-3.147-0.572-3.889s-0.94-1.112-1.678-1.112c-0.733,0-1.291,0.354-1.675,1.059 c-0.384,0.706-0.575,2.02-0.575,3.942c0,1.893,0.189,3.26,0.57,4.1C21.059,19.761,21.618,20.182,22.357,20.182z"/>
</svg>
