<?xml version="1.0" encoding="UTF-8"?>
<!DOCTYPE svg PUBLIC "-//W3C//DTD SVG 1.1 Tiny//EN" "http://www.w3.org/Graphics/SVG/1.1/DTD/svg11-tiny.dtd">
<svg baseProfile="tiny" height="30px" version="1.1" viewBox="0 0 30 30" width="30px" x="0px" xmlns="http://www.w3.org/2000/svg" xmlns:xlink="http://www.w3.org/1999/xlink" y="0px">
<g fill-opacity="0.5" stroke-opacity="0.5">
<rect fill="none" height="30" width="30"/>
</g>
<path d="M15.4,21.8L16,21H6V9h18v3.388c-0.162,0.208-0.314,0.444-0.459,0.695c0.418,0.118,0.793,0.362,1.059,0.717l0.4,0.534V8H5v14  h10.29C15.328,21.934,15.354,21.862,15.4,21.8z"/>
<path d="M10.206,17.969c0.433,0.444,1.979,0.806,3.502-1.055c0.581-0.711,0.789-1.645,0.864-2.228  c1.593,0.514,3.359,1.076,4.871,1.723l0.453-0.604c-0.803-0.269-1.684-0.55-2.594-0.843c0.371-0.045,0.82-0.158,1.229-0.438  c1.024-0.707,1.275-1.832,0.908-2.443c-0.262-0.434-1.124-0.805-2.076,0.389c-0.477,0.598-0.707,1.759-0.788,2.258  c-1.677-0.545-3.397-1.129-4.868-1.747c0.381-0.04,0.857-0.152,1.284-0.446c1.026-0.708,1.2-1.485,0.931-1.832  c-0.303-0.389-1.133-0.849-2.248,0.332c-0.461,0.487-0.604,1.223-0.65,1.636c-3.228-1.591-2.025-3.197-2.025-3.197  c-0.087-0.39-0.303-0.776-0.648-0.11c-0.498,0.957-0.178,1.822,0.541,2.564c-0.224-0.013-0.469,0.015-0.729,0.115  c-1.014,0.393-1.289,1.086-1.111,1.427c0.176,0.342,0.979,0.888,2.068,0.206c0.382-0.239,0.615-0.652,0.744-0.954  c0.45,0.299,0.953,0.568,1.47,0.804c0.425,0.194,0.947,0.391,1.525,0.593c-0.444,0.114-0.925,0.327-1.397,0.744  C9.947,16.192,9.773,17.524,10.206,17.969z"/>
<path d="M17.774,17.623c-1.341,0.987-1.655,2.234-1.538,3.063l2.715-3.62C18.553,17.17,18.152,17.344,17.774,17.623z"/>
<path d="M15.211,23.895c-0.142-0.283-0.195-0.59-0.194-0.895H4V7h22v8.667l2,2.667V5H2v20h15C16.242,25,15.55,24.572,15.211,23.895z  "/>
<polygon points="29,23 23,15 17,23 20,23 20,28 26,28 26,23 "/>
</svg>
