<?xml version="1.0" encoding="UTF-8" standalone="no"?>
<!DOCTYPE svg PUBLIC "-//W3C//DTD SVG 1.1 Tiny//EN" "http://www.w3.org/Graphics/SVG/1.1/DTD/svg11-tiny.dtd">
<svg xmlns="http://www.w3.org/2000/svg" xmlns:xlink="http://www.w3.org/1999/xlink" baseProfile="tiny" height="30px" version="1.1" viewBox="0 0 30 30" width="30px" x="0px" y="0px">
<path d="M0,0v30h30v-30h-30zm28.24,26.99l-6.012-6.012-0.454,2.042,5.218,5.219h-24.37l5.535-5.534-0.454-2.042-5.942,5.941v-23.6l9.352,9.352h2.119v-0.377l-2.467-2.467c-0.202-0.056-0.401-0.12-0.594-0.202-2.479-1.04-3.137-2.756-3.311-3.69l-3.856-3.856h23.59l-3.413,3.413c-0.041,0.684-0.408,2.89-3.363,4.141-0.348,0.147-0.714,0.25-1.093,0.315l-1.968,1.968v0.763h1.732l9.738-9.738v24.36z" fill-opacity="0.5" stroke-opacity="0.5"/>
<rect height="3.519" width="17.65" x="6.177" y="13.25"/>
<polygon points="9.706,25.59,20.29,25.59,22.06,17.65,7.941,17.65"/>
<path d="M10.52,8.506c1.35,0.571,2.732,0.287,3.599-0.017v3.875h1.766v-3.871c0.866,0.304,2.249,0.588,3.599,0.017,2.926-1.238,2.831-3.499,2.831-3.499s-1.41-1.298-4.335-0.06c-2.645,1.12-2.94,2.791-2.973,3.101h-0.01c-0.032-0.31-0.328-1.98-2.973-3.101-2.925-1.238-4.335,0.06-4.335,0.06s-0.102,2.261,2.825,3.499z"/>
</svg>
