<?xml version="1.0" encoding="UTF-8"?>
<!DOCTYPE svg PUBLIC "-//W3C//DTD SVG 1.1 Tiny//EN" "http://www.w3.org/Graphics/SVG/1.1/DTD/svg11-tiny.dtd">
<svg baseProfile="tiny" height="30px" version="1.1" viewBox="0 0 30 30" width="30px" x="0px" xmlns="http://www.w3.org/2000/svg" xmlns:xlink="http://www.w3.org/1999/xlink" y="0px">
<g fill-opacity="0.5" stroke-opacity="0.5">
<rect fill="none" height="30" width="30"/>
</g>
<path d="M24,1H12c-1.65,0-3,1.35-3,3v1l2,1.5V3h14v18H11v-3.5L9,19v7c0,1.65,1.35,3,3,3h12c1.65,0,3-1.35,3-3V4  C27,2.35,25.65,1,24,1z M14,26h-3v-2h3V26z M18,27c-1.104,0-2-0.896-2-2s0.896-2,2-2c1.105,0,2,0.896,2,2S19.105,27,18,27z M25,26  h-3v-2h3V26z"/>
<polygon points="15,12 7,6 7,9 2,9 2,15 7,15 7,18 "/>
</svg>
