<?xml version="1.0" encoding="UTF-8" standalone="no"?>
<!DOCTYPE svg PUBLIC "-//W3C//DTD SVG 1.1 Tiny//EN" "http://www.w3.org/Graphics/SVG/1.1/DTD/svg11-tiny.dtd">
<svg xmlns="http://www.w3.org/2000/svg" xmlns:xlink="http://www.w3.org/1999/xlink" baseProfile="tiny" height="30" viewBox="0 0 30 30" width="30">
<g fill-opacity="None" stroke-opacity="None">
<rect fill="none" height="30" width="30"/>
<polygon fill-opacity="0.6" points="15.006,22.895 5.718,29.71 9.3,18.732 0,11.963 11.473,11.963 15.009,1 18.531,11.963 30,11.963   20.709,18.732 24.281,29.711 " stroke-opacity="0.6"/>
<path d="M17.823,12.963l-2.816-8.717l-2.827,8.717H3.001l7.444,5.387l-2.862,8.723l7.424-5.416l7.413,5.416  l-2.855-8.723l7.437-5.387H17.823z" fill="url(#SVGID_1_)"/>
<polygon fill="#FFFFFF" fill-opacity="0.4" points="12.907,13.963 15.005,7.493 17.096,13.963 25.621,13.963 27.001,12.963   17.823,12.963 15.007,4.246 12.18,12.963 3.001,12.963 4.383,13.963 " stroke-opacity="0.4"/>
<rect fill="none" height="30" width="30"/>
<defs>
<linearGradient gradientUnits="userSpaceOnUse" id="SVGID_1_" x1="15.0005" x2="15.0005" y1="4.2461" y2="27.0728">
<stop offset="0" style="stop-color:#FECF5E"/>
<stop offset="1" style="stop-color:#FF9E01"/>
</linearGradient>
</defs>
</g>
</svg>
