<?xml version="1.0" encoding="UTF-8" standalone="no"?>
<!DOCTYPE svg PUBLIC "-//W3C//DTD SVG 1.1 Tiny//EN" "http://www.w3.org/Graphics/SVG/1.1/DTD/svg11-tiny.dtd">
<svg xmlns="http://www.w3.org/2000/svg" xmlns:xlink="http://www.w3.org/1999/xlink" baseProfile="tiny" height="30px" style="enable-background:new 0 0 30 30;" version="1.1" viewBox="0 0 30 30" width="30px" x="0px" y="0px">
<g fill-opacity="0.5" stroke-opacity="0.5">
<rect fill="none" height="30" width="30" x="0.002"/>
</g>
<path d="M29,28c0.002-0.07,0.006-0.141,0.006-0.211,0-6.719-2.422-12.16-5.41-12.16-1.65,0-3.125,1.667-4.117,4.286-1.57-7.04-4.9-11.92-8.78-11.92-5.234,0-9.488,8.881-9.703,20h28z"/>
<circle cx="23.5" cy="4.891" r="2.891"/>
<circle cx="23.5" cy="7.438" r="2.5"/>
<path d="M29,6.438c0,1.381-1.119,2.5-2.5,2.5h-6c-1.381,0-2.5-1.119-2.5-2.5s1.119-2.5,2.5-2.5h6c1.38,0,2.5,1.119,2.5,2.5z"/>
</svg>
