<?xml version="1.0" encoding="UTF-8"?>
<!DOCTYPE svg PUBLIC "-//W3C//DTD SVG 1.1 Tiny//EN" "http://www.w3.org/Graphics/SVG/1.1/DTD/svg11-tiny.dtd">
<svg baseProfile="tiny" height="70px" version="1.1" viewBox="0 0 10 70" width="10px" x="0px" xmlns="http://www.w3.org/2000/svg" xmlns:xlink="http://www.w3.org/1999/xlink" y="0px">
<rect fill="none" height="70" width="10"/>
<path d="M7,0C3.141,0,0,3.141,0,7v56c0,3.859,3.141,7,7,7h3V0H7z" fill="#14141E" fill-opacity="0.1" stroke-opacity="0.1"/>
<path d="M7,2C3.7,2,1,4.7,1,8v55c0,3.3,2.7,6,6,6h3V2H7z" fill="#14141E" fill-opacity="0.2" stroke-opacity="0.2"/>
<path d="M7,1C3.7,1,1,3.7,1,7v55c0,3.3,2.7,6,6,6h3V1H7z" fill="url(#SVGID_1_)"/>
<defs>
<linearGradient gradientUnits="userSpaceOnUse" id="SVGID_1_" x1="5.5" x2="5.5" y1="67.875" y2="0.9837">
<stop offset="0" style="stop-color:#F0F0F0"/>
<stop offset="1" style="stop-color:#C8C8D2"/>
</linearGradient>
</defs>
</svg>
