<?xml version="1.0" encoding="UTF-8" standalone="no"?>
<!DOCTYPE svg PUBLIC "-//W3C//DTD SVG 1.1 Tiny//EN" "http://www.w3.org/Graphics/SVG/1.1/DTD/svg11-tiny.dtd">
<svg xmlns="http://www.w3.org/2000/svg" xmlns:xlink="http://www.w3.org/1999/xlink" baseProfile="tiny" height="30px" version="1.1" viewBox="0 0 30 30" width="30px" x="0px" y="0px">
<g fill-opacity="0.5" stroke-opacity="0.5">
<rect fill="none" height="30" width="30"/>
</g>
<path d="M8.572,15.788h5.857l0.001,0.001c-0.037-0.108-0.073-0.217-0.08-0.318c-0.007-0.1-0.005-0.241-0.002-0.377  c-0.362-0.547-0.454-1.237-0.196-1.859C14.462,12.487,15.191,12,16,12h0.995c1.005-2.141,0.63-7.293,0.63-7.293  C17.625,2.538,14.383,0,12.189,0h-1.391C8.605,0,5.375,2.538,5.375,4.707c0,0-0.332,5.294,0.658,7.392  c0.544,1.145,1.503,2.076,2.615,2.806c0.002,0.148,0.014,0.419,0.004,0.566C8.646,15.572,8.609,15.68,8.572,15.788z"/>
<path d="M14,21.5c0-1.65,0.469-3.185,1.248-4.515c-0.126-0.134-0.242-0.266-0.345-0.395L11.5,24.286l-3.401-7.694  C6.401,18.725,1.294,21.482,1,21.87V28h15.792C15.075,26.36,14,24.056,14,21.5z"/>
<path d="M30,21.5c0-3.52-2.613-6.433-6-6.92v2.021c2.28,0.464,4,2.483,4,4.898c0,1.506-0.669,2.857-1.726,3.774L24,23v3.398v2.021  V29h6l-2.316-2.316C29.103,25.404,30,23.558,30,21.5z"/>
<path d="M18.316,16.316C16.897,17.596,16,19.442,16,21.5c0,3.52,2.613,6.433,6,6.92v-2.021c-2.28-0.464-4-2.483-4-4.898  c0-1.506,0.669-2.857,1.726-3.774L22,20v-3.398V14.58V14h-6L18.316,16.316z"/>
</svg>
