<?xml version="1.0" encoding="UTF-8"?>
<!DOCTYPE svg PUBLIC "-//W3C//DTD SVG 1.1 Tiny//EN" "http://www.w3.org/Graphics/SVG/1.1/DTD/svg11-tiny.dtd">
<svg baseProfile="tiny" height="30" viewBox="0 0 30 30" width="30" xmlns="http://www.w3.org/2000/svg" xmlns:xlink="http://www.w3.org/1999/xlink">
<g>
<g>
<g>
<path d="M3.649,5.399v-2.75h22.702v2.75L15,17.625L3.649,5.399z     M15,12.857l6.469-6.965H8.532L15,12.857z" fill="#000101" fill-opacity="0.6" stroke-opacity="0.6"/>
<linearGradient gradientTransform="matrix(1 0 0 -1 123.4648 205.2559)" gradientUnits="userSpaceOnUse" id="SVGID_1_" x1="-108.4644" x2="-108.4644" y1="201.7959" y2="188.8232">
<stop offset="0" style="stop-color:#FFFFFF"/>
<stop offset="1" style="stop-color:#A5A4A4"/>
</linearGradient>
<path d="M4.46,3.46v1.621L15,16.433L25.541,5.081V3.46H4.46z M15,14.049L6.673,5.081h16.655L15,14.049z" fill="url(#SVGID_1_)"/>
<rect fill="#000101" fill-opacity="0.6" height="20.271" stroke-opacity="0.6" width="4.866" x="12.567" y="5.081"/>
<linearGradient gradientTransform="matrix(1 0 0 -1 123.4648 205.2559)" gradientUnits="userSpaceOnUse" id="SVGID_2_" x1="-106.8423" x2="-110.0874" y1="190.4463" y2="190.4463">
<stop offset="0" style="stop-color:#8B8C8C"/>
<stop offset="0.55" style="stop-color:#D8D9D8"/>
<stop offset="1" style="stop-color:#AFB1B0"/>
</linearGradient>
<rect fill="url(#SVGID_2_)" height="19.459" width="3.245" x="13.378" y="5.081"/>
</g>
<rect fill="#FFFFFF" fill-opacity="0.7" height="0.811" stroke-opacity="0.7" width="21.081" x="4.46" y="3.46"/>
<rect fill="none" height="30" width="30"/>
</g>
<g>
<rect fill="none" height="30" width="30"/>
</g>
</g>
<g>
<rect fill-opacity="0.6" height="34.27" stroke-opacity="0.6" style="enable-background:new;" transform="matrix(0.7073 -0.707 0.707 0.7073 -6.2126 14.9968)" width="3.169" x="13.42" y="-2.134"/>
<polygon fill="url(#SVGID_1__)" points="26,26.99,3.015,4.005,4.006,3.014,26.99,26"/>
<rect fill="none" height="30" width="30"/>
<defs>
<linearGradient gradientTransform="matrix(0.8824 0 0 -0.8824 -284.8232 -348.3516)" gradientUnits="userSpaceOnUse" id="SVGID_1__" x1="339.8" x2="339.8" y1="-397.3" y2="-425.3">
<stop offset="0" stop-color="#A8835F"/>
<stop offset="0.2606" stop-color="#A86F5F"/>
<stop offset="1" stop-color="#9A5047"/>
</linearGradient>
</defs>
</g>
</svg>
