<?xml version="1.0" encoding="UTF-8"?>
<!DOCTYPE svg PUBLIC "-//W3C//DTD SVG 1.1 Tiny//EN" "http://www.w3.org/Graphics/SVG/1.1/DTD/svg11-tiny.dtd">
<svg baseProfile="tiny" height="60" viewBox="0 0 60 60" width="60" xmlns="http://www.w3.org/2000/svg" xmlns:xlink="http://www.w3.org/1999/xlink">
<g>
<rect fill="none" height="60" width="60"/>
<path d="M21.888,26.229l4.026-14.596H5.51c-0.677,0-1.225,0.549-1.225,1.225v34.286c0,0.677,0.548,1.225,1.225,1.225 h17.025l5.475-10.199L21.888,26.229z" fill="#F1F1F2"/>
<linearGradient gradientUnits="userSpaceOnUse" id="SVGID_1" x1="15.18" x2="15.18" y1="11.63" y2="48.37">
<stop offset="0" stop-color="#757575"/>
<stop offset="0.24" stop-color="#000000"/>
<stop offset="0.86" stop-color="#000000"/>
<stop offset="1" stop-color="#363636"/>
</linearGradient>
<path d="M23.266,46.531c-0.338,0-0.612-0.275-0.612-0.613v-1.225c0-0.336,0.274-0.611,0.612-0.611h1.57 l1.238-2.309l-7.937-15.545l5.918-7.861l0.675-2.449h-1.465c-0.338,0-0.612-0.275-0.612-0.613v-1.224 c0-0.336,0.274-0.612,0.612-0.612h2.141l0.508-1.837H5.51c-0.677,0-1.225,0.549-1.225,1.225v34.286c0,0.677,0.548,1.225,1.225,1.225 h17.025l0.984-1.836H23.266z M9.796,45.918c0,0.338-0.276,0.613-0.612,0.613H6.734c-0.337,0-0.612-0.275-0.612-0.613v-1.225 c0-0.336,0.275-0.611,0.612-0.611h2.449c0.336,0,0.612,0.275,0.612,0.611V45.918z M9.796,15.306c0,0.337-0.276,0.613-0.612,0.613 H6.734c-0.337,0-0.612-0.275-0.612-0.613v-1.224c0-0.336,0.275-0.612,0.612-0.612h2.449c0.336,0,0.612,0.276,0.612,0.612V15.306z M15.306,45.918c0,0.338-0.276,0.613-0.611,0.613h-2.45c-0.337,0-0.612-0.275-0.612-0.613v-1.225c0-0.336,0.275-0.611,0.612-0.611 h2.45c0.335,0,0.611,0.275,0.611,0.611V45.918z M15.306,15.306c0,0.337-0.276,0.613-0.611,0.613h-2.45 c-0.337,0-0.612-0.275-0.612-0.613v-1.224c0-0.336,0.275-0.612,0.612-0.612h2.45c0.335,0,0.611,0.276,0.611,0.612V15.306z M20.816,45.918c0,0.338-0.276,0.613-0.612,0.613h-2.448c-0.338,0-0.613-0.275-0.613-0.613v-1.225c0-0.336,0.275-0.611,0.613-0.611 h2.448c0.336,0,0.612,0.275,0.612,0.611V45.918z M20.816,15.306c0,0.337-0.276,0.613-0.612,0.613h-2.448 c-0.338,0-0.613-0.275-0.613-0.613v-1.224c0-0.336,0.275-0.612,0.613-0.612h2.448c0.336,0,0.612,0.276,0.612,0.612V15.306z" fill="url(#SVGID_1)"/>
<path d="M5.51,11.632c-0.677,0-1.225,0.549-1.225,1.225v0.612c0-0.675,0.548-1.225,1.225-1.225 h20.235l0.169-0.612H5.51z" fill="#FFFFFF" fill-opacity="0.55"/>
<path d="M5.51,47.755c-0.677,0-1.225-0.547-1.225-1.224v0.611c0,0.677,0.548,1.225,1.225,1.225h17.025 l0.328-0.612H5.51z" fill="#FFFFFF" fill-opacity="0.1"/>
<linearGradient gradientUnits="userSpaceOnUse" id="SVGID_2" x1="15.05" x2="15.05" y1="17.85" y2="42.34">
<stop offset="0" stop-color="#000000"/>
<stop offset="0.5" stop-color="#666666"/>
<stop offset="1" stop-color="#000000"/>
</linearGradient>
<polygon fill="url(#SVGID_2)" points="19.668,26.229 24.226,17.755 4.286,17.755 4.286,42.245 25.82,42.245 "/>
<linearGradient gradientUnits="userSpaceOnUse" id="SVGID_3" x1="16.85" x2="16.85" y1="42.25" y2="17.76">
<stop offset="0" stop-color="#36B5FF"/>
<stop offset="1" stop-color="#1B66D8"/>
</linearGradient>
<path d="M21.438,26.229l2.788-8.473H7.347c-0.673,0-1.224,0.551-1.224,1.225v22.041 c0,0.673,0.551,1.225,1.224,1.225H25.82l1.763-4.077L21.438,26.229z" fill="url(#SVGID_3)"/>
<path d="M7.347,41.021c-0.673,0-1.224,0.062-1.224-0.612c0,0.674,0.551,1.225,1.224,1.225h18.803 l0.329-0.612H7.347z" fill="#FFFFFF" fill-opacity="0.5"/>
<linearGradient gradientUnits="userSpaceOnUse" id="SVGID_4" x1="16.14" x2="16.14" y1="17.76" y2="42.34">
<stop offset="0" stop-color="#000000"/>
<stop offset="1" stop-color="#404040"/>
</linearGradient>
<path d="M7.347,41.633c-0.337,0-0.612-0.274-0.612-0.612V18.98c0-0.337,0.275-0.612,0.612-0.612h16.709 l0.17-0.612H7.347c-0.673,0-1.224,0.551-1.224,1.225v22.041c0,0.673,0.551,1.225,1.224,1.225H25.82l0.329-0.612H7.347z" fill="url(#SVGID_4)"/>
<path d="M22.663,18.98H8.571c-0.677,0-1.225,0.548-1.225,1.224v7.959l13.718-1.149l-0.401-0.785 L22.663,18.98z" fill="#FFFFFF" fill-opacity="0.2"/>
<path d="M55.714,45.918V11.632c0-0.676-0.549-1.224-1.225-1.224H31.424l-4.025,14.596l6.122,11.939l-5.476,10.199 h26.444C55.165,47.143,55.714,46.595,55.714,45.918z" fill="#F1F1F2"/>
<linearGradient gradientUnits="userSpaceOnUse" id="SVGID_5" x1="41.88" x2="41.88" y1="10.41" y2="47.14">
<stop offset="0" stop-color="#757575"/>
<stop offset="0.24" stop-color="#000000"/>
<stop offset="0.86" stop-color="#000000"/>
<stop offset="1" stop-color="#363636"/>
</linearGradient>
<path d="M55.714,45.918V11.632c0-0.676-0.549-1.224-1.225-1.224H31.424l-0.507,1.836h0.308 c0.336,0,0.612,0.277,0.612,0.612v1.225c0,0.337-0.276,0.613-0.612,0.613h-0.982l-0.676,2.449l7.245,19.8l-5.48,4.077l-0.985,1.837 h0.879c0.336,0,0.612,0.275,0.612,0.611v1.225c0,0.338-0.276,0.613-0.612,0.613H29.03l-0.985,1.836h26.444 C55.165,47.143,55.714,46.595,55.714,45.918z M37.347,44.693c0,0.338-0.275,0.613-0.611,0.613h-2.449 c-0.337,0-0.612-0.275-0.612-0.613v-1.225c0-0.336,0.275-0.611,0.612-0.611h2.449c0.336,0,0.611,0.275,0.611,0.611V44.693z M37.347,14.082c0,0.337-0.275,0.613-0.611,0.613h-2.449c-0.337,0-0.612-0.276-0.612-0.613v-1.225c0-0.335,0.275-0.612,0.612-0.612 h2.449c0.336,0,0.611,0.277,0.611,0.612V14.082z M42.857,44.693c0,0.338-0.276,0.613-0.612,0.613h-2.449 c-0.338,0-0.612-0.275-0.612-0.613v-1.225c0-0.336,0.274-0.611,0.612-0.611h2.449c0.336,0,0.612,0.275,0.612,0.611V44.693z M42.857,14.082c0,0.337-0.276,0.613-0.612,0.613h-2.449c-0.338,0-0.612-0.276-0.612-0.613v-1.225c0-0.335,0.274-0.612,0.612-0.612 h2.449c0.336,0,0.612,0.277,0.612,0.612V14.082z M48.367,44.693c0,0.338-0.275,0.613-0.612,0.613h-2.448 c-0.338,0-0.613-0.275-0.613-0.613v-1.225c0-0.336,0.275-0.611,0.613-0.611h2.448c0.337,0,0.612,0.275,0.612,0.611V44.693z M48.367,14.082c0,0.337-0.275,0.613-0.612,0.613h-2.448c-0.338,0-0.613-0.276-0.613-0.613v-1.225c0-0.335,0.275-0.612,0.613-0.612 h2.448c0.337,0,0.612,0.277,0.612,0.612V14.082z M53.878,44.693c0,0.338-0.277,0.613-0.613,0.613h-2.448 c-0.338,0-0.612-0.275-0.612-0.613v-1.225c0-0.336,0.274-0.611,0.612-0.611h2.448c0.336,0,0.613,0.275,0.613,0.611V44.693z M53.878,14.082c0,0.337-0.277,0.613-0.613,0.613h-2.448c-0.338,0-0.612-0.276-0.612-0.613v-1.225c0-0.335,0.274-0.612,0.612-0.612 h2.448c0.336,0,0.613,0.277,0.613,0.612V14.082z" fill="url(#SVGID_5)"/>
<path d="M55.714,12.245v-0.612c0-0.676-0.549-1.224-1.225-1.224H31.424l-0.168,0.612h23.233 C55.165,11.02,55.714,11.569,55.714,12.245z" fill="#FFFFFF" fill-opacity="0.55"/>
<path d="M55.714,45.918v-0.611c0,0.677-0.549,1.225-1.225,1.225H28.373l-0.328,0.611h26.444 C55.165,47.143,55.714,46.595,55.714,45.918z" fill="#FFFFFF" fill-opacity="0.1"/>
<linearGradient gradientUnits="userSpaceOnUse" id="SVGID_6" x1="42.73" x2="42.73" y1="16.63" y2="41.12">
<stop offset="0" stop-color="#000000"/>
<stop offset="0.5" stop-color="#666666"/>
<stop offset="1" stop-color="#000000"/>
</linearGradient>
<polygon fill="url(#SVGID_6)" points="55.714,16.531 29.736,16.531 42.015,34.188 31.331,41.021 55.714,41.021 "/>
<linearGradient gradientUnits="userSpaceOnUse" id="SVGID_7" x1="41.03" x2="41.03" y1="41.02" y2="16.53">
<stop offset="0" stop-color="#36B5FF"/>
<stop offset="1" stop-color="#1B66D8"/>
</linearGradient>
<path d="M54.271,39.796V17.755c0-0.673-0.553-1.225-1.225-1.225H30.129l-2.338,8.473l6.123,11.939 l-2.189,4.077h21.322C53.719,41.021,54.271,40.469,54.271,39.796z" fill="url(#SVGID_7)"/>
<path d="M53.878,39.184c0,0.674-0.552,0.612-1.225,0.612H31.988l-0.328,0.612h20.993 C53.326,40.408,53.878,39.857,53.878,39.184z" fill="#FFFFFF" fill-opacity="0.5"/>
<linearGradient gradientUnits="userSpaceOnUse" id="SVGID_8" x1="41.72" x2="41.72" y1="16.53" y2="41.12">
<stop offset="0" stop-color="#000000"/>
<stop offset="1" stop-color="#404040"/>
</linearGradient>
<path d="M53.878,39.796V17.755c0-0.673-0.552-1.225-1.225-1.225H29.736l-0.17,0.612h23.087 c0.337,0,0.611,0.275,0.611,0.612v22.041c0,0.338-0.274,0.612-0.611,0.612H31.66l-0.329,0.612h21.322 C53.326,41.021,53.878,40.469,53.878,39.796z" fill="url(#SVGID_8)"/>
<path d="M52.653,18.98c0-0.676-0.549-1.225-1.225-1.225H30.622l-1.999,7.249l0.401,0.785l23.629-1.912 V18.98z" fill="#FFFFFF" fill-opacity="0.2"/>
<radialGradient cx="25.05" cy="27.35" gradientUnits="userSpaceOnUse" id="SVGID_9" r="9.6">
<stop offset="0" stop-color="#B6D8F8"/>
<stop offset="1" stop-color="#288CEB"/>
</radialGradient>
<polygon fill="url(#SVGID_9)" points="25.47,41.604 26.164,41.604 28.01,38.168 21.888,26.229 24.053,18.384 23.416,18.384 21.234,26.297 27.318,38.161 "/>
<radialGradient cx="27.6" cy="26.23" gradientUnits="userSpaceOnUse" id="SVGID_10" r="11.02">
<stop offset="0" stop-color="#B6D8F8"/>
<stop offset="1" stop-color="#288CEB"/>
</radialGradient>
<polygon fill="url(#SVGID_10)" points="31.664,40.399 32.359,40.399 34.212,36.95 28.051,24.938 30.188,17.197 29.553,17.197 27.398,25.004 33.521,36.943 "/>
</g>
</svg>
