<?xml version="1.0" encoding="UTF-8"?>
<!DOCTYPE svg PUBLIC "-//W3C//DTD SVG 1.1 Tiny//EN" "http://www.w3.org/Graphics/SVG/1.1/DTD/svg11-tiny.dtd">
<svg baseProfile="tiny" height="30" viewBox="0 0 30 30" width="30" xmlns="http://www.w3.org/2000/svg" xmlns:xlink="http://www.w3.org/1999/xlink">
<g>
<rect fill="none" height="30" width="30"/>
<path d="M15.001,27.354c-6.813,0-12.354-5.542-12.354-12.354 c0-6.813,5.541-12.354,12.354-12.354c6.812,0,12.354,5.542,12.354,12.354C27.354,21.813,21.813,27.354,15.001,27.354L15.001,27.354z " fill-opacity="0.6" stroke-opacity="0.6"/>
<linearGradient gradientUnits="userSpaceOnUse" id="SVGID_1" x1="15" x2="15" y1="5.95" y2="56.25">
<stop offset="0" stop-color="#FFFFFF"/>
<stop offset="1" stop-color="#4F4F4F"/>
</linearGradient>
<circle cx="15" cy="15" fill="url(#SVGID_1)" r="8.824"/>
<linearGradient gradientUnits="userSpaceOnUse" id="SVGID_2" x1="15" x2="15" y1="3.53" y2="26.43">
<stop offset="0" stop-color="#FF4D00"/>
<stop offset="1" stop-color="#800000"/>
</linearGradient>
<path d="M15.001,3.53C8.665,3.53,3.53,8.665,3.53,15.001c0,6.335,5.135,11.472,11.471,11.472 c6.335,0,11.472-5.137,11.472-11.472C26.473,8.665,21.336,3.53,15.001,3.53z M15.001,7.059c1.579,0,3.044,0.466,4.281,1.259 L8.319,19.282c-0.794-1.236-1.26-2.704-1.26-4.281C7.059,10.613,10.614,7.059,15.001,7.059z M15.001,22.942 c-1.702,0-3.274-0.539-4.567-1.452L21.49,10.434c0.913,1.292,1.452,2.865,1.452,4.567C22.942,19.387,19.387,22.942,15.001,22.942z" fill="url(#SVGID_2)"/>
<path d="M15.001,4.412c6.187,0,11.216,4.901,11.449,11.03 c0.005-0.148,0.022-0.292,0.022-0.441c0-6.336-5.137-11.471-11.472-11.471C8.665,3.53,3.53,8.665,3.53,15.001 c0,0.149,0.017,0.293,0.022,0.441C3.786,9.313,8.814,4.412,15.001,4.412z" fill="#FFFFFF" fill-opacity="0.4" stroke-opacity="0.4"/>
<rect fill="none" height="30.002" width="30.002"/>
</g>
</svg>
