<?xml version="1.0" encoding="UTF-8"?>
<!DOCTYPE svg PUBLIC "-//W3C//DTD SVG 1.1 Tiny//EN" "http://www.w3.org/Graphics/SVG/1.1/DTD/svg11-tiny.dtd">
<svg baseProfile="tiny" height="16px" version="1.1" viewBox="0 0 16 16" width="16px" x="0px" xmlns="http://www.w3.org/2000/svg" xmlns:xlink="http://www.w3.org/1999/xlink" y="0px">
<path d="M11.618,3.512C10.627,2.713,9.37,2.23,8,2.23C4.818,2.23,2.23,4.818,2.23,8c0,1.37,0.482,2.627,1.281,3.618  L11.618,3.512z" fill="none"/>
<path d="M12.487,4.382l-8.104,8.107C5.373,13.288,6.631,13.77,8,13.77c3.182,0,5.77-2.588,5.77-5.77  C13.77,6.631,13.288,5.373,12.487,4.382z" fill="none"/>
<path d="M8,1C4.135,1,1,4.135,1,8c0,3.866,3.135,7,7,7c3.866,0,7-3.135,7-7C15,4.135,11.866,1,8,1z M8,2.23  c1.37,0,2.627,0.482,3.618,1.281l-8.106,8.106C2.713,10.627,2.23,9.37,2.23,8C2.23,4.818,4.818,2.23,8,2.23z M8,13.77  c-1.369,0-2.627-0.482-3.617-1.281l8.104-8.107C13.288,5.373,13.77,6.631,13.77,8C13.77,11.182,11.182,13.77,8,13.77z"/>
<rect fill="none" height="16" width="16"/>
</svg>
