<?xml version="1.0" encoding="UTF-8"?>
<!DOCTYPE svg PUBLIC "-//W3C//DTD SVG 1.1 Tiny//EN" "http://www.w3.org/Graphics/SVG/1.1/DTD/svg11-tiny.dtd">
<svg baseProfile="tiny" height="30px" version="1.1" viewBox="0 0 30 30" width="30px" x="0px" xmlns="http://www.w3.org/2000/svg" xmlns:xlink="http://www.w3.org/1999/xlink" y="0px">
<rect fill="none" height="30" width="30"/>
<path d="M1,3v24h28V3H1z M26,24H4V6h22V24z"/>
<path d="M7.854,18.328c-0.639-0.164-1.121-0.543-1.445-1.141c-0.326-0.599-0.488-1.465-0.488-2.601c0-1.238,0.223-2.15,0.666-2.736  c0.444-0.587,1.104-0.882,1.983-0.882c0.883,0,1.547,0.295,1.992,0.885c0.447,0.588,0.67,1.5,0.67,2.734  c0,1.139-0.172,2.023-0.516,2.65c-0.344,0.629-0.859,1.002-1.545,1.119c0.059,0.272,0.15,0.479,0.277,0.619  c0.127,0.141,0.391,0.211,0.791,0.211v0.771H9.918c-0.602,0-1.059-0.121-1.371-0.362C8.234,19.352,8.002,18.93,7.854,18.328z   M8.57,17.566c0.408,0,0.717-0.213,0.932-0.637c0.213-0.427,0.318-1.207,0.318-2.343c0-1.029-0.105-1.75-0.316-2.16  c-0.213-0.411-0.524-0.618-0.934-0.618c-0.406,0-0.717,0.199-0.93,0.6c-0.213,0.398-0.32,1.125-0.32,2.18  c0,0.992,0.105,1.736,0.313,2.234C7.842,17.318,8.154,17.566,8.57,17.566z"/>
<path d="M14.953,18.406c-0.928,0-1.625-0.295-2.092-0.887c-0.469-0.59-0.701-1.563-0.701-2.912c0-1.211,0.234-2.122,0.705-2.728  c0.471-0.607,1.176-0.912,2.117-0.912c0.383,0,0.77,0.053,1.156,0.156v0.856c-0.384-0.115-0.728-0.172-1.029-0.172  c-0.519,0-0.906,0.23-1.162,0.691c-0.258,0.461-0.387,1.15-0.387,2.067c0,1.066,0.133,1.834,0.397,2.3  c0.267,0.467,0.664,0.698,1.192,0.698c0.312,0,0.64-0.049,0.986-0.146v0.83C15.752,18.354,15.355,18.406,14.953,18.406z"/>
<path d="M16.725,18.328v-0.84h0.603v-5.601h-0.603v-0.84h2.549v0.84h-0.6v5.602h0.6v0.84L16.725,18.328L16.725,18.328z"/>
<path d="M20.344,18.328v-7.281h3.74v0.84h-2.398v2.301h1.871v0.85h-1.871v3.291L20.344,18.328L20.344,18.328z"/>
</svg>
