<?xml version="1.0" encoding="UTF-8"?>
<!DOCTYPE svg PUBLIC "-//W3C//DTD SVG 1.1 Tiny//EN" "http://www.w3.org/Graphics/SVG/1.1/DTD/svg11-tiny.dtd">
<svg baseProfile="tiny" height="31px" version="1.1" viewBox="-0.771 -0.016 31 31" width="31px" x="0px" xmlns="http://www.w3.org/2000/svg" xmlns:xlink="http://www.w3.org/1999/xlink" y="0px">
<rect fill="none" height="30" width="30"/>
<polygon points="5.279,7.184 7.278,7.184 7.396,11.021 9.237,7.184 10.835,7.184 10.835,11.021 12.552,7.184 14.672,7.184   11.474,13.178 9.598,13.178 9.557,9.451 7.879,13.178 5.961,13.178 "/>
<path d="M17.797,6.357c0-0.637-0.696-1.15-1.557-1.15s-1.559,0.514-1.559,1.15c0,0.34,0.201,0.646,0.52,0.855v5.965h2.076V7.213  C17.597,7.003,17.797,6.697,17.797,6.357z"/>
<path d="M12.214,6.965c0,0,1.099-2.258,4.036-2.258c2.935,0,4.017,2.218,4.017,2.218s-0.54-2.878-4.076-2.878  C12.651,4.047,12.214,6.965,12.214,6.965z"/>
<path d="M11.015,6.326c0,0,1.279-3.078,5.235-3.078c3.954,0,4.974,3.037,4.974,3.037s-0.919-3.836-5.033-3.836  C12.074,2.449,11.015,6.326,11.015,6.326z"/>
<polygon points="24.722,20.823 5.279,20.826 9.48,27.553 11.544,26.264 9.672,23.26 9.684,23.26 9.684,23.26 24.722,23.26 "/>
<polygon points="20.521,11.516 18.452,12.803 20.326,15.808 5.279,15.809 5.279,18.242 24.722,18.242 "/>
<rect fill="none" height="30" width="30"/>
</svg>
