<?xml version="1.0" encoding="UTF-8"?>
<!DOCTYPE svg PUBLIC "-//W3C//DTD SVG 1.1 Tiny//EN" "http://www.w3.org/Graphics/SVG/1.1/DTD/svg11-tiny.dtd">
<svg baseProfile="tiny" height="30px" version="1.1" viewBox="0 0 30 30" width="30px" x="0px" xmlns="http://www.w3.org/2000/svg" xmlns:xlink="http://www.w3.org/1999/xlink" y="0px">
<rect fill="none" height="30" width="30"/>
<rect height="2" width="5" x="20" y="3.5"/>
<path d="M2,6.5v20h26v-20h-26zm23,17h-20v-14h20v14z"/>
<path d="M15.5,10.5c-3.314,0-6,2.686-6,6s2.686,6,6,6,6-2.686,6-6-2.69-6-6-6zm0,9c-1.656,0-3-1.344-3-3s1.344-3,3-3,3,1.344,3,3-1.34,3-3,3z"/>
<circle cx="7.688" cy="12.17" r="1.5"/>
</svg>
