<?xml version="1.0" encoding="UTF-8"?>
<!DOCTYPE svg PUBLIC "-//W3C//DTD SVG 1.1 Tiny//EN" "http://www.w3.org/Graphics/SVG/1.1/DTD/svg11-tiny.dtd">
<svg baseProfile="tiny" height="30" viewBox="0 0 30 30" width="30" xmlns="http://www.w3.org/2000/svg" xmlns:xlink="http://www.w3.org/1999/xlink">
<g>
<rect fill="none" height="30.002" width="30.002" y="0"/>
<path d="M15.001,29.003C7.28,29.003,1,22.721,1,15.001C1,7.28,7.28,1,15.001,1c7.719,0,14.002,6.28,14.002,14  C29.003,22.721,22.72,29.003,15.001,29.003L15.001,29.003z" fill-opacity="0.6"/>
<circle cx="15.001" cy="15.002" fill="url(#SVGID_1_)" r="13.001"/>
<path d="M15.001,3c7.013,0,12.711,5.556,12.977,12.5  c0.006-0.167,0.024-0.331,0.024-0.5c0-7.181-5.821-13-13.001-13S2,7.82,2,15.001c0,0.169,0.021,0.333,0.025,0.5  C2.29,8.556,7.989,3,15.001,3z" fill="#FFFFFF" fill-opacity="0.4" stroke-opacity="0.4"/>
<path d="M18.587,24.14c0,0.967-0.841,1.75-1.882,1.75h-0.457c-1.039,0-1.884-0.783-1.884-1.75v-9.688  c0-0.967,0.845-1.753,1.884-1.753h0.457c1.041,0,1.882,0.786,1.882,1.753V24.14z" fill-opacity="0.5" stroke-opacity="0.5"/>
<path d="M18.798,8.083c0,1.284-1.04,2.323-2.319,2.323c-1.286,0-2.325-1.039-2.325-2.323  c0-1.281,1.039-2.322,2.325-2.322C17.758,5.761,18.798,6.802,18.798,8.083z" fill-opacity="0.5" stroke-opacity="0.5"/>
<path d="M17.368,24.14c0,0.967-0.841,1.75-1.882,1.75h-0.457c-1.039,0-1.884-0.783-1.884-1.75v-9.688  c0-0.967,0.845-1.753,1.884-1.753h0.457c1.041,0,1.882,0.786,1.882,1.753V24.14z" fill="#FFFFFF"/>
<path d="M17.579,8.083c0,1.284-1.04,2.323-2.32,2.323c-1.286,0-2.325-1.039-2.325-2.323  c0-1.281,1.039-2.322,2.325-2.322C16.539,5.761,17.579,6.802,17.579,8.083z" fill="#FFFFFF"/>
<rect fill="none" height="30.002" width="30.002" y="0"/>
<defs>
<linearGradient gradientTransform="matrix(1 0 0 -1 -578.9609 -781.0391)" gradientUnits="userSpaceOnUse" id="SVGID_1_" x1="593.9609" x2="593.9609" y1="-783.3154" y2="-813.0505">
<stop offset="0" style="stop-color:#6DADC1"/>
<stop offset="1" style="stop-color:#3B518A"/>
</linearGradient>
</defs>
</g>
</svg>
