<?xml version="1.0" encoding="UTF-8"?>
<!DOCTYPE svg PUBLIC "-//W3C//DTD SVG 1.1 Tiny//EN" "http://www.w3.org/Graphics/SVG/1.1/DTD/svg11-tiny.dtd">
<svg baseProfile="tiny" height="30" viewBox="0 0 30 30" width="30" xmlns="http://www.w3.org/2000/svg" xmlns:xlink="http://www.w3.org/1999/xlink">
<g>
<path d="M15.001,27.354c-6.813,0-12.354-5.542-12.354-12.354  c0-6.813,5.541-12.354,12.354-12.354c6.812,0,12.354,5.541,12.354,12.354C27.354,21.813,21.813,27.354,15.001,27.354L15.001,27.354z  " style="opacity:0.6;enable-background:new    ;"/>
<circle cx="15.001" cy="15.001" r="11.471" style="fill:url(#SVGID_1_);"/>
<g style="opacity:0.2;">
<g>
<path d="M23.816,12.91c-0.25-0.66-1.155-2.372-2.479-3.669c0.428-1.803-0.673-2.099-1.102-2.168    c-0.764-0.048-2.287-0.631-3.692-0.179c-2.034,0.653-4.121,2.692-5.816,5.115c-1.733,2.458-2.42,6.604-2.786,6.727    c0.503,1.588,2.556,3.72,2.556,3.72s-0.606,1.934,1.201,2.237c1.752,0.181,3.473-1.429,3.473-1.429s8.524-1.653,6.86-9.798    C22.065,13.479,23.546,12.997,23.816,12.91z M14.81,19.633c-0.043,0.364-2.094,2.987-2.949,2.352    c-0.807-0.6-1.604-1.535-2.061-2.785c0.021-0.021,1.353-0.391,1.382-0.373c-1.315-5.875,3.628-6.804,3.628-6.804    c0.013,0.002-2.073,2.306-1.286,5.979c-0.004-0.044,1.184-0.322,1.755-0.505C15.469,18.003,14.905,18.814,14.81,19.633z     M16.391,20.156c-0.014-0.004,2.699-2.897,1.916-6.566c0.002,0.04-1.187,0.32-1.756,0.503c-0.494-1.313,0.058-4.504,1.222-5.24    c0.692-0.208,2.204,0.433,3.315,1.848c0.375,0.476-0.626,1.228-0.654,1.212C21.748,17.783,16.391,20.156,16.391,20.156z"/>
</g>
</g>
<path d="M15.001,4.412c6.187,0,11.216,4.901,11.449,11.03  c0.005-0.148,0.022-0.293,0.022-0.441c0-6.336-5.137-11.471-11.472-11.471C8.665,3.53,3.53,8.665,3.53,15.001  c0,0.148,0.017,0.293,0.022,0.441C3.786,9.313,8.814,4.412,15.001,4.412z" style="opacity:0.4;fill:#FFFFFF;enable-background:new    ;"/>
<g>
<path d="M22.746,12.039c-0.25-0.661-1.154-2.372-2.479-3.67c0.428-1.802-0.672-2.099-1.102-2.167   c-1.87-0.119-2.554,0.502-3.148,0.934c-1.111,0.809-3.615,0.67-6.36,4.002c-1.733,2.457-1.116,6.242-1.116,6.242   s-1.305,0.362-1.67,0.485c0.503,1.588,2.556,3.721,2.556,3.721s-0.606,1.933,1.201,2.235c1.752,0.181,3.473-1.428,3.473-1.428   s8.524-1.653,6.86-9.798C20.995,12.607,22.476,12.124,22.746,12.039z M12.986,21.864c-0.927,0.276-3.315-0.964-4.257-3.538   c0.021-0.022,1.353-0.391,1.382-0.373c-1.315-5.874,4.255-7.393,4.255-7.393c0.013,0.002-2.7,2.895-1.912,6.568   c-0.004-0.044,1.184-0.324,1.755-0.506C14.703,17.936,14.151,21.129,12.986,21.864z M15.321,19.284   c-0.014-0.004,2.699-2.897,1.915-6.567c0.003,0.041-1.187,0.32-1.756,0.504c-0.492-1.314,0.058-4.506,1.221-5.24   c0.927-0.278,3.316,0.962,4.256,3.538c-0.02,0.021-1.353,0.389-1.381,0.374C20.892,17.764,15.321,19.284,15.321,19.284z" style="fill:#FFFFFF;"/>
</g>
<rect height="30.002" style="fill:none;" width="30.002"/>
<defs>
<linearGradient gradientTransform="matrix(0.8824 0 0 -0.8824 -284.8232 -348.3516)" gradientUnits="userSpaceOnUse" id="SVGID_1_" x1="339.7822" x2="339.7822" y1="-399.0518" y2="-428.7852">
<stop offset="0" style="stop-color:#4EDEFF"/>
<stop offset="1" style="stop-color:#048CC6"/>
</linearGradient>
</defs>
</g>
</svg>
