<?xml version="1.0" encoding="UTF-8"?>
<!DOCTYPE svg PUBLIC "-//W3C//DTD SVG 1.1 Tiny//EN" "http://www.w3.org/Graphics/SVG/1.1/DTD/svg11-tiny.dtd">
<svg baseProfile="tiny" height="60" viewBox="0 0 60 60" width="60" xmlns="http://www.w3.org/2000/svg" xmlns:xlink="http://www.w3.org/1999/xlink">
<g>
<linearGradient gradientTransform="matrix(1 0 0 1 2296.5195 1443.9805)" gradientUnits="userSpaceOnUse" id="SVGID_1_" x1="-2266.519" x2="-2266.519" y1="-1432.3472" y2="-1395.6118">
<stop offset="0" style="stop-color:#757575"/>
<stop offset="0.2424" style="stop-color:#000000"/>
<stop offset="0.8606" style="stop-color:#000000"/>
<stop offset="1" style="stop-color:#363636"/>
</linearGradient>
<path d="M51.734,11.633H8.266c-0.678,0-1.225,0.549-1.225,1.225v34.285c0,0.678,0.547,1.226,1.225,1.226  h43.468c0.677,0,1.226-0.548,1.226-1.226V12.857C52.959,12.182,52.41,11.633,51.734,11.633z M12.551,45.918  c0,0.338-0.275,0.613-0.611,0.613H9.49c-0.338,0-0.613-0.275-0.613-0.613v-1.225c0-0.336,0.275-0.611,0.613-0.611h2.449  c0.336,0,0.611,0.275,0.611,0.611L12.551,45.918L12.551,45.918z M12.551,15.307c0,0.336-0.275,0.611-0.611,0.611H9.49  c-0.338,0-0.613-0.275-0.613-0.611v-1.225c0-0.336,0.275-0.613,0.613-0.613h2.449c0.336,0,0.611,0.277,0.611,0.613L12.551,15.307  L12.551,15.307z M18.061,45.918c0,0.338-0.275,0.613-0.611,0.613H15c-0.338,0-0.612-0.275-0.612-0.613v-1.225  c0-0.336,0.274-0.611,0.612-0.611h2.449c0.336,0,0.611,0.275,0.611,0.611L18.061,45.918L18.061,45.918z M18.061,15.307  c0,0.336-0.275,0.611-0.611,0.611H15c-0.338,0-0.612-0.275-0.612-0.611v-1.225c0-0.336,0.274-0.613,0.612-0.613h2.449  c0.336,0,0.611,0.277,0.611,0.613L18.061,15.307L18.061,15.307z M23.571,45.918c0,0.338-0.276,0.613-0.612,0.613H20.51  c-0.336,0-0.611-0.275-0.611-0.613v-1.225c0-0.336,0.274-0.611,0.611-0.611h2.449c0.336,0,0.612,0.275,0.612,0.611V45.918z   M23.571,15.307c0,0.336-0.276,0.611-0.612,0.611H20.51c-0.336,0-0.611-0.275-0.611-0.611v-1.225c0-0.336,0.274-0.613,0.611-0.613  h2.449c0.336,0,0.612,0.277,0.612,0.613V15.307z M29.082,45.918c0,0.338-0.276,0.613-0.613,0.613h-2.448  c-0.337,0-0.612-0.275-0.612-0.613v-1.225c0-0.336,0.275-0.611,0.612-0.611h2.448c0.337,0,0.613,0.275,0.613,0.611V45.918z   M29.082,15.307c0,0.336-0.276,0.611-0.613,0.611h-2.448c-0.337,0-0.612-0.275-0.612-0.611v-1.225c0-0.336,0.275-0.613,0.612-0.613  h2.448c0.337,0,0.613,0.277,0.613,0.613V15.307z M34.592,45.918c0,0.338-0.275,0.613-0.611,0.613h-2.448  c-0.339,0-0.613-0.275-0.613-0.613v-1.225c0-0.336,0.274-0.611,0.613-0.611h2.448c0.336,0,0.611,0.275,0.611,0.611V45.918z   M34.592,15.307c0,0.336-0.275,0.611-0.611,0.611h-2.448c-0.339,0-0.613-0.275-0.613-0.611v-1.225c0-0.336,0.274-0.613,0.613-0.613  h2.448c0.336,0,0.611,0.277,0.611,0.613V15.307z M40.102,45.918c0,0.338-0.274,0.613-0.61,0.613h-2.449  c-0.338,0-0.612-0.275-0.612-0.613v-1.225c0-0.336,0.274-0.611,0.612-0.611h2.449c0.336,0,0.61,0.275,0.61,0.611V45.918z   M40.102,15.307c0,0.336-0.274,0.611-0.61,0.611h-2.449c-0.338,0-0.612-0.275-0.612-0.611v-1.225c0-0.336,0.274-0.613,0.612-0.613  h2.449c0.336,0,0.61,0.277,0.61,0.613V15.307z M45.611,45.918c0,0.338-0.275,0.613-0.611,0.613h-2.449  c-0.337,0-0.611-0.275-0.611-0.613v-1.225c0-0.336,0.274-0.611,0.611-0.611H45c0.336,0,0.611,0.275,0.611,0.611V45.918z   M45.611,15.307c0,0.336-0.275,0.611-0.611,0.611h-2.449c-0.337,0-0.611-0.275-0.611-0.611v-1.225c0-0.336,0.274-0.613,0.611-0.613  H45c0.336,0,0.611,0.277,0.611,0.613V15.307z M51.123,45.918c0,0.338-0.277,0.613-0.613,0.613h-2.449  c-0.336,0-0.61-0.275-0.61-0.613v-1.225c0-0.336,0.274-0.611,0.61-0.611h2.449c0.336,0,0.613,0.275,0.613,0.611V45.918z   M51.123,15.307c0,0.336-0.277,0.611-0.613,0.611h-2.449c-0.336,0-0.61-0.275-0.61-0.611v-1.225c0-0.336,0.274-0.613,0.61-0.613  h2.449c0.336,0,0.613,0.277,0.613,0.613V15.307z" fill="url(#SVGID_1_)"/>
<path d="M51.734,11.633H8.266c-0.678,0-1.225,0.549-1.225,1.225v0.611  c0-0.676,0.547-1.225,1.225-1.225h43.468c0.677,0,1.226,0.549,1.226,1.225v-0.611C52.959,12.182,52.41,11.633,51.734,11.633z" fill="#FFFFFF" fill-opacity="0.55" stroke-opacity="0.55"/>
<path d="M8.266,48.367h43.468c0.677,0,1.226-0.547,1.226-1.225v-0.611  c0,0.676-0.549,1.225-1.226,1.225H8.266c-0.678,0-1.225-0.549-1.225-1.225v0.611C7.041,47.82,7.588,48.367,8.266,48.367z" fill="#FFFFFF" fill-opacity="0.1" stroke-opacity="0.1"/>
<linearGradient gradientTransform="matrix(1 0 0 1 2296.5195 1443.9805)" gradientUnits="userSpaceOnUse" id="SVGID_2_" x1="-2266.5195" x2="-2266.5195" y1="-1426.1284" y2="-1401.6362">
<stop offset="0" style="stop-color:#000000"/>
<stop offset="0.5" style="stop-color:#666666"/>
<stop offset="1" style="stop-color:#000000"/>
</linearGradient>
<rect fill="url(#SVGID_2_)" height="24.492" width="45.918" x="7.041" y="17.754"/>
<linearGradient gradientTransform="matrix(1 0 0 1 2296.5195 1443.9805)" gradientUnits="userSpaceOnUse" id="SVGID_3_" x1="-2266.519" x2="-2266.519" y1="-1401.7349" y2="-1426.2271">
<stop offset="0" style="stop-color:#36B5FF"/>
<stop offset="1" style="stop-color:#1B66D8"/>
</linearGradient>
<path d="M51.123,41.021c0,0.674-0.553,1.225-1.225,1.225H10.102c-0.673,0-1.225-0.551-1.225-1.225V18.979  c0-0.672,0.552-1.225,1.225-1.225h39.796c0.672,0,1.226,0.553,1.226,1.225L51.123,41.021L51.123,41.021z" fill="url(#SVGID_3_)"/>
<path d="M49.898,41.021H10.102c-0.673,0-1.225,0.061-1.225-0.613l0,0  c0,0.674,0.552,1.225,1.225,1.225h39.796c0.672,0,1.226-0.551,1.226-1.225l0,0C51.123,41.082,50.57,41.021,49.898,41.021z" fill="#FFFFFF" fill-opacity="0.5" stroke-opacity="0.5"/>
<linearGradient gradientTransform="matrix(1 0 0 1 2296.5195 1443.9805)" gradientUnits="userSpaceOnUse" id="SVGID_4_" x1="-2266.519" x2="-2266.519" y1="-1426.2261" y2="-1401.6362">
<stop offset="0" style="stop-color:#000000"/>
<stop offset="1" style="stop-color:#404040"/>
</linearGradient>
<path d="M49.898,18.367c0.336,0,0.61,0.275,0.61,0.611v22.043c0,0.338-0.274,0.61-0.61,0.61H10.102  c-0.337,0-0.611-0.272-0.611-0.61V18.979c0-0.336,0.274-0.611,0.611-0.611L49.898,18.367 M49.898,17.754H10.102  c-0.673,0-1.225,0.553-1.225,1.225v22.042c0,0.674,0.552,1.226,1.225,1.226h39.796c0.672,0,1.226-0.552,1.226-1.226V18.979  C51.123,18.307,50.57,17.754,49.898,17.754L49.898,17.754z" fill="url(#SVGID_4_)"/>
<path d="M49.898,25.102v-4.898c0-0.676-0.549-1.225-1.226-1.225H11.326  c-0.676,0-1.225,0.549-1.225,1.225v7.961L49.898,25.102z" fill="#FFFFFF" fill-opacity="0.2" stroke-opacity="0.2"/>
<rect fill="none" height="60" width="60"/>
</g>
<g transform="matrix(0.5 0 0 0.5 30 30)">
<rect fill="none" height="60" width="60"/>
<linearGradient gradientUnits="userSpaceOnUse" id="SVGID_1" x1="28.13" x2="28.13" y1="12.29" y2="51.26">
<stop offset="0" stop-color="#8CFF24"/>
<stop offset="1" stop-color="#15570B"/>
</linearGradient>
<path d="M48.631,13.079l-3.08-7.497L27.85,13.46l0.028,23.917c-2.712-1.771-6.708-2.354-10.768-1.254 c-6.405,1.725-10.542,6.951-9.247,11.665c1.3,4.718,7.543,7.142,13.944,5.415c5.412-1.461,9.159-5.324,9.138-9.451 c-0.018-4.129,0.033-15.338,0-23.445L48.631,13.079z" fill="url(#SVGID_1)"/>
<linearGradient gradientUnits="userSpaceOnUse" id="SVGID_2" x1="27.86" x2="27.86" y1="9.02" y2="18.75">
<stop offset="0" stop-color="#36B5FF"/>
<stop offset="1" stop-color="#1B66D8"/>
</linearGradient>
<polygon fill="url(#SVGID_2)" points="27.878,33.26 27.857,13.46 27.85,13.46 27.872,33.258 "/>
<linearGradient gradientUnits="userSpaceOnUse" id="SVGID_3" x1="39.79" x2="39.79" y1="9.02" y2="18.75">
<stop offset="0" stop-color="#9EFF47"/>
<stop offset="1" stop-color="#11470A"/>
</linearGradient>
<path d="M30.945,19.08c0.007,1.306,0.01-0.201,0.012,1.223l17.674-7.225l-0.436-1.108L30.945,19.08z" fill="url(#SVGID_3)"/>
<linearGradient gradientUnits="userSpaceOnUse" id="SVGID_4" x1="36.64" x2="36.76" y1="12.18" y2="36.51">
<stop offset="0" stop-color="#B3FF6E"/>
<stop offset="1" stop-color="#11470A"/>
</linearGradient>
<polygon fill="url(#SVGID_4)" points="28.142,38.062 28.142,14.143 45.891,6.413 45.551,5.582 27.454,13.46 27.454,37.378 "/>
<linearGradient gradientUnits="userSpaceOnUse" id="SVGID_5" x1="19.29" x2="19.29" y1="37.91" y2="52.09">
<stop offset="0" stop-color="#B2F56E"/>
<stop offset="0.47" stop-color="#40AD00"/>
<stop offset="1" stop-color="#074D00"/>
</linearGradient>
<path d="M17.625,52.389c-4.258,0.021-7.653-1.941-8.447-4.885c-0.484-1.785,0.028-3.761,1.444-5.555 c1.55-1.964,3.944-3.454,6.747-4.191c1.187-0.317,2.386-0.477,3.573-0.484c4.258-0.021,7.651,1.943,8.45,4.885 c1.058,3.9-2.618,8.272-8.196,9.748C20.012,52.221,18.808,52.381,17.625,52.389L17.625,52.389z" fill="url(#SVGID_5)"/>
<rect fill="none" height="59.996" width="59.996"/>
</g>
<g transform="matrix(1 0 0 1 30 30)">
<linearGradient gradientTransform="matrix(1 0 0 -1 -257 -316)" gradientUnits="userSpaceOnUse" id="SVGID_1__" x1="261.2295" x2="282.7705" y1="-330.6934" y2="-330.6934">
<stop offset="0" style="stop-color:#FF4D00"/>
<stop offset="0.8424" style="stop-color:#CC1414"/>
<stop offset="1" style="stop-color:#FF4D00"/>
</linearGradient>
<polygon fill="url(#SVGID_1__)" points="24.702,25.229 4.229,5.254 5.299,4.158 25.771,24.133 "/>
<rect fill="none" height="30" width="30.001"/>
</g>
</svg>
