<?xml version="1.0" encoding="UTF-8" standalone="no"?>
<!DOCTYPE svg PUBLIC "-//W3C//DTD SVG 1.1 Tiny//EN" "http://www.w3.org/Graphics/SVG/1.1/DTD/svg11-tiny.dtd">
<svg xmlns="http://www.w3.org/2000/svg" xmlns:xlink="http://www.w3.org/1999/xlink" baseProfile="tiny" height="30px" version="1.1" viewBox="0 0 30 30" width="30px" x="0px" y="0px">
<g fill-opacity="0.5" stroke-opacity="0.5">
<rect fill="none" height="30" width="30"/>
</g>
<path d="M11,1v19.5c0,2.205,1.794,4,4,4c2.205,0,4-1.795,4-4V8h-3v12.5c0,0.551-0.449,1-1,1s-1-0.449-1-1V4h7v18.5  c0,2.481-2.019,4.5-4.5,4.5h-3C11.019,27,9,24.981,9,22.5V8H6v14.5c0,4.136,3.364,7.5,7.5,7.5h3c4.136,0,7.5-3.364,7.5-7.5V1H11z"/>
</svg>
