<?xml version="1.0" encoding="UTF-8"?>
<!DOCTYPE svg PUBLIC "-//W3C//DTD SVG 1.1 Tiny//EN" "http://www.w3.org/Graphics/SVG/1.1/DTD/svg11-tiny.dtd">
<svg baseProfile="tiny" height="30" viewBox="0 0 30 30" width="30" xmlns="http://www.w3.org/2000/svg" xmlns:xlink="http://www.w3.org/1999/xlink">
<rect fill="none" height="30" width="30"/>
<polygon points="8.011,17.726 7.02,17.726 4.005,18.676 4.005,19.77 6.151,19.277 6.151,26.906 4.005,26.906 4.005,28 10.041,28 10.041,26.906 8.011,26.906 "/>
<path d="M13.654,25.693c0.193-0.34,0.432-0.651,0.714-0.934s0.675-0.636,1.176-1.06c0.897-0.752,1.468-1.368,1.709-1.849 c0.241-0.481,0.362-0.97,0.362-1.467c0-0.884-0.269-1.553-0.807-2.006c-0.538-0.454-1.324-0.681-2.358-0.681 c-0.839,0-1.7,0.139-2.584,0.417v1.217h0.014c0.843-0.306,1.561-0.458,2.153-0.458c0.561,0,0.98,0.134,1.262,0.399 c0.279,0.268,0.42,0.665,0.42,1.193c0,0.301-0.087,0.604-0.26,0.909s-0.59,0.736-1.251,1.292c-0.552,0.465-1.007,0.893-1.367,1.281 c-0.36,0.391-0.663,0.86-0.909,1.412s-0.369,1.183-0.369,1.894V28h6.098v-1.189h-4.32C13.354,26.405,13.46,26.032,13.654,25.693z"/>
<path d="M23.371,22.593c0.588-0.173,1.039-0.468,1.354-0.886c0.314-0.416,0.472-0.914,0.472-1.493c0-0.839-0.262-1.468-0.786-1.887 s-1.308-0.629-2.352-0.629c-0.692,0-1.468,0.107-2.324,0.321v1.203h0.014c0.843-0.232,1.497-0.349,1.962-0.349 c0.528,0,0.927,0.125,1.192,0.376c0.268,0.251,0.4,0.624,0.4,1.121c0,0.565-0.166,0.984-0.499,1.258s-1.169,0.41-2.509,0.41v1.142 c1.354,0,2.217,0.146,2.591,0.438s0.561,0.772,0.561,1.442c0,0.624-0.156,1.093-0.468,1.404c-0.313,0.313-0.778,0.469-1.398,0.469 c-0.515,0-1.219-0.111-2.112-0.335h-0.014v1.189c0.766,0.214,1.513,0.321,2.242,0.321c1.217,0,2.13-0.261,2.737-0.783 c0.609-0.521,0.913-1.304,0.913-2.348c0-0.634-0.17-1.161-0.509-1.582C24.498,22.975,24.009,22.707,23.371,22.593z"/>
<polygon points="4.013,13.543 5.54,13.543 5.383,10.671 7.798,12.239 8.545,10.929 6.014,9.616 8.545,8.313 7.798,7.002 5.383,8.546 5.54,5.69 4.013,5.69 4.162,8.546 1.746,7.002 1,8.313 3.531,9.616 1,10.929 1.746,12.239 4.162,10.671 "/>
<path d="M19.55,13.352c0.73-0.853,1.259-1.992,1.585-3.42l-1.651-0.373c-0.238,1.057-0.545,1.89-0.921,2.498L16.08,8.844 c0.936-0.631,1.583-1.202,1.942-1.714s0.54-1.075,0.54-1.688c0-0.753-0.273-1.348-0.818-1.785S16.442,3,15.475,3 c-1.041,0-1.852,0.238-2.433,0.715c-0.581,0.476-0.872,1.159-0.872,2.05c0,0.808,0.443,1.79,1.328,2.946 c-0.891,0.51-1.529,1.051-1.917,1.623C11.193,10.907,11,11.584,11,12.363c0,1.052,0.338,1.867,1.013,2.445s1.646,0.867,2.913,0.867 c1.234,0,2.283-0.346,3.146-1.037l0.697,0.904h2.482L19.55,13.352z M14.557,4.652c0.208-0.21,0.52-0.315,0.934-0.315 c0.35,0,0.629,0.103,0.839,0.308c0.21,0.204,0.315,0.465,0.315,0.779c0,0.848-0.487,1.597-1.461,2.25 c-0.359-0.471-0.605-0.851-0.738-1.142c-0.133-0.29-0.199-0.602-0.199-0.934C14.246,5.178,14.35,4.862,14.557,4.652z M15.3,14.248 c-0.548,0-1.025-0.182-1.432-0.544c-0.407-0.362-0.61-0.884-0.61-1.564c0-0.907,0.382-1.666,1.146-2.274l2.822,3.686 C16.667,14.016,16.024,14.248,15.3,14.248z"/>
<polygon points="26.643,11.841 26.883,3.166 24.484,3.166 24.733,11.841 "/>
<path d="M26.617,13.426c-0.254-0.254-0.564-0.381-0.93-0.381s-0.675,0.127-0.93,0.381c-0.254,0.255-0.381,0.564-0.381,0.93 s0.128,0.677,0.386,0.935c0.257,0.257,0.565,0.386,0.925,0.386c0.365,0,0.676-0.129,0.93-0.386C26.872,15.032,27,14.721,27,14.355 S26.872,13.681,26.617,13.426z"/>
</svg>
