<?xml version="1.0" encoding="UTF-8"?>
<!DOCTYPE svg PUBLIC "-//W3C//DTD SVG 1.1 Tiny//EN" "http://www.w3.org/Graphics/SVG/1.1/DTD/svg11-tiny.dtd">
<svg baseProfile="tiny" height="30px" version="1.1" viewBox="0 0 30 30" width="30px" x="0px" xmlns="http://www.w3.org/2000/svg" xmlns:xlink="http://www.w3.org/1999/xlink" y="0px">
<g fill-opacity="0.5" stroke-opacity="0.5">
<rect fill="none" height="30" width="30"/>
</g>
<path d="M10.59,11.188c-0.307,0-0.617-0.094-0.881-0.289C9.057,10.42,8.924,9.512,9.41,8.87l1.998-2.625  c0.488-0.641,1.412-0.771,2.064-0.293c0.65,0.48,0.783,1.389,0.297,2.029l-1.998,2.627C11.482,10.987,11.039,11.188,10.59,11.188  L10.59,11.188z"/>
<path d="M27.617,18.032h-4.74l-1.639-5.9l-4.373-3.822l-4.449-0.002c-0.801,0.009-1.094-0.622-1.121-1.396  c-0.027-0.771,0.584-1.42,1.371-1.448l5.238,0.01l5.859,5.121l1.287,4.639h2.566c0.785,0,1.424,0.625,1.424,1.398  S28.402,18.032,27.617,18.032L27.617,18.032z"/>
<path d="M3.416,28.625c-0.682,0-1.357-0.287-1.826-0.842c-0.838-0.99-0.701-2.461,0.307-3.285l6.414-5.24l1.332-2.273  c0.654-1.117,2.105-1.5,3.24-0.857s1.525,2.068,0.873,3.186l-1.758,2.996l-7.066,5.777C4.488,28.448,3.951,28.625,3.416,28.625  L3.416,28.625z"/>
<path d="M11.596,28.983c-0.609-0.045-1.207-0.32-1.635-0.816c-0.848-0.984-0.729-2.457,0.268-3.289l5.467-4.563  c0.998-0.832,2.496-0.711,3.344,0.271c0.852,0.984,0.729,2.457-0.268,3.289l-5.467,4.563C12.813,28.848,12.195,29.028,11.596,28.983  L11.596,28.983z"/>
<path d="M10.342,20.213l-0.574-3.217c-0.297-1.66,0.633-3.42,2.766-5.23c0.646-0.549,2.512-2.383,3.533-3.41l2.326-2.329  l4.746,4.571l-2.326,2.332c-0.291,0.291-2.871,2.871-3.938,3.777c-0.143,0.121-0.262,0.229-0.357,0.32l0.369,2.055L10.342,20.213  L10.342,20.213z"/>
<path d="M17.637,24.02c-0.707,0-1.41-0.299-1.896-0.879l-4.164-4.963c-0.863-1.027-0.715-2.549,0.332-3.398  c1.045-0.848,2.594-0.705,3.459,0.326l4.164,4.961c0.863,1.029,0.717,2.551-0.332,3.4C18.742,23.838,18.189,24.02,17.637,24.02  L17.637,24.02z"/>
<circle cx="25.041" cy="4.989" r="4"/>
</svg>
