<?xml version="1.0" encoding="UTF-8" standalone="no"?>
<!DOCTYPE svg PUBLIC "-//W3C//DTD SVG 1.1 Tiny//EN" "http://www.w3.org/Graphics/SVG/1.1/DTD/svg11-tiny.dtd">
<svg xmlns="http://www.w3.org/2000/svg" xmlns:xlink="http://www.w3.org/1999/xlink" baseProfile="tiny" height="30px" style="enable-background:new 0 0 30 30;" version="1.1" viewBox="0 0 30 30" width="30px" x="0px" y="0px">
<path d="M16.6,11.44v-3.592h-3.59v2.619h-1.2v-2.622h-3.587v3.594h2.621l-0.011,1.21-2.625,0.016,0.015,3.568,3.569-0.014,0.009-2.607h1.215v2.62h3.592v-3.6h-2.621v-1.197h2.61zm-3.57,1.2h-0.013v0.017h-1.22v-1.213h0.015v-0.02h1.2v0.014h0.013v1.2z"/>
<polygon points="12.43,3.636,18.16,9.345,18.83,8.672,12.39,2.217,5.953,8.654,6.698,9.381"/>
<polygon points="24.77,22.38,24.77,24.57,20.8,24.57,20.8,24.57,15.42,24.57,17.24,22.38"/>
<polygon points="7.246,22.38,12.02,22.38,10.17,24.57,7.246,24.57"/>
<polygon points="24.77,17.85,24.77,20.05,19.19,20.05,21.02,17.85"/>
<polygon points="7.246,20.05,7.246,17.85,15.83,17.85,13.98,20.05"/>
<polygon points="21.8,15.4,21.86,15.46,21.82,15.51,11.84,27.4,10.94,28.47,9.261,27.06,10.54,25.53,20.18,14.05"/>
<rect fill="none" height="29.03" width="29.03" x="0.846" y="0.83"/>
<rect fill="none" height="29.03" width="29.03" x="0.846" y="0.83"/>
</svg>
