<?xml version="1.0" ?>
<!DOCTYPE svg  PUBLIC '-//W3C//DTD SVG 1.1 Tiny//EN'  'http://www.w3.org/Graphics/SVG/1.1/DTD/svg11-tiny.dtd'>
<svg baseProfile="tiny" height="30px" version="1.1" viewBox="0 0 30 30" width="30px" x="0px" xmlns="http://www.w3.org/2000/svg" xmlns:xlink="http://www.w3.org/1999/xlink" y="0px">

<rect fill="none" height="30" width="30"/>

<path d="M14.95,8.815h0.005c3.328,0,6.036,2.705,6.042,6.031h1.5c-0.006-4.152-3.387-7.531-7.542-7.531h-0.005v1.496z"/>

<polygon points="21.78,14.74,24.1,14.74,22.94,16.75,21.78,18.76,20.62,16.75,19.46,14.74"/>

<path d="M15,1c-7.732,0-14,6.268-14,14,0,7.73,6.268,14,14,14,7.731,0,14-6.27,14-14,0-7.732-6.27-14-14-14zm0,25c-6.075,0-11-4.92-11-11,0-6.076,4.925-11,11-11s11,4.924,11,11c0,6.08-4.92,11-11,11z"/>

<rect height="9" width="2" x="14.04" y="6.009"/>

<rect height="9.001" transform="matrix(0.8281 0.5605 -0.5605 0.8281 9.3921 -7.8538)" width="2" x="16.5" y="6.888"/>

<circle cx="15.03" cy="15.01" r="1"/>

</svg>