<?xml version="1.0" encoding="UTF-8" standalone="no"?>
<!DOCTYPE svg PUBLIC "-//W3C//DTD SVG 1.1 Tiny//EN" "http://www.w3.org/Graphics/SVG/1.1/DTD/svg11-tiny.dtd">
<svg xmlns="http://www.w3.org/2000/svg" xmlns:xlink="http://www.w3.org/1999/xlink" baseProfile="tiny" height="30px" version="1.1" viewBox="0 0 30 30" width="30px" x="0px" y="0px">
<g fill-opacity="0.5" stroke-opacity="0.5">
<rect fill="none" height="30" width="30"/>
</g>
<path d="M15,2c-1.942,0-3.779,0.438-5.434,1.202l2.306,2.306C12.857,5.183,13.907,5,15,5c5.514,0,10,4.486,10,10s-4.486,10-10,10  S5,20.514,5,15c0-1.093,0.183-2.143,0.508-3.127L3.201,9.566C2.438,11.221,2,13.058,2,15c0,7.18,5.82,13,13,13s13-5.82,13-13  S22.18,2,15,2z"/>
<rect height="13" transform="matrix(0.707 -0.7072 0.7072 0.707 -4.2932 10.3659)" width="5" x="7.864" y="3.864"/>
</svg>
