<?xml version="1.0" encoding="UTF-8" standalone="no"?>
<!DOCTYPE svg PUBLIC "-//W3C//DTD SVG 1.1 Tiny//EN" "http://www.w3.org/Graphics/SVG/1.1/DTD/svg11-tiny.dtd">
<svg xmlns="http://www.w3.org/2000/svg" xmlns:xlink="http://www.w3.org/1999/xlink" baseProfile="tiny" height="30px" version="1.1" viewBox="0 0 30 30" width="30px" x="0px" y="0px">
<g fill-opacity="0.5" stroke-opacity="0.5">
<rect fill="none" height="30" width="30"/>
</g>
<rect height="12" width="7" x="1" y="9"/>
<path d="M13,22.5c0-4.727,3.474-8.646,8-9.37V3L10,8v14l3.045,1.384C13.018,23.093,13,22.799,13,22.5z"/>
<path d="M25.916,13.646c-0.22-1.963-0.904-3.876-2.027-5.6L22.213,9.14c0.805,1.232,1.341,2.578,1.602,3.962  C24.545,13.204,25.248,13.387,25.916,13.646z"/>
<path d="M29.91,16.57C29.964,16.05,30,15.526,30,15c0-3.416-1.141-6.735-3.298-9.602l-1.598,1.203  c1.844,2.449,2.833,5.265,2.886,8.159C28.711,15.273,29.357,15.881,29.91,16.57z"/>
<path d="M22.5,15c-4.136,0-7.5,3.364-7.5,7.5s3.364,7.5,7.5,7.5s7.5-3.364,7.5-7.5S26.636,15,22.5,15z M22.5,28  c-3.033,0-5.5-2.468-5.5-5.5s2.467-5.5,5.5-5.5s5.5,2.468,5.5,5.5S25.533,28,22.5,28z"/>
<polygon points="24,21 24,18 21,18 21,21 18,21 18,24 21,24 21,27 24,27 24,24 27,24 27,21 "/>
</svg>
