<?xml version="1.0" encoding="UTF-8"?>
<!DOCTYPE svg PUBLIC "-//W3C//DTD SVG 1.1 Tiny//EN" "http://www.w3.org/Graphics/SVG/1.1/DTD/svg11-tiny.dtd">
<svg baseProfile="tiny" height="30" viewBox="0 0 30 30" width="30" xmlns="http://www.w3.org/2000/svg" xmlns:xlink="http://www.w3.org/1999/xlink">
<g>
<linearGradient gradientUnits="userSpaceOnUse" id="SVGID_1_" x1="11.3525" x2="11.3525" y1="16.041" y2="26.3361">
<stop offset="0" style="stop-color:#CDEDBD"/>
<stop offset="0.9879" style="stop-color:#139900"/>
<stop offset="1" style="stop-color:#139900"/>
</linearGradient>
<path d="M20.93,20.279c0,0.277-0.223,0.508-0.497,0.508h-7.751c-0.271,0-0.496,0.229-0.496,0.508v4.592  c0,0.279-0.163,0.35-0.359,0.156l-9.935-9.746c-0.198-0.193-0.135-0.352,0.138-0.352h18.403c0.272,0,0.497,0.229,0.497,0.508V20.279  z" fill="url(#SVGID_1_)"/>
<linearGradient gradientUnits="userSpaceOnUse" id="SVGID_2_" x1="11.9546" x2="11.9546" y1="16.958" y2="24.3341">
<stop offset="0" style="stop-color:#82C94C"/>
<stop offset="0.2545" style="stop-color:#439020"/>
<stop offset="0.5091" style="stop-color:#0D4D07"/>
<stop offset="1" style="stop-color:#0D4D07"/>
</linearGradient>
<path d="M3.98,16.945H19.93v2.842h-7.248c-0.824,0-1.496,0.676-1.496,1.508v2.719L3.98,16.945z" fill="url(#SVGID_2_)"/>
<linearGradient gradientUnits="userSpaceOnUse" id="SVGID_3_" x1="18.6484" x2="18.6484" y1="3.875" y2="14.2085">
<stop offset="0" style="stop-color:#CDEDBD"/>
<stop offset="0.4909" style="stop-color:#CDEDBD"/>
<stop offset="0.9879" style="stop-color:#139900"/>
<stop offset="1" style="stop-color:#139900"/>
</linearGradient>
<path d="M9.072,9.721c0-0.279,0.223-0.508,0.496-0.508h7.752c0.272,0,0.495-0.229,0.495-0.508l0.001-4.592  c0-0.281,0.162-0.35,0.359-0.156l9.934,9.744c0.198,0.193,0.135,0.352-0.138,0.352H9.568c-0.272,0-0.496-0.229-0.496-0.506V9.721z" fill="url(#SVGID_3_)"/>
<linearGradient gradientUnits="userSpaceOnUse" id="SVGID_4_" x1="18.0469" x2="18.0469" y1="5.959" y2="13.0835">
<stop offset="0" style="stop-color:#B2F56E"/>
<stop offset="0.703" style="stop-color:#439020"/>
<stop offset="0.9879" style="stop-color:#0D4D07"/>
<stop offset="1" style="stop-color:#0D4D07"/>
</linearGradient>
<path d="M10.072,13.053v-2.84h7.248c0.824,0,1.495-0.678,1.495-1.508l0.001-2.719l7.204,7.066H10.072z" fill="url(#SVGID_4_)"/>
<rect fill="none" height="30" width="30"/>
</g>
</svg>
