<?xml version="1.0" encoding="UTF-8"?>
<!DOCTYPE svg PUBLIC "-//W3C//DTD SVG 1.1 Tiny//EN" "http://www.w3.org/Graphics/SVG/1.1/DTD/svg11-tiny.dtd">
<svg baseProfile="tiny" height="30px" style="enable-background:new 0 0 30 30;" version="1.1" viewBox="0 0 30 30" width="30px" x="0px" xmlns="http://www.w3.org/2000/svg" xmlns:xlink="http://www.w3.org/1999/xlink" y="0px">
<path d="M23.14,19.59v-6.889h-6.89v5.018h-2.298v-5.018h-6.884v6.889h5.018l-0.014,2.316-5.029,0.029,0.031,6.839,6.837-0.028,0.014-4.994h2.326v5.018h6.886v-6.886h-5.019v-2.294h5.015zm-6.86,2.3h-0.03v0.026h-2.324v-2.32h0.027v-0.031h2.297v0.025h0.025v2.286z"/>
<polygon points="15.12,4.63,26.1,15.57,27.39,14.28,15.06,1.913,2.721,14.25,4.148,15.64"/>
<rect fill="none" height="29.03" width="29.03" x="0.54" y="0.83"/>
<rect fill="none" height="29.03" width="29.03" x="0.54" y="0.83"/>
</svg>
