<?xml version="1.0" encoding="UTF-8"?>
<!DOCTYPE svg PUBLIC "-//W3C//DTD SVG 1.1 Tiny//EN" "http://www.w3.org/Graphics/SVG/1.1/DTD/svg11-tiny.dtd">
<svg baseProfile="tiny" height="30px" version="1.1" viewBox="0 0 30 30" width="30px" x="0px" xmlns="http://www.w3.org/2000/svg" xmlns:xlink="http://www.w3.org/1999/xlink" y="0px">
<rect fill="none" height="30" width="30"/>
<path d="M15,9.5c-2.757,0-5,2.243-5,5s2.243,5,5,5s5-2.243,5-5S17.757,9.5,15,9.5z M15,17.5c-1.654,0-3-1.346-3-3  c0-1.654,1.346-3,3-3c1.654,0,3,1.346,3,3C18,16.154,16.654,17.5,15,17.5z M25,5.5H5c-1.104,0-2,0.896-2,2v14c0,1.104,0.896,2,2,2  h10.689c-0.115-0.322-0.189-0.654-0.189-1c0-0.356,0.065-0.706,0.187-1.035C15.46,21.487,15.231,21.5,15,21.5c-3.866,0-7-3.135-7-7  c0-3.865,3.134-7,7-7s7,3.135,7,7c0,0.343-0.033,0.678-0.081,1.009C21.946,15.508,21.973,15.5,22,15.5  c0.866,0,1.688,0.373,2.258,1.024L27,19.655V7.5C27,6.396,26.104,5.5,25,5.5z M25,9.5h-3v-2h3V9.5z M11,3.5c0-0.553-0.448-1-1-1H7  c-0.552,0-1,0.447-1,1v1h5V3.5z"/>
<path d="M21.247,17.842l-3.499,4C17.585,22.027,17.5,22.264,17.5,22.5c0,0.141,0.029,0.281,0.09,0.414  c0.162,0.355,0.52,0.586,0.911,0.586L20,23.499V28c0,0.553,0.447,1,1,1h2c0.553,0,1-0.447,1-1v-4.504h1.501  c0.392-0.001,0.748-0.23,0.91-0.588c0.06-0.133,0.089-0.271,0.089-0.412c0-0.238-0.085-0.475-0.248-0.659l-3.5-3.996  C22.563,17.624,22.288,17.5,22,17.5C21.711,17.5,21.438,17.625,21.247,17.842z"/>
</svg>
