<?xml version="1.0" encoding="UTF-8" standalone="no"?>
<!DOCTYPE svg PUBLIC "-//W3C//DTD SVG 1.1 Tiny//EN" "http://www.w3.org/Graphics/SVG/1.1/DTD/svg11-tiny.dtd">
<svg xmlns="http://www.w3.org/2000/svg" xmlns:xlink="http://www.w3.org/1999/xlink" baseProfile="tiny" height="30" viewBox="0 0 30 30" width="30">
<path d="M21.09,27.19c-2.842,0-5.156-1.893-5.156-4.219s2.314-4.219,5.156-4.219c0.48,0,0.953,0.053,1.406,0.158v-8.596h-8.438v9.844c0,2.326-2.314,4.219-5.156,4.219s-5.154-1.89-5.154-4.21,2.314-4.219,5.156-4.219c0.48,0,0.953,0.053,1.406,0.158v-13.29h15.94v20.16c0,2.33-2.31,4.22-5.16,4.22z" fill-opacity="0.6" stroke-opacity="0.6" style="enable-background:new;"/>
<path d="M11.25,3.75v13.68c-0.67-0.35-1.476-0.555-2.344-0.555-2.33,0-4.219,1.469-4.219,3.281s1.889,3.281,4.219,3.281,4.219-1.469,4.219-3.281v-10.78h10.31v10.87c-0.67-0.35-1.476-0.555-2.344-0.555-2.33,0-4.219,1.469-4.219,3.281s1.889,3.281,4.219,3.281,4.219-1.469,4.219-3.281v-19.21h-14.06z" fill="url(#SVGID_1_)"/>
<path d="M8.906,22.5c-2.125,0-3.863-1.225-4.159-2.813-0.028,0.154-0.06,0.308-0.06,0.469,0,1.813,1.889,3.281,4.219,3.281s4.219-1.469,4.219-3.281v-0.938c0,1.81-1.88,3.28-4.214,3.28z"/>
<path d="M21.09,25.31c-2.125,0-3.863-1.225-4.158-2.813-0.029,0.154-0.061,0.308-0.061,0.469,0,1.813,1.889,3.281,4.219,3.281s4.219-1.469,4.219-3.281v-0.938c0,1.81-1.89,3.28-4.22,3.28z"/>
<rect height="0.938" width="10.31" x="13.12" y="8.438"/>
<path d="M8.906,17.81c0.868,0,1.673,0.205,2.344,0.555v-0.93c-0.67-0.35-1.476-0.555-2.344-0.555-2.33,0-4.219,1.469-4.219,3.281,0,0.161,0.032,0.314,0.06,0.469,0.296-1.59,2.035-2.82,4.159-2.82z" fill="#FFFFFF" fill-opacity="0.4" stroke-opacity="0.4" style="enable-background:new;"/>
<path d="M21.09,20.62c0.868,0,1.674,0.205,2.344,0.555v-0.938c-0.67-0.35-1.476-0.555-2.344-0.555-2.33,0-4.219,1.469-4.219,3.281,0,0.161,0.031,0.314,0.061,0.469,0.3-1.58,2.04-2.81,4.16-2.81z" fill="#FFFFFF" fill-opacity="0.4" stroke-opacity="0.4" style="enable-background:new;"/>
<rect fill="#FFFFFF" fill-opacity="0.4" height="0.938" stroke-opacity="0.4" style="enable-background:new;" width="14.06" x="11.25" y="3.75"/>
<defs>
<linearGradient gradientTransform="matrix(0.9375 0 0 -0.9375 -280.6875 -343.5)" gradientUnits="userSpaceOnUse" id="SVGID_1_" x1="315.4" x2="315.4" y1="-370.7" y2="-394.3">
<stop offset="0" stop-color="#DE6929"/>
<stop offset="1" stop-color="#D9340F"/>
</linearGradient>
</defs>
</svg>
