<?xml version="1.0" encoding="UTF-8"?>
<!DOCTYPE svg PUBLIC "-//W3C//DTD SVG 1.1 Tiny//EN" "http://www.w3.org/Graphics/SVG/1.1/DTD/svg11-tiny.dtd">
<svg baseProfile="tiny" height="30px" version="1.1" viewBox="0 0 30 30" width="30px" x="0px" xmlns="http://www.w3.org/2000/svg" xmlns:xlink="http://www.w3.org/1999/xlink" y="0px">
<g fill-opacity="0.5" stroke-opacity="0.5">
<rect fill="none" height="30" width="30"/>
</g>
<path d="M23,5L13,2v17.357C12.31,19.129,11.549,19,10.75,19C7.574,19,5,21.016,5,23.5S7.574,28,10.75,28S17,25.984,17,23.5  c0-0.168,0-13.449,0-13.449L23,12V5z"/>
<path d="M20,17.014v-1.581C21.043,15.145,21.975,15,22.795,15c1.363,0,2.405,0.279,3.124,0.838C26.64,16.396,27,17.219,27,18.31  c0,0.459-0.104,0.93-0.311,1.412c-0.21,0.48-0.705,1.118-1.488,1.916c-0.573,0.576-0.957,1.007-1.149,1.291  c-0.192,0.286-0.29,0.614-0.29,0.989v0.836h-2.297v-0.965c0-0.619,0.136-1.156,0.407-1.609c0.271-0.453,0.689-0.953,1.257-1.498  c0.598-0.589,0.967-1.037,1.108-1.342c0.142-0.307,0.212-0.607,0.212-0.901c0-0.613-0.171-1.073-0.516-1.379  c-0.343-0.306-0.858-0.46-1.546-0.46C21.718,16.6,20.923,16.737,20,17.014z M22.613,29c-0.398,0-0.735-0.142-1.013-0.428  c-0.278-0.283-0.416-0.629-0.416-1.033s0.138-0.747,0.416-1.029c0.277-0.283,0.614-0.423,1.013-0.423s0.735,0.14,1.014,0.423  c0.277,0.282,0.415,0.625,0.415,1.029s-0.139,0.75-0.421,1.033C23.342,28.858,23.006,29,22.613,29z"/>
</svg>
