<?xml version="1.0" encoding="UTF-8"?>
<!DOCTYPE svg PUBLIC "-//W3C//DTD SVG 1.1 Tiny//EN" "http://www.w3.org/Graphics/SVG/1.1/DTD/svg11-tiny.dtd">
<svg baseProfile="tiny" height="60" viewBox="0 0 60 60" width="60" xmlns="http://www.w3.org/2000/svg" xmlns:xlink="http://www.w3.org/1999/xlink">
<rect fill="none" height="60" width="60"/>
<linearGradient gradientUnits="userSpaceOnUse" id="SVGID_1" x1="18.65" x2="22.93" y1="35.62" y2="39.9">
<stop offset="0" stop-color="#292929"/>
<stop offset="0.35" stop-color="#8C8C8C"/>
<stop offset="0.7" stop-color="#171717"/>
<stop offset="1" stop-color="#646464"/>
</linearGradient>
<polygon fill="url(#SVGID_1)" points="19.528,43.371 15.252,39.096 22.01,32.338 26.287,36.613 "/>
<linearGradient gradientUnits="userSpaceOnUse" id="SVGID_2" x1="17.34" x2="11.19" y1="47.76" y2="41.61">
<stop offset="0" stop-color="#B3B3B3"/>
<stop offset="0.38" stop-color="#969696"/>
<stop offset="0.75" stop-color="#FFFFFF"/>
<stop offset="1" stop-color="#D5D5D5"/>
</linearGradient>
<path d="M6.589,45.98c-0.643,0.644-0.643,1.695,0,2.338l3.898,3.897c0.643,0.644,1.695,0.644,2.338,0 l8.964-8.964c0.643-0.644,0.643-1.695,0-2.338l-3.898-3.898c-0.643-0.643-1.695-0.642-2.338,0.001L6.589,45.98z" fill="url(#SVGID_2)"/>
<linearGradient gradientUnits="userSpaceOnUse" id="SVGID_3" x1="11.18" x2="17.42" y1="41.32" y2="47.56">
<stop offset="0" stop-color="#E0E4E6"/>
<stop offset="0.33" stop-color="#B0B6B8"/>
<stop offset="0.33" stop-color="#9FA6A8"/>
<stop offset="0.68" stop-color="#6A7173"/>
<stop offset="1" stop-color="#ADB3B5"/>
</linearGradient>
<polygon fill="url(#SVGID_3)" points="13.765,51.275 7.529,45.039 14.517,38.052 20.753,44.289 "/>
<path d="M35.673,24.764c-6.744,0-12.936-1.631-17.829-4.356 c1.4-8.628,8.883-15.217,17.906-15.217c8.996,0,16.459,6.547,17.895,15.134C48.73,23.098,42.482,24.764,35.673,24.764z" fill="#FFFFFF" fill-opacity="0.2" stroke-opacity="0.2"/>
<linearGradient gradientUnits="userSpaceOnUse" id="SVGID_4" x1="35.76" x2="35.76" y1="36.05" y2="10.05">
<stop offset="0" stop-color="#B2F56E"/>
<stop offset="0.47" stop-color="#40AD00"/>
<stop offset="1" stop-color="#074D00"/>
</linearGradient>
<circle cx="35.75" cy="23.054" fill="url(#SVGID_4)" fill-opacity="0.7" r="12.998" stroke-opacity="0.7"/>
<linearGradient gradientUnits="userSpaceOnUse" id="SVGID_5" x1="35.75" x2="35.75" y1="41.29" y2="4.88">
<stop offset="0" stop-color="#BEC7CC"/>
<stop offset="0.19" stop-color="#9AA4A6"/>
<stop offset="0.7" stop-color="#D4D9DB"/>
<stop offset="0.9" stop-color="#ECF3F5"/>
<stop offset="1" stop-color="#ECF3F5"/>
</linearGradient>
<path d="M35.75,4.917c-10.015,0-18.136,8.122-18.136,18.138s8.122,18.137,18.136,18.137 c10.018,0,18.139-8.121,18.139-18.137S45.768,4.917,35.75,4.917z M35.75,36.732c-7.177,0-13.711-6.5-13.711-13.678 S28.573,9.183,35.75,9.183c7.18,0,13.838,6.693,13.838,13.871S42.93,36.732,35.75,36.732z" fill="url(#SVGID_5)"/>
<radialGradient cx="35.95" cy="8.79" gradientUnits="userSpaceOnUse" id="SVGID_6" r="31.29">
<stop offset="0" stop-color="#E5EBED"/>
<stop offset="0.58" stop-color="#C4CCCE"/>
<stop offset="0.85" stop-color="#8D9699"/>
<stop offset="0.98" stop-color="#CAD2D4"/>
<stop offset="1" stop-color="#CAD2D4"/>
</radialGradient>
<path d="M35.75,5.824c-9.514,0-17.229,7.716-17.229,17.231c0,9.516,7.716,17.23,17.229,17.23 c9.518,0,17.231-7.715,17.231-17.23S45.268,5.824,35.75,5.824z M35.75,36.732c-7.177,0-13.711-6.5-13.711-13.678 S28.573,9.183,35.75,9.183c7.18,0,13.838,6.693,13.838,13.871S42.93,36.732,35.75,36.732z" fill="url(#SVGID_6)"/>
<linearGradient gradientUnits="userSpaceOnUse" id="SVGID_7" x1="35.75" x2="35.75" y1="37.01" y2="9.61">
<stop offset="0" stop-color="#E5EBED"/>
<stop offset="1" stop-color="#515759"/>
</linearGradient>
<path d="M35.75,9.149c-7.678,0-13.904,6.226-13.904,13.905c0,7.68,6.226,13.906,13.904,13.906 c7.681,0,13.906-6.226,13.906-13.906C49.656,15.375,43.431,9.149,35.75,9.149z M35.75,36.054c-7.177,0-12.998-5.821-12.998-12.999 c0-7.178,5.82-12.998,12.998-12.998c7.18,0,12.999,5.82,12.999,12.998C48.749,30.233,42.93,36.054,35.75,36.054z" fill="url(#SVGID_7)"/>
<path d="M35.676,24.434c-4.299,0-8.361-0.692-11.989-1.915 c0.282-6.427,5.568-11.556,12.065-11.556c6.48,0,11.756,5.101,12.062,11.505C44.148,23.722,40.032,24.434,35.676,24.434z" fill="#FFFFFF" fill-opacity="0.2" stroke-opacity="0.2"/>
<path d="M35.664,11.86c6.004,0,10.982,4.293,12.088,9.973 c-0.616-6.101-5.738-10.87-12.002-10.87c-5.637,0-10.356,3.863-11.692,9.083C25.763,15.276,30.31,11.86,35.664,11.86z" fill="#FFFFFF" fill-opacity="0.4" stroke-opacity="0.4"/>
<rect fill="none" height="59.996" width="59.996"/>
</svg>
