<?xml version="1.0" ?>
<!DOCTYPE svg  PUBLIC '-//W3C//DTD SVG 1.1 Tiny//EN'  'http://www.w3.org/Graphics/SVG/1.1/DTD/svg11-tiny.dtd'>
<svg baseProfile="tiny" height="30px" version="1.1" viewBox="0 0 30 30" width="30px" x="0px" xmlns="http://www.w3.org/2000/svg" xmlns:xlink="http://www.w3.org/1999/xlink" y="0px">

<rect fill="none" height="30" width="30"/>

<path d="M23.09,4.084l0.707-0.707c0.779-0.777,2.053-0.777,2.83,0,0.777,0.778,0.777,2.051,0,2.828l-0.707,0.708-2.83-2.829z"/>

<path d="M25.21,4.791c-3.891-3.89-10.25-3.89-14.14,0l-4.247,4.243c-1.913-0.685-2.636-0.192-3.514,0.686l-1.436,1.435,16.97,16.97,1.438-1.438c0.879-0.877,1.371-1.602,0.686-3.514l4.244-4.244c3.89-3.9,3.89-10.26,0-14.15z"/>

<path d="M12.47,23.87c-1.675,0.432-3.569-0.033-4.935-1.396-1.363-1.365-1.83-3.262-1.399-4.938l6.334,6.34z"/>

</svg>