<?xml version="1.0" encoding="UTF-8"?>
<!DOCTYPE svg PUBLIC "-//W3C//DTD SVG 1.1 Tiny//EN" "http://www.w3.org/Graphics/SVG/1.1/DTD/svg11-tiny.dtd">
<svg baseProfile="tiny" height="30" viewBox="0 0 30 30" width="30" xmlns="http://www.w3.org/2000/svg" xmlns:xlink="http://www.w3.org/1999/xlink">
<rect fill="none" height="30" width="30"/>
<rect fill="none" height="30" width="30"/>
<path d="M2.25,6.938v18.75h25.5V6.938H2.25z M25.5,23.438h-21V9.188h21V23.438z"/>
<circle cx="7.369" cy="11.917" r="1.62"/>
<path d="M15.206,21.58c-2.904,0-5.267-2.363-5.267-5.268c0-2.905,2.363-5.267,5.267-5.267c2.905,0,5.268,2.362,5.268,5.267 C20.474,19.217,18.111,21.58,15.206,21.58L15.206,21.58z M15.206,13.295c-1.664,0-3.017,1.354-3.017,3.017 c0,1.664,1.354,3.018,3.017,3.018s3.018-1.354,3.018-3.018C18.224,14.649,16.871,13.295,15.206,13.295L15.206,13.295z"/>
<rect height="1.5" width="4.5" x="19.725" y="4.313"/>
</svg>
