<?xml version="1.0" encoding="UTF-8"?>
<!DOCTYPE svg PUBLIC "-//W3C//DTD SVG 1.1 Tiny//EN" "http://www.w3.org/Graphics/SVG/1.1/DTD/svg11-tiny.dtd">
<svg baseProfile="tiny" height="30px" version="1.1" viewBox="0 0 30 30" width="30px" x="0px" xmlns="http://www.w3.org/2000/svg" xmlns:xlink="http://www.w3.org/1999/xlink" y="0px">
<g fill-opacity="0.5" stroke-opacity="0.5">
<rect fill="none" height="30" width="30"/>
</g>
<path d="M14.8,20.4l2.013-1.51c0.092-0.151,0.184-0.301,0.271-0.469c0.021,0.074,0.051,0.138,0.075,0.209l2.4-1.801  c-0.007-0.173-0.015-0.344-0.015-0.541c0-1.668,0.319-4.38,0.957-8.135h-3.787c-2.206,0-3.97,0.692-5.291,2.078  s-1.982,3.295-1.982,5.729c0,1.567,0.374,2.805,1.121,3.712s1.668,1.36,2.762,1.36c0.362,0,0.697-0.045,1.013-0.12  C14.463,20.721,14.611,20.542,14.8,20.4z M13.023,18.162c-0.228-0.492-0.342-1.271-0.342-2.338c0-1.695,0.333-3.04,0.998-4.033  s1.472-1.49,2.42-1.49h0.848l-0.506,4.006c-0.219,1.695-0.497,2.885-0.834,3.568S14.828,18.9,14.281,18.9  C13.671,18.9,13.251,18.654,13.023,18.162z"/>
<path d="M15.018,23.764c-5.419-0.321-8.133-3.461-8.133-9.43c0-2.825,0.818-5.033,2.454-6.624s3.762-2.386,6.378-2.386  c2.479,0,4.391,0.754,5.735,2.263s2.017,3.648,2.017,6.419c0,0.029-0.003,0.055-0.003,0.084c0.47-0.131,0.977-0.104,1.429,0.121  c0.632,0.316,1.032,0.943,1.085,1.641c0.101-0.618,0.169-1.271,0.169-1.996c0-3.427-0.909-6.093-2.728-7.998S19.012,3,15.648,3  c-3.372,0-6.157,1.019-8.354,3.056S4,10.897,4,14.471c0,3.746,1.068,6.629,3.206,8.647s5.011,3.028,8.62,3.028  c0.632,0,1.356-0.072,2.127-0.182L15.018,23.764z"/>
<polygon points="29,19 24,19 24,16 16,22 24,28 24,25 29,25 "/>
</svg>
