<?xml version="1.0" encoding="UTF-8"?>
<!DOCTYPE svg PUBLIC "-//W3C//DTD SVG 1.1 Tiny//EN" "http://www.w3.org/Graphics/SVG/1.1/DTD/svg11-tiny.dtd">
<svg baseProfile="tiny" height="60" viewBox="0 0 60 60" width="60" xmlns="http://www.w3.org/2000/svg" xmlns:xlink="http://www.w3.org/1999/xlink">
<g>
<linearGradient gradientTransform="matrix(0.2118 0.9773 -0.9773 0.2118 -634.5609 -270.4865)" gradientUnits="userSpaceOnUse" id="SVGID_1_" x1="423.0967" x2="429.6524" y1="-578.646" y2="-582.9078">
<stop offset="0" style="stop-color:#A7E722"/>
<stop offset="0.1333" style="stop-color:#A7E722"/>
<stop offset="0.6303" style="stop-color:#428C0F"/>
<stop offset="1" style="stop-color:#5CA617"/>
</linearGradient>
<path d="M19.081,33.91c2.089-3.595,4.591-6.496,7.281-9.188c2.593-2.591,6.72-5.3,8.562-6.256l9.604-10.282  c-0.845-0.3-3.693-0.464-7.279,0.616c-3.586,1.083-11.736,6.303-16.979,11.547c-5.242,5.246-9.727,12.347-10.581,14.595  c-1.343,3.541-1.221,7.445-0.929,8.58c0,0,0.34,1.035,1.144,2.377C10.248,46.475,19.081,33.91,19.081,33.91z" fill="url(#SVGID_1_)"/>
<path d="M31.184,20.8c1.488-1.036,2.87-1.882,3.74-2.334L44.271,8.46  c-0.132-0.058-0.209-0.088-0.209-0.088c-0.247-0.088-0.642-0.162-1.124-0.219c-0.793,0.006-1.596,0.093-2.401,0.27  C34.843,9.673,31.019,14.958,31.184,20.8z" fill="#020202" fill-opacity="0.05" stroke-opacity="0.05"/>
<path d="M31.906,20.306c1.205-0.809,2.291-1.462,3.018-1.84l9.377-10.04  c-0.146-0.063-0.233-0.098-0.233-0.098c-0.231-0.08-0.604-0.152-1.06-0.203c-0.751,0.006-1.51,0.087-2.27,0.253  C35.275,9.576,31.636,14.695,31.906,20.306z" fill="#020202" fill-opacity="0.1" stroke-opacity="0.1"/>
<path d="M44.079,8.263c-0.21-0.073-0.55-0.137-0.962-0.186c-0.681,0.006-1.369,0.08-2.06,0.231  c-5.087,1.116-8.426,5.984-7.978,11.233c0.725-0.455,1.363-0.826,1.844-1.076l9.424-10.088C44.178,8.302,44.079,8.263,44.079,8.263z  " fill="#020202" fill-opacity="0.1" stroke-opacity="0.1"/>
<radialGradient cx="40.9697" cy="9.21" gradientUnits="userSpaceOnUse" id="SVGID_2_" r="12.2872">
<stop offset="0" style="stop-color:#A7E722"/>
<stop offset="0.6242" style="stop-color:#428C0F"/>
<stop offset="1" style="stop-color:#5CA617"/>
</radialGradient>
<path d="M34.924,18.466l0.929,1.55c0,0,15.101-6.784,14.084-8.038c-0.513-0.631-0.577-0.656-1.237-1.263  c-1.985-1.815-4.172-2.531-4.172-2.531c-0.186-0.063-0.481-0.12-0.845-0.161c-0.596,0.004-1.2,0.068-1.806,0.201  c-4.591,1.009-7.57,5.501-6.963,10.257C34.916,18.477,34.921,18.47,34.924,18.466z" fill="url(#SVGID_2_)"/>
<path d="M17.483,34.105c-0.988-0.139-2.007-0.119-3.027,0.105c-2.418,0.531-4.376,2.066-5.646,4.131  c-0.367,2.35-0.25,4.408-0.05,5.18c0,0,0.34,1.035,1.144,2.377c0.29,0.482,6.54-8.264,8.556-11.107L17.483,34.105z" fill="#020202" fill-opacity="0.1" stroke-opacity="0.1"/>
<path d="M18.366,34.135c-0.989-0.139-2.008-0.117-3.029,0.105c-3.313,0.727-5.775,3.332-6.76,6.623  c-0.026,1.025,0.034,1.873,0.127,2.398c0.003,0.012,0.005,0.033,0.01,0.047c0,0,0.34,1.033,1.144,2.379  c0.3,0.498,6.981-8.887,8.75-11.383L18.366,34.135z" fill="#020202" fill-opacity="0.1" stroke-opacity="0.1"/>
<radialGradient cx="437.4258" cy="-571.231" gradientTransform="matrix(0.2095 0.9787 -0.9682 0.2124 -629.4526 -270.6148)" gradientUnits="userSpaceOnUse" id="SVGID_3_" r="14.6187">
<stop offset="0" style="stop-color:#A7E722"/>
<stop offset="0.6242" style="stop-color:#428C0F"/>
<stop offset="1" style="stop-color:#5CA617"/>
</radialGradient>
<path d="M11.202,47.738c0.616,0.74,0.646,0.953,1.295,1.523c1.194,1.055,9.301-13.611,9.301-13.611  l-2.683-1.719c-0.941-0.111-1.914-0.08-2.89,0.135c-4.777,1.049-7.806,5.869-6.87,10.832C9.749,45.686,10.349,46.709,11.202,47.738z  " fill="url(#SVGID_3_)"/>
<path d="M49.937,11.978c-0.179-0.22-0.381-0.446-0.578-0.67l-13.944,7.959l0.438,0.749  C35.853,20.016,50.953,13.231,49.937,11.978z" fill="#020202" fill-opacity="0.4" stroke-opacity="0.4"/>
<linearGradient gradientTransform="matrix(0.2118 0.9773 -0.9773 0.2118 -634.5599 -270.4865)" gradientUnits="userSpaceOnUse" id="SVGID_4_" x1="422.2881" x2="427.4786" y1="-610.9287" y2="-594.4409">
<stop offset="0" style="stop-color:#C6FF45"/>
<stop offset="0.6788" style="stop-color:#387300"/>
<stop offset="1" style="stop-color:#66A00E"/>
</linearGradient>
<path d="M35.853,20.016l1.178,1.981c0.302,0.515,0.972,0.674,1.569,0.422l4.09-2.334l8.043-4.668  c0.632-0.363,0.878-1.119,0.549-1.686c0,0-0.333-0.501-1.349-1.751L35.853,20.016z" fill="url(#SVGID_4_)"/>
<path d="M21.798,35.65l-0.725-0.473l-9.215,13.486c0.216,0.205,0.43,0.414,0.639,0.598  C13.691,50.316,21.798,35.65,21.798,35.65z" fill="#020202" fill-opacity="0.4" stroke-opacity="0.4"/>
<linearGradient gradientTransform="matrix(0.2118 0.9773 -0.9773 0.2118 -634.5599 -270.4865)" gradientUnits="userSpaceOnUse" id="SVGID_5_" x1="439.6982" x2="451.5232" y1="-577.7549" y2="-564.7323">
<stop offset="0" style="stop-color:#C6FF45"/>
<stop offset="0.6788" style="stop-color:#387300"/>
<stop offset="1" style="stop-color:#66A00E"/>
</linearGradient>
<path d="M12.498,49.262c1.193,1.049,1.686,1.369,1.686,1.369c0.567,0.367,1.363,0.17,1.781-0.441l7.9-11.605  c0.419-0.615,0.307-1.412-0.26-1.777l-1.808-1.156L12.498,49.262z" fill="url(#SVGID_5_)"/>
<rect fill="none" height="60" width="60"/>
</g>
<g transform="matrix(0.5 0 0 0.5 30 30)">
<linearGradient gradientTransform="matrix(2 0 0 -2 -292 -262)" gradientUnits="userSpaceOnUse" id="SVGID_1__" x1="161" x2="161" y1="-133.1313" y2="-158.8042">
<stop offset="0" style="stop-color:#D1D7D9"/>
<stop offset="0.0667" style="stop-color:#D1D7D9"/>
<stop offset="0.2606" style="stop-color:#BDC2C4"/>
<stop offset="0.6606" style="stop-color:#949DA1"/>
<stop offset="0.9636" style="stop-color:#ADB3B5"/>
<stop offset="1" style="stop-color:#595C5E"/>
</linearGradient>
<path d="M46.574,52.922c0,1.557-1.264,2.818-2.822,2.818H16.248c-1.558,0-2.82-1.262-2.82-2.818V7.082  c0-1.556,1.262-2.82,2.82-2.82h27.504c1.559,0,2.822,1.264,2.822,2.82V52.922z" style="fill:url(#SVGID_1__);"/>
<linearGradient gradientTransform="matrix(2 0 0 -2 -292 -262)" gradientUnits="userSpaceOnUse" id="SVGID_2__" x1="161.002" x2="161.002" y1="-133.1313" y2="-158.3649">
<stop offset="0" style="stop-color:#E4EBED"/>
<stop offset="0.0667" style="stop-color:#E4EBED"/>
<stop offset="0.2606" style="stop-color:#D6DCDE"/>
<stop offset="0.6606" style="stop-color:#B2BEC2"/>
<stop offset="1" style="stop-color:#ADB3B5"/>
</linearGradient>
<path d="M43.752,4.262H16.248c-1.558,0-2.82,1.264-2.82,2.82v45.84c0,0.752,0.3,1.432,0.78,1.938  c-0.044-0.172-0.072-0.344-0.072-0.529v-1.408V8.492v-1.41c0-1.168,0.95-2.118,2.114-2.118h27.504c1.166,0,2.114,0.95,2.114,2.118  v1.41v44.43v1.408c0,0.186-0.028,0.357-0.072,0.529c0.481-0.506,0.782-1.186,0.782-1.938V7.082  C46.574,5.526,45.311,4.262,43.752,4.262z" style="fill:url(#SVGID_2__);"/>
<linearGradient gradientTransform="matrix(2 0 0 -2 -292 -262)" gradientUnits="userSpaceOnUse" id="SVGID_3__" x1="161" x2="161" y1="-134.9199" y2="-152.1733">
<stop offset="0" style="stop-color:#B6BBBD"/>
<stop offset="1" style="stop-color:#F0FBFF"/>
</linearGradient>
<rect height="34.554" style="opacity:0.6;fill:url(#SVGID_3__);enable-background:new    ;" width="28.918" x="15.542" y="7.788"/>
<linearGradient gradientTransform="matrix(2 0 0 -2 -292 -262)" gradientUnits="userSpaceOnUse" id="SVGID_4__" x1="161" x2="161" y1="-135.271" y2="-151.8217">
<stop offset="0" style="stop-color:#6E6E6E"/>
<stop offset="1" style="stop-color:#333333"/>
</linearGradient>
<rect height="33.146" style="fill:url(#SVGID_4__);" width="27.504" x="16.248" y="8.492"/>
<linearGradient gradientTransform="matrix(2 0 0 -2 -292 -262)" gradientUnits="userSpaceOnUse" id="SVGID_5__" x1="161" x2="161" y1="-135.623" y2="-151.4692">
<stop offset="0" style="stop-color:#3BC8EB"/>
<stop offset="0.3879" style="stop-color:#2D9BD2"/>
<stop offset="0.8909" style="stop-color:#1347BA"/>
<stop offset="1" style="stop-color:#1347BA"/>
</linearGradient>
<rect height="31.735" style="fill:url(#SVGID_5__);" width="26.094" x="16.954" y="9.198"/>
<linearGradient gradientTransform="matrix(2 0 0 -2 -292 -262)" gradientUnits="userSpaceOnUse" id="SVGID_6_" x1="161" x2="161" y1="-135.876" y2="-142.1815">
<stop offset="0" style="stop-color:#85EFFF"/>
<stop offset="1" style="stop-color:#3BA1D9"/>
</linearGradient>
<polygon points="43.046,20.48 16.954,23.3 16.954,9.904 43.046,9.904 " style="fill:url(#SVGID_6_);"/>
<rect height="0.708" style="fill:#9FE4FF;" width="26.094" x="16.954" y="9.198"/>
<linearGradient gradientTransform="matrix(2 0 0 -2 -292 -262)" gradientUnits="userSpaceOnUse" id="SVGID_7_" x1="161.1025" x2="161.1025" y1="-134.9092" y2="-133.4971">
<stop offset="0" style="stop-color:#FFFFFF"/>
<stop offset="1" style="stop-color:#D1D7D9"/>
</linearGradient>
<path d="M27.088,7.788c-0.792,0-1.412-0.516-1.412-1.176V6.14c0-0.658,0.622-1.176,1.412-1.176h6.238  c0.79,0,1.408,0.518,1.408,1.176v0.47c0,0.66-0.621,1.176-1.408,1.176h-6.238V7.788z" style="fill:url(#SVGID_7_);"/>
<linearGradient gradientTransform="matrix(2 0 0 -2 -292 -262)" gradientUnits="userSpaceOnUse" id="SVGID_8_" x1="161.1035" x2="161.1035" y1="-133.6899" y2="-134.6008">
<stop offset="0" style="stop-color:#6C7375"/>
<stop offset="1" style="stop-color:#BDC2C4"/>
</linearGradient>
<path d="M34.034,6.612c0,0.26-0.318,0.47-0.708,0.47h-6.238c-0.39,0-0.708-0.21-0.708-0.47V6.14  c0-0.262,0.316-0.468,0.708-0.468h6.238c0.388,0,0.708,0.208,0.708,0.468V6.612z" style="fill:url(#SVGID_8_);"/>
<linearGradient gradientTransform="matrix(2 0 0 -2 -292 -262)" gradientUnits="userSpaceOnUse" id="SVGID_9_" x1="160.9453" x2="160.9453" y1="-152.5391" y2="-157.7801">
<stop offset="0" style="stop-color:#B6BBBD"/>
<stop offset="1" style="stop-color:#FFFFFF"/>
</linearGradient>
<path d="M27.344,53.626c-1.512,0-2.744-1.216-2.744-2.712  V45.76c0-1.494,1.232-2.71,2.744-2.71h5.094c1.515,0,2.744,1.216,2.744,2.71v5.154c0,1.496-1.229,2.712-2.744,2.712H27.344z" style="opacity:0.6;fill:url(#SVGID_9_);enable-background:new    ;"/>
<path d="M27.34,52.922c-1.122,0-2.032-0.902-2.032-2.008V45.76  c0-1.107,0.91-2.008,2.032-2.008h5.104c1.123,0,2.031,0.9,2.031,2.008v5.154c0,1.105-0.908,2.008-2.031,2.008H27.34z" style="opacity:0.5;fill:#020202;enable-background:new    ;"/>
<linearGradient gradientTransform="matrix(2 0 0 -2 -292 -262)" gradientUnits="userSpaceOnUse" id="SVGID_10_" x1="160.9453" x2="160.9453" y1="-153.2129" y2="-157.1145">
<stop offset="0" style="stop-color:#A6A8AB"/>
<stop offset="0.703" style="stop-color:#58595B"/>
<stop offset="1" style="stop-color:#808184"/>
</linearGradient>
<path d="M33.771,50.914c0,0.718-0.594,1.3-1.319,1.3h-5.12c-0.728,0-1.32-0.582-1.32-1.3V45.76  c0-0.716,0.592-1.298,1.32-1.298h5.12c0.726,0,1.319,0.582,1.319,1.298V50.914z" style="fill:url(#SVGID_10_);"/>
<path d="M28.836,50.805c-0.782,0-1.414-0.633-1.414-1.41v-2.119  c0-0.775,0.632-1.407,1.414-1.407h2.112c0.78,0,1.411,0.632,1.411,1.407v2.119c0,0.777-0.631,1.41-1.411,1.41H28.836z" style="opacity:0.2;fill:#020202;enable-background:new    ;"/>
<linearGradient gradientTransform="matrix(2 0 0 -2 -292 -262)" gradientUnits="userSpaceOnUse" id="SVGID_11_" x1="160.9453" x2="160.9453" y1="-154.2798" y2="-156.0522">
<stop offset="0" style="stop-color:#D1D7D9"/>
<stop offset="0.0667" style="stop-color:#D1D7D9"/>
<stop offset="0.2606" style="stop-color:#BDC2C4"/>
<stop offset="0.6606" style="stop-color:#949DA1"/>
<stop offset="0.9636" style="stop-color:#ADB3B5"/>
<stop offset="1" style="stop-color:#595C5E"/>
</linearGradient>
<path d="M28.836,50.098c-0.392,0-0.708-0.313-0.708-0.703v-2.119c0-0.385,0.314-0.703,0.708-0.703  h2.112c0.39,0,0.708,0.316,0.708,0.703v2.119c0,0.388-0.316,0.703-0.708,0.703H28.836z" style="fill:url(#SVGID_11_);"/>
<linearGradient gradientTransform="matrix(2 0 0 -2 -292 -262)" gradientUnits="userSpaceOnUse" id="SVGID_12_" x1="155.3301" x2="155.3301" y1="-152.8564" y2="-157.1148">
<stop offset="0" style="stop-color:#B6BBBD"/>
<stop offset="1" style="stop-color:#F0FBFF"/>
</linearGradient>
<path d="M18.256,52.214c-1.496,0-2.714-1.216-2.714-2.712  v-3.036c0-1.498,1.218-2.714,2.714-2.714h0.81c1.498,0,2.714,1.216,2.714,2.714v3.036c0,1.496-1.216,2.712-2.714,2.712H18.256z" style="opacity:0.4;fill:url(#SVGID_12_);enable-background:new    ;"/>
<linearGradient gradientTransform="matrix(2 0 0 -2 -292 -262)" gradientUnits="userSpaceOnUse" id="SVGID_13_" x1="155.3311" x2="155.3311" y1="-153.2139" y2="-156.7607">
<stop offset="0" style="stop-color:#231F20"/>
<stop offset="1" style="stop-color:#6D6E70"/>
</linearGradient>
<path d="M18.256,51.51c-1.106,0-2.008-0.9-2.008-2.008v-3.036  c0-1.11,0.902-2.006,2.008-2.006h0.81c1.11,0,2.01,0.896,2.01,2.006v3.036c0,1.107-0.9,2.008-2.01,2.008H18.256z" style="opacity:0.7;fill:url(#SVGID_13_);enable-background:new    ;"/>
<linearGradient gradientTransform="matrix(2 0 0 -2 -292 -262)" gradientUnits="userSpaceOnUse" id="SVGID_14_" x1="155.3301" x2="155.3301" y1="-153.5693" y2="-156.4081">
<stop offset="0" style="stop-color:#C6FF45"/>
<stop offset="0.7273" style="stop-color:#66A00E"/>
<stop offset="1" style="stop-color:#387300"/>
</linearGradient>
<path d="M20.37,49.502c0,0.721-0.582,1.303-1.302,1.303h-0.812c-0.718,0-1.302-0.582-1.302-1.303  v-3.036c0-0.72,0.584-1.302,1.302-1.302h0.81c0.72,0,1.302,0.582,1.302,1.302v3.036H20.37z" style="fill:url(#SVGID_14_);"/>
<linearGradient gradientTransform="matrix(2 0 0 -2 -292 -262)" gradientUnits="userSpaceOnUse" id="SVGID_15_" x1="166.3652" x2="166.3652" y1="-152.8564" y2="-157.1148">
<stop offset="0" style="stop-color:#B6BBBD"/>
<stop offset="1" style="stop-color:#F0FBFF"/>
</linearGradient>
<path d="M40.322,52.214c-1.494,0-2.711-1.216-2.711-2.712  v-3.036c0-1.498,1.217-2.714,2.711-2.714h0.812c1.5,0,2.714,1.216,2.714,2.714v3.036c0,1.496-1.214,2.712-2.714,2.712H40.322z" style="opacity:0.4;fill:url(#SVGID_15_);enable-background:new    ;"/>
<linearGradient gradientTransform="matrix(2 0 0 -2 -292 -262)" gradientUnits="userSpaceOnUse" id="SVGID_16_" x1="166.3643" x2="166.3643" y1="-153.2139" y2="-156.7607">
<stop offset="0" style="stop-color:#231F20"/>
<stop offset="1" style="stop-color:#6D6E70"/>
</linearGradient>
<path d="M40.322,51.51c-1.108,0-2.008-0.9-2.008-2.008v-3.036  c0-1.11,0.899-2.006,2.008-2.006h0.812c1.11,0,2.009,0.896,2.009,2.006v3.036c0,1.107-0.898,2.008-2.009,2.008H40.322z" style="opacity:0.7;fill:url(#SVGID_16_);enable-background:new    ;"/>
<linearGradient gradientTransform="matrix(2 0 0 -2 -292 -262)" gradientUnits="userSpaceOnUse" id="SVGID_17_" x1="166.3652" x2="166.3652" y1="-153.5693" y2="-156.4081">
<stop offset="0" style="stop-color:#FFC142"/>
<stop offset="0.7455" style="stop-color:#CF4E18"/>
<stop offset="1" style="stop-color:#B52100"/>
</linearGradient>
<path d="M42.438,49.502c0,0.721-0.582,1.303-1.301,1.303h-0.813c-0.717,0-1.301-0.582-1.301-1.303  v-3.036c0-0.72,0.584-1.302,1.301-1.302h0.813c0.719,0,1.301,0.582,1.301,1.302V49.502z" style="fill:url(#SVGID_17_);"/>
<rect height="60" style="fill:none;" width="60"/>
</g>
</svg>
