<?xml version="1.0" encoding="UTF-8"?>
<!DOCTYPE svg PUBLIC "-//W3C//DTD SVG 1.1 Tiny//EN" "http://www.w3.org/Graphics/SVG/1.1/DTD/svg11-tiny.dtd">
<svg baseProfile="tiny" height="30px" version="1.1" viewBox="0 0 30 30" width="30px" x="0px" xmlns="http://www.w3.org/2000/svg" xmlns:xlink="http://www.w3.org/1999/xlink" y="0px">
<polygon points="12,13 8.526,13 8.526,10 1,15.029 8.526,20 8.526,17 12,17 "/>
<polygon points="18,17 21.474,17 21.474,20 29,14.971 21.474,10 21.474,13 18,13 "/>
<polygon points="17,12 17,8.526 20,8.526 14.971,1 10,8.526 13,8.526 13,12 "/>
<polygon points="13,18 13,21.474 10,21.474 15.029,29 20,21.474 17,21.474 17,18 "/>
<g fill-opacity="0.5" stroke-opacity="0.5">
<rect fill="none" height="30" width="30"/>
</g>
</svg>
