<?xml version="1.0" ?>
<!DOCTYPE svg  PUBLIC '-//W3C//DTD SVG 1.1 Tiny//EN'  'http://www.w3.org/Graphics/SVG/1.1/DTD/svg11-tiny.dtd'>
<svg baseProfile="tiny" height="30px" version="1.1" viewBox="0 0 30 30" width="30px" x="0px" xmlns="http://www.w3.org/2000/svg" xmlns:xlink="http://www.w3.org/1999/xlink" y="0px">

<polygon points="9.647,24.81,9.653,24.81,8.141,22.38,5.279,22.38,9.481,29.1,11.52,27.82,10.82,26.68"/>

<polygon points="10.49,22.38,12.01,24.81,16.13,24.81,14.62,22.38"/>

<polygon points="16.97,22.38,18.48,24.81,22.63,24.81,21.12,22.38"/>

<polygon points="23.47,22.38,24.72,24.4,24.72,22.38"/>

<polygon points="23.47,22.38,24.72,24.4,24.72,22.38"/>

<polygon points="20.3,17.36,21.81,19.8,24.72,19.8,20.52,13.07,18.45,14.36,20.32,17.36"/>

<polygon points="19.46,19.8,17.95,17.36,13.86,17.36,15.37,19.8"/>

<polygon points="13.02,19.8,11.51,17.36,7.38,17.36,8.891,19.8"/>

<polygon points="5.279,17.76,5.279,19.8,6.541,19.8"/>

<polygon points="5.279,17.76,5.279,19.8,6.541,19.8"/>

<polygon points="20.33,3.264,20.33,0.895,9.633,0.895,9.633,11.51,20.33,11.51,20.33,9.141,11.93,9.141,11.93,7.354,18.34,7.354,18.34,5.051,11.93,5.051,11.93,3.264"/>

<polygon points="20.33,3.264,20.33,0.895,9.633,0.895,9.633,11.51,20.33,11.51,20.33,9.141,11.93,9.141,11.93,7.354,18.34,7.354,18.34,5.051,11.93,5.051,11.93,3.264"/>

<rect fill="none" height="30" width="30"/>

</svg>