<?xml version="1.0" encoding="UTF-8"?>
<!DOCTYPE svg PUBLIC "-//W3C//DTD SVG 1.1 Tiny//EN" "http://www.w3.org/Graphics/SVG/1.1/DTD/svg11-tiny.dtd">
<svg baseProfile="tiny" height="31px" version="1.1" viewBox="-0.874 -0.801 31 31" width="31px" x="0px" xmlns="http://www.w3.org/2000/svg" xmlns:xlink="http://www.w3.org/1999/xlink" y="0px">
<path d="M11.944,5.939c0.667-0.517,1.05-1.235,1.05-2.081c0-0.721-0.281-1.38-0.787-1.862c-0.559-0.527-1.358-0.805-2.314-0.805  c-1.162,0-2.173,0.427-2.684,0.793L6.9,2.206L7.6,4.068l0.526-0.375c0.331-0.234,0.928-0.507,1.529-0.507  c0.499,0,1.096,0.151,1.096,0.871c0,0.852-1.107,1.038-1.533,1.038H8.036v1.921h1.187c0.304,0,1.837,0.063,1.849,1.325  c0.004,0.155-0.023,0.541-0.32,0.844c-0.272,0.269-0.687,0.41-1.236,0.41c-0.745,0-1.456-0.308-1.755-0.489L7.236,8.791  l-0.675,1.882l0.332,0.215c0.486,0.322,1.475,0.698,2.637,0.698c2.618,0,3.812-1.671,3.812-3.227  C13.342,7.323,12.804,6.442,11.944,5.939z"/>
<path d="M19.334,5.539v1.978h1.899v1.939c-0.25,0.066-0.589,0.125-1.12,0.125c-1.967,0-3.137-1.235-3.137-3.305  c0-1.014,0.305-1.853,0.886-2.424c0.573-0.568,1.404-0.865,2.403-0.865c0.76,0,1.354,0.114,1.872,0.357l0.52,0.246l0.604-1.951  l-0.39-0.188c-0.456-0.224-1.412-0.483-2.578-0.483c-3.352,0-5.602,2.157-5.602,5.364c0,1.56,0.534,2.971,1.466,3.869  c0.977,0.932,2.24,1.385,3.87,1.385c1.537,0,2.75-0.421,3.086-0.55l0.32-0.123V5.539H19.334z"/>
<polygon points="24.721,22.27 24.721,24.704 20.316,24.704 20.32,24.704 14.344,24.704 16.376,22.27 "/>
<polygon points="5.278,22.266 10.58,22.266 8.523,24.704 5.278,24.704 "/>
<polygon points="24.721,17.253 24.721,19.688 18.529,19.688 20.566,17.253 "/>
<polygon points="5.278,19.683 5.278,17.253 14.805,17.253 12.752,19.688 "/>
<polygon points="21.424,14.529 21.499,14.591 21.447,14.65 10.381,27.84 9.382,29.032 7.518,27.465 8.937,25.769 19.63,13.027 "/>
<rect fill="none" height="30" width="30"/>
<rect fill="none" height="30" width="30"/>
</svg>
