<?xml version="1.0" encoding="utf-8"?>
<!-- Generator: Adobe Illustrator 14.0.0, SVG Export Plug-In  -->
<!DOCTYPE svg PUBLIC "-//W3C//DTD SVG 1.1//EN" "http://www.w3.org/Graphics/SVG/1.1/DTD/svg11.dtd" [
	<!ENTITY ns_flows "http://ns.adobe.com/Flows/1.0/">
]>
<svg version="1.1"
	 xmlns="http://www.w3.org/2000/svg" xmlns:xlink="http://www.w3.org/1999/xlink" xmlns:a="http://ns.adobe.com/AdobeSVGViewerExtensions/3.0/"
	 x="0px" y="0px" width="30px" height="30px" viewBox="0 0 30 30" enable-background="new 0 0 30 30" xml:space="preserve">
<defs>
</defs>
<g opacity="0.5">
	<rect fill="none" width="30" height="30"/>
</g>
<rect x="3.787" y="17.343" transform="matrix(-0.7071 -0.7071 0.7071 -0.7071 -4.2124 42.9407)" width="6.001" height="10"/>
<rect x="19.344" y="1.786" transform="matrix(0.7071 0.7071 -0.7071 0.7071 11.3431 -13.8113)" width="5.999" height="10"/>
<polygon points="20.176,16.025 20.93,15.271 13.858,8.201 12.539,8.39 "/>
<polygon points="23.004,18.854 24.465,17.394 21.251,17.102 "/>
<polygon points="17.101,21.248 17.394,24.464 18.855,23.002 "/>
<polygon points="8.39,12.537 8.201,13.857 15.272,20.929 16.027,20.174 "/>
<rect x="13.74" y="-3.242" transform="matrix(0.7063 -0.7079 0.7079 0.7063 -6.0767 14.6963)" width="1.868" height="35.827"/>
</svg>
