<?xml version="1.0" encoding="UTF-8"?>
<!DOCTYPE svg PUBLIC "-//W3C//DTD SVG 1.1 Tiny//EN" "http://www.w3.org/Graphics/SVG/1.1/DTD/svg11-tiny.dtd">
<svg baseProfile="tiny" height="30" viewBox="0 0 30 30" width="30" xmlns="http://www.w3.org/2000/svg" xmlns:xlink="http://www.w3.org/1999/xlink">
<rect fill="none" height="30" width="30"/>
<rect height="5.5" width="1.5" x="19.16" y="14.187"/>
<path d="M20,10.999c-4.971,0-9,4.03-9,9c0,4.971,4.029,9,9,9s9-4.029,9-9C29,15.029,24.971,10.999,20,10.999z M20,26.749 c-3.729,0-6.75-3.022-6.75-6.75c0-3.729,3.021-6.75,6.75-6.75s6.75,3.021,6.75,6.75C26.75,23.727,23.729,26.749,20,26.749z"/>
<path d="M10.66,10.096V7.187h-1.5v5.5h0.371C9.604,11.688,10.013,10.784,10.66,10.096z"/>
<path d="M5.189,3.677C4.769,3.41,4.278,3.249,3.744,3.249C2.228,3.249,1,4.479,1,5.993c0,0.424,0.098,0.823,0.27,1.182 C2.256,5.701,3.607,4.496,5.189,3.677z"/>
<path d="M8.543,2.612C9.021,2.546,9.504,2.499,10,2.499c0.436,0,0.867,0.036,1.297,0.091V2.375h1.377V1.687 c0-0.38-0.309-0.688-0.689-0.688h-4.13c-0.379,0-0.687,0.308-0.687,0.688v0.688h1.376V2.612z"/>
<path d="M16.256,3.249c-0.539,0-1.034,0.165-1.457,0.436c1.078,0.557,2.067,1.288,2.905,2.194l0.573,0.62h0.67 C18.979,6.335,19,6.167,19,5.993C19,4.479,17.771,3.249,16.256,3.249z"/>
<path d="M9.5,19.999c0-0.093,0.013-0.183,0.015-0.274c-3.501-0.25-6.265-3.162-6.265-6.726c0-3.729,3.022-6.75,6.75-6.75 c2.316,0,4.357,1.167,5.574,2.944c0.03,0.015,0.063,0.026,0.094,0.042V8.687c0-0.74,0.371-1.393,0.935-1.789 C14.959,5.119,12.613,3.999,10,3.999c-4.971,0-9,4.03-9,9c0,4.867,3.866,8.822,8.693,8.984C9.57,21.34,9.5,20.678,9.5,19.999z"/>
<path d="M15.189,10.677c-0.42-0.267-0.912-0.428-1.445-0.428c-1.516,0-2.744,1.229-2.744,2.744c0,0.424,0.098,0.823,0.27,1.182 C12.256,12.701,13.607,11.496,15.189,10.677z"/>
<path d="M18.543,9.612C19.021,9.546,19.504,9.499,20,9.499c0.439,0,0.871,0.036,1.297,0.089V9.375h1.377V8.687 c0-0.38-0.309-0.688-0.689-0.688h-4.131c-0.379,0-0.686,0.308-0.686,0.688v0.688h1.375V9.612z"/>
<path d="M28.729,14.174C28.902,13.816,29,13.417,29,12.993c0-1.515-1.229-2.744-2.744-2.744c-0.534,0-1.025,0.161-1.445,0.428 C26.393,11.496,27.744,12.701,28.729,14.174z"/>
</svg>
