<?xml version="1.0" ?>
<!DOCTYPE svg  PUBLIC '-//W3C//DTD SVG 1.1//EN'  'http://www.w3.org/Graphics/SVG/1.1/DTD/svg11.dtd'>
<svg height="60" viewBox="0 0 60 60" width="60" xmlns="http://www.w3.org/2000/svg" xmlns:xlink="http://www.w3.org/1999/xlink">
<g>
<defs>
</defs>
<rect fill="none" height="60" width="60"/>
<linearGradient gradientUnits="userSpaceOnUse" id="SVGID_1_" x1="30" x2="30" y1="9.8965" y2="49.8018">
	<stop offset="0" style="stop-color:#FEEFA7"/>
	<stop offset="0.5091" style="stop-color:#FFC501"/>
	<stop offset="1" style="stop-color:#F6A800"/>
</linearGradient>
<polygon fill="url(#SVGID_1_)" points="58,50.4 2,50.4 2,9.6 30.463,10.4 58,9.6 "/>
<linearGradient gradientUnits="userSpaceOnUse" id="SVGID_2_" x1="30" x2="30" y1="9.7017" y2="50.6398">
	<stop offset="0" style="stop-color:#F7AC00"/>
	<stop offset="0.3394" style="stop-color:#FFF8DB"/>
	<stop offset="1" style="stop-color:#FFE066"/>
</linearGradient>
<path d="M57.385,10.22v39.56H2.613V10.22H57.385 M58,9.6L29.802,9.936L2,9.6v40.8h56V9.6L58,9.6z" fill="url(#SVGID_2_)"/>
<polygon fill="#FBAB13" opacity="0.3" points="2,49.71 58,49.71 58,48.916 29.998,24.328 2,48.916 "/>
<polygon fill="#F18800" opacity="0.3" points="2,50.4 58,50.4 58,49.603 29.998,25.019 2,49.603 "/>
<linearGradient gradientTransform="matrix(-1 0 0 -1 -1801.0049 1240.3164)" gradientUnits="userSpaceOnUse" id="SVGID_3_" x1="-1831.0049" x2="-1831.0049" y1="1214.7607" y2="1190.0703">
	<stop offset="0" style="stop-color:#F98A00"/>
	<stop offset="0.7273" style="stop-color:#FCBC3C"/>
	<stop offset="1" style="stop-color:#FFE36A"/>
</linearGradient>
<polygon fill="url(#SVGID_3_)" points="58,50.38 29.998,25.689 2,50.38 "/>
<linearGradient gradientUnits="userSpaceOnUse" id="SVGID_4_" x1="30" x2="30" y1="25.4995" y2="51.0736">
	<stop offset="0" style="stop-color:#FFF1B5"/>
	<stop offset="1" style="stop-color:#FFE066"/>
</linearGradient>
<polygon fill="url(#SVGID_4_)" points="58,50.38 29.998,25.689 2,50.38 29.998,26.563 "/>
<polygon fill="#F18800" opacity="0.3" points="30.057,10.4 2,9.6 29.998,38.617 58,9.6 "/>
<polygon fill="#C26D00" opacity="0.4" points="30.006,10.4 2,9.6 29.998,37.091 58,9.6 "/>
<polygon fill="#AB6100" opacity="0.4" points="29.904,10.297 2,9.6 29.998,35.802 58,9.6 "/>
<linearGradient gradientUnits="userSpaceOnUse" id="SVGID_5_" x1="30" x2="30" y1="32.9619" y2="8.0088">
	<stop offset="0" style="stop-color:#FFDA33"/>
	<stop offset="0.25" style="stop-color:#FFE692"/>
	<stop offset="1" style="stop-color:#FFFBF8"/>
</linearGradient>
<polygon fill="url(#SVGID_5_)" points="2,9.6 29.998,34.29 58,9.6 "/>
<rect fill="none" height="60" width="60"/>
</g>
</svg>