<?xml version="1.0" encoding="UTF-8" standalone="no"?>
<!DOCTYPE svg PUBLIC "-//W3C//DTD SVG 1.1 Tiny//EN" "http://www.w3.org/Graphics/SVG/1.1/DTD/svg11-tiny.dtd">
<svg xmlns="http://www.w3.org/2000/svg" xmlns:xlink="http://www.w3.org/1999/xlink" baseProfile="tiny" height="30" viewBox="0 0 30 30" width="30">
<g>
<g fill-opacity="0.6" stroke-opacity="0.6">
<path d="M4,29c-1.65,0-3-1.35-3-3V4c0-1.65,1.35-3,3-3h22c1.65,0,3,1.35,3,3v22c0,1.65-1.35,3-3,3H4z"/>
</g>
<g>
<linearGradient gradientUnits="userSpaceOnUse" id="SVGID_1_" x1="14.9995" x2="14.9995" y1="2" y2="28.0005">
<stop offset="0" style="stop-color:#A8EEFF"/>
<stop offset="1" style="stop-color:#048CC6"/>
</linearGradient>
<path d="M28,26c0,1.1-0.9,2-2,2H4c-1.1,0-2-0.9-2-2V4c0-1.1,0.9-2,2-2h22c1.1,0,2,0.9,2,2V26z" fill="url(#SVGID_1_)"/>
</g>
<g>
<linearGradient gradientUnits="userSpaceOnUse" id="SVGID_2_" x1="14.9995" x2="14.9995" y1="3" y2="27.0005">
<stop offset="0" style="stop-color:#4EDEFF"/>
<stop offset="1" style="stop-color:#048CC6"/>
</linearGradient>
<path d="M4,27c-0.55,0-1-0.45-1-1V4c0-0.55,0.45-1,1-1h22c0.55,0,1,0.45,1,1v22c0,0.55-0.45,1-1,1H4z" fill="url(#SVGID_2_)"/>
</g>
<path d="M23.504,18.337c0-0.547-0.444-0.99-0.992-0.99h-2.104c-1.015-2.689-2.176-5.543-3.198-7.475  c0.488-0.4,0.801-1.008,0.801-1.69C18.01,6.978,17.033,6,15.827,6c-1.205,0-2.183,0.978-2.183,2.182c0,0.639,0.275,1.21,0.71,1.607  c-0.689,1.458-2.026,4.366-3.282,7.558h-0.947c-0.361-0.707-1.094-1.192-1.943-1.192C6.977,16.154,6,17.133,6,18.337  c0,1.205,0.977,2.183,2.183,2.183c0.849,0,1.582-0.483,1.943-1.192h0.195c-0.687,1.881-1.297,3.775-1.689,5.457  c-0.124,0.533,0.206,1.064,0.741,1.188c0.532,0.125,1.064-0.205,1.189-0.739c0.416-1.791,1.107-3.867,1.875-5.906h6.591  c1.181,3.216,2.072,5.934,2.09,5.99C21.255,25.734,21.642,26,22.06,26c0.103,0,0.206-0.015,0.308-0.049  c0.52-0.171,0.805-0.729,0.633-1.25c-0.068-0.214-0.826-2.52-1.862-5.374h1.374C23.06,19.327,23.504,18.885,23.504,18.337z   M13.211,17.347c0.947-2.35,1.911-4.504,2.569-5.923c0.802,1.619,1.689,3.783,2.507,5.923H13.211z" fill-opacity="0.2" stroke-opacity="0.2"/>
<path d="M23.752,17.337c0-0.547-0.444-0.99-0.992-0.99h-2.104c-1.015-2.689-2.176-5.543-3.198-7.475  c0.488-0.4,0.801-1.008,0.801-1.69C18.258,5.978,17.281,5,16.075,5c-1.205,0-2.183,0.978-2.183,2.182c0,0.639,0.275,1.21,0.71,1.607  c-0.689,1.458-2.026,4.366-3.282,7.558h-0.947c-0.361-0.707-1.094-1.192-1.943-1.192c-1.206,0-2.183,0.979-2.183,2.183  c0,1.205,0.977,2.183,2.183,2.183c0.849,0,1.582-0.483,1.943-1.192h0.195c-0.687,1.881-1.297,3.775-1.689,5.457  c-0.124,0.533,0.206,1.064,0.741,1.188c0.532,0.125,1.064-0.205,1.189-0.739c0.416-1.791,1.107-3.867,1.875-5.906h6.591  c1.181,3.216,2.072,5.934,2.09,5.99C21.503,24.734,21.89,25,22.308,25c0.103,0,0.206-0.015,0.308-0.049  c0.52-0.171,0.805-0.729,0.633-1.25c-0.068-0.214-0.826-2.52-1.862-5.374h1.374C23.308,18.327,23.752,17.885,23.752,17.337z   M13.459,16.347c0.947-2.35,1.911-4.504,2.569-5.923c0.802,1.619,1.689,3.783,2.507,5.923H13.459z" fill="#F5F5F5"/>
<rect fill="none" height="30" width="30"/>
</g>
</svg>
