<?xml version="1.0" encoding="utf-8"?>
<!-- Generator: Adobe Illustrator 14.0.0, SVG Export Plug-In  -->
<!DOCTYPE svg PUBLIC "-//W3C//DTD SVG 1.1//EN" "http://www.w3.org/Graphics/SVG/1.1/DTD/svg11.dtd" [
	<!ENTITY ns_flows "http://ns.adobe.com/Flows/1.0/">
]>
<svg version="1.1"
	 xmlns="http://www.w3.org/2000/svg" xmlns:xlink="http://www.w3.org/1999/xlink" xmlns:a="http://ns.adobe.com/AdobeSVGViewerExtensions/3.0/"
	 x="0px" y="0px" width="30px" height="30px" viewBox="0 0 30 30" enable-background="new 0 0 30 30" xml:space="preserve">
<defs>
</defs>
<g opacity="0.5">
	<rect fill="none" width="30" height="30"/>
</g>
<path d="M3.98,8.128C2.902,9.856,2.214,11.854,2.051,14h3c0.132-1.319,0.526-2.562,1.122-3.681L3.98,8.128z"/>
<path d="M15,5c5.514,0,10,4.486,10,10c0,1.691-0.426,3.283-1.169,4.681l2.19,2.19C27.268,19.876,28,17.526,28,15
	c0-7.18-5.82-13-13-13c-2.528,0-4.883,0.726-6.877,1.975l2.198,2.197C11.719,5.428,13.309,5,15,5z"/>
<path d="M15,25c-3.523,0-6.621-1.836-8.402-4.598L10,17H2v8l2.445-2.445C6.8,25.848,10.642,28,15,28c2.527,0,4.877-0.732,6.873-1.98
	l-2.189-2.189C18.285,24.574,16.691,25,15,25z"/>
<rect x="-3.24" y="13.738" transform="matrix(-0.7071 -0.7071 0.7071 -0.7071 14.6748 35.4224)" width="35.827" height="1.868"/>
</svg>
