<?xml version="1.0" encoding="UTF-8"?>
<!DOCTYPE svg PUBLIC "-//W3C//DTD SVG 1.1 Tiny//EN" "http://www.w3.org/Graphics/SVG/1.1/DTD/svg11-tiny.dtd">
<svg baseProfile="tiny" height="16px" version="1.1" viewBox="0 0 16 16" width="16px" x="0px" xmlns="http://www.w3.org/2000/svg" xmlns:xlink="http://www.w3.org/1999/xlink" y="0px">
<path d="M6.974,13.209C4.568,12.725,2.75,10.575,2.75,8c0-2.574,1.82-4.723,4.224-5.209V1C3.596,1.504,1,4.441,1,8  c0,3.559,2.596,6.497,5.974,7V13.209z"/>
<path d="M9.025,1v1.792C11.432,3.277,13.25,5.426,13.25,8c0,2.574-1.818,4.725-4.225,5.209V15C12.402,14.497,15,11.559,15,8  C15,4.441,12.402,1.504,9.025,1z"/>
<rect fill="none" height="16" width="16"/>
</svg>
