<?xml version="1.0" encoding="UTF-8"?>
<!DOCTYPE svg PUBLIC "-//W3C//DTD SVG 1.1 Tiny//EN" "http://www.w3.org/Graphics/SVG/1.1/DTD/svg11-tiny.dtd">
<svg baseProfile="tiny" height="30px" style="enable-background:new 0 0 30 30;" version="1.1" viewBox="0 0 30 30" width="30px" x="0px" xmlns="http://www.w3.org/2000/svg" xmlns:xlink="http://www.w3.org/1999/xlink" y="0px">
<rect height="30" style="fill:none;" width="30"/>
<path d="M18.227,21.399l-2.349-9.384c1.031-0.366,1.775-1.323,1.775-2.477c0-1.469-1.188-2.656-2.655-2.656  s-2.655,1.186-2.655,2.656c0,1.153,0.741,2.107,1.769,2.477l-2.345,9.384H8.355v2.654H21.63v-2.654H18.227z"/>
<path d="M6,9.54c0,2.967,1.627,5.158,1.676,5.232c0.267-0.181,0.721-0.494,0.99-0.674c-0.052-0.071-1.474-2.087-1.474-4.558  c0-2.675,1.422-4.486,1.474-4.561C8.397,4.795,7.945,4.482,7.681,4.301C7.629,4.375,6,6.66,6,9.54z"/>
<path d="M9.169,9.54c0,1.972,1.073,3.372,1.125,3.443c0.269-0.18,0.721-0.494,0.99-0.675c-0.057-0.077-0.921-1.374-0.921-2.769  c0-1.553,0.864-2.698,0.919-2.771c-0.267-0.18-0.724-0.491-0.988-0.68C10.243,6.171,9.169,7.528,9.169,9.54z"/>
<path d="M24,9.535c0-2.969-1.629-5.159-1.682-5.234c-0.264,0.181-0.72,0.494-0.983,0.674c0.047,0.071,1.472,2.088,1.472,4.56  c0,2.673-1.425,4.484-1.472,4.558c0.264,0.185,0.72,0.498,0.983,0.679C22.365,14.702,24,12.415,24,9.535z"/>
<path d="M20.826,9.535c0-1.974-1.072-3.373-1.125-3.445c-0.264,0.18-0.721,0.494-0.99,0.675c0.057,0.08,0.923,1.378,0.923,2.77  c0,1.553-0.866,2.697-0.921,2.769c0.268,0.18,0.718,0.493,0.986,0.679C19.752,12.905,20.826,11.544,20.826,9.535z"/>
</svg>
