<?xml version="1.0" encoding="UTF-8"?>
<!DOCTYPE svg PUBLIC "-//W3C//DTD SVG 1.1 Tiny//EN" "http://www.w3.org/Graphics/SVG/1.1/DTD/svg11-tiny.dtd">
<svg baseProfile="tiny" height="16px" version="1.1" viewBox="0 0 16 16" width="16px" x="0px" xmlns="http://www.w3.org/2000/svg" xmlns:xlink="http://www.w3.org/1999/xlink" y="0px">
<rect fill="none" height="16" width="16"/>
<linearGradient gradientUnits="userSpaceOnUse" id="SVGID_1_" x1="7.9995" x2="7.9995" y1="0" y2="16.0718">
<stop offset="0" style="stop-color:#B4B4BE"/>
<stop offset="1" style="stop-color:#E6E6F0"/>
</linearGradient>
<circle cx="8" cy="8" fill="url(#SVGID_1_)" r="8"/>
<linearGradient gradientUnits="userSpaceOnUse" id="SVGID_2_" x1="7.9995" x2="7.9995" y1="0" y2="16.0005">
<stop offset="0" style="stop-color:#A0A0AA"/>
<stop offset="1" style="stop-color:#E6E6F0"/>
</linearGradient>
<path d="M8,0C3.582,0,0,3.582,0,8c0,4.418,3.582,8,8,8c4.418,0,8-3.582,8-8C16,3.582,12.418,0,8,0z M8,15  c-3.86,0-7-3.141-7-7c0-3.86,3.14-7,7-7c3.859,0,7,3.14,7,7C15,11.859,11.859,15,8,15z" fill="url(#SVGID_2_)"/>
<linearGradient gradientUnits="userSpaceOnUse" id="SVGID_3_" x1="7.9995" x2="7.9995" y1="3" y2="12.8575">
<stop offset="0" style="stop-color:#66B8CC"/>
<stop offset="1" style="stop-color:#3F89A9"/>
</linearGradient>
<circle cx="8" cy="8" fill="url(#SVGID_3_)" r="5"/>
<path d="M8,3C5.238,3,3,5.239,3,8c0,2.762,2.238,5,5,5s5-2.238,5-5C13,5.239,10.762,3,8,3z M8,12  c-2.206,0-4-1.795-4-4c0-2.206,1.794-4,4-4c2.205,0,4,1.794,4,4C12,10.205,10.205,12,8,12z" fill-opacity="0.2" stroke-opacity="0.2"/>
</svg>
