<?xml version="1.0" encoding="UTF-8"?>
<!DOCTYPE svg PUBLIC "-//W3C//DTD SVG 1.1 Tiny//EN" "http://www.w3.org/Graphics/SVG/1.1/DTD/svg11-tiny.dtd">
<svg baseProfile="tiny" height="30px" version="1.1" viewBox="0 0 30 30" width="30px" x="0px" xmlns="http://www.w3.org/2000/svg" xmlns:xlink="http://www.w3.org/1999/xlink" y="0px">
<rect fill="none" height="30" width="30"/>
<rect height="3" width="4" x="5" y="5"/>
<rect height="3" width="4" x="5" y="10"/>
<rect height="3" width="4" x="5" y="15"/>
<path d="M15,23.5c0-3.244,1.828-6.067,4.508-7.5H18v-2h6v1.025c1.064,0.063,2.076,0.317,3,0.737V11H17V0H0v26h15.377  C15.133,25.209,15,24.37,15,23.5z M14,5h-3v3h3v2h-3v3h3v2h-3v3h3v5H3V3h11V5z"/>
<path d="M23.5,17c-3.59,0-6.5,2.91-6.5,6.5s2.91,6.5,6.5,6.5s6.5-2.91,6.5-6.5S27.09,17,23.5,17z M28,25h-3v3h-3v-3h-3v-3h3v-3h3v3  h3V25z"/>
</svg>
