<?xml version="1.0" encoding="UTF-8"?>
<!DOCTYPE svg PUBLIC "-//W3C//DTD SVG 1.1 Tiny//EN" "http://www.w3.org/Graphics/SVG/1.1/DTD/svg11-tiny.dtd">
<svg baseProfile="tiny" height="52px" version="1.1" viewBox="0 0 52 52" width="52px" x="0px" xmlns="http://www.w3.org/2000/svg" xmlns:xlink="http://www.w3.org/1999/xlink" y="0px">
<rect fill="none" height="52" width="52"/>
<path d="M49.078,18.5c-0.01-0.029-0.02-0.063-0.029-0.091l-5.432,1.765c0.01,0.029,0.021,0.063,0.029,0.092  c3.164,9.732-2.184,20.221-11.912,23.383C22,46.811,11.514,41.466,8.352,31.732C5.229,22.123,10.4,11.773,19.904,8.471l-1.766-5.433  C5.641,7.313-1.176,20.893,2.918,33.498c4.137,12.725,17.854,19.717,30.58,15.582S53.213,31.225,49.078,18.5z" fill="url(#SVGID_1_)"/>
<defs>
<linearGradient gradientTransform="matrix(0.309 0.9511 -0.9511 0.309 13.5896 -602.8)" gradientUnits="userSpaceOnUse" id="SVGID_1_" x1="603.6143" x2="597.6299" y1="192.0293" y2="159.8088">
<stop offset="0" style="stop-color:#3B86BF"/>
<stop offset="1" style="stop-color:#0069B1;stop-opacity:0.25"/>
</linearGradient>
</defs>
</svg>
