<?xml version="1.0" encoding="UTF-8"?>
<!DOCTYPE svg PUBLIC "-//W3C//DTD SVG 1.1 Tiny//EN" "http://www.w3.org/Graphics/SVG/1.1/DTD/svg11-tiny.dtd">
<svg baseProfile="tiny" height="30" viewBox="0 0 30 30" width="30" xmlns="http://www.w3.org/2000/svg" xmlns:xlink="http://www.w3.org/1999/xlink">
<g>
<rect fill-opacity="0.6" height="30" stroke-opacity="0.6" width="30"/>
<linearGradient gradientUnits="userSpaceOnUse" id="SVGID_1_" x1="14.9995" x2="14.9995" y1="1.2188" y2="29.4379">
<stop offset="0" style="stop-color:#4EDEFF"/>
<stop offset="1" style="stop-color:#16A0D4"/>
</linearGradient>
<rect fill="url(#SVGID_1_)" height="28" width="28" x="1" y="1"/>
<linearGradient gradientUnits="userSpaceOnUse" id="SVGID_2_" x1="14.9995" x2="14.9995" y1="3.1875" y2="27.3754">
<stop offset="0" style="stop-color:#E0E1E2"/>
<stop offset="1" style="stop-color:#FFFFFF"/>
</linearGradient>
<rect fill="url(#SVGID_2_)" height="24" width="24" x="3" y="3"/>
<path d="M3,3v24h2V7c0-0.55,0.45-1,1-1h18c0.55,0,1,0.45,1,1v20h2V3H3z" fill-opacity="0.05" stroke-opacity="0.05"/>
<path d="M3,3v24h1V6c0-0.55,0.45-1,1-1h20c0.55,0,1,0.45,1,1v21h1V3H3z" fill-opacity="0.1" stroke-opacity="0.1"/>
<rect fill-opacity="0.1" height="1" stroke-opacity="0.1" width="24" x="3" y="3"/>
<polygon fill-opacity="0.6" points="11.887,22.979 4.213,15.31 8.303,11.22 12.545,15.462 21.695,6.31 25.787,10.399 12.494,23.69 " stroke-opacity="0.6"/>
<linearGradient gradientUnits="userSpaceOnUse" id="SVGID_3_" x1="14.9985" x2="14.9985" y1="6.9722" y2="23.6437">
<stop offset="0" style="stop-color:#A0F800"/>
<stop offset="1" style="stop-color:#319E00"/>
</linearGradient>
<polygon fill="url(#SVGID_3_)" points="24.371,10.399 21.695,7.724 12.545,16.876 8.303,12.634 5.627,15.31 12.539,22.22   12.545,22.212 12.551,22.22 "/>
<polygon fill="#FFFFFF" fill-opacity="0.4" points="8.303,13.634 12.545,17.876 21.695,8.724 23.871,10.899 24.371,10.399 21.695,7.724   12.545,16.876 8.303,12.634 5.627,15.31 6.127,15.81 " stroke-opacity="0.4"/>
</g>
</svg>
