<?xml version="1.0" encoding="UTF-8" standalone="no"?>
<!DOCTYPE svg PUBLIC "-//W3C//DTD SVG 1.1 Tiny//EN" "http://www.w3.org/Graphics/SVG/1.1/DTD/svg11-tiny.dtd">
<svg xmlns="http://www.w3.org/2000/svg" xmlns:xlink="http://www.w3.org/1999/xlink" baseProfile="tiny" height="30px" version="1.1" viewBox="0 0 30 30" width="30px" x="0px" y="0px">
<g fill-opacity="0.5" stroke-opacity="0.5">
<rect fill="none" height="30" width="30"/>
</g>
<path d="M24.155,15.925c-0.009-0.146,0-0.75,0.003-0.896c0.947-0.685,1.361-1.57,1.861-2.618c0.926-1.938,0.587-6.022,0.587-6.022  C26.606,4.367,24.183,2,22.269,2h-1.214c-1.252,0-2.888,1.014-3.872,2.279c2.331,0.78,4.674,3.089,4.756,5.625  c0.119,1.085,0.433,4.913-0.639,7.016c-0.443,0.869-0.993,1.603-1.683,2.243c0.58,0.635,2.017,1.678,4.27,3.099  c1.084,0.683,1.412,0.889,1.708,1.28l0.304,0.402C25.965,24.031,26,24.137,26,24.246V26h4v-5.72  C30,20.28,24.273,17.909,24.155,15.925z"/>
<path d="M17.916,20.221L15,26.816l-2.915-6.596C10.631,22.049,6.253,24.413,6,24.746V30h18v-5.25  C23.747,24.416,19.369,22.05,17.916,20.221z"/>
<path d="M19.518,16.012c0.908-1.782,0.423-5.978,0.423-5.978c0-1.439-1.482-3.064-3.023-3.727C16.966,6.699,17,7.096,17,7.5  c0,4.112-2.632,7.612-6.295,8.932c0.45,0.768,1.045,1.379,1.852,1.908c0.003,0.128,0.01,0.794,0.002,0.921  c-0.006,0.087-0.036,0.179-0.068,0.271h5.021c-0.031-0.093-0.062-0.185-0.067-0.271c-0.009-0.135-0.001-0.784,0.001-0.921  C18.375,17.712,19.027,16.975,19.518,16.012z"/>
<path d="M10.372,19.177c-0.711-0.645-1.262-1.385-1.685-2.259C8.298,16.967,7.903,17,7.5,17c-0.691,0-1.365-0.079-2.015-0.22  C4.217,18.53,0,20.276,0,20.276V26h4v-1.759c0-0.109,0.036-0.216,0.103-0.303l0.306-0.401c0.297-0.394,0.623-0.599,1.703-1.277  C8.348,20.852,9.781,19.814,10.372,19.177z"/>
<path d="M7.5,15c4.136,0,7.5-3.364,7.5-7.5S11.636,0,7.5,0S0,3.364,0,7.5S3.364,15,7.5,15z M13,7.5c0,2.857-2.191,5.212-4.982,5.474  L12,7H8.973C8.788,4.948,7.568,3.19,5.838,2.258C6.363,2.091,6.921,2,7.5,2C10.533,2,13,4.468,13,7.5z M3.621,3.604  C5.353,3.878,6.706,5.257,6.945,7H4l3.983,5.976C7.824,12.989,7.663,13,7.5,13C4.467,13,2,10.532,2,7.5  C2,5.979,2.62,4.602,3.621,3.604z"/>
</svg>
