<?xml version="1.0" encoding="UTF-8"?>
<!DOCTYPE svg PUBLIC "-//W3C//DTD SVG 1.1 Tiny//EN" "http://www.w3.org/Graphics/SVG/1.1/DTD/svg11-tiny.dtd">
<svg baseProfile="tiny" height="30px" version="1.1" viewBox="0 0 30 30" width="30px" x="0px" xmlns="http://www.w3.org/2000/svg" xmlns:xlink="http://www.w3.org/1999/xlink" y="0px">
<g fill-opacity="0.5" stroke-opacity="0.5">
<rect fill="none" height="30" width="30"/>
</g>
<path d="M27,16h2c0.366,0,0.705,0.105,1,0.277v-13.28h-24v3h21v10z"/>
<path d="M15.33,23h-10.92l5.115-5.115,3.471,3.48,1.189-1.189c0.137-0.298,0.342-0.563,0.61-0.766l0.621-0.466,1.05-1.05,0.15,0.15,0.808-0.606-0.251-0.251,4.82-4.81v1.64l0.8-0.6c0.606-0.455,1.417-0.528,2.095-0.189,0.039,0.02,0.068,0.051,0.105,0.072v-5.28h-24v18h18.33l-4-3zm5.2-12l-7.53,7.53-7.527-7.53h15.05zm-16.53,1.36l4.822,4.822-4.822,4.82v-9.645z"/>
<polygon points="29,18,24,18,24,15,16,21,24,27,24,24,29,24"/>
</svg>
