<?xml version="1.0" encoding="utf-8"?>
<!-- Generator: Adobe Illustrator 14.0.0, SVG Export Plug-In  -->
<!DOCTYPE svg PUBLIC "-//W3C//DTD SVG 1.1//EN" "http://www.w3.org/Graphics/SVG/1.1/DTD/svg11.dtd" [
	<!ENTITY ns_flows "http://ns.adobe.com/Flows/1.0/">
]>
<svg version="1.1"
	 xmlns="http://www.w3.org/2000/svg" xmlns:xlink="http://www.w3.org/1999/xlink" xmlns:a="http://ns.adobe.com/AdobeSVGViewerExtensions/3.0/"
	 x="0px" y="0px" width="30px" height="30px" viewBox="0 0 30 30" enable-background="new 0 0 30 30" xml:space="preserve">
<defs>
</defs>
<g opacity="0.5">
	<rect fill="none" width="30" height="30"/>
</g>
<path d="M13.52,17.666C13.2,18.021,13,18.485,13,19c0,0.738,0.404,1.376,1,1.723V22c0,0.553,0.447,1,1,1s1-0.447,1-1v-1.277
	c0.119-0.069,0.225-0.158,0.326-0.249L13.52,17.666z"/>
<polygon points="20.854,25 7,25 7,15 10.853,15 7,11.147 7,12 4,12 4,28 23.854,28 "/>
<path d="M11.413,7.264C12.062,5.93,13.419,5,15,5c2.206,0,4,1.794,4,4v3h-2.851l3,3H23v3.851l3,2.999V12h-3V9c0-4.4-3.6-8-8-8
	c-2.67,0-5.04,1.33-6.495,3.356L11.413,7.264z"/>
<rect x="13.74" y="-3.242" transform="matrix(0.7063 -0.7079 0.7079 0.7063 -6.0767 14.6963)" width="1.868" height="35.827"/>
</svg>
