<?xml version="1.0" encoding="UTF-8"?>
<!DOCTYPE svg PUBLIC "-//W3C//DTD SVG 1.1 Tiny//EN" "http://www.w3.org/Graphics/SVG/1.1/DTD/svg11-tiny.dtd">
<svg baseProfile="tiny" height="15px" version="1.1" viewBox="2.5 2.5 15 15" width="15px" x="0px" xmlns="http://www.w3.org/2000/svg" xmlns:xlink="http://www.w3.org/1999/xlink" y="0px">
<g>
<path d="M8.501,3.999C5.191,3.999,2.5,6.692,2.5,10s2.691,6,6.001,6H17.5   V3.999H8.501z" fill-opacity="0.1" fill-rule="evenodd" stroke-opacity="0.1"/>
<path d="M8.501,4.75c-2.9,0-5.249,2.351-5.249,5.25   c0,2.9,2.349,5.249,5.249,5.249H17.5V4.75H8.501z" fill="url(#SVGID_1_)" fill-rule="evenodd"/>
<path d="M8.501,14.501C6.019,14.501,4,12.48,4,10c0-2.481,2.02-4.501,4.501-4.501H17.5V4.75H8.501   c-2.9,0-5.249,2.351-5.249,5.25c0,2.9,2.349,5.249,5.249,5.249H17.5v-0.748H8.501z" fill-opacity="0.2" stroke-opacity="0.2"/>
<rect fill="none" fill-rule="evenodd" height="15" width="15" x="2.5" y="2.5"/>
<path d="M8.501,13.75c-2.068,0-3.75-1.682-3.75-3.75   s1.682-3.75,3.75-3.75H17.5V5.499H8.501C6.019,5.499,4,7.519,4,10c0,2.48,2.02,4.501,4.501,4.501H17.5V13.75H8.501z" fill="#FFFFFF" fill-opacity="0.2" fill-rule="evenodd" stroke-opacity="0.2"/>
<rect fill="#FFFFFF" fill-opacity="0.2" fill-rule="evenodd" height="4.501" stroke-opacity="0.2" width="0.748" x="10.752" y="7.749"/>
<rect fill-opacity="0.1" fill-rule="evenodd" height="4.501" stroke-opacity="0.1" width="0.751" x="11.5" y="7.749"/>
<defs>
<linearGradient gradientTransform="matrix(-4.489659e-011 1 -1 -4.489659e-011 100.1565 279.4075)" gradientUnits="userSpaceOnUse" id="SVGID_1_" x1="-274.6575" x2="-264.1584" y1="89.7803" y2="89.7803">
<stop offset="0" style="stop-color:#306D8C"/>
<stop offset="1" style="stop-color:#65B8CC"/>
</linearGradient>
</defs>
</g>
</svg>
