<?xml version="1.0" encoding="UTF-8"?>
<!DOCTYPE svg PUBLIC "-//W3C//DTD SVG 1.1 Tiny//EN" "http://www.w3.org/Graphics/SVG/1.1/DTD/svg11-tiny.dtd">
<svg baseProfile="tiny" height="30px" style="enable-background:new 0 0 30 30;" version="1.1" viewBox="0 0 30 30" width="30px" x="0px" xmlns="http://www.w3.org/2000/svg" xmlns:xlink="http://www.w3.org/1999/xlink" y="0px">
<path d="M12.4,6.522c0.646-0.5,1.016-1.195,1.016-2.014,0-0.698-0.272-1.335-0.761-1.802-0.541-0.51-1.314-0.779-2.239-0.779-1.125,0-2.103,0.413-2.598,0.768l-0.299,0.215,0.677,1.802,0.509-0.363c0.32-0.227,0.898-0.491,1.479-0.491,0.483,0,1.061,0.146,1.061,0.843,0,0.824-1.071,1.004-1.483,1.004h-1.145v1.859h1.149c0.294,0,1.777,0.061,1.789,1.282,0.004,0.15-0.022,0.523-0.31,0.817-0.263,0.26-0.665,0.397-1.196,0.397-0.721,0-1.409-0.298-1.698-0.474l-0.504-0.304-0.653,1.821,0.321,0.208c0.47,0.312,1.427,0.675,2.552,0.675,2.534,0,3.689-1.617,3.689-3.123,0-0.995-0.52-1.848-1.36-2.335z"/>
<path d="M19.56,6.135v1.914h1.838v1.876c-0.242,0.064-0.569,0.121-1.084,0.121-1.902,0-3.035-1.195-3.035-3.198,0-0.981,0.295-1.793,0.857-2.346,0.555-0.55,1.358-0.837,2.325-0.837,0.735,0,1.311,0.11,1.812,0.346l0.504,0.238,0.584-1.888-0.377-0.182c-0.441-0.217-1.367-0.467-2.495-0.467-3.243,0-5.421,2.087-5.421,5.191,0,1.509,0.517,2.875,1.418,3.744,0.945,0.902,2.168,1.34,3.746,1.34,1.486,0,2.66-0.407,2.986-0.532l0.309-0.119v-5.205h-3.975z"/>
<polygon points="24.77,22.33,24.77,24.68,20.51,24.68,20.51,24.68,14.73,24.68,16.69,22.33"/>
<polygon points="5.953,22.32,11.08,22.32,9.094,24.68,5.953,24.68"/>
<polygon points="24.77,17.47,24.77,19.83,18.78,19.83,20.75,17.47"/>
<polygon points="5.953,19.82,5.953,17.47,15.17,17.47,13.19,19.83"/>
<polygon points="21.58,14.84,21.65,14.9,21.6,14.95,10.89,27.72,9.925,28.87,8.121,27.35,9.494,25.71,19.84,13.38"/>
<rect fill="none" height="29.03" width="29.03" x="0.846" y="0.775"/>
<rect fill="none" height="29.03" width="29.03" x="0.846" y="0.775"/>
</svg>
