<?xml version="1.0" encoding="UTF-8"?>
<!DOCTYPE svg PUBLIC "-//W3C//DTD SVG 1.1 Tiny//EN" "http://www.w3.org/Graphics/SVG/1.1/DTD/svg11-tiny.dtd">
<svg baseProfile="tiny" height="30px" version="1.1" viewBox="0 0 30 30" width="30px" x="0px" xmlns="http://www.w3.org/2000/svg" xmlns:xlink="http://www.w3.org/1999/xlink" y="0px">
<rect fill="none" height="30" width="30"/>
<path d="M17.592,10.22c-0.906,0.64-2.466,1.541-3.142,1.541h-0.002c-0.154-0.018-0.383-0.167-0.623-0.324  c-0.479-0.314-1.133-0.742-2.09-0.749c-0.551,0-1.32,0.422-1.975,0.859L12.7,19.16c0.387-0.801,0.93-1.753,1.432-2.108  c0.176-0.124,0.664-0.371,1.057-0.568c0.396-0.2,0.738-0.373,0.942-0.502c1.664-1.067,2.27-4.806,2.332-5.228l0.193-1.287  L17.592,10.22z"/>
<polygon points="8.333,10.933 5.513,12.019 6.257,13.946 6.704,13.774 10.7,24.132 12.589,25.467 13.077,23.221 "/>
<polygon points="5.999,1 5.999,4 26,4 26,24 29,24 29,1 "/>
<path d="M1,29h23V6H1V29z M4,9h17v17H4V9z"/>
</svg>
