<?xml version="1.0" ?>
<!DOCTYPE svg  PUBLIC '-//W3C//DTD SVG 1.1//EN'  'http://www.w3.org/Graphics/SVG/1.1/DTD/svg11.dtd'>
<svg height="30" viewBox="0 0 30 30" width="30" xmlns="http://www.w3.org/2000/svg" xmlns:xlink="http://www.w3.org/1999/xlink">
<g>
<defs>
</defs>
<rect fill="none" height="30" width="30"/>
<polygon enable-background="new    " opacity="0.6" points="3,29 3,1 27,1 27,22.414 20.414,29 "/>
<linearGradient gradientTransform="matrix(1 0 0 -1 102.52 8.9805)" gradientUnits="userSpaceOnUse" id="SVGID_1_" x1="-87.52" x2="-87.52" y1="6.9805" y2="-19.0195">
	<stop offset="0" style="stop-color:#F9F9F9"/>
	<stop offset="1" style="stop-color:#B5B5B5"/>
</linearGradient>
<polygon fill="url(#SVGID_1_)" points="4,2 4,28 20,28 26,22 26,2 "/>
<polygon fill="#FFFFFF" points="26,22 20,22 20,28 "/>
<circle cx="15" cy="14" enable-background="new    " opacity="0.2" r="8"/>
<radialGradient cx="-32.2568" cy="-444.0615" gradientTransform="matrix(0.3502 0 0 -0.3502 26.2965 -145.2794)" gradientUnits="userSpaceOnUse" id="SVGID_2_" r="30.0961">
	<stop offset="0" style="stop-color:#94FFFF"/>
	<stop offset="0.5" style="stop-color:#36B5FF"/>
	<stop offset="1" style="stop-color:#1B66D8"/>
</radialGradient>
<circle cx="15" cy="13" fill="url(#SVGID_2_)" r="8"/>
<path d="M22.715,12.562c-0.178-3.125-2.201-5.814-5.156-6.855l-0.361,0.059l-2.089-0.399  L12.5,6.919l-0.098,0.654H10.89l0.598,1.018l-1.619,1.32l-0.377,1.63l1.336,2.37l1.365-0.279l0.498,0.429l0.39,0.038l0.257,1.004  l-0.339,0.882l1.239,3.169h1.264l1.252-1.012v-0.414l0.331-0.512l0.272-0.142c-0.068,0.104-0.178,0.351-0.178,0.351  c-0.013,0.082,0.178,1.694,0.733,1.567c0.422-0.097,1.929-2.896,1.957-3.16c0.058-0.526-0.229-0.745-0.405-0.827l-0.195-0.093  l-0.899,0.904c-0.097,0.006-0.183,0.022-0.263,0.047v-0.749l0.979-0.954l0.496-1.604l0.758-0.615l-0.166-0.303l0.572-0.551  l-0.318-0.582l0.242,0.03l1.424,3.187l0.291-0.233c-0.01-0.156-0.025-0.31-0.044-0.464L22.715,12.562z M15.096,8.978l-0.119-0.316  h0.714l0.349,0.781h-0.517V8.978H15.096z M17.453,10.554l0.57,0.832l0.039,0.1l-0.584-0.354l-0.142-0.504L17.453,10.554z   M18.313,12.008l0.172,0.173l-0.223,0.049l-0.051-0.061L18.313,12.008z M13.848,6.408l0.363,0.562l-0.413,0.126l-0.161-0.092  L13.848,6.408z" enable-background="new    " opacity="0.3"/>
<linearGradient gradientTransform="matrix(1 0 0 -1 102.52 8.9805)" gradientUnits="userSpaceOnUse" id="SVGID_3_" x1="-87.52" x2="-87.52" y1="3.9404" y2="-12.1023">
	<stop offset="0" style="stop-color:#31A7F8"/>
	<stop offset="0.497" style="stop-color:#1E74DC"/>
	<stop offset="1" style="stop-color:#C8E4EB"/>
</linearGradient>
<path d="M15,5c-4.418,0-8,3.583-8,8c0,4.42,3.582,8,8,8  c4.42,0,8-3.58,8-8C23,8.583,19.42,5,15,5z M15,20.385c-4.072,0-7.385-3.313-7.385-7.385c0-4.072,3.313-7.384,7.385-7.384  c4.072,0,7.385,3.313,7.385,7.385C22.385,17.073,19.072,20.385,15,20.385z" enable-background="new    " fill="url(#SVGID_3_)" opacity="0.3"/>
<radialGradient cx="-87.0591" cy="1.8228" gradientTransform="matrix(1 0 0 -1 102.52 8.9805)" gradientUnits="userSpaceOnUse" id="SVGID_4_" r="9.4861">
	<stop offset="0.3152" style="stop-color:#94FF26"/>
	<stop offset="0.7273" style="stop-color:#1FC211"/>
	<stop offset="1" style="stop-color:#0BA133"/>
</radialGradient>
<path d="M19.335,15.286l-0.833,0.833c0,0-0.503,0-0.525,0.199c-0.012,0.086-0.039,0.457-0.125,0.65  c-0.168,0.114-0.367,0.5-0.367,0.5s-0.104,0.742,0.453,0.614C18.488,17.959,20.189,15.688,19.335,15.286z" fill="url(#SVGID_4_)"/>
<radialGradient cx="-87.0596" cy="1.8252" gradientTransform="matrix(1 0 0 -1 102.52 8.9805)" gradientUnits="userSpaceOnUse" id="SVGID_5_" r="10.9749">
	<stop offset="0.3152" style="stop-color:#94FF26"/>
	<stop offset="0.7273" style="stop-color:#1FC211"/>
	<stop offset="1" style="stop-color:#0BA133"/>
</radialGradient>
<path d="M17.455,5.997c-0.137,0.051-0.229,0.087-0.229,0.087l-2.059-0.395l-1.01,0.632l0.531,0.821  l-0.928,0.286l-0.5-0.286l0.176-0.499l-0.652,0.452l-0.117,0.786h-1.239l0.458,0.78l-1.742,1.421l-0.328,1.417l0.646,1.252  l0.389,0.248l1.365-0.279l0.498,0.429l0.453,0.045l0.492,1.929l-0.328,0.852l0.725,1.604l0.205,0.664h1.263l0.713-0.385l0.539-0.625  v-0.758l1.023-0.521v-1.121l0.404-0.771l0.902-0.813l0.217-0.942l-1.182,0.264l-0.312-0.378l0.222-0.354l-0.839-0.506l-0.356-1.286  l0.619-0.404l0.569,0.833l0.216,0.549l0.428,0.429l0.5,0.261l0.557-0.089l0.617-0.594l-0.436-0.792l-0.547,0.143l-0.494-0.59  l0.471-0.328l1.475,0.179v0.524l1.284,2.646l0.291-0.233C22.234,9.53,20.219,6.969,17.455,5.997z M16.785,9.572l-0.674,0.179h-0.896  V9.286h-0.857l-0.679,0.178l-1.036-0.285l-0.285-0.536l1.428-0.321h1.43L15,7.75h0.715l0.396,0.893l0.674,0.237V9.572z M18.32,8.393  l-1.213-0.214V7.75l0.606-0.143l0.179-0.215l0.428,0.357V8.393z" fill="url(#SVGID_5_)"/>
</g>
<g>
<rect fill="none" height="30" width="30"/>
<path d="M21,30c-4.411,0-8-3.589-8-8s3.589-8,8-8s8,3.589,8,8S25.411,30,21,30L21,30z" enable-background="new    " opacity="0.6"/>
<linearGradient gradientTransform="matrix(1 0 0 -1 -66 -46)" gradientUnits="userSpaceOnUse" id="SVGID_1__" x1="87" x2="87" y1="-60.9688" y2="-75.1651">
	<stop offset="0" style="stop-color:#4EDEFF"/>
	<stop offset="1" style="stop-color:#048CC6"/>
</linearGradient>
<circle cx="21" cy="22" fill="url(#SVGID_1__)" r="7"/>
<polygon enable-background="new    " opacity="0.2" points="25.34,24 20.999,19.4 16.66,24 16,23.3 20.999,18 26,23.3 "/>
<polygon enable-background="new    " opacity="0.2" points="20.999,20.857 17,25.098 17,27 20,27 20,24 22,24 22,27 25,27   25,25.098 "/>
<path d="M21,16c3.697,0,6.717,2.869,6.975,6.5  C27.986,22.334,28,22.169,28,22c0-3.865-3.134-7-7-7s-7,3.135-7,7c0,0.169,0.014,0.334,0.025,0.5C14.283,18.869,17.303,16,21,16z" enable-background="new    " fill="#FFFFFF" opacity="0.4"/>
<polygon fill="#FFFFFF" points="25.34,23 20.999,18.4 16.66,23 16,22.3 20.999,17 26,22.3 "/>
<polygon fill="#FFFFFF" points="20.999,19.857 17,24.098 17,26 20,26 20,23 22,23 22,26 25,26 25,24.098 "/>
</g>
</svg>