<?xml version="1.0" encoding="UTF-8"?>
<!DOCTYPE svg PUBLIC "-//W3C//DTD SVG 1.1 Tiny//EN" "http://www.w3.org/Graphics/SVG/1.1/DTD/svg11-tiny.dtd">
<svg baseProfile="tiny" height="16px" version="1.1" viewBox="0 0 16 16" width="16px" x="0px" xmlns="http://www.w3.org/2000/svg" xmlns:xlink="http://www.w3.org/1999/xlink" y="0px">
<path d="M8.479,3.791c0.571,0.574,1.18,1.184,1.515,1.518C9.714,5.586,9.171,6.128,8.647,6.652l0.926,0.922  c0.847-0.848,2.268-2.266,2.268-2.266L7.135,0.597v4.544l1.344,1.342V3.791z M8.474,12.207V9.888L6.941,8.359  c-0.939,0.937-2.753,2.753-2.753,2.753l0.923,0.923l2.022-2.017v5.383l3.427-3.432l-0.925-0.923  C9.304,11.379,8.883,11.8,8.474,12.207z M1.87,0.939L1.166,1.644l13.526,13.497l0.703-0.706L1.87,0.939z"/>
<rect fill="none" height="16" width="16"/>
</svg>
