<?xml version="1.0" encoding="UTF-8"?>
<!DOCTYPE svg PUBLIC "-//W3C//DTD SVG 1.1 Tiny//EN" "http://www.w3.org/Graphics/SVG/1.1/DTD/svg11-tiny.dtd">
<svg baseProfile="tiny" height="60" viewBox="0 0 60 60" width="60" xmlns="http://www.w3.org/2000/svg" xmlns:xlink="http://www.w3.org/1999/xlink">
<rect fill="none" height="60" width="60"/>
<linearGradient gradientUnits="userSpaceOnUse" id="SVGID_1" x1="30" x2="30" y1="8.16" y2="51.02">
<stop offset="0" stop-color="#E5FFB2"/>
<stop offset="0.39" stop-color="#6AAB18"/>
<stop offset="0.68" stop-color="#247307"/>
<stop offset="1" stop-color="#C2FF4A"/>
</linearGradient>
<circle cx="29.998" cy="29.385" fill="url(#SVGID_1)" r="21.427"/>
<radialGradient cx="30.2" cy="10.41" gradientUnits="userSpaceOnUse" id="SVGID_2" r="39.38">
<stop offset="0" stop-color="#AFED23"/>
<stop offset="0.81" stop-color="#358C0C"/>
<stop offset="1" stop-color="#67AD1A"/>
</radialGradient>
<path d="M29.998,50.2c-11.478,0-20.815-9.337-20.815-20.814S18.521,8.571,29.998,8.571 c11.477,0,20.814,9.337,20.814,20.815S41.475,50.2,29.998,50.2L29.998,50.2z" fill="url(#SVGID_2)"/>
<path d="M23.264,21.626v-3.515c2.128-0.49,4.146-0.735,6.06-0.735 c2.821,0,4.986,0.547,6.492,1.642c1.507,1.093,2.26,2.697,2.26,4.815c0,1.231-0.291,2.274-0.869,3.129 c-0.581,0.854-4.583,4.875-4.978,5.425c-0.396,0.55-0.592,1.201-0.592,1.955v0.752h-5.615V34.09c0-1.22,0.267-2.25,0.799-3.094 c0.532-0.843,1.461-1.887,2.789-3.13c1.041-0.969,2.332-3.217,2.332-3.695c0-2.163-1.303-3.245-3.91-3.245 C26.562,20.927,24.974,21.16,23.264,21.626z M28.803,44.69c-0.944,0-1.757-0.335-2.439-1.005c-0.68-0.67-1.021-1.488-1.021-2.457 c0-0.957,0.338-1.775,1.013-2.457c0.676-0.682,1.491-1.022,2.447-1.022c0.957,0,1.775,0.341,2.458,1.022s1.022,1.5,1.022,2.457 c0,0.969-0.341,1.787-1.022,2.457C30.58,44.355,29.76,44.69,28.803,44.69z" fill-opacity="0.2" stroke-opacity="0.2"/>
<path d="M23.264,20.78v-3.515c2.128-0.49,4.146-0.735,6.06-0.735 c2.821,0,4.986,0.547,6.492,1.642c1.507,1.093,2.26,2.697,2.26,4.815c0,1.231-0.291,2.274-0.869,3.129 c-0.581,0.854-4.583,4.875-4.978,5.425c-0.396,0.55-0.592,1.202-0.592,1.954v0.754h-5.615v-1.005c0-1.22,0.267-2.251,0.799-3.094 c0.532-0.843,1.461-1.887,2.789-3.13c1.041-0.969,2.332-3.217,2.332-3.695c0-2.163-1.303-3.245-3.91-3.245 C26.562,20.081,24.974,20.314,23.264,20.78z M28.803,43.844c-0.944,0-1.757-0.334-2.439-1.004c-0.68-0.67-1.021-1.489-1.021-2.458 c0-0.956,0.338-1.775,1.013-2.457c0.676-0.682,1.491-1.022,2.447-1.022c0.957,0,1.775,0.341,2.458,1.022 c0.683,0.681,1.022,1.501,1.022,2.457c0,0.969-0.341,1.788-1.022,2.458C30.58,43.51,29.76,43.844,28.803,43.844z" fill-opacity="0.2" stroke-opacity="0.2"/>
<linearGradient gradientUnits="userSpaceOnUse" id="SVGID_3" x1="30.67" x2="30.67" y1="15.45" y2="42.99">
<stop offset="0" stop-color="#F6FDFF"/>
<stop offset="1" stop-color="#ADB3B5"/>
</linearGradient>
<path d="M23.264,19.79v-3.515c2.128-0.491,4.146-0.735,6.06-0.735c2.821,0,4.986,0.546,6.492,1.642 c1.507,1.093,2.26,2.697,2.26,4.814c0,1.232-0.291,2.274-0.869,3.129C36.625,25.98,32.623,30,32.229,30.55 c-0.396,0.55-0.592,1.202-0.592,1.955v0.753h-5.615v-1.005c0-1.22,0.267-2.25,0.799-3.093c0.532-0.843,1.461-1.887,2.789-3.13 c1.041-0.968,2.332-3.216,2.332-3.694c0-2.163-1.303-3.245-3.91-3.245C26.562,19.091,24.974,19.323,23.264,19.79z M28.803,42.854 c-0.944,0-1.757-0.334-2.439-1.004c-0.68-0.67-1.021-1.489-1.021-2.457c0-0.957,0.338-1.775,1.013-2.458 c0.676-0.681,1.491-1.022,2.447-1.022c0.957,0,1.775,0.342,2.458,1.022c0.683,0.682,1.022,1.501,1.022,2.458 c0,0.968-0.341,1.787-1.022,2.457C30.58,42.52,29.76,42.854,28.803,42.854z" fill="url(#SVGID_3)"/>
<rect fill="none" height="59.996" width="59.996"/>
</svg>
