<?xml version="1.0" encoding="utf-8"?>
<!-- Generator: Adobe Illustrator 14.0.0, SVG Export Plug-In  -->
<!DOCTYPE svg PUBLIC "-//W3C//DTD SVG 1.1//EN" "http://www.w3.org/Graphics/SVG/1.1/DTD/svg11.dtd" [
	<!ENTITY ns_flows "http://ns.adobe.com/Flows/1.0/">
]>
<svg version="1.1"
	 xmlns="http://www.w3.org/2000/svg" xmlns:xlink="http://www.w3.org/1999/xlink" xmlns:a="http://ns.adobe.com/AdobeSVGViewerExtensions/3.0/"
	 x="0px" y="0px" width="30px" height="30px" viewBox="0 0 30 30" enable-background="new 0 0 30 30" xml:space="preserve">
<defs>
</defs>
<g opacity="0.5">
	<rect fill="none" width="30" height="30"/>
</g>
<path fill-rule="evenodd" clip-rule="evenodd" d="M7,0v10.282L2.563,5.986L1,7.549l5.543,5.336L1,18.286l1.563,1.562L7,15.554V26
	l8-8l-5.539-5.115L15,8L7,0z M11.477,18.025l-2.473,2.473v-4.944L11.477,18.025z M9.004,10.282V5.336l2.473,2.473L9.004,10.282z"/>
<path fill-rule="evenodd" clip-rule="evenodd" d="M16.262,21.057c1.367-0.612,2.792-0.959,4.243-1.024L21,19.554V20
	c0.675,0,1.342,0.083,2.004,0.204v-0.65l0.811,0.811c1.595,0.411,3.129,1.183,4.563,2.259L29,22l-5.539-5.115L29,12l-8-8v10.282
	l-4.438-4.296L15,11.549l5.543,5.336L16.262,21.057z M23.004,9.336l2.473,2.473l-2.473,2.474V9.336z"/>
<path fill-rule="evenodd" clip-rule="evenodd" d="M30,27c-2.454-3.123-5.586-5-9-5s-6.546,1.877-9,5h2.654
	c0.695-0.709,1.522-1.386,2.463-1.921C17.047,25.376,17,25.682,17,26c0,2.21,1.792,4,4,4s4-1.79,4-4
	c0-0.318-0.047-0.624-0.117-0.921c0.94,0.535,1.768,1.212,2.463,1.921H30z M21,28c-1.104,0-2-0.447-2-1s0.896-1,2-1s2,0.447,2,1
	S22.104,28,21,28z"/>
</svg>
