<?xml version="1.0" encoding="UTF-8"?>
<!DOCTYPE svg PUBLIC "-//W3C//DTD SVG 1.1 Tiny//EN" "http://www.w3.org/Graphics/SVG/1.1/DTD/svg11-tiny.dtd">
<svg baseProfile="tiny" height="60" viewBox="0 0 60 60" width="60" xmlns="http://www.w3.org/2000/svg" xmlns:xlink="http://www.w3.org/1999/xlink">
<g>
<rect fill="#44A51C" height="37.72" width="52" x="4" y="11.14"/>
<path d="M17.38,22.47c-5.662,0-8.649,3.887-8.649,9.426,0,5.611,2.19,10.02,8.586,10.02,5.891,0,8.623-3.99,8.623-9.893,0-5.65-2.69-9.56-8.56-9.56zm-0.07,16.41c-3.012,0-3.148-4.285-3.148-7.092,0-2.734,0.234-6.293,3.148-6.293,2.793,0,3.184,3.758,3.184,6.293,0.01,3.27-0.15,7.09-3.18,7.09z" fill="#FFFFFF"/>
<path d="M33.17,41.91c2.304,0,3.116-1.152,3.665-2.83l4.954-16.36h-4.624l-3.548,14.15-3.339-14.15h-5.479l4.704,16.36c0.51,1.68,1.37,2.83,3.67,2.83z" fill="#FFFFFF"/>
<path d="M46.56,15.86c-1.707,0-2.875,0.857-2.875,2.441s1.206,2.438,2.875,2.438c1.676,0,2.882-0.854,2.882-2.438,0-1.55-1.27-2.44-2.88-2.44z" fill="#FFFFFF"/>
<path d="M44.65,41.39c0.39,0.279,0.999,0.523,1.859,0.523,0.905,0,1.492-0.244,1.879-0.523,0.746-0.523,0.746-1.41,0.746-1.893v-16.77h-5.167-0.355c-0.502,0-0.92,0.01-1.209,0.41-0.134,0.184-0.327,0.51-0.327,1.107,0,0.621,0.203,0.924,0.327,1.109,0.289,0.398,0.707,0.4,1.209,0.4,0.162,0,0.302-0.002,0.302-0.002v13.75c-0.01,0.47-0.01,1.36,0.73,1.88z" fill="#FFFFFF"/>
<rect fill="none" height="60" width="60"/>
</g>
</svg>
