<?xml version="1.0" encoding="UTF-8"?>
<!DOCTYPE svg PUBLIC "-//W3C//DTD SVG 1.1 Tiny//EN" "http://www.w3.org/Graphics/SVG/1.1/DTD/svg11-tiny.dtd">
<svg baseProfile="tiny" height="30px" version="1.1" viewBox="0 0 30 30" width="30px" x="0px" xmlns="http://www.w3.org/2000/svg" xmlns:xlink="http://www.w3.org/1999/xlink" y="0px">
<polygon points="24.64,22.19,24.64,24.61,14.34,24.6,16.36,22.19"/>
<polygon points="5.342,22.19,10.6,22.19,8.563,24.6,5.342,24.6"/>
<polygon points="24.64,17.21,24.64,19.63,18.5,19.62,20.52,17.21"/>
<polygon points="5.342,19.62,5.342,17.21,14.8,17.21,12.76,19.62"/>
<polygon points="21.39,14.63,9.415,28.9,7.564,27.35,19.59,13.01"/>
<path d="M22.18,7.633v1.318h1.179v1.29c-0.159,0.044-0.368,0.082-0.699,0.082-1.218,0-1.943-0.823-1.943-2.2,0-0.675,0.262-2.843,3.2-1.953l0.32,0.165,0.374-1.299s-0.691-0.448-1.841-0.448c-2.076-0.002-3.559,1.436-3.474,3.573,0.13,3.16,2.3,3.499,3.311,3.499,1.373,0,2.112-0.447,2.112-0.447v-3.577h-2.537z"/>
<path d="M13.39,1.257h4.371v1.917h-2.691v1.661s3.421-0.517,3.215,3.623c0,0,0.107,2.897-2.588,3.165-0.778,0.08-2.327-0.175-2.327-0.175l0.021-1.945s3.291,0.863,3.291-1.245c0-2.252-3.291-1.487-3.291-1.487v-5.506z"/>
<rect height="1.487" width="1.486" x="10.77" y="10.08"/>
<path d="M9.354,5.904c0.506-0.524,0.79-1.247,0.79-2.107,0-0.73-0.288-2.7-2.343-2.7-1.415,0-2.266,1.029-2.266,1.029l0.527,1.883s0.788-0.896,1.557-0.896c0.379,0,0.828,0.152,0.828,0.88,0,0.864-0.836,1.05-1.158,1.05h-0.89v1.945h0.897c0.232,0,1.52,0.225,1.402,1.342-0.231,2.167-2.28,0.962-2.51,0.778l-0.393-0.315-0.512,1.903s0.761,0.925,2.245,0.925c1.977,0,2.884-1.695,2.884-3.267,0-1.047-0.4-1.936-1.056-2.449z"/>
<rect fill="none" height="30" width="30"/>
</svg>
