<?xml version="1.0" encoding="UTF-8"?>
<!DOCTYPE svg PUBLIC "-//W3C//DTD SVG 1.1 Tiny//EN" "http://www.w3.org/Graphics/SVG/1.1/DTD/svg11-tiny.dtd">
<svg baseProfile="tiny" height="30px" version="1.1" viewBox="0 0 30 30" width="30px" x="0px" xmlns="http://www.w3.org/2000/svg" xmlns:xlink="http://www.w3.org/1999/xlink" y="0px">
<rect fill="none" height="30" width="29.999"/>
<path d="M22.212,3.211l0.707-0.707c0.776-0.777,2.052-0.777,2.828,0c0.776,0.777,0.776,2.051,0,2.828L25.04,6.039L22.212,3.211z"/>
<path d="M11.591,22.994c-1.674,0.432-3.569-0.033-4.933-1.396c-1.364-1.365-1.83-3.262-1.4-4.938L11.591,22.994z"/>
<path d="M13,22c0-4.963,4.038-9,8.999-9c1.694,0,3.274,0.479,4.629,1.295c1.233-3.516,0.504-7.578-2.295-10.377  c-3.89-3.891-10.252-3.891-14.142,0L5.949,8.16C4.036,7.475,3.313,7.969,2.436,8.846L1,10.281l12.016,12.016  C13.012,22.197,13,22.1,13,22z"/>
<path d="M15,22c0,3.865,3.132,7,6.999,7c3.865,0,7-3.135,7-7s-3.135-7-7-7C18.132,15,15,18.135,15,22z M16.75,23.75v-3.5h3.499v-3.5  h3.5v3.5h3.5v3.5h-3.5v3.5h-3.5v-3.5H16.75z"/>
</svg>
