<?xml version="1.0" encoding="UTF-8"?>
<!DOCTYPE svg PUBLIC "-//W3C//DTD SVG 1.1 Tiny//EN" "http://www.w3.org/Graphics/SVG/1.1/DTD/svg11-tiny.dtd">
<svg baseProfile="tiny" height="60" viewBox="0 0 60 60" width="60" xmlns="http://www.w3.org/2000/svg" xmlns:xlink="http://www.w3.org/1999/xlink">
<rect fill="none" height="60" width="60"/>
<polygon fill="url(#SVGID_1)" points="30.254,44.813 15.638,52.732 18.242,36.314 6.194,24.861 22.612,22.267 29.782,7.268 37.326,22.082 53.806,24.266 42.048,36.018 45.063,52.364 "/>
<radialGradient cx="29.75" cy="13.77" gradientUnits="userSpaceOnUse" id="SVGID_2" r="37.84">
<stop offset="0" stop-color="#FEE16E"/>
<stop offset="0.14" stop-color="#FEE16E"/>
<stop offset="0.55" stop-color="#FFC501"/>
<stop offset="0.73" stop-color="#F6A800"/>
<stop offset="1" stop-color="#FED43A"/>
</radialGradient>
<polygon fill="url(#SVGID_2)" points="19.516,35.884 8.763,25.66 23.417,23.344 29.817,9.958 36.55,23.18 51.258,25.129 40.764,35.618 43.455,50.208 30.236,43.469 17.191,50.537 "/>
<radialGradient cx="30.16" cy="43.05" gradientUnits="userSpaceOnUse" id="SVGID_3" r="13.55">
<stop offset="0" stop-color="#FED95A"/>
<stop offset="1" stop-color="#FFC501"/>
</radialGradient>
<polygon fill="url(#SVGID_3)" points="30.236,42.278 17.397,49.234 17.191,50.537 30.236,43.469 43.455,50.208 43.213,48.894 "/>
<radialGradient cx="30.18" cy="18.37" gradientUnits="userSpaceOnUse" id="SVGID_4" r="52.6">
<stop offset="0" stop-color="#FEF4CE"/>
<stop offset="1" stop-color="#FFC501"/>
</radialGradient>
<polygon fill="url(#SVGID_4)" points="24.013,24.534 29.817,12.339 35.954,24.369 50.202,26.185 51.258,25.129 36.55,23.18 29.817,9.958 23.417,23.344 8.763,25.66 9.842,26.688 "/>
<defs>
<linearGradient gradientUnits="userSpaceOnUse" id="SVGID_1" x1="29.78" x2="30.34" y1="7.14" y2="51.71">
<stop offset="0" stop-color="#F2C352"/>
<stop offset="0.36" stop-color="#F2C352"/>
<stop offset="0.89" stop-color="#DE7600"/>
<stop offset="1" stop-color="#E79A26"/>
</linearGradient>
</defs>
</svg>
