<?xml version="1.0" encoding="UTF-8"?>
<!DOCTYPE svg PUBLIC "-//W3C//DTD SVG 1.1 Tiny//EN" "http://www.w3.org/Graphics/SVG/1.1/DTD/svg11-tiny.dtd">
<svg baseProfile="tiny" height="15px" version="1.1" viewBox="0 0 15 15" width="15px" x="0px" xmlns="http://www.w3.org/2000/svg" xmlns:xlink="http://www.w3.org/1999/xlink" y="0px">
<g>
<path d="M0,0v9h6c4.962,0,9-4.035,9-8.995V0H0z" fill="#14141E" fill-opacity="0.1" fill-rule="evenodd" stroke-opacity="0.1"/>
<path d="M0,0v7.987h6c4.408,0,7.995-3.583,7.999-7.987H0z" fill="url(#SVGID_1_)" fill-rule="evenodd"/>
<path d="M12.999,0C12.995,3.854,9.856,6.988,6,6.988H0v0.999h6   c4.408,0,7.995-3.582,7.999-7.987H12.999z" fill-opacity="0.2" fill-rule="evenodd" stroke-opacity="0.2"/>
<path d="M11.999,0C11.995,3.304,9.306,5.988,6,5.988H0v1h6   c3.856,0,6.995-3.134,6.999-6.988H11.999z" fill="#FFFFFF" fill-opacity="0.2" fill-rule="evenodd" stroke-opacity="0.2"/>
<rect fill="none" height="15" width="15"/>
<defs>
<linearGradient gradientUnits="userSpaceOnUse" id="SVGID_1_" x1="7.0166" x2="6.6631" y1="6.5098" y2="-46.8145">
<stop offset="0" style="stop-color:#65B8CC"/>
<stop offset="1" style="stop-color:#306D8C"/>
</linearGradient>
</defs>
</g>
</svg>
