<?xml version="1.0" ?>
<!DOCTYPE svg  PUBLIC '-//W3C//DTD SVG 1.1 Tiny//EN'  'http://www.w3.org/Graphics/SVG/1.1/DTD/svg11-tiny.dtd'>
<svg baseProfile="tiny" height="30" viewBox="0 0 30 30" width="30" xmlns="http://www.w3.org/2000/svg" xmlns:xlink="http://www.w3.org/1999/xlink">

<rect fill="none" height="30" width="30"/>

<path d="M6.963,30c-1.635,0-2.963-1.33-2.963-2.96v-24.08c0-1.634,1.328-2.962,2.963-2.962h14.07c1.63,0,2.96,1.328,2.96,2.962v24.08c0,1.63-1.33,2.96-2.96,2.96h-14.08z" fill-opacity="0.6"/>

<linearGradient gradientUnits="userSpaceOnUse" id="SVGID_1" x1="14" x2="14" y1="-5.6" y2="28.94">

<stop offset="0" stop-color="#FFFFFF"/>

<stop offset="1" stop-color="#9B9D9E"/>

</linearGradient>

<path d="M23,27.04c0,1.08-0.88,1.96-1.96,1.96h-14.08c-1.084,0-1.963-0.88-1.963-1.96v-24.08c0-1.084,0.879-1.962,1.963-1.962h14.07c1.08,0,1.96,0.878,1.96,1.962v24.08z" fill="url(#SVGID_1)"/>

<linearGradient gradientUnits="userSpaceOnUse" id="SVGID_2" x1="14" x2="14" y1="21.78" y2="28.08">

<stop offset="0" stop-color="#A6A8AB"/>

<stop offset="0.7" stop-color="#58595B"/>

<stop offset="1" stop-color="#808184"/>

</linearGradient>

<rect fill="url(#SVGID_2)" height="4" width="4" x="12" y="24"/>

<linearGradient gradientUnits="userSpaceOnUse" id="SVGID_3" x1="14" x2="14" y1="23.89" y2="27.04">

<stop offset="0" stop-color="#F0F0F0"/>

<stop offset="1" stop-color="#9B9D9E"/>

</linearGradient>

<rect fill="url(#SVGID_3)" height="2" width="2" x="13" y="25"/>

<path d="M21.04,1h-14.08c-1.084,0-1.963,0.878-1.963,1.962v1c0-1.084,0.879-1.962,1.963-1.962h14.07c1.08,0,1.96,0.878,1.96,1.962v-1c0-1.084-0.88-1.962-1.96-1.962z" fill="#FFFFFF" fill-opacity="0.2"/>

<linearGradient gradientUnits="userSpaceOnUse" id="SVGID_4" x1="14" x2="14" y1="22.94" y2="3.12">

<stop offset="0" stop-color="#DADADB"/>

<stop offset="1" stop-color="#9B9D9E"/>

</linearGradient>

<rect fill="url(#SVGID_4)" height="20.03" width="16" x="6" y="3"/>

<linearGradient gradientUnits="userSpaceOnUse" id="SVGID_5" x1="14" x2="14" y1="4" y2="22">

<stop offset="0" stop-color="#3BC8EB"/>

<stop offset="1" stop-color="#1347BA"/>

</linearGradient>

<rect fill="url(#SVGID_5)" height="18.03" width="14" x="7" y="4"/>

<linearGradient gradientUnits="userSpaceOnUse" id="SVGID_6" x1="8" x2="8" y1="25" y2="26.98">

<stop offset="0" stop-color="#1CAB00"/>

<stop offset="1" stop-color="#1F6300"/>

</linearGradient>

<rect fill="url(#SVGID_6)" height="2" width="4" x="6" y="25"/>

<linearGradient gradientUnits="userSpaceOnUse" id="SVGID_7" x1="20" x2="20" y1="25" y2="27">

<stop offset="0" stop-color="#E63B00"/>

<stop offset="1" stop-color="#8C0000"/>

</linearGradient>

<rect fill="url(#SVGID_7)" height="2" width="4" x="18" y="25"/>

<polygon fill="#FFFFFF" fill-opacity="0.2" points="21,10.13,21,4,7,4,7,11.27"/>

<path d="M21,30c-4.411,0-8-3.589-8-8s3.589-8,8-8,8,3.589,8,8-3.59,8-8,8z" fill-opacity="0.6"/>

<linearGradient gradientUnits="userSpaceOnUse" id="SVGID_8" x1="21" x2="21" y1="14.97" y2="29.16">

<stop offset="0" stop-color="#4EDEFF"/>

<stop offset="1" stop-color="#048CC6"/>

</linearGradient>

<circle cx="21" cy="22" fill="url(#SVGID_8)" r="7"/>

<path d="M22,21v-2h-5v8h8v-6h-3zm-1,4h-3v-1h3v1zm0-2h-3v-1h3v1zm-3-2v-1h3v1h-3zm6,4h-2v-1h2v1zm0-2h-2v-1h2v1z" fill-opacity="0.2"/>

<path d="M21,16c3.697,0,6.717,2.869,6.975,6.5,0.01-0.17,0.02-0.33,0.02-0.5,0-3.865-3.134-7-7-7s-7,3.135-7,7c0,0.169,0.014,0.334,0.025,0.5,0.26-3.63,3.28-6.5,6.98-6.5z" fill="#FFFFFF" fill-opacity="0.4"/>

<path d="M22,20v-2h-5v8h8v-6h-3zm-1,4h-3v-1h3v1zm0-2h-3v-1h3v1zm-3-2v-1h3v1h-3zm6,4h-2v-1h2v1zm0-2h-2v-1h2v1z" fill="#FFFFFF"/>

<rect fill-opacity="0.3" height="6" width="1" x="22" y="20"/>

</svg>