<?xml version="1.0" encoding="UTF-8"?>
<!DOCTYPE svg PUBLIC "-//W3C//DTD SVG 1.1 Tiny//EN" "http://www.w3.org/Graphics/SVG/1.1/DTD/svg11-tiny.dtd">
<svg baseProfile="tiny" height="30" viewBox="0 0 30 30" width="30" xmlns="http://www.w3.org/2000/svg" xmlns:xlink="http://www.w3.org/1999/xlink">
<g>
<linearGradient gradientUnits="userSpaceOnUse" id="SVGID_1_" x1="7.3687" x2="22.844" y1="8.8872" y2="8.8872">
<stop offset="0" style="stop-color:#8C8C8C"/>
<stop offset="0.5333" style="stop-color:#B3B3B3"/>
<stop offset="1" style="stop-color:#808080"/>
</linearGradient>
<path d="M15.106,3.081c-4.303,0-7.794,3.46-7.854,7.749v2.881h2.657V10.83  c0.061-2.818,2.366-5.092,5.198-5.092c2.83,0,5.136,2.273,5.197,5.092v3.863h2.656V10.83C22.898,6.541,19.408,3.081,15.106,3.081z" fill="url(#SVGID_1_)"/>
<linearGradient gradientUnits="userSpaceOnUse" id="SVGID_2_" x1="7.8525" x2="22.3591" y1="9.1328" y2="9.1328">
<stop offset="0" style="stop-color:#CCCCCC"/>
<stop offset="0.5152" style="stop-color:#FFFFFF"/>
<stop offset="1" style="stop-color:#CCCCCC"/>
</linearGradient>
<path d="M20.793,14.203V10.83c-0.066-3.084-2.617-5.582-5.687-5.582c-3.072,0-5.623,2.498-5.689,5.572v3.873  H7.743V10.83c0.057-4,3.359-7.258,7.363-7.258c4.003,0,7.304,3.258,7.361,7.265v3.366H20.793z" fill="url(#SVGID_2_)"/>
<linearGradient gradientUnits="userSpaceOnUse" id="SVGID_3_" x1="8.1538" x2="22.0585" y1="9.1333" y2="9.1333">
<stop offset="0" style="stop-color:#B4B4B4"/>
<stop offset="0.5" style="stop-color:#E6E6E6"/>
<stop offset="1" style="stop-color:#BEBEBE"/>
</linearGradient>
<path d="M8.049,14.388V10.83c0.054-3.832,3.22-6.951,7.057-6.951c3.835,0,7.001,3.123,7.056,6.962v3.056H21.1  V10.83c-0.07-3.25-2.76-5.889-5.994-5.889c-3.236,0-5.925,2.634-5.995,5.872v3.574H8.049z" fill="url(#SVGID_3_)"/>
<g>
<rect fill="none" height="30" width="30"/>
</g>
<linearGradient gradientUnits="userSpaceOnUse" id="SVGID_4_" x1="5.2041" x2="24.7949" y1="20.3574" y2="20.3574">
<stop offset="0" style="stop-color:#ED8C0D"/>
<stop offset="0.24" style="stop-color:#FFE692"/>
<stop offset="0.75" style="stop-color:#ED8C0D"/>
<stop offset="0.8667" style="stop-color:#FFB81F"/>
<stop offset="1" style="stop-color:#ED8C0D"/>
</linearGradient>
<path d="M24.795,26.633c0,0.338-0.273,0.612-0.611,0.612H5.816c-0.338,0-0.612-0.274-0.612-0.612V14.082  c0-0.338,0.274-0.613,0.612-0.613h18.367c0.338,0,0.611,0.275,0.611,0.613V26.633z" fill="url(#SVGID_4_)"/>
<path d="M24.184,13.469H5.816c-0.338,0-0.612,0.275-0.612,0.613v0.611  c0-0.338,0.274-0.611,0.612-0.611h18.367c0.338,0,0.611,0.273,0.611,0.611v-0.611C24.795,13.744,24.521,13.469,24.184,13.469z" fill="#FFFFFF" fill-opacity="0.4" stroke-opacity="0.4"/>
<rect fill="#EE8F11" fill-opacity="0.5" height="2.143" stroke-opacity="0.5" width="19.591" x="5.204" y="16.225"/>
<rect fill-opacity="0.25" height="0.307" stroke-opacity="0.25" width="19.591" x="5.204" y="16.225"/>
<path d="M24.184,27.245H5.816c-0.338,0-0.612-0.274-0.612-0.612v-0.612c0,0.338,0.274,0.612,0.612,0.612h18.367  c0.338,0,0.611-0.274,0.611-0.612v0.612C24.795,26.971,24.521,27.245,24.184,27.245z" fill-opacity="0.25" stroke-opacity="0.25"/>
<rect fill="#FEE38E" fill-opacity="0.25" height="0.307" stroke-opacity="0.25" width="19.591" x="5.204" y="18.367"/>
<polygon fill="#FFFFFF" fill-opacity="0.5" points="14.136,22.697 13.031,23.826 11.748,22.516 13.765,20.449 11.748,18.381   13.033,17.07 14.136,18.199 14.136,14.263 18.252,18.478 16.326,20.449 18.252,22.421 14.136,26.634 " stroke-opacity="0.5"/>
<linearGradient gradientUnits="userSpaceOnUse" id="SVGID_5_" x1="15.0005" x2="15.0005" y1="24.9639" y2="16.0469">
<stop offset="0" style="stop-color:#69686A"/>
<stop offset="1" style="stop-color:#231F20"/>
</linearGradient>
<path d="M17.553,18.478l-2.917-2.987v3.936l-1.604-1.641l-0.585,0.597l2.016,2.067l-2.016,2.065l0.584,0.597  l1.605-1.64v3.935l2.917-2.985l-1.926-1.972L17.553,18.478z M16.389,18.483l-0.932,0.952l-0.001-1.905L16.389,18.483z   M16.389,22.415l-0.933,0.951l0.001-1.905L16.389,22.415z" fill="url(#SVGID_5_)"/>
</g>
</svg>
