<?xml version="1.0" encoding="UTF-8"?>
<!DOCTYPE svg PUBLIC "-//W3C//DTD SVG 1.1 Tiny//EN" "http://www.w3.org/Graphics/SVG/1.1/DTD/svg11-tiny.dtd">
<svg baseProfile="tiny" height="15px" version="1.1" viewBox="2.5 2.5 15 15" width="15px" x="0px" xmlns="http://www.w3.org/2000/svg" xmlns:xlink="http://www.w3.org/1999/xlink" y="0px">
<g>
<path d="M4,11.5c0,3.309,2.693,6,6,6c3.309,0,6.002-2.691,6.002-6v-9H4   V11.5z" fill-opacity="0.1" fill-rule="evenodd" stroke-opacity="0.1"/>
<path d="M4.752,11.5c0,2.9,2.348,5.249,5.248,5.249   s5.25-2.349,5.25-5.249v-9H4.752V11.5z" fill="url(#SVGID_1_)" fill-rule="evenodd"/>
<path d="M14.502,11.5c0,2.48-2.02,4.501-4.502,4.501c-2.48,0-4.5-2.021-4.5-4.501v-9H4.752v9   c0,2.9,2.348,5.249,5.248,5.249s5.25-2.349,5.25-5.249v-9h-0.748V11.5z" fill-opacity="0.2" stroke-opacity="0.2"/>
<rect fill="none" fill-rule="evenodd" height="15" width="15" x="2.5" y="2.5"/>
<path d="M13.75,11.5c0,2.068-1.682,3.75-3.75,3.75   s-3.75-1.682-3.75-3.75v-9H5.5v9c0,2.48,2.02,4.501,4.5,4.501c2.482,0,4.502-2.021,4.502-4.501v-9H13.75V11.5z" fill="#FFFFFF" fill-opacity="0.4" fill-rule="evenodd" stroke-opacity="0.4"/>
<rect fill="#FFFFFF" fill-opacity="0.9" fill-rule="evenodd" height="0.748" stroke-opacity="0.9" width="4.502" x="7.75" y="8.501"/>
<rect fill-opacity="0.1" fill-rule="evenodd" height="0.751" stroke-opacity="0.1" width="4.502" x="7.75" y="7.75"/>
<defs>
<linearGradient gradientUnits="userSpaceOnUse" id="SVGID_1_" x1="10.0002" x2="10.0002" y1="-26.8828" y2="16.8688">
<stop offset="0" style="stop-color:#E6E6F0"/>
<stop offset="0.3" style="stop-color:#FAFAFA"/>
<stop offset="0.7" style="stop-color:#FAFAFA"/>
<stop offset="1" style="stop-color:#E6E6F0"/>
</linearGradient>
</defs>
</g>
</svg>
