<?xml version="1.0" encoding="UTF-8"?>
<!DOCTYPE svg PUBLIC "-//W3C//DTD SVG 1.1 Tiny//EN" "http://www.w3.org/Graphics/SVG/1.1/DTD/svg11-tiny.dtd">
<svg baseProfile="tiny" height="20px" version="1.1" viewBox="0 0 20 20" width="20px" x="0px" xmlns="http://www.w3.org/2000/svg" xmlns:xlink="http://www.w3.org/1999/xlink" y="0px">
<rect fill="none" height="20" width="20"/>
<rect fill="none" height="20" width="20"/>
<path d="M4,10c0,3.3,2.7,6,6,6s6-2.7,6-6V0H4V10z" fill="url(#SVGID_1_)"/>
<path d="M6,10V0H5v10c0,2.757,2.243,5,5,5s5-2.243,5-5V0h-1v10c0,2.205-1.794,4-4,4S6,12.205,6,10z" fill="#FFFFFF" fill-opacity="0.2" stroke-opacity="0.2"/>
<path d="M15,10c0,2.757-2.243,5-5,5s-5-2.243-5-5V0H4v10c0,3.3,2.7,6,6,6s6-2.7,6-6V0h-1V10z" fill-opacity="0.2" stroke-opacity="0.2"/>
<rect fill="none" height="20" width="20"/>
<defs>
<linearGradient gradientTransform="matrix(0 -1 1 0 -1839 817)" gradientUnits="userSpaceOnUse" id="SVGID_1_" x1="809" x2="809" y1="1843" y2="1855">
<stop offset="0" style="stop-color:#B4B4BE"/>
<stop offset="1" style="stop-color:#D2D2DC"/>
</linearGradient>
</defs>
</svg>
