<?xml version="1.0" encoding="UTF-8"?>
<!DOCTYPE svg PUBLIC "-//W3C//DTD SVG 1.1 Tiny//EN" "http://www.w3.org/Graphics/SVG/1.1/DTD/svg11-tiny.dtd">
<svg baseProfile="tiny" height="30px" version="1.1" viewBox="0 0 30 30" width="30px" x="0px" xmlns="http://www.w3.org/2000/svg" xmlns:xlink="http://www.w3.org/1999/xlink" y="0px">
<polygon points="4.286,4 0,4 0,9.515 "/>
<path d="M14,23H4.459l6.825-7.251l3.681,3.22c1.068-2.121,2.946-3.764,5.231-4.516L27,8.5v6.449c1.165,0.582,2.188,1.402,3,2.406V4  h-7.618l-4.169,3h7.464L15,16.342l-4.407-3.856l-1.667,1.199l1.229,1.075L3,22.361v-0.443l-3-1.285V26h14.525  C14.191,25.06,14,24.053,14,23z"/>
<path d="M19.676,3.479l-5.662,3.269c-0.278,0.117-0.591,0.042-0.732-0.196l-0.983-1.648c-0.002,0.001-0.003,0.006-0.005,0.007  c0-0.001,0-0.003,0-0.004c-0.86,0.447-2.783,1.709-3.99,2.916c-1.255,1.257-2.422,2.609-3.397,4.289c0,0-0.005,0.007-0.006,0.007  c0.007,0.001,0.014,0.001,0.021,0.002l2.097,1.343c0.263,0.169,0.317,0.542,0.122,0.827L3.45,19.708  c-0.195,0.283-0.566,0.378-0.831,0.205c0,0-0.228-0.148-0.786-0.638c0,0-0.001,0-0.002,0c-0.302-0.266-0.315-0.365-0.604-0.712  c-0.245-0.295-0.44-0.588-0.602-0.857c-0.001-0.001-0.004,0-0.005-0.002C0.589,17.65,0.56,17.599,0.53,17.546  c-0.004-0.007-0.009-0.015-0.011-0.019c-0.301-0.537-0.43-0.932-0.43-0.932c-0.138-0.53-0.195-2.351,0.432-4.005  C0.921,11.542,3.014,8.229,5.46,5.78c2.445-2.448,6.249-4.884,7.924-5.389c1.673-0.505,3.002-0.427,3.396-0.286  c0,0,1.021,0.333,1.946,1.18c0.308,0.283,0.338,0.295,0.578,0.589c0.001,0.002,0,0.005,0.001,0.006  c-0.001-0.001-0.001-0.003-0.003-0.004c0.473,0.583,0.629,0.817,0.629,0.817C20.086,2.958,19.97,3.312,19.676,3.479z"/>
<path d="M30,22.989c0,1.123-0.227,2.094-0.677,2.914c-0.547,1.011-1.339,1.519-2.374,1.519c-1.007,0-1.733-0.508-2.187-1.519  c-0.547,0.592-1.252,0.889-2.117,0.889c-1.016,0-1.828-0.39-2.441-1.164c-0.568-0.719-0.854-1.592-0.854-2.628  c0-1.042,0.285-1.911,0.854-2.612c0.605-0.755,1.421-1.13,2.441-1.13c0.761,0,1.359,0.206,1.797,0.62v-0.456h1.476v5.097  c0,0.988,0.343,1.484,1.031,1.484c0.562,0,0.993-0.389,1.297-1.163c0.223-0.577,0.335-1.191,0.335-1.851  c0-1.521-0.55-2.821-1.644-3.903c-1.094-1.083-2.406-1.622-3.938-1.622c-1.539,0-2.847,0.536-3.922,1.61  c-1.075,1.075-1.614,2.379-1.614,3.915c0,1.535,0.539,2.846,1.621,3.925C20.164,28,21.469,28.539,23,28.539V30  c-1.93,0-3.581-0.687-4.946-2.058C16.685,26.567,16,24.915,16,22.989c0-1.919,0.687-3.563,2.058-4.935C19.43,16.687,21.075,16,23,16  c1.93,0,3.579,0.683,4.948,2.051C29.315,19.415,30,21.063,30,22.989z M24.353,22.934c0-1.489-0.568-2.235-1.707-2.235  c-0.57,0-1.012,0.254-1.32,0.762c-0.268,0.43-0.399,0.941-0.399,1.54c0,1.566,0.573,2.349,1.719,2.349  C23.784,25.349,24.353,24.544,24.353,22.934z"/>
</svg>
