<?xml version="1.0" encoding="UTF-8"?>
<!DOCTYPE svg PUBLIC "-//W3C//DTD SVG 1.1 Tiny//EN" "http://www.w3.org/Graphics/SVG/1.1/DTD/svg11-tiny.dtd">
<svg baseProfile="tiny" height="30" viewBox="0 0 30 30" width="30" xmlns="http://www.w3.org/2000/svg" xmlns:xlink="http://www.w3.org/1999/xlink">
<rect fill="none" height="30" width="30"/>
<rect fill="none" height="30" width="30"/>
<path d="M5.25,22.244l0.152-0.201c0.153-0.202,0.412-0.369,1.374-0.975c2.512-1.582,4.035-2.71,4.657-3.449l0.487-0.578 l-0.581-0.483c-0.763-0.632-1.335-1.345-1.703-2.117c-0.683-1.444-0.77-4.494-0.638-6.665c0.028-1.708,1.641-3.412,3.371-4.247 C11.51,2.78,10.42,2.25,9.542,2.25H8.45c-1.724,0-3.908,2.04-3.908,3.781c0,0-0.261,3.505,0.518,5.19 c0.427,0.919,0.826,1.691,1.7,2.278c0.002,0.12,0.011,0.631,0.003,0.75C6.655,15.959,1.5,18,1.5,18v4.932h3.75V22.244z"/>
<path d="M23.239,14.25c-0.008-0.126,0-0.646,0.003-0.773c0.854-0.588,1.226-1.353,1.675-2.255c0.833-1.671,0.528-5.19,0.528-5.19 c0-1.741-2.18-3.781-3.903-3.781h-1.093c-0.878,0-1.967,0.531-2.824,1.281c1.73,0.832,3.344,2.525,3.374,4.204 c0.156,2.224,0.077,5.285-0.656,6.726c-0.386,0.755-0.958,1.454-1.702,2.078l-0.569,0.477l0.472,0.574 c0.607,0.738,2.137,1.877,4.678,3.48c0.964,0.607,1.223,0.774,1.377,0.978l0.152,0.2v0.684h3.75v-4.929 C28.5,18.003,23.346,15.959,23.239,14.25z"/>
<path d="M12.967,15.898l0.332,0.218l0.009,0.489c0.003,0.147,0.007,0.336-0.001,0.453c-0.004,0.074-0.02,0.148-0.036,0.224h3.459 c-0.016-0.075-0.031-0.149-0.036-0.223c-0.009-0.123-0.005-0.319-0.001-0.475l0.008-0.487l0.325-0.219 c0.919-0.621,1.585-1.327,1.979-2.1c0.666-1.307,0.584-4.731,0.494-5.995c0-1.32-2.338-3.284-3.909-3.284h-1.191 c-1.568,0-3.899,1.964-3.901,3.331c-0.077,1.208-0.135,4.637,0.494,5.967C11.359,14.573,12.025,15.28,12.967,15.898z"/>
<path d="M22.422,22.339c-1.969-1.241-3.803-2.456-4.843-3.604L15,24.566l-2.579-5.83c-1.041,1.146-2.875,2.36-4.845,3.602 c-0.295,0.185-0.617,0.388-0.827,0.526V27h16.5v-4.132C23.04,22.729,22.717,22.525,22.422,22.339z"/>
</svg>
