<?xml version="1.0" encoding="UTF-8" standalone="no"?>
<!DOCTYPE svg PUBLIC "-//W3C//DTD SVG 1.1 Tiny//EN" "http://www.w3.org/Graphics/SVG/1.1/DTD/svg11-tiny.dtd">
<svg xmlns="http://www.w3.org/2000/svg" xmlns:xlink="http://www.w3.org/1999/xlink" baseProfile="tiny" height="40px" version="1.1" viewBox="0 0 60 40" width="60px" x="0px" y="0px">
<rect fill="none" height="40" width="60"/>
<linearGradient gradientUnits="userSpaceOnUse" id="SVGID_1_" x1="30.5" x2="30.5" y1="0" y2="38.5553">
<stop offset="0" style="stop-color:#828282"/>
<stop offset="1" style="stop-color:#3C3C3C"/>
</linearGradient>
<path d="M1,0v30c0,4.963,4.037,9,9,9h50V0H1z" fill="url(#SVGID_1_)" fill-opacity="0.7" stroke-opacity="0.7"/>
<path d="M2,30V0H0v30c0,5.5,4.5,10,10,10h50v-2H10C5.589,38,2,34.41,2,30z" fill="#FFFFFF" fill-opacity="0.1" stroke-opacity="0.1"/>
<linearGradient gradientUnits="userSpaceOnUse" id="SVGID_2_" x1="31.5" x2="31.5" y1="2.2119" y2="21.0297">
<stop offset="0" style="stop-color:#FFFFFF"/>
<stop offset="0.011" style="stop-color:#FFFFFF"/>
<stop offset="1" style="stop-color:#3C3C3C"/>
</linearGradient>
<polygon fill="url(#SVGID_2_)" fill-opacity="0.3" points="3,1 3,21 4,21 4,2 60,2 60,1 " stroke-opacity="0.3"/>
<rect fill-opacity="0.2" height="36" stroke-opacity="0.2" width="1" x="59" y="2"/>
</svg>
