<?xml version="1.0" encoding="UTF-8" standalone="no"?>
<!DOCTYPE svg PUBLIC "-//W3C//DTD SVG 1.1 Tiny//EN" "http://www.w3.org/Graphics/SVG/1.1/DTD/svg11-tiny.dtd">
<svg xmlns="http://www.w3.org/2000/svg" xmlns:xlink="http://www.w3.org/1999/xlink" baseProfile="tiny" height="60" viewBox="0 0 60 60" width="60">
<g>
<rect fill="none" height="60" width="60"/>
<linearGradient gradientUnits="userSpaceOnUse" id="SVGID_1_" x1="30" x2="30" y1="2.001" y2="57.8555">
<stop offset="0" style="stop-color:#D1D7D9"/>
<stop offset="0.0667" style="stop-color:#D1D7D9"/>
<stop offset="0.2606" style="stop-color:#BDC2C4"/>
<stop offset="0.6606" style="stop-color:#949DA1"/>
<stop offset="0.9636" style="stop-color:#ADB3B5"/>
<stop offset="1" style="stop-color:#595C5E"/>
</linearGradient>
<path d="M48.027,54.932c0,1.693-1.375,3.069-3.068,3.069h-29.92c-1.693,0-3.066-1.376-3.066-3.069V5.07  c0-1.696,1.373-3.069,3.066-3.069h29.92c1.693,0,3.068,1.373,3.068,3.069V54.932z" fill="url(#SVGID_1_)"/>
<linearGradient gradientUnits="userSpaceOnUse" id="SVGID_2_" x1="30" x2="30" y1="2.001" y2="56.899">
<stop offset="0" style="stop-color:#E4EBED"/>
<stop offset="0.0667" style="stop-color:#E4EBED"/>
<stop offset="0.2606" style="stop-color:#D6DCDE"/>
<stop offset="0.6606" style="stop-color:#B2BEC2"/>
<stop offset="1" style="stop-color:#ADB3B5"/>
</linearGradient>
<path d="M44.959,2.001h-29.92c-1.693,0-3.066,1.373-3.066,3.069v49.861c0,0.82,0.324,1.56,0.848,2.11  c-0.047-0.187-0.08-0.377-0.08-0.575v-1.535V6.602V5.07c0-1.271,1.031-2.304,2.299-2.304h29.92c1.268,0,2.301,1.033,2.301,2.304  v1.531v48.33v1.535c0,0.198-0.033,0.389-0.08,0.575c0.521-0.551,0.848-1.29,0.848-2.11V5.07C48.027,3.374,46.652,2.001,44.959,2.001  z" fill="url(#SVGID_2_)"/>
<linearGradient gradientUnits="userSpaceOnUse" id="SVGID_3_" x1="30" x2="30" y1="5.8916" y2="43.4283">
<stop offset="0" style="stop-color:#B6BBBD"/>
<stop offset="1" style="stop-color:#F0FBFF"/>
</linearGradient>
<rect fill="url(#SVGID_3_)" fill-opacity="0.6" height="37.589" stroke-opacity="0.6" width="31.453" x="14.273" y="5.836"/>
<linearGradient gradientUnits="userSpaceOnUse" id="SVGID_4_" x1="29.999" x2="29.999" y1="6.6548" y2="42.6624">
<stop offset="0" style="stop-color:#6E6E6E"/>
<stop offset="1" style="stop-color:#333333"/>
</linearGradient>
<rect fill="url(#SVGID_4_)" height="36.058" width="29.92" x="15.039" y="6.602"/>
<linearGradient gradientUnits="userSpaceOnUse" id="SVGID_5_" x1="30" x2="30" y1="7.4214" y2="41.894">
<stop offset="0" style="stop-color:#3BC8EB"/>
<stop offset="0.3879" style="stop-color:#2D9BD2"/>
<stop offset="0.8909" style="stop-color:#1347BA"/>
<stop offset="1" style="stop-color:#1347BA"/>
</linearGradient>
<rect fill="url(#SVGID_5_)" height="34.521" width="28.383" x="15.809" y="7.37"/>
<linearGradient gradientUnits="userSpaceOnUse" id="SVGID_6_" x1="30" x2="30" y1="7.9712" y2="21.69">
<stop offset="0" style="stop-color:#85EFFF"/>
<stop offset="1" style="stop-color:#3BA1D9"/>
</linearGradient>
<polygon fill="url(#SVGID_6_)" points="44.191,19.644 15.809,22.712 15.809,8.137 44.191,8.137 "/>
<rect fill="#9FE4FF" height="0.767" width="28.383" x="15.809" y="7.37"/>
<linearGradient gradientUnits="userSpaceOnUse" id="SVGID_7_" x1="30.2236" x2="30.2236" y1="5.8726" y2="2.8032">
<stop offset="0" style="stop-color:#FFFFFF"/>
<stop offset="1" style="stop-color:#D1D7D9"/>
</linearGradient>
<path d="M26.832,5.836c-0.861,0-1.535-0.563-1.535-1.279v-0.51c0-0.718,0.674-1.28,1.535-1.28h6.785  c0.859,0,1.533,0.563,1.533,1.28v0.51c0,0.716-0.674,1.279-1.533,1.279H26.832z" fill="url(#SVGID_7_)"/>
<linearGradient gradientUnits="userSpaceOnUse" id="SVGID_8_" x1="30.2236" x2="30.2236" y1="3.2158" y2="5.1992">
<stop offset="0" style="stop-color:#6C7375"/>
<stop offset="1" style="stop-color:#BDC2C4"/>
</linearGradient>
<path d="M34.383,4.557c0,0.283-0.342,0.514-0.766,0.514h-6.785c-0.424,0-0.768-0.23-0.768-0.514v-0.51  c0-0.283,0.344-0.512,0.768-0.512h6.785c0.424,0,0.766,0.229,0.766,0.512V4.557z" fill="url(#SVGID_8_)"/>
<linearGradient gradientUnits="userSpaceOnUse" id="SVGID_9_" x1="29.8818" x2="29.8818" y1="44.2236" y2="55.628">
<stop offset="0" style="stop-color:#B6BBBD"/>
<stop offset="1" style="stop-color:#FFFFFF"/>
</linearGradient>
<path d="M27.109,55.7c-1.645,0-2.98-1.323-2.98-2.951v-5.606c0-1.627,1.336-2.951,2.98-2.951  h5.545c1.645,0,2.98,1.324,2.98,2.951v5.606c0,1.628-1.336,2.951-2.98,2.951H27.109z" fill="url(#SVGID_9_)" fill-opacity="0.6" stroke-opacity="0.6"/>
<path d="M27.105,54.932c-1.219,0-2.211-0.979-2.211-2.183v-5.606c0-1.204,0.992-2.183,2.211-2.183  h5.553c1.219,0,2.209,0.979,2.209,2.183v5.606c0,1.204-0.99,2.183-2.209,2.183H27.105z" fill="#020202" fill-opacity="0.5" stroke-opacity="0.5"/>
<linearGradient gradientUnits="userSpaceOnUse" id="SVGID_10_" x1="29.8818" x2="29.8818" y1="45.6865" y2="54.1806">
<stop offset="0" style="stop-color:#A6A8AB"/>
<stop offset="0.703" style="stop-color:#58595B"/>
<stop offset="1" style="stop-color:#808184"/>
</linearGradient>
<path d="M34.102,52.749c0,0.783-0.645,1.417-1.438,1.417h-5.566c-0.793,0-1.436-0.634-1.436-1.417v-5.606  c0-0.783,0.643-1.417,1.436-1.417h5.566c0.793,0,1.438,0.634,1.438,1.417V52.749z" fill="url(#SVGID_10_)"/>
<path d="M28.73,52.632c-0.846,0-1.533-0.688-1.533-1.534v-2.303c0-0.847,0.688-1.534,1.533-1.534  h2.303c0.846,0,1.533,0.688,1.533,1.534v2.303c0,0.847-0.688,1.534-1.533,1.534H28.73z" fill="#020202" fill-opacity="0.2" stroke-opacity="0.2"/>
<linearGradient gradientUnits="userSpaceOnUse" id="SVGID_11_" x1="29.8809" x2="29.8809" y1="48.0103" y2="51.8696">
<stop offset="0" style="stop-color:#D1D7D9"/>
<stop offset="0.0667" style="stop-color:#D1D7D9"/>
<stop offset="0.2606" style="stop-color:#BDC2C4"/>
<stop offset="0.6606" style="stop-color:#949DA1"/>
<stop offset="0.9636" style="stop-color:#ADB3B5"/>
<stop offset="1" style="stop-color:#595C5E"/>
</linearGradient>
<path d="M28.73,51.863c-0.422,0-0.768-0.345-0.768-0.766v-2.303c0-0.422,0.346-0.767,0.768-0.767h2.303  c0.42,0,0.766,0.345,0.766,0.767v2.303c0,0.421-0.346,0.766-0.766,0.766H28.73z" fill="url(#SVGID_11_)"/>
<linearGradient gradientUnits="userSpaceOnUse" id="SVGID_12_" x1="17.667" x2="17.667" y1="44.917" y2="54.1816">
<stop offset="0" style="stop-color:#B6BBBD"/>
<stop offset="1" style="stop-color:#F0FBFF"/>
</linearGradient>
<path d="M17.223,54.166c-1.625,0-2.949-1.323-2.949-2.951v-3.307  c0-1.624,1.324-2.948,2.949-2.948h0.887c1.627,0,2.951,1.324,2.951,2.948v3.307c0,1.628-1.324,2.951-2.951,2.951H17.223z" fill="url(#SVGID_12_)" fill-opacity="0.4" stroke-opacity="0.4"/>
<linearGradient gradientUnits="userSpaceOnUse" id="SVGID_13_" x1="17.665" x2="17.665" y1="45.6899" y2="53.4106">
<stop offset="0" style="stop-color:#231F20"/>
<stop offset="1" style="stop-color:#6D6E70"/>
</linearGradient>
<path d="M17.223,53.397c-1.203,0-2.184-0.979-2.184-2.183v-3.307  c0-1.201,0.98-2.183,2.184-2.183h0.887c1.205,0,2.182,0.981,2.182,2.183v3.307c0,1.204-0.977,2.183-2.182,2.183H17.223z" fill="url(#SVGID_13_)" fill-opacity="0.7" stroke-opacity="0.7"/>
<linearGradient gradientUnits="userSpaceOnUse" id="SVGID_14_" x1="17.667" x2="17.667" y1="46.4658" y2="52.6426">
<stop offset="0" style="stop-color:#C6FF45"/>
<stop offset="0.7273" style="stop-color:#66A00E"/>
<stop offset="1" style="stop-color:#387300"/>
</linearGradient>
<path d="M19.525,51.215c0,0.783-0.635,1.417-1.416,1.417h-0.887c-0.779,0-1.414-0.634-1.414-1.417v-3.307  c0-0.78,0.635-1.414,1.414-1.414h0.887c0.781,0,1.416,0.634,1.416,1.414V51.215z" fill="url(#SVGID_14_)"/>
<linearGradient gradientUnits="userSpaceOnUse" id="SVGID_15_" x1="41.6719" x2="41.6719" y1="44.917" y2="54.1816">
<stop offset="0" style="stop-color:#B6BBBD"/>
<stop offset="1" style="stop-color:#F0FBFF"/>
</linearGradient>
<path d="M41.229,54.166c-1.625,0-2.949-1.323-2.949-2.951v-3.307  c0-1.624,1.324-2.948,2.949-2.948h0.885c1.627,0,2.951,1.324,2.951,2.948v3.307c0,1.628-1.324,2.951-2.951,2.951H41.229z" fill="url(#SVGID_15_)" fill-opacity="0.4" stroke-opacity="0.4"/>
<linearGradient gradientUnits="userSpaceOnUse" id="SVGID_16_" x1="41.6709" x2="41.6709" y1="45.6899" y2="53.4106">
<stop offset="0" style="stop-color:#231F20"/>
<stop offset="1" style="stop-color:#6D6E70"/>
</linearGradient>
<path d="M41.229,53.397c-1.203,0-2.184-0.979-2.184-2.183v-3.307  c0-1.201,0.98-2.183,2.184-2.183h0.885c1.205,0,2.184,0.981,2.184,2.183v3.307c0,1.204-0.979,2.183-2.184,2.183H41.229z" fill="url(#SVGID_16_)" fill-opacity="0.7" stroke-opacity="0.7"/>
<linearGradient gradientUnits="userSpaceOnUse" id="SVGID_17_" x1="41.6719" x2="41.6719" y1="46.4658" y2="52.6426">
<stop offset="0" style="stop-color:#FFC142"/>
<stop offset="0.7455" style="stop-color:#CF4E18"/>
<stop offset="1" style="stop-color:#B52100"/>
</linearGradient>
<path d="M43.531,51.215c0,0.783-0.637,1.417-1.418,1.417h-0.885c-0.781,0-1.416-0.634-1.416-1.417v-3.307  c0-0.78,0.635-1.414,1.416-1.414h0.885c0.781,0,1.418,0.634,1.418,1.414V51.215z" fill="url(#SVGID_17_)"/>
<rect fill="none" height="60" width="60"/>
</g>
<g transform="matrix(0.5 0 0 0.5 30 30)">
<linearGradient gradientUnits="userSpaceOnUse" id="SVGID_1__" x1="29.9995" x2="29.9995" y1="45.9541" y2="55.212">
<stop offset="0" style="stop-color:#334247"/>
<stop offset="1" style="stop-color:#446066"/>
</linearGradient>
<path d="M57.551,54.49c0,0.338-0.273,0.611-0.612,0.611H3.062c-0.339,0-0.612-0.273-0.612-0.611v-7.96  c0-0.338,0.273-0.612,0.612-0.612h53.877c0.339,0,0.612,0.274,0.612,0.612V54.49z" fill="url(#SVGID_1__)"/>
<linearGradient gradientUnits="userSpaceOnUse" id="SVGID_2__" x1="29.9995" x2="29.9995" y1="46.5615" y2="54.5859">
<stop offset="0" style="stop-color:#334247"/>
<stop offset="1" style="stop-color:#638B94"/>
</linearGradient>
<path d="M3.062,46.53v7.96h53.877v-7.96H3.062z M56.326,53.266H3.674v-6.123h52.652V53.266z" fill="url(#SVGID_2__)"/>
<linearGradient gradientUnits="userSpaceOnUse" id="SVGID_3__" x1="30.0005" x2="30.0005" y1="55.0654" y2="45.8075">
<stop offset="0" style="stop-color:#334247"/>
<stop offset="1" style="stop-color:#446066"/>
</linearGradient>
<path d="M56.938,45.918H3.062c-0.339,0-0.612,0.274-0.612,0.612v7.96c0,0.338,0.273,0.611,0.612,0.611h53.877  c0.339,0,0.612-0.273,0.612-0.611v-7.96C57.551,46.192,57.277,45.918,56.938,45.918z M56.938,54.49H3.062v-7.96h53.877V54.49z" fill="url(#SVGID_3__)"/>
<g>
<linearGradient gradientUnits="userSpaceOnUse" id="SVGID_4__" x1="36.9395" x2="43.3462" y1="26.0205" y2="26.0205">
<stop offset="0" style="stop-color:#DBDBDB"/>
<stop offset="0.097" style="stop-color:#DBDBDB"/>
<stop offset="0.6848" style="stop-color:#B0B0B0"/>
<stop offset="1" style="stop-color:#DEDEDE"/>
</linearGradient>
<path d="M43.47,33.674c0,0.338-0.274,0.612-0.612,0.612h-5.511c-0.338,0-0.612-0.274-0.612-0.612   l0.612-15.307c0-0.338,0.274-0.612,0.612-0.612h4.286c0.338,0,0.612,0.274,0.612,0.612L43.47,33.674z" fill="url(#SVGID_4__)"/>
<rect fill-opacity="0.3" height="0.612" stroke-opacity="0.3" width="6.735" x="36.734" y="31.837"/>
<rect fill-opacity="0.1" height="1.837" stroke-opacity="0.1" width="6.735" x="36.734" y="30.612"/>
<rect fill-opacity="0.1" height="0.612" stroke-opacity="0.1" width="6.735" x="36.734" y="31.225"/>
<path d="M42.245,17.755h-4.286c-0.338,0-0.612,0.274-0.612,0.612v0.612   c0-0.338,0.274-0.612,0.612-0.612h4.286c0.338,0,0.612,0.274,0.612,0.612v-0.612C42.857,18.029,42.583,17.755,42.245,17.755z" fill="#FFFFFF" fill-opacity="0.5" stroke-opacity="0.5"/>
<linearGradient gradientUnits="userSpaceOnUse" id="SVGID_5__" x1="37.5869" x2="42.6832" y1="12.5508" y2="12.5508">
<stop offset="0" style="stop-color:#DBDBDB"/>
<stop offset="0.097" style="stop-color:#DBDBDB"/>
<stop offset="0.6848" style="stop-color:#919191"/>
<stop offset="1" style="stop-color:#B8B8B8"/>
</linearGradient>
<path d="M42.245,17.755l-0.612-9.796c0-0.338-0.274-0.612-0.612-0.612h-1.837   c-0.338,0-0.612,0.274-0.612,0.612l-0.612,9.796H42.245z" fill="url(#SVGID_5__)"/>
<path d="M41.021,7.347h-1.837c-0.338,0-0.612,0.274-0.612,0.612v0.612   c0-0.338,0.274-0.612,0.612-0.612h1.837c0.338,0,0.612,0.274,0.612,0.612V7.959C41.633,7.621,41.358,7.347,41.021,7.347z" fill="#FFFFFF" fill-opacity="0.5" stroke-opacity="0.5"/>
<rect fill-opacity="0.3" height="0.612" stroke-opacity="0.3" width="4.286" x="37.959" y="17.143"/>
<rect fill-opacity="0.1" height="0.612" stroke-opacity="0.1" width="4.286" x="37.959" y="16.53"/>
<rect fill-opacity="0.1" height="1.837" stroke-opacity="0.1" width="4.286" x="37.959" y="15.918"/>
</g>
<rect fill="none" height="60" width="60"/>
<linearGradient gradientUnits="userSpaceOnUse" id="SVGID_6__" x1="29.9995" x2="29.9995" y1="32.5068" y2="47.3191">
<stop offset="0" style="stop-color:#E0E2E6"/>
<stop offset="1" style="stop-color:#555557"/>
</linearGradient>
<path d="M57.551,34.83c0-1.313-1.068-2.381-2.385-2.381H4.834c-1.316,0-2.385,1.067-2.385,2.381v12.313  h55.102V34.83z" fill="url(#SVGID_6__)"/>
<linearGradient gradientUnits="userSpaceOnUse" id="SVGID_7__" x1="29.9995" x2="29.9995" y1="33.4209" y2="47.3077">
<stop offset="0" style="stop-color:#EBEBEB"/>
<stop offset="1" style="stop-color:#919191"/>
</linearGradient>
<path d="M57.064,34.592c0-0.676-0.548-1.225-1.226-1.225H4.161c-0.678,0-1.226,0.549-1.226,1.225v12.551  h54.129V34.592z" fill="url(#SVGID_7__)"/>
<path d="M2.506,34.286c0.137-0.527,1.084-0.919,1.655-0.919h51.678c0.571,0,1.508,0.392,1.646,0.919  l0,0c-0.248-1.051-1.19-1.837-2.318-1.837H4.834C3.706,32.449,2.755,33.235,2.506,34.286L2.506,34.286z" fill="#FFFFFF" fill-opacity="0.5" stroke-opacity="0.5"/>
<g>
<linearGradient gradientUnits="userSpaceOnUse" id="SVGID_8__" x1="13.1636" x2="13.1636" y1="43.2168" y2="35.7019">
<stop offset="0" style="stop-color:#9F9F9F"/>
<stop offset="1" style="stop-color:#7D7D80"/>
</linearGradient>
<rect fill="url(#SVGID_8__)" height="8.2" width="3.28" x="11.523" y="35.39"/>
<linearGradient gradientUnits="userSpaceOnUse" id="SVGID_9__" x1="13.1631" x2="13.1631" y1="43.043" y2="35.9365">
<stop offset="0" style="stop-color:#C6FF45"/>
<stop offset="0.7273" style="stop-color:#66A00E"/>
<stop offset="1" style="stop-color:#387300"/>
</linearGradient>
<rect fill="url(#SVGID_9__)" height="7.106" width="2.188" x="12.069" y="35.937"/>
<linearGradient gradientUnits="userSpaceOnUse" id="SVGID_10__" x1="7.1499" x2="7.1499" y1="43.2168" y2="35.7019">
<stop offset="0" style="stop-color:#9F9F9F"/>
<stop offset="1" style="stop-color:#7D7D80"/>
</linearGradient>
<rect fill="url(#SVGID_10__)" height="8.2" width="3.28" x="5.51" y="35.39"/>
<linearGradient gradientUnits="userSpaceOnUse" id="SVGID_11__" x1="7.1499" x2="7.1499" y1="43.043" y2="35.9365">
<stop offset="0" style="stop-color:#C6FF45"/>
<stop offset="0.7273" style="stop-color:#66A00E"/>
<stop offset="1" style="stop-color:#387300"/>
</linearGradient>
<rect fill="url(#SVGID_11__)" height="7.106" width="2.187" x="6.057" y="35.937"/>
<linearGradient gradientUnits="userSpaceOnUse" id="SVGID_12__" x1="19.1763" x2="19.1763" y1="43.2168" y2="35.7019">
<stop offset="0" style="stop-color:#9F9F9F"/>
<stop offset="1" style="stop-color:#7D7D80"/>
</linearGradient>
<rect fill="url(#SVGID_12__)" height="8.2" width="3.28" x="17.536" y="35.39"/>
<linearGradient gradientUnits="userSpaceOnUse" id="SVGID_13__" x1="19.1763" x2="19.1763" y1="43.043" y2="35.9365">
<stop offset="0" style="stop-color:#334247"/>
<stop offset="1" style="stop-color:#446066"/>
</linearGradient>
<rect fill="url(#SVGID_13__)" height="7.106" width="2.187" x="18.083" y="35.937"/>
<rect fill="#FFFFFF" fill-opacity="0.5" height="0.547" stroke-opacity="0.5" width="2.188" x="12.069" y="35.937"/>
<rect fill="#FFFFFF" fill-opacity="0.5" height="0.547" stroke-opacity="0.5" width="2.187" x="6.057" y="35.937"/>
</g>
<rect fill-opacity="0.3" height="0.612" stroke-opacity="0.3" width="55.102" x="2.449" y="47.143"/>
<rect fill-opacity="0.1" height="0.612" stroke-opacity="0.1" width="55.102" x="2.449" y="47.755"/>
<rect fill="#FFFFFF" fill-opacity="0.2" height="0.611" stroke-opacity="0.2" width="55.102" x="2.449" y="46.531"/>
<rect fill-opacity="0.1" height="0.611" stroke-opacity="0.1" width="55.102" x="2.449" y="45.918"/>
<g>
<linearGradient gradientTransform="matrix(-0.7071 -0.7071 -0.7071 0.7071 774.9818 369.3789)" gradientUnits="userSpaceOnUse" id="SVGID_14__" x1="788.3408" x2="775.1464" y1="269.3369" y2="282.3496">
<stop offset="0" style="stop-color:#C6FF45"/>
<stop offset="0.7273" style="stop-color:#66A00E"/>
<stop offset="1" style="stop-color:#387300"/>
</linearGradient>
<path d="M27.674,2.457l2.729,2.727c-3.561,3.56-3.559,9.354,0,12.913l-2.728,2.728   C22.611,15.76,22.611,7.521,27.674,2.457z" fill="url(#SVGID_14__)"/>
<linearGradient gradientTransform="matrix(-0.7071 -0.7071 -0.7071 0.7071 774.9818 369.3789)" gradientUnits="userSpaceOnUse" id="SVGID_15__" x1="783.4971" x2="770.3032" y1="264.4326" y2="277.4448">
<stop offset="0" style="stop-color:#C6FF45"/>
<stop offset="0.7273" style="stop-color:#66A00E"/>
<stop offset="1" style="stop-color:#387300"/>
</linearGradient>
<path d="M33.865,5.913l2.728,2.728c-1.655,1.654-1.655,4.345,0,5.998l-2.728,2.728   C30.707,14.21,30.707,9.072,33.865,5.913z" fill="url(#SVGID_15__)"/>
<g>
<linearGradient gradientUnits="userSpaceOnUse" id="SVGID_16__" x1="27.1475" x2="27.1475" y1="20.6016" y2="-0.8683">
<stop offset="0" style="stop-color:#AAE535"/>
<stop offset="1" style="stop-color:#5D9C0A"/>
</linearGradient>
<path d="M27.676,19.979c-2.424-2.425-3.675-5.579-3.777-8.762c-0.112,3.465,1.139,6.966,3.777,9.606    l2.728-2.728c-0.143-0.144-0.27-0.294-0.4-0.444L27.676,19.979z" fill="url(#SVGID_16__)"/>
</g>
<g>
<linearGradient gradientUnits="userSpaceOnUse" id="SVGID_17__" x1="34.0488" x2="34.0488" y1="17.3809" y2="7.0927">
<stop offset="0" style="stop-color:#AAE535"/>
<stop offset="1" style="stop-color:#5D9C0A"/>
</linearGradient>
<path d="M33.865,16.521c-1.472-1.472-2.248-3.372-2.349-5.304c-0.114,2.212,0.662,4.463,2.349,6.148    l2.728-2.728c-0.146-0.144-0.261-0.306-0.38-0.465L33.865,16.521z" fill="url(#SVGID_17__)"/>
</g>
<g fill-opacity="0.6" stroke-opacity="0.6">
<path d="M27.674,3.302l2.329,2.325c0.131-0.149,0.258-0.301,0.4-0.443l-2.729-2.727    c-2.639,2.64-3.888,6.141-3.775,9.605C24.001,8.879,25.251,5.726,27.674,3.302z" fill="#FFFFFF"/>
</g>
<g fill-opacity="0.6" stroke-opacity="0.6">
<path d="M33.865,6.759l2.348,2.347c0.119-0.159,0.234-0.32,0.38-0.465l-2.728-2.728    c-1.687,1.687-2.463,3.938-2.349,6.149C31.617,10.131,32.394,8.23,33.865,6.759z" fill="#FFFFFF"/>
</g>
</g>
<g>
<linearGradient gradientTransform="matrix(0.7071 -0.7071 0.7071 0.7071 449.7858 369.3789)" gradientUnits="userSpaceOnUse" id="SVGID_18_" x1="-21.0962" x2="-34.2907" y1="-540.0996" y2="-527.0869">
<stop offset="0" style="stop-color:#C6FF45"/>
<stop offset="0.7273" style="stop-color:#66A00E"/>
<stop offset="1" style="stop-color:#387300"/>
</linearGradient>
<path d="M52.389,2.457l-2.729,2.727c3.56,3.56,3.559,9.354,0,12.913l2.727,2.728   C57.45,15.76,57.45,7.521,52.389,2.457z" fill="url(#SVGID_18_)"/>
<linearGradient gradientTransform="matrix(0.7071 -0.7071 0.7071 0.7071 449.7858 369.3789)" gradientUnits="userSpaceOnUse" id="SVGID_19_" x1="-25.9399" x2="-39.1338" y1="-545.0034" y2="-531.9913">
<stop offset="0" style="stop-color:#C6FF45"/>
<stop offset="0.7273" style="stop-color:#66A00E"/>
<stop offset="1" style="stop-color:#387300"/>
</linearGradient>
<path d="M46.197,5.913L43.47,8.641c1.654,1.654,1.654,4.345,0,5.998l2.728,2.728   C49.355,14.21,49.355,9.072,46.197,5.913z" fill="url(#SVGID_19_)"/>
<g>
<linearGradient gradientTransform="matrix(-1 0 0 1 1224.7676 0)" gradientUnits="userSpaceOnUse" id="SVGID_20_" x1="1171.8535" x2="1171.8535" y1="20.6016" y2="-0.8683">
<stop offset="0" style="stop-color:#AAE535"/>
<stop offset="1" style="stop-color:#5D9C0A"/>
</linearGradient>
<path d="M52.386,19.979c2.425-2.425,3.675-5.579,3.777-8.762c0.112,3.465-1.138,6.966-3.777,9.606    l-2.727-2.728c0.142-0.144,0.269-0.294,0.399-0.444L52.386,19.979z" fill="url(#SVGID_20_)"/>
</g>
<g>
<linearGradient gradientTransform="matrix(-1 0 0 1 1224.7676 0)" gradientUnits="userSpaceOnUse" id="SVGID_21_" x1="1178.7539" x2="1178.7539" y1="17.3809" y2="7.0927">
<stop offset="0" style="stop-color:#AAE535"/>
<stop offset="1" style="stop-color:#5D9C0A"/>
</linearGradient>
<path d="M46.197,16.521c1.471-1.472,2.248-3.372,2.349-5.304c0.114,2.212-0.663,4.463-2.349,6.148    l-2.728-2.728c0.145-0.144,0.261-0.306,0.379-0.465L46.197,16.521z" fill="url(#SVGID_21_)"/>
</g>
<g fill-opacity="0.6" stroke-opacity="0.6">
<path d="M52.389,3.302l-2.33,2.325c-0.131-0.149-0.258-0.301-0.399-0.443l2.729-2.727    c2.638,2.64,3.887,6.141,3.774,9.605C56.061,8.879,54.811,5.726,52.389,3.302z" fill="#FFFFFF"/>
</g>
<g fill-opacity="0.6" stroke-opacity="0.6">
<path d="M46.197,6.759l-2.349,2.347c-0.118-0.159-0.234-0.32-0.379-0.465l2.728-2.728    c1.686,1.687,2.463,3.938,2.349,6.149C48.445,10.131,47.668,8.23,46.197,6.759z" fill="#FFFFFF"/>
</g>
</g>
<linearGradient gradientUnits="userSpaceOnUse" id="SVGID_22_" x1="52.6523" x2="52.6523" y1="49.124" y2="52.6441">
<stop offset="0" style="stop-color:#334247"/>
<stop offset="1" style="stop-color:#446066"/>
</linearGradient>
<path d="M50.816,52.653c-0.687,0-1.225-0.461-1.225-1.05v-1.399c0-0.589,0.538-1.05,1.225-1.05h3.674  c0.686,0,1.224,0.461,1.224,1.05v1.399c0,0.589-0.538,1.05-1.224,1.05H50.816z" fill="url(#SVGID_22_)"/>
<path d="M55.102,51.604c0,0.241-0.273,0.438-0.611,0.438h-3.674c-0.339,0-0.612-0.196-0.612-0.438  v-1.399c0-0.241,0.273-0.438,0.612-0.438h3.674c0.338,0,0.611,0.196,0.611,0.438V51.604z" fill="#3FA9F5" fill-opacity="0.5" stroke-opacity="0.5"/>
</g>
</svg>
