<?xml version="1.0" encoding="UTF-8"?>
<!DOCTYPE svg PUBLIC "-//W3C//DTD SVG 1.1 Tiny//EN" "http://www.w3.org/Graphics/SVG/1.1/DTD/svg11-tiny.dtd">
<svg baseProfile="tiny" height="60" viewBox="0 0 60 60" width="60" xmlns="http://www.w3.org/2000/svg" xmlns:xlink="http://www.w3.org/1999/xlink">
<g>
<rect fill="none" height="60" width="60"/>
<linearGradient gradientTransform="matrix(-1 0 0 -1 347.4805 -351.0195)" gradientUnits="userSpaceOnUse" id="SVGID_1_" x1="317.4795" x2="317.4795" y1="-353.1133" y2="-388.9476">
<stop offset="0" style="stop-color:#B4DFC6"/>
<stop offset="0.7636" style="stop-color:#3F4A78"/>
<stop offset="1" style="stop-color:#72B9C3"/>
</linearGradient>
<path d="M35.41,9.28c-5.344,0-8.018,2.219-8.018,6.655c0,0.98,2.647,5.588,4.78,7.573  c2.721,2.551,4.625,4.69,5.715,6.419c1.092,1.73,1.639,3.84,1.639,6.342v2.06H28.018v-1.544c0-1.545-0.404-2.883-1.213-4.01  c-0.81-1.127-9.015-9.37-10.205-11.122c-1.188-1.752-1.783-3.891-1.783-6.417c0-4.341,1.545-7.63,4.635-9.873  C22.541,3.121,26.977,2,32.762,2c3.924,0,8.06,0.505,12.424,1.508v7.207C41.678,9.759,38.424,9.28,35.41,9.28z" fill="url(#SVGID_1_)"/>
<linearGradient gradientTransform="matrix(-1 0 0 -1 347.4805 -351.0195)" gradientUnits="userSpaceOnUse" id="SVGID_2_" x1="317.4795" x2="317.4795" y1="-353.5801" y2="-388.8177">
<stop offset="0" style="stop-color:#94CAC2"/>
<stop offset="1" style="stop-color:#546F9F"/>
</linearGradient>
<path d="M38.776,37.579H28.768v-0.794c0-1.697-0.455-3.193-1.354-4.447c-0.355-0.495-1.762-1.978-4.035-4.367  c-2.455-2.578-5.512-5.787-6.158-6.737c-1.097-1.62-1.654-3.637-1.654-5.996c0-4.122,1.414-7.154,4.326-9.266  c2.941-2.138,7.273-3.222,12.869-3.222c3.598,0,7.459,0.442,11.477,1.314l0.197,0.043v5.636l-0.309-0.075  c-3.088-0.754-6.022-1.137-8.717-1.137c-7.247,0-8.768,4.027-8.768,7.405c0,1.388,3.001,6.244,5.018,8.12  c2.661,2.496,4.545,4.606,5.596,6.272c1.009,1.6,1.521,3.598,1.521,5.941V37.579L38.776,37.579z" fill="url(#SVGID_2_)"/>
<linearGradient gradientTransform="matrix(-1 0 0 -1 347.4805 -351.0195)" gradientUnits="userSpaceOnUse" id="SVGID_3_" x1="314.1729" x2="314.1729" y1="-394.6963" y2="-409.1958">
<stop offset="0" style="stop-color:#B4DFC6"/>
<stop offset="0.7636" style="stop-color:#3F4A78"/>
<stop offset="1" style="stop-color:#72B9C3"/>
</linearGradient>
<path d="M28.291,55.941c-1.398-1.373-2.098-3.053-2.098-5.037c0-1.963,0.699-3.641,2.098-5.038  c1.396-1.397,3.076-2.095,5.037-2.095c1.959,0,3.633,0.697,5.018,2.095c1.383,1.397,2.076,3.075,2.076,5.038  c0,1.984-0.698,3.664-2.094,5.037c-1.398,1.373-3.063,2.059-5,2.059C31.367,58,29.687,57.314,28.291,55.941z" fill="url(#SVGID_3_)"/>
<linearGradient gradientTransform="matrix(-1 0 0 -1 347.4805 -351.0195)" gradientUnits="userSpaceOnUse" id="SVGID_4_" x1="314.1729" x2="314.1729" y1="-395.4565" y2="-408.4274">
<stop offset="0" style="stop-color:#8DC5C2"/>
<stop offset="0.1152" style="stop-color:#8DC5C2"/>
<stop offset="1" style="stop-color:#546F9F"/>
</linearGradient>
<path d="M33.328,57.25c-1.773,0-3.248-0.604-4.512-1.844c-1.26-1.237-1.873-2.711-1.873-4.502  c0-1.771,0.613-3.245,1.877-4.508c1.263-1.263,2.737-1.875,4.509-1.875c1.769,0,3.235,0.611,4.483,1.871  c1.252,1.267,1.859,2.74,1.859,4.512c0,1.791-0.611,3.265-1.869,4.502C36.539,56.646,35.076,57.25,33.328,57.25L33.328,57.25z" fill="url(#SVGID_4_)"/>
<rect fill="none" height="60" width="60"/>
</g>
</svg>
