<?xml version="1.0" encoding="UTF-8"?>
<!DOCTYPE svg PUBLIC "-//W3C//DTD SVG 1.1 Tiny//EN" "http://www.w3.org/Graphics/SVG/1.1/DTD/svg11-tiny.dtd">
<svg baseProfile="tiny" height="218px" version="1.1" viewBox="0 0 218 218" width="218px" x="0px" xmlns="http://www.w3.org/2000/svg" xmlns:xlink="http://www.w3.org/1999/xlink" y="0px">
<path d="M109,217C49.447,217,1,168.551,1,109C1,49.449,49.447,1,109,1s108,48.449,108,108  C217,168.551,168.553,217,109,217L109,217z" fill-opacity="0.4" stroke-opacity="0.4"/>
<linearGradient gradientUnits="userSpaceOnUse" id="SVGID_1_" x1="108.9995" x2="108.9995" y1="0.769" y2="216.5243">
<stop offset="0" style="stop-color:#666666"/>
<stop offset="0.55" style="stop-color:#000000"/>
<stop offset="1" style="stop-color:#1A1A1A"/>
</linearGradient>
<circle cx="109" cy="109" fill="url(#SVGID_1_)" r="107"/>
<linearGradient gradientUnits="userSpaceOnUse" id="SVGID_2_" x1="108.9995" x2="108.9995" y1="2" y2="216.0005">
<stop offset="0" style="stop-color:#CCCCCC"/>
<stop offset="1" style="stop-color:#333333"/>
</linearGradient>
<path d="M109,2C49.904,2,2,49.905,2,109s47.904,107,107,107s107-47.905,107-107  S168.096,2,109,2z M109,215C50.551,215,3,167.449,3,109C3,50.551,50.551,3,109,3s106,47.551,106,106  C215,167.449,167.449,215,109,215z" fill="url(#SVGID_2_)" fill-opacity="0.5" stroke-opacity="0.5"/>
<linearGradient gradientUnits="userSpaceOnUse" id="SVGID_3_" x1="109.0005" x2="109.0005" y1="207" y2="11.0005">
<stop offset="0" style="stop-color:#333333"/>
<stop offset="0.503" style="stop-color:#1A1A1A"/>
<stop offset="1" style="stop-color:#808080"/>
</linearGradient>
<path d="M109,207c-54.037,0-98-43.963-98-98c0-54.038,43.963-98,98-98s98,43.962,98,98  C207,163.037,163.037,207,109,207L109,207z" fill="url(#SVGID_3_)"/>
<linearGradient gradientUnits="userSpaceOnUse" id="SVGID_4_" x1="109.0005" x2="109.0005" y1="205" y2="13.0005">
<stop offset="0" style="stop-color:#323232"/>
<stop offset="1" style="stop-color:#232323"/>
</linearGradient>
<circle cx="109" cy="109" fill="url(#SVGID_4_)" r="96"/>
<path d="M109,13c-53.02,0-96,42.98-96,96s42.98,96,96,96c53.018,0,96-42.98,96-96S162.018,13,109,13z M109,204.01  c-52.389,0-95.012-42.621-95.012-95.01S56.611,13.99,109,13.99s95.012,42.622,95.012,95.01S161.389,204.01,109,204.01z" fill-opacity="0.5" stroke-opacity="0.5"/>
<linearGradient gradientUnits="userSpaceOnUse" id="SVGID_5_" x1="109.0005" x2="109.0005" y1="194" y2="24.0005">
<stop offset="0" style="stop-color:#505050"/>
<stop offset="0.5091" style="stop-color:#212121"/>
<stop offset="1" style="stop-color:#0F0F0F"/>
</linearGradient>
<circle cx="109" cy="109" fill="url(#SVGID_5_)" r="85"/>
<linearGradient gradientUnits="userSpaceOnUse" id="SVGID_6_" x1="108.9995" x2="108.9995" y1="26" y2="192.0005">
<stop offset="0" style="stop-color:#3C3C3C"/>
<stop offset="1" style="stop-color:#1E1E1E"/>
</linearGradient>
<path d="M109,192c-45.768,0-83-37.234-83-83c0-45.766,37.232-83,83-83c45.766,0,83,37.234,83,83  C192,154.766,154.766,192,109,192L109,192z" fill="url(#SVGID_6_)"/>
<circle cx="109" cy="109" r="3"/>
<linearGradient gradientUnits="userSpaceOnUse" id="SVGID_7_" x1="144.6318" x2="144.6318" y1="47.6289" y2="103.1662">
<stop offset="0" style="stop-color:#1E1E1E"/>
<stop offset="1" style="stop-color:#323232"/>
</linearGradient>
<path d="M122.639,104.336c-6.045,0-9.375-3.503-9.375-9.863v-21.79c0-6.603,5.48-8.945,10.174-8.945h0.445  c0.389,0,0.424-0.001,0.738-0.013l0.256-0.009c2.537-0.088,5.244-1.922,5.24-6.803c-0.002-4.133,1.121-7.164,3.338-9.007  c1.895-1.575,4.156-1.906,5.719-1.906c1.109,0,1.887,0.168,1.92,0.176c21.871,3.771,33.551,22.157,34.842,34.006  c0.369,3.37-0.855,7.082-3.191,9.688c-1.564,1.744-4.359,3.823-8.795,3.823c-6.643,0-9.273,2.29-10.676,4.012l-0.395,0.495  c-1.824,2.295-4.879,6.136-11.426,6.136H122.639z" fill="url(#SVGID_7_)"/>
<linearGradient gradientUnits="userSpaceOnUse" id="SVGID_8_" x1="144.6318" x2="144.6318" y1="103.7075" y2="46.4943">
<stop offset="0" style="stop-color:#4D4D4D"/>
<stop offset="1" style="stop-color:#000000"/>
</linearGradient>
<path d="M175.936,80.182c-1.291-11.849-12.971-30.235-34.842-34.006  c-0.033-0.007-0.811-0.176-1.92-0.176c-1.563,0-3.824,0.331-5.719,1.906c-2.217,1.843-3.34,4.874-3.338,9.007  c0.004,4.881-2.703,6.714-5.24,6.803l-0.256,0.009c-0.314,0.012-0.35,0.013-0.738,0.013h-0.445c-4.693,0-10.174,2.342-10.174,8.945  v21.79c0,6.36,3.33,9.863,9.375,9.863h18.814c6.547,0,9.602-3.841,11.426-6.136l0.395-0.495c1.402-1.722,4.033-4.012,10.676-4.012  c4.436,0,7.23-2.079,8.795-3.823C175.08,87.264,176.305,83.551,175.936,80.182z M163.949,92.693c-7.016,0-9.889,2.46-11.451,4.381  c-1.82,2.242-4.516,6.262-11.045,6.262c-6.527,0-11.668,0-18.814,0c-7.148,0-8.375-5.071-8.375-8.863c0-3.793,0-21.79,0-21.79  c0-5.885,4.762-7.945,9.174-7.945c0.996,0,0.752,0.003,1.475-0.022c3.309-0.115,6.209-2.57,6.205-7.803  c-0.008-11.916,9.76-9.759,9.76-9.759c21.521,3.711,32.832,21.829,34.064,33.137C175.518,85.565,171.789,92.693,163.949,92.693z" fill="url(#SVGID_8_)" fill-opacity="0.4" stroke-opacity="0.4"/>
<g>
<g>
<rect fill="#1B75BB" height="0.425" width="2.779" x="160.807" y="74.573"/>
<rect fill="#1B75BB" height="0.425" width="4.707" x="158.877" y="77.009"/>
<rect fill="#1B75BB" height="0.426" width="2.723" x="160.863" y="79.067"/>
<rect fill="#1B75BB" height="0.427" width="2.723" x="160.863" y="81.122"/>
<rect fill="#1B75BB" height="0.426" width="2.723" x="160.863" y="83.178"/>
<rect fill="#1B75BB" height="0.427" width="2.723" x="160.863" y="85.233"/>
<rect fill="#1B75BB" height="0.426" width="5" x="158.586" y="66.351"/>
<rect fill="#1B75BB" height="0.426" width="2.723" x="160.863" y="64.143"/>
<rect fill="#1B75BB" height="0.425" width="2.723" x="160.863" y="68.409"/>
<rect fill="#1B75BB" height="0.427" width="2.723" x="160.863" y="70.464"/>
<rect fill="#1B75BB" height="0.426" width="2.723" x="160.863" y="72.52"/>
</g>
</g>
<path d="M109,192c-45.768,0-83-37.234-83-83c0-45.766,37.232-83,83-83c45.766,0,83,37.234,83,83  C192,154.766,154.766,192,109,192L109,192z" fill="none"/>
<path d="M109,35c-2.205,0-4-1.794-4-4s1.795-4,4-4s4,1.794,4,4S111.205,35,109,35L109,35z" fill-opacity="0.3"/>
<circle cx="109" cy="31" fill="#E6E6E6" r="3"/>
<polygon fill-opacity="0.3" points="99.98,59 99.98,42.458 96.848,44.149 95.826,40.12 101.033,37.333 104.553,37.333 104.553,59   "/>
<path d="M100.98,40.814h-0.061l-3.418,1.846l-0.516-2.027l4.297-2.299h2.27V58h-2.572V40.814z" fill="#E6E6E6"/>
<path d="M107.455,59v-3.057l2.391-2.321c4.773-4.544,7.02-6.966,7.02-9.57c0-1.913-0.939-2.842-2.873-2.842  c-1.582,0-2.895,0.897-3.535,1.432l-1.01,0.842l-1.701-3.765l0.58-0.487c1.688-1.418,3.939-2.231,6.18-2.231  c4.85,0,7.021,3.375,7.021,6.719c0,4.053-2.961,7.295-6.869,11.072h7.354V59H107.455z" fill-opacity="0.3"/>
<path d="M108.455,58v-1.634l2.088-2.027c5.021-4.781,7.322-7.322,7.322-10.288c0-1.997-0.939-3.842-3.873-3.842  c-1.785,0-3.27,0.908-4.176,1.664l-0.848-1.875c1.332-1.12,3.299-1.997,5.537-1.997c4.236,0,6.021,2.905,6.021,5.719  c0,3.63-2.633,6.565-6.777,10.56l-1.543,1.452v0.061h8.805V58H108.455z" fill="#E6E6E6"/>
<path d="M146,44.915c-1.91-1.103-2.566-3.554-1.465-5.464c1.104-1.91,3.555-2.567,5.465-1.464  c1.91,1.103,2.566,3.554,1.463,5.464C150.361,45.36,147.91,46.017,146,44.915L146,44.915z" fill-opacity="0.3"/>
<circle cx="148" cy="41.45" fill="#E6E6E6" r="3"/>
<path d="M173.086,72c-1.104-1.91-0.447-4.361,1.463-5.464c1.91-1.103,4.361-0.446,5.465,1.464  s0.445,4.361-1.465,5.464C176.639,74.567,174.188,73.911,173.086,72L173.086,72z" fill-opacity="0.3"/>
<circle cx="176.549" cy="70" fill="#E6E6E6" r="3"/>
<path d="M183,109c0-2.206,1.793-4,4-4c2.205,0,4,1.794,4,4s-1.795,4-4,4C184.793,113,183,111.206,183,109  L183,109z" fill-opacity="0.3"/>
<circle cx="187" cy="109" fill="#E6E6E6" r="3"/>
<path d="M171.945,120c-2.459,0-4.541-0.793-5.576-1.473l-0.66-0.432l1.393-3.885l1.045,0.628  c0.648,0.39,2.172,1.048,3.77,1.048c1.189,0,2.088-0.301,2.672-0.895c0.654-0.665,0.711-1.506,0.703-1.837  c-0.029-2.749-3.336-2.888-4-2.888h-2.457v-3.964h2.457c1.334,0,3.316-0.605,3.316-2.274c0-1.254-0.828-1.917-2.393-1.917  c-1.297,0-2.582,0.589-3.289,1.094l-1.061,0.757l-1.439-3.844l0.623-0.446c1.082-0.772,3.217-1.675,5.672-1.675  c4.514,0,6.535,2.819,6.535,5.613c0,1.81-0.793,3.356-2.232,4.451c1.818,1.056,2.953,2.927,2.977,5.122  C180,116.474,177.479,120,171.945,120L171.945,120z" fill-opacity="0.3"/>
<path d="M167.631,115.696c0.744,0.446,2.441,1.19,4.285,1.19c3.334,0,4.406-2.113,4.375-3.75  c-0.029-2.708-2.469-3.869-5-3.869h-1.457v-1.964h1.457c1.906,0,4.316-0.982,4.316-3.274c0-1.548-0.982-2.917-3.393-2.917  c-1.549,0-3.035,0.684-3.869,1.28l-0.715-1.905c1.041-0.744,3.006-1.488,5.09-1.488c3.809,0,5.535,2.262,5.535,4.613  c0,2.023-1.221,3.72-3.57,4.583v0.06c2.381,0.446,4.285,2.232,4.314,4.941c0,3.094-2.441,5.803-7.055,5.803  c-2.172,0-4.076-0.685-5.029-1.309L167.631,115.696z" fill="#E6E6E6"/>
<path d="M173.084,146c1.104-1.91,3.555-2.566,5.465-1.464s2.566,3.554,1.465,5.464  c-1.104,1.91-3.555,2.567-5.465,1.465C172.639,150.361,171.982,147.91,173.084,146L173.084,146z" fill-opacity="0.3"/>
<circle cx="176.549" cy="148" fill="#E6E6E6" r="3"/>
<rect fill-opacity="0.3" height="5" transform="matrix(-0.866 -0.5 0.5 -0.866 232.2204 341.2252)" width="18" x="152.827" y="137"/>
<rect fill="#E6E6E6" height="16.001" transform="matrix(-0.5001 0.866 -0.866 -0.5001 363.5562 69.1177)" width="3" x="160.327" y="131.5"/>
<path d="M145.998,173.086c1.91-1.103,4.361-0.445,5.465,1.465s0.445,4.361-1.465,5.463  c-1.91,1.104-4.361,0.447-5.463-1.463C143.432,176.641,144.088,174.189,145.998,173.086L145.998,173.086z" fill-opacity="0.3"/>
<circle cx="147.999" cy="176.551" fill="#E6E6E6" r="3"/>
<rect fill-opacity="0.3" height="5" transform="matrix(-0.5 -0.866 0.866 -0.5 69.1053 363.5515)" width="18" x="130.499" y="159.327"/>
<rect fill="#E6E6E6" height="16" transform="matrix(-0.866 0.5001 -0.5001 -0.866 341.2293 232.2104)" width="3" x="138" y="153.828"/>
<path d="M108.998,183c2.207,0,4,1.795,4,4s-1.793,4-4,4c-2.205,0-4-1.795-4-4S106.793,183,108.998,183  L108.998,183z" fill-opacity="0.3"/>
<circle cx="108.998" cy="187" fill="#E6E6E6" r="3"/>
<path d="M109.178,181c-4.68,0-7.826-3.72-7.826-9.256c0-3.82,1.271-7.176,3.578-9.447  c1.762-1.729,4.105-2.814,6.779-3.141c0.664-0.103,1.355-0.156,2.029-0.156h1v4.203l-1.057-0.059  c-0.074-0.004-0.15-0.006-0.232-0.006c-0.412,0-0.922,0.049-1.52,0.144c-2.176,0.345-3.885,1.466-4.91,3.146  c0.852-0.355,1.795-0.543,2.783-0.543c4.029,0,6.844,2.985,6.844,7.26C116.646,176.953,114.029,181,109.178,181L109.178,181z   M108.998,169.883c-1.18,0-2.342,0.736-2.891,1.831c-0.08,0.16-0.162,0.368-0.162,0.685c0.01,1.066,0.277,4.574,3.293,4.574  c1.674,0,2.754-1.433,2.754-3.649C111.992,171.137,110.902,169.883,108.998,169.883L108.998,169.883z" fill-opacity="0.3"/>
<path d="M113.738,162.146c-0.537-0.03-1.223,0.029-1.967,0.148c-4.145,0.656-6.289,3.637-6.736,6.855h0.059  c0.924-1.252,2.564-2.266,4.709-2.266c3.43,0,5.844,2.504,5.844,6.26c0,3.576-2.414,6.855-6.469,6.855  c-4.113,0-6.826-3.219-6.826-8.256c0-3.816,1.342-6.826,3.279-8.734c1.609-1.579,3.756-2.563,6.199-2.861  c0.775-0.119,1.432-0.148,1.908-0.148V162.146z M112.992,173.323c0-2.772-1.578-4.44-3.994-4.44c-1.578,0-3.068,0.953-3.785,2.384  c-0.148,0.298-0.268,0.655-0.268,1.132c0.029,3.189,1.52,5.574,4.293,5.574C111.473,177.973,112.992,176.096,112.992,173.323z" fill="#E6E6E6"/>
<path d="M71.998,173.086c1.91,1.103,2.568,3.554,1.465,5.464s-3.555,2.567-5.465,1.464  c-1.91-1.103-2.566-3.554-1.465-5.464C67.637,172.64,70.088,171.982,71.998,173.086L71.998,173.086z" fill-opacity="0.3"/>
<circle cx="69.999" cy="176.55" fill="#E6E6E6" r="3"/>
<rect fill-opacity="0.3" height="5" transform="matrix(0.5 -0.866 0.866 0.5 -100.8975 148.898)" width="18" x="69.499" y="159.328"/>
<rect fill="#E6E6E6" height="16" transform="matrix(-0.866 -0.5001 0.5001 -0.866 65.5566 341.2236)" width="3" x="77" y="153.828"/>
<path d="M44.912,146c1.104,1.91,0.447,4.361-1.463,5.464s-4.361,0.446-5.465-1.464  c-1.102-1.91-0.445-4.361,1.465-5.465C41.359,143.433,43.811,144.09,44.912,146L44.912,146z" fill-opacity="0.3"/>
<circle cx="41.449" cy="148" fill="#E6E6E6" r="3"/>
<rect fill-opacity="0.3" height="5" transform="matrix(0.866 -0.5 0.5 0.866 -62.2208 46.7708)" width="18.001" x="47.171" y="137"/>
<rect fill="#E6E6E6" height="15.999" transform="matrix(-0.5001 -0.866 0.866 -0.5001 -36.5445 257.9028)" width="3" x="54.672" y="131.5"/>
<path d="M34.998,109c0.002,2.205-1.793,4-3.998,4c-2.207,0-4-1.795-4-4s1.793-4,3.998-4  C33.205,105,35,106.794,34.998,109L34.998,109z" fill-opacity="0.3"/>
<circle cx="31" cy="109" fill="#E6E6E6" r="3"/>
<path d="M42.107,120.07c-0.18,0-0.348-0.005-0.506-0.012l-0.951-0.047v-4.223l1.105,0.115  c0.125,0.014,0.256,0.02,0.396,0.02c0.404,0,0.889-0.045,1.529-0.109c1.377-0.19,2.594-0.749,3.48-1.611  c0.596-0.541,1.082-1.185,1.459-1.929c-0.869,0.366-1.84,0.556-2.893,0.556c-3.898,0-6.729-2.932-6.729-6.97  c0-4.447,3.365-7.93,7.66-7.93c4.525,0,7.449,3.631,7.449,9.25c0,5.197-1.992,8.219-3.664,9.838  c-1.615,1.584-3.838,2.609-6.252,2.885C43.502,120.012,42.785,120.07,42.107,120.07L42.107,120.07z M46.42,101.94  c-1.654,0-2.811,1.55-2.811,3.77c0,1.907,1.08,3.14,2.75,3.14c1.293,0,2.408-0.579,2.979-1.548c0.057-0.101,0.102-0.203,0.102-0.481  C49.439,104.998,49.047,101.94,46.42,101.94L46.42,101.94z" fill-opacity="0.3"/>
<path d="M41.65,116.899c0.568,0.06,1.229,0,2.129-0.09c1.529-0.21,2.971-0.81,4.08-1.89  c1.289-1.17,2.221-2.881,2.58-5.16h-0.09c-1.08,1.32-2.641,2.07-4.621,2.07c-3.479,0-5.729-2.641-5.729-5.97  c0-3.69,2.67-6.93,6.66-6.93c3.988,0,6.449,3.21,6.449,8.25c0,4.26-1.439,7.26-3.359,9.119c-1.5,1.471-3.57,2.371-5.67,2.61  c-0.961,0.149-1.801,0.181-2.43,0.149V116.899z M42.609,105.71c0,2.43,1.471,4.14,3.75,4.14c1.77,0,3.15-0.87,3.84-2.04  c0.15-0.27,0.24-0.54,0.24-0.99c0-3.33-1.23-5.88-4.02-5.88C44.199,100.94,42.609,102.92,42.609,105.71z" fill="#E6E6E6"/>
<path d="M44.912,72c-1.102,1.91-3.553,2.566-5.463,1.464c-1.91-1.103-2.566-3.554-1.463-5.464  c1.102-1.91,3.553-2.567,5.463-1.465C45.359,67.638,46.016,70.089,44.912,72L44.912,72z" fill-opacity="0.3"/>
<circle cx="41.449" cy="70" fill="#E6E6E6" r="3"/>
<rect fill-opacity="0.3" height="5" transform="matrix(0.866 0.5 -0.5 0.866 46.7719 -17.5686)" width="18.001" x="47.171" y="76"/>
<rect fill="#E6E6E6" height="15.999" transform="matrix(0.5001 -0.866 0.866 0.5001 -39.8977 87.8895)" width="3" x="54.672" y="70.5"/>
<path d="M71.998,44.914c-1.908,1.103-4.359,0.446-5.463-1.464C65.434,41.54,66.09,39.088,68,37.986  c1.91-1.103,4.361-0.447,5.465,1.463C74.566,41.36,73.91,43.811,71.998,44.914L71.998,44.914z" fill-opacity="0.3"/>
<circle cx="70" cy="41.45" fill="#E6E6E6" r="3"/>
<rect fill-opacity="0.3" height="5" transform="matrix(0.5 0.866 -0.866 0.5 87.896 -39.896)" width="18" x="69.499" y="53.672"/>
<rect fill="#E6E6E6" height="16" transform="matrix(0.866 -0.5001 0.5001 0.866 -17.5698 46.7824)" width="3" x="77" y="48.172"/>
<rect fill="#C8C8C8" height="6" transform="matrix(0.9945 -0.1045 0.1045 0.9945 -1.492 10.5173)" width="1" x="99.092" y="16.493"/>
<rect fill="#C8C8C8" height="6" transform="matrix(0.9945 -0.1043 0.1043 0.9945 -20.064 13.4367)" width="1.002" x="117.906" y="195.508"/>
<rect fill="#C8C8C8" height="6" transform="matrix(0.9781 -0.2079 0.2079 0.9781 -2.3862 19.2317)" width="1" x="89.788" y="17.966"/>
<rect fill="#C8C8C8" height="6" transform="matrix(0.9779 -0.2089 0.2089 0.9779 -38.3362 31.0198)" width="1.001" x="127.212" y="194.033"/>
<rect fill="#C8C8C8" height="6" transform="matrix(0.9512 -0.3085 0.3085 0.9512 -3.2603 26.1854)" width="1.002" x="80.687" y="20.404"/>
<rect fill="#C8C8C8" height="6" transform="matrix(0.951 -0.3092 0.3092 0.951 -53.4609 51.8325)" width="0.998" x="136.311" y="191.595"/>
<rect fill="#C8C8C8" height="6" transform="matrix(0.9134 -0.407 0.407 0.9134 -4.6326 31.7787)" width="1.001" x="71.893" y="23.78"/>
<rect fill="#C8C8C8" height="6" transform="matrix(0.9138 -0.4061 0.4061 0.9138 -65.1119 75.6173)" width="1" x="145.106" y="188.219"/>
<rect fill="#C8C8C8" height="6" transform="matrix(0.809 -0.5878 0.5878 0.809 -10.5565 39.8841)" width="1.002" x="55.599" y="33.188"/>
<rect fill="#C8C8C8" height="6.001" transform="matrix(0.8093 -0.5874 0.5874 0.8093 -75.9222 129.777)" width="0.999" x="161.401" y="178.811"/>
<rect fill="#C8C8C8" height="6.001" transform="matrix(0.7423 -0.67 0.67 0.7423 -15.6508 43.5354)" width="1" x="48.277" y="39.116"/>
<rect fill="#C8C8C8" height="6.001" transform="matrix(0.7437 -0.6685 0.6685 0.7437 -74.209 158.2122)" width="1.001" x="168.721" y="172.882"/>
<rect fill="#C8C8C8" height="6" transform="matrix(0.6682 -0.7439 0.7439 0.6682 -22.3154 47.515)" width="1" x="41.616" y="45.778"/>
<rect fill="#C8C8C8" height="6.001" transform="matrix(0.6696 -0.7428 0.7428 0.6696 -67.5716 186.5566)" width="1.001" x="175.383" y="166.221"/>
<rect fill="#C8C8C8" height="5.999" transform="matrix(0.5876 -0.8092 0.8092 0.5876 -30.4686 52.417)" width="1.001" x="35.687" y="53.099"/>
<rect fill="#C8C8C8" height="6.001" transform="matrix(0.5881 -0.8088 0.8088 0.5881 -56.0521 213.7469)" width="1" x="181.312" y="158.9"/>
<rect fill="#C8C8C8" height="6.001" transform="matrix(0.4061 -0.9138 0.9138 0.4061 -50.2498 67.4636)" width="1" x="26.28" y="69.393"/>
<rect fill="#C8C8C8" height="6.001" transform="matrix(0.4065 -0.9137 0.9137 0.4065 -19.5454 261.1232)" width="0.999" x="190.718" y="142.605"/>
<rect fill="#C8C8C8" height="6.001" transform="matrix(0.3085 -0.9512 0.9512 0.3085 -61.0438 78.4079)" width="1" x="22.904" y="78.187"/>
<rect fill="#C8C8C8" height="6" transform="matrix(0.3109 -0.9504 0.9504 0.3109 4.0573 279.2194)" width="0.999" x="194.095" y="133.811"/>
<rect fill="#C8C8C8" height="6" transform="matrix(0.207 -0.9783 0.9783 0.207 -71.7059 92.1101)" width="1" x="20.466" y="87.287"/>
<rect fill="#C8C8C8" height="6" transform="matrix(0.2093 -0.9779 0.9779 0.2093 30.9173 293.6575)" width="0.999" x="196.534" y="124.712"/>
<rect fill="#C8C8C8" height="6" transform="matrix(0.1035 -0.9946 0.9946 0.1035 -81.5823 108.67)" width="1" x="18.992" y="96.592"/>
<rect fill="#C8C8C8" height="6" transform="matrix(0.1056 -0.9944 0.9944 0.1056 59.7992 303.3002)" width="0.999" x="198.007" y="115.407"/>
<rect fill="#C8C8C8" height="6" transform="matrix(-0.1054 -0.9944 0.9944 -0.1054 -96.1991 150.2704)" width="1.001" x="18.993" y="115.406"/>
<rect fill="#C8C8C8" height="6.002" transform="matrix(-0.1037 -0.9946 0.9946 -0.1037 120.0297 307.354)" width="0.999" x="198.008" y="96.591"/>
<rect fill="#C8C8C8" height="5.998" transform="matrix(-0.207 -0.9783 0.9783 -0.207 -99.6387 174.6597)" width="1" x="20.467" y="124.712"/>
<rect fill="#C8C8C8" height="6.002" transform="matrix(-0.2074 -0.9783 0.9783 -0.2074 149.5712 301.7621)" width="0.998" x="196.534" y="87.287"/>
<rect fill="#C8C8C8" height="6" transform="matrix(-0.3086 -0.9512 0.9512 -0.3086 -99.5062 201.2923)" width="1" x="22.904" y="133.81"/>
<rect fill="#C8C8C8" height="6.001" transform="matrix(-0.3073 -0.9516 0.9516 -0.3073 177.1251 291.3155)" width="0.998" x="194.096" y="78.188"/>
<rect fill="#C8C8C8" height="6.001" transform="matrix(-0.4078 -0.9131 0.9131 -0.4078 -95.2513 229.4304)" width="1.001" x="26.279" y="142.605"/>
<rect fill="#C8C8C8" height="6.001" transform="matrix(-0.4052 -0.9142 0.9142 -0.4052 202.5231 276.5446)" width="0.998" x="190.72" y="69.393"/>
<rect fill="#C8C8C8" height="5.999" transform="matrix(-0.5881 -0.8088 0.8088 -0.5881 -73.4802 286.3752)" width="1" x="35.688" y="158.9"/>
<polygon fill="#C8C8C8" points="183.947,53.931 184.531,54.739 179.678,58.267 179.088,57.457 "/>
<rect fill="#C8C8C8" height="5.999" transform="matrix(-0.668 -0.7442 0.7442 -0.668 -55.679 313.6005)" width="1" x="41.616" y="166.221"/>
<rect fill="#C8C8C8" height="6.002" transform="matrix(-0.6687 -0.7435 0.7435 -0.6687 257.2327 212.1673)" width="0.999" x="175.383" y="45.777"/>
<rect fill="#C8C8C8" height="5.998" transform="matrix(-0.7423 -0.67 0.67 -0.7423 -32.8609 339.1264)" width="1" x="48.278" y="172.883"/>
<rect fill="#C8C8C8" height="6.001" transform="matrix(-0.7419 -0.6705 0.6705 -0.7419 266.5343 186.8228)" width="0.998" x="168.723" y="39.116"/>
<rect fill="#C8C8C8" height="6" transform="matrix(-0.8095 -0.5871 0.5871 -0.8095 -5.2358 361.9222)" width="1.001" x="55.598" y="178.811"/>
<rect fill="#C8C8C8" height="6.001" transform="matrix(-0.8081 -0.589 0.589 -0.8081 271.4269 160.7898)" width="0.998" x="161.402" y="33.187"/>
<rect fill="#C8C8C8" height="6" transform="matrix(-0.9134 -0.407 0.407 -0.9134 60.7026 395.3468)" width="1.001" x="71.892" y="188.218"/>
<rect fill="#C8C8C8" height="6.001" transform="matrix(-0.9129 -0.4081 0.4081 -0.9129 267.6084 110.6479)" width="0.999" x="145.107" y="23.779"/>
<rect fill="#C8C8C8" height="6" transform="matrix(-0.9514 -0.308 0.308 -0.9514 98.487 404.7348)" width="1.002" x="80.687" y="191.594"/>
<rect fill="#C8C8C8" height="6" transform="matrix(-0.9502 -0.3115 0.3115 -0.9502 259.5264 88.2621)" width="0.997" x="136.314" y="20.403"/>
<rect fill="#C8C8C8" height="6" transform="matrix(-0.9783 -0.207 0.207 -0.9783 137.8342 408.4861)" width="1" x="89.787" y="194.032"/>
<rect fill="#C8C8C8" height="6.001" transform="matrix(-0.9777 -0.2102 0.2102 -0.9777 248.1638 68.3064)" width="0.999" x="127.212" y="17.965"/>
<rect fill="#C8C8C8" height="6" transform="matrix(-0.9946 -0.1034 0.1034 -0.9946 178.1316 406.2427)" width="1.001" x="99.091" y="195.506"/>
<rect fill="#C8C8C8" height="6" transform="matrix(-0.9943 -0.1067 0.1067 -0.9943 234.0617 51.502)" width="0.998" x="117.909" y="16.491"/>
<g>
<g>
<path d="M106.73,14.909c0.752,0,1.318,0.267,1.703,0.801s0.576,1.476,0.576,2.827c0,1.481-0.193,2.486-0.584,3.015    c-0.389,0.529-0.963,0.793-1.721,0.793c-0.664,0-1.166-0.176-1.504-0.527s-0.559-0.796-0.662-1.333    c-0.102-0.537-0.152-1.187-0.152-1.948c0-1.325,0.195-2.261,0.59-2.808S105.955,14.909,106.73,14.909z M106.695,21.535    c0.332,0,0.576-0.187,0.73-0.559s0.232-1.186,0.232-2.439c0-1.205-0.08-1.975-0.24-2.312s-0.4-0.505-0.723-0.505    c-0.293,0-0.508,0.117-0.646,0.352s-0.225,0.541-0.26,0.918c-0.033,0.377-0.051,0.894-0.051,1.548c0,1.289,0.076,2.111,0.23,2.466    C106.121,21.358,106.363,21.535,106.695,21.535z" fill="#C8C8C8"/>
<path d="M111.811,14.909c0.752,0,1.32,0.267,1.705,0.801c0.383,0.534,0.576,1.476,0.576,2.827    c0,1.481-0.195,2.486-0.584,3.015s-0.963,0.793-1.721,0.793c-0.664,0-1.166-0.176-1.504-0.527    c-0.34-0.352-0.561-0.796-0.662-1.333c-0.104-0.537-0.154-1.187-0.154-1.948c0-1.325,0.197-2.261,0.592-2.808    C110.451,15.183,111.035,14.909,111.811,14.909z M111.777,21.535c0.332,0,0.574-0.187,0.729-0.559    c0.156-0.373,0.232-1.186,0.232-2.439c0-1.205-0.08-1.975-0.238-2.312c-0.16-0.337-0.4-0.505-0.723-0.505    c-0.293,0-0.51,0.117-0.648,0.352c-0.137,0.234-0.225,0.541-0.258,0.918c-0.035,0.377-0.051,0.894-0.051,1.548    c0,1.289,0.076,2.111,0.229,2.466S111.445,21.535,111.777,21.535z" fill="#C8C8C8"/>
</g>
</g>
<g>
<g>
<path d="M26.832,64.971l1.57,0.905c0.037-0.079,0.113-0.218,0.229-0.415c0.361-0.629,0.807-1.015,1.334-1.16    c0.527-0.145,1.107-0.034,1.742,0.332c0.723,0.417,1.152,0.911,1.291,1.481c0.139,0.571-0.012,1.235-0.449,1.994    c-0.25,0.431-0.58,0.856-0.99,1.276l-0.746-0.43l0.006-0.008c0.439-0.442,0.74-0.804,0.902-1.086    c0.244-0.423,0.316-0.798,0.213-1.125c-0.102-0.328-0.389-0.628-0.863-0.902c-0.416-0.241-0.795-0.311-1.133-0.209    c-0.34,0.102-0.637,0.375-0.895,0.82c-0.178,0.308-0.342,0.624-0.492,0.95l-3.066-1.77l1.881-3.257l0.727,0.42L26.832,64.971z" fill="#C8C8C8"/>
<path d="M28.92,59.52c0.377-0.651,0.891-1.01,1.545-1.076c0.654-0.065,1.566,0.239,2.736,0.915    c1.283,0.74,2.057,1.411,2.32,2.013s0.205,1.23-0.174,1.888c-0.332,0.575-0.734,0.921-1.209,1.038    c-0.473,0.118-0.969,0.087-1.484-0.093c-0.518-0.18-1.105-0.46-1.764-0.841c-1.148-0.663-1.859-1.301-2.137-1.916    C28.477,60.833,28.533,60.19,28.92,59.52z M34.641,62.861c0.166-0.287,0.127-0.591-0.119-0.911    c-0.244-0.32-0.91-0.794-1.996-1.421c-1.043-0.602-1.75-0.918-2.121-0.948c-0.373-0.03-0.639,0.094-0.799,0.373    c-0.146,0.254-0.154,0.499-0.02,0.736c0.135,0.236,0.355,0.464,0.666,0.682c0.309,0.219,0.748,0.492,1.314,0.819    c1.117,0.645,1.865,0.989,2.25,1.034C34.199,63.271,34.475,63.149,34.641,62.861z" fill="#C8C8C8"/>
</g>
</g>
<g>
<g>
<path d="M19.826,108.88h0.84v0.752h1.602v1.319h-1.602v2.93h-0.801l-3.746-2.291l-1.172-0.717v-1.241h4.879V108.88    z M19.826,112.859v-1.908h-3.209L19.826,112.859z" fill="#C8C8C8"/>
<path d="M15.826,106.861h1.813c-0.008-0.088-0.01-0.246-0.01-0.474c0-0.726,0.191-1.283,0.576-1.672    c0.383-0.389,0.941-0.583,1.674-0.583c0.834,0,1.453,0.212,1.857,0.637c0.406,0.425,0.609,1.075,0.609,1.951    c0,0.498-0.074,1.032-0.221,1.602h-0.859v-0.01c0.16-0.602,0.24-1.066,0.24-1.392c0-0.488-0.127-0.849-0.379-1.082    s-0.652-0.349-1.199-0.349c-0.482,0-0.844,0.128-1.086,0.386s-0.363,0.643-0.363,1.157c0,0.355,0.016,0.711,0.049,1.069h-3.541    v-3.76h0.84V106.861z" fill="#C8C8C8"/>
</g>
</g>
<g>
<g>
<path d="M31.719,153.494l0.727-0.42l0.377,0.65l1.387-0.801l0.658,1.143l-1.387,0.801l1.465,2.537l-0.693,0.4    l-4.389-0.111l-1.373-0.035l-0.621-1.074l4.225-2.439L31.719,153.494z M33.709,156.939l-0.955-1.652l-2.779,1.604L33.709,156.939z    " fill="#C8C8C8"/>
<path d="M26.109,153.611c-0.377-0.651-0.43-1.276-0.16-1.877c0.271-0.599,0.99-1.236,2.16-1.912    c1.283-0.74,2.252-1.074,2.904-1.002s1.168,0.438,1.547,1.094c0.332,0.575,0.432,1.098,0.295,1.566    c-0.135,0.469-0.408,0.882-0.822,1.239s-0.951,0.727-1.611,1.107c-1.146,0.662-2.055,0.96-2.727,0.892    C27.025,154.651,26.496,154.282,26.109,153.611z M31.863,150.328c-0.166-0.288-0.449-0.405-0.848-0.353    c-0.4,0.052-1.145,0.392-2.229,1.019c-1.043,0.602-1.672,1.056-1.883,1.363c-0.213,0.307-0.238,0.6-0.076,0.878    c0.146,0.254,0.355,0.382,0.627,0.385c0.273,0.003,0.582-0.076,0.926-0.235s0.799-0.402,1.365-0.729    c1.117-0.645,1.789-1.122,2.021-1.432C31.998,150.914,32.029,150.615,31.863,150.328z" fill="#C8C8C8"/>
</g>
</g>
<g>
<g>
<path d="M66.873,189.745c-0.828-0.479-1.395-0.692-1.699-0.642c-0.303,0.05-0.555,0.25-0.758,0.6    c-0.176,0.307-0.229,0.585-0.152,0.836c0.076,0.25,0.277,0.47,0.604,0.658c0.287,0.166,0.734,0.328,1.338,0.485l0.008,0.005    l-0.43,0.744c-0.605-0.174-1.123-0.384-1.551-0.631c-0.646-0.373-1.057-0.783-1.23-1.229c-0.176-0.446-0.111-0.929,0.188-1.448    c0.207-0.357,0.482-0.609,0.824-0.755c0.344-0.146,0.729-0.167,1.154-0.064c-0.354-0.298-0.561-0.638-0.621-1.021    c-0.059-0.382,0.025-0.769,0.25-1.16c0.373-0.646,0.842-1.021,1.404-1.127s1.221,0.059,1.973,0.494    c0.451,0.26,0.875,0.594,1.271,0.999l-0.424,0.735l-0.008-0.004c-0.473-0.458-0.869-0.778-1.188-0.963    c-0.385-0.221-0.727-0.291-1.031-0.209c-0.307,0.082-0.568,0.315-0.793,0.701c-0.238,0.415-0.295,0.779-0.168,1.093    c0.127,0.314,0.609,0.713,1.447,1.196L66.873,189.745z" fill="#C8C8C8"/>
<path d="M60.561,188.621l0.906-1.568c-0.08-0.039-0.217-0.115-0.416-0.229c-0.629-0.363-1.014-0.809-1.16-1.335    c-0.145-0.528-0.033-1.108,0.332-1.743c0.418-0.721,0.912-1.151,1.482-1.29s1.234,0.012,1.992,0.449    c0.432,0.249,0.857,0.579,1.277,0.991l-0.43,0.744l-0.008-0.005c-0.441-0.439-0.805-0.74-1.086-0.903    c-0.424-0.244-0.799-0.314-1.125-0.213c-0.328,0.102-0.629,0.39-0.902,0.863c-0.24,0.418-0.311,0.795-0.209,1.134    s0.375,0.637,0.82,0.894c0.307,0.178,0.623,0.342,0.949,0.492l-1.77,3.066l-3.256-1.88l0.42-0.728L60.561,188.621z" fill="#C8C8C8"/>
</g>
</g>
<g>
<g>
<path d="M112.9,199.99c-0.957,0-1.555,0.098-1.793,0.293c-0.236,0.195-0.355,0.495-0.355,0.898    c0,0.355,0.096,0.622,0.285,0.801c0.191,0.18,0.475,0.27,0.852,0.27c0.332,0,0.801-0.084,1.402-0.25h0.01v0.859    c-0.611,0.153-1.166,0.23-1.66,0.23c-0.746,0-1.305-0.15-1.68-0.449c-0.375-0.3-0.563-0.749-0.563-1.348    c0-0.414,0.113-0.77,0.338-1.067s0.547-0.509,0.967-0.632c-0.455-0.082-0.805-0.273-1.047-0.574    c-0.244-0.301-0.365-0.678-0.365-1.131c0-0.745,0.219-1.305,0.652-1.677c0.436-0.372,1.086-0.56,1.955-0.56    c0.521,0,1.055,0.077,1.602,0.23v0.85h-0.01c-0.637-0.16-1.141-0.24-1.508-0.24c-0.443,0-0.775,0.111-0.998,0.335    c-0.225,0.224-0.336,0.558-0.336,1.003c0,0.479,0.135,0.822,0.4,1.031c0.268,0.208,0.885,0.313,1.852,0.313V199.99z" fill="#C8C8C8"/>
<path d="M106.188,203.092c-0.752,0-1.318-0.268-1.703-0.801c-0.385-0.534-0.576-1.477-0.576-2.828    c0-1.48,0.193-2.486,0.584-3.015c0.389-0.528,0.963-0.794,1.721-0.794c0.664,0,1.166,0.176,1.504,0.527s0.559,0.797,0.662,1.334    c0.102,0.537,0.152,1.186,0.152,1.947c0,1.325-0.195,2.262-0.59,2.809S106.963,203.092,106.188,203.092z M106.223,196.465    c-0.332,0-0.576,0.188-0.73,0.56s-0.232,1.186-0.232,2.438c0,1.205,0.08,1.976,0.24,2.313s0.4,0.506,0.723,0.506    c0.293,0,0.508-0.117,0.646-0.352s0.225-0.541,0.26-0.918c0.033-0.378,0.051-0.895,0.051-1.549c0-1.289-0.076-2.11-0.23-2.465    C106.797,196.643,106.555,196.465,106.223,196.465z" fill="#C8C8C8"/>
</g>
</g>
<g>
<g>
<path d="M152.959,184.752l-0.426-0.736l3.771-2.178l0.268,0.461c0.254,0.44,0.402,0.875,0.447,1.304    s0.025,0.828-0.059,1.198c-0.084,0.369-0.213,0.796-0.387,1.281c-0.211,0.579-0.316,0.995-0.313,1.246    c0.002,0.25,0.057,0.469,0.164,0.654c0.188,0.327,0.416,0.523,0.686,0.588c0.268,0.065,0.576-0.002,0.922-0.203    c0.367-0.211,0.756-0.563,1.17-1.053l0.008-0.004l0.436,0.752c-0.449,0.488-0.932,0.882-1.451,1.182    c-0.639,0.369-1.207,0.51-1.701,0.421c-0.494-0.088-0.9-0.406-1.215-0.952c-0.178-0.309-0.277-0.653-0.301-1.037    c-0.021-0.384,0.111-0.969,0.396-1.754c0.16-0.441,0.275-0.8,0.35-1.076c0.074-0.275,0.111-0.553,0.109-0.832    s-0.07-0.547-0.203-0.805L152.959,184.752z" fill="#C8C8C8"/>
<path d="M153.734,190.76l-0.906-1.568c-0.072,0.049-0.207,0.131-0.404,0.244c-0.629,0.363-1.209,0.477-1.736,0.338    c-0.529-0.139-0.977-0.524-1.344-1.158c-0.416-0.723-0.543-1.364-0.377-1.928s0.627-1.064,1.385-1.502    c0.432-0.249,0.932-0.452,1.498-0.611l0.43,0.745l-0.01,0.005c-0.602,0.162-1.041,0.325-1.324,0.488    c-0.422,0.244-0.672,0.533-0.748,0.868c-0.074,0.335,0.025,0.739,0.299,1.213c0.24,0.417,0.531,0.667,0.877,0.748    c0.344,0.082,0.738-0.006,1.184-0.263c0.307-0.178,0.607-0.37,0.902-0.578l1.77,3.066l-3.256,1.88l-0.42-0.728L153.734,190.76z" fill="#C8C8C8"/>
</g>
</g>
<g>
<g>
<path d="M184.949,152.614l-0.736-0.425l2.178-3.771l0.461,0.266c0.439,0.254,0.787,0.556,1.039,0.904    c0.254,0.35,0.438,0.705,0.549,1.066c0.113,0.362,0.215,0.797,0.305,1.304c0.107,0.607,0.225,1.02,0.354,1.235    c0.127,0.216,0.283,0.378,0.469,0.485c0.326,0.188,0.623,0.244,0.889,0.166c0.264-0.078,0.498-0.29,0.697-0.638    c0.211-0.366,0.373-0.864,0.486-1.495l0.004-0.009l0.754,0.435c-0.145,0.646-0.367,1.229-0.666,1.747    c-0.369,0.641-0.791,1.045-1.264,1.217c-0.473,0.17-0.982,0.098-1.527-0.218c-0.309-0.178-0.568-0.427-0.779-0.748    s-0.389-0.894-0.533-1.718c-0.082-0.461-0.162-0.83-0.234-1.105c-0.074-0.275-0.182-0.534-0.322-0.775    c-0.141-0.24-0.334-0.439-0.578-0.596L184.949,152.614z" fill="#C8C8C8"/>
<path d="M189.078,158.48c-0.377,0.65-0.893,1.009-1.545,1.075c-0.656,0.065-1.566-0.239-2.736-0.915    c-1.283-0.74-2.057-1.411-2.32-2.013c-0.264-0.601-0.205-1.23,0.174-1.888c0.332-0.574,0.734-0.921,1.209-1.038    c0.473-0.118,0.969-0.087,1.484,0.093s1.105,0.461,1.764,0.842c1.148,0.662,1.859,1.301,2.137,1.915    C189.52,157.166,189.465,157.809,189.078,158.48z M183.357,155.138c-0.166,0.288-0.127,0.591,0.119,0.911    c0.244,0.32,0.91,0.794,1.996,1.421c1.043,0.603,1.75,0.919,2.121,0.948c0.371,0.03,0.639-0.094,0.799-0.373    c0.146-0.254,0.154-0.499,0.02-0.736c-0.135-0.236-0.355-0.464-0.666-0.683c-0.311-0.218-0.748-0.491-1.314-0.818    c-1.117-0.645-1.867-0.989-2.25-1.034C183.797,154.729,183.523,154.85,183.357,155.138z" fill="#C8C8C8"/>
</g>
</g>
<g>
<g>
<path d="M59.865,29.781l0.904,1.569c0.074-0.049,0.209-0.131,0.406-0.245c0.629-0.363,1.207-0.476,1.736-0.337    s0.977,0.524,1.342,1.159c0.418,0.722,0.543,1.364,0.377,1.927c-0.164,0.563-0.627,1.064-1.385,1.502    c-0.432,0.249-0.93,0.452-1.496,0.611l-0.43-0.745l0.008-0.005c0.602-0.162,1.043-0.325,1.324-0.488    c0.424-0.244,0.672-0.534,0.748-0.868c0.076-0.335-0.023-0.739-0.297-1.213c-0.24-0.417-0.533-0.667-0.877-0.748    c-0.344-0.082-0.738,0.006-1.184,0.263c-0.309,0.177-0.609,0.37-0.902,0.577l-1.77-3.066l3.256-1.88l0.42,0.728L59.865,29.781z" fill="#C8C8C8"/>
<path d="M64.266,27.241l0.904,1.569c0.074-0.049,0.209-0.131,0.406-0.245c0.629-0.363,1.207-0.476,1.736-0.338    c0.529,0.139,0.977,0.525,1.342,1.159c0.418,0.722,0.543,1.364,0.377,1.928c-0.164,0.563-0.627,1.063-1.385,1.501    c-0.432,0.249-0.93,0.453-1.496,0.611l-0.43-0.745l0.008-0.005c0.602-0.163,1.043-0.326,1.324-0.488    c0.424-0.244,0.672-0.534,0.748-0.869s-0.023-0.739-0.297-1.212c-0.242-0.417-0.533-0.667-0.877-0.748s-0.738,0.006-1.184,0.263    c-0.309,0.178-0.609,0.37-0.902,0.577l-1.77-3.066l3.256-1.88l0.42,0.728L64.266,27.241z" fill="#C8C8C8"/>
</g>
</g>
<g>
<g>
<path d="M196.514,108.948h-0.781v-4.312h0.781v1.533h5.449l-0.352-1.533h0.781l0.678,2.153v0.708h-6.557V108.948z" fill="#C8C8C8"/>
<path d="M202.172,111.139h-1.811c0.006,0.088,0.01,0.245,0.01,0.473c0,0.727-0.193,1.283-0.576,1.673    c-0.385,0.39-0.943,0.583-1.676,0.583c-0.834,0-1.453-0.212-1.857-0.637c-0.406-0.425-0.607-1.075-0.607-1.951    c0-0.498,0.072-1.031,0.219-1.601h0.859v0.01c-0.16,0.602-0.238,1.066-0.238,1.392c0,0.488,0.125,0.848,0.377,1.081    c0.254,0.232,0.652,0.349,1.199,0.349c0.482,0,0.844-0.128,1.086-0.385c0.244-0.258,0.365-0.644,0.365-1.158    c0-0.354-0.018-0.711-0.049-1.069h3.539v3.76h-0.84V111.139z" fill="#C8C8C8"/>
</g>
</g>
<g>
<g>
<path d="M155.238,28.109l-0.906,1.568c0.08,0.039,0.217,0.115,0.414,0.229c0.629,0.363,1.016,0.809,1.16,1.335    c0.146,0.528,0.035,1.108-0.332,1.743c-0.416,0.721-0.91,1.151-1.48,1.29s-1.234-0.012-1.992-0.449    c-0.432-0.249-0.857-0.579-1.277-0.991l0.43-0.744l0.008,0.005c0.441,0.439,0.803,0.74,1.086,0.903    c0.422,0.244,0.797,0.314,1.125,0.213s0.629-0.39,0.902-0.863c0.242-0.418,0.311-0.795,0.209-1.134s-0.375-0.637-0.82-0.894    c-0.307-0.178-0.623-0.342-0.951-0.492l1.771-3.066l3.256,1.88l-0.42,0.728L155.238,28.109z" fill="#C8C8C8"/>
</g>
</g>
<g>
<g>
<path d="M184.758,65.189l-0.676,0.391l-2.156-3.734l0.676-0.391l0.768,1.328l4.719-2.725l-1.07-1.152l0.676-0.391    l1.664,1.525l0.355,0.613l-5.68,3.279L184.758,65.189z" fill="#C8C8C8"/>
<path d="M191.891,64.39c0.377,0.651,0.43,1.276,0.158,1.876c-0.27,0.6-0.99,1.237-2.16,1.913    c-1.281,0.74-2.25,1.074-2.902,1.002c-0.652-0.073-1.168-0.438-1.547-1.094c-0.332-0.575-0.432-1.098-0.297-1.566    c0.137-0.469,0.41-0.882,0.824-1.239s0.951-0.727,1.611-1.107c1.146-0.663,2.055-0.96,2.727-0.893    C190.975,63.35,191.504,63.719,191.891,64.39z M186.135,67.673c0.166,0.288,0.449,0.405,0.85,0.353    c0.4-0.052,1.143-0.392,2.229-1.019c1.043-0.602,1.67-1.057,1.883-1.363c0.211-0.307,0.238-0.6,0.076-0.878    c-0.146-0.254-0.355-0.383-0.629-0.385c-0.271-0.003-0.58,0.075-0.924,0.234s-0.799,0.402-1.365,0.729    c-1.117,0.645-1.791,1.122-2.021,1.432C186.002,67.087,185.969,67.386,186.135,67.673z" fill="#C8C8C8"/>
</g>
</g>
<circle cx="109" cy="109" fill="none" r="96"/>
<path d="M109,35c-2.205,0-4-1.794-4-4s1.795-4,4-4s4,1.794,4,4S111.205,35,109,35L109,35z" fill-opacity="0.3"/>
<circle cx="109" cy="31" fill="#E6E6E6" r="3"/>
<rect fill="none" height="218" width="218"/>
</svg>
