<?xml version="1.0" encoding="UTF-8"?>
<!DOCTYPE svg PUBLIC "-//W3C//DTD SVG 1.1 Tiny//EN" "http://www.w3.org/Graphics/SVG/1.1/DTD/svg11-tiny.dtd">
<svg baseProfile="tiny" height="30px" version="1.1" viewBox="0 0 30 30" width="30px" x="0px" xmlns="http://www.w3.org/2000/svg" xmlns:xlink="http://www.w3.org/1999/xlink" y="0px">
<g fill-opacity="0.5" stroke-opacity="0.5">
<rect fill="none" height="30" width="30"/>
</g>
<path d="M13.13,21c0.17-1.069,0.508-2.081,1.003-3H9v-8h12v3.13c0.49-0.078,0.988-0.13,1.5-0.13s1.01,0.052,1.5,0.13V10h4V7h-2V5h2  V2H2v3h2v2H2v3h4v8H2v3h2v2H2v3h11.674c-0.371-0.937-0.594-1.945-0.648-3H11v-2H13.13z M21,5h3v2h-3V5z M16,5h3v2h-3V5z M11,5h3v2  h-3V5z M6,5h3v2H6V5z M9,23H6v-2h3V23z"/>
<polygon points="19.6,18.894 23.974,20.289 24.711,18.815 21.764,18.079 "/>
<path d="M22.5,15c-4.143,0-7.5,3.357-7.5,7.5s3.357,7.5,7.5,7.5s7.5-3.357,7.5-7.5S26.643,15,22.5,15z M26.459,20.468l0.346-0.152  c0,0,0.422,0.403,0.403,0.537c-0.019,0.135-0.653,0.749-0.653,0.749L26,21.8l-0.732-0.603l-0.557-0.46l0.346,0.826l0.461,0.48  c0,0,0.807-0.115,0.922-0.02s-0.152,0.827-0.152,0.827l-1.346,1.383l-0.135,1.383c-0.75,0.386-0.826,0.979-0.826,0.979  s-0.191-0.036-0.691,0.521c-0.5,0.556-1.039,0.41-1.039,0.41c-0.633,0-0.748-0.41-0.748-0.546c0-0.134-0.635-1.172-0.635-1.519  c0-0.345,0.192-0.769,0.192-0.769c0.038-0.499-0.499-1.843-0.499-1.843h-0.558l-0.192-0.424c-1.806,0.385-1.883-0.077-2.152-0.577  c-0.268-0.499,0.039-1.843,0.212-2.055s1.519-1.134,1.519-1.134l-0.174-0.25c-0.115-0.25,0.635-0.595,0.635-0.595  c0.288,0.192,0.48,0,0.48,0l0.076-0.193l-0.051-0.188C21.016,17.155,21.74,17,22.5,17c0.55,0,1.08,0.083,1.581,0.234l-0.108,0.107  l0.737,0.737l0.412-0.412c1.061,0.577,1.907,1.495,2.401,2.604l-0.699-0.129l-0.846-0.326L26.459,20.468z M17.209,23.985L18,24l1,1  l-0.97,0.692C17.664,25.182,17.384,24.605,17.209,23.985z M25.875,26.715L26,25l1.209,0.326c-0.334,0.555-0.76,1.048-1.262,1.453  L25.875,26.715z"/>
</svg>
