<?xml version="1.0" encoding="utf-8"?>
<!-- Generator: Adobe Illustrator 14.0.0, SVG Export Plug-In  -->
<!DOCTYPE svg PUBLIC "-//W3C//DTD SVG 1.1//EN" "http://www.w3.org/Graphics/SVG/1.1/DTD/svg11.dtd" [
	<!ENTITY ns_flows "http://ns.adobe.com/Flows/1.0/">
]>
<svg version="1.1"
	 xmlns="http://www.w3.org/2000/svg" xmlns:xlink="http://www.w3.org/1999/xlink" xmlns:a="http://ns.adobe.com/AdobeSVGViewerExtensions/3.0/"
	 x="0px" y="0px" width="30px" height="30px" viewBox="0 0 30 30" enable-background="new 0 0 30 30" xml:space="preserve">
<defs>
</defs>
<g opacity="0.5">
	<rect fill="none" width="30" height="30"/>
</g>
<path d="M22,19.5c-0.169-0.222-3.088-1.801-4.056-3.02L16,21l-1.943-4.521c-0.968,1.22-3.888,2.797-4.057,3.019V23h12V19.5z"/>
<path d="M19.294,9.689c0-1.053-1.188-2.249-2.314-2.588C16.985,7.234,17,7.365,17,7.5c0,2.868-1.283,5.438-3.299,7.181
	c0.198,0.195,0.415,0.378,0.67,0.546c0.002,0.086,0.007,0.53,0.001,0.614c-0.004,0.058-0.024,0.12-0.046,0.183
	c0-0.001,0.001-0.002,0.001-0.002h3.347c0,0,0,0.001,0.001,0.001c-0.021-0.062-0.042-0.124-0.046-0.182
	c-0.007-0.09,0-0.523,0.001-0.614c0.621-0.418,1.056-0.91,1.382-1.553C19.618,12.487,19.294,9.689,19.294,9.689z"/>
<path d="M15.231,2c0.641,0.897,1.125,1.909,1.424,3H24v20H8v-8.025C7.833,16.983,7.669,17,7.5,17c-0.866,0-1.702-0.127-2.5-0.345V19
	H3v2h2v3H3v2h2v2h22V2H15.231z"/>
<path d="M7.5,0C3.364,0,0,3.364,0,7.5S3.364,15,7.5,15S15,11.636,15,7.5S11.636,0,7.5,0z M2,7.5c0-1.521,0.62-2.898,1.621-3.896
	C5.353,3.878,6.706,5.257,6.945,7H4l3.983,5.976C7.824,12.989,7.663,13,7.5,13C4.467,13,2,10.532,2,7.5z M8.018,12.974L12,7H8.973
	C8.788,4.948,7.568,3.19,5.838,2.258C6.363,2.091,6.921,2,7.5,2C10.533,2,13,4.468,13,7.5C13,10.357,10.809,12.712,8.018,12.974z"/>
</svg>
