<?xml version="1.0" encoding="UTF-8"?>
<!DOCTYPE svg PUBLIC "-//W3C//DTD SVG 1.1 Tiny//EN" "http://www.w3.org/Graphics/SVG/1.1/DTD/svg11-tiny.dtd">
<svg baseProfile="tiny" height="30" viewBox="0 0 30 30" width="30" xmlns="http://www.w3.org/2000/svg" xmlns:xlink="http://www.w3.org/1999/xlink">
<rect fill="none" height="30" width="30"/>
<rect fill="none" height="30.001" width="30"/>
<path d="M8.482,11.339c-0.004,0.04-0.012,0.078-0.012,0.118c0,0.631,0.512,1.143,1.143,1.143c0.041,0,0.078-0.008,0.118-0.012 L8.482,11.339z"/>
<polygon points="27.75,24.385 27.75,15.498 26.25,15.498 26.25,22.885 "/>
<rect height="11.999" width="1.5" x="2.25" y="15.498"/>
<rect height="1.5" width="7.5" x="2.25" y="25.997"/>
<polygon points="23.141,25.997 20.25,25.997 20.25,27.497 24.641,27.497 "/>
<path d="M15.776,12.412c0.73,0.215,1.302,0.787,1.517,1.518l1.492,1.492c0.066-0.278,0.109-0.563,0.109-0.86 c0-2.068-1.682-3.75-3.749-3.75c-0.297,0-0.583,0.044-0.861,0.109L15.776,12.412z"/>
<path d="M11.423,14.281c-0.008,0.094-0.029,0.184-0.029,0.28c0,2.068,1.683,3.749,3.751,3.749c0.096,0,0.185-0.021,0.279-0.027 L11.423,14.281z"/>
<polygon points="12.675,9.311 22.5,9.311 22.5,19.135 24,20.635 24,7.811 11.175,7.811 "/>
<polygon points="16.953,19.81 7.5,19.81 7.5,10.358 6,8.858 6,21.31 18.453,21.31 "/>
<rect height="33.233" transform="matrix(-0.7064 0.7078 -0.7078 -0.7064 36.0346 14.5449)" width="1.401" x="14.3" y="-1.871"/>
<rect height="1.125" width="3" x="18.75" y="5.936"/>
</svg>
