<?xml version="1.0" encoding="UTF-8"?>
<!DOCTYPE svg PUBLIC "-//W3C//DTD SVG 1.1 Tiny//EN" "http://www.w3.org/Graphics/SVG/1.1/DTD/svg11-tiny.dtd">
<svg baseProfile="tiny" height="30px" version="1.1" viewBox="0 0 30 30" width="30px" x="0px" xmlns="http://www.w3.org/2000/svg" xmlns:xlink="http://www.w3.org/1999/xlink" y="0px">
<g fill-opacity="0.5" stroke-opacity="0.5">
<rect fill="none" height="30" width="30"/>
</g>
<rect height="4" width="20" x="7" y="18"/>
<path d="M16.655,10c-0.415,1.519-1.196,2.885-2.246,4H27v-4H16.655z"/>
<path d="M15,7.5C15,3.364,11.636,0,7.5,0S0,3.364,0,7.5S3.364,15,7.5,15S15,11.636,15,7.5z M7.5,2C10.532,2,13,4.467,13,7.5  c0,0.579-0.092,1.137-0.258,1.662c-0.934-1.73-2.69-2.95-4.742-3.135V3L2.026,6.982C2.288,4.191,4.643,2,7.5,2z M2,7.5  c0-0.163,0.011-0.324,0.024-0.483L8,11V8.055c1.742,0.239,3.122,1.593,3.395,3.324C10.398,12.38,9.021,13,7.5,13  C4.468,13,2,10.533,2,7.5z"/>
</svg>
