<?xml version="1.0" encoding="UTF-8"?>
<!DOCTYPE svg PUBLIC "-//W3C//DTD SVG 1.1 Tiny//EN" "http://www.w3.org/Graphics/SVG/1.1/DTD/svg11-tiny.dtd">
<svg baseProfile="tiny" height="60" viewBox="0 0 60 60" width="60" xmlns="http://www.w3.org/2000/svg" xmlns:xlink="http://www.w3.org/1999/xlink">
<g>
<rect fill="none" height="60" width="60"/>
<g>
<radialGradient cx="-1374.2305" cy="2708.6123" gradientTransform="matrix(0 1 1 0 -2678.1238 1416.3748)" gradientUnits="userSpaceOnUse" id="SVGID_1_" r="36.2612">
<stop offset="0" style="stop-color:#C0A26F"/>
<stop offset="0.297" style="stop-color:#C0A26F"/>
<stop offset="0.6667" style="stop-color:#954749"/>
<stop offset="0.7939" style="stop-color:#BE8A6B"/>
<stop offset="1" style="stop-color:#BE8A6B"/>
</radialGradient>
<path d="M17.884,35.418c0.413-0.078,0.579-0.318,0.603-0.895c0.027-0.721,0.29-3.172,0.431-3.764   c0.124-0.521,0.342-0.805,0.941-0.98c0.75-0.22,3.188-1.037,10.143-1.038c6.954,0,9.393,0.807,10.141,1.038   c0.651,0.201,0.777,0.389,0.941,0.98c0.162,0.586,0.402,3.043,0.431,3.764c0.024,0.576,0.16,0.82,0.577,0.883   c0.731,0.113,13.291,2.238,14.601,2.502c0.794,0.16,1.237,0.045,1.292-0.705c0.231-3.012-2.009-7.641-3.005-9.067   c-0.887-1.274-1.687-2.667-3.82-3.557c-2.028-0.845-12.133-2.548-21.158-2.548c-9.026-0.001-19.132,1.704-21.159,2.548   c-2.133,0.889-2.935,2.282-3.82,3.555c-0.995,1.429-3.237,6.055-3.006,9.069c0.058,0.748,0.5,0.863,1.292,0.703   C4.62,37.645,17.169,35.549,17.884,35.418z" fill="url(#SVGID_1_)"/>
<linearGradient gradientTransform="matrix(0 1 1 0 -2678.1238 1416.3748)" gradientUnits="userSpaceOnUse" id="SVGID_2_" x1="-1383.7373" x2="-1383.3947" y1="2721.2969" y2="2718.4587">
<stop offset="0" style="stop-color:#905A46"/>
<stop offset="1" style="stop-color:#6B2E36"/>
</linearGradient>
<path d="M40.145,29.779c0.65,0.202,0.775,0.39,0.94,0.981c0.162,0.584,0.401,3.043,0.431,3.762   c0.024,0.578,0.16,0.82,0.576,0.885c0.046,0.008,0.062,0.01,0.063,0.01c0.244,0.039,0.993,0.164,2.039,0.342   c-0.026-0.258-0.37-3.525-1.036-4.357C41.938,29.877,40.145,29.779,40.145,29.779z" fill="url(#SVGID_2_)"/>
<linearGradient gradientTransform="matrix(0 1 -1 0 -3579.3215 1416.3782)" gradientUnits="userSpaceOnUse" id="SVGID_3_" x1="-1383.7422" x2="-1383.3992" y1="-3596.1938" y2="-3599.0347">
<stop offset="0" style="stop-color:#905A46"/>
<stop offset="1" style="stop-color:#6B2E36"/>
</linearGradient>
<path d="M19.841,29.779c-0.654,0.203-0.778,0.39-0.942,0.981c-0.163,0.586-0.404,3.045-0.433,3.766   c-0.021,0.574-0.158,0.818-0.574,0.883c-0.047,0.008-0.061,0.01-0.061,0.01c-0.245,0.039-0.994,0.164-2.041,0.338   c0.028-0.254,0.371-3.523,1.036-4.355C18.043,29.876,19.841,29.779,19.841,29.779z" fill="url(#SVGID_3_)"/>
<linearGradient gradientTransform="matrix(0.7071 0.7071 0.7071 -0.7071 51.2805 -77.5527)" gradientUnits="userSpaceOnUse" id="SVGID_4_" x1="78.5283" x2="43.332" y1="-72.9224" y2="-108.1187">
<stop offset="0" style="stop-color:#D3C59A"/>
<stop offset="1" style="stop-color:#D0BA98"/>
</linearGradient>
<path d="M5.021,28.75c0.887-1.275,1.688-2.668,3.819-3.555   c2.029-0.846,12.134-2.55,21.16-2.549c9.027-0.001,19.13,1.703,21.161,2.549c2.131,0.888,2.933,2.28,3.819,3.554   c0.912,1.311,2.875,5.32,3.009,8.3c0.146-3.016-2.031-7.511-3.009-8.915c-0.888-1.274-1.688-2.666-3.82-3.556   c-2.028-0.845-12.134-2.548-21.158-2.549c-9.027,0.001-19.133,1.706-21.16,2.55c-2.133,0.889-2.935,2.282-3.82,3.555   c-0.979,1.404-3.158,5.899-3.009,8.915C2.146,34.068,4.108,30.06,5.021,28.75z" fill="url(#SVGID_4_)" fill-opacity="0.5" stroke-opacity="0.5"/>
<linearGradient gradientTransform="matrix(0.7071 0.7071 0.7071 -0.7071 51.2805 -77.5527)" gradientUnits="userSpaceOnUse" id="SVGID_5_" x1="82.8936" x2="42.849" y1="-73.0874" y2="-113.132">
<stop offset="0" style="stop-color:#D3C59A"/>
<stop offset="1" style="stop-color:#D0BA98"/>
</linearGradient>
<path d="M17.884,35.418c0.413-0.078,0.579-0.318,0.603-0.895   c0.027-0.721,0.29-3.172,0.431-3.764c0.124-0.521,0.342-0.805,0.941-0.98c0.75-0.22,3.188-1.037,10.143-1.038   c6.954,0,9.393,0.807,10.141,1.038c0.651,0.201,0.777,0.389,0.941,0.98c0.162,0.586,0.402,3.043,0.431,3.764   c0.024,0.576,0.16,0.82,0.577,0.883c0.731,0.113,13.291,2.238,14.601,2.502c0.794,0.16,1.237,0.045,1.292-0.705   c0.027-0.354,0.018-0.73-0.017-1.119c-0.094,0.643-0.526,0.748-1.276,0.594c-1.311-0.262-13.869-2.385-14.6-2.5   c-0.418-0.064-0.553-0.307-0.576-0.883c-0.029-0.719-0.27-3.177-0.433-3.765c-0.163-0.59-0.287-0.777-0.941-0.979   c-0.746-0.229-3.188-1.039-10.14-1.037c-6.954,0-9.393,0.817-10.143,1.037c-0.599,0.176-0.816,0.459-0.94,0.981   c-0.141,0.59-0.403,3.042-0.433,3.763c-0.022,0.576-0.189,0.816-0.603,0.893C17.168,34.32,4.62,36.414,3.309,36.68   c-0.751,0.15-1.183,0.049-1.275-0.596c-0.036,0.389-0.044,0.766-0.018,1.119c0.058,0.748,0.5,0.861,1.292,0.703   C4.62,37.645,17.169,35.549,17.884,35.418z" fill="url(#SVGID_5_)" fill-opacity="0.5" stroke-opacity="0.5"/>
<linearGradient gradientTransform="matrix(0 1 1 0 -2702.5007 1379.2039)" gradientUnits="userSpaceOnUse" id="SVGID_6_" x1="-1353.1973" x2="-1353.1973" y1="2756.7813" y2="2707.613">
<stop offset="0" style="stop-color:#885F4A"/>
<stop offset="0.5" style="stop-color:#4F2430"/>
<stop offset="1" style="stop-color:#885F4A"/>
</linearGradient>
<path d="M6.355,27.326c2.275-0.843,14.095-2.529,23.646-2.53   c9.552,0,21.371,1.687,23.646,2.53c0.431,0.161,0.804,0.343,1.144,0.531c-0.233-0.341-0.472-0.685-0.733-1.024   c-0.069-0.028-0.127-0.056-0.196-0.082c-2.309-0.856-14.245-2.568-23.858-2.568c-9.616,0-21.553,1.71-23.862,2.566   c-0.07,0.028-0.128,0.058-0.198,0.085c-0.26,0.339-0.5,0.685-0.733,1.023C5.554,27.667,5.924,27.487,6.355,27.326z" fill="url(#SVGID_6_)" fill-opacity="0.5" stroke-opacity="0.5"/>
</g>
</g>
<g transform="matrix(1 0 0 1 30 30)">
<path d="M22.379,24.469h-3.846v-0.341c4.922-1.536,8.297-6.068,8.297-11.278  c0-6.522-5.307-11.828-11.83-11.828c-6.522,0-11.828,5.306-11.828,11.828c0,5.212,3.376,9.745,8.301,11.279v0.34H7.66  c-1.588,0-2.879,1.281-2.879,2.893l0.005,0.148l0.007,0.06c0.006,0.042,0.014,0.121,0.027,0.47l0.042,0.939h20.323l0.048-1.235  c0.006-0.112,0.011-0.153,0.014-0.179c0.007-0.065,0.011-0.098,0.011-0.238C25.258,25.75,23.967,24.469,22.379,24.469z   M24.279,27.361c0,0.103-0.008,0.052-0.023,0.326c-0.004,0.091-0.008,0.186-0.013,0.313h-0.002h-0.002H5.803H5.799  c-0.025-0.635-0.039-0.508-0.039-0.639v-0.035c0-1.037,0.85-1.879,1.9-1.879h4.791v-2.063C7.698,22.233,4.15,17.953,4.15,12.85  C4.15,6.867,9.021,2,15,2c5.982,0,10.851,4.866,10.851,10.85c0,5.103-3.546,9.381-8.296,10.534v2.063h4.824  c1.05,0,1.9,0.842,1.9,1.879V27.361z" fill-opacity="0.6" stroke-opacity="0.6"/>
<linearGradient gradientTransform="matrix(1 0 0 -1 -27.48 -6114.1465)" gradientUnits="userSpaceOnUse" id="SVGID_1__" x1="39.8613" x2="45.0998" y1="-6137.793" y2="-6137.793">
<stop offset="0" style="stop-color:#898A8B"/>
<stop offset="0.2606" style="stop-color:#BFC2C1"/>
<stop offset="0.6606" style="stop-color:#5D5F61"/>
<stop offset="1" style="stop-color:#979A9A"/>
</linearGradient>
<rect fill="url(#SVGID_1__)" height="7.852" width="5.104" x="12.451" y="19.721"/>
<path d="M12.451,24.66c0.818,0.199,1.672,0.314,2.553,0.314s1.73-0.115,2.553-0.314v-4.294  h-5.105v4.284V24.66z" fill="#020202" fill-opacity="0.2"/>
<path d="M12.451,24.02c0.818,0.199,1.672,0.315,2.553,0.315s1.73-0.116,2.553-0.315v-4.293  h-5.105v4.287V24.02z" fill="#020202" fill-opacity="0.2"/>
<linearGradient gradientTransform="matrix(1 0 0 -1 -27.48 -6114.1465)" gradientUnits="userSpaceOnUse" id="SVGID_2__" x1="42.4795" x2="42.4795" y1="-6116.1221" y2="-6137.8223">
<stop offset="0" style="stop-color:#F2F2F2"/>
<stop offset="0.3212" style="stop-color:#E6E6E6"/>
<stop offset="1" style="stop-color:#666666"/>
</linearGradient>
<path d="M15,23.7c-5.979,0-10.85-4.867-10.85-10.851C4.15,6.867,9.021,2,15,2  c5.982,0,10.851,4.866,10.851,10.85C25.851,18.834,20.98,23.7,15,23.7z" fill="url(#SVGID_2__)"/>
<linearGradient gradientTransform="matrix(1 0 0 -1 -27.48 -6114.1465)" gradientUnits="userSpaceOnUse" id="SVGID_3__" x1="42.4805" x2="42.4805" y1="-6116.7617" y2="-6137.1816">
<stop offset="0" style="stop-color:#D3D7D5"/>
<stop offset="0.0667" style="stop-color:#D3D7D5"/>
<stop offset="0.2606" style="stop-color:#BFC2C1"/>
<stop offset="0.6606" style="stop-color:#7F8384"/>
<stop offset="1" style="stop-color:#AFB3B2"/>
</linearGradient>
<circle cx="15" cy="12.851" fill="url(#SVGID_3__)" r="10.21"/>
<path d="M15,21.99c-5.314,0-9.656-4.23-9.842-9.5c-0.006,0.115-0.01,0.23-0.01,0.349  c0,5.431,4.418,9.851,9.852,9.851s9.852-4.42,9.852-9.851c0-0.116-0.004-0.231-0.008-0.349c-0.179,5.27-4.52,9.5-9.84,9.5H15z" fill="#FFFFFF" fill-opacity="0.1"/>
<path d="M23.301,12.41c0,4.703-3.714,9.346-8.299,9.345c-4.58-0.003-8.293-4.646-8.291-9.351  s3.717-8.516,8.296-8.516c4.571,0,8.292,3.814,8.292,8.516L23.301,12.41z" fill="#222021" fill-opacity="0.3"/>
<path d="M15,21.07c-2.387-0.002-4.629-0.932-6.314-2.619C6.998,16.764,6.07,14.52,6.07,12.133  c0-4.923,4.01-8.929,8.936-8.929c2.387,0,4.633,0.931,6.318,2.618c1.688,1.688,2.617,3.934,2.615,6.318  c-0.003,4.924-4.012,8.93-8.936,8.93H14.99H15z" fill="#222021" fill-opacity="0.2"/>
<linearGradient gradientTransform="matrix(1 0 0 -1 -27.48 -6114.1465)" gradientUnits="userSpaceOnUse" id="SVGID_4__" x1="42.4834" x2="42.4834" y1="-6117.8691" y2="-6134.4961">
<stop offset="0" style="stop-color:#CFCFCF"/>
<stop offset="0.1091" style="stop-color:#CFCFCF"/>
<stop offset="0.6848" style="stop-color:#121212"/>
<stop offset="1" style="stop-color:#A6A6A6"/>
</linearGradient>
<path d="M15,20.43c-2.215-0.002-4.297-0.863-5.862-2.432c-1.569-1.566-2.429-3.65-2.429-5.865  c0-4.574,3.723-8.293,8.297-8.293c2.217,0,4.299,0.863,5.865,2.432c1.566,1.567,2.43,3.65,2.428,5.867  c0,4.572-3.723,8.291-8.295,8.291H15z" fill="url(#SVGID_4__)"/>
<linearGradient gradientTransform="matrix(1 0 0 -1 -27.48 -6114.1465)" gradientUnits="userSpaceOnUse" id="SVGID_5__" x1="42.4805" x2="42.4805" y1="-6118.5146" y2="-6133.8677">
<stop offset="0" style="stop-color:#F2F2F2"/>
<stop offset="1" style="stop-color:#636566"/>
</linearGradient>
<path d="M15,4.473c4.229,0,7.658,3.43,7.658,7.658s-3.43,7.656-7.658,7.656c-4.227,0-7.656-3.428-7.656-7.656  S10.773,4.473,15,4.473z" fill="url(#SVGID_5__)"/>
<linearGradient gradientTransform="matrix(1 0 0 -1 -27.48 -6114.1465)" gradientUnits="userSpaceOnUse" id="SVGID_6__" x1="42.4795" x2="42.4795" y1="-6119.9209" y2="-6132.5972">
<stop offset="0" style="stop-color:#1A1A1A"/>
<stop offset="0.503" style="stop-color:#343434"/>
<stop offset="0.7515" style="stop-color:#9E9E9E"/>
<stop offset="1" style="stop-color:#CFCFCF"/>
</linearGradient>
<path d="M15,18.51c-1.704-0.001-3.309-0.666-4.514-1.871c-1.203-1.205-1.867-2.807-1.867-4.512  c0-3.518,2.861-6.377,6.383-6.377c1.705,0,3.307,0.664,4.512,1.87c1.205,1.205,1.869,2.808,1.867,4.513  c0,3.51-2.859,6.37-6.379,6.37L15,18.51z" fill="url(#SVGID_6__)"/>
<radialGradient cx="-18.5371" cy="-6075.4541" gradientTransform="matrix(1.0143 3.000000e-004 3.000000e-004 -1.0141 36.2417 -6148.4917)" gradientUnits="userSpaceOnUse" id="SVGID_7_" r="6.4996">
<stop offset="0" style="stop-color:#000000"/>
<stop offset="0.5917" style="stop-color:#000000"/>
<stop offset="0.627" style="stop-color:#050505"/>
<stop offset="0.7652" style="stop-color:#121212"/>
<stop offset="0.8876" style="stop-color:#171717"/>
<stop offset="1" style="stop-color:#171717"/>
</radialGradient>
<path d="M20.74,12.141c0,3.172-2.574,5.739-5.744,5.739c-3.176-0.001-5.742-2.573-5.74-5.745  c0-3.171,2.572-5.742,5.744-5.74c3.17-0.008,5.74,2.563,5.74,5.74V12.141z" fill="url(#SVGID_7_)"/>
<radialGradient cx="-23.6514" cy="-6071.7656" gradientTransform="matrix(1.0143 0 0 -1.0141 36.3921 -6149.1094)" gradientUnits="userSpaceOnUse" id="SVGID_8_" r="10.3507">
<stop offset="0" style="stop-color:#242424"/>
<stop offset="0.4303" style="stop-color:#242424"/>
<stop offset="0.7818" style="stop-color:#000000"/>
<stop offset="1" style="stop-color:#000000"/>
</radialGradient>
<circle cx="15" cy="12.13" fill="url(#SVGID_8_)" r="4.712"/>
<radialGradient cx="-20.3467" cy="-6068.7339" gradientTransform="matrix(1.0143 3.000000e-004 3.000000e-004 -1.0141 36.2417 -6148.4917)" gradientUnits="userSpaceOnUse" id="SVGID_9_" r="11.36">
<stop offset="0" style="stop-color:#8D4AAB"/>
<stop offset="0.3091" style="stop-color:#8D4AAB"/>
<stop offset="0.4364" style="stop-color:#532961"/>
<stop offset="0.8061" style="stop-color:#070F0F"/>
<stop offset="1" style="stop-color:#070F0F"/>
</radialGradient>
<path d="M19.211,12.131c0,2.325-1.887,4.209-4.212,4.209c-2.327-0.002-4.214-1.887-4.214-4.211  c0.004-2.328,1.891-4.211,4.214-4.211c2.329,0.003,4.21,1.889,4.21,4.211L19.211,12.131z" fill="url(#SVGID_9_)"/>
<radialGradient cx="-19.1367" cy="-6078.4346" gradientTransform="matrix(1.0143 3.000000e-004 3.000000e-004 -1.0141 36.2417 -6148.4917)" gradientUnits="userSpaceOnUse" id="SVGID_10_" r="4.6115">
<stop offset="0" style="stop-color:#264932"/>
<stop offset="0.7879" style="stop-color:#000000"/>
<stop offset="1" style="stop-color:#000000"/>
</radialGradient>
<path d="M19.211,12.131c0,2.325-1.887,4.209-4.212,4.209c-2.327-0.002-4.214-1.887-4.214-4.211  c0,0,1.443,2.568,4.214,2.568c2.769,0,4.21-2.57,4.21-2.57L19.211,12.131z" fill="url(#SVGID_10_)"/>
<linearGradient gradientTransform="matrix(1 0 0 -1 -27.48 -6114.1465)" gradientUnits="userSpaceOnUse" id="SVGID_11_" x1="42.4609" x2="42.4609" y1="-6121.2129" y2="-6126.2388">
<stop offset="0" style="stop-color:#FAFDFB"/>
<stop offset="1" style="stop-color:#808080"/>
</linearGradient>
<path d="M14.98,12.07c1.828,0,3.549-0.277,5.066-0.766  c-0.43-2.41-2.531-4.238-5.066-4.238c-2.531,0-4.633,1.83-5.064,4.238c1.514,0.49,3.234,0.771,5.064,0.771V12.07z" fill="url(#SVGID_11_)" fill-opacity="0.35"/>
<linearGradient gradientTransform="matrix(1 0 0 -1 -27.48 -6114.1465)" gradientUnits="userSpaceOnUse" id="SVGID_12_" x1="33.2402" x2="51.7598" y1="-6140.8701" y2="-6140.8701">
<stop offset="0" style="stop-color:#898A8B"/>
<stop offset="0.2606" style="stop-color:#BFC2C1"/>
<stop offset="0.6606" style="stop-color:#5D5F61"/>
<stop offset="1" style="stop-color:#979A9A"/>
</linearGradient>
<path d="M24.241,28c0.025-0.635,0.038-0.508,0.038-0.639v-0.035c0-1.037-0.851-1.879-1.9-1.879H7.66  c-1.051,0-1.9,0.842-1.9,1.879v0.035c0,0.131,0.014,0.004,0.039,0.639h18.44H24.241z" fill="url(#SVGID_12_)"/>
<path d="M5.879,26.7h18.292c-0.084-0.235-0.213-0.444-0.377-0.626H6.262  c-0.164,0.189-0.293,0.4-0.377,0.63L5.879,26.7z" fill="#FFFFFF" fill-opacity="0.2"/>
<path d="M5.771,27.359C5.779,27.49,5.789,27.68,5.803,28h18.44  c0.012-0.316,0.021-0.508,0.027-0.639H5.77L5.771,27.359z" fill="#020202" fill-opacity="0.2"/>
<path d="M6.256,26.07h17.54c-0.348-0.383-0.846-0.627-1.407-0.627H7.668  c-0.561,0.01-1.059,0.25-1.406,0.629L6.256,26.07z" fill="#FFFFFF" fill-opacity="0.4"/>
<rect fill="none" height="30" width="30"/>
</g>
</svg>
