<?xml version="1.0" encoding="UTF-8"?>
<!DOCTYPE svg PUBLIC "-//W3C//DTD SVG 1.1 Tiny//EN" "http://www.w3.org/Graphics/SVG/1.1/DTD/svg11-tiny.dtd">
<svg baseProfile="tiny" height="52px" version="1.1" viewBox="0.001 0 52 52" width="52px" x="0px" xmlns="http://www.w3.org/2000/svg" xmlns:xlink="http://www.w3.org/1999/xlink" y="0px">
<rect fill="none" height="52" width="52.002"/>
<path d="M2.92,18.503c-0.01,0.03-0.02,0.063-0.027,0.091l5.432,1.764c0.01-0.027,0.02-0.061,0.029-0.09  c3.164-9.733,13.65-15.078,23.383-11.916c9.73,3.162,15.076,13.651,11.912,23.383C40.525,41.346,30.26,46.68,20.627,43.764  l-1.764,5.432C31.49,53.084,44.984,46.105,49.08,33.5C53.215,20.773,46.229,7.055,33.5,2.919C20.773-1.214,7.057,5.777,2.92,18.503z  " fill="url(#SVGID_1_)"/>
<defs>
<linearGradient gradientTransform="matrix(0.309 -0.9511 0.9511 0.309 -828.1402 -62.6477)" gradientUnits="userSpaceOnUse" id="SVGID_1_" x1="181.373" x2="175.3885" y1="849.2324" y2="817.0112">
<stop offset="0" style="stop-color:#0067B1"/>
<stop offset="0.9939" style="stop-color:#0069B1;stop-opacity:0.25"/>
<stop offset="1" style="stop-color:#0069B1;stop-opacity:0.25"/>
</linearGradient>
</defs>
</svg>
