<?xml version="1.0" encoding="UTF-8" standalone="no"?>
<!DOCTYPE svg PUBLIC "-//W3C//DTD SVG 1.1 Tiny//EN" "http://www.w3.org/Graphics/SVG/1.1/DTD/svg11-tiny.dtd">
<svg xmlns="http://www.w3.org/2000/svg" xmlns:xlink="http://www.w3.org/1999/xlink" baseProfile="tiny" height="30px" version="1.1" viewBox="0 0 30 30" width="30px" x="0px" y="0px">
<g fill-opacity="0.5" stroke-opacity="0.5">
<rect fill="none" height="30" width="30"/>
</g>
<path d="M14.8,20.4l2.013-1.51c0.092-0.151,0.184-0.301,0.271-0.469,0.021,0.074,0.051,0.138,0.075,0.209l2.4-1.801c-0.007-0.173-0.015-0.344-0.015-0.541,0-1.668,0.319-4.38,0.957-8.135h-3.787c-2.206,0-3.97,0.692-5.291,2.078s-1.982,3.295-1.982,5.729c0,1.567,0.374,2.805,1.121,3.712s1.668,1.36,2.762,1.36c0.362,0,0.697-0.045,1.013-0.12,0.13-0.19,0.28-0.37,0.47-0.51zm-1.78-2.24c-0.228-0.492-0.342-1.271-0.342-2.338,0-1.695,0.333-3.04,0.998-4.033s1.472-1.49,2.42-1.49h0.848l-0.506,4.006c-0.219,1.695-0.497,2.885-0.834,3.568s-0.78,1.02-1.33,1.02c-0.61,0-1.03-0.25-1.26-0.74z"/>
<path d="M15.02,23.76c-5.419-0.321-8.133-3.461-8.133-9.43,0-2.825,0.818-5.033,2.454-6.624s3.762-2.386,6.378-2.386c2.479,0,4.391,0.754,5.735,2.263s2.017,3.648,2.017,6.419c0,0.029-0.003,0.055-0.003,0.084,0.47-0.131,0.977-0.104,1.429,0.121,0.632,0.316,1.032,0.943,1.085,1.641,0.101-0.618,0.169-1.271,0.169-1.996,0-3.427-0.909-6.093-2.728-7.998s-4.43-2.842-7.79-2.842c-3.372,0-6.157,1.019-8.354,3.056s-3.296,4.844-3.296,8.414c0,3.746,1.068,6.629,3.206,8.647s5.011,3.028,8.62,3.028c0.632,0,1.356-0.072,2.127-0.182l-2.94-2.21z"/>
<polygon points="29,19,24,19,24,16,16,22,24,28,24,25,29,25"/>
</svg>
