<?xml version="1.0" encoding="UTF-8"?>
<!DOCTYPE svg PUBLIC "-//W3C//DTD SVG 1.1 Tiny//EN" "http://www.w3.org/Graphics/SVG/1.1/DTD/svg11-tiny.dtd">
<svg baseProfile="tiny" height="15px" version="1.1" viewBox="0 0 15 15" width="15px" x="0px" xmlns="http://www.w3.org/2000/svg" xmlns:xlink="http://www.w3.org/1999/xlink" y="0px">
<g>
<path d="M0,0v9h6c4.962,0,9-4.036,9-8.996V0H0z" fill="#14141E" fill-opacity="0.1" fill-rule="evenodd" stroke-opacity="0.1"/>
<path d="M0,0v7.987h6c4.408,0,7.995-3.583,8-7.987H0z" fill="url(#SVGID_1_)" fill-rule="evenodd"/>
<path d="M13,0c-0.005,3.855-3.144,6.988-7,6.988H0v0.999h6   c4.408,0,7.995-3.581,8-7.987H13z" fill-opacity="0.2" fill-rule="evenodd" stroke-opacity="0.2"/>
<path d="M12,0c-0.005,3.304-2.694,5.988-6,5.988H0v1h6   c3.856,0,6.995-3.133,7-6.988H12z" fill="#FFFFFF" fill-opacity="0.2" fill-rule="evenodd" stroke-opacity="0.2"/>
<rect fill="none" fill-rule="evenodd" height="15" width="15" y="0"/>
<defs>
<linearGradient gradientUnits="userSpaceOnUse" id="SVGID_1_" x1="6.9995" x2="6.9995" y1="-42.5288" y2="8.2729">
<stop offset="0" style="stop-color:#66B8CC"/>
<stop offset="1" style="stop-color:#3F89A9"/>
</linearGradient>
</defs>
</g>
</svg>
