<?xml version="1.0" encoding="UTF-8" standalone="no"?>
<!DOCTYPE svg PUBLIC "-//W3C//DTD SVG 1.1 Tiny//EN" "http://www.w3.org/Graphics/SVG/1.1/DTD/svg11-tiny.dtd">
<svg xmlns="http://www.w3.org/2000/svg" xmlns:xlink="http://www.w3.org/1999/xlink" baseProfile="tiny" height="55px" version="1.1" viewBox="0 0 55 55" width="55px" x="0px" y="0px">
<rect fill="none" height="55" width="55"/>
<path d="M55,0H30c-6.627,0-11.016,4.881-12,12l-6,32  c-1.723,6.381-5.377,11-12,11h55V0z" fill="url(#SVGID_1_)" fill-rule="evenodd"/>
<path d="M1.203,54.914C0.813,54.949,0.412,54.967,0,54.967  C0,54.967,0.48,54.962,1.203,54.914z M30,0c-6.627,0-11.016,4.877-12,11.992l-6,31.98c-1.615,5.978-4.928,10.409-10.791,10.94  c1.551-0.104,4.217-0.411,5.696-1.313c2.985-1.82,4.95-4.822,6.173-9.365l6.02-32.057C20.053,5.264,24.273,1,30.114,1H55V0H30z" fill="#FFFFFF" fill-opacity="0.4" fill-rule="evenodd" stroke-opacity="0.4"/>
<rect fill="none" fill-rule="evenodd" height="55" width="55"/>
<defs>
<linearGradient gradientUnits="userSpaceOnUse" id="SVGID_1_" x1="27.5" x2="27.5" y1="54.666" y2="1.2289">
<stop offset="0" style="stop-color:#787878"/>
<stop offset="1" style="stop-color:#3C3C3C"/>
</linearGradient>
</defs>
</svg>
