<?xml version="1.0" encoding="UTF-8"?>
<!DOCTYPE svg PUBLIC "-//W3C//DTD SVG 1.1 Tiny//EN" "http://www.w3.org/Graphics/SVG/1.1/DTD/svg11-tiny.dtd">
<svg baseProfile="tiny" height="60" viewBox="0 0 60 60" width="60" xmlns="http://www.w3.org/2000/svg" xmlns:xlink="http://www.w3.org/1999/xlink">
<rect fill="none" height="60" width="60"/>
<linearGradient gradientUnits="userSpaceOnUse" id="SVGID_1" x1="30" x2="30" y1="50.17" y2="7.62">
<stop offset="0" stop-color="#004E8C"/>
<stop offset="1" stop-color="#1B66D8"/>
</linearGradient>
<circle cx="29.998" cy="28.985" fill="url(#SVGID_1)" r="21.427"/>
<radialGradient cx="29.68" cy="21.59" gradientUnits="userSpaceOnUse" id="SVGID_2" r="25.79">
<stop offset="0" stop-color="#94FFFF"/>
<stop offset="0.5" stop-color="#36B5FF"/>
<stop offset="1" stop-color="#1B66D8"/>
</radialGradient>
<path d="M50.877,28.985c0,11.531-9.346,20.876-20.878,20.876s-20.88-9.345-20.88-20.876 c0-11.529,9.349-20.878,20.88-20.878S50.877,17.456,50.877,28.985z" fill="url(#SVGID_2)"/>
<linearGradient gradientUnits="userSpaceOnUse" id="SVGID_3" x1="30" x2="30" y1="7.92" y2="49.97">
<stop offset="0" stop-color="#31A7F8"/>
<stop offset="0.5" stop-color="#1E74DC"/>
<stop offset="1" stop-color="#88D6EB"/>
</linearGradient>
<path d="M29.999,8.107c-11.532,0-20.88,9.349-20.88,20.878 c0,11.531,9.349,20.876,20.88,20.876s20.878-9.345,20.878-20.876C50.877,17.456,41.531,8.107,29.999,8.107z M29.999,48.033 c-10.842,0-19.662-8.817-19.662-19.656c0-10.842,8.82-19.661,19.662-19.661c10.84,0,19.658,8.819,19.658,19.661 C49.657,39.216,40.839,48.033,29.999,48.033z" fill="url(#SVGID_3)" fill-opacity="0.3" stroke-opacity="0.3"/>
<linearGradient gradientUnits="userSpaceOnUse" id="SVGID_4" x1="9.46" x2="12.78" y1="31.83" y2="31.83">
<stop offset="0" stop-color="#58595B"/>
<stop offset="1" stop-color="#000000"/>
</linearGradient>
<path d="M11.08,28.644c-0.222-0.295-0.725-0.295-0.946-0.295 c-0.437,0-0.669,0.311-0.673,0.616v0.021l0,0.031c0,0.537,0.03,1.14,0.094,1.871c0.013,0.139,0.03,0.276,0.047,0.414l0.024,0.201 c0.055,0.434,0.121,0.861,0.195,1.274l0.035,0.183c0.032,0.162,0.063,0.323,0.097,0.483c0.089,0.405,0.198,0.827,0.332,1.29 c0.019,0.066,0.037,0.135,0.054,0.199c0.029,0.109,0.058,0.217,0.091,0.322l0.005,0.014l0.012,0.033 c-0.003-0.01-0.008-0.023-0.01-0.037l1.197-0.081c0.019-0.187,0.025-0.382,0.019-0.575c-0.01-0.303-0.021-0.676-0.108-0.991 l1.112-1.493l0.121-0.162V31.76v-1.162v-0.253L12.6,30.167L11.08,28.644z" fill="url(#SVGID_4)" fill-opacity="0.3" stroke-opacity="0.3"/>
<linearGradient gradientUnits="userSpaceOnUse" id="SVGID_5" x1="15.86" x2="50.59" y1="25.75" y2="25.75">
<stop offset="0" stop-color="#58595B"/>
<stop offset="1" stop-color="#000000"/>
</linearGradient>
<path d="M50.58,24.893c-0.015-0.079-0.029-0.135-0.043-0.191 c-0.012-0.042-0.021-0.084-0.029-0.125c-0.105-0.495-0.236-1.006-0.391-1.525L50.1,22.994c-0.033-0.117-0.067-0.234-0.105-0.349 c-0.188-0.587-0.393-1.148-0.607-1.666c-0.028-0.065-0.057-0.125-0.085-0.188l-0.045-0.101c-0.206-0.473-0.435-0.947-0.677-1.402 l-0.03-0.059c-0.046-0.089-0.092-0.181-0.141-0.269c-0.295-0.532-0.603-1.04-0.918-1.511c-0.032-0.049-0.069-0.102-0.106-0.154 c-0.023-0.031-0.045-0.062-0.066-0.092c-0.301-0.437-0.617-0.862-0.946-1.268l-0.063-0.081c-0.045-0.055-0.089-0.112-0.135-0.167 c-0.381-0.456-0.783-0.898-1.199-1.316c-0.055-0.057-0.114-0.115-0.176-0.172l-0.049-0.046c-0.375-0.369-0.774-0.731-1.183-1.074 l-0.081-0.069c-0.041-0.037-0.082-0.073-0.125-0.106c-0.446-0.367-0.93-0.728-1.435-1.075c-0.063-0.042-0.126-0.083-0.19-0.124 l-0.076-0.05c-0.455-0.301-0.93-0.589-1.404-0.853l-0.074-0.042c-0.039-0.022-0.078-0.045-0.118-0.068 c-0.528-0.283-1.081-0.55-1.643-0.792L38.28,9.842l-0.153-0.063c-0.148-0.062-0.297-0.114-0.444-0.166 c-0.076-0.026-0.152-0.053-0.228-0.08l-0.282-0.105l-0.254,0.162c-0.171,0.108-0.841,0.491-1.236,0.715 c-0.438-0.059-1.499-0.192-2.569-0.295c0.33-0.032,0.786-0.069,1.429-0.111l0.091-1.204l-0.048-0.012 c-0.038-0.011-0.077-0.02-0.116-0.029l-0.091-0.018l-0.075-0.014c-0.654-0.132-1.271-0.227-1.882-0.291l-0.004-0.001L32.332,8.32 c-0.698-0.07-1.409-0.106-2.113-0.106c-0.62,0-1.262,0.032-1.963,0.101c-0.109,0.01-0.214,0.021-0.321,0.032 c-0.693,0.078-1.299,0.169-1.873,0.286l-0.02,0.003l-0.014,0.002c-0.603,0.125-1.211,0.281-1.856,0.477 c-0.058,0.018-0.115,0.037-0.173,0.055l-0.13,0.043c-0.547,0.175-1.083,0.37-1.596,0.582c-0.042,0.018-0.071,0.029-0.099,0.039 l-0.078,0.031c-0.564,0.241-1.128,0.512-1.688,0.812c-0.061,0.031-0.119,0.066-0.177,0.1l-0.072,0.042 c-0.157,0.087-0.316,0.186-0.472,0.283l-0.204,0.127l-1.118,0.684l1.242,0.416c0.186,0.062,0.385,0.093,0.592,0.093 c0.669,0,1.317-0.329,1.837-0.593c0.209-0.105,0.521-0.264,0.648-0.288c0.152,0.045,0.306,0.068,0.458,0.068 c0.569,0,1.035-0.306,1.447-0.578l0.111-0.071c0.133-0.043,0.362-0.128,0.818-0.299c0.465-0.174,1.314-0.493,1.541-0.547 c0.44-0.005,0.966-0.068,1.339-0.3c0.352,0.058,0.976,0.157,1.619,0.241c-0.046,0.029-0.092,0.059-0.132,0.097 c-0.209,0.192-1.335,0.533-1.679,0.577c-0.648,0.082-0.908,0.408-1.012,0.666c-0.135,0.336-0.053,0.672,0.078,0.946 c-0.245,0.162-0.545,0.342-0.804,0.478c0.001-0.006,0.002-0.012,0.003-0.019c0.093-0.517,0.161-0.89-0.09-1.189 c-0.128-0.153-0.318-0.241-0.519-0.241c-0.295,0-0.525,0.183-0.711,0.362c-0.519,0.502-0.833,1.129-0.953,1.365l-0.022,0.044 l-0.018,0.035c-0.225,0.431-0.318,0.737-0.192,1.688c-0.056,0.04-0.219,0.102-0.446,0.102c-0.03,0-0.058-0.003-0.079-0.004 c-0.146-0.158-0.348-0.247-0.575-0.247c0,0,0,0,0,0c-0.523,0-1.237,0.589-2.124,1.754l-0.284,0.374l0.29,0.37l0.269,0.344 c-4.215,3.258-4.247,3.443-4.292,3.716c-0.007,0.024-0.044,0.138-0.094,0.293c-0.628,1.952-0.977,3.412-0.637,4.195 c0.785,1.813,1.669,3.504,2.816,3.598c0.101,0.009,0.212,0.012,0.332,0.012c1.05,0,2.753-0.318,3.571-0.485 c0.152,0.283,0.335,0.615,0.437,0.795l0.182,0.322l0.37-0.012c0.004,0,0.2-0.006,0.447-0.006c0.287,0,0.479,0.008,0.602,0.016 c0.446,1.307,1.3,4.318,1.141,4.943l-0.002,0.002c-1.441,2.16,0.305,4.975,1.144,6.328c0.066,0.107,0.126,0.203,0.177,0.287 c0.324,0.922,0.716,1.531,1.545,1.531c0.062,0,0.124-0.004,0.188-0.007c0.046-0.003,0.095-0.005,0.146-0.005 c0.092,0,0.158,0.011,0.226,0.035l0.076,0.027l0.08,0.008c0.155,0.012,0.306,0.034,0.453,0.055c0.255,0.035,0.519,0.071,0.789,0.071 c0.721,0,1.293-0.272,1.787-0.856c0.018-0.002,0.036-0.003,0.054-0.006c0.519-0.071,0.712-0.331,0.778-0.564 c0.039-0.038,0.09-0.086,0.131-0.124c0.205-0.188,0.447-0.411,0.615-0.675c0.076-0.044,0.162-0.096,0.258-0.152 c0.167-0.104,0.355-0.217,0.504-0.293c0.131-0.04,0.246-0.116,0.334-0.225c0.209-0.257,0.166-0.548,0.131-0.783 c-0.035-0.242-0.07-0.49,0.061-0.758c0.737-0.354,2.051-1.23,2.262-1.373l-0.001,0.017c-0.013,0.116-0.048,0.431-0.101,0.628 c-0.278,0.28-0.512,0.703-0.586,0.846l-0.048,0.094l-0.015,0.104c-0.018,0.138-0.094,0.851,0.307,1.311 c0.201,0.23,0.49,0.359,0.813,0.359c0.102,0,0.209-0.014,0.318-0.039c1.027-0.232,2.85-2.702,2.998-4.065 c0.072-0.656-0.186-1.173-0.704-1.417l-0.387-0.183l-0.304,0.302l-1.125,1.126c-0.381,0.034-0.678,0.147-0.879,0.325 c0.012-0.479-0.036-0.973-0.087-1.451c-0.155-1.445-0.185-2.369,0.703-2.996l0.045-0.032l0.038-0.04 c0.32-0.326,0.676-0.61,1.052-0.912c0.88-0.707,1.79-1.438,2.332-2.759l0.022-0.056c0.174-0.451,0.437-1.131,0.082-1.651 c-0.09-0.128-0.275-0.326-0.625-0.396c0.461-0.186,0.816-0.333,0.852-0.345l0.106-0.044l0.083-0.08l1.899-1.822l0.278-0.269 l-0.122-0.366c-0.017-0.047-0.12-0.335-0.411-0.748c0.554,0.075,1.029,0.208,1.185,0.326c0.057,0.125,0.171,0.397,0.292,0.683 c2.088,4.924,2.383,5.177,2.926,5.186c0.021,0,0.037,0.002,0.051,0.003c0.043,0.003,0.083,0.005,0.119,0.005 c0.309,0,0.486-0.158,0.564-0.252c0.227-0.273,0.163-0.608,0.139-0.734l-0.008-0.043c-0.025-0.294-0.009-1.618,0.034-2.706 c0.003,0.002,0.004,0.006,0.007,0.01l1.119-0.445L50.58,24.893z M34.123,18.871c-0.086,0.003-0.181,0.008-0.281,0.012 c-0.322,0.014-0.689,0.031-1.054,0.031c-0.956,0-1.173-0.118-1.195-0.132c-0.114-0.082-0.23-0.143-0.351-0.188 c0.217-0.048,0.465-0.214,0.72-0.708c0.25,0.487,0.592,0.917,1.114,0.917c0.141,0,0.277-0.034,0.406-0.101 C33.658,18.706,33.949,18.806,34.123,18.871z M33.748,16.207c-0.072,0-0.131-0.003-0.176-0.007c0.049-0.128,0.108-0.202,0.154-0.244 c0.061,0.093,0.141,0.175,0.232,0.245C33.885,16.204,33.814,16.207,33.748,16.207z M29.946,17.485 c0.327,0.641,0.569,0.917,0.762,1.037c-0.475,0.039-0.833,0.34-1.126,0.625c-0.206-0.068-0.565-0.286-0.672-0.438 c-0.063-0.089-0.138-0.166-0.22-0.232C29.208,18.329,29.665,17.847,29.946,17.485z M28.139,17.012l-0.678-0.034l-2.279-0.111 c0.278-0.228,0.542-0.444,0.697-0.57c0.042-0.014,0.205-0.06,0.606-0.06c0.242,0,0.473,0.017,0.62,0.029L28.139,17.012z" fill="url(#SVGID_5)" fill-opacity="0.3" stroke-opacity="0.3"/>
<radialGradient cx="30.34" cy="14.28" gradientUnits="userSpaceOnUse" id="SVGID_6" r="23.56">
<stop offset="0" stop-color="#7AF200"/>
<stop offset="0.32" stop-color="#7AF200"/>
<stop offset="0.73" stop-color="#1CAD0F"/>
<stop offset="1" stop-color="#007A3A"/>
</radialGradient>
<path d="M10.069,28.973C10.069,28.973,10.069,28.973,10.069,28.973c0,0.008,0,0.012,0,0.018 c0,0.622,0.039,1.237,0.093,1.843c0.017,0.199,0.046,0.398,0.069,0.599c0.053,0.417,0.116,0.829,0.19,1.237 c0.042,0.217,0.082,0.434,0.127,0.646c0.093,0.422,0.203,0.838,0.321,1.248c0.05,0.17,0.089,0.343,0.14,0.508 c0.007,0.018,0.014,0.034,0.018,0.053c0.017-0.162,0.021-0.327,0.017-0.497c-0.04-1.199-0.233-1.045-0.233-1.045l1.357-1.823v-1.162 l-1.589-1.59C10.581,29.008,10.069,28.928,10.069,28.973z" fill="url(#SVGID_6)"/>
<path d="M22.828,10.949c0.587,0.192,1.066-0.2,1.613-0.548c0.193-0.04,2.338-0.896,2.57-0.896 c0.231,0,1.01-0.03,1.204-0.34c0,0,3.357,0.583,3.862,0.389c0.277-0.108,1.434-0.2,2.426-0.265 c-0.057-0.012-0.107-0.029-0.162-0.041c-0.055-0.011-0.106-0.019-0.162-0.03c-0.623-0.125-1.252-0.226-1.894-0.29 c-0.005,0-0.01,0-0.015-0.002c-0.674-0.068-1.359-0.104-2.053-0.104c-0.643,0-1.277,0.039-1.906,0.098 c-0.11,0.011-0.22,0.023-0.331,0.035c-0.608,0.066-1.21,0.155-1.8,0.273c-0.01,0.004-0.021,0.005-0.031,0.006 c-0.613,0.126-1.213,0.283-1.802,0.464c-0.102,0.03-0.199,0.064-0.301,0.096c-0.523,0.168-1.038,0.356-1.544,0.564 c-0.06,0.026-0.12,0.047-0.18,0.071c-0.556,0.238-1.099,0.501-1.629,0.784c-0.08,0.043-0.157,0.089-0.235,0.134 c-0.227,0.125-0.44,0.267-0.66,0.401C20.89,12.115,22.251,10.754,22.828,10.949z" fill="url(#SVGID_6)"/>
<path d="M49.98,24.995c-0.021-0.102-0.049-0.197-0.07-0.296c-0.105-0.499-0.233-0.99-0.377-1.473 c-0.039-0.13-0.076-0.265-0.117-0.395c-0.176-0.548-0.372-1.09-0.592-1.617c-0.039-0.093-0.084-0.184-0.123-0.275 c-0.203-0.464-0.422-0.918-0.658-1.363c-0.055-0.106-0.109-0.215-0.166-0.319c-0.279-0.502-0.574-0.993-0.892-1.468 c-0.054-0.083-0.115-0.162-0.171-0.242c-0.291-0.422-0.596-0.831-0.916-1.228c-0.063-0.079-0.126-0.161-0.193-0.241 c-0.368-0.443-0.756-0.868-1.16-1.277c-0.07-0.071-0.143-0.141-0.215-0.208c-0.371-0.364-0.756-0.714-1.153-1.047 c-0.067-0.056-0.132-0.116-0.198-0.171c-0.448-0.366-0.915-0.714-1.395-1.042c-0.084-0.058-0.17-0.113-0.256-0.167 c-0.442-0.294-0.898-0.572-1.365-0.83c-0.064-0.035-0.124-0.073-0.188-0.108c-0.52-0.278-1.049-0.533-1.594-0.768 c-0.097-0.041-0.195-0.079-0.29-0.12c-0.212-0.087-0.432-0.156-0.646-0.235c-0.255,0.163-1.438,0.832-1.438,0.832 s-5.141-0.702-5.492-0.353c-0.351,0.353-1.721,0.71-2.033,0.751c-0.31,0.039-0.956,0.206-0.181,1.161 c-0.116,0.118-2.325,1.657-2.325,0.957c0-0.701,0.494-1.953-0.2-1.282c-0.498,0.482-0.796,1.135-0.86,1.257 c-0.163,0.313-0.263,0.462-0.145,1.357s-1.43,0.891-1.534,0.659c-0.277-0.622-1.809,1.394-1.809,1.394l0.647,0.828 c0,0-4.509,3.474-4.548,3.707c-0.039,0.234-1.164,3.25-0.775,4.146c0.389,0.898,1.375,3.158,2.307,3.233 c1.221,0.1,4.185-0.559,4.185-0.559c0.08,0.196,0.637,1.189,0.637,1.189s1.453-0.047,1.534,0.11c0.027,0.053,1.75,5.121,1.182,5.793 c-1.357,2.032,0.775,5.011,1.369,6.018c0.595,1.731,0.977,0.957,1.758,1.239c0.961,0.084,1.773,0.439,2.589-0.611 c0.237-0.195,0.641-0.041,0.641-0.313c0-0.152,0.697-0.598,0.877-1.018c0.189-0.089,0.675-0.415,1.004-0.572 c0.299-0.02-0.283-0.82,0.309-1.666c0.639-0.252,2.364-1.415,2.364-1.415c0.077-1.704-0.839-3.812,0.873-5.02 c1.104-1.125,2.552-1.765,3.253-3.478c0.195-0.505,0.629-1.542-0.619-1.231c-1.172,0.295-2.479,0.362-1.861-0.154 c-0.07-0.634-0.85-0.931-1.549-1.551c-0.361-0.854-0.93-2.378-0.93-2.378l-1.24-1.884l0.156-0.389l1.473,2.17l1.475,1.782 c0.541,1.783,1.006,1.939,1.006,1.939c0.816-0.289,2.752-1.085,2.752-1.085l1.899-1.823c0,0-0.195-0.581-0.967-1.316l-0.584-0.349 c-0.126,0.357-0.802,0.492-0.802,0.492l-1.641-1.963l0.61-0.123l0.471,0.896l1.128,0.39c0,0,0.313-0.229,0.893,0.371 c0.473-0.04,2.318,0.089,2.749,0.636c0.085,0.109,2.286,5.606,2.72,5.614c0.191,0.001,0.329,0.077,0.268-0.256 c-0.078-0.157,0-3.609,0.115-4.349c0.295-0.627,0.344-0.002,1.039,1.188C49.987,25.052,49.984,25.023,49.98,24.995z M30.608,11.672 c0.153-0.459,1.046-0.615,1.046-0.615s-0.256,0.472-0.196,0.716c0.06,0.246-0.407,0.401-0.46,0.982 c-0.051,0.577-1.117,0.239-1.205,0.036C29.706,12.589,30.451,12.13,30.608,11.672z M34.431,19.474c-0.661,0-2.644,0.196-3.189-0.193 c-0.547-0.389-0.97,0.039-1.363,0.429c-0.258,0.253-1.193-0.259-1.467-0.649c-0.272-0.39-1.188-0.361-1.188-0.361l0.208-1.11 l-2.637-0.128l-1.499,0.439l-1.411,0.041l0.79-0.376l0.984-0.232c0,0,1.431-1.175,1.858-1.525c0.364-0.296,1.81-0.129,1.81-0.129 l1.589,1.146c0,0-0.353,0.898-0.508,1.09c0.583-0.039,1.269-1.099,1.269-1.099c-1.239-1.138-1.189-1.524-1.189-1.524l1.633,1.146 l0.015,0.01c0,0,0.662,1.558,0.937,1.558c0.271,0,0.619-1.073,0.619-1.073l0.466-0.117c0.207,0.492,0.594,1.602,1.059,1.343 c0.268-0.147,0.709-0.013,1.213,0.18c0.51,0.195,0.854-0.104,1.268,0.258C35.646,20.198,34.705,19.551,34.431,19.474z M35.469,16.792c-0.682-0.259-2.984,0.586-2.469-0.796c0.274-0.746,0.98-0.902,1.221-0.405c0.063,0.203,0.83,0.519,0.825,0.089 c-0.006-0.43,0.771-0.659,0.883-0.338C35.514,15.64,37.547,17.19,35.469,16.792z M39.807,18.102 c-0.377-0.304,0.169-0.564-0.387-1.04c-0.799-0.684-1.421-0.979-0.334-1.532c1.34-0.168,0.217,0.428,0.439,0.785 c0.119,0.19,0.797,0.828,1.326,1.61C41.291,18.574,40.182,18.405,39.807,18.102z" fill="url(#SVGID_6)"/>
<path d="M40.348,35.855l-1.293,1.291c0,0-0.778,0-0.814,0.311c-0.018,0.133-0.063,0.709-0.192,1.008 c-0.259,0.18-0.569,0.775-0.569,0.775s-0.159,1.149,0.699,0.953C39.035,40,41.674,36.48,40.348,35.855z" fill="url(#SVGID_6)"/>
<rect fill="none" height="59.996" width="59.996"/>
<rect fill-opacity="0.4" height="24.999" stroke-opacity="0.4" transform="matrix(0.8133 -0.5819 0.5819 0.8133 -15.5607 18.7982)" width="3.674" x="19.673" y="21.145"/>
<linearGradient gradientUnits="userSpaceOnUse" id="SVGID_10" x1="22.2" x2="20.47" y1="32.54" y2="33.77">
<stop offset="0" stop-color="#999999"/>
<stop offset="0.27" stop-color="#FFFFFF"/>
<stop offset="0.67" stop-color="#999999"/>
<stop offset="0.82" stop-color="#666666"/>
<stop offset="1" stop-color="#B3B3B3"/>
</linearGradient>
<polygon fill="url(#SVGID_10)" points="27.434,43.408 13.595,24.078 15.586,22.653 29.425,41.983 "/>
<rect fill-opacity="0.4" height="3.673" stroke-opacity="0.4" transform="matrix(0.5821 -0.8131 0.8131 0.5821 -11.1119 45.664)" width="24.998" x="26.369" y="31.806"/>
<linearGradient gradientUnits="userSpaceOnUse" id="SVGID_11" x1="38.02" x2="39.86" y1="32.42" y2="33.75">
<stop offset="0" stop-color="#999999"/>
<stop offset="0.27" stop-color="#FFFFFF"/>
<stop offset="0.67" stop-color="#999999"/>
<stop offset="0.82" stop-color="#666666"/>
<stop offset="1" stop-color="#B3B3B3"/>
</linearGradient>
<polygon fill="url(#SVGID_11)" points="32.944,43.408 46.783,24.078 44.791,22.653 30.953,41.983 "/>
<rect fill-opacity="0.4" height="3.673" stroke-opacity="0.4" width="33.134" x="12.89" y="17.697"/>
<linearGradient gradientUnits="userSpaceOnUse" id="SVGID_12" x1="29.46" x2="29.46" y1="17.65" y2="20.41">
<stop offset="0" stop-color="#999999"/>
<stop offset="0.27" stop-color="#FFFFFF"/>
<stop offset="0.67" stop-color="#999999"/>
<stop offset="0.82" stop-color="#666666"/>
<stop offset="1" stop-color="#B3B3B3"/>
</linearGradient>
<polygon fill="url(#SVGID_12)" points="45.412,20.146 13.502,20.146 13.502,17.697 45.412,17.697 "/>
<linearGradient gradientUnits="userSpaceOnUse" id="SVGID_13" x1="30.11" x2="30.11" y1="29.69" y2="50.46">
<stop offset="0" stop-color="#A6A8AB"/>
<stop offset="1" stop-color="#231F20"/>
</linearGradient>
<path d="M35.363,45.609l-0.757-0.28l-0.134-0.055l-0.16-0.062 l-0.428-0.172c-0.199-0.361-0.211-1.13-0.064-1.471l-0.262-0.146l0.283,0.101c0.043-0.067,0.084-0.136,0.126-0.208l0.043-0.069 c0.319-0.522,0.617-1.071,0.885-1.634c0.669-0.076,1.322-0.654,1.659-1.489c0.387-0.95,0.262-1.936-0.283-2.444 c0.493-2.213,0.152-4.221-0.959-5.652c-1.123-1.449-2.96-2.258-5.325-2.335c-2.061,0-3.124,0.913-3.877,1.834 c-0.559,0.129-1.289,0.453-1.808,1.257c-0.7,1.084-0.787,2.715-0.259,4.851c-0.583,0.487-0.74,1.474-0.365,2.456 c0.353,0.922,1.079,1.539,1.808,1.539c0.005,0,0.007,0,0.013,0c0.114,0.242,0.234,0.479,0.357,0.711h-0.039l0.277,0.453 c0,0,0.419,0.688,0.447,0.73c0.111,0.174,0.204,0.962-0.004,1.44l-0.567,0.249c-0.331,0.129-0.744,0.285-1.191,0.455 c-1.251,0.477-2.672,1.017-3.214,1.305c-0.548,0.291-1.022,0.639-1.431,1.033c2.953,1.533,6.304,2.406,9.861,2.406 c3.646,0,7.078-0.914,10.083-2.52c-0.555-0.522-1.066-0.816-1.269-0.923C38.29,46.697,36.668,46.096,35.363,45.609z" fill="url(#SVGID_13)" fill-opacity="0.2" stroke-opacity="0.2"/>
<linearGradient gradientUnits="userSpaceOnUse" id="SVGID_14" x1="30.11" x2="30.11" y1="29.99" y2="50.46">
<stop offset="0" stop-color="#A9AAAD"/>
<stop offset="1" stop-color="#000000"/>
</linearGradient>
<path d="M35.26,45.89l-0.766-0.284l-0.129-0.052l-0.164-0.063 l-0.518-0.207c-0.324-0.445-0.318-1.407-0.137-1.838l0.012-0.021c0.01-0.023,0.019-0.043,0.031-0.063 c0.041-0.066,0.084-0.134,0.121-0.201l0.045-0.069c0.344-0.563,0.662-1.157,0.947-1.769c0.016,0.001,0.029,0.001,0.045,0.001 c0.599,0,1.213-0.526,1.531-1.312c0.37-0.914,0.217-1.848-0.339-2.216c0.026-0.114,0.039-0.177,0.039-0.177 c0.474-2.127,0.153-4.049-0.903-5.41c-1.066-1.377-2.824-2.144-5.089-2.219c-1.961,0-2.952,0.856-3.712,1.805 c-0.537,0.104-1.234,0.394-1.722,1.15c-0.675,1.044-0.731,2.663-0.171,4.814c-0.597,0.337-0.785,1.283-0.425,2.224 c0.309,0.804,0.923,1.347,1.529,1.347c0.064,0,0.13-0.007,0.191-0.02c0.213,0.455,0.441,0.9,0.684,1.326H26.35l0.362,0.592 c0,0,0.055,0.092,0.082,0.134c0.185,0.288,0.271,1.284-0.036,1.83l-0.676,0.296c-0.334,0.129-0.747,0.287-1.187,0.454 c-1.246,0.474-2.66,1.012-3.187,1.292c-0.489,0.259-0.921,0.564-1.293,0.912c2.885,1.445,6.138,2.264,9.584,2.264 c3.533,0,6.863-0.86,9.801-2.376c-0.495-0.449-0.942-0.707-1.126-0.802C38.17,46.971,36.555,46.371,35.26,45.89z" fill="url(#SVGID_14)" fill-opacity="0.4" stroke-opacity="0.4"/>
<radialGradient cx="30.36" cy="49.25" gradientUnits="userSpaceOnUse" id="SVGID_15" r="8.41">
<stop offset="0" stop-color="#FFA98E"/>
<stop offset="0.2" stop-color="#FFA98E"/>
<stop offset="0.96" stop-color="#D45D36"/>
<stop offset="1" stop-color="#D45D36"/>
</radialGradient>
<path d="M33.777,45.442c-0.79-0.343-0.766-2.028-0.439-2.538c0.057-0.089,0.109-0.178,0.164-0.268 h-6.62c0.054,0.09,0.106,0.179,0.163,0.268c0.327,0.51,0.352,2.195-0.439,2.538c-0.792,0.345,3.68,3.339,3.68,3.339 S34.57,45.787,33.777,45.442z" fill="url(#SVGID_15)"/>
<linearGradient gradientUnits="userSpaceOnUse" id="SVGID_16" x1="30.19" x2="30.19" y1="45.13" y2="52.06">
<stop offset="0" stop-color="#3BC8EB"/>
<stop offset="0.39" stop-color="#2D9BD2"/>
<stop offset="0.89" stop-color="#1347BA"/>
<stop offset="1" stop-color="#1347BA"/>
</linearGradient>
<path d="M38.536,47.2c-0.832-0.434-4.959-1.878-5.036-1.968l-3.151,2.619l-3.386-2.721 c-0.094,0.139-4.171,1.568-5.116,2.069c-1.08,0.573-2.844,1.892-2.844,4.86H41.38C41.38,49.092,39.367,47.633,38.536,47.2z" fill="url(#SVGID_16)"/>
<linearGradient gradientUnits="userSpaceOnUse" id="SVGID_17" x1="30.22" x2="30.22" y1="44.68" y2="48.73">
<stop offset="0" stop-color="#FAFAFA"/>
<stop offset="0.78" stop-color="#CCCCCC"/>
<stop offset="1" stop-color="#D1D1D1"/>
</linearGradient>
<polygon fill="url(#SVGID_17)" points="26.19,45.467 30.349,48.781 34.254,45.535 33.5,45.232 30.349,47.852 26.963,45.131 "/>
<linearGradient gradientUnits="userSpaceOnUse" id="SVGID_18" x1="19.6" x2="26.39" y1="48.84" y2="48.84">
<stop offset="0" stop-color="#85EFFF"/>
<stop offset="1" stop-color="#3BA1D9"/>
</linearGradient>
<path d="M26.387,45.992c0,0-5.931,1.549-5.931,5.703c0,0-0.848,0-0.854,0 C19.602,49.141,21.595,47.152,26.387,45.992z" fill="url(#SVGID_18)"/>
<linearGradient gradientUnits="userSpaceOnUse" id="SVGID_19" x1="33.92" x2="40.7" y1="48.75" y2="48.75">
<stop offset="0" stop-color="#85EFFF"/>
<stop offset="1" stop-color="#3BA1D9"/>
</linearGradient>
<path d="M33.918,45.896c0,0,5.932,1.549,5.932,5.704c0,0,0.848,0,0.854,0 C40.704,49.044,38.709,47.057,33.918,45.896z" fill="url(#SVGID_19)"/>
<polygon fill="#020202" fill-opacity="0.3" points="30.349,48.781 26.19,45.467 25.949,45.572 30.349,49.078 34.496,45.63 34.254,45.533 " stroke-opacity="0.3"/>
<radialGradient cx="30.12" cy="33.65" gradientUnits="userSpaceOnUse" id="SVGID_20" r="11.29">
<stop offset="0" stop-color="#FFE2D9"/>
<stop offset="0.51" stop-color="#FFC6B3"/>
<stop offset="0.76" stop-color="#FFA98E"/>
<stop offset="1" stop-color="#E88160"/>
</radialGradient>
<path d="M35.681,37.694c-0.028-0.014-0.062-0.016-0.089-0.024l0,0 c-0.006-0.002-0.011-0.004-0.016-0.004c-0.045-0.013-0.088-0.021-0.133-0.025c-5.527-0.961-8.062-4.021-8.253-3.211 c-0.152,0.645-1.702,2.039-2.513,2.736c0.006,0.031,0.01,0.059,0.017,0.09c0,0,0.03,0.143,0.089,0.385 c-0.063,0.008-0.126,0.021-0.188,0.047c-0.517,0.217-0.679,1.063-0.362,1.891c0.316,0.827,0.991,1.322,1.508,1.104 c0.032-0.014,0.059-0.036,0.089-0.056c0.3,0.676,0.668,1.397,1.119,2.123c0.755,0.898,1.914,1.951,3.192,1.951 c1.547,0,2.493-0.846,3.144-1.698c0.016-0.036,0.033-0.069,0.053-0.099c0.482-0.753,0.873-1.51,1.188-2.213 c0.505,0.175,1.153-0.294,1.476-1.089C36.336,38.779,36.193,37.925,35.681,37.694z" fill="url(#SVGID_20)"/>
<linearGradient gradientUnits="userSpaceOnUse" id="SVGID_21" x1="28.2" x2="32.97" y1="45.22" y2="40.48">
<stop offset="0" stop-color="#FFC6B3"/>
<stop offset="1" stop-color="#FFA98E"/>
</linearGradient>
<path d="M29.915,44.27c-0.942,0-1.892-0.439-2.589-1.1c0.74,0.776,1.733,1.531,2.817,1.531 c1.546,0,2.493-0.846,3.144-1.698c0.015-0.036,0.031-0.069,0.053-0.099c0.48-0.753,0.873-1.51,1.188-2.213 C32.768,43.766,31.461,44.27,29.915,44.27z" fill="url(#SVGID_21)"/>
<linearGradient gradientUnits="userSpaceOnUse" id="SVGID_22" x1="30.1" x2="30.1" y1="30.09" y2="37.12">
<stop offset="0" stop-color="#8A5D3B"/>
<stop offset="0.38" stop-color="#632F00"/>
<stop offset="1" stop-color="#361700"/>
</linearGradient>
<path d="M29.987,29.99c-1.917,0-2.837,0.872-3.549,1.782c-1.158,0.178-2.991,1.238-1.696,5.884 c0.812-0.695,2.295-2.581,2.447-3.226c0.192-0.819,2.771,2.307,8.402,3.238c0.064-0.26,0.095-0.413,0.095-0.413 C36.572,33.289,34.649,30.146,29.987,29.99z" fill="url(#SVGID_22)"/>
<linearGradient gradientUnits="userSpaceOnUse" id="SVGID_23" x1="32.5" x2="26.13" y1="36.82" y2="33.04">
<stop offset="0" stop-color="#8A5D3B"/>
<stop offset="0.36" stop-color="#632F00"/>
<stop offset="1" stop-color="#361700"/>
</linearGradient>
<path d="M27.198,34.05c0,0,2.756,3.62,8.355,3.614C35.553,37.664,32.916,37.25,27.198,34.05z" fill="url(#SVGID_23)"/>
<linearGradient gradientUnits="userSpaceOnUse" id="SVGID_24" x1="25.56" x2="25.61" y1="32.3" y2="36.35">
<stop offset="0" stop-color="#8A5D3B"/>
<stop offset="0.38" stop-color="#632F00"/>
<stop offset="1" stop-color="#361700"/>
</linearGradient>
<path d="M26.534,32.041c0,0-2.699,0.161-1.697,4.734C24.837,36.775,24.507,33.644,26.534,32.041z" fill="url(#SVGID_24)"/>
<linearGradient gradientUnits="userSpaceOnUse" id="SVGID_25" x1="30.99" x2="30.79" y1="30.7" y2="32.53">
<stop offset="0" stop-color="#A87C4F"/>
<stop offset="1" stop-color="#632F00"/>
</linearGradient>
<path d="M31.295,32.674c-1.257-0.179-3.381-1.292-4.215-0.895c0,0,2.726-3.11,7.539,0.432 C34.619,32.211,33.471,32.984,31.295,32.674z" fill="url(#SVGID_25)"/>
<rect fill="none" height="29.998" width="29.997" x="15.192" y="26.325"/>
<linearGradient gradientUnits="userSpaceOnUse" id="SVGID_26" x1="15.32" x2="15.32" y1="26.12" y2="11.07">
<stop offset="0" stop-color="#A6A8AB"/>
<stop offset="1" stop-color="#231F20"/>
</linearGradient>
<path d="M8.773,26.072h13.092v-0.487 c0-2.907-2.152-4.174-2.584-4.4c-0.426-0.222-1.75-0.714-2.816-1.11l-0.617-0.229l-0.11-0.044l-0.131-0.05l-0.35-0.14 c-0.162-0.295-0.171-0.922-0.052-1.201l-0.213-0.119l0.23,0.082c0.035-0.056,0.067-0.111,0.103-0.169l0.036-0.057 c0.261-0.427,0.503-0.875,0.723-1.334c0.545-0.062,1.08-0.534,1.355-1.215c0.315-0.775,0.213-1.58-0.231-1.996 c0.149-0.672,0.204-1.319,0.168-1.928C12.782,15.03,9.577,20.167,8.773,26.072z" fill="url(#SVGID_26)" fill-opacity="0.2" stroke-opacity="0.2"/>
<linearGradient gradientUnits="userSpaceOnUse" id="SVGID_27" x1="15.21" x2="15.21" y1="11.48" y2="26.12">
<stop offset="0" stop-color="#A9AAAD"/>
<stop offset="1" stop-color="#000000"/>
</linearGradient>
<path d="M8.804,25.828h12.817v-0.243 c0-2.767-2.043-3.971-2.453-4.184c-0.413-0.214-1.73-0.704-2.788-1.097l-0.625-0.232l-0.104-0.042l-0.135-0.051l-0.422-0.169 c-0.264-0.363-0.259-1.148-0.111-1.5l0.01-0.018c0.007-0.019,0.016-0.036,0.025-0.05c0.034-0.055,0.068-0.109,0.099-0.165 l0.036-0.057c0.281-0.459,0.542-0.944,0.773-1.443c0.013,0,0.025,0,0.038,0c0.488,0,0.99-0.43,1.25-1.071 c0.302-0.746,0.177-1.508-0.277-1.809c0.021-0.092,0.033-0.144,0.033-0.144c0.132-0.592,0.182-1.162,0.166-1.704 C12.73,15.16,9.646,20.129,8.804,25.828z" fill="url(#SVGID_27)" fill-opacity="0.4" stroke-opacity="0.4"/>
<radialGradient cx="12.38" cy="23.06" gradientUnits="userSpaceOnUse" id="SVGID_28" r="6.87">
<stop offset="0" stop-color="#FFA98E"/>
<stop offset="0.2" stop-color="#FFA98E"/>
<stop offset="0.96" stop-color="#D45D36"/>
<stop offset="1" stop-color="#D45D36"/>
</radialGradient>
<path d="M15.171,19.939c-0.646-0.281-0.625-1.656-0.359-2.073c0.047-0.072,0.089-0.145,0.134-0.218 H9.542c0.043,0.073,0.087,0.146,0.133,0.218c0.266,0.417,0.287,1.792-0.359,2.073s3.003,2.725,3.003,2.725 S15.818,20.22,15.171,19.939z" fill="url(#SVGID_28)"/>
<linearGradient gradientUnits="userSpaceOnUse" id="SVGID_29" x1="12.24" x2="12.24" y1="19.68" y2="25.34">
<stop offset="0" stop-color="#FF7236"/>
<stop offset="1" stop-color="#BA1212"/>
</linearGradient>
<path d="M19.056,21.374c-0.68-0.354-4.047-1.533-4.111-1.606l-2.573,2.138l-2.764-2.221 c-0.077,0.113-3.406,1.28-4.176,1.689c-0.881,0.469-2.321,1.543-2.321,3.967h18.266C21.377,22.917,19.734,21.727,19.056,21.374z" fill="url(#SVGID_29)"/>
<linearGradient gradientUnits="userSpaceOnUse" id="SVGID_30" x1="12.27" x2="12.27" y1="19.31" y2="22.62">
<stop offset="0" stop-color="#BC1C24"/>
<stop offset="1" stop-color="#6B1C24"/>
</linearGradient>
<polygon fill="url(#SVGID_30)" points="8.978,19.959 12.372,22.664 15.56,20.015 14.945,19.768 12.372,21.905 9.608,19.685 "/>
<path d="M9.138,20.388c0,0-4.842,1.264-4.842,4.655c0,0-0.692,0-0.697,0 C3.599,22.958,5.227,21.336,9.138,20.388z" fill="#FF7B56"/>
<path d="M15.287,20.309c0,0,4.842,1.265,4.842,4.657c0,0,0.692,0,0.697,0 C20.826,22.879,19.197,21.257,15.287,20.309z" fill="#FF7B56"/>
<linearGradient gradientUnits="userSpaceOnUse" id="SVGID_31" x1="12.27" x2="12.27" y1="22.91" y2="19.78">
<stop offset="0" stop-color="#FFA98E"/>
<stop offset="0.96" stop-color="#D45D36"/>
<stop offset="1" stop-color="#D45D36"/>
</linearGradient>
<polygon fill="url(#SVGID_31)" points="12.372,22.664 8.978,19.959 8.78,20.045 12.372,22.907 15.758,20.092 15.561,20.013 "/>
<radialGradient cx="12.19" cy="10.32" gradientUnits="userSpaceOnUse" id="SVGID_32" r="9.22">
<stop offset="0" stop-color="#FFE2D9"/>
<stop offset="0.51" stop-color="#FFC6B3"/>
<stop offset="0.76" stop-color="#FFA98E"/>
<stop offset="1" stop-color="#E88160"/>
</radialGradient>
<path d="M16.724,13.614c-0.023-0.012-0.049-0.013-0.072-0.021l0,0 c-0.005-0.001-0.009-0.002-0.013-0.003c-0.036-0.01-0.071-0.018-0.108-0.02c-4.511-0.784-6.582-3.283-6.737-2.621 c-0.124,0.526-1.39,1.665-2.051,2.232c0.005,0.026,0.008,0.048,0.013,0.074c0,0,0.024,0.116,0.074,0.315 c-0.052,0.006-0.104,0.016-0.154,0.038c-0.422,0.178-0.553,0.869-0.295,1.543c0.258,0.675,0.809,1.08,1.231,0.902 c0.026-0.012,0.048-0.03,0.072-0.045c0.244,0.551,0.546,1.141,0.914,1.733c0.617,0.733,1.563,1.593,2.605,1.593 c1.263,0,2.035-0.69,2.567-1.387c0.012-0.029,0.026-0.056,0.042-0.08c0.394-0.615,0.713-1.232,0.971-1.807 c0.413,0.143,0.941-0.241,1.204-0.889C17.26,14.5,17.143,13.802,16.724,13.614z" fill="url(#SVGID_32)"/>
<linearGradient gradientUnits="userSpaceOnUse" id="SVGID_33" x1="10.61" x2="14.51" y1="19.76" y2="15.89">
<stop offset="0" stop-color="#FFC6B3"/>
<stop offset="1" stop-color="#FFA98E"/>
</linearGradient>
<path d="M12.018,18.981c-0.769,0-1.543-0.358-2.114-0.898c0.604,0.634,1.416,1.251,2.299,1.251 c1.263,0,2.035-0.69,2.567-1.387c0.012-0.029,0.026-0.057,0.042-0.081c0.394-0.615,0.713-1.232,0.971-1.806 C14.348,18.57,13.28,18.981,12.018,18.981z" fill="url(#SVGID_33)"/>
<linearGradient gradientUnits="userSpaceOnUse" id="SVGID_34" x1="12.17" x2="12.17" y1="7.41" y2="13.15">
<stop offset="0" stop-color="#8A5D3B"/>
<stop offset="0.38" stop-color="#632F00"/>
<stop offset="1" stop-color="#361700"/>
</linearGradient>
<path d="M12.077,7.325c-1.564,0-2.316,0.71-2.897,1.455c-0.944,0.145-2.44,1.011-1.383,4.803 c0.663-0.568,1.874-2.107,1.998-2.633c0.158-0.669,2.262,1.883,6.859,2.644c0.053-0.213,0.078-0.338,0.078-0.338 C17.453,10.018,15.882,7.452,12.077,7.325z" fill="url(#SVGID_34)"/>
<linearGradient gradientUnits="userSpaceOnUse" id="SVGID_35" x1="14.13" x2="8.93" y1="12.9" y2="9.81">
<stop offset="0" stop-color="#8A5D3B"/>
<stop offset="0.36" stop-color="#632F00"/>
<stop offset="1" stop-color="#361700"/>
</linearGradient>
<path d="M9.799,10.64c0,0,2.25,2.954,6.821,2.949C16.62,13.589,14.467,13.251,9.799,10.64z" fill="url(#SVGID_35)"/>
<linearGradient gradientUnits="userSpaceOnUse" id="SVGID_36" x1="8.46" x2="8.51" y1="9.21" y2="12.51">
<stop offset="0" stop-color="#8A5D3B"/>
<stop offset="0.38" stop-color="#632F00"/>
<stop offset="1" stop-color="#361700"/>
</linearGradient>
<path d="M9.258,8.999c0,0-2.203,0.132-1.386,3.865C7.872,12.864,7.604,10.307,9.258,8.999z" fill="url(#SVGID_36)"/>
<linearGradient gradientUnits="userSpaceOnUse" id="SVGID_37" x1="12.9" x2="12.73" y1="7.9" y2="9.4">
<stop offset="0" stop-color="#A87C4F"/>
<stop offset="1" stop-color="#632F00"/>
</linearGradient>
<path d="M13.145,9.516c-1.025-0.146-2.76-1.055-3.44-0.73c0,0,2.225-2.539,6.154,0.352 C15.858,9.138,14.921,9.77,13.145,9.516z" fill="url(#SVGID_37)"/>
<rect fill="none" height="24.488" width="24.488" y="4.333"/>
<path d="M51.07,26.072H37.979v-0.487 c0-2.907,2.152-4.174,2.584-4.4c0.425-0.222,1.75-0.714,2.815-1.11l0.617-0.229l0.109-0.044l0.132-0.05l0.35-0.14 c0.162-0.295,0.171-0.922,0.051-1.201l0.214-0.119l-0.23,0.082c-0.034-0.056-0.067-0.111-0.103-0.169l-0.035-0.057 c-0.262-0.427-0.504-0.875-0.724-1.334c-0.545-0.062-1.079-0.534-1.354-1.215c-0.315-0.775-0.213-1.58,0.23-1.996 c-0.148-0.672-0.203-1.319-0.167-1.928C47.061,15.03,50.266,20.167,51.07,26.072z" fill="url(#SVGID_26)" fill-opacity="0.2" stroke-opacity="0.2"/>
<path d="M51.039,25.828H38.222v-0.243 c0-2.767,2.042-3.971,2.453-4.184c0.413-0.214,1.729-0.704,2.788-1.097l0.625-0.232l0.104-0.042l0.136-0.051l0.421-0.169 c0.266-0.363,0.26-1.148,0.112-1.5l-0.01-0.018c-0.007-0.019-0.016-0.036-0.025-0.05c-0.034-0.055-0.067-0.109-0.099-0.165 l-0.037-0.057c-0.28-0.459-0.541-0.944-0.773-1.443c-0.012,0-0.024,0-0.037,0c-0.488,0-0.99-0.43-1.25-1.071 c-0.302-0.746-0.176-1.508,0.277-1.809c-0.021-0.092-0.033-0.144-0.033-0.144c-0.132-0.592-0.182-1.162-0.166-1.704 C47.111,15.16,50.197,20.129,51.039,25.828z" fill="url(#SVGID_27)" fill-opacity="0.4" stroke-opacity="0.4"/>
<radialGradient cx="47.89" cy="23.06" gradientUnits="userSpaceOnUse" id="SVGID_40" r="6.87">
<stop offset="0" stop-color="#FFA98E"/>
<stop offset="0.2" stop-color="#FFA98E"/>
<stop offset="0.96" stop-color="#D45D36"/>
<stop offset="1" stop-color="#D45D36"/>
</radialGradient>
<path d="M50.679,19.939c-0.646-0.281-0.624-1.656-0.358-2.073c0.046-0.072,0.089-0.145,0.133-0.218 H45.05c0.044,0.073,0.087,0.146,0.133,0.218c0.267,0.417,0.287,1.792-0.358,2.073c-0.646,0.281,3.003,2.725,3.003,2.725 S51.326,20.22,50.679,19.939z" fill="url(#SVGID_40)"/>
<path d="M54.563,21.374c-0.68-0.354-4.048-1.533-4.11-1.606l-2.574,2.138l-2.764-2.221 c-0.076,0.113-3.405,1.28-4.176,1.689c-0.881,0.469-2.32,1.543-2.32,3.967h18.266C56.885,22.917,55.242,21.727,54.563,21.374z" fill="url(#SVGID_29)"/>
<polygon fill="url(#SVGID_30)" points="44.485,19.959 47.879,22.664 51.067,20.015 50.453,19.768 47.879,21.905 45.115,19.685 "/>
<path d="M44.646,20.388c0,0-4.842,1.264-4.842,4.655c0,0-0.693,0-0.697,0 C39.107,22.958,40.734,21.336,44.646,20.388z" fill="#FF7B56"/>
<path d="M50.795,20.309c0,0,4.842,1.265,4.842,4.657c0,0,0.691,0,0.697,0 C56.334,22.879,54.705,21.257,50.795,20.309z" fill="#FF7B56"/>
<polygon fill="url(#SVGID_31)" points="47.879,22.664 44.485,19.959 44.287,20.045 47.879,22.907 51.266,20.092 51.068,20.013 "/>
<radialGradient cx="47.7" cy="10.32" gradientUnits="userSpaceOnUse" id="SVGID_44" r="9.22">
<stop offset="0" stop-color="#FFE2D9"/>
<stop offset="0.51" stop-color="#FFC6B3"/>
<stop offset="0.76" stop-color="#FFA98E"/>
<stop offset="1" stop-color="#E88160"/>
</radialGradient>
<path d="M52.231,13.614c-0.022-0.012-0.049-0.013-0.071-0.021l0,0 c-0.005-0.001-0.01-0.002-0.014-0.003c-0.035-0.01-0.07-0.018-0.108-0.02c-4.511-0.784-6.581-3.283-6.736-2.621 c-0.124,0.526-1.39,1.665-2.052,2.232c0.006,0.026,0.009,0.048,0.014,0.074c0,0,0.023,0.116,0.073,0.315 c-0.052,0.006-0.104,0.016-0.153,0.038c-0.422,0.178-0.554,0.869-0.295,1.543c0.258,0.675,0.809,1.08,1.23,0.902 c0.025-0.012,0.048-0.03,0.072-0.045c0.244,0.551,0.546,1.141,0.914,1.733c0.617,0.733,1.563,1.593,2.605,1.593 c1.263,0,2.035-0.69,2.566-1.387c0.012-0.029,0.026-0.056,0.042-0.08c0.394-0.615,0.712-1.232,0.971-1.807 c0.413,0.143,0.94-0.241,1.204-0.889C52.768,14.5,52.65,13.802,52.231,13.614z" fill="url(#SVGID_44)"/>
<linearGradient gradientUnits="userSpaceOnUse" id="SVGID_45" x1="46.12" x2="50.02" y1="19.76" y2="15.89">
<stop offset="0" stop-color="#FFC6B3"/>
<stop offset="1" stop-color="#FFA98E"/>
</linearGradient>
<path d="M47.525,18.981c-0.769,0-1.543-0.358-2.113-0.898c0.604,0.634,1.416,1.251,2.299,1.251 c1.264,0,2.035-0.69,2.567-1.387c0.013-0.029,0.026-0.057,0.042-0.081c0.393-0.615,0.712-1.232,0.971-1.806 C49.855,18.57,48.788,18.981,47.525,18.981z" fill="url(#SVGID_45)"/>
<path d="M47.584,7.325c-1.563,0-2.315,0.71-2.896,1.455c-0.944,0.145-2.441,1.011-1.383,4.803 c0.662-0.568,1.873-2.107,1.998-2.633c0.156-0.669,2.261,1.883,6.857,2.644c0.054-0.213,0.078-0.338,0.078-0.338 C52.96,10.018,51.391,7.452,47.584,7.325z" fill="url(#SVGID_34)"/>
<linearGradient gradientUnits="userSpaceOnUse" id="SVGID_47" x1="49.64" x2="44.44" y1="12.9" y2="9.81">
<stop offset="0" stop-color="#8A5D3B"/>
<stop offset="0.36" stop-color="#632F00"/>
<stop offset="1" stop-color="#361700"/>
</linearGradient>
<path d="M45.307,10.64c0,0,2.25,2.954,6.822,2.949C52.127,13.589,49.975,13.251,45.307,10.64z" fill="url(#SVGID_47)"/>
<linearGradient gradientUnits="userSpaceOnUse" id="SVGID_48" x1="43.97" x2="44.01" y1="9.21" y2="12.51">
<stop offset="0" stop-color="#8A5D3B"/>
<stop offset="0.38" stop-color="#632F00"/>
<stop offset="1" stop-color="#361700"/>
</linearGradient>
<path d="M44.766,8.999c0,0-2.203,0.132-1.386,3.865C43.38,12.864,43.111,10.307,44.766,8.999z" fill="url(#SVGID_48)"/>
<linearGradient gradientUnits="userSpaceOnUse" id="SVGID_49" x1="48.4" x2="48.24" y1="7.9" y2="9.4">
<stop offset="0" stop-color="#A87C4F"/>
<stop offset="1" stop-color="#632F00"/>
</linearGradient>
<path d="M48.652,9.516c-1.025-0.146-2.761-1.055-3.439-0.73c0,0,2.225-2.539,6.153,0.352 C51.365,9.138,50.429,9.77,48.652,9.516z" fill="url(#SVGID_49)"/>
<rect fill="none" height="24.488" width="24.488" x="35.508" y="4.333"/>
</svg>
