<?xml version="1.0" encoding="UTF-8"?>
<!DOCTYPE svg PUBLIC "-//W3C//DTD SVG 1.1 Tiny//EN" "http://www.w3.org/Graphics/SVG/1.1/DTD/svg11-tiny.dtd">
<svg baseProfile="tiny" height="30" viewBox="0 0 30 30" width="30" xmlns="http://www.w3.org/2000/svg" xmlns:xlink="http://www.w3.org/1999/xlink">
<g>
<path d="M15,30C6.729,30,0,23.271,0,15S6.729,0,15,0s15,6.729,15,15S23.271,30,15,30L15,30z" fill-opacity="0.6" stroke-opacity="0.6"/>
<linearGradient gradientUnits="userSpaceOnUse" id="SVGID_1_" x1="14.9995" x2="14.9995" y1="1.2188" y2="29.4379">
<stop offset="0" style="stop-color:#4EDEFF"/>
<stop offset="1" style="stop-color:#16A0D4"/>
</linearGradient>
<path d="M15,29C7.28,29,1,22.72,1,15S7.28,1,15,1s14,6.28,14,14S22.72,29,15,29L15,29z" fill="url(#SVGID_1_)"/>
<linearGradient gradientUnits="userSpaceOnUse" id="SVGID_2_" x1="14.9995" x2="14.9995" y1="3.1875" y2="27.3754">
<stop offset="0" style="stop-color:#E0E1E2"/>
<stop offset="1" style="stop-color:#FFFFFF"/>
</linearGradient>
<path d="M15,27C8.383,27,3,21.617,3,15S8.383,3,15,3s12,5.383,12,12S21.617,27,15,27L15,27z" fill="url(#SVGID_2_)"/>
<path d="M15,4c6.448,0,11.71,5.115,11.975,11.5C26.981,15.333,27,15.169,27,15c0-6.617-5.383-12-12-12S3,8.383,3,15  c0,0.169,0.019,0.333,0.025,0.5C3.29,9.115,8.552,4,15,4z" fill-opacity="0.2" stroke-opacity="0.2"/>
<path d="M15,24c-4.963,0-9-4.038-9-9s4.037-9,9-9s9,4.038,9,9S19.963,24,15,24L15,24z" fill-opacity="0.6" stroke-opacity="0.6"/>
<linearGradient gradientUnits="userSpaceOnUse" id="SVGID_3_" x1="14.9995" x2="14.9995" y1="7.125" y2="23.2505">
<stop offset="0" style="stop-color:#A0F800"/>
<stop offset="1" style="stop-color:#319E00"/>
</linearGradient>
<path d="M15,23c-4.411,0-8-3.59-8-8s3.589-8,8-8s8,3.59,8,8S19.411,23,15,23L15,23z" fill="url(#SVGID_3_)"/>
<linearGradient gradientUnits="userSpaceOnUse" id="SVGID_4_" x1="14.9995" x2="14.9995" y1="7" y2="23.0005">
<stop offset="0" style="stop-color:#D6FF8C"/>
<stop offset="0.3394" style="stop-color:#7AD900"/>
<stop offset="0.6182" style="stop-color:#5BC000"/>
<stop offset="1" style="stop-color:#96DB00"/>
</linearGradient>
<path d="M15,8c3.859,0,7,3.141,7,7s-3.141,7-7,7s-7-3.141-7-7S11.141,8,15,8 M15,7c-4.411,0-8,3.59-8,8  s3.589,8,8,8s8-3.59,8-8S19.411,7,15,7L15,7z" fill="url(#SVGID_4_)"/>
<rect fill="none" height="30" width="30"/>
</g>
</svg>
