<?xml version="1.0" encoding="UTF-8" standalone="no"?>
<!DOCTYPE svg PUBLIC "-//W3C//DTD SVG 1.1 Tiny//EN" "http://www.w3.org/Graphics/SVG/1.1/DTD/svg11-tiny.dtd">
<svg xmlns="http://www.w3.org/2000/svg" xmlns:xlink="http://www.w3.org/1999/xlink" baseProfile="tiny" height="30px" style="enable-background:new 0 0 30 30;" version="1.1" viewBox="0 0 30 30" width="30px" x="0px" y="0px">
<rect fill="none" height="29.03" width="29.03" x="0.54" y="0.133"/>
<path d="M22,9.767l-8.541-8.55v9.767l-3.671-3.66-1.677,1.681s3.792,3.794,5.344,5.342v0.612c-1.552,1.544-5.344,5.341-5.344,5.341l1.676,1.676,3.668-3.659v9.767l8.542-8.549s-3.717-3.717-4.883-4.88c1.16-1.18,4.88-4.883,4.88-4.883zm-3.36,9.763c-0.606,0.604-1.711,1.713-2.755,2.754v-5.502c1.05,1.05,2.2,2.19,2.76,2.75zm-2.74-7.02v-5.496c1.036,1.043,2.141,2.147,2.747,2.753-0.57,0.553-1.72,1.703-2.75,2.743z"/>
<rect fill="none" height="29.03" width="29.03" x="0.54" y="0.133"/>
</svg>
