<?xml version="1.0" encoding="UTF-8"?>
<!DOCTYPE svg PUBLIC "-//W3C//DTD SVG 1.1 Tiny//EN" "http://www.w3.org/Graphics/SVG/1.1/DTD/svg11-tiny.dtd">
<svg baseProfile="tiny" height="60" viewBox="0 0 60 60" width="60" xmlns="http://www.w3.org/2000/svg" xmlns:xlink="http://www.w3.org/1999/xlink">
<g>
<linearGradient gradientUnits="userSpaceOnUse" id="SVGID_1_" x1="12.8003" x2="12.8003" y1="35.3491" y2="50.0708">
<stop offset="0" style="stop-color:#7B7B7B"/>
<stop offset="0.1455" style="stop-color:#565656"/>
<stop offset="0.3091" style="stop-color:#8C8C8C"/>
<stop offset="0.6848" style="stop-color:#000000"/>
<stop offset="1" style="stop-color:#646464"/>
</linearGradient>
<path d="M16.683,48.771c0,0.746-0.605,1.352-1.351,1.352H10.27c-0.747,0-1.352-0.605-1.352-1.352v-12.07  c0-0.746,0.604-1.352,1.352-1.352h5.063c0.745,0,1.351,0.605,1.351,1.352V48.771z" fill="url(#SVGID_1_)"/>
<linearGradient gradientUnits="userSpaceOnUse" id="SVGID_2_" x1="47.3281" x2="47.3281" y1="35.3491" y2="50.1226">
<stop offset="0" style="stop-color:#7B7B7B"/>
<stop offset="0.1455" style="stop-color:#565656"/>
<stop offset="0.3091" style="stop-color:#8C8C8C"/>
<stop offset="0.6848" style="stop-color:#000000"/>
<stop offset="1" style="stop-color:#646464"/>
</linearGradient>
<path d="M51.21,48.771c0,0.746-0.604,1.352-1.352,1.352h-5.063c-0.746,0-1.351-0.605-1.351-1.352v-12.07  c0-0.746,0.604-1.352,1.351-1.352h5.063c0.747,0,1.352,0.605,1.352,1.352V48.771z" fill="url(#SVGID_2_)"/>
<linearGradient gradientUnits="userSpaceOnUse" id="SVGID_3_" x1="29.9985" x2="29.9985" y1="9.8779" y2="33.2271">
<stop offset="0" style="stop-color:#FEE377"/>
<stop offset="0.511" style="stop-color:#FFC501"/>
<stop offset="1" style="stop-color:#FF8800"/>
</linearGradient>
<path d="M45.96,12.92c-0.27-0.631-0.71-1.577-2.432-1.892c-1.956-0.358-5.486-1.15-13.367-1.15  c-7.882,0-11.742,0.76-13.691,1.15c-1.576,0.314-2.163,1.261-2.433,1.892c-0.271,0.631-4.412,9.908-4.774,14.773l2.342,5.314h36.788  l2.342-5.314C50.375,22.828,46.23,13.551,45.96,12.92z" fill="url(#SVGID_3_)"/>
<linearGradient gradientUnits="userSpaceOnUse" id="SVGID_4_" x1="7.499" x2="52.499" y1="35.3521" y2="35.3521">
<stop offset="0" style="stop-color:#DA8C00"/>
<stop offset="0.25" style="stop-color:#F7B901"/>
<stop offset="0.75" style="stop-color:#FFC501"/>
<stop offset="1" style="stop-color:#DA8C00"/>
</linearGradient>
<path d="M52.446,30.845c-0.067-0.902-0.405-3.941-4.505-4.662c-4.098-0.721-4.746,2.434-7.296,4.527  c-2.938,2.414-6.791,2.117-10.484,2.117c-3.692,0-7.869,0.297-10.81-2.117c-2.55-2.094-3.198-5.248-7.296-4.527  c-4.099,0.721-4.438,3.76-4.504,4.662c-0.361,4.863,1.222,10.609,1.892,12.43c0.444,1.211,2.161,1.352,2.161,1.352h36.788  c0,0,1.675-0.006,2.161-1.352C51.213,41.451,52.807,35.708,52.446,30.845z" fill="url(#SVGID_4_)"/>
<linearGradient gradientUnits="userSpaceOnUse" id="SVGID_5_" x1="12.0552" x2="47.9525" y1="21.0884" y2="21.0884">
<stop offset="0" style="stop-color:#FF9000"/>
<stop offset="0.511" style="stop-color:#FFC501"/>
<stop offset="1" style="stop-color:#FF8800"/>
</linearGradient>
<path d="M43.528,11.028c-1.956-0.358-5.486-1.15-13.367-1.15c-7.882,0-11.742,0.76-13.691,1.15  c-0.256,0.051-0.48,0.119-0.687,0.199c-1.815,3.072-4.801,14.604-3.728,14.417c4.098-0.721,4.746,2.432,7.296,4.525  c2.94,2.414,7.117,2.117,10.81,2.117c3.693,0,7.546,0.297,10.484-2.117c2.55-2.094,3.198-5.246,7.296-4.525  c1.073,0.188-1.803-11.353-3.688-14.42C44.041,11.146,43.802,11.078,43.528,11.028z" fill="url(#SVGID_5_)"/>
<path d="M12.056,26.183c4.098-0.721,4.746,2.434,7.296,4.527c2.94,2.414,7.117,2.117,10.81,2.117  c3.693,0,7.546,0.297,10.484-2.117c2.55-2.094,3.198-5.248,7.296-4.527c1.225,0.216,2.107,0.64,2.753,1.149  c-0.04-0.358-0.093-0.73-0.163-1.121c-0.631-0.454-1.465-0.83-2.59-1.028c-4.098-0.721-4.746,2.434-7.296,4.527  c-2.938,2.414-6.791,2.287-10.484,2.287c-3.692,0-7.869,0.127-10.81-2.287c-2.55-2.094-3.198-5.248-7.296-4.527  c-1.125,0.198-1.959,0.574-2.589,1.028c-0.07,0.391-0.124,0.763-0.164,1.12C9.949,26.822,10.832,26.399,12.056,26.183z" fill="#191919" fill-opacity="0.2" stroke-opacity="0.2"/>
<path d="M15.362,12.638c2.108-0.423,6.285-1.245,14.812-1.245s12.345,0.857,14.461,1.245  c0.126,0.023,0.243,0.051,0.356,0.08c-0.255-0.603-0.504-1.113-0.738-1.494c-0.212-0.078-0.451-0.146-0.725-0.195  c-1.956-0.358-5.486-1.15-13.367-1.15c-7.882,0-11.742,0.76-13.691,1.15c-0.256,0.051-0.48,0.119-0.687,0.199  c-0.224,0.378-0.465,0.885-0.714,1.481C15.164,12.684,15.259,12.658,15.362,12.638z" fill="#FFFFFF" fill-opacity="0.35" stroke-opacity="0.35"/>
<path d="M10.921,27.734c0.374-0.066,0.729-0.1,1.053-0.1c1.844,0,2.712,1.051,3.914,2.506  c0.601,0.725,1.28,1.545,2.15,2.26c2.786,2.287,6.491,2.479,9.747,2.479c0.408,0,0.816-0.002,1.22-0.006  c0.393-0.004,0.783-0.006,1.167-0.006c0.388,0,0.777,0.002,1.166,0.006c0.395,0.004,0.791,0.006,1.186,0.006  c3.247,0,6.649-0.191,9.437-2.479c0.869-0.715,1.55-1.537,2.149-2.262c1.202-1.453,2.07-2.504,3.913-2.504  c0.325,0,0.681,0.033,1.055,0.1c1.315,0.23,2.316,0.721,3.007,1.457c-0.471-1.18-1.56-2.553-4.143-3.008  c-4.098-0.721-4.746,2.434-7.296,4.527c-2.938,2.414-6.791,2.117-10.484,2.117c-3.692,0-7.869,0.297-10.81-2.117  c-2.55-2.094-3.198-5.248-7.296-4.527c-2.581,0.455-3.67,1.826-4.14,3.006C8.604,28.453,9.605,27.964,10.921,27.734z" fill="#FFFFFF" fill-opacity="0.35" stroke-opacity="0.35"/>
<linearGradient gradientUnits="userSpaceOnUse" id="SVGID_6_" x1="29.9985" x2="29.9985" y1="44.6655" y2="40.1625">
<stop offset="0" style="stop-color:#565656"/>
<stop offset="1" style="stop-color:#212121"/>
</linearGradient>
<path d="M43.28,39.763H16.717c-1.493,0-2.702,1.209-2.702,2.701v2.162h31.968v-2.162  C45.982,40.972,44.772,39.763,43.28,39.763z" fill="url(#SVGID_6_)"/>
<path d="M43.28,39.763H16.717c-1.493,0-2.702,1.209-2.702,2.701v0.811c0-1.492,1.209-2.701,2.702-2.701H43.28  c1.492,0,2.702,1.209,2.702,2.701v-0.811C45.982,40.972,44.772,39.763,43.28,39.763z" fill="#1A1A1A"/>
<ellipse cx="12.553" cy="31.716" fill="#191919" fill-opacity="0.2" rx="3.535" ry="3.172" stroke-opacity="0.2" transform="matrix(-0.9635 0.2678 -0.2678 -0.9635 33.1405 58.9116)"/>
<linearGradient gradientUnits="userSpaceOnUse" id="SVGID_7_" x1="9.0625" x2="15.8756" y1="32.0796" y2="30.1862">
<stop offset="0" style="stop-color:#565656"/>
<stop offset="0.489" style="stop-color:#000000"/>
<stop offset="1" style="stop-color:#646464"/>
</linearGradient>
<path d="M9.063,32.08c0.47,1.688,2.374,2.631,4.255,2.109c1.882-0.523,3.026-2.314,2.558-4.004  c-0.47-1.688-2.375-2.631-4.256-2.107C9.737,28.599,8.592,30.392,9.063,32.08z" fill="url(#SVGID_7_)"/>
<linearGradient gradientUnits="userSpaceOnUse" id="SVGID_8_" x1="12.1978" x2="12.1978" y1="28.0469" y2="32.9824">
<stop offset="0" style="stop-color:#F2F2F2"/>
<stop offset="1" style="stop-color:#949DA1"/>
</linearGradient>
<path d="M12,32.982c-1.176,0-2.15-0.668-2.427-1.66c-0.165-0.592-0.059-1.225,0.299-1.785  c0.376-0.588,0.977-1.02,1.693-1.219c0.274-0.076,0.554-0.115,0.83-0.115c1.177,0,2.151,0.668,2.428,1.66  c0.349,1.254-0.546,2.602-1.994,3.004C12.557,32.943,12.277,32.982,12,32.982L12,32.982z" fill="url(#SVGID_8_)"/>
<ellipse cx="47.404" cy="31.716" fill="#191919" fill-opacity="0.2" rx="3.535" ry="3.172" stroke-opacity="0.2" transform="matrix(0.9635 0.2678 -0.2678 0.9635 10.2266 -11.5377)"/>
<linearGradient gradientUnits="userSpaceOnUse" id="SVGID_9_" x1="44.0176" x2="51.04" y1="31.1323" y2="31.1323">
<stop offset="0" style="stop-color:#565656"/>
<stop offset="0.489" style="stop-color:#000000"/>
<stop offset="1" style="stop-color:#646464"/>
</linearGradient>
<path d="M50.935,32.08c-0.469,1.688-2.374,2.631-4.254,2.109c-1.882-0.523-3.027-2.314-2.558-4.004  c0.47-1.688,2.375-2.631,4.255-2.107C50.26,28.599,51.405,30.392,50.935,32.08z" fill="url(#SVGID_9_)"/>
<linearGradient gradientUnits="userSpaceOnUse" id="SVGID_10_" x1="47.7988" x2="47.7988" y1="28.0918" y2="33.0472">
<stop offset="0" style="stop-color:#F2F2F2"/>
<stop offset="1" style="stop-color:#949DA1"/>
</linearGradient>
<path d="M47.998,32.982c-0.279,0-0.558-0.039-0.83-0.115c-1.448-0.402-2.343-1.75-1.994-3.004  c0.276-0.992,1.251-1.66,2.428-1.66c0.277,0,0.557,0.039,0.83,0.115c0.717,0.199,1.318,0.633,1.693,1.219  c0.358,0.561,0.464,1.193,0.299,1.785C50.148,32.314,49.173,32.982,47.998,32.982L47.998,32.982z" fill="url(#SVGID_10_)"/>
<linearGradient gradientUnits="userSpaceOnUse" id="SVGID_11_" x1="29.9985" x2="29.9985" y1="12.8066" y2="24.6304">
<stop offset="0" style="stop-color:#4D4D4D"/>
<stop offset="1" style="stop-color:#000000"/>
</linearGradient>
<path d="M47.267,23.347c-0.226-0.722-2.567-8.243-2.567-8.243s-0.067-0.812-1.081-1.014  c-0.992-0.198-5.62-1.284-13.728-1.284c-8.106,0-12.52,1.086-13.512,1.284c-1.014,0.202-1.081,1.014-1.081,1.014  s-2.341,7.521-2.566,8.243c-0.169,0.539,0.473,0.473,0.473,0.473s5.519,0.811,16.599,0.811s16.991-0.811,16.991-0.811  S47.435,23.886,47.267,23.347z" fill="url(#SVGID_11_)"/>
<path d="M43.512,14.621l-0.249-0.052c-3.887-0.811-8.385-1.222-13.372-1.222  c-7.414,0-11.695,0.91-13.102,1.21c-0.123,0.025-0.224,0.047-0.304,0.063c-0.563,0.112-0.641,0.47-0.649,0.541l-0.009,0.06  l-0.013,0.043c0,0-0.959,3.078-1.71,5.489l30.534-4.027c-0.271-0.868-0.456-1.462-0.456-1.462l-0.015-0.059l-0.006-0.044  C44.152,15.091,44.075,14.733,43.512,14.621z" fill="#FFFFFF" fill-opacity="0.25" stroke-opacity="0.25"/>
<rect fill="none" height="60" width="60"/>
</g>
</svg>
