<?xml version="1.0" encoding="UTF-8"?>
<!DOCTYPE svg PUBLIC "-//W3C//DTD SVG 1.1 Tiny//EN" "http://www.w3.org/Graphics/SVG/1.1/DTD/svg11-tiny.dtd">
<svg baseProfile="tiny" height="30px" version="1.1" viewBox="0 0 30 30" width="30px" x="0px" xmlns="http://www.w3.org/2000/svg" xmlns:xlink="http://www.w3.org/1999/xlink" y="0px">
<g fill-opacity="0.5" stroke-opacity="0.5">
<rect fill="none" height="30" width="30"/>
</g>
<rect height="3" width="2" x="12" y="8"/>
<rect height="3" width="2" x="16" y="8"/>
<rect height="3" width="2" x="12" y="13"/>
<path d="M12,21h1.131c0.152-0.962,0.449-1.874,0.869-2.717V18h-2V21z"/>
<path d="M16,15.591c0.602-0.565,1.27-1.06,2-1.454V13h-2V15.591z"/>
<path d="M10,24V6.091l5-2.857l5,2.857v7.254C20.799,13.127,21.635,13,22.5,13c2.051,0,3.947,0.66,5.5,1.769V8h-6V4.93l-7-4l-7,4V11  H2v14H1v3h13.77c-0.832-1.166-1.404-2.526-1.639-4H10z M22,10h4v2h-4V10z M8,23H4v-2h4V23z M8,19H4v-2h4V19z M8,15H4v-2h4V15z"/>
<path d="M22.5,15c-4.135,0-7.5,3.364-7.5,7.5s3.365,7.5,7.5,7.5c4.137,0,7.5-3.364,7.5-7.5S26.637,15,22.5,15z M22.5,28  c-3.033,0-5.5-2.468-5.5-5.5s2.467-5.5,5.5-5.5s5.5,2.468,5.5,5.5S25.533,28,22.5,28z"/>
<polygon points="24,21 24,18 21,18 21,21 18,21 18,24 21,24 21,27 24,27 24,24 27,24 27,21 "/>
</svg>
