<?xml version="1.0" encoding="UTF-8" standalone="no"?>
<!-- Generator: Adobe Illustrator 13.0.2, SVG Export Plug-In  -->
<svg
   xmlns:dc="http://purl.org/dc/elements/1.1/"
   xmlns:cc="http://creativecommons.org/ns#"
   xmlns:rdf="http://www.w3.org/1999/02/22-rdf-syntax-ns#"
   xmlns:svg="http://www.w3.org/2000/svg"
   xmlns="http://www.w3.org/2000/svg"
   xmlns:sodipodi="http://sodipodi.sourceforge.net/DTD/sodipodi-0.dtd"
   xmlns:inkscape="http://www.inkscape.org/namespaces/inkscape"
   version="1.1"
   x="0px"
   y="0px"
   width="20px"
   height="20px"
   viewBox="0 0 20 20"
   enable-background="new 0 0 20 20"
   xml:space="preserve"
   id="svg12767"
   sodipodi:version="0.32"
   inkscape:version="0.46"
   sodipodi:docname="qtg_fr_progress_v_frame_second_c.svg"
   inkscape:output_extension="org.inkscape.output.svg.inkscape"><metadata
   id="metadata12788"><rdf:RDF><cc:Work
       rdf:about=""><dc:format>image/svg+xml</dc:format><dc:type
         rdf:resource="http://purl.org/dc/dcmitype/StillImage" /></cc:Work></rdf:RDF></metadata><sodipodi:namedview
   inkscape:window-height="1031"
   inkscape:window-width="1348"
   inkscape:pageshadow="2"
   inkscape:pageopacity="0.0"
   guidetolerance="10.0"
   gridtolerance="10.0"
   objecttolerance="10.0"
   borderopacity="1.0"
   bordercolor="#666666"
   pagecolor="#ffffff"
   id="base"
   showgrid="false"
   inkscape:zoom="23.1"
   inkscape:cx="10"
   inkscape:cy="10"
   inkscape:window-x="44"
   inkscape:window-y="0"
   inkscape:current-layer="svg12767" />
<defs
   id="defs12769"><inkscape:perspective
   sodipodi:type="inkscape:persp3d"
   inkscape:vp_x="0 : 10 : 1"
   inkscape:vp_y="0 : 1000 : 0"
   inkscape:vp_z="20 : 10 : 1"
   inkscape:persp3d-origin="10 : 6.6666667 : 1"
   id="perspective12790" />
</defs>
<linearGradient
   id="SVGID_1_"
   gradientUnits="userSpaceOnUse"
   x1="-1904.519"
   y1="-741.0005"
   x2="-1904.519"
   y2="-752.9297"
   gradientTransform="matrix(1.192488e-008 -1 -1 -1.192488e-008 -737.0194 -1894.5195)">
	<stop
   offset="0"
   style="stop-color:#CCCCCC"
   id="stop12772" />
	<stop
   offset="1"
   style="stop-color:#808080"
   id="stop12774" />
</linearGradient>
<rect
   x="4"
   fill="url(#SVGID_1_)"
   width="12"
   height="20"
   id="rect12776" />
<linearGradient
   id="SVGID_2_"
   gradientUnits="userSpaceOnUse"
   x1="298"
   y1="2839.917"
   x2="298"
   y2="2851.917"
   gradientTransform="matrix(1.192488e-008 -1 1 1.192488e-008 -2835.9998 308.0001)">
	<stop
   offset="0"
   style="stop-color:#666666"
   id="stop12779" />
	<stop
   offset="1"
   style="stop-color:#A6A6A6"
   id="stop12781" />
</linearGradient>
<rect
   x="5"
   fill="url(#SVGID_2_)"
   width="10"
   height="20"
   id="rect12783" />
<rect
   fill="none"
   width="20"
   height="20"
   id="rect12785" />
<path
   style="fill:#00ffff"
   d="M 10.277056,10.004329 L 10.277056,0.025974026 L 12.073593,0.025974026 L 13.87013,0.025974026 L 13.87013,10.004329 L 13.87013,19.982684 L 12.073593,19.982684 L 10.277056,19.982684 L 10.277056,10.004329 z"
   id="path12792" /><path
   style="fill:#00ffff"
   d="M 5.7748918,10.004329 L 5.7748918,0.025974026 L 7.5714286,0.025974026 L 9.3679654,0.025974026 L 9.3679654,10.004329 L 9.3679654,19.982684 L 7.5714286,19.982684 L 5.7748918,19.982684 L 5.7748918,10.004329 z"
   id="path12794" /><path
   style="fill:#00ffff"
   d="M 9.3679654,10.004329 L 9.3679654,0.025974026 L 9.8225108,0.025974026 L 10.277056,0.025974026 L 10.277056,10.004329 L 10.277056,19.982684 L 9.8225108,19.982684 L 9.3679654,19.982684 L 9.3679654,10.004329 z"
   id="path12796" /><path
   style="fill:#00ffff"
   d="M 5.7748918,10.004329 L 5.7748918,0.025974026 L 9.8225108,0.025974026 L 13.87013,0.025974026 L 13.87013,10.004329 L 13.87013,19.982684 L 9.8225108,19.982684 L 5.7748918,19.982684 L 5.7748918,10.004329 z"
   id="path12798" /><path
   style="fill:#00ffff"
   d="M 4.995671,10.004329 L 4.995671,0.025974026 L 5.3852814,0.025974026 L 5.7748918,0.025974026 L 5.7748918,10.004329 L 5.7748918,19.982684 L 5.3852814,19.982684 L 4.995671,19.982684 L 4.995671,10.004329 z"
   id="path12800" /><path
   style="fill:#00ffff"
   d="M 4.995671,10.004329 L 4.995671,0.025974026 L 9.4329004,0.025974026 L 13.87013,0.025974026 L 13.87013,10.004329 L 13.87013,19.982684 L 9.4329004,19.982684 L 4.995671,19.982684 L 4.995671,10.004329 z"
   id="path12802" /><path
   style="fill:#00ffff"
   d="M 4,10.004329 L 4,0.025974026 L 4.4978355,0.025974026 L 4.995671,0.025974026 L 4.995671,10.004329 L 4.995671,19.982684 L 4.4978355,19.982684 L 4,19.982684 L 4,10.004329 z"
   id="path12804" /><path
   style="fill:#00ffff"
   d="M 13.87013,10.004532 L 13.87013,0.026380952 L 9.4437229,0.014724675 L 5.017316,0.0030701299 L 10.006494,-0.0053627706 L 14.995671,-0.013796537 L 14.995671,9.9844437 L 14.995671,19.982684 L 14.4329,19.982684 L 13.87013,19.982684 L 13.87013,10.004532 z"
   id="path12806" /><path
   style="fill:#00ffff"
   d="M 14.995671,10.004329 L 14.995671,0.025974026 L 15.493506,0.025974026 L 15.991342,0.025974026 L 15.991342,10.004329 L 15.991342,19.982684 L 15.493506,19.982684 L 14.995671,19.982684 L 14.995671,10.004329 z"
   id="path12808" /><path
   style="fill:#ffd5d5"
   d="M 4,10.004329 L 4,0.025974026 L 9.995671,0.025974026 L 15.991342,0.025974026 L 15.991342,10.004329 L 15.991342,19.982684 L 9.995671,19.982684 L 4,19.982684 L 4,10.004329 z"
   id="path12810" /></svg>