<?xml version="1.0" encoding="UTF-8"?>
<!DOCTYPE svg PUBLIC "-//W3C//DTD SVG 1.1 Tiny//EN" "http://www.w3.org/Graphics/SVG/1.1/DTD/svg11-tiny.dtd">
<svg baseProfile="tiny" height="60" viewBox="0 0 60 60" width="60" xmlns="http://www.w3.org/2000/svg" xmlns:xlink="http://www.w3.org/1999/xlink">
<g>
<rect fill="none" height="60" width="60"/>
<path d="M45.756,20.456L45.756,20.456c1.752-3.447,1.191-7.768-1.692-10.65 c-2.882-2.882-7.203-3.443-10.649-1.692c0,0,0,0,0,0c-0.002,0.001-0.002,0.001-0.004,0.002c-0.84,0.427-1.629,0.987-2.333,1.69 l-8.224,8.225c-0.238-0.238-0.627-0.238-0.866,0l-0.433,0.433c0,0,0,0,0-0.001l-1.731,1.732c-0.238,0.238-0.238,0.627,0,0.866 l-3.896,3.896c-3.585,3.586-3.585,9.401,0,12.987c2.313,2.312,5.55,3.124,8.52,2.456c0.143-0.033,0.285-0.065,0.426-0.104 c0.119-0.034,0.239-0.069,0.357-0.108c0.032-0.011,0.065-0.019,0.098-0.029v3.061c-0.707,0.068-1.224,0.319-1.224,1.104v4.27h-4.298 c-0.132,0-0.26,0.016-0.384,0.042c-0.021,0.004-0.039,0.013-0.061,0.018c-0.105,0.026-0.206,0.059-0.302,0.102 c-0.01,0.004-0.018,0.01-0.027,0.014c-0.619,0.289-1.05,0.906-1.05,1.627v0.402c0,0.065,0.003,0.131,0.011,0.265 c0.006,0.122,0.015,0.3,0.027,0.592h0h18.288h0.001c0.025-0.608,0.039-0.73,0.039-0.856v-0.402c0-0.721-0.432-1.338-1.051-1.626 c-0.01-0.005-0.018-0.011-0.027-0.015c-0.096-0.043-0.197-0.074-0.301-0.101c-0.021-0.005-0.041-0.014-0.061-0.019 c-0.125-0.025-0.253-0.041-0.385-0.041h-4.298l-0.001-4.27c0-0.785-0.517-1.036-1.223-1.104v-5.362l3.809-3.809 c0.239,0.237,0.628,0.237,0.867,0l2.164-2.164c0.237-0.238,0.237-0.628,0-0.866c0,0,8.499-8.524,8.632-8.675c0,0,0,0,0-0.001 c0.514-0.584,0.943-1.215,1.283-1.882C45.754,20.458,45.756,20.457,45.756,20.456z" fill-opacity="0.1" stroke-opacity="0.1"/>
<linearGradient gradientUnits="userSpaceOnUse" id="SVGID_1" x1="30.23" x2="43.21" y1="10.69" y2="23.68">
<stop offset="0" stop-color="#A8B1B3"/>
<stop offset="0.38" stop-color="#FFFFFF"/>
<stop offset="0.71" stop-color="#686E70"/>
<stop offset="1" stop-color="#A6B0B3"/>
</linearGradient>
<path d="M44.064,9.805c-3.584-3.586-9.4-3.586-12.986,0l-8.225,8.225L35.84,31.017l8.225-8.226 C47.65,19.205,47.651,13.391,44.064,9.805z" fill="url(#SVGID_1)"/>
<path d="M44.064,9.805c-3.584-3.586-9.4-3.586-12.986,0l-1.299,1.298 c3.586-3.586,7.669-1.854,11.256,1.731c3.586,3.587,5.316,7.669,1.73,11.255l1.299-1.298C47.65,19.205,47.651,13.391,44.064,9.805z" fill="#FFFFFF" fill-opacity="0.2" stroke-opacity="0.2"/>
<path d="M44.064,9.805c-3.584-3.586-9.4-3.586-12.986,0l-1.299,1.298 c3.586-3.586,9.401-3.586,12.986,0c3.587,3.587,3.586,9.4,0,12.986l1.299-1.298C47.65,19.205,47.651,13.391,44.064,9.805z" fill="#FFFFFF" fill-opacity="0.2" stroke-opacity="0.2"/>
<linearGradient gradientUnits="userSpaceOnUse" id="SVGID_2" x1="16.16" x2="29.14" y1="24.76" y2="37.75">
<stop offset="0" stop-color="#4D4D4D"/>
<stop offset="0.38" stop-color="#7A7A7A"/>
<stop offset="0.71" stop-color="#1A1A1A"/>
<stop offset="1" stop-color="#4D4D4D"/>
</linearGradient>
<path d="M22.854,18.03l-6.927,6.926c-3.585,3.586-3.585,9.402,0,12.988 c3.586,3.586,9.4,3.586,12.987,0l6.926-6.926L22.854,18.03z" fill="url(#SVGID_2)"/>
<path d="M19.39,34.479c-3.585-3.585-6.617-6.369-3.03-9.956l-0.433,0.433 c-3.585,3.586-3.585,9.401,0,12.987c3.586,3.587,9.4,3.587,12.987,0l0.433-0.433C25.76,41.096,22.977,38.066,19.39,34.479z" fill-opacity="0.1" stroke-opacity="0.1"/>
<path d="M18.092,35.777c-3.586-3.585-5.318-7.668-1.732-11.255l-0.433,0.433 c-3.585,3.586-3.585,9.401,0,12.987c3.586,3.587,9.4,3.587,12.987,0l0.433-0.433C25.76,41.096,21.678,39.365,18.092,35.777z" fill-opacity="0.2" stroke-opacity="0.2"/>
<path d="M16.793,37.076c-3.586-3.585-4.452-8.534-0.867-12.121l0,0 c-3.585,3.586-3.585,9.401,0,12.987c3.586,3.587,9.4,3.587,12.987,0l0,0C25.327,41.529,20.379,40.664,16.793,37.076z" fill-opacity="0.2" stroke-opacity="0.2"/>
<linearGradient gradientUnits="userSpaceOnUse" id="SVGID_3" x1="20.92" x2="34.77" y1="19.14" y2="32.99">
<stop offset="0" stop-color="#4D4D4D"/>
<stop offset="0.38" stop-color="#7A7A7A"/>
<stop offset="0.71" stop-color="#1A1A1A"/>
<stop offset="1" stop-color="#4D4D4D"/>
</linearGradient>
<path d="M33.676,34.047c-0.239,0.237-0.627,0.237-0.867,0L19.823,21.06 c-0.238-0.238-0.238-0.627,0-0.866l2.164-2.164c0.239-0.238,0.628-0.238,0.866,0L35.84,31.017c0.238,0.238,0.238,0.628,0,0.866 L33.676,34.047z" fill="url(#SVGID_3)"/>
<path d="M35.84,31.017L22.854,18.03c-0.238-0.238-0.627-0.238-0.866,0 l-0.433,0.433c0.239-0.238,0.627-0.238,0.866,0l12.987,12.986c0.238,0.238,0.238,0.627,0,0.865l0.433-0.432 C36.078,31.645,36.078,31.255,35.84,31.017z" fill="#FFFFFF" fill-opacity="0.2" stroke-opacity="0.2"/>
<rect fill-opacity="0.1" height="0.611" stroke-opacity="0.1" transform="matrix(-0.7071 -0.7071 0.7071 -0.7071 22.8299 66.726)" width="18.365" x="16.052" y="28.329"/>
<rect fill="#FFFFFF" fill-opacity="0.2" height="0.613" stroke-opacity="0.2" transform="matrix(-0.7071 -0.7071 0.7071 -0.7071 33.2816 62.3972)" width="18.366" x="20.38" y="24"/>
<rect fill-opacity="0.2" height="0.613" stroke-opacity="0.2" transform="matrix(-0.7071 -0.7071 0.7071 -0.7071 23.8754 66.2943)" width="18.365" x="16.485" y="27.896"/>
<rect fill-opacity="0.4" height="0.613" stroke-opacity="0.4" transform="matrix(-0.7071 -0.7071 0.7071 -0.7071 24.9208 65.8606)" width="18.365" x="16.918" y="27.463"/>
<path d="M24.152,17.597c0.239-0.239,0.239-0.626,0-0.866l-0.866,0.866 C23.525,17.836,23.913,17.836,24.152,17.597z" fill="#FFFFFF"/>
<path d="M27.614,14.133c0.24-0.239,0.24-0.625,0-0.866l-0.865,0.866 C26.988,14.373,27.376,14.373,27.614,14.133z" fill="#FFFFFF"/>
<path d="M31.078,10.671c0.231-0.231,0.234-0.6,0.018-0.839c-0.152,0.133-0.307,0.262-0.451,0.406 l-0.433,0.433C30.451,10.909,30.838,10.909,31.078,10.671z" fill="#FFFFFF"/>
<circle cx="27.614" cy="17.597" fill="#FFFFFF" r="0.612"/>
<circle cx="31.078" cy="14.133" fill="#FFFFFF" r="0.612"/>
<circle cx="34.541" cy="10.671" fill="#FFFFFF" r="0.612"/>
<circle cx="28.047" cy="21.492" fill="#FFFFFF" r="0.612"/>
<circle cx="31.511" cy="18.03" fill="#FFFFFF" r="0.612"/>
<circle cx="34.975" cy="14.566" fill="#FFFFFF" r="0.612"/>
<path d="M36.273,29.718c-0.24,0.24-0.24,0.626,0,0.866l0.865-0.866 C36.898,29.479,36.512,29.479,36.273,29.718z" fill="#FFFFFF"/>
<path d="M39.735,26.255c-0.239,0.239-0.239,0.626,0,0.866l0.866-0.866 C40.362,26.015,39.975,26.016,39.735,26.255z" fill="#FFFFFF"/>
<path d="M44.039,22.774c-0.24-0.217-0.608-0.215-0.84,0.017c-0.24,0.239-0.24,0.626,0,0.866l0.432-0.433 C43.775,23.079,43.906,22.926,44.039,22.774z" fill="#FFFFFF"/>
<circle cx="36.273" cy="26.255" fill="#FFFFFF" r="0.612"/>
<circle cx="39.735" cy="22.792" fill="#FFFFFF" r="0.612"/>
<circle cx="43.199" cy="19.328" fill="#FFFFFF" r="0.612"/>
<circle cx="32.376" cy="25.821" fill="#FFFFFF" r="0.612"/>
<circle cx="35.84" cy="22.358" fill="#FFFFFF" r="0.612"/>
<circle cx="39.303" cy="18.896" fill="#FFFFFF" r="0.612"/>
<circle cx="31.943" cy="21.925" fill="#FFFFFF" r="0.612"/>
<circle cx="35.407" cy="18.463" fill="#FFFFFF" r="0.612"/>
<circle cx="38.869" cy="15" fill="#FFFFFF" r="0.612"/>
<linearGradient gradientUnits="userSpaceOnUse" id="SVGID_4" x1="33.64" x2="23.87" y1="7.71" y2="17.49">
<stop offset="0" stop-color="#4D4D4D"/>
<stop offset="0.2" stop-color="#504E4E"/>
<stop offset="0.72" stop-color="#000000"/>
<stop offset="1" stop-color="#000000"/>
</linearGradient>
<path d="M24.585,17.164c0.239-0.239,0.239-0.626,0-0.866l-0.866,0.866 C23.958,17.404,24.346,17.403,24.585,17.164z" fill="url(#SVGID_4)"/>
<path d="M28.047,13.7c0.239-0.238,0.239-0.626,0-0.865L27.182,13.7 C27.421,13.94,27.809,13.94,28.047,13.7z" fill="url(#SVGID_4)"/>
<path d="M31.511,10.238c0.231-0.231,0.234-0.599,0.018-0.839c-0.151,0.133-0.306,0.262-0.45,0.407 l-0.434,0.433C30.884,10.477,31.271,10.477,31.511,10.238z" fill="url(#SVGID_4)"/>
<circle cx="28.047" cy="17.164" fill="url(#SVGID_4)" r="0.612"/>
<circle cx="31.511" cy="13.7" fill="url(#SVGID_4)" r="0.612"/>
<circle cx="34.975" cy="10.238" fill="url(#SVGID_4)" r="0.612"/>
<circle cx="28.48" cy="21.06" fill="url(#SVGID_4)" r="0.612"/>
<circle cx="31.943" cy="17.597" fill="url(#SVGID_4)" r="0.612"/>
<circle cx="35.407" cy="14.133" fill="url(#SVGID_4)" r="0.612"/>
<path d="M36.705,29.285c-0.238,0.239-0.238,0.626,0,0.866l0.866-0.866 C37.332,29.045,36.945,29.046,36.705,29.285z" fill="url(#SVGID_4)"/>
<path d="M40.168,25.822c-0.239,0.239-0.239,0.626,0,0.866l0.866-0.866 C40.795,25.582,40.408,25.583,40.168,25.822z" fill="url(#SVGID_4)"/>
<path d="M44.473,22.342c-0.241-0.217-0.609-0.215-0.842,0.017c-0.238,0.239-0.238,0.626,0,0.865 l0.434-0.433C44.209,22.646,44.34,22.493,44.473,22.342z" fill="url(#SVGID_4)"/>
<circle cx="36.705" cy="25.821" fill="url(#SVGID_4)" r="0.612"/>
<circle cx="40.168" cy="22.358" fill="url(#SVGID_4)" r="0.612"/>
<circle cx="43.631" cy="18.896" fill="url(#SVGID_4)" r="0.612"/>
<circle cx="32.809" cy="25.389" fill="url(#SVGID_4)" r="0.612"/>
<circle cx="36.273" cy="21.925" fill="url(#SVGID_4)" r="0.612"/>
<circle cx="39.735" cy="18.463" fill="url(#SVGID_4)" r="0.612"/>
<circle cx="32.376" cy="21.492" fill="url(#SVGID_4)" r="0.612"/>
<circle cx="35.84" cy="18.03" fill="url(#SVGID_4)" r="0.612"/>
<circle cx="39.303" cy="14.566" fill="url(#SVGID_4)" r="0.612"/>
<linearGradient gradientUnits="userSpaceOnUse" id="SVGID_25" x1="30.48" x2="23.8" y1="46.86" y2="46.86">
<stop offset="0" stop-color="#4D4D4D"/>
<stop offset="0.25" stop-color="#1A1A1A"/>
<stop offset="0.62" stop-color="#7A7A7A"/>
<stop offset="1" stop-color="#4D4D4D"/>
</linearGradient>
<path d="M30.225,48.788c-0.001,0.966-0.778,1.75-1.738,1.75H25.84c-0.959,0-1.737-0.784-1.737-1.749 v-4.468c0-0.966,0.778-1.13,1.737-1.13l2.646,0.001c0.96-0.001,1.737,0.163,1.737,1.129L30.225,48.788z" fill="url(#SVGID_25)"/>
<linearGradient gradientUnits="userSpaceOnUse" id="SVGID_26" x1="17.98" x2="36.35" y1="50.12" y2="50.12">
<stop offset="0" stop-color="#4D4D4D"/>
<stop offset="0.38" stop-color="#999999"/>
<stop offset="0.75" stop-color="#1A1A1A"/>
<stop offset="1" stop-color="#4D4D4D"/>
</linearGradient>
<path d="M36.309,51.652c0.025-0.609,0.039-0.73,0.039-0.856v-0.401c0-0.996-0.816-1.803-1.824-1.803 H19.805c-1.007,0-1.824,0.807-1.824,1.803v0.401c0,0.126,0.013,0.247,0.039,0.856H36.309z" fill="url(#SVGID_26)"/>
<path d="M18.093,49.793h18.142c-0.08-0.225-0.203-0.427-0.361-0.602 H18.455C18.297,49.366,18.174,49.568,18.093,49.793z" fill="#FFFFFF" fill-opacity="0.2" stroke-opacity="0.2"/>
<path d="M17.991,51.051c0.006,0.123,0.016,0.304,0.028,0.602h18.289 c0.013-0.298,0.021-0.479,0.028-0.602H17.991z" fill-opacity="0.35" stroke-opacity="0.35"/>
<path d="M18.455,49.191h17.418c-0.333-0.366-0.811-0.6-1.35-0.6 H19.805C19.267,48.591,18.788,48.825,18.455,49.191z" fill="#FFFFFF" fill-opacity="0.4" stroke-opacity="0.4"/>
<path d="M29.995,44.564v-0.243c0-0.966-0.72-1.13-1.607-1.129l-2.449-0.001 c-0.887,0-1.607,0.164-1.607,1.13v0.243c0.312,0.572,0.911,0.965,1.607,0.965h2.449C29.084,45.529,29.683,45.137,29.995,44.564z" fill-opacity="0.1" stroke-opacity="0.1"/>
<path d="M29.613,43.693V43.46c-0.295-0.211-0.73-0.268-1.225-0.268l-2.449-0.001 c-0.494,0-0.93,0.058-1.224,0.269v0.233c0,0.676,0.549,1.225,1.224,1.225h2.449C29.063,44.918,29.613,44.369,29.613,43.693z" fill-opacity="0.2" stroke-opacity="0.2"/>
<path d="M28.914,37.943l1.312-1.312V25.939c0-0.237-0.049-0.461-0.13-0.668 l-1.038-1.038c-0.208-0.082-0.432-0.13-0.668-0.13H25.94c-1.012,0-1.836,0.824-1.836,1.836v14.535 C25.865,40.147,27.55,39.306,28.914,37.943z" fill-opacity="0.1" stroke-opacity="0.1"/>
<path d="M28.914,37.943l0.7-0.699V25.939c0-0.676-0.55-1.224-1.224-1.224H25.94 c-0.675,0-1.224,0.548-1.224,1.224v14.393C26.253,39.936,27.709,39.146,28.914,37.943z" fill-opacity="0.2" stroke-opacity="0.2"/>
<linearGradient gradientUnits="userSpaceOnUse" id="SVGID_27" x1="27.16" x2="27.16" y1="25.51" y2="44.04">
<stop offset="0" stop-color="#4D4D4D"/>
<stop offset="0.38" stop-color="#7A7A7A"/>
<stop offset="0.71" stop-color="#1A1A1A"/>
<stop offset="1" stop-color="#4D4D4D"/>
</linearGradient>
<path d="M29,43.693c0,0.338-0.273,0.612-0.612,0.612h-2.449c-0.338,0-0.612-0.274-0.612-0.612V25.939 c0-0.338,0.274-0.612,0.612-0.612h2.449c0.339,0,0.612,0.274,0.612,0.612V43.693z" fill="url(#SVGID_27)"/>
<path d="M27.164,28.778c-1.688,0-3.061-1.374-3.061-3.061 c0-1.688,1.373-3.061,3.061-3.061c1.687,0,3.061,1.373,3.061,3.061C30.225,27.404,28.851,28.778,27.164,28.778L27.164,28.778z" fill-opacity="0.35" stroke-opacity="0.35"/>
<linearGradient gradientUnits="userSpaceOnUse" id="SVGID_28" x1="27.16" x2="27.16" y1="23.31" y2="28.1">
<stop offset="0" stop-color="#9D9B9C"/>
<stop offset="0.15" stop-color="#D6D4D4"/>
<stop offset="0.7" stop-color="#555557"/>
<stop offset="0.99" stop-color="#575757"/>
<stop offset="1" stop-color="#575757"/>
</linearGradient>
<circle cx="27.164" cy="25.717" fill="url(#SVGID_28)" r="2.449"/>
<linearGradient gradientUnits="userSpaceOnUse" id="SVGID_29" x1="27.16" x2="27.16" y1="24.52" y2="26.91">
<stop offset="0" stop-color="#646464"/>
<stop offset="1" stop-color="#EBEBEB"/>
</linearGradient>
<path d="M27.164,26.941c-0.676,0-1.225-0.549-1.225-1.224s0.549-1.225,1.225-1.225 c0.674,0,1.224,0.549,1.224,1.225S27.838,26.941,27.164,26.941L27.164,26.941z" fill="url(#SVGID_29)"/>
<rect fill-opacity="0.2" height="0.612" stroke-opacity="0.2" width="6.122" x="24.103" y="47.979"/>
<rect fill-opacity="0.1" height="0.611" stroke-opacity="0.1" width="6.122" x="24.103" y="47.367"/>
<rect fill="none" height="59.996" width="59.996"/>
</g>
<g transform="matrix(2 0 0 2 0 0)">
<linearGradient gradientTransform="matrix(1 0 0 -1 -257 -316)" gradientUnits="userSpaceOnUse" id="SVGID_1_" x1="261.2295" x2="282.7705" y1="-330.6934" y2="-330.6934">
<stop offset="0" style="stop-color:#FF4D00"/>
<stop offset="0.8424" style="stop-color:#CC1414"/>
<stop offset="1" style="stop-color:#FF4D00"/>
</linearGradient>
<polygon fill="url(#SVGID_1_)" points="24.702,25.229 4.229,5.254 5.299,4.158 25.771,24.133 "/>
<rect fill="none" height="30" width="30.001"/>
</g>
</svg>
