<?xml version="1.0" encoding="UTF-8"?>
<!DOCTYPE svg PUBLIC "-//W3C//DTD SVG 1.1 Tiny//EN" "http://www.w3.org/Graphics/SVG/1.1/DTD/svg11-tiny.dtd">
<svg baseProfile="tiny" height="30px" version="1.1" viewBox="0 0 30 30" width="30px" x="0px" xmlns="http://www.w3.org/2000/svg" xmlns:xlink="http://www.w3.org/1999/xlink" y="0px">
<g fill-opacity="0.5" stroke-opacity="0.5">
<rect fill="none" height="30" width="30"/>
</g>
<path d="M23,1h-9.312c0.539,0.6,0.999,1.272,1.364,2H23v18H9v-5.232C8.356,15.915,7.688,16,7,16v11c0,1.104,0.895,2,2,2h14  c1.104,0,2-0.896,2-2V3C25,1.896,24.104,1,23,1z M12,26H9v-2h3V26z M16,27c-1.105,0-2-0.896-2-2s0.895-2,2-2c1.104,0,2,0.896,2,2  S17.104,27,16,27z M23,26h-3v-2h3V26z"/>
<path d="M7,0C5.899,0,4.862,0.26,3.936,0.713c3.865,1.889,4.17,4.746,4.104,5.953H9h2L7,12L3,6.666h2h1.043  c0.074-0.533,0.172-3.057-4.017-4.59C0.774,3.34,0,5.079,0,7c0,3.865,3.134,7,7,7c3.865,0,7-3.135,7-7C14,3.133,10.866,0,7,0z"/>
<path d="M15.475,4C15.809,4.94,16,5.947,16,7c0,1.351-0.306,2.629-0.843,3.779l0.789,0.631c0.079,0.775,0.282,1.46,0.575,2.027  h-3.256c-0.922,0.895-2.03,1.599-3.265,2.038V20h12V4H15.475z M20.661,16.214c0,0.159-0.65,0.296-1.586,0.358v0.039h-0.794v-0.005  c-0.13,0.003-0.26,0.005-0.396,0.005c-1.534,0-2.777-0.179-2.777-0.397s1.243-0.395,2.777-0.395c0.137,0,0.267,0.003,0.396,0.006  V14.16c-0.905-0.333-1.587-1.771-1.587-3.499c0-1.971,0.888-3.57,1.984-3.57c1.095,0,1.982,1.599,1.982,3.57  c0,1.728-0.682,3.167-1.586,3.499v1.7C20.011,15.922,20.661,16.058,20.661,16.214z M21.454,13.437h-0.618  c0.125-0.243,0.233-0.507,0.322-0.792h0.296V13.437z"/>
</svg>
