<?xml version="1.0" encoding="UTF-8"?>
<!DOCTYPE svg PUBLIC "-//W3C//DTD SVG 1.1 Tiny//EN" "http://www.w3.org/Graphics/SVG/1.1/DTD/svg11-tiny.dtd">
<svg baseProfile="tiny" height="20px" version="1.1" viewBox="0 0 20 20" width="20px" x="0px" xmlns="http://www.w3.org/2000/svg" xmlns:xlink="http://www.w3.org/1999/xlink" y="0px">
<g>
<g>
<g fill-opacity="0.5" stroke-opacity="0.5">
<path d="M9.999,3c-2.757,0-5,6.244-5,9s2.243,5,5,5c2.756,0,5-2.244,5-5S12.756,3,9.999,3z" fill="#505050"/>
<path d="M9.999,1c-3.86,0-7,7.141-7,11s3.14,7,7,7c3.86,0,7-3.141,7-7S13.859,1,9.999,1z M9.999,18     c-3.309,0-6-2.691-6-6s2.691-10,6-10c3.309,0,6,6.691,6,10S13.308,18,9.999,18z" fill="#505050"/>
<g>
<path d="M9.999,0c-4.419,0-8,7.582-8,12s3.581,8,8,8c4.418,0,8-3.582,8-8S14.418,0,9.999,0z       M9.999,19c-3.86,0-7-3.141-7-7s3.14-11,7-11c3.86,0,7,7.141,7,11S13.859,19,9.999,19z" fill="#505050" fill-opacity="0.59" stroke-opacity="0.59"/>
</g>
</g>
</g>
<rect fill="none" height="20" width="20" x="-0.001"/>
</g>
</svg>
