<?xml version="1.0" encoding="UTF-8"?>
<!DOCTYPE svg PUBLIC "-//W3C//DTD SVG 1.1 Tiny//EN" "http://www.w3.org/Graphics/SVG/1.1/DTD/svg11-tiny.dtd">
<svg baseProfile="tiny" height="15px" version="1.1" viewBox="0 0 30 15" width="30px" x="0px" xmlns="http://www.w3.org/2000/svg" xmlns:xlink="http://www.w3.org/1999/xlink" y="0px">
<rect fill="none" height="15" width="30"/>
<path d="M5.5,14C4.675,14,4,13.325,4,12.5v-10C4,1.675,4.675,1,5.5,1l0,0C6.325,1,7,1.675,7,2.5v10  C7,13.325,6.325,14,5.5,14L5.5,14z" fill="#88FF00"/>
<path d="M10.5,14C9.675,14,9,13.325,9,12.5v-10C9,1.675,9.675,1,10.5,1l0,0C11.325,1,12,1.675,12,2.5v10  C12,13.325,11.325,14,10.5,14L10.5,14z" fill="#88FF00"/>
<path d="M15.5,14c-0.825,0-1.5-0.675-1.5-1.5v-10C14,1.675,14.675,1,15.5,1l0,0C16.325,1,17,1.675,17,2.5v10  C17,13.325,16.325,14,15.5,14L15.5,14z" fill="#88FF00"/>
<path d="M20.5,14c-0.825,0-1.5-0.675-1.5-1.5v-10C19,1.675,19.675,1,20.5,1l0,0C21.325,1,22,1.675,22,2.5v10  C22,13.325,21.325,14,20.5,14L20.5,14z" fill="#88FF00"/>
<path d="M25.5,14c-0.825,0-1.5-0.675-1.5-1.5v-10C24,1.675,24.675,1,25.5,1l0,0C26.325,1,27,1.675,27,2.5v10  C27,13.325,26.325,14,25.5,14L25.5,14z" fill="#88FF00"/>
</svg>
