<?xml version="1.0" encoding="UTF-8"?>
<!DOCTYPE svg PUBLIC "-//W3C//DTD SVG 1.1 Tiny//EN" "http://www.w3.org/Graphics/SVG/1.1/DTD/svg11-tiny.dtd">
<svg baseProfile="tiny" height="30px" version="1.1" viewBox="0 0.006 30 30" width="30px" x="0px" xmlns="http://www.w3.org/2000/svg" xmlns:xlink="http://www.w3.org/1999/xlink" y="0px">
<g fill-opacity="0.5" stroke-opacity="0.5">
<rect fill="none" height="30" width="30" y="0.006"/>
</g>
<rect height="2" transform="matrix(0.7071 0.7071 -0.7071 0.7071 19.728 5.1928)" width="4.999" x="1.096" y="25.41"/>
<path d="M16.858,20.643l2.646-2.646c-1.92,0-3.841-0.731-5.302-2.193c-2.924-2.923-2.926-7.682,0-10.605  c2.924-2.925,7.682-2.924,10.605,0s2.925,7.682,0,10.605c-0.72,0.72-1.551,1.26-2.438,1.626l1.679,1.678l2.828-2.828l0.806,0.805  c3.327-4.123,3.078-10.177-0.754-14.007c-4.1-4.102-10.748-4.102-14.849,0c-3.739,3.738-4.058,9.591-0.977,13.703l-1.499,1.499  l-0.707-0.707l-4.949,4.95l3.535,3.535l4.95-4.95l-0.707-0.707l1.499-1.498C14.335,19.732,15.572,20.307,16.858,20.643z"/>
<polygon points="29,21.228 26.878,19.106 24.05,21.935 21.222,19.107 19.101,21.229 21.928,24.057 19.101,26.884 21.222,29.006   24.05,26.178 26.878,29.006 29,26.885 26.171,24.057 "/>
</svg>
