<?xml version="1.0" encoding="UTF-8"?>
<!DOCTYPE svg PUBLIC "-//W3C//DTD SVG 1.1 Tiny//EN" "http://www.w3.org/Graphics/SVG/1.1/DTD/svg11-tiny.dtd">
<svg baseProfile="tiny" height="60" viewBox="0 0 60 60" width="60" xmlns="http://www.w3.org/2000/svg" xmlns:xlink="http://www.w3.org/1999/xlink">
<g>
<rect fill="none" height="60" width="60"/>
<linearGradient gradientUnits="userSpaceOnUse" id="SVGID_1_" x1="29.999" x2="29.999" y1="2.0928" y2="37.9271">
<stop offset="0" style="stop-color:#B4DFC6"/>
<stop offset="0.7636" style="stop-color:#3F4A78"/>
<stop offset="1" style="stop-color:#72B9C3"/>
</linearGradient>
<path d="M14.814,10.715V3.508C19.178,2.505,23.314,2,27.238,2c5.785,0,10.221,1.121,13.311,3.364  s4.635,5.532,4.635,9.873c0,2.526-0.596,4.665-1.783,6.417c-1.191,1.752-9.396,9.994-10.205,11.121  c-0.809,1.128-1.213,2.465-1.213,4.01v1.544h-11.51v-2.06c0-2.502,0.547-4.612,1.639-6.342c1.09-1.729,2.994-3.868,5.715-6.419  c2.133-1.985,4.781-6.593,4.781-7.573c0-4.436-2.674-6.655-8.018-6.655C21.576,9.28,18.322,9.759,14.814,10.715z" fill="url(#SVGID_1_)"/>
<linearGradient gradientUnits="userSpaceOnUse" id="SVGID_2_" x1="29.999" x2="29.999" y1="2.5591" y2="37.7967">
<stop offset="0" style="stop-color:#94CAC2"/>
<stop offset="1" style="stop-color:#546F9F"/>
</linearGradient>
<path d="M21.223,37.579v-1.31c0-2.343,0.512-4.342,1.521-5.941c1.051-1.666,2.934-3.776,5.596-6.272  c2.016-1.876,5.018-6.732,5.018-8.12c0-3.378-1.521-7.405-8.768-7.405c-2.695,0-5.629,0.383-8.717,1.137l-0.309,0.075V4.107  l0.197-0.043c4.018-0.872,7.879-1.314,11.477-1.314c5.596,0,9.928,1.084,12.869,3.222c2.912,2.112,4.326,5.144,4.326,9.266  c0,2.359-0.557,4.376-1.654,5.996c-0.646,0.95-3.703,4.159-6.158,6.737c-2.273,2.389-3.68,3.872-4.035,4.367  c-0.898,1.254-1.354,2.75-1.354,4.447v0.794H21.223z" fill="url(#SVGID_2_)"/>
<linearGradient gradientUnits="userSpaceOnUse" id="SVGID_3_" x1="26.6924" x2="26.6924" y1="43.6758" y2="58.1758">
<stop offset="0" style="stop-color:#B4DFC6"/>
<stop offset="0.7636" style="stop-color:#3F4A78"/>
<stop offset="1" style="stop-color:#72B9C3"/>
</linearGradient>
<path d="M26.672,58c-1.938,0-3.602-0.686-5-2.059c-1.396-1.373-2.094-3.052-2.094-5.037  c0-1.962,0.693-3.641,2.076-5.038c1.385-1.397,3.059-2.095,5.018-2.095c1.961,0,3.641,0.697,5.037,2.095  c1.398,1.397,2.098,3.076,2.098,5.038c0,1.985-0.699,3.664-2.098,5.037C30.313,57.314,28.633,58,26.672,58z" fill="url(#SVGID_3_)"/>
<linearGradient gradientUnits="userSpaceOnUse" id="SVGID_4_" x1="26.6924" x2="26.6924" y1="44.436" y2="57.4074">
<stop offset="0" style="stop-color:#8DC5C2"/>
<stop offset="0.1152" style="stop-color:#8DC5C2"/>
<stop offset="1" style="stop-color:#546F9F"/>
</linearGradient>
<path d="M26.672,57.25c-1.748,0-3.211-0.604-4.475-1.844c-1.258-1.237-1.869-2.71-1.869-4.502  c0-1.771,0.607-3.245,1.859-4.511c1.248-1.26,2.715-1.872,4.484-1.872c1.771,0,3.246,0.613,4.508,1.875  c1.264,1.263,1.877,2.737,1.877,4.508c0,1.792-0.613,3.265-1.873,4.503C29.92,56.647,28.445,57.25,26.672,57.25L26.672,57.25z" fill="url(#SVGID_4_)"/>
<rect fill="none" height="60" width="60"/>
</g>
<g transform="matrix(1 0 0 1 30 30)">
<polygon fill="none" points="0,0 0,30 4.358,30 25.643,30 30,30 30,0 "/>
<g>
<rect fill="none" height="30" width="30"/>
</g>
<path d="M4.358,30c-0.942,0-1.709-0.768-1.709-1.71V13.747  c0-0.943,0.767-1.711,1.709-1.711h0.663V9.979C5.099,4.471,9.63,0,15.122,0c5.491,0,10.022,4.471,10.101,9.966v2.07h0.42  c0.941,0,1.709,0.768,1.709,1.711V28.29c0,0.942-0.768,1.71-1.709,1.71H4.358z M20.145,12.036V9.979  c-0.058-2.692-2.312-4.9-5.021-4.9s-4.965,2.208-5.021,4.922v2.035H20.145z" fill-opacity="0.35" stroke-opacity="0.35"/>
<linearGradient gradientTransform="matrix(1 0 0 -1 -267.4805 -361.0195)" gradientUnits="userSpaceOnUse" id="SVGID_1__" x1="273.6377" x2="291.5699" y1="-368.7476" y2="-368.7476">
<stop offset="0" style="stop-color:#8C8C8C"/>
<stop offset="0.5333" style="stop-color:#B3B3B3"/>
<stop offset="1" style="stop-color:#808080"/>
</linearGradient>
<path d="M15.122,1c-4.984,0-9.03,4.009-9.101,8.979v3.338H9.1V9.979c0.069-3.266,2.74-5.9,6.021-5.9  s5.951,2.635,6.021,5.9v4.477h3.078V9.979C24.152,5.009,20.107,1,15.122,1z" fill="url(#SVGID_1__)"/>
<linearGradient gradientTransform="matrix(1 0 0 -1 -267.4805 -361.0195)" gradientUnits="userSpaceOnUse" id="SVGID_2__" x1="274.1973" x2="291.0081" y1="-369.0322" y2="-369.0322">
<stop offset="0" style="stop-color:#CCCCCC"/>
<stop offset="0.5152" style="stop-color:#FFFFFF"/>
<stop offset="1" style="stop-color:#CCCCCC"/>
</linearGradient>
<path d="M21.714,13.888V9.979c-0.077-3.574-3.032-6.469-6.592-6.469c-3.559,0-6.514,2.895-6.592,6.458v4.488  H6.591V9.979c0.065-4.636,3.893-8.41,8.531-8.41c4.64,0,8.465,3.774,8.53,8.418v3.9L21.714,13.888L21.714,13.888z" fill="url(#SVGID_2__)"/>
<linearGradient gradientTransform="matrix(1 0 0 -1 -267.4805 -361.0195)" gradientUnits="userSpaceOnUse" id="SVGID_3__" x1="274.5469" x2="290.6592" y1="-369.0322" y2="-369.0322">
<stop offset="0" style="stop-color:#FFFFFF"/>
<stop offset="0.5" style="stop-color:#B3B3B3"/>
<stop offset="1" style="stop-color:#FFFFFF"/>
</linearGradient>
<path d="M6.945,14.102V9.979c0.063-4.44,3.731-8.055,8.177-8.055S23.234,5.542,23.3,9.99v3.541h-1.231V9.979  c-0.08-3.767-3.196-6.824-6.945-6.824c-3.75,0-6.865,3.053-6.946,6.805v4.142H6.945z" fill="url(#SVGID_3__)"/>
<linearGradient gradientTransform="matrix(1 0 0 -1 -267.4805 -361.0195)" gradientUnits="userSpaceOnUse" id="SVGID_4__" x1="271.1289" x2="293.832" y1="-382.0376" y2="-382.0376">
<stop offset="0" style="stop-color:#AA8250"/>
<stop offset="0.24" style="stop-color:#DED7B3"/>
<stop offset="0.75" style="stop-color:#AA8250"/>
<stop offset="0.8667" style="stop-color:#BCA162"/>
<stop offset="1" style="stop-color:#AA8250"/>
</linearGradient>
<path d="M26.352,28.29c0,0.392-0.317,0.71-0.709,0.71H4.358c-0.392,0-0.709-0.318-0.709-0.71V13.747  c0-0.392,0.317-0.711,0.709-0.711h21.283c0.393,0,0.709,0.319,0.709,0.711V28.29H26.352z" fill="url(#SVGID_4__)"/>
<path d="M25.643,13.036H4.358c-0.392,0-0.709,0.319-0.709,0.711v0.709  c0-0.392,0.317-0.709,0.709-0.709h21.283c0.393,0,0.709,0.317,0.709,0.709v-0.709C26.352,13.355,26.033,13.036,25.643,13.036z" fill="#FFFFFF" fill-opacity="0.4" stroke-opacity="0.4"/>
<path d="M25.643,29H4.358c-0.392,0-0.709-0.318-0.709-0.71v-0.709  c0,0.392,0.317,0.709,0.709,0.709h21.283c0.393,0,0.709-0.317,0.709-0.709v0.709C26.352,28.682,26.033,29,25.643,29z" fill-opacity="0.25" stroke-opacity="0.25"/>
<path d="M15,25.82c-0.689,0-1.25-0.562-1.25-1.25v-1.838  c-0.769-0.441-1.25-1.256-1.25-2.162c0-1.379,1.122-2.5,2.5-2.5c1.379,0,2.5,1.121,2.5,2.5c0,0.904-0.48,1.721-1.25,2.162v1.838  C16.25,25.26,15.689,25.82,15,25.82L15,25.82z" fill="#DED7B2" fill-opacity="0.25" stroke-opacity="0.25"/>
<linearGradient gradientTransform="matrix(1 0 0 -1 -267.4805 -361.0195)" gradientUnits="userSpaceOnUse" id="SVGID_5_" x1="282.4805" x2="282.4805" y1="-386.0986" y2="-379.7186">
<stop offset="0" style="stop-color:#8D7B6B"/>
<stop offset="1" style="stop-color:#492C2A"/>
</linearGradient>
<path d="M17,20.57c0-1.104-0.896-2-2-2c-1.104,0-2,0.896-2,2c0,0.839,0.518,1.555,1.25,1.852v2.148  c0,0.414,0.336,0.75,0.75,0.75s0.75-0.336,0.75-0.75v-2.148C16.482,22.125,17,21.409,17,20.57z" fill="url(#SVGID_5_)"/>
</g>
</svg>
