<?xml version="1.0" encoding="UTF-8"?>
<!DOCTYPE svg PUBLIC "-//W3C//DTD SVG 1.1 Tiny//EN" "http://www.w3.org/Graphics/SVG/1.1/DTD/svg11-tiny.dtd">
<svg baseProfile="tiny" height="30" viewBox="0 0 30 30" width="30" xmlns="http://www.w3.org/2000/svg" xmlns:xlink="http://www.w3.org/1999/xlink">
<rect fill="none" height="30" width="30"/>
<path d="M27.799,26.385l-4.348-4.35C25.102,20.063,26,17.6,26,15c0-5.405-4.033-10.077-9.383-10.869l-1.033-0.153 l0.184-1.766L2.2,3.615l4.349,4.348C4.898,9.937,4,12.4,4,15c0,5.404,4.033,10.076,9.381,10.869l1.033,0.152l-0.182,1.766 L27.799,26.385z M14.003,20.908C11.104,20.42,9,17.936,9,15c0-1.251,0.394-2.45,1.124-3.462l4.239,4.241l0.709-6.845l0.924,0.156 C18.896,9.579,21,12.063,21,15c0,1.256-0.393,2.457-1.117,3.469l-4.248-4.247l-0.707,6.843L14.003,20.908z" fill-opacity="0.6"/>
<path d="M8,15c0-1.931,0.799-3.666,2.068-4.932l3.518,3.518l1.061-10.253L4.393,4.394l3.539,3.538 C6.121,9.741,5,12.239,5,15c0,5.021,3.705,9.166,8.527,9.879l0.309-2.984C10.529,21.338,8,18.461,8,15z" fill="url(#SVGID_1)"/>
<path d="M16.414,16.414l-1.061,10.252l10.252-1.061l-3.537-3.539C23.877,20.258,25,17.762,25,15 c0-5.021-3.705-9.166-8.529-9.88l-0.309,2.984C19.469,8.661,22,11.538,22,15c0,1.93-0.793,3.672-2.061,4.939L16.414,16.414z" fill="url(#SVGID_1)"/>
<polygon fill="#FFFFFF" fill-opacity="0.4" points="14.506,4.681 14.646,3.333 4.393,4.394 5.602,5.602 "/>
<path d="M8.033,15.676C8.013,15.893,8,16.111,8,16.332c0,3.414,2.462,6.254,5.701,6.867l0.135-1.305 C10.748,21.375,8.338,18.83,8.033,15.676z" fill="#FFFFFF" fill-opacity="0.4"/>
<path d="M19.939,21.271C21.207,20.006,22,18.262,22,16.332c0-0.227-0.012-0.451-0.033-0.673 c-0.158,1.665-0.906,3.159-2.027,4.28l-3.525-3.525l-0.123,1.193L19.939,21.271z" fill="#FFFFFF" fill-opacity="0.4"/>
<path d="M7.297,8.63C5.863,10.359,5,12.578,5,15c0,0.235,0.016,0.467,0.031,0.698 c0.158-2.506,1.23-4.765,2.9-6.434L7.297,8.63z" fill="#FFFFFF" fill-opacity="0.4"/>
<path d="M22.703,22.701c-0.201,0.244-0.412,0.477-0.635,0.699l2.33,2.33l1.207-0.125L22.703,22.701z" fill="#FFFFFF" fill-opacity="0.4"/>
<path d="M16.471,6.453c4.598,0.681,8.172,4.479,8.496,9.182C24.98,15.424,25,15.214,25,15 c0-5.021-3.705-9.166-8.529-9.88l-0.135,1.305L16.471,6.453z" fill="#FFFFFF" fill-opacity="0.4"/>
<defs>
<linearGradient gradientUnits="userSpaceOnUse" id="SVGID_1" x1="4.04" x2="24.92" y1="5.45" y2="26.33">
<stop offset="0" stop-color="#A0F800"/>
<stop offset="1" stop-color="#319E00"/>
</linearGradient>
</defs>
</svg>
