<?xml version="1.0" ?>
<!DOCTYPE svg  PUBLIC '-//W3C//DTD SVG 1.1 Tiny//EN'  'http://www.w3.org/Graphics/SVG/1.1/DTD/svg11-tiny.dtd'>
<svg baseProfile="tiny" height="30px" version="1.1" viewBox="0 0 30 30" width="30px" x="0px" xmlns="http://www.w3.org/2000/svg" xmlns:xlink="http://www.w3.org/1999/xlink" y="0px">

<polygon points="24.72,22.22,5.481,22.22,9.64,28.88,11.68,27.6,9.827,24.63,9.839,24.63,9.839,24.63,24.72,24.63"/>

<polygon points="20.56,13,18.52,14.28,20.37,17.25,5.481,17.26,5.481,19.66,24.72,19.66"/>

<path d="M22.12,7.638v1.314h1.176v1.287c-0.156,0.045-0.365,0.083-0.697,0.083-1.211,0-1.936-0.821-1.936-2.193,0-0.672,0.261-2.834,3.19-1.947l0.32,0.164,0.37-1.295s-0.688-0.447-1.833-0.447c-2.073,0-3.55,1.433-3.463,3.563,0.128,3.151,2.293,3.489,3.301,3.489,1.366,0,2.104-0.447,2.104-0.447v-3.562h-2.525z"/>

<path d="M13.37,1.285h4.357v1.911h-2.687v1.656s3.413-0.515,3.208,3.611c0,0,0.106,2.887-2.58,3.154-0.775,0.079-2.318-0.175-2.318-0.175l0.02-1.938s3.28,0.86,3.28-1.241c0-2.244-3.28-1.482-3.28-1.482v-5.494z"/>

<rect height="1.482" width="1.482" x="10.74" y="10.08"/>

<path d="M9.341,5.917c0.501-0.521,0.79-1.245,0.79-2.101,0-0.726-0.289-2.691-2.339-2.691-1.407,0-2.258,1.026-2.258,1.026l0.527,1.876s0.785-0.893,1.552-0.893c0.378,0,0.826,0.152,0.826,0.877,0,0.861-0.834,1.048-1.154,1.048h-0.892v1.938h0.892c0.231,0,1.517,0.223,1.397,1.337-0.229,2.161-2.27,0.958-2.499,0.775l-0.393-0.313-0.51,1.897s0.761,0.921,2.24,0.921c1.968,0,2.873-1.688,2.873-3.255,0-1.042-0.398-1.928-1.049-2.438z"/>

<rect fill="none" height="30" width="30"/>

</svg>