<?xml version="1.0" ?>
<!DOCTYPE svg  PUBLIC '-//W3C//DTD SVG 1.1 Tiny//EN'  'http://www.w3.org/Graphics/SVG/1.1/DTD/svg11-tiny.dtd'>
<svg baseProfile="tiny" height="30px" version="1.1" viewBox="0 0 30 30" width="30px" x="0px" xmlns="http://www.w3.org/2000/svg" xmlns:xlink="http://www.w3.org/1999/xlink" y="0px">

<g fill-opacity="0.5" stroke-opacity="0.5">

<rect fill="none" height="30" width="30"/>

</g>

<path d="M7.129,15.84c-0.006-0.09,0-0.523,0-0.614,0.621-0.419,1.057-0.91,1.383-1.552,0.605-1.188,0.281-3.985,0.281-3.985,0-1.245-1.647-2.695-2.898-2.695h-0.795c-1.254,0-2.903,1.45-2.903,2.689,0,0-0.287,2.783,0.279,3.981,0.311,0.654,0.76,1.139,1.395,1.556,0.002,0.085,0.007,0.529,0.002,0.614-0.078,1.22-3.673,3.39-3.873,3.66v3.5h11.5v-3.5c-0.2-0.26-4.295-2.44-4.371-3.66z"/>

<path d="M16.35,16.61c-0.603-1.273-0.687-3.219-0.65-4.633-1.034-0.719-2.033-1.543-2.07-2.138-0.006-0.09,0-0.523,0-0.614,0.621-0.419,1.057-0.91,1.383-1.552,0.605-1.188,0.281-3.985,0.281-3.985,0-1.241-1.64-2.691-2.89-2.691h-0.8c-1.254,0-2.902,1.45-2.902,2.689,0,0-0.118,1.153-0.052,2.294,1.202,0.875,2.088,2.216,2.145,3.568,0.098,0.898,0.291,3.486-0.496,5.031-0.215,0.422-0.468,0.806-0.762,1.156,0.403,0.321,1.018,0.747,1.815,1.261h5.229c-0.07-0.13-0.15-0.25-0.22-0.39z"/>

<path d="M26.45,10.53c0-0.746-0.465-1.543-1.115-2.195l-7.244,7.245c0.022,0.059,0.044,0.121,0.069,0.175,0.361,0.764,0.877,1.345,1.569,1.85l6.752-6.752c-0.03-0.21-0.04-0.33-0.04-0.33z"/>

<path d="M24.26,18.6c-0.007-0.118-0.001-0.687,0.001-0.807,0.814-0.549,1.385-1.194,1.814-2.037,0.297-0.583,0.424-1.461,0.466-2.332l-12.29,12.3v2.28h1.386l8.84-8.84c-0.12-0.2-0.21-0.38-0.22-0.56z"/>

<path d="M23.76,7.263c-0.38-0.159-0.76-0.263-1.12-0.263h-1.04c-1.645,0-3.81,1.904-3.81,3.53,0,0-0.14,1.365-0.079,2.785l6.05-6.057z"/>

<path d="M25.77,20.5l-7.49,7.5h3.665l5.967-5.968c-0.71-0.46-1.48-0.99-2.14-1.53z"/>

<path d="M30,23.41c-0.042-0.055-0.223-0.179-0.479-0.346l-4.94,4.94h3.665l1.76-1.75v-2.844z"/>

</svg>