<?xml version="1.0" encoding="UTF-8"?>
<!DOCTYPE svg PUBLIC "-//W3C//DTD SVG 1.1 Tiny//EN" "http://www.w3.org/Graphics/SVG/1.1/DTD/svg11-tiny.dtd">
<svg baseProfile="tiny" height="15px" version="1.1" viewBox="0 0 15 15" width="15px" x="0px" xmlns="http://www.w3.org/2000/svg" xmlns:xlink="http://www.w3.org/1999/xlink" y="0px">
<g>
<path d="M14.999,15C14.988,10.05,10.955,6.024,6,6.024H0V15   H14.999z" fill="#14141E" fill-opacity="0.1" fill-rule="evenodd" stroke-opacity="0.1"/>
<path d="M14,15c-0.003-4.407-3.591-7.99-8-7.99H0V15H14z" fill="url(#SVGID_1_)" fill-rule="evenodd"/>
<path d="M6,7.01H0v1h6c3.857,0,6.997,3.136,7,6.99h1   C13.997,10.595,10.409,7.01,6,7.01z" fill-opacity="0.2" fill-rule="evenodd" stroke-opacity="0.2"/>
<path d="M6,8.01H0v0.999h6c3.307,0,5.997,2.688,6,5.991h1   C12.997,11.146,9.857,8.01,6,8.01z" fill="#FFFFFF" fill-opacity="0.2" fill-rule="evenodd" stroke-opacity="0.2"/>
<rect fill="none" height="15" width="15"/>
<defs>
<linearGradient gradientUnits="userSpaceOnUse" id="SVGID_1_" x1="7.2422" x2="6.8887" y1="51.5137" y2="-1.817">
<stop offset="0" style="stop-color:#65B8CC"/>
<stop offset="1" style="stop-color:#306D8C"/>
</linearGradient>
</defs>
</g>
</svg>
