<?xml version="1.0" encoding="UTF-8"?>
<!DOCTYPE svg PUBLIC "-//W3C//DTD SVG 1.1 Tiny//EN" "http://www.w3.org/Graphics/SVG/1.1/DTD/svg11-tiny.dtd">
<svg baseProfile="tiny" height="30px" style="enable-background:new 0 0 30 30;" version="1.1" viewBox="0 0 30 30" width="30px" x="0px" xmlns="http://www.w3.org/2000/svg" xmlns:xlink="http://www.w3.org/1999/xlink" y="0px">
<g fill-opacity="0.5" stroke-opacity="0.5">
<rect fill="none" height="30" width="30" x="0.002"/>
</g>
<path d="M1,3v24h28v-24h-28zm25,21h-22v-18h22v18z"/>
<path d="M9.594,18.6v-0.84c0.303,0.078,0.637,0.117,1.006,0.117,0.539,0,0.947-0.168,1.221-0.506,0.273-0.336,0.434-0.889,0.482-1.652-0.334,0.305-0.764,0.459-1.283,0.459-0.625,0-1.102-0.203-1.43-0.604-0.326-0.41-0.49-0.98-0.49-1.72,0-0.813,0.195-1.447,0.584-1.898,0.389-0.453,0.951-0.68,1.688-0.68,0.764,0,1.342,0.268,1.732,0.805,0.391,0.535,0.586,1.443,0.586,2.727,0,1.26-0.246,2.225-0.736,2.898-0.492,0.672-1.219,1.009-2.184,1.009-0.35,0-0.74-0.04-1.176-0.12zm1.746-3.24c0.318,0,0.563-0.119,0.734-0.354,0.17-0.236,0.256-0.572,0.256-1.004,0-0.635-0.08-1.111-0.238-1.432-0.16-0.318-0.398-0.479-0.713-0.479-0.311,0-0.545,0.119-0.707,0.357-0.16,0.236-0.24,0.707-0.24,1.41,0,0.535,0.074,0.918,0.227,1.15,0.15,0.22,0.38,0.34,0.68,0.34z"/>
<path d="M20.9,11.36v7.282h-1.328v-5.04l-1.373,2.617h-0.561l-1.377-2.617v5.04h-1.334v-7.282h1.123l1.871,3.561,1.869-3.561h1.112z"/>
</svg>
