<?xml version="1.0" encoding="UTF-8"?>
<!DOCTYPE svg PUBLIC "-//W3C//DTD SVG 1.1 Tiny//EN" "http://www.w3.org/Graphics/SVG/1.1/DTD/svg11-tiny.dtd">
<svg baseProfile="tiny" height="30" viewBox="0 0 30 30" width="30" xmlns="http://www.w3.org/2000/svg" xmlns:xlink="http://www.w3.org/1999/xlink">
<rect fill="none" height="30" width="30"/>
<path d="M13.058,4.016c0.604-0.082,1.214-0.139,1.833-0.139c0.621,0,1.232,0.057,1.838,0.139v-1.18h1.835V1.918 C18.563,1.41,18.152,1,17.645,1h-5.506c-0.507,0-0.916,0.41-0.916,0.918v0.918h1.835V4.016z"/>
<path d="M26.355,9.729C26.76,9.14,27,8.428,27,7.659C27,5.639,25.361,4,23.341,4c-0.915,0-1.742,0.349-2.384,0.904 C23.165,5.996,25.031,7.668,26.355,9.729z"/>
<path d="M9.042,4.904C8.4,4.349,7.573,4,6.658,4C4.638,4,3,5.639,3,7.659c0,0.769,0.239,1.48,0.644,2.069 C4.968,7.668,6.834,5.997,9.042,4.904z"/>
<path d="M15,5C8.372,5,3,10.373,3,17c0,6.628,5.372,12,12,12c6.627,0,12-5.372,12-12C27,10.373,21.627,5,15,5z M6,17 c0-4.971,4.029-9,9-9s9,4.029,9,9h-8.811l-2.888,8.588C8.649,24.441,6,21.03,6,17z"/>
</svg>
