<?xml version="1.0" encoding="UTF-8"?>
<!DOCTYPE svg PUBLIC "-//W3C//DTD SVG 1.1 Tiny//EN" "http://www.w3.org/Graphics/SVG/1.1/DTD/svg11-tiny.dtd">
<svg baseProfile="tiny" height="30" viewBox="0 0 30 30" width="30" xmlns="http://www.w3.org/2000/svg" xmlns:xlink="http://www.w3.org/1999/xlink">
<rect fill="none" height="30" width="30"/>
<rect fill="none" height="30" width="30"/>
<path d="M14.432,21.776c-0.238,0-0.414,0.115-0.552,0.364c-0.157,0.286-0.238,0.716-0.238,1.279c0,1.648,0.595,1.648,0.79,1.648 c0.239,0,0.413-0.115,0.547-0.365c0.154-0.285,0.232-0.717,0.232-1.283c0-0.565-0.078-0.996-0.232-1.281 C14.845,21.892,14.671,21.776,14.432,21.776z"/>
<path d="M22.97,21.777c-0.056,0-0.226,0-0.405,0.291c-0.109,0.179-0.176,0.4-0.201,0.66h1.164c-0.022-0.262-0.086-0.486-0.188-0.668 C23.178,21.777,23.021,21.777,22.97,21.777z"/>
<path d="M19.864,4.5C19.086,2.302,17.203,0.75,15,0.75c-2.203,0-4.085,1.552-4.864,3.75H2.25v24h25.5v-24H19.864z M23.328,6 c0.792,0,1.422,0.437,1.422,1.196c0,0.776-0.598,1.196-1.422,1.196c-0.825,0-1.422-0.42-1.422-1.196S22.487,6,23.328,6z M21.434,9.565c0.143-0.194,0.348-0.201,0.596-0.201c0.083,0,0.174,0,0.174,0h2.547v8.216c0,0.234,0,0.67-0.365,0.927 c-0.19,0.137-0.482,0.26-0.924,0.26c-0.426,0-0.729-0.124-0.919-0.26c-0.364-0.257-0.364-0.692-0.364-0.927v-6.732 c0,0-0.064,0-0.147,0c-0.249,0-0.452-0.001-0.597-0.196c-0.066-0.09-0.159-0.241-0.159-0.544 C21.273,9.818,21.367,9.655,21.434,9.565z M18.721,9.364H21l-2.44,8.013c-0.27,0.826-0.672,1.391-1.806,1.391 c-1.135,0-1.554-0.564-1.807-1.391l-2.321-8.013h2.699l1.649,6.936L18.721,9.364z M15,2.25c1.385,0,2.593,0.907,3.242,2.25h-6.484 C12.407,3.157,13.616,2.25,15,2.25z M8.765,9.235c2.893,0,4.217,1.922,4.217,4.686c0,2.892-1.342,4.846-4.25,4.846 c-3.151,0-4.233-2.165-4.233-4.912C4.5,11.141,5.97,9.235,8.765,9.235z M7.626,25.893C7.271,26.18,6.759,26.32,6.059,26.32 c-0.384,0-0.704-0.027-0.953-0.078c-0.242-0.049-0.452-0.113-0.625-0.189l-0.134-0.059v-1.387l0.335,0.188 c0.15,0.085,0.34,0.16,0.565,0.224c0.226,0.063,0.472,0.096,0.73,0.096c0.196,0,0.339-0.04,0.426-0.116 c0.08-0.069,0.119-0.182,0.119-0.345c0-0.077-0.014-0.144-0.041-0.208c-0.026-0.055-0.074-0.116-0.144-0.177 c-0.054-0.046-0.19-0.138-0.519-0.305c-0.437-0.214-0.733-0.399-0.905-0.567c-0.176-0.17-0.3-0.357-0.366-0.553 c-0.062-0.186-0.094-0.406-0.094-0.653c0-0.524,0.189-0.94,0.564-1.237c0.356-0.285,0.819-0.43,1.374-0.43 c0.33,0,0.62,0.026,0.861,0.078c0.244,0.055,0.448,0.118,0.623,0.195l0.133,0.061v1.377l-0.333-0.184 c-0.153-0.085-0.344-0.161-0.565-0.227c-0.214-0.065-0.409-0.1-0.581-0.1c-0.158,0-0.274,0.037-0.351,0.109 c-0.075,0.07-0.109,0.16-0.109,0.281c0,0.064,0.012,0.115,0.035,0.149c0.037,0.054,0.083,0.104,0.138,0.148 c0.025,0.02,0.132,0.093,0.475,0.267c0.406,0.203,0.692,0.371,0.873,0.516c0.201,0.161,0.351,0.353,0.446,0.569 c0.094,0.214,0.14,0.475,0.14,0.798C8.174,25.15,7.99,25.598,7.626,25.893z M11.946,26.084l-0.144,0.056 c-0.109,0.042-0.25,0.083-0.422,0.12c-0.165,0.039-0.38,0.058-0.656,0.058c-0.564,0-0.993-0.172-1.275-0.509 c-0.272-0.327-0.41-0.793-0.41-1.385v-2.559H8.346v-1.269H9.04v-0.605l1.655-0.862v1.468h1.175v1.269h-1.174v2.448 c0,0.416,0.06,0.582,0.095,0.646c0.017,0.027,0.06,0.104,0.258,0.104c0.102,0,0.203-0.015,0.299-0.044 c0.103-0.027,0.192-0.061,0.273-0.101l0.325-0.163V26.084z M16.229,25.568c-0.442,0.498-1.048,0.75-1.798,0.75 c-0.75,0-1.356-0.252-1.803-0.75c-0.441-0.491-0.664-1.214-0.664-2.146c0-0.926,0.218-1.646,0.649-2.14 c0.438-0.505,1.05-0.761,1.818-0.761c0.762,0,1.371,0.26,1.81,0.772c0.43,0.501,0.648,1.218,0.648,2.128 C16.891,24.354,16.668,25.077,16.229,25.568z M20.57,21.959l-0.279-0.069c-0.107-0.027-0.212-0.04-0.32-0.04 c-0.334,0-0.555,0.084-0.658,0.25c-0.086,0.141-0.19,0.438-0.19,1.064v3.084h-1.655v-4.443c0-0.233-0.009-0.559-0.025-0.975 l-0.008-0.234h1.585c0,0,0.033,0.237,0.036,0.258c0.031-0.027,0.062-0.054,0.094-0.079c0.215-0.168,0.467-0.254,0.748-0.254 c0.178,0,0.351,0.024,0.513,0.071l0.161,0.047V21.959z M25.201,23.992h-2.851c0.024,0.324,0.106,0.577,0.242,0.755 c0.156,0.203,0.38,0.303,0.685,0.303c0.315,0,0.588-0.021,0.813-0.065c0.223-0.046,0.42-0.107,0.585-0.182l0.318-0.146v1.331 l-0.132,0.061c-0.203,0.092-0.439,0.16-0.706,0.203c-0.263,0.045-0.638,0.068-1.109,0.068c-0.779,0-1.382-0.254-1.79-0.754 c-0.396-0.487-0.598-1.197-0.598-2.111c0-0.902,0.193-1.62,0.575-2.132c0.397-0.532,0.981-0.802,1.736-0.802 c0.77,0,1.345,0.254,1.707,0.754c0.348,0.475,0.524,1.189,0.524,2.123V23.992L25.201,23.992z"/>
<path d="M8.733,17.281c1.486,0,1.567-1.875,1.567-3.475c0-1.243-0.194-3.085-1.567-3.085c-1.438,0-1.551,1.745-1.551,3.085 C7.182,15.18,7.247,17.281,8.733,17.281z"/>
</svg>
