<?xml version="1.0" encoding="UTF-8"?>
<!DOCTYPE svg PUBLIC "-//W3C//DTD SVG 1.1 Tiny//EN" "http://www.w3.org/Graphics/SVG/1.1/DTD/svg11-tiny.dtd">
<svg baseProfile="tiny" height="30" viewBox="0 0 30 30" width="30" xmlns="http://www.w3.org/2000/svg" xmlns:xlink="http://www.w3.org/1999/xlink">
<g>
<rect fill="none" height="30" width="30"/>
<rect fill="none" height="30" width="30"/>
<path d="M24.955,7.031h-5.033c-0.84,0-1.506-0.412-2.352-0.934 c-1.068-0.661-2.281-1.41-4.094-1.41h-3.164V1.875H3.75v3.75h0.938v22.5h4.688v-9.844h4.102c1.281,0,2.168,0.549,3.107,1.13 c0.967,0.597,1.965,1.214,3.338,1.214h5.033l-3.398-6.797L24.955,7.031z" fill-opacity="0.6" stroke-opacity="0.6"/>
<linearGradient gradientUnits="userSpaceOnUse" id="SVGID_1" x1="23.18" x2="9.34" y1="12.65" y2="12.65">
<stop offset="0" stop-color="#DE8029"/>
<stop offset="0.26" stop-color="#DE4E29"/>
<stop offset="1" stop-color="#D82E09"/>
</linearGradient>
<path d="M20.508,13.828l2.93,5.859c0,0-2.344,0-3.516,0c-2.344,0-3.516-2.344-6.445-2.344 c-0.586,0-4.102,0-4.102,0V5.625c0,0,3.516,0,4.102,0c2.93,0,4.102,2.344,6.445,2.344c1.172,0,3.516,0,3.516,0L20.508,13.828z" fill="url(#SVGID_1)"/>
<path d="M20.273,14.297l2.695,5.391c0.285,0,0.469,0,0.469,0 l-2.93-5.859L20.273,14.297z" fill="#FFFFFF" fill-opacity="0.4" stroke-opacity="0.4"/>
<path d="M19.922,8.906c0.847,0,2.303,0,3.047,0l0.469-0.938 c0,0-2.344,0-3.516,0c-2.344,0-3.516-2.344-6.445-2.344c-0.586,0-4.102,0-4.102,0v0.938c0,0,3.516,0,4.102,0 C16.406,6.563,17.578,8.906,19.922,8.906z" fill="#FFFFFF" fill-opacity="0.4" stroke-opacity="0.4"/>
<linearGradient gradientUnits="userSpaceOnUse" id="SVGID_2" x1="8.44" x2="5.66" y1="15.94" y2="15.94">
<stop offset="0" stop-color="#8C8E8F"/>
<stop offset="0.65" stop-color="#D9D9D9"/>
<stop offset="1" stop-color="#AEB2B3"/>
</linearGradient>
<rect fill="url(#SVGID_2)" height="22.5" width="2.813" x="5.625" y="4.688"/>
<linearGradient gradientUnits="userSpaceOnUse" id="SVGID_3" x1="9.34" x2="4.73" y1="3.75" y2="3.75">
<stop offset="0" stop-color="#4F4F4F"/>
<stop offset="0.59" stop-color="#BFBFBF"/>
<stop offset="1" stop-color="#6B6B6B"/>
</linearGradient>
<rect fill="url(#SVGID_3)" height="1.875" width="4.688" x="4.688" y="2.813"/>
<rect fill-opacity="0.2" height="0.938" stroke-opacity="0.2" width="2.813" x="5.625" y="4.688"/>
</g>
</svg>
