<?xml version="1.0" encoding="utf-8"?>
<!-- Generator: Adobe Illustrator 13.0.2, SVG Export Plug-In  -->
<!DOCTYPE svg PUBLIC "-//W3C//DTD SVG 1.1//EN" "http://www.w3.org/Graphics/SVG/1.1/DTD/svg11.dtd" [
	<!ENTITY ns_flows "http://ns.adobe.com/Flows/1.0/">
]>
<svg version="1.1"
	 xmlns="http://www.w3.org/2000/svg" xmlns:xlink="http://www.w3.org/1999/xlink" xmlns:a="http://ns.adobe.com/AdobeSVGViewerExtensions/3.0/"
	 x="0px" y="0px" width="20px" height="60px" viewBox="0 0 20 60" enable-background="new 0 0 20 60" xml:space="preserve">
<defs>
</defs>
<linearGradient id="SVGID_1_" gradientUnits="userSpaceOnUse" x1="9.9995" y1="0" x2="9.9995" y2="59.3335">
	<stop  offset="0" style="stop-color:#8CE0FF"/>
	<stop  offset="1" style="stop-color:#009CEF"/>
</linearGradient>
<path fill="url(#SVGID_1_)" d="M20,60H4c-2.209,0-4-1.791-4-4V4c0-2.209,1.791-4,4-4h16V60z"/>
<linearGradient id="SVGID_2_" gradientUnits="userSpaceOnUse" x1="10.001" y1="1" x2="10.001" y2="59.9672">
	<stop  offset="0" style="stop-color:#00B9FF"/>
	<stop  offset="1" style="stop-color:#007DD5"/>
</linearGradient>
<path fill="url(#SVGID_2_)" d="M19,59H4c-1.652,0-2.998-1.346-2.998-3.001V4c0-1.654,1.346-3,2.998-3h15V59L19,59z"/>
<linearGradient id="SVGID_3_" gradientUnits="userSpaceOnUse" x1="9.9995" y1="28" x2="9.9995" y2="34.1005">
	<stop  offset="0" style="stop-color:#00B9FF"/>
	<stop  offset="1" style="stop-color:#007DD5"/>
</linearGradient>
<circle fill="url(#SVGID_3_)" cx="10" cy="31" r="3"/>
<linearGradient id="SVGID_4_" gradientUnits="userSpaceOnUse" x1="9.9995" y1="38" x2="9.9995" y2="44.1">
	<stop  offset="0" style="stop-color:#00B9FF"/>
	<stop  offset="1" style="stop-color:#007DD5"/>
</linearGradient>
<circle fill="url(#SVGID_4_)" cx="10" cy="41" r="3"/>
<linearGradient id="SVGID_5_" gradientUnits="userSpaceOnUse" x1="9.9995" y1="18" x2="9.9995" y2="24.1">
	<stop  offset="0" style="stop-color:#00B9FF"/>
	<stop  offset="1" style="stop-color:#007DD5"/>
</linearGradient>
<circle fill="url(#SVGID_5_)" cx="10" cy="21" r="3"/>
</svg>
