<?xml version="1.0" encoding="UTF-8"?>
<!DOCTYPE svg PUBLIC "-//W3C//DTD SVG 1.1 Tiny//EN" "http://www.w3.org/Graphics/SVG/1.1/DTD/svg11-tiny.dtd">
<svg baseProfile="tiny" height="30" viewBox="0 0 30 30" width="30" xmlns="http://www.w3.org/2000/svg" xmlns:xlink="http://www.w3.org/1999/xlink">
<rect fill="none" height="30" width="30"/>
<path d="M22.5,7.5v15h-15v-15H22.5 M23.438,5.625H6.563c-0.516,0-0.938,0.422-0.938,0.938v16.875c0,0.516,0.422,0.938,0.938,0.938 h16.875c0.516,0,0.938-0.422,0.938-0.938V6.563C24.375,6.047,23.953,5.625,23.438,5.625L23.438,5.625z"/>
<polygon points="20.625,14.063 15.938,14.063 15.938,9.375 14.063,9.375 14.063,14.063 9.375,14.063 9.375,15.938 14.063,15.938 14.063,20.625 15.938,20.625 15.938,15.938 20.625,15.938 "/>
</svg>
