<?xml version="1.0" encoding="utf-8"?>
<!-- Generator: Adobe Illustrator 14.0.0, SVG Export Plug-In . SVG Version: 6.00 Build 43363)  -->
<!DOCTYPE svg PUBLIC "-//W3C//DTD SVG 1.1//EN" "http://www.w3.org/Graphics/SVG/1.1/DTD/svg11.dtd">
<svg version="1.1" id="Layer_1" xmlns="http://www.w3.org/2000/svg" xmlns:xlink="http://www.w3.org/1999/xlink" x="0px" y="0px"
	 width="30px" height="30px" viewBox="0 0 30 30" enable-background="new 0 0 30 30" xml:space="preserve">
<rect fill="none" width="30" height="30"/>
<path d="M0.998,3v24h28V3H0.998z M25.998,24h-22V6h22V24z"/>
<path d="M7.757,19.004L5.63,10.996h1.542l1.552,6.455l1.595-6.455h1.316l-2.219,8.008H7.757z"/>
<path d="M14.895,19.09c-0.896,0-1.57-0.324-2.025-0.971c-0.454-0.646-0.682-1.719-0.682-3.219c0-1.297,0.282-2.285,0.846-2.969
	c0.564-0.682,1.397-1.021,2.5-1.021c0.565,0,1.098,0.068,1.596,0.209v0.912c-0.444-0.133-0.938-0.197-1.487-0.197
	c-0.626,0-1.103,0.266-1.427,0.797c-0.324,0.531-0.486,1.277-0.486,2.236c0,1.264,0.119,2.133,0.355,2.604s0.58,0.705,1.031,0.705
	c0.286,0,0.514-0.102,0.682-0.303c0.168-0.203,0.252-0.471,0.252-0.803v-1.498h-1.058V14.67H17.5v4.334h-0.833l-0.22-0.715
	c-0.15,0.25-0.367,0.447-0.65,0.588C15.514,19.02,15.213,19.09,14.895,19.09z"/>
<path d="M22.807,19.004l-0.461-1.762h-2.423l-0.473,1.762h-1.343l2.31-8.008h1.74l2.213,8.008H22.807z M22.125,16.34l-0.982-3.98
	l-1.01,3.98H22.125z"/>
</svg>
