<?xml version="1.0" encoding="UTF-8"?>
<!DOCTYPE svg PUBLIC "-//W3C//DTD SVG 1.1 Tiny//EN" "http://www.w3.org/Graphics/SVG/1.1/DTD/svg11-tiny.dtd">
<svg baseProfile="tiny" height="30" viewBox="0 0 30 30" width="30" xmlns="http://www.w3.org/2000/svg" xmlns:xlink="http://www.w3.org/1999/xlink">
<g>
<path d="M10.375,15.584c1.193-0.924,1.878-2.209,1.878-3.725c0-1.287-0.502-2.469-1.41-3.33  C9.852,7.586,8.414,7.09,6.704,7.09c-2.079,0-3.882,0.764-4.794,1.42L1.352,8.904L2.6,12.236l0.951-0.674  c0.585-0.418,1.659-0.906,2.734-0.906c0.894,0,1.962,0.271,1.962,1.559c0,1.525-1.983,1.859-2.743,1.859H3.383v3.436h2.121  c0.545,0,3.286,0.115,3.307,2.371c0.009,0.275-0.041,0.967-0.57,1.51c-0.481,0.48-1.23,0.732-2.213,0.732  c-1.334,0-2.605-0.551-3.141-0.875l-0.936-0.563L0.75,24.053l0.587,0.387c0.873,0.576,2.638,1.248,4.718,1.248  c4.684,0,6.818-2.992,6.818-5.771C12.882,18.061,11.919,16.484,10.375,15.584z" fill-opacity="0.6" stroke-opacity="0.6"/>
<linearGradient gradientUnits="userSpaceOnUse" id="SVGID_1_" x1="6.9146" x2="6.9145" y1="7.7212" y2="24.559">
<stop offset="0" style="stop-color:#85AE4A"/>
<stop offset="1" style="stop-color:#2F6F44"/>
</linearGradient>
<path d="M6.055,24.688c-1.924,0-3.446-0.633-4.099-1.039l0.527-1.478c0.794,0.452,2.153,0.952,3.544,0.952  c1.256,0,2.238-0.345,2.919-1.024c0.818-0.84,0.876-1.853,0.863-2.25c-0.021-2.458-2.333-3.339-4.306-3.339H4.383v-1.436h1.121  c1.505,0,3.743-0.762,3.743-2.859c0-1.237-0.778-2.559-2.962-2.559c-1.253,0-2.453,0.511-3.204,1.015L2.559,9.276  C3.435,8.676,5.025,8.09,6.704,8.09c1.456,0,2.649,0.402,3.449,1.164c0.71,0.673,1.1,1.598,1.1,2.605c0,1.165-0.516,2.18-1.49,2.934  l-1.172,0.908l1.28,0.747c1.279,0.745,2.009,2.008,2.002,3.463C11.873,22.291,10.074,24.688,6.055,24.688L6.055,24.688z" fill="url(#SVGID_1_)"/>
<path d="M21.913,12.494v3.537h3.4V19.5c-0.446,0.119-1.063,0.225-2.012,0.225c-3.517,0-5.61-2.211-5.61-5.912  c0-1.816,0.543-3.316,1.584-4.338c1.024-1.018,2.512-1.549,4.299-1.549c1.361,0,2.422,0.205,3.352,0.641l0.928,0.439l1.08-3.492  l-0.689-0.336c-0.824-0.398-2.526-0.865-4.62-0.865c-5.997,0-10.024,3.859-10.024,9.598c0,2.791,0.959,5.316,2.624,6.924  c1.746,1.666,4.007,2.477,6.926,2.477c2.749,0,4.919-0.754,5.525-0.984l0.575-0.221v-9.611H21.913z" fill-opacity="0.6" stroke-opacity="0.6"/>
<linearGradient gradientUnits="userSpaceOnUse" id="SVGID_2_" x1="21.4248" x2="21.4248" y1="4.9771" y2="22.9882">
<stop offset="0" style="stop-color:#85AE4A"/>
<stop offset="1" style="stop-color:#2F6F44"/>
</linearGradient>
<path d="M23.149,22.311c-2.645,0-4.684-0.72-6.235-2.2c-1.47-1.418-2.314-3.68-2.314-6.2  c0-5.223,3.542-8.598,9.024-8.598c1.962,0,3.458,0.439,4.101,0.727L27.238,7.61c-1.045-0.468-2.212-0.685-3.664-0.685  c-2.062,0-3.792,0.636-5.004,1.84c-1.228,1.204-1.879,2.951-1.879,5.047c0,4.264,2.533,6.912,6.61,6.912  c0.888,0,1.609-0.082,2.27-0.259l0.742-0.198v-5.236h-3.4v-1.537h5.337v7.924C27.604,21.656,25.61,22.311,23.149,22.311  L23.149,22.311z" fill="url(#SVGID_2_)"/>
<rect fill="none" height="30" width="30"/>
</g>
<g>
<rect fill-opacity="0.6" height="34.27" stroke-opacity="0.6" style="enable-background:new;" transform="matrix(0.7073 -0.707 0.707 0.7073 -6.2126 14.9968)" width="3.169" x="13.42" y="-2.134"/>
<polygon fill="url(#SVGID_1__)" points="26,26.99,3.015,4.005,4.006,3.014,26.99,26"/>
<rect fill="none" height="30" width="30"/>
<defs>
<linearGradient gradientTransform="matrix(0.8824 0 0 -0.8824 -284.8232 -348.3516)" gradientUnits="userSpaceOnUse" id="SVGID_1__" x1="339.8" x2="339.8" y1="-397.3" y2="-425.3">
<stop offset="0" stop-color="#A8835F"/>
<stop offset="0.2606" stop-color="#A86F5F"/>
<stop offset="1" stop-color="#9A5047"/>
</linearGradient>
</defs>
</g>
</svg>
