<?xml version="1.0" encoding="utf-8"?>
<!-- Generator: Adobe Illustrator 14.0.0, SVG Export Plug-In . SVG Version: 6.00 Build 43363)  -->
<!DOCTYPE svg PUBLIC "-//W3C//DTD SVG 1.1//EN" "http://www.w3.org/Graphics/SVG/1.1/DTD/svg11.dtd">
<svg version="1.1" id="Layer_1" xmlns="http://www.w3.org/2000/svg" xmlns:xlink="http://www.w3.org/1999/xlink" x="0px" y="0px"
	 width="30px" height="30px" viewBox="0 0 30 30" enable-background="new 0 0 30 30" xml:space="preserve">
<rect fill="none" width="29.999" height="30"/>
<path d="M19.675,3.48l-5.661,3.269c-0.279,0.117-0.592,0.042-0.732-0.196l-0.984-1.648c-0.002,0.001-0.002,0.006-0.004,0.007
	c0-0.001,0-0.003,0-0.004c-0.861,0.447-2.783,1.709-3.99,2.916c-1.256,1.257-2.422,2.609-3.398,4.289c0,0-0.004,0.008-0.006,0.008
	c0.008,0,0.014,0,0.021,0.002l2.096,1.342c0.264,0.17,0.318,0.543,0.123,0.828l-3.689,5.418c-0.195,0.283-0.566,0.377-0.83,0.205
	c0,0-0.229-0.148-0.787-0.639c0,0,0,0-0.002,0c-0.301-0.267-0.314-0.365-0.604-0.711c-0.244-0.295-0.439-0.588-0.602-0.857
	c0-0.002-0.004,0-0.004-0.002c-0.034-0.057-0.063-0.107-0.093-0.16c-0.004-0.008-0.008-0.016-0.01-0.02
	c-0.301-0.537-0.43-0.932-0.43-0.932c-0.139-0.529-0.195-2.351,0.432-4.005c0.399-1.048,2.493-4.361,4.938-6.81
	c2.445-2.448,6.25-4.884,7.924-5.389c1.674-0.505,3.002-0.427,3.396-0.286c0,0,1.021,0.333,1.945,1.18
	c0.308,0.283,0.338,0.295,0.578,0.589c0,0.002,0,0.005,0,0.006c0-0.001,0-0.003-0.002-0.004c0.473,0.583,0.629,0.817,0.629,0.817
	C20.085,2.958,19.968,3.312,19.675,3.48z"/>
<path d="M26.773,11.223C24.634,9.085,22.02,8,18.999,8c-3.005,0-5.618,1.087-7.767,3.228C9.088,13.375,8,15.982,8,18.984
	c0,3.014,1.086,5.633,3.227,7.783C13.363,28.912,15.979,30,18.999,30h0.269v-2.775h-0.269c-2.265,0-4.22-0.811-5.812-2.412
	c-1.598-1.594-2.406-3.555-2.406-5.828c0-2.268,0.807-4.222,2.396-5.813c1.588-1.588,3.548-2.391,5.821-2.391
	c2.266,0,4.232,0.811,5.848,2.409c1.619,1.604,2.441,3.553,2.441,5.794c0,0.979-0.162,1.875-0.496,2.738
	c-0.426,1.086-0.994,1.613-1.738,1.613c-0.563,0-1.313-0.209-1.313-2.008v-8.082h-2.799v0.412c-0.662-0.439-1.494-0.662-2.486-0.662
	c-1.646,0-2.978,0.615-3.951,1.832c-0.907,1.119-1.368,2.523-1.368,4.172c0,1.639,0.459,3.049,1.367,4.195
	c0.99,1.252,2.32,1.887,3.952,1.887c1.258,0,2.32-0.395,3.17-1.174c0.748,1.42,1.9,2.141,3.428,2.141
	c1.687,0,2.99-0.832,3.875-2.469c0.711-1.295,1.07-2.842,1.07-4.596C29.999,15.969,28.915,13.357,26.773,11.223z M18.456,15.74
	c1.58,0,2.349,1.033,2.349,3.158c0,2.311-0.769,3.436-2.351,3.436c-1.591,0-2.366-1.09-2.366-3.334c0-0.875,0.188-1.602,0.574-2.221
	C17.086,16.08,17.673,15.74,18.456,15.74z"/>
</svg>
