<?xml version="1.0" encoding="UTF-8"?>
<!DOCTYPE svg PUBLIC "-//W3C//DTD SVG 1.1 Tiny//EN" "http://www.w3.org/Graphics/SVG/1.1/DTD/svg11-tiny.dtd">
<svg baseProfile="tiny" height="60" viewBox="0 0 60 60" width="60" xmlns="http://www.w3.org/2000/svg" xmlns:xlink="http://www.w3.org/1999/xlink">
<rect fill="none" height="60" width="60"/>
<linearGradient gradientUnits="userSpaceOnUse" id="SVGID_1" x1="30" x2="30" y1="8.47" y2="51.33">
<stop offset="0" stop-color="#F2F2F2"/>
<stop offset="0.25" stop-color="#4F88BD"/>
<stop offset="0.73" stop-color="#0055A3"/>
<stop offset="1" stop-color="#64AEFB"/>
</linearGradient>
<path d="M30,51.428C18.184,51.428,8.57,41.816,8.57,30C8.57,18.186,18.184,8.572,30,8.572 c11.814,0,21.43,9.613,21.43,21.428C51.43,41.816,41.814,51.428,30,51.428L30,51.428z" fill="url(#SVGID_1)"/>
<radialGradient cx="29.8" cy="13.11" gradientUnits="userSpaceOnUse" id="SVGID_2" r="39.33">
<stop offset="0" stop-color="#96E9FA"/>
<stop offset="0.15" stop-color="#96E9FA"/>
<stop offset="0.75" stop-color="#005BCC"/>
<stop offset="1" stop-color="#0087D9"/>
</radialGradient>
<path d="M50.816,30c0,11.498-9.322,20.816-20.816,20.816C18.504,50.816,9.184,41.498,9.184,30 c0-11.494,9.32-20.816,20.816-20.816C41.494,9.184,50.816,18.506,50.816,30z" fill="url(#SVGID_2)"/>
<linearGradient gradientUnits="userSpaceOnUse" id="SVGID_3" x1="30" x2="30" y1="15.46" y2="43.93">
<stop offset="0" stop-color="#0B81FA"/>
<stop offset="1" stop-color="#47DAFA"/>
</linearGradient>
<path d="M29.998,44.193c-3.898,0-7.273-1.402-10.029-4.172c-2.762-2.773-4.16-6.152-4.16-10.041 c0-3.871,1.402-7.238,4.168-10.008c2.771-2.764,6.143-4.164,10.021-4.164c3.898,0,7.273,1.398,10.033,4.156 c2.758,2.758,4.16,6.127,4.16,10.016c0,2.268-0.469,4.27-1.387,5.949c-1.176,2.16-2.906,3.262-5.145,3.262 c-1.936,0-3.418-0.859-4.414-2.555c-1.078,0.883-2.398,1.33-3.936,1.33c-2.152,0-3.908-0.84-5.217-2.49 c-1.186-1.494-1.787-3.336-1.787-5.477c0-2.152,0.604-3.986,1.795-5.453c1.285-1.604,3.041-2.42,5.209-2.42 c1.107,0,2.068,0.213,2.873,0.633v-0.313h4.09v10.496c0,2.27,0.971,2.27,1.387,2.27c0.299,0,1.215,0,1.947-1.867 c0.4-1.041,0.604-2.174,0.604-3.365c0-2.805-0.98-5.139-3.004-7.141c-1.992-1.971-4.418-2.971-7.209-2.971 c-2.84,0-5.186,0.965-7.174,2.947c-1.986,1.984-2.953,4.328-2.953,7.164c0,2.842,0.973,5.189,2.967,7.182 c1.967,1.975,4.373,2.973,7.16,2.973h0.611v4.059H29.998L29.998,44.193z M29.311,26.146c-0.887,0-1.553,0.389-2.039,1.184 c-0.455,0.734-0.684,1.633-0.684,2.67c0,3.535,1.553,3.943,2.723,3.943c1.158,0,2.701-0.42,2.701-4.072 C32.012,26.531,30.469,26.146,29.311,26.146L29.311,26.146z" fill="url(#SVGID_3)"/>
<path d="M43.578,29.98c0,2.176-0.438,4.061-1.313,5.654c-1.063,1.961-2.598,2.943-4.605,2.943 c-1.953,0-3.363-0.982-4.242-2.943c-1.059,1.145-2.43,1.719-4.107,1.719c-1.967,0-3.543-0.752-4.736-2.258 c-1.102-1.391-1.656-3.084-1.656-5.096c0-2.021,0.555-3.707,1.656-5.064c1.178-1.467,2.756-2.197,4.736-2.197 c1.477,0,2.639,0.4,3.486,1.207v-0.885h2.863v9.883c0,1.922,0.664,2.883,2,2.883c1.09,0,1.928-0.754,2.516-2.256 c0.43-1.119,0.648-2.313,0.648-3.59c0-2.953-1.063-5.477-3.188-7.576c-2.121-2.1-4.668-3.146-7.639-3.146 c-2.982,0-5.518,1.041-7.607,3.125c-2.086,2.086-3.131,4.615-3.131,7.598c0,2.979,1.045,5.52,3.145,7.615 c2.092,2.102,4.627,3.152,7.594,3.152v2.834c-3.744,0-6.945-1.332-9.596-3.992c-2.654-2.666-3.982-5.873-3.982-9.609 c0-3.727,1.33-6.914,3.99-9.576c2.664-2.654,5.855-3.984,9.588-3.984c3.744,0,6.945,1.322,9.6,3.979 C42.25,23.045,43.578,26.24,43.578,29.98z M32.625,29.871c0-2.893-1.105-4.336-3.314-4.336c-1.104,0-1.961,0.49-2.561,1.479 c-0.52,0.832-0.773,1.826-0.773,2.986c0,3.039,1.109,4.557,3.332,4.557C31.52,34.557,32.625,32.996,32.625,29.871z" fill="#FFFFFF"/>
<g transform="matrix(0.5 0 0 0.5 30 30)">
<radialGradient cx="42.39" cy="42.29" gradientUnits="userSpaceOnUse" id="SVGID_1_" r="11.1">
<stop offset="0" stop-color="#FFA98E"/>
<stop offset="0.2" stop-color="#FFA98E"/>
<stop offset="0.96" stop-color="#D45D36"/>
<stop offset="1" stop-color="#D45D36"/>
</radialGradient>
<path d="M46.91,37.354c-1.044-0.453-1.012-2.678-0.582-3.35c0.076-0.118,0.145-0.234,0.216-0.352 h-8.731c0.069,0.117,0.138,0.233,0.213,0.352c0.431,0.672,0.463,2.896-0.58,3.35C36.4,37.809,42.3,41.758,42.3,41.758 S47.954,37.807,46.91,37.354z" fill="url(#SVGID_1_)"/>
<linearGradient gradientUnits="userSpaceOnUse" id="SVGID_2_" x1="42.18" x2="42.18" y1="36.94" y2="46.09">
<stop offset="0" stop-color="#3BC8EB"/>
<stop offset="0.39" stop-color="#2D9BD2"/>
<stop offset="0.89" stop-color="#1347BA"/>
<stop offset="1" stop-color="#1347BA"/>
</linearGradient>
<path d="M53.188,39.672c-1.098-0.572-6.541-2.477-6.644-2.598l-4.157,3.458l-4.467-3.591 c-0.126,0.185-5.504,2.07-6.748,2.73c-1.426,0.756-3.754,2.494-3.754,6.414h29.521C56.939,42.166,54.286,40.242,53.188,39.672z" fill="url(#SVGID_2_)"/>
<polygon fill="#020202" fill-opacity="0.3" points="36.9,37.386 42.384,41.758 47.536,37.475 46.542,37.074 42.384,40.532 37.918,36.941 " stroke-opacity="0.3"/>
<linearGradient gradientUnits="userSpaceOnUse" id="SVGID_3_" x1="42.22" x2="42.22" y1="42.15" y2="37.1">
<stop offset="0" stop-color="#3BC8EB"/>
<stop offset="1" stop-color="#2D9BD2"/>
</linearGradient>
<polygon fill="url(#SVGID_3_)" points="42.384,41.758 36.9,37.386 36.582,37.525 42.384,42.148 47.857,37.6 47.54,37.473 "/>
<radialGradient cx="42.93" cy="21.83" gradientUnits="userSpaceOnUse" id="SVGID_4" r="14.9">
<stop offset="0" stop-color="#FFE2D9"/>
<stop offset="0.51" stop-color="#FFC6B3"/>
<stop offset="0.76" stop-color="#FFA98E"/>
<stop offset="1" stop-color="#E88160"/>
</radialGradient>
<path d="M49.42,27.128c-0.038-0.016-0.08-0.018-0.118-0.03c0-0.002,0-0.002,0-0.002 c-0.008-0.002-0.014-0.004-0.014-0.004c-0.065-0.016-0.124-0.028-0.185-0.032c-7.289-1.27-10.636-5.308-10.886-4.238 c-0.202,0.85-2.245,2.692-3.315,3.61c0.008,0.042,0.016,0.078,0.023,0.12c0,0,0.04,0.188,0.12,0.508 c-0.084,0.01-0.168,0.028-0.248,0.06c-0.682,0.29-0.896,1.404-0.478,2.496c0.418,1.09,1.306,1.741,1.99,1.456 c0.041-0.018,0.078-0.047,0.115-0.072c0.396,0.891,0.881,1.844,1.477,2.8c0.998,1.187,2.525,2.576,4.211,2.576 c2.041,0,3.291-1.118,4.146-2.242c0.022-0.048,0.045-0.094,0.068-0.13c0.636-0.994,1.152-1.992,1.57-2.92 c0.666,0.23,1.521-0.389,1.947-1.438C50.286,28.562,50.094,27.434,49.42,27.128z" fill="url(#SVGID_4)"/>
<linearGradient gradientUnits="userSpaceOnUse" id="SVGID_5" x1="39.55" x2="45.84" y1="37.06" y2="30.81">
<stop offset="0" stop-color="#FFC6B3"/>
<stop offset="1" stop-color="#FFA98E"/>
</linearGradient>
<path d="M41.813,35.805c-1.242,0-2.494-0.578-3.416-1.453c0.974,1.026,2.287,2.024,3.715,2.024 c2.041,0,3.291-1.118,4.146-2.242c0.021-0.048,0.044-0.094,0.068-0.13c0.636-0.994,1.152-1.992,1.57-2.92 C45.578,35.141,43.854,35.805,41.813,35.805z" fill="url(#SVGID_5)"/>
<linearGradient gradientUnits="userSpaceOnUse" id="SVGID_6" x1="42.05" x2="42.05" y1="17.11" y2="26.38">
<stop offset="0" stop-color="#8A5D3B"/>
<stop offset="0.38" stop-color="#632F00"/>
<stop offset="1" stop-color="#361700"/>
</linearGradient>
<path d="M41.908,16.966c-2.53,0-3.744,1.148-4.682,2.35c-1.528,0.234-3.947,1.634-2.238,7.764 c1.07-0.918,3.029-3.406,3.229-4.256c0.255-1.08,3.656,3.042,11.084,4.274c0.089-0.344,0.126-0.544,0.126-0.544 C50.596,21.318,48.059,17.172,41.908,16.966z" fill="url(#SVGID_6)"/>
<linearGradient gradientUnits="userSpaceOnUse" id="SVGID_7" x1="45.22" x2="36.82" y1="25.98" y2="20.99">
<stop offset="0" stop-color="#8A5D3B"/>
<stop offset="0.36" stop-color="#632F00"/>
<stop offset="1" stop-color="#361700"/>
</linearGradient>
<path d="M38.227,22.322c0,0,3.635,4.778,11.023,4.768C49.25,27.09,45.773,26.544,38.227,22.322z" fill="url(#SVGID_7)"/>
<linearGradient gradientUnits="userSpaceOnUse" id="SVGID_8" x1="36.07" x2="36.14" y1="20.02" y2="25.35">
<stop offset="0" stop-color="#8A5D3B"/>
<stop offset="0.38" stop-color="#632F00"/>
<stop offset="1" stop-color="#361700"/>
</linearGradient>
<path d="M37.354,19.672c0,0-3.56,0.212-2.24,6.246C35.113,25.918,34.678,21.786,37.354,19.672z" fill="url(#SVGID_8)"/>
<linearGradient gradientUnits="userSpaceOnUse" id="SVGID_9" x1="43.23" x2="42.97" y1="17.9" y2="20.32">
<stop offset="0" stop-color="#A87C4F"/>
<stop offset="1" stop-color="#632F00"/>
</linearGradient>
<path d="M43.632,20.508c-1.655-0.236-4.46-1.706-5.558-1.18c0,0,3.598-4.106,9.943,0.568 C48.018,19.896,46.506,20.916,43.632,20.508z" fill="url(#SVGID_9)"/>
<radialGradient cx="18.03" cy="42.29" gradientUnits="userSpaceOnUse" id="SVGID_10" r="11.1">
<stop offset="0" stop-color="#FFA98E"/>
<stop offset="0.2" stop-color="#FFA98E"/>
<stop offset="0.96" stop-color="#D45D36"/>
<stop offset="1" stop-color="#D45D36"/>
</radialGradient>
<path d="M22.552,37.354c-1.042-0.453-1.01-2.678-0.58-3.35c0.074-0.118,0.144-0.234,0.216-0.352 h-8.73c0.07,0.117,0.138,0.233,0.214,0.352c0.43,0.672,0.46,2.896-0.58,3.35c-1.046,0.455,4.854,4.404,4.854,4.404 S23.6,37.807,22.552,37.354z" fill="url(#SVGID_10)"/>
<path d="M28.832,39.672c-1.098-0.572-6.542-2.477-6.644-2.598l-4.158,3.458l-4.466-3.591 c-0.126,0.185-5.504,2.07-6.75,2.73c-1.424,0.756-3.752,2.494-3.752,6.414h29.522C32.582,42.166,29.93,40.242,28.832,39.672z" fill="url(#SVGID_2_)"/>
<polygon fill="#020202" fill-opacity="0.3" points="12.544,37.386 18.03,41.758 23.182,37.475 22.188,37.074 18.03,40.532 13.562,36.941 " stroke-opacity="0.3"/>
<polygon fill="url(#SVGID_3_)" points="18.03,41.758 12.542,37.386 12.226,37.525 18.03,42.148 23.502,37.6 23.184,37.473 "/>
<radialGradient cx="18.57" cy="21.83" gradientUnits="userSpaceOnUse" id="SVGID_13" r="14.9">
<stop offset="0" stop-color="#FFE2D9"/>
<stop offset="0.51" stop-color="#FFC6B3"/>
<stop offset="0.76" stop-color="#FFA98E"/>
<stop offset="1" stop-color="#E88160"/>
</radialGradient>
<path d="M25.064,27.128c-0.038-0.016-0.08-0.018-0.118-0.03c0-0.002,0-0.002,0-0.002 c-0.008-0.002-0.014-0.004-0.024-0.004c-0.056-0.016-0.114-0.028-0.174-0.032c-7.29-1.27-10.634-5.308-10.886-4.238 c-0.204,0.85-2.246,2.692-3.316,3.61c0.008,0.042,0.016,0.078,0.024,0.12c0,0,0.04,0.188,0.12,0.508 c-0.086,0.01-0.17,0.028-0.248,0.06c-0.682,0.29-0.894,1.404-0.478,2.496c0.418,1.09,1.306,1.741,1.99,1.456 c0.042-0.018,0.078-0.047,0.116-0.072c0.396,0.891,0.88,1.844,1.476,2.8c0.998,1.187,2.526,2.576,4.212,2.576 c2.04,0,3.29-1.118,4.146-2.242c0.022-0.048,0.044-0.094,0.068-0.13c0.636-0.994,1.152-1.992,1.57-2.92 c0.668,0.23,1.522-0.389,1.946-1.438C25.928,28.562,25.738,27.434,25.064,27.128z" fill="url(#SVGID_13)"/>
<linearGradient gradientUnits="userSpaceOnUse" id="SVGID_14" x1="15.19" x2="21.49" y1="37.06" y2="30.81">
<stop offset="0" stop-color="#FFC6B3"/>
<stop offset="1" stop-color="#FFA98E"/>
</linearGradient>
<path d="M17.458,35.805c-1.242,0-2.494-0.578-3.416-1.453c0.974,1.026,2.288,2.024,3.716,2.024 c2.04,0,3.29-1.118,4.146-2.242c0.022-0.048,0.044-0.094,0.068-0.13c0.636-0.994,1.152-1.992,1.57-2.92 C21.222,35.141,19.498,35.805,17.458,35.805z" fill="url(#SVGID_14)"/>
<path d="M17.552,16.966c-2.53,0-3.744,1.148-4.684,2.35c-1.526,0.234-3.946,1.634-2.236,7.764 c1.07-0.918,3.028-3.406,3.23-4.256c0.254-1.08,3.656,3.042,11.084,4.274c0.086-0.344,0.126-0.544,0.126-0.544 C26.24,21.318,23.704,17.172,17.552,16.966z" fill="url(#SVGID_6)"/>
<linearGradient gradientUnits="userSpaceOnUse" id="SVGID_16" x1="20.87" x2="12.47" y1="25.98" y2="20.99">
<stop offset="0" stop-color="#8A5D3B"/>
<stop offset="0.36" stop-color="#632F00"/>
<stop offset="1" stop-color="#361700"/>
</linearGradient>
<path d="M13.872,22.322c0,0,3.636,4.778,11.026,4.768C24.896,27.09,21.416,26.544,13.872,22.322z" fill="url(#SVGID_16)"/>
<path d="M12.996,19.672c0,0-3.558,0.212-2.238,6.246C10.758,25.918,10.322,21.786,12.996,19.672z" fill="url(#SVGID_8)"/>
<linearGradient gradientUnits="userSpaceOnUse" id="SVGID_18" x1="18.88" x2="18.62" y1="17.9" y2="20.32">
<stop offset="0" stop-color="#A87C4F"/>
<stop offset="1" stop-color="#632F00"/>
</linearGradient>
<path d="M19.278,20.508c-1.656-0.236-4.46-1.706-5.56-1.18c0,0,3.6-4.106,9.946,0.568 C23.662,19.896,22.148,20.916,19.278,20.508z" fill="url(#SVGID_18)"/>
<path d="M46.641,40.864c-1.013-0.528-4.162-1.698-6.695-2.636 l-1.422-0.53l-0.256-0.103l-0.332-0.128L37.3,37.212l-0.392,0.172c-0.002,0.002-0.006,0.002-0.008,0.005h-0.002 c-1.652,0.646-4.813,1.795-5.729,2.285c-0.357,0.19-0.772,0.442-1.192,0.774c-0.442-0.364-0.852-0.62-1.146-0.774 c-0.79-0.41-3.808-1.506-5.492-2.136l-0.156-0.062l-0.004,0.002l-0.698-0.283l-0.634,0.279c-0.622,0.243-1.386,0.535-2.206,0.846 l-0.076,0.029c-2.42,0.92-5.164,1.963-6.214,2.522C10.996,42.122,9.3,43.891,8.3,46.09h19.118h5.166h19.04 C50.055,42.818,47.355,41.234,46.641,40.864z" fill="#231F20" fill-opacity="0.15" stroke-opacity="0.15"/>
<path d="M18.104,22.872c-1.122,0.954-1.424,2.864-0.698,4.76 c0.684,1.788,2.096,2.988,3.516,2.988h0.004c0.212,0.442,0.434,0.878,0.662,1.308h-0.066l0.542,0.896c0,0,0.142,0.23,0.308,0.506 c0.452-0.766,0.848-1.528,1.172-2.246c0.668,0.23,1.522-0.389,1.946-1.438c0.44-1.084,0.25-2.212-0.424-2.518 c-0.038-0.016-0.08-0.018-0.118-0.03c0-0.002,0-0.002,0-0.002c-0.008-0.002-0.014-0.004-0.024-0.004 c-0.056-0.016-0.114-0.028-0.174-0.032c-0.014-0.004-0.024-0.006-0.038-0.01c-0.03-0.006-0.064-0.014-0.1-0.022 c0.114,0.022,0.218,0.046,0.334,0.066c0.086-0.344,0.126-0.544,0.126-0.544c1.166-5.234-1.372-9.38-7.522-9.586 c-0.012,0-0.02,0.002-0.034,0.002C17.36,18.634,17.546,20.6,18.104,22.872z" fill="#231F20" fill-opacity="0.15" stroke-opacity="0.15"/>
<path d="M37.227,19.316c-1.528,0.234-3.947,1.634-2.238,7.758 c-0.066,0.012-0.129,0.022-0.192,0.046c-0.683,0.29-0.896,1.404-0.478,2.496c0.418,1.09,1.306,1.741,1.99,1.456 c0.041-0.018,0.078-0.047,0.115-0.072c0.33,0.742,0.729,1.532,1.198,2.326c0.524-0.883,1.022-1.794,1.472-2.738 c1.293-0.154,2.557-1.278,3.211-2.888c0.743-1.838,0.506-3.746-0.545-4.74c0.471-2.124,0.545-4.146,0.234-5.986 c-0.03-0.002-0.057-0.006-0.086-0.006C39.378,16.966,38.164,18.116,37.227,19.316z M34.996,27.072 c0.014-0.012,0.029-0.026,0.042-0.038c0,0.01,0.004,0.016,0.006,0.026C35.029,27.062,35.012,27.07,34.996,27.072z M38.52,22.662 L38.52,22.662c-0.018-0.004-0.041-0.014-0.058-0.016C38.479,22.648,38.502,22.658,38.52,22.662z" fill="#231F20" fill-opacity="0.15" stroke-opacity="0.15"/>
<path d="M46.37,41.386c-0.979-0.51-4.112-1.672-6.628-2.608 l-1.436-0.533l-0.248-0.1l-0.343-0.131l-0.968-0.39c-0.032-0.042-0.055-0.101-0.082-0.146c-1.7,0.655-4.62,1.726-5.494,2.193 c-0.357,0.189-0.772,0.442-1.192,0.773c-0.442-0.363-0.852-0.619-1.146-0.773c-0.79-0.41-3.808-1.506-5.492-2.136L23.256,37.5 l-1.192,0.521c-0.64,0.25-1.438,0.553-2.288,0.877c-2.404,0.914-5.13,1.951-6.148,2.49c-2.142,1.135-3.714,2.726-4.676,4.697h18.464 h5.166h18.38C49.464,43.156,47.027,41.729,46.37,41.386z" fill="#231F20" fill-opacity="0.3" stroke-opacity="0.3"/>
<path d="M17.958,27.42c0.596,1.56,1.788,2.608,2.962,2.608 c0.124,0,0.244-0.01,0.362-0.034c0.404,0.865,0.838,1.71,1.302,2.523h-0.018l0.136,0.225c0.31-0.566,0.6-1.126,0.838-1.658 c0.668,0.23,1.522-0.389,1.946-1.438c0.44-1.084,0.25-2.212-0.424-2.518c-0.038-0.016-0.08-0.018-0.118-0.03 c0-0.002,0-0.002,0-0.002c-0.008-0.002-0.014-0.004-0.024-0.004c-0.056-0.016-0.114-0.028-0.174-0.032 c-0.014-0.004-0.024-0.006-0.038-0.01c-0.03-0.006-0.064-0.014-0.1-0.022c0.114,0.022,0.218,0.046,0.334,0.066 c0.086-0.344,0.126-0.544,0.126-0.544c1.128-5.07-1.226-9.112-6.966-9.544c-0.16,1.694,0.052,3.728,0.672,6.114 C17.626,23.778,17.264,25.606,17.958,27.42z" fill="#231F20" fill-opacity="0.3" stroke-opacity="0.3"/>
<path d="M37.227,19.316c-1.528,0.234-3.947,1.634-2.238,7.758 c-0.066,0.012-0.129,0.022-0.192,0.046c-0.683,0.29-0.896,1.404-0.478,2.496c0.418,1.09,1.306,1.741,1.99,1.456 c0.041-0.018,0.078-0.047,0.115-0.072c0.248,0.557,0.536,1.139,0.858,1.729c0.51-0.879,0.993-1.783,1.43-2.714 c0.026,0.002,0.05,0.002,0.078,0.002c1.16,0,2.353-1.022,2.966-2.54c0.717-1.768,0.42-3.57-0.65-4.288 c0.049-0.212,0.072-0.332,0.072-0.332c0.467-2.086,0.534-4.07,0.221-5.862C39.221,17.144,38.098,18.202,37.227,19.316z M34.996,27.072c0.014-0.012,0.029-0.026,0.042-0.038c0,0.01,0.004,0.016,0.006,0.026C35.029,27.062,35.012,27.07,34.996,27.072z M38.52,22.662L38.52,22.662c-0.018-0.004-0.041-0.014-0.058-0.016C38.479,22.648,38.502,22.658,38.52,22.662z" fill="#231F20" fill-opacity="0.3" stroke-opacity="0.3"/>
<radialGradient cx="30.3" cy="45.73" gradientUnits="userSpaceOnUse" id="SVGID_19" r="16.23">
<stop offset="0" stop-color="#FFA98E"/>
<stop offset="0.2" stop-color="#FFA98E"/>
<stop offset="0.96" stop-color="#D45D36"/>
<stop offset="1" stop-color="#D45D36"/>
</radialGradient>
<path d="M36.918,38.521c-1.527-0.664-1.477-3.914-0.848-4.897c0.109-0.17,0.207-0.342,0.313-0.515 h-12.77c0.106,0.173,0.206,0.345,0.314,0.515c0.63,0.983,0.68,4.233-0.848,4.897c-1.528,0.662,7.098,6.438,7.098,6.438 S38.445,39.184,36.918,38.521z" fill="url(#SVGID_19)"/>
<linearGradient gradientUnits="userSpaceOnUse" id="SVGID_20" x1="30" x2="30" y1="37.92" y2="51.29">
<stop offset="0" stop-color="#FF7236"/>
<stop offset="1" stop-color="#BA1212"/>
</linearGradient>
<path d="M46.098,41.91c-1.605-0.836-9.563-3.622-9.714-3.794l-6.08,5.05l-6.532-5.246 c-0.18,0.268-8.046,3.023-9.868,3.99c-2.084,1.105-5.486,3.646-5.486,9.376H51.58C51.58,45.557,47.7,42.746,46.098,41.91z" fill="url(#SVGID_20)"/>
<linearGradient gradientUnits="userSpaceOnUse" id="SVGID_21" x1="30.06" x2="30.06" y1="37.04" y2="44.86">
<stop offset="0" stop-color="#BC1C24"/>
<stop offset="1" stop-color="#6B1C24"/>
</linearGradient>
<polygon fill="url(#SVGID_21)" points="22.284,38.568 30.302,44.958 37.836,38.7 36.382,38.116 30.302,43.166 23.772,37.92 "/>
<path d="M22.66,39.58c0,0-11.44,2.986-11.44,11.004c0,0-1.634,0-1.646,0 C9.574,45.654,13.418,41.82,22.66,39.58z" fill="#FF7B56"/>
<path d="M37.189,39.395c0,0,11.44,2.987,11.44,11.004c0,0,1.636,0,1.647,0 C50.277,45.468,46.432,41.636,37.189,39.395z" fill="#FF7B56"/>
<linearGradient gradientUnits="userSpaceOnUse" id="SVGID_22" x1="30.06" x2="30.06" y1="45.53" y2="38.15">
<stop offset="0" stop-color="#FFA98E"/>
<stop offset="0.96" stop-color="#D45D36"/>
<stop offset="1" stop-color="#D45D36"/>
</linearGradient>
<polygon fill="url(#SVGID_22)" points="30.302,44.958 22.282,38.568 21.816,38.773 30.302,45.534 38.302,38.88 37.838,38.693 "/>
<radialGradient cx="31.09" cy="15.82" gradientUnits="userSpaceOnUse" id="SVGID_23" r="21.78">
<stop offset="0" stop-color="#FFE2D9"/>
<stop offset="0.51" stop-color="#FFC6B3"/>
<stop offset="0.76" stop-color="#FFA98E"/>
<stop offset="1" stop-color="#E88160"/>
</radialGradient>
<path d="M40.588,23.574c-0.054-0.026-0.115-0.03-0.172-0.044c0-0.002,0-0.004,0-0.004 c-0.01-0.002-0.02-0.004-0.032-0.006c-0.084-0.022-0.17-0.042-0.256-0.044c-10.66-1.856-15.55-7.76-15.918-6.198 c-0.294,1.244-3.282,3.936-4.848,5.278c0.014,0.06,0.02,0.114,0.036,0.174c0,0,0.054,0.276,0.172,0.744 c-0.124,0.014-0.246,0.04-0.364,0.09c-0.996,0.42-1.308,2.052-0.698,3.646c0.61,1.596,1.912,2.548,2.908,2.13 c0.06-0.028,0.114-0.07,0.17-0.108c0.578,1.3,1.29,2.696,2.158,4.094c1.458,1.732,3.692,3.766,6.158,3.766 c2.982,0,4.808-1.632,6.064-3.279c0.032-0.068,0.062-0.133,0.103-0.19c0.93-1.454,1.684-2.91,2.291-4.268 c0.975,0.336,2.227-0.568,2.847-2.102C41.852,25.668,41.574,24.02,40.588,23.574z" fill="url(#SVGID_23)"/>
<linearGradient gradientUnits="userSpaceOnUse" id="SVGID_24" x1="26.15" x2="35.36" y1="38.09" y2="28.95">
<stop offset="0" stop-color="#FFC6B3"/>
<stop offset="1" stop-color="#FFA98E"/>
</linearGradient>
<path d="M29.464,36.256c-1.816,0-3.644-0.846-4.992-2.12c1.426,1.498,3.344,2.956,5.432,2.956 c2.983,0,4.808-1.632,6.064-3.279c0.032-0.068,0.062-0.133,0.103-0.19c0.93-1.454,1.684-2.91,2.291-4.268 C34.968,35.286,32.45,36.256,29.464,36.256z" fill="url(#SVGID_24)"/>
<linearGradient gradientUnits="userSpaceOnUse" id="SVGID_25" x1="29.82" x2="29.82" y1="8.92" y2="22.47">
<stop offset="0" stop-color="#8A5D3B"/>
<stop offset="0.38" stop-color="#632F00"/>
<stop offset="1" stop-color="#361700"/>
</linearGradient>
<path d="M29.604,8.714c-3.694,0-5.472,1.68-6.846,3.436c-2.228,0.344-5.766,2.39-3.27,11.35 c1.566-1.34,4.428-4.978,4.722-6.222c0.372-1.576,5.344,4.452,16.206,6.248c0.126-0.502,0.186-0.796,0.186-0.796 C42.307,15.078,38.598,9.014,29.604,8.714z" fill="url(#SVGID_25)"/>
<linearGradient gradientUnits="userSpaceOnUse" id="SVGID_26" x1="34.45" x2="22.17" y1="21.89" y2="14.59">
<stop offset="0" stop-color="#8A5D3B"/>
<stop offset="0.36" stop-color="#632F00"/>
<stop offset="1" stop-color="#361700"/>
</linearGradient>
<path d="M24.222,16.544c0,0,5.316,6.984,16.118,6.97C40.34,23.516,35.254,22.716,24.222,16.544z" fill="url(#SVGID_26)"/>
<linearGradient gradientUnits="userSpaceOnUse" id="SVGID_27" x1="21.06" x2="21.17" y1="13.17" y2="20.98">
<stop offset="0" stop-color="#8A5D3B"/>
<stop offset="0.38" stop-color="#632F00"/>
<stop offset="1" stop-color="#361700"/>
</linearGradient>
<path d="M22.946,12.67c0,0-5.206,0.31-3.274,9.132C19.672,21.802,19.036,15.762,22.946,12.67z" fill="url(#SVGID_27)"/>
<linearGradient gradientUnits="userSpaceOnUse" id="SVGID_28" x1="31.54" x2="31.16" y1="10.08" y2="13.61">
<stop offset="0" stop-color="#A87C4F"/>
<stop offset="1" stop-color="#632F00"/>
</linearGradient>
<path d="M32.128,13.892c-2.424-0.346-6.524-2.494-8.13-1.726c0,0,5.26-6,14.542,0.83 C38.54,12.996,36.328,14.49,32.128,13.892z" fill="url(#SVGID_28)"/>
<rect fill="none" height="60" width="60"/>
</g>
</svg>
