<?xml version="1.0" encoding="UTF-8"?>
<!DOCTYPE svg PUBLIC "-//W3C//DTD SVG 1.1 Tiny//EN" "http://www.w3.org/Graphics/SVG/1.1/DTD/svg11-tiny.dtd">
<svg baseProfile="tiny" height="60" viewBox="0 0 60 60" width="60" xmlns="http://www.w3.org/2000/svg" xmlns:xlink="http://www.w3.org/1999/xlink">
<g>
<linearGradient gradientTransform="matrix(0.6122 0 0 -0.6122 -280.8977 -334.1658)" gradientUnits="userSpaceOnUse" id="SVGID_1_" x1="507.833" x2="507.833" y1="-558.3442" y2="-629.5866">
<stop offset="0" style="stop-color:#989C9E"/>
<stop offset="0.8182" style="stop-color:#44454A"/>
<stop offset="1" style="stop-color:#5D5F63"/>
</linearGradient>
<path d="M48.977,49.895c0,0.676-0.549,1.225-1.225,1.225H12.244c-0.676,0-1.225-0.549-1.225-1.225  V8.877c0-0.677,0.549-1.225,1.225-1.225h35.508c0.676,0,1.225,0.548,1.225,1.225V49.895z" style="fill:url(#SVGID_1_);"/>
<linearGradient gradientTransform="matrix(0.6122 0 0 -0.6122 -280.8977 -334.1658)" gradientUnits="userSpaceOnUse" id="SVGID_2_" x1="507.833" x2="507.833" y1="-558.3442" y2="-629.5866">
<stop offset="0" style="stop-color:#D8DDE0"/>
<stop offset="0.8182" style="stop-color:#5F6169"/>
<stop offset="1" style="stop-color:#7D7F85"/>
</linearGradient>
<path d="M47.752,7.652H12.244c-0.676,0-1.225,0.548-1.225,1.225v41.018  c0,0.676,0.549,1.225,1.225,1.225h35.508c0.676,0,1.225-0.549,1.225-1.225V8.877C48.977,8.2,48.428,7.652,47.752,7.652z   M48.363,49.895c0,0.337-0.273,0.611-0.611,0.611H12.244c-0.338,0-0.612-0.274-0.612-0.611V8.877c0-0.338,0.274-0.612,0.612-0.612  h35.508c0.338,0,0.611,0.274,0.611,0.612V49.895z" style="fill:url(#SVGID_2_);"/>
<path d="M45.915,26.631c0,0.676-0.548,1.224-1.225,1.224H15.305c-0.676,0-1.225-0.548-1.225-1.224  V11.938c0-0.677,0.548-1.225,1.225-1.225H44.69c0.677,0,1.225,0.548,1.225,1.225V26.631z" style="fill:url(#SVGID_3_);"/>
<path d="M15.305,28.467c-1.013,0-1.837-0.824-1.837-1.836V11.938  c0-1.013,0.824-1.837,1.837-1.837H44.69c1.013,0,1.837,0.824,1.837,1.837v14.693c0,1.012-0.824,1.836-1.837,1.836H15.305z" style="opacity:0.2;fill:#020202;enable-background:new    ;"/>
<path d="M45.915,26.631c0,0.676-0.548,1.224-1.225,1.224H15.305c-0.676,0-1.225-0.548-1.225-1.224  V11.938c0-0.677,0.548-1.225,1.225-1.225H44.69c0.677,0,1.225,0.548,1.225,1.225V26.631z" style="fill:url(#SVGID_3_);"/>
<linearGradient gradientTransform="matrix(0.6122 0 0 -0.6122 -280.8977 -334.1658)" gradientUnits="userSpaceOnUse" id="SVGID_5_" x1="507.832" x2="507.832" y1="-573.3447" y2="-583.3787">
<stop offset="0" style="stop-color:#5B5B5B"/>
<stop offset="1" style="stop-color:#B0B0B0"/>
</linearGradient>
<rect height="6.122" style="fill:url(#SVGID_5_);" width="9.795" x="25.1" y="16.835"/>
<linearGradient gradientTransform="matrix(0.6122 0 0 -0.6122 -280.8977 -334.1658)" gradientUnits="userSpaceOnUse" id="SVGID_6_" x1="507.833" x2="507.833" y1="-574.3447" y2="-582.3724">
<stop offset="0" style="stop-color:#E8E8E8"/>
<stop offset="1" style="stop-color:#828282"/>
</linearGradient>
<rect height="4.897" style="fill:url(#SVGID_6_);" width="8.571" x="25.712" y="17.448"/>
<path d="M44.69,10.713H15.305c-0.676,0-1.225,0.548-1.225,1.225  v14.693c0,0.676,0.548,1.224,1.225,1.224H44.69c0.677,0,1.225-0.548,1.225-1.224V11.938C45.915,11.261,45.367,10.713,44.69,10.713z   M45.303,26.631c0,0.337-0.274,0.612-0.612,0.612H15.305c-0.338,0-0.612-0.275-0.612-0.612V11.938c0-0.338,0.274-0.612,0.612-0.612  H44.69c0.338,0,0.612,0.274,0.612,0.612V26.631z" style="opacity:0.5;fill:#FFFFFF;enable-background:new    ;"/>
<polygon points="25.1,22.958 34.896,22.958 34.283,22.345   25.1,22.345 " style="opacity:0.6;fill:#FFFFFF;enable-background:new    ;"/>
<path d="M14.081,34.59V22.418c0-1.415,1.084-2.521,2.469-2.521h11.215  c1.953,0,2.358,1.681,2.491,2.233l-0.02,0.005c0.107,0.27,0.239,0.695,0.441,1.361c0.02,0.002,0.039,0.004,0.061,0.004l12.64-0.001  c1.399,0,2.538,1.13,2.538,2.521v8.571H14.081z" style="opacity:0.2;fill:#020202;enable-background:new    ;"/>
<path d="M14.693,33.977V22.418c0-1.071,0.815-1.909,1.857-1.909  h11.215c1.47,0,1.758,1.19,1.896,1.765c0,0,0.329,1.065,0.51,1.659c0.081,0.116,0.345,0.179,0.567,0.179l12.64-0.001  c1.062,0,1.925,0.856,1.925,1.908v7.958H14.693z" style="opacity:0.3;fill:#020202;enable-background:new    ;"/>
<linearGradient gradientTransform="matrix(0.6122 0 0 -0.6122 -280.8977 -334.1658)" gradientUnits="userSpaceOnUse" id="SVGID_7_" x1="507.832" x2="507.832" y1="-572.3018" y2="-599.3463">
<stop offset="0" style="stop-color:#C79101"/>
<stop offset="0.0303" style="stop-color:#C79101"/>
<stop offset="0.0364" style="stop-color:#FEEFA7"/>
<stop offset="0.3273" style="stop-color:#FEE570"/>
<stop offset="0.6727" style="stop-color:#F0C12B"/>
<stop offset="1" style="stop-color:#E6A501"/>
</linearGradient>
<path d="M43.377,24.11h-12.58c0,0-0.914,0.055-1.194-0.557c-0.178-0.587-0.536-1.747-0.536-1.747  c-0.178-0.74-0.408-1.297-1.301-1.297H16.55c-0.708,0-1.245,0.581-1.245,1.297v10.947H44.69v-7.347  C44.69,24.691,44.086,24.11,43.377,24.11z" style="fill:url(#SVGID_7_);"/>
<path d="M43.377,24.11h-12.58c0,0-0.914,0.055-1.194-0.557  c-0.178-0.587-0.536-1.747-0.536-1.747c-0.178-0.74-0.408-1.297-1.301-1.297H16.55c-0.708,0-1.245,0.581-1.245,1.297v0.612  c0-0.716,0.537-1.297,1.245-1.297h11.215c0.893,0,1.123,0.557,1.301,1.297c0,0,0.357,1.16,0.536,1.748  c0.281,0.612,1.194,0.557,1.194,0.557h12.581c0.708,0,1.313,0.581,1.313,1.296v-0.612C44.69,24.691,44.086,24.11,43.377,24.11z" style="opacity:0.8;fill:#FCF3D0;enable-background:new    ;"/>
<path d="M46.527,47.445c0,0.676-0.549,1.225-1.225,1.225h-30.61c-0.676,0-1.225-0.549-1.225-1.225  V32.141c0-0.677,0.549-1.225,1.225-1.225h30.61c0.676,0,1.225,0.548,1.225,1.225V47.445z" style="fill:url(#SVGID_8_);"/>
<path d="M14.693,50.506c-1.351,0-2.449-1.098-2.449-2.448V32.753  c0-1.352,1.098-2.449,2.449-2.449h30.61c1.351,0,2.449,1.098,2.449,2.449v15.305c0,1.351-1.099,2.448-2.449,2.448H14.693z" style="opacity:0.2;fill:#020202;enable-background:new    ;"/>
<path d="M14.693,49.895c-1.013,0-1.836-0.824-1.836-1.837V32.753  c0-1.013,0.824-1.837,1.836-1.837h30.61c1.013,0,1.837,0.824,1.837,1.837v15.305c0,1.013-0.824,1.837-1.837,1.837H14.693z" style="opacity:0.3;fill:#020202;enable-background:new    ;"/>
<path d="M46.527,47.445c0,0.676-0.549,1.225-1.225,1.225h-30.61c-0.676,0-1.225-0.549-1.225-1.225  V32.141c0-0.677,0.549-1.225,1.225-1.225h30.61c0.676,0,1.225,0.548,1.225,1.225V47.445z" style="fill:url(#SVGID_8_);"/>
<linearGradient gradientTransform="matrix(0.6122 0 0 -0.6122 -280.8977 -334.1658)" gradientUnits="userSpaceOnUse" id="SVGID_10_" x1="507.832" x2="507.832" y1="-607.3447" y2="-618.3831">
<stop offset="0" style="stop-color:#5B5B5B"/>
<stop offset="1" style="stop-color:#B0B0B0"/>
</linearGradient>
<rect height="6.734" style="fill:url(#SVGID_10_);" width="11.02" x="24.488" y="37.65"/>
<linearGradient gradientTransform="matrix(0.6122 0 0 -0.6122 -280.8977 -334.1658)" gradientUnits="userSpaceOnUse" id="SVGID_11_" x1="507.832" x2="507.832" y1="-608.3447" y2="-617.3753">
<stop offset="0" style="stop-color:#E8E8E8"/>
<stop offset="1" style="stop-color:#828282"/>
</linearGradient>
<rect height="5.51" style="fill:url(#SVGID_11_);" width="9.795" x="25.1" y="38.263"/>
<path d="M45.303,30.916h-30.61c-0.676,0-1.225,0.548-1.225,1.225  v15.305c0,0.676,0.549,1.225,1.225,1.225h30.61c0.676,0,1.225-0.549,1.225-1.225V32.141C46.527,31.464,45.979,30.916,45.303,30.916z   M45.915,47.445c0,0.338-0.274,0.612-0.612,0.612h-30.61c-0.338,0-0.612-0.274-0.612-0.612V32.141c0-0.339,0.274-0.612,0.612-0.612  h30.61c0.338,0,0.612,0.273,0.612,0.612V47.445z" style="opacity:0.5;fill:#FFFFFF;enable-background:new    ;"/>
<polygon points="22.605,30.916 24.074,35.201 35.922,35.201 37.391,30.916 " style="fill:#FFFFFF;"/>
<linearGradient gradientTransform="matrix(0.6122 0 0 -0.6122 -280.8977 -334.1658)" gradientUnits="userSpaceOnUse" id="SVGID_12_" x1="507.833" x2="507.833" y1="-596.3447" y2="-602.3656">
<stop offset="0" style="stop-color:#989C9E"/>
<stop offset="0.8182" style="stop-color:#44454A"/>
<stop offset="1" style="stop-color:#5D5F63"/>
</linearGradient>
<polygon points="35.508,34.59 24.488,34.59 23.264,30.916 36.732,30.916 " style="fill:url(#SVGID_12_);"/>
<polygon points="23.217,10.713 24.686,14.387 35.311,14.387 36.778,10.713 " style="fill:#FFFFFF;"/>
<linearGradient gradientTransform="matrix(0.6122 0 0 -0.6122 -280.8977 -334.1658)" gradientUnits="userSpaceOnUse" id="SVGID_13_" x1="507.832" x2="507.832" y1="-563.3442" y2="-568.3618">
<stop offset="0" style="stop-color:#989C9E"/>
<stop offset="0.8182" style="stop-color:#44454A"/>
<stop offset="1" style="stop-color:#5D5F63"/>
</linearGradient>
<polygon points="34.896,13.774 25.1,13.774 23.876,10.713 36.119,10.713 " style="fill:url(#SVGID_13_);"/>
<rect height="1.224" style="opacity:0.2;fill:#020202;enable-background:new    ;" width="29.385" x="15.305" y="29.692"/>
<rect height="0.612" style="opacity:0.1;fill:#020202;enable-background:new    ;" width="29.385" x="15.305" y="29.08"/>
<rect height="0.612" style="opacity:0.05;fill:#020202;enable-background:new    ;" width="29.385" x="15.305" y="28.467"/>
<polygon points="35.508,44.385 24.488,44.385 25.1,43.772   34.896,43.772 " style="opacity:0.8;fill:#FFFFFF;enable-background:new    ;"/>
<rect height="59.996" style="fill:none;" width="59.996"/>
<defs>
<linearGradient gradientTransform="matrix(0.6122 0 0 -0.6122 -280.8977 -334.1658)" gradientUnits="userSpaceOnUse" id="SVGID_3_" x1="507.833" x2="507.833" y1="-563.3442" y2="-591.4395">
<stop offset="0" style="stop-color:#FFFFFF"/>
<stop offset="0.7879" style="stop-color:#A6A6A6"/>
<stop offset="1" style="stop-color:#B1B1B1"/>
</linearGradient>
</defs>
<defs>
<linearGradient gradientTransform="matrix(0.6122 0 0 -0.6122 -280.8977 -334.1658)" gradientUnits="userSpaceOnUse" id="SVGID_8_" x1="507.832" x2="507.832" y1="-596.3447" y2="-625.4428">
<stop offset="0" style="stop-color:#FFFFFF"/>
<stop offset="0.7879" style="stop-color:#A6A6A6"/>
<stop offset="1" style="stop-color:#B1B1B1"/>
</linearGradient>
</defs>
</g>
</svg>
