<?xml version="1.0" encoding="UTF-8"?>
<!DOCTYPE svg PUBLIC "-//W3C//DTD SVG 1.1 Tiny//EN" "http://www.w3.org/Graphics/SVG/1.1/DTD/svg11-tiny.dtd">
<svg baseProfile="tiny" height="31px" version="1.1" viewBox="-0.144 -0.016 31 31" width="31px" x="0px" xmlns="http://www.w3.org/2000/svg" xmlns:xlink="http://www.w3.org/1999/xlink" y="0px">
<rect fill="none" height="30" width="30"/>
<polygon points="5.278,7.207 7.277,7.207 7.396,11.043 9.236,7.207 10.834,7.207 10.834,11.043 12.551,7.207 14.671,7.207   11.473,13.201 9.597,13.201 9.556,9.473 7.878,13.201 5.96,13.201 "/>
<path d="M17.796,6.38c0-0.637-0.696-1.15-1.557-1.15s-1.559,0.514-1.559,1.15c0,0.341,0.201,0.646,0.52,0.856v5.965h2.076V7.236  C17.596,7.025,17.796,6.721,17.796,6.38z"/>
<path d="M12.213,6.988c0,0,1.099-2.259,4.036-2.259c2.935,0,4.017,2.218,4.017,2.218s-0.54-2.878-4.076-2.878  C12.65,4.069,12.213,6.988,12.213,6.988z"/>
<path d="M11.014,6.348c0,0,1.279-3.077,5.235-3.077c3.954,0,4.974,3.036,4.974,3.036s-0.919-3.835-5.033-3.835  C12.073,2.472,11.014,6.348,11.014,6.348z"/>
<polygon points="20.52,11.584 18.451,12.871 20.324,15.875 5.278,15.878 5.278,18.313 24.721,18.31 "/>
<polygon points="9.479,27.529 11.543,26.238 9.679,23.234 12.725,23.234 15.408,27.529 17.473,26.238 15.604,23.234 24.721,23.234   24.721,20.8 5.278,20.8 "/>
<rect fill="none" height="30" width="30"/>
</svg>
