<?xml version="1.0" encoding="UTF-8"?>
<!DOCTYPE svg PUBLIC "-//W3C//DTD SVG 1.1 Tiny//EN" "http://www.w3.org/Graphics/SVG/1.1/DTD/svg11-tiny.dtd">
<svg baseProfile="tiny" height="30px" style="enable-background:new 0 0 30 30;" version="1.1" viewBox="0 0 30 30" width="30px" x="0px" xmlns="http://www.w3.org/2000/svg" xmlns:xlink="http://www.w3.org/1999/xlink" y="0px">
<g fill-opacity="0.5" stroke-opacity="0.5">
<rect fill="none" height="30" width="30" x="0.001"/>
</g>
<path d="M0.999,3v24h28v-24h-28zm25,21h-22v-18h22v18z"/>
<path d="M10.74,17.9v0.781h-4.31v-0.781h1.533v-5.448l-1.529,0.35v-0.781l2.152-0.679h0.709v6.559h1.449v-0.004z"/>
<path d="M16.18,17.83v0.851h-4.354v-0.533c0-0.508,0.088-0.959,0.264-1.353s0.393-0.729,0.65-1.008c0.256-0.279,0.582-0.584,0.977-0.916,0.471-0.397,0.77-0.705,0.893-0.923,0.125-0.218,0.186-0.435,0.186-0.649,0-0.378-0.1-0.662-0.301-0.852-0.199-0.191-0.5-0.286-0.9-0.286-0.422,0-0.936,0.109-1.537,0.327h-0.01v-0.869c0.631-0.198,1.246-0.298,1.846-0.298,0.738,0,1.301,0.162,1.684,0.485,0.385,0.324,0.576,0.802,0.576,1.434,0,0.354-0.087,0.704-0.259,1.047-0.174,0.344-0.58,0.784-1.22,1.321-0.359,0.303-0.639,0.555-0.84,0.757-0.203,0.202-0.373,0.424-0.512,0.665-0.137,0.244-0.213,0.51-0.227,0.8h3.084z"/>
<path d="M23.57,11.4v7.28h-1.328v-5.04l-1.371,2.617h-0.563l-1.378-2.617v5.04h-1.331v-7.281h1.122l1.869,3.56,1.871-3.56h1.11z"/>
</svg>
