<?xml version="1.0" encoding="UTF-8"?>
<!DOCTYPE svg PUBLIC "-//W3C//DTD SVG 1.1 Tiny//EN" "http://www.w3.org/Graphics/SVG/1.1/DTD/svg11-tiny.dtd">
<svg baseProfile="tiny" height="15px" version="1.1" viewBox="2.5 2.5 15 15" width="15px" x="0px" xmlns="http://www.w3.org/2000/svg" xmlns:xlink="http://www.w3.org/1999/xlink" y="0px">
<g>
<path d="M3.998,11.499c0,3.31,2.693,6.001,6.002,6.001   c3.307,0,6-2.691,6-6.001V2.5H3.998V11.499z" fill-opacity="0.1" fill-rule="evenodd" stroke-opacity="0.1"/>
<path d="M4.75,11.499c0,2.9,2.35,5.25,5.25,5.25   s5.248-2.35,5.248-5.25V2.5H4.75V11.499z" fill="url(#SVGID_1_)" fill-rule="evenodd"/>
<path d="M14.5,11.499c0,2.481-2.02,4.502-4.5,4.502c-2.482,0-4.502-2.021-4.502-4.502V2.5H4.75v8.999   c0,2.9,2.35,5.25,5.25,5.25s5.248-2.35,5.248-5.25V2.5H14.5V11.499z" fill-opacity="0.2" stroke-opacity="0.2"/>
<rect fill="none" fill-rule="evenodd" height="15" width="15" x="2.5" y="2.5"/>
<path d="M13.75,11.499c0,2.068-1.682,3.75-3.75,3.75   s-3.75-1.682-3.75-3.75V2.5H5.498v8.999c0,2.481,2.02,4.502,4.502,4.502c2.48,0,4.5-2.021,4.5-4.502V2.5h-0.75V11.499z" fill="#FFFFFF" fill-opacity="0.2" fill-rule="evenodd" stroke-opacity="0.2"/>
<rect fill="#FFFFFF" fill-opacity="0.2" fill-rule="evenodd" height="0.748" stroke-opacity="0.2" width="4.502" x="7.748" y="8.501"/>
<rect fill-opacity="0.1" fill-rule="evenodd" height="0.752" stroke-opacity="0.1" width="4.502" x="7.748" y="7.749"/>
<defs>
<linearGradient gradientUnits="userSpaceOnUse" id="SVGID_1_" x1="4.7498" x2="15.2478" y1="9.6245" y2="9.6245">
<stop offset="0" style="stop-color:#306D8C"/>
<stop offset="1" style="stop-color:#65B8CC"/>
</linearGradient>
</defs>
</g>
</svg>
