<?xml version="1.0" encoding="UTF-8"?>
<!DOCTYPE svg PUBLIC "-//W3C//DTD SVG 1.1 Tiny//EN" "http://www.w3.org/Graphics/SVG/1.1/DTD/svg11-tiny.dtd">
<svg baseProfile="tiny" height="55px" version="1.1" viewBox="0 0 55 55" width="55px" x="0px" xmlns="http://www.w3.org/2000/svg" xmlns:xlink="http://www.w3.org/1999/xlink" y="0px">
<rect fill="none" height="55" width="55"/>
<path d="M1.181,54.903c-0.264,0.034-0.493,0.058-0.676,0.071C0.733,54.96,0.958,54.937,1.181,54.903z" fill="#DCDCDC"/>
<path d="M0.505,54.975C0.337,54.984,0.17,55,0,55C0,55,0.195,54.997,0.505,54.975z" fill="#DCDCDC"/>
<g>
<path d="M16,0c-4.4,0-8,3.6-8,8v39c0,4.418-3.582,8-8,8h55V0H16z" fill="url(#SVGID_1_)"/>
<defs>
<linearGradient gradientUnits="userSpaceOnUse" id="SVGID_1_" x1="27.5" x2="27.5" y1="55" y2="4.882813e-004">
<stop offset="0" style="stop-color:#FAFAFA"/>
<stop offset="0.8" style="stop-color:#FAFAFA"/>
<stop offset="1" style="stop-color:#EBEBF5"/>
</linearGradient>
</defs>
</g>
<path d="M16,0c-4.4,0-8,3.6-8,8v39c0,4.016-2.962,7.331-6.819,7.903C3.616,54.588,9,53.195,9,47V8  c0-3.859,3.14-7,7-7h39V0H16z" fill="#DCDCDC"/>
<rect fill="none" height="55" width="55"/>
</svg>
