<?xml version="1.0" encoding="UTF-8"?>
<!DOCTYPE svg PUBLIC "-//W3C//DTD SVG 1.1 Tiny//EN" "http://www.w3.org/Graphics/SVG/1.1/DTD/svg11-tiny.dtd">
<svg baseProfile="tiny" height="15px" version="1.1" viewBox="0 0 126 15" width="126px" x="0px" xmlns="http://www.w3.org/2000/svg" xmlns:xlink="http://www.w3.org/1999/xlink" y="0px">
<path d="M0,0v9c0,3.3,2.7,6,6,6h114c3.3,0,6-2.7,6-6V0H0z" fill="url(#SVGID_1_)"/>
<rect fill="#14141E" fill-opacity="0.3" height="1" stroke-opacity="0.3" width="28" x="49" y="4"/>
<rect fill="#FFFFFF" fill-opacity="0.5" height="1" stroke-opacity="0.5" width="28" x="49" y="5"/>
<rect fill="#14141E" fill-opacity="0.3" height="1" stroke-opacity="0.3" width="28" x="49" y="8"/>
<rect fill="#FFFFFF" fill-opacity="0.5" height="1" stroke-opacity="0.5" width="28" x="49" y="9"/>
<path d="M0,0v9c0,3.3,2.7,6,6,6h114c3.3,0,6-2.7,6-6V0H0z M125,9c0,2.757-2.243,5-5,5H6  c-2.757,0-5-2.243-5-5V1h124V9z" fill="#14141E" fill-opacity="0.3" stroke-opacity="0.3"/>
<defs>
<linearGradient gradientUnits="userSpaceOnUse" id="SVGID_1_" x1="63.0005" x2="63.0005" y1="15" y2="0.5005">
<stop offset="0" style="stop-color:#F0F0F0"/>
<stop offset="1" style="stop-color:#AAAAAA"/>
</linearGradient>
</defs>
</svg>
