<?xml version="1.0" encoding="utf-8"?>
<!-- Generator: Adobe Illustrator 14.0.0, SVG Export Plug-In  -->
<!DOCTYPE svg PUBLIC "-//W3C//DTD SVG 1.1//EN" "http://www.w3.org/Graphics/SVG/1.1/DTD/svg11.dtd" [
	<!ENTITY ns_flows "http://ns.adobe.com/Flows/1.0/">
]>
<svg version="1.1"
	 xmlns="http://www.w3.org/2000/svg" xmlns:xlink="http://www.w3.org/1999/xlink" xmlns:a="http://ns.adobe.com/AdobeSVGViewerExtensions/3.0/"
	 x="0px" y="0px" width="30px" height="30px" viewBox="0 0 30 30" enable-background="new 0 0 30 30" xml:space="preserve">
<defs>
</defs>
<g opacity="0.5">
	<rect fill="none" width="30" height="30"/>
</g>
<path d="M15,2c-1.942,0-3.779,0.438-5.434,1.202l2.306,2.306C12.857,5.183,13.907,5,15,5c5.514,0,10,4.486,10,10s-4.486,10-10,10
	S5,20.514,5,15c0-1.093,0.183-2.143,0.508-3.127L3.201,9.566C2.438,11.221,2,13.058,2,15c0,7.18,5.82,13,13,13s13-5.82,13-13
	S22.18,2,15,2z"/>
<rect x="7.864" y="3.864" transform="matrix(0.707 -0.7072 0.7072 0.707 -4.2932 10.3659)" width="5" height="13"/>
</svg>
