<?xml version="1.0" encoding="UTF-8"?>
<!DOCTYPE svg PUBLIC "-//W3C//DTD SVG 1.1 Tiny//EN" "http://www.w3.org/Graphics/SVG/1.1/DTD/svg11-tiny.dtd">
<svg baseProfile="tiny" height="30px" version="1.1" viewBox="0 0 30 30" width="30px" x="0px" xmlns="http://www.w3.org/2000/svg" xmlns:xlink="http://www.w3.org/1999/xlink" y="0px">
<rect fill="none" height="29.03" width="29.03" x="0.54" y="0.202"/>
<rect fill="none" height="29.03" width="29.03" x="0.54" y="0.202"/>
<g>
<path d="M1.94,2.7C3.909,2.234,5.714,2,7.353,2c2.675,0,4.726,0.521,6.155,1.563c1.428,1.041,2.142,2.581,2.142,4.618   c0,0.773-0.125,1.481-0.375,2.126c-0.251,0.643-0.578,1.221-0.982,1.732c-0.404,0.512-1.107,1.257-2.109,2.236   c-0.979,0.921-1.63,1.636-1.955,2.142c-0.324,0.507-0.487,1.084-0.487,1.733v0.734h-5.36v-0.974c0-0.956,0.199-1.837,0.598-2.646   c0.397-0.809,1.2-1.77,2.407-2.886c0.945-0.877,1.584-1.582,1.921-2.117C9.643,9.728,9.811,9.13,9.811,8.471   c0-0.99-0.298-1.754-0.896-2.288C8.317,5.648,7.449,5.381,6.312,5.381c-1.184,0-2.641,0.222-4.371,0.665V2.7z M7.079,21.188   c0.99,0,1.81,0.32,2.458,0.958c0.648,0.637,0.973,1.449,0.973,2.439s-0.33,1.811-0.99,2.453C8.861,27.683,8.046,28,7.079,28   c-0.968,0-1.775-0.317-2.424-0.962c-0.649-0.643-0.973-1.463-0.973-2.453S4,22.782,4.638,22.146   C5.275,21.508,6.089,21.188,7.079,21.188z"/>
</g>
<path d="M21.678,21.6c-0.915-0.004-1.082-0.834-1.063-1.125l0.188-3.426l-2.901,1.879c-0.177,0.115-0.98,0.428-1.511-0.357  l-0.281-0.49c-0.438-0.789,0.177-1.356,0.434-1.49l3.071-1.574l-3.071-1.576c-0.257-0.135-0.872-0.69-0.434-1.492l0.279-0.485  c0.571-0.808,1.331-0.473,1.508-0.356l2.903,1.878l-0.192-3.452c-0.018-0.293,0.176-1.07,1.069-1.131h0.563  c0.929,0.059,1.087,0.838,1.07,1.131l-0.193,3.452l2.904-1.878c0.174-0.116,0.901-0.469,1.508,0.356l0.279,0.485  c0.405,0.799-0.172,1.357-0.435,1.492l-3.071,1.576l3.071,1.574c0.258,0.134,0.861,0.635,0.435,1.49l-0.279,0.49  c-0.537,0.807-1.332,0.473-1.511,0.357l-2.901-1.879l0.193,3.426c0.017,0.291-0.142,1.121-1.07,1.125H21.678z"/>
</svg>
