<?xml version="1.0" encoding="utf-8"?>
<!-- Generator: Adobe Illustrator 14.0.0, SVG Export Plug-In  -->
<!DOCTYPE svg PUBLIC "-//W3C//DTD SVG 1.1//EN" "http://www.w3.org/Graphics/SVG/1.1/DTD/svg11.dtd" [
	<!ENTITY ns_flows "http://ns.adobe.com/Flows/1.0/">
]>
<svg version="1.1"
	 xmlns="http://www.w3.org/2000/svg" xmlns:xlink="http://www.w3.org/1999/xlink" xmlns:a="http://ns.adobe.com/AdobeSVGViewerExtensions/3.0/"
	 x="0px" y="0px" width="30px" height="30px" viewBox="0 0 30 30" enable-background="new 0 0 30 30" xml:space="preserve">
<defs>
</defs>
<g opacity="0.5">
	<rect fill="none" width="30" height="30"/>
</g>
<polygon points="6,1 6,4 26,4 26,16 29,16 29,1 "/>
<polygon points="17,29 24,22 17,22 "/>
<polygon points="26,20 29,17 26,17 "/>
<polygon points="1,29 16,29 16,26 4,26 4,9 21,9 21,21 24,21 24,6 1,6 "/>
<rect x="7" y="17" width="2" height="2"/>
<rect x="10" y="17" width="8" height="2"/>
<rect x="7" y="12" width="2" height="2"/>
<rect x="10" y="12" width="8" height="2"/>
</svg>
