<?xml version="1.0" encoding="UTF-8" standalone="no"?>
<!DOCTYPE svg PUBLIC "-//W3C//DTD SVG 1.1 Tiny//EN" "http://www.w3.org/Graphics/SVG/1.1/DTD/svg11-tiny.dtd">
<svg xmlns="http://www.w3.org/2000/svg" xmlns:xlink="http://www.w3.org/1999/xlink" baseProfile="tiny" height="30px" version="1.1" viewBox="0 0 30 30" width="30px" x="0px" y="0px">
<g fill-opacity="0.5" stroke-opacity="0.5">
<rect fill="none" height="30" width="30"/>
</g>
<polygon points="5.999,1 5.999,4 26,4 26,24 29,24 29,1 "/>
<path d="M1,29h23V6H1V29z M4,9h17v17H4V9z"/>
<rect height="6" width="6" x="6" y="11"/>
<path d="M13,17h6v-6h-6V17z M15,13h2v2h-2V13z"/>
<path d="M6,24h6v-6H6V24z M8,20h2v2H8V20z"/>
<path d="M13,24h6v-6h-6V24z M15,20h2v2h-2V20z"/>
</svg>
