<?xml version="1.0" encoding="UTF-8"?>
<!DOCTYPE svg PUBLIC "-//W3C//DTD SVG 1.1 Tiny//EN" "http://www.w3.org/Graphics/SVG/1.1/DTD/svg11-tiny.dtd">
<svg baseProfile="tiny" height="30" viewBox="0 0 30 30" width="30" xmlns="http://www.w3.org/2000/svg" xmlns:xlink="http://www.w3.org/1999/xlink">
<rect fill="none" height="30" width="30"/>
<path d="M8,15c0-1.931,0.799-3.666,2.069-4.932l3.517,3.518l1.061-10.253L4.394,4.394l3.539,3.538C6.122,9.741,5,12.239,5,15 c0,5.021,3.705,9.166,8.528,9.88l0.309-2.984C10.53,21.338,8,18.462,8,15z"/>
<path d="M16.414,16.414l-1.061,10.253l10.253-1.061l-3.538-3.539C23.878,20.259,25,17.762,25,15c0-5.021-3.705-9.166-8.528-9.88 l-0.309,2.984C19.47,8.661,22,11.538,22,15c0,1.93-0.793,3.673-2.061,4.939L16.414,16.414z"/>
</svg>
