<?xml version="1.0" encoding="UTF-8"?>
<!DOCTYPE svg PUBLIC "-//W3C//DTD SVG 1.1 Tiny//EN" "http://www.w3.org/Graphics/SVG/1.1/DTD/svg11-tiny.dtd">
<svg baseProfile="tiny" height="30px" version="1.1" viewBox="0 0 30 30" width="30px" x="0px" xmlns="http://www.w3.org/2000/svg" xmlns:xlink="http://www.w3.org/1999/xlink" y="0px">
<rect fill="none" height="30" width="30"/>
<path d="M24.13,21l3.87-11h-8.639l3.179-9h-5.302l-3.275,9.273c2.109,0.408,4.498,1.305,6.408,2.727h1.268l-0.29,0.824c0.824,0.778,1.511,1.672,1.962,2.698l0.874,1.988-0.874,1.99c-0.965,2.193-2.979,3.809-5.204,4.881l3.39,3.62,7.5-8h-4.869z"/>
<path d="M21.48,17.33c-1.524-3.469-6.775-5.315-9.979-5.315-3.205,0-8.457,1.848-9.98,5.315l-0.52,1.17,0.52,1.184c1.523,3.471,6.777,5.318,9.982,5.318,3.203,0,8.453-1.848,9.978-5.316l0.52-1.18-0.52-1.18zm-17.14,1.18c0.793-1.807,4.152-3.297,6.66-3.479v0.031c-1.693,0.244-3,1.688-3,3.449s1.307,3.205,3,3.449v0.031c-2.51-0.18-5.867-1.67-6.66-3.48zm7.66,3.48v-0.031c1.694-0.244,3-1.688,3-3.449s-1.306-3.205-3-3.449v-0.031c2.507,0.182,5.866,1.672,6.66,3.479-0.8,1.81-4.15,3.3-6.66,3.48z"/>
</svg>
