<?xml version="1.0" encoding="UTF-8"?>
<!DOCTYPE svg PUBLIC "-//W3C//DTD SVG 1.1 Tiny//EN" "http://www.w3.org/Graphics/SVG/1.1/DTD/svg11-tiny.dtd">
<svg baseProfile="tiny" height="60" viewBox="0 0 60 60" width="60" xmlns="http://www.w3.org/2000/svg" xmlns:xlink="http://www.w3.org/1999/xlink">
<g>
<rect fill="none" height="60" width="60"/>
<linearGradient gradientUnits="userSpaceOnUse" id="SVGID_1" x1="30" x2="30" y1="11.79" y2="48.83">
<stop offset="0" stop-color="#DDE3E6"/>
<stop offset="0.24" stop-color="#C9CED1"/>
<stop offset="0.96" stop-color="#899396"/>
<stop offset="1" stop-color="#899396"/>
</linearGradient>
<path d="M51.796,47.85c0,0.668-0.543,1.211-1.212,1.211H9.411c-0.668,0-1.211-0.543-1.211-1.211 V13.005c0-0.668,0.543-1.211,1.211-1.211h41.173c0.669,0,1.212,0.543,1.212,1.211V47.85z" fill="url(#SVGID_1)"/>
<linearGradient gradientUnits="userSpaceOnUse" id="SVGID_2" x1="30" x2="30" y1="11.6" y2="49.1">
<stop offset="0" stop-color="#ECF3F5"/>
<stop offset="0.25" stop-color="#ECF3F5"/>
<stop offset="0.86" stop-color="#7E878A"/>
<stop offset="1" stop-color="#B0B8BB"/>
</linearGradient>
<path d="M50.584,12.407c0.33,0,0.6,0.268,0.6,0.6V47.85c0,0.33-0.269,0.598-0.6,0.598H9.411 c-0.33,0-0.599-0.268-0.599-0.598V13.005c0-0.331,0.269-0.599,0.599-0.599L50.584,12.407 M50.584,11.794H9.411 c-0.668,0-1.211,0.543-1.211,1.212V47.85c0,0.668,0.543,1.211,1.211,1.211h41.173c0.669,0,1.212-0.543,1.212-1.211V13.005 C51.796,12.337,51.253,11.794,50.584,11.794L50.584,11.794z" fill="url(#SVGID_2)"/>
<linearGradient gradientUnits="userSpaceOnUse" id="SVGID_3" x1="29.97" x2="29.97" y1="14.02" y2="46.8">
<stop offset="0" stop-color="#707173"/>
<stop offset="1" stop-color="#000000"/>
</linearGradient>
<rect fill="url(#SVGID_3)" fill-opacity="0.4" height="33.148" stroke-opacity="0.4" width="39.529" x="10.203" y="13.82"/>
<linearGradient gradientUnits="userSpaceOnUse" id="SVGID_4" x1="38.08" x2="40.37" y1="47.65" y2="51.32">
<stop offset="0" stop-color="#737373"/>
<stop offset="1" stop-color="#DEDEDE"/>
</linearGradient>
<rect fill="url(#SVGID_4)" height="22.5" width="37.267" x="11.352" y="23.447"/>
<linearGradient gradientUnits="userSpaceOnUse" id="SVGID_5" x1="32.52" x2="25.99" y1="42.89" y2="21.55">
<stop offset="0" stop-color="#FFFFFF"/>
<stop offset="1" stop-color="#CCCCCC"/>
</linearGradient>
<path d="M40.864,44.215c-2.954,0.771-11.439,1.683-11.439,1.683h-18.06V23.396h37.267 c0,0-0.54,15.014-1.059,17.106C47.115,42.352,45.118,43.103,40.864,44.215z" fill="url(#SVGID_5)"/>
<linearGradient gradientUnits="userSpaceOnUse" id="SVGID_6" x1="30" x2="30" y1="14.91" y2="23.24">
<stop offset="0" stop-color="#FF7042"/>
<stop offset="1" stop-color="#991B23"/>
</linearGradient>
<rect fill="url(#SVGID_6)" height="8.438" width="37.267" x="11.365" y="14.958"/>
<linearGradient gradientUnits="userSpaceOnUse" id="SVGID_7" x1="38.74" x2="40.67" y1="41.86" y2="45.48">
<stop offset="0" stop-color="#FFFFFF"/>
<stop offset="1" stop-color="#000000"/>
</linearGradient>
<path d="M40.405,44.686 c-2.712,0.525-6.438,1.021-11.541,1.071l19.086-9.022c0,0,0.017,1.963-0.377,3.769C47.573,40.503,47.256,43.358,40.405,44.686z" fill="url(#SVGID_7)" fill-opacity="0.42" stroke-opacity="0.42"/>
<linearGradient gradientUnits="userSpaceOnUse" id="SVGID_8" x1="39.1" x2="37.93" y1="45.72" y2="43.14">
<stop offset="0" stop-color="#9C9C9C"/>
<stop offset="1" stop-color="#FFFFFF"/>
</linearGradient>
<path d="M28.34,45.893c0,0,11.11-0.098,15.242-5.76c0,0,2.96,3.646,3.992,0.37 C47.135,42.754,43.17,45.975,28.34,45.893z" fill="url(#SVGID_8)"/>
<path d="M43.672,40.735c0,0,2.207,2.321,3.461,0.773c0.236-0.354,0.377-0.701,0.44-1.028 c-1.032,3.276-3.991-0.37-3.991-0.37c-4.133,5.663-15.243,5.759-15.243,5.759C33.492,45.869,41.103,44.256,43.672,40.735z" fill="#FFFFFF"/>
<linearGradient gradientUnits="userSpaceOnUse" id="SVGID_9" x1="34.36" x2="19.67" y1="49.19" y2="30.72">
<stop offset="0" stop-color="#303030"/>
<stop offset="1" stop-color="#000000"/>
</linearGradient>
<polygon fill="url(#SVGID_9)" points="25.818,26.952 24.328,26.952 19.802,28.38 19.802,30.023 23.025,29.266 23.025,40.641 19.802,40.74 19.802,42.382 28.865,42.068 28.865,40.461 25.818,40.555 "/>
<path d="M33.813,40.167c0.028-0.591,0.187-1.137,0.478-1.638c0.291-0.5,0.648-0.961,1.072-1.382 c0.426-0.42,1.012-0.944,1.765-1.571c1.349-1.109,2.205-2.008,2.565-2.707c0.365-0.693,0.547-1.395,0.547-2.107 c0-1.266-0.404-2.223-1.212-2.872c-0.808-0.651-1.987-0.977-3.542-0.977c-1.258,0-2.553,0.203-3.88,0.608V29.3h0.022 c1.264-0.452,2.343-0.679,3.23-0.683c0.844-0.003,1.475,0.188,1.896,0.571c0.42,0.384,0.629,0.956,0.629,1.718 c0,0.435-0.13,0.873-0.389,1.318c-0.262,0.443-0.887,1.074-1.881,1.896c-0.826,0.688-1.511,1.323-2.051,1.9 c-0.543,0.58-0.996,1.279-1.367,2.093c-0.367,0.817-0.551,1.745-0.551,2.786v1.09l9.152-0.316V39.97L33.813,40.167z" fill="url(#SVGID_9)"/>
<polygon fill="#FFE6E6" points="48.632,15.2 11.365,15.2 11.365,14.718 48.632,14.718 "/>
<linearGradient gradientUnits="userSpaceOnUse" id="SVGID_11" x1="39.42" x2="44.39" y1="18.82" y2="18.82">
<stop offset="0" stop-color="#FB6C41"/>
<stop offset="0.5" stop-color="#FFB69E"/>
<stop offset="1" stop-color="#FB6C41"/>
</linearGradient>
<path d="M44.307,18.818c0,1.279-1.104,2.317-2.461,2.317c-1.359,0-2.461-1.038-2.461-2.317 c0-1.28,1.103-2.316,2.461-2.316C43.203,16.502,44.307,17.538,44.307,18.818z" fill="url(#SVGID_11)"/>
<linearGradient gradientUnits="userSpaceOnUse" id="SVGID_12" x1="15.98" x2="20.95" y1="18.82" y2="18.82">
<stop offset="0" stop-color="#FB6C41"/>
<stop offset="0.5" stop-color="#FFB69E"/>
<stop offset="1" stop-color="#FB6C41"/>
</linearGradient>
<ellipse cx="18.396" cy="18.818" fill="url(#SVGID_12)" rx="2.462" ry="2.317"/>
<linearGradient gradientUnits="userSpaceOnUse" id="SVGID_13" x1="41.85" x2="41.85" y1="16.38" y2="20.52">
<stop offset="0" stop-color="#4A050A"/>
<stop offset="1" stop-color="#B00F25"/>
</linearGradient>
<path d="M44.307,18.224c0,1.361-1.104,2.461-2.461,2.461c-1.359,0-2.461-1.101-2.461-2.461 c0-1.357,1.103-2.461,2.461-2.461C43.203,15.763,44.307,16.867,44.307,18.224z" fill="url(#SVGID_13)"/>
<rect fill="#231F20" fill-opacity="0.4" height="6.147" stroke-opacity="0.4" width="4.854" x="15.975" y="11.794"/>
<rect fill="#231F20" fill-opacity="0.4" height="6.147" stroke-opacity="0.4" width="4.854" x="39.392" y="11.794"/>
<linearGradient gradientUnits="userSpaceOnUse" id="SVGID_14" x1="40.1" x2="43.59" y1="14.62" y2="14.62">
<stop offset="0" stop-color="#B6B4B5"/>
<stop offset="0.12" stop-color="#FFFCFE"/>
<stop offset="0.68" stop-color="#595959"/>
<stop offset="0.95" stop-color="#D4D3D3"/>
<stop offset="1" stop-color="#D4D3D3"/>
</linearGradient>
<path d="M41.846,9.434c-0.971,0-1.757,0.788-1.757,1.759v6.856c0,0.971,0.786,1.758,1.757,1.758 s1.758-0.787,1.758-1.758v-6.856C43.604,10.222,42.816,9.434,41.846,9.434z" fill="url(#SVGID_14)"/>
<path d="M20.858,18.224c0,1.361-1.104,2.461-2.462,2.461c-1.359,0-2.461-1.101-2.461-2.461 c0-1.357,1.102-2.461,2.461-2.461C19.754,15.763,20.858,16.867,20.858,18.224z" fill="url(#SVGID_13)"/>
<linearGradient gradientUnits="userSpaceOnUse" id="SVGID_16" x1="16.65" x2="20.14" y1="14.62" y2="14.62">
<stop offset="0" stop-color="#B6B4B5"/>
<stop offset="0.12" stop-color="#FFFCFE"/>
<stop offset="0.68" stop-color="#595959"/>
<stop offset="0.95" stop-color="#D4D3D3"/>
<stop offset="1" stop-color="#D4D3D3"/>
</linearGradient>
<path d="M18.396,9.434c-0.971,0-1.756,0.788-1.756,1.759v6.856c0,0.971,0.785,1.758,1.756,1.758 c0.97,0,1.759-0.787,1.759-1.758v-6.856C20.155,10.222,19.366,9.434,18.396,9.434z" fill="url(#SVGID_16)"/>
<polygon fill="#701619" points="48.632,23.636 11.365,23.636 11.365,23.156 48.632,23.156 "/>
<linearGradient gradientUnits="userSpaceOnUse" id="SVGID_17" x1="46" x2="47.65" y1="43.14" y2="43.14">
<stop offset="0" stop-color="#D2D3D4"/>
<stop offset="1" stop-color="#000000"/>
</linearGradient>
<path d="M46.029,41.877 c-2.577,2.077-8.758,3.303-12.666,3.895c10.73-0.617,13.841-3.279,14.211-5.269C47.115,41.879,46.569,41.863,46.029,41.877z" fill="url(#SVGID_17)" fill-opacity="0.35" stroke-opacity="0.35"/>
<rect fill="none" height="59.996" width="59.996"/>
</g>
<g transform="matrix(1 0 0 1 30 30)">
<g>
<path d="M0,30V0h30v30H0z M23.599,26.25l-8.732-8.732L6.134,26.25H23.599z M26.25,23.599V6.134l-8.732,8.732   L26.25,23.599z M3.75,23.331l8.465-8.465L3.75,6.401V23.331z M14.866,12.215L23.33,3.75H6.402L14.866,12.215z" fill-opacity="0.6" stroke-opacity="0.6"/>
<linearGradient gradientUnits="userSpaceOnUse" id="SVGID_1_" x1="14.9995" x2="14.9995" y1="0.9941" y2="29.1902">
<stop offset="0" style="stop-color:#E6E6E6"/>
<stop offset="0.6182" style="stop-color:#A8A8A8"/>
<stop offset="1" style="stop-color:#CCCCCC"/>
</linearGradient>
<path d="M0.938,0.938v28.125h28.125V0.938H0.938z M13.541,14.866L2.813,25.595V4.138L13.541,14.866z    M4.139,2.813h21.455L14.866,13.541L4.139,2.813z M14.866,16.192l10.995,10.995H3.871L14.866,16.192z M16.192,14.866L27.188,3.871   v21.99L16.192,14.866z" fill="url(#SVGID_1_)"/>
<g>
<polygon fill-opacity="0.6" points="8.547,25.313 7.61,17.813 5.625,17.813 5.625,12.199 24.375,12.199 24.375,17.813 22.391,17.813     21.453,25.313   " stroke-opacity="0.6"/>
<linearGradient gradientUnits="userSpaceOnUse" id="SVGID_2_" x1="14.9995" x2="14.9995" y1="12.103" y2="23.9943">
<stop offset="0" style="stop-color:#A0F800"/>
<stop offset="1" style="stop-color:#319E00"/>
</linearGradient>
<polygon fill="url(#SVGID_2_)" points="6.563,13.137 6.563,16.875 8.438,16.875 9.375,24.375 20.625,24.375 21.563,16.875     23.438,16.875 23.438,13.137   "/>
<path d="M13.125,14.063v-2.886c-0.348,0.048-0.692,0.073-1.03,0.073c-0.804,0-1.568-0.139-2.272-0.414    C5.866,9.294,5.955,6.329,5.96,6.204l0.019-0.408l0.312-0.265c0.103-0.088,1.06-0.855,2.881-0.855c0.958,0,1.99,0.212,3.066,0.632    c1.3,0.506,2.174,1.126,2.762,1.716c0.588-0.589,1.462-1.209,2.762-1.716c1.076-0.42,2.108-0.632,3.066-0.632    c1.82,0,2.777,0.767,2.881,0.855l0.313,0.265l0.019,0.408c0.005,0.125,0.094,3.091-3.862,4.632    c-0.704,0.275-1.469,0.414-2.272,0.414c-0.338,0-0.683-0.025-1.03-0.073v2.886H13.125z" fill-opacity="0.6" stroke-opacity="0.6"/>
<path d="M10.163,9.963c1.436,0.559,2.896,0.346,3.899,0.057v3.105h1.875V10.02    c1.003,0.289,2.464,0.502,3.899-0.057c3.375-1.316,3.267-3.717,3.267-3.717s-1.627-1.379-5.002-0.064    C16.242,6.907,15.392,7.849,15,8.551c-0.392-0.702-1.242-1.644-3.102-2.369C8.523,4.866,6.896,6.246,6.896,6.246    S6.788,8.647,10.163,9.963z" fill="url(#SVGID_3_)"/>
<defs>
<linearGradient gradientUnits="userSpaceOnUse" id="SVGID_3_" x1="14.9995" x2="14.9995" y1="4.9224" y2="12.8702">
<stop offset="0" style="stop-color:#A0F800"/>
<stop offset="1" style="stop-color:#319E00"/>
</linearGradient>
</defs>
</g>
<linearGradient gradientUnits="userSpaceOnUse" id="SVGID_4_" x1="14.9995" x2="14.9995" y1="12.5542" y2="17.3683">
<stop offset="0" style="stop-color:#D07100"/>
<stop offset="1" style="stop-color:#A23600"/>
</linearGradient>
<rect fill="url(#SVGID_4_)" height="3.738" width="16.875" x="6.563" y="13.137"/>
<linearGradient gradientUnits="userSpaceOnUse" id="SVGID_5_" x1="14.9995" x2="14.9995" y1="16.8408" y2="24.5597">
<stop offset="0" style="stop-color:#D07100"/>
<stop offset="1" style="stop-color:#A23600"/>
</linearGradient>
<polygon fill="url(#SVGID_5_)" points="20.625,24.375 9.375,24.375 8.438,16.875 21.563,16.875  "/>
<path d="M23.104,6.246c0,0-1.627-1.379-5.002-0.064C16.242,6.907,15.392,7.849,15,8.551   c-0.392-0.702-1.242-1.644-3.102-2.369C8.523,4.866,6.896,6.246,6.896,6.246s-0.109,2.401,3.267,3.717   c1.436,0.559,2.896,0.346,3.899,0.057v3.105h1.875V10.02c1.003,0.289,2.464,0.502,3.899-0.057   C23.212,8.647,23.104,6.246,23.104,6.246z" fill="url(#SVGID_3_)"/>
<g fill-opacity="0.2" stroke-opacity="0.2">
<path d="M14.063,9.082c-1.003,0.289-2.464,0.502-3.899-0.057C8.06,8.205,7.31,6.963,7.042,6.144    c-0.094,0.06-0.146,0.102-0.146,0.102s-0.109,2.401,3.267,3.717c1.436,0.559,2.896,0.346,3.899,0.057V9.082z"/>
<path d="M22.958,6.144c-0.268,0.819-1.018,2.061-3.121,2.881c-1.436,0.559-2.896,0.346-3.899,0.057v0.938    c1.003,0.289,2.464,0.502,3.899-0.057c3.375-1.316,3.267-3.717,3.267-3.717S23.052,6.204,22.958,6.144z"/>
<rect height="0.938" width="1.875" x="14.063" y="12.188"/>
</g>
<rect fill="#FFFFFF" fill-opacity="0.3" height="0.926" stroke-opacity="0.3" width="16.875" x="6.563" y="13.137"/>
<polygon fill-opacity="0.2" points="21.445,17.813 21.563,16.875 8.438,16.875 8.555,17.813  " stroke-opacity="0.2"/>
</g>
</g>
</svg>
