<?xml version="1.0" encoding="UTF-8"?>
<!DOCTYPE svg PUBLIC "-//W3C//DTD SVG 1.1 Tiny//EN" "http://www.w3.org/Graphics/SVG/1.1/DTD/svg11-tiny.dtd">
<svg baseProfile="tiny" height="60" viewBox="0 0 60 60" width="60" xmlns="http://www.w3.org/2000/svg" xmlns:xlink="http://www.w3.org/1999/xlink">
<g>
<rect fill="#44A51C" height="37.719" width="52" x="4" y="11.141"/>
<path d="M17.378,22.469c-5.662,0-8.649,3.887-8.649,9.426c0,5.611,2.19,10.02,8.586,10.02  c5.891,0,8.623-3.99,8.623-9.893C25.938,26.385,23.252,22.469,17.378,22.469z M17.314,38.881c-3.012,0-3.148-4.285-3.148-7.092  c0-2.734,0.234-6.293,3.148-6.293c2.793,0,3.184,3.758,3.184,6.293C20.498,35.055,20.339,38.881,17.314,38.881z" fill="#FFFFFF"/>
<path d="M33.168,41.914c2.304,0,3.116-1.152,3.665-2.83l4.954-16.355h-4.624l-3.548,14.154l-3.339-14.154h-5.479  l4.704,16.355C30.013,40.762,30.866,41.914,33.168,41.914z" fill="#FFFFFF"/>
<path d="M46.558,15.863c-1.707,0-2.875,0.857-2.875,2.441s1.206,2.438,2.875,2.438c1.676,0,2.882-0.854,2.882-2.438  C49.439,16.752,48.167,15.863,46.558,15.863z" fill="#FFFFFF"/>
<path d="M44.647,41.391c0.39,0.279,0.999,0.523,1.859,0.523c0.905,0,1.492-0.244,1.879-0.523  c0.746-0.523,0.746-1.41,0.746-1.893v-16.77h-5.167c0,0-0.193,0-0.355,0c-0.502,0-0.92,0.01-1.209,0.41  c-0.134,0.184-0.327,0.51-0.327,1.107c0,0.621,0.203,0.924,0.327,1.109c0.289,0.398,0.707,0.4,1.209,0.4  c0.162,0,0.302-0.002,0.302-0.002v13.748C43.911,39.98,43.911,40.867,44.647,41.391z" fill="#FFFFFF"/>
<g>
<rect fill="none" height="60" width="60"/>
</g>
</g>
</svg>
