<?xml version="1.0" encoding="UTF-8"?>
<!DOCTYPE svg PUBLIC "-//W3C//DTD SVG 1.1 Tiny//EN" "http://www.w3.org/Graphics/SVG/1.1/DTD/svg11-tiny.dtd">
<svg baseProfile="tiny" height="30px" version="1.1" viewBox="0 0 30 30" width="30px" x="0px" xmlns="http://www.w3.org/2000/svg" xmlns:xlink="http://www.w3.org/1999/xlink" y="0px">
<g fill-opacity="0.5" stroke-opacity="0.5">
<rect fill="none" height="30" width="30"/>
</g>
<path d="M25.92,4.191c-4.1-4.102-10.75-4.102-14.85,0-3.739,3.738-4.057,9.591-0.977,13.7l-1.49,1.5-0.707-0.707-4.949,4.95,3.535,3.535,4.95-4.95-0.707-0.707,1.499-1.498c4.112,3.081,9.965,2.763,13.7-0.977,4.1-4.08,4.1-10.73,0-14.83zm-2.12,12.73c-2.924,2.925-7.683,2.924-10.6,0-2.924-2.923-2.926-7.682,0-10.6,2.924-2.925,7.682-2.924,10.6,0s2.93,7.67,0,10.6z"/>
<rect height="2" transform="matrix(-0.7071 -0.7071 0.7071 -0.7071 -15.0422 48.8201)" width="4.999" x="0.09" y="26.52"/>
<polygon points="20,7,17,7,17,10,14,10,14,13,17,13,17,16,20,16,20,13,23,13,23,10,20,10"/>
</svg>
