<?xml version="1.0" ?>
<!DOCTYPE svg  PUBLIC '-//W3C//DTD SVG 1.1 Tiny//EN'  'http://www.w3.org/Graphics/SVG/1.1/DTD/svg11-tiny.dtd'>
<svg baseProfile="tiny" height="30px" version="1.1" viewBox="0 0 30 30" width="30px" x="0px" xmlns="http://www.w3.org/2000/svg" xmlns:xlink="http://www.w3.org/1999/xlink" y="0px">

<g fill-opacity="0.5" stroke-opacity="0.5">

<rect fill="none" height="30" width="30"/>

</g>

<path d="M2.854,21.55v-1.512h1.081v-10.08h-1.081v-1.512h4.588v1.512h-1.082v10.08h1.081v1.512h-4.587z"/>

<path d="M11.58,21.69c-0.955,0-1.896-0.12-2.821-0.36v-1.564c1.014,0.275,1.913,0.413,2.698,0.413,0.744,0,1.325-0.167,1.745-0.501,0.418-0.334,0.628-0.809,0.628-1.424,0-0.58-0.173-1.035-0.519-1.366s-0.987-0.764-1.925-1.297c-1.025-0.574-1.717-1.152-2.074-1.736-0.357-0.582-0.536-1.246-0.536-1.99,0-1.184,0.396-2.072,1.191-2.668,0.793-0.594,1.829-0.892,3.106-0.892,0.926,0,1.778,0.088,2.558,0.264v1.529c-0.826-0.188-1.594-0.281-2.303-0.281-0.645,0-1.16,0.152-1.547,0.457s-0.58,0.727-0.58,1.266c0,0.521,0.168,0.939,0.506,1.253,0.336,0.313,0.912,0.695,1.727,1.146,1.125,0.627,1.878,1.233,2.259,1.819s0.571,1.245,0.571,1.978c0,1.318-0.391,2.307-1.174,2.967-0.79,0.65-1.96,0.98-3.52,0.98z"/>

<path d="M22.36,21.69c-1.582,0-2.772-0.554-3.573-1.661-0.799-1.107-1.199-2.845-1.199-5.212,0-2.227,0.4-3.868,1.199-4.926,0.801-1.058,1.991-1.587,3.573-1.587,1.594,0,2.79,0.544,3.591,1.63,0.799,1.088,1.199,2.715,1.199,4.883,0,2.361-0.401,4.098-1.204,5.207-0.81,1.11-2.01,1.66-3.59,1.66zm0-1.51c0.732,0,1.29-0.383,1.675-1.146,0.383-0.766,0.575-2.17,0.575-4.215,0-1.852-0.19-3.147-0.571-3.889s-0.94-1.112-1.679-1.112c-0.732,0-1.291,0.354-1.675,1.06s-0.575,2.02-0.575,3.941c0,1.893,0.19,3.26,0.571,4.1,0.37,0.84,0.93,1.26,1.67,1.26z"/>

</svg>