<?xml version="1.0" encoding="UTF-8" standalone="no"?>
<!DOCTYPE svg PUBLIC "-//W3C//DTD SVG 1.1 Tiny//EN" "http://www.w3.org/Graphics/SVG/1.1/DTD/svg11-tiny.dtd">
<svg xmlns="http://www.w3.org/2000/svg" xmlns:xlink="http://www.w3.org/1999/xlink" baseProfile="tiny" height="60" viewBox="0 0 60 60" width="60">
<rect fill="none" height="60" width="60"/>
<linearGradient gradientUnits="userSpaceOnUse" id="SVGID_1_" x1="30.05" x2="30.05" y1="8.571" y2="30.74">
<stop offset="0" stop-color="#CCCCCC"/>
<stop offset="1" stop-color="#919191"/>
</linearGradient>
<path d="M48.37,8.571h-36.74v0.043l-3.131,3.131,19.04,19.04,2.507-2.507,2.507,2.507,19.05-19.04-3.174-3.174m-30.64,6.124h24.51l-12.25,12.26-12.26-12.26z" fill="url(#SVGID_1_)"/>
<linearGradient gradientUnits="userSpaceOnUse" id="SVGID_2_" x1="30.05" x2="30.05" y1="9.394" y2="29.55">
<stop offset="0" stop-color="#DBDBDB"/>
<stop offset="0.3152" stop-color="#DBDBDB"/>
<stop offset="0.6848" stop-color="#B3B3B3"/>
<stop offset="1" stop-color="#B8B8B8"/>
</linearGradient>
<polygon fill="url(#SVGID_2_)" points="9.555,11.61,11.77,9.394,48.34,9.394,50.56,11.61,32.61,29.55,30.82,27.76,44.99,13.59,15.12,13.59,29.29,27.76,27.5,29.55"/>
<polygon fill="#FFFFFF" fill-opacity="0.5" points="45.01,13.57,30.82,27.76,31.32,28.27,46.02,13.57" stroke-opacity="0.5"/>
<polygon fill="#FFFFFF" fill-opacity="0.8" points="11.77,10.41,48.34,10.41,50.05,12.11,50.56,11.61,48.34,9.394,11.77,9.394,9.555,11.61,10.06,12.11" stroke-opacity="0.8"/>
<polygon fill="#FFFFFF" fill-opacity="0.5" points="14.14,13.62,28.79,28.27,29.29,27.76,15.15,13.62" stroke-opacity="0.5"/>
<linearGradient gradientUnits="userSpaceOnUse" id="SVGID_3_" x1="26.94" x2="33.06" y1="32.21" y2="32.21">
<stop offset="0" stop-color="#B8B8B8"/>
<stop offset="0.3697" stop-color="#E6E6E6"/>
<stop offset="0.7212" stop-color="#919191"/>
<stop offset="1" stop-color="#E6E6E6"/>
</linearGradient>
<path d="M33.06,50.2c0,0.677-0.547,1.225-1.224,1.225h-3.674c-0.676,0-1.224-0.548-1.224-1.225v-35.98c0-0.676,0.548-1.225,1.224-1.225h3.674c0.677,0,1.224,0.548,1.224,1.225v35.98z" fill="url(#SVGID_3_)"/>
</svg>
