<?xml version="1.0" encoding="UTF-8"?>
<!DOCTYPE svg PUBLIC "-//W3C//DTD SVG 1.1 Tiny//EN" "http://www.w3.org/Graphics/SVG/1.1/DTD/svg11-tiny.dtd">
<svg baseProfile="tiny" height="30" viewBox="0 0 30 30" width="30" xmlns="http://www.w3.org/2000/svg" xmlns:xlink="http://www.w3.org/1999/xlink">
<g>
<rect fill="none" height="30" width="30"/>
<rect height="27" width="21.602" x="4.199" y="1.5"/>
<rect fill="#33A02C" height="24.301" width="18.9" x="5.549" y="2.85"/>
<rect fill="#FFFFFF" height="21.6" width="16.2" x="6.899" y="4.2"/>
<rect fill="#F6F6F5" height="18.9" width="13.5" x="8.25" y="5.55"/>
<polygon points="21.716,10.897 13.146,21.75 8.659,21.75 16.819,10.897 "/>
<path d="M17.495,12.247c-0.581,0.77-4.178,5.553-6.132,8.153c0.541,0,0.85,0,1.13,0 c0.581-0.735,4.366-5.531,6.438-8.153C18.224,12.247,17.834,12.247,17.495,12.247z" fill="#33A02C"/>
<polygon points="8.25,10.061 16.002,21.75 21.308,21.75 13.146,10.061 "/>
<path d="M10.765,11.412c1.756,2.649,5.378,8.108,5.962,8.989c0.471,0,0.997,0,1.992,0 c-1.865-2.672-5.686-8.145-6.276-8.989C12.031,11.412,11.603,11.412,10.765,11.412z" fill="#33A02C"/>
</g>
</svg>
