<?xml version="1.0" encoding="UTF-8"?>
<!DOCTYPE svg PUBLIC "-//W3C//DTD SVG 1.1 Tiny//EN" "http://www.w3.org/Graphics/SVG/1.1/DTD/svg11-tiny.dtd">
<svg baseProfile="tiny" height="16px" version="1.1" viewBox="0 0 16 16" width="16px" x="0px" xmlns="http://www.w3.org/2000/svg" xmlns:xlink="http://www.w3.org/1999/xlink" y="0px">
<rect fill="none" height="16" width="16"/>
<path d="M10.287,13.119L8.622,6.468C9.354,6.208,9.88,5.53,9.88,4.712c0-1.041-0.842-1.883-1.881-1.883  c-1.04,0-1.883,0.841-1.883,1.883c0,0.817,0.525,1.494,1.254,1.756l-1.661,6.651h-2.42V15h9.41v-1.881H10.287z"/>
<path d="M1.621,4.713c0,2.103,1.152,3.656,1.188,3.708c0.189-0.128,0.511-0.35,0.702-0.478C3.473,7.894,2.465,6.465,2.465,4.713  c0-1.896,1.008-3.179,1.046-3.233C3.319,1.35,3,1.128,2.813,1C2.775,1.053,1.621,2.672,1.621,4.713z"/>
<path d="M3.867,4.713c0,1.398,0.761,2.39,0.797,2.44c0.19-0.127,0.512-0.35,0.702-0.478C5.325,6.621,4.714,5.702,4.714,4.713  c0-1.101,0.611-1.913,0.651-1.964C5.176,2.621,4.852,2.4,4.664,2.267C4.628,2.325,3.867,3.287,3.867,4.713z"/>
<path d="M14.379,4.71c0-2.104-1.154-3.657-1.191-3.71C13,1.128,12.677,1.35,12.49,1.478c0.033,0.049,1.043,1.48,1.043,3.232  c0,1.895-1.01,3.178-1.043,3.231c0.188,0.131,0.51,0.353,0.697,0.481C13.221,8.373,14.379,6.751,14.379,4.71z"/>
<path d="M12.13,4.71c0-1.399-0.761-2.391-0.798-2.442c-0.187,0.127-0.511,0.35-0.702,0.479c0.041,0.057,0.654,0.977,0.654,1.963  c0,1.101-0.613,1.912-0.652,1.963c0.189,0.127,0.51,0.349,0.699,0.481C11.368,7.099,12.13,6.134,12.13,4.71z"/>
</svg>
