<?xml version="1.0" encoding="UTF-8"?>
<!DOCTYPE svg PUBLIC "-//W3C//DTD SVG 1.1 Tiny//EN" "http://www.w3.org/Graphics/SVG/1.1/DTD/svg11-tiny.dtd">
<svg baseProfile="tiny" height="30" viewBox="0 0 30 30" width="30" xmlns="http://www.w3.org/2000/svg" xmlns:xlink="http://www.w3.org/1999/xlink">
<rect fill="none" height="30" width="30"/>
<rect fill="none" height="30" width="29.999" x="0.001"/>
<path d="M8.39,14.734c-3.313,0-6,2.686-6,5.998c0,3.314,2.687,6,6,6c3.314,0,6.001-2.686,6.001-6 C14.391,17.42,11.704,14.734,8.39,14.734z M8.39,24.484c-2.071,0-3.75-1.678-3.75-3.75s1.679-3.75,3.75-3.75 c2.072,0,3.75,1.678,3.75,3.75C12.14,22.805,10.461,24.484,8.39,24.484z"/>
<path d="M21.61,14.734c-3.313,0-6,2.686-6,5.998c0,3.314,2.688,6,6,6c3.313,0,6-2.686,6-6C27.61,17.42,24.924,14.734,21.61,14.734z"/>
<path d="M15.001,3.266c-3.313,0-6,2.687-6,6s2.687,6,6,6s6-2.687,6-6S18.314,3.266,15.001,3.266z M15.001,13.016 c-2.072,0-3.75-1.678-3.75-3.75c0-2.072,1.678-3.75,3.75-3.75V13.016z"/>
</svg>
