<?xml version="1.0" encoding="utf-8"?>
<!-- Generator: Adobe Illustrator 14.0.0, SVG Export Plug-In . SVG Version: 6.00 Build 43363)  -->
<!DOCTYPE svg PUBLIC "-//W3C//DTD SVG 1.1//EN" "http://www.w3.org/Graphics/SVG/1.1/DTD/svg11.dtd">
<svg version="1.1" id="Layer_1" xmlns="http://www.w3.org/2000/svg" xmlns:xlink="http://www.w3.org/1999/xlink" x="0px" y="0px"
	 width="30px" height="30px" viewBox="0 0 30 30" enable-background="new 0 0 30 30" xml:space="preserve">
<rect fill="none" width="30" height="30"/>
<path d="M12.934,4.151C13.57,4.063,14.215,4,14.875,4c0.588,0,1.162,0.048,1.729,0.118V3h1.836V1.918C18.439,1.411,18.027,1,17.52,1
	h-5.505c-0.506,0-0.916,0.41-0.916,0.918V3h1.836V4.151z"/>
<path d="M9.789,5.017C9.16,4.4,8.318,4,7.367,4c-1.932,0-3.5,1.566-3.5,3.5c0,0.561,0.139,1.086,0.375,1.554
	C5.717,7.285,7.619,5.891,9.789,5.017z"/>
<path d="M25.795,9.096c0.252-0.479,0.408-1.016,0.408-1.596c0-1.934-1.568-3.5-3.5-3.5c-0.961,0-1.807,0.409-2.438,1.037
	C22.43,5.919,24.328,7.321,25.795,9.096z"/>
<path d="M15,6C8.371,6,3,11.374,3,18c0,6.629,5.371,12,12,12c6.627,0,12-5.371,12-12C27,11.374,21.627,6,15,6z M15,18
	c0,0-4.004,8-4.004,8.063C8.035,24.59,6,21.533,6,18c0-4.971,4.029-9,9-9c4.971,0,9,4.029,9,9H15z"/>
</svg>
