<?xml version="1.0" encoding="UTF-8"?>
<!DOCTYPE svg PUBLIC "-//W3C//DTD SVG 1.1 Tiny//EN" "http://www.w3.org/Graphics/SVG/1.1/DTD/svg11-tiny.dtd">
<svg baseProfile="tiny" height="30px" version="1.1" viewBox="0 0 30 30" width="30px" x="0px" xmlns="http://www.w3.org/2000/svg" xmlns:xlink="http://www.w3.org/1999/xlink" y="0px">
<rect fill="none" height="30" width="29.999"/>
<path d="M10.075,15.008c-0.376,0-0.662,0.132-0.858,0.391c-0.196,0.261-0.293,0.635-0.293,1.124c0,0.516,0.097,0.914,0.29,1.192  c0.193,0.28,0.481,0.418,0.861,0.418c0.779,0,1.17-0.536,1.17-1.61c0-0.46-0.105-0.826-0.314-1.101  C10.724,15.146,10.438,15.008,10.075,15.008z M10.075,13.877c0.338,0,0.6-0.124,0.785-0.373c0.186-0.246,0.279-0.59,0.279-1.029  c0-0.932-0.354-1.397-1.064-1.397c-0.694,0-1.04,0.465-1.04,1.397c0,0.436,0.089,0.777,0.269,1.027  C9.483,13.752,9.74,13.877,10.075,13.877z M27,4H3C1.896,4,1,4.896,1,6v18c0,1.104,0.896,2,2,2h24c1.104,0,2-0.896,2-2V6  C29,4.896,28.104,4,27,4z M12.453,18.607c-0.57,0.457-1.366,0.684-2.39,0.684c-1.004,0-1.789-0.229-2.355-0.687  c-0.567-0.456-0.851-1.095-0.851-1.91c0-0.568,0.135-1.053,0.405-1.448c0.271-0.395,0.664-0.675,1.179-0.839  c-0.928-0.373-1.392-1.079-1.392-2.117c0-0.747,0.275-1.327,0.827-1.743c0.55-0.416,1.3-0.625,2.25-0.625  c0.932,0,1.667,0.208,2.204,0.625c0.537,0.416,0.804,0.997,0.804,1.743c0,1.05-0.47,1.755-1.411,2.117  c0.516,0.151,0.91,0.425,1.179,0.82c0.271,0.397,0.408,0.885,0.408,1.467C13.308,17.514,13.023,18.151,12.453,18.607z M21.925,19.2  h-1.993v-5.435l-1.326,2.529h-0.916l-1.33-2.531V19.2h-2v-9.137h1.668l2.123,4.042l2.123-4.042h1.651V19.2z"/>
</svg>
