<?xml version="1.0" encoding="UTF-8"?>
<!DOCTYPE svg PUBLIC "-//W3C//DTD SVG 1.1 Tiny//EN" "http://www.w3.org/Graphics/SVG/1.1/DTD/svg11-tiny.dtd">
<svg baseProfile="tiny" height="30px" style="enable-background:new 0 0 30 30;" version="1.1" viewBox="0 0 30 30" width="30px" x="0px" xmlns="http://www.w3.org/2000/svg" xmlns:xlink="http://www.w3.org/1999/xlink" y="0px">
<rect fill="none" height="29.03" width="29.03" x="0.14" y="0.016"/>
<polygon points="5.247,6.99,7.181,6.99,7.296,10.7,9.077,6.99,10.62,6.99,10.62,10.7,12.28,6.99,14.34,6.99,11.24,12.79,9.426,12.79,9.387,9.183,7.763,12.79,5.907,12.79"/>
<path d="M17.36,6.189c0-0.616-0.673-1.113-1.507-1.113-0.833,0-1.508,0.498-1.508,1.113,0,0.33,0.194,0.625,0.503,0.828v5.772h2.009v-5.772c0.32-0.205,0.51-0.498,0.51-0.829z"/>
<path d="M11.96,6.778s1.063-2.186,3.905-2.186c2.84,0,3.888,2.146,3.888,2.146s-0.522-2.785-3.944-2.785c-3.43,0-3.85,2.825-3.85,2.825z"/>
<path d="M10.8,6.159s1.237-2.978,5.065-2.978c3.826,0,4.813,2.938,4.813,2.938s-0.89-3.711-4.87-3.711c-3.98,0-5,3.751-5,3.751z"/>
<polygon points="20,11.23,17.99,12.47,19.81,15.38,5.247,15.38,5.247,17.74,24.06,17.73"/>
<polygon points="9.312,26.66,11.31,25.41,9.506,22.5,12.45,22.5,15.05,26.66,17.05,25.41,15.24,22.5,24.06,22.5,24.06,20.14,5.247,20.14"/>
<rect fill="none" height="29.03" width="29.03" x="0.14" y="0.016"/>
</svg>
