<?xml version="1.0" encoding="utf-8"?>
<!-- Generator: Adobe Illustrator 13.0.2, SVG Export Plug-In  -->
<!DOCTYPE svg PUBLIC "-//W3C//DTD SVG 1.1//EN" "http://www.w3.org/Graphics/SVG/1.1/DTD/svg11.dtd" [
	<!ENTITY ns_flows "http://ns.adobe.com/Flows/1.0/">
]>
<svg version="1.1"
	 xmlns="http://www.w3.org/2000/svg" xmlns:xlink="http://www.w3.org/1999/xlink" xmlns:a="http://ns.adobe.com/AdobeSVGViewerExtensions/3.0/"
	 x="0px" y="0px" width="40px" height="40px" viewBox="0 0 40 40" enable-background="new 0 0 40 40" xml:space="preserve">
<defs>
</defs>
<path d="M38.428,9.245L21.166,33.889c-0.125,0.18-0.304,0.292-0.46,0.439c-0.054,0.057-0.063,0.128-0.12,0.179
	c-0.068,0.072-0.163,0.092-0.234,0.156c-0.063,0.048-0.128,0.092-0.194,0.13c-1.695,1.328-4.119,1.277-5.68-0.28L2.266,22.3
	c-1.688-1.69-1.688-4.423,0-6.108c1.685-1.688,4.418-1.688,6.104,0l10.271,10.266L33.235,5.613c1.006-1.436,2.98-1.782,4.416-0.776
	C39.081,5.838,39.429,7.81,38.428,9.245z"/>
<rect fill="none" width="40" height="40"/>
</svg>
