<?xml version="1.0" encoding="UTF-8" standalone="no"?>
<!-- Generator: Adobe Illustrator 13.0.2, SVG Export Plug-In  -->
<svg
   xmlns:dc="http://purl.org/dc/elements/1.1/"
   xmlns:cc="http://creativecommons.org/ns#"
   xmlns:rdf="http://www.w3.org/1999/02/22-rdf-syntax-ns#"
   xmlns:svg="http://www.w3.org/2000/svg"
   xmlns="http://www.w3.org/2000/svg"
   xmlns:sodipodi="http://sodipodi.sourceforge.net/DTD/sodipodi-0.dtd"
   xmlns:inkscape="http://www.inkscape.org/namespaces/inkscape"
   version="1.1"
   x="0px"
   y="0px"
   width="20px"
   height="20px"
   viewBox="0 0 20 20"
   enable-background="new 0 0 20 20"
   xml:space="preserve"
   id="svg5343"
   sodipodi:version="0.32"
   inkscape:version="0.46"
   sodipodi:docname="qtg_fr_progress_v_frame_second_t.svg"
   inkscape:output_extension="org.inkscape.output.svg.inkscape"><metadata
   id="metadata5364"><rdf:RDF><cc:Work
       rdf:about=""><dc:format>image/svg+xml</dc:format><dc:type
         rdf:resource="http://purl.org/dc/dcmitype/StillImage" /></cc:Work></rdf:RDF></metadata><sodipodi:namedview
   inkscape:window-height="1031"
   inkscape:window-width="1348"
   inkscape:pageshadow="2"
   inkscape:pageopacity="0.0"
   guidetolerance="10.0"
   gridtolerance="10.0"
   objecttolerance="10.0"
   borderopacity="1.0"
   bordercolor="#666666"
   pagecolor="#ffffff"
   id="base"
   showgrid="false"
   inkscape:zoom="23.1"
   inkscape:cx="10"
   inkscape:cy="10"
   inkscape:window-x="48"
   inkscape:window-y="-4"
   inkscape:current-layer="svg5343" />
<defs
   id="defs5345"><inkscape:perspective
   sodipodi:type="inkscape:persp3d"
   inkscape:vp_x="0 : 10 : 1"
   inkscape:vp_y="0 : 1000 : 0"
   inkscape:vp_z="20 : 10 : 1"
   inkscape:persp3d-origin="10 : 6.6666667 : 1"
   id="perspective5366" />
</defs>
<linearGradient
   id="SVGID_1_"
   gradientUnits="userSpaceOnUse"
   x1="-3038.481"
   y1="-740.999"
   x2="-3038.481"
   y2="-752.9282"
   gradientTransform="matrix(-1.192488e-008 1 -1 -1.192488e-008 -737.0197 3050.4805)">
	<stop
   offset="0"
   style="stop-color:#CCCCCC"
   id="stop5348" />
	<stop
   offset="1"
   style="stop-color:#808080"
   id="stop5350" />
</linearGradient>
<path
   fill="url(#SVGID_1_)"
   d="M16.001,10v9.998H4V10c0-3.309,2.691-6,6.002-6C13.309,4,16.001,6.691,16.001,10L16.001,10z"
   id="path5352" />
<linearGradient
   id="SVGID_2_"
   gradientUnits="userSpaceOnUse"
   x1="295.5"
   y1="2839.917"
   x2="295.5"
   y2="2851.917"
   gradientTransform="matrix(1.192488e-008 -1 1 1.192488e-008 -2835.9998 308.0001)">
	<stop
   offset="0"
   style="stop-color:#666666"
   id="stop5355" />
	<stop
   offset="1"
   style="stop-color:#A6A6A6"
   id="stop5357" />
</linearGradient>
<path
   fill="url(#SVGID_2_)"
   d="M15.002,9.999V20H5.001V9.999C5.001,7.242,7.244,5,10.002,5S15.002,7.242,15.002,9.999L15.002,9.999z  "
   id="path5359" />
<rect
   fill="none"
   width="20"
   height="20"
   id="rect5361" />
<path
   style="fill:#00ffff"
   d="M 11.402597,12.603766 L 11.402597,5.2248481 L 11.24026,5.1785805 C 11.150974,5.1531325 10.99513,5.1203481 10.893939,5.1057264 L 10.709957,5.0791407 L 10.709957,4.5717879 L 10.709957,4.0644351 L 11.02381,4.1190736 C 11.878238,4.2678216 12.613074,4.5600918 13.322481,5.033339 L 13.705563,5.2888957 L 13.699338,5.9457208 L 13.693113,6.6025463 L 13.89216,6.8469221 C 14.405675,7.4773831 14.786403,8.3177983 14.929035,9.1357238 C 14.986545,9.4655152 14.995671,10.23426 14.995671,14.750259 L 14.995671,19.982684 L 13.199134,19.982684 L 11.402597,19.982684 L 11.402597,12.603766 z"
   id="path5368" /><path
   style="fill:#00ffff"
   d="M 8.5887446,12.604287 C 8.5887446,8.546168 8.6040303,5.216442 8.6227126,5.2048957 C 8.6413944,5.1933481 8.8215896,5.1486835 9.0231455,5.1056385 C 9.4532424,5.0137844 10.522225,4.9953173 10.731602,5.0761225 C 10.80303,5.1036883 10.983225,5.1501762 11.132035,5.1794268 L 11.402597,5.2326113 L 11.402597,12.607648 L 11.402597,19.982684 L 9.995671,19.982684 L 8.5887446,19.982684 L 8.5887446,12.604287 z"
   id="path5370" /><path
   style="fill:#00ffff"
   d="M 6.1539571,13.398489 L 6.1428571,6.8142909 L 6.5324675,6.4384861 C 7.07789,5.9123905 7.59239,5.5833918 8.2664823,5.3296641 C 8.425587,5.2697766 8.5631835,5.2207792 8.5722537,5.2207792 C 8.5813229,5.2207792 8.5887446,8.5422078 8.5887446,12.601732 L 8.5887446,19.982684 L 7.3769009,19.982684 L 6.1650545,19.982684 L 6.1539571,13.398489 z"
   id="path5372" /><path
   style="fill:#00ffff"
   d="M 5.0088926,14.712121 C 5.0217117,10.885715 5.0406208,9.3703887 5.077903,9.1818182 C 5.218729,8.4695359 5.4846792,7.8095714 5.8542017,7.2554113 C 6.0596792,6.9472658 6.101058,6.9050398 6.1087381,6.995671 C 6.1137823,7.0551948 6.1239147,10.001623 6.1312554,13.54329 L 6.1446009,19.982684 L 5.5679165,19.982684 L 4.9912346,19.982684 L 5.0088926,14.712121 z"
   id="path5374" /><path
   style="fill:#00ffff"
   d="M 5.3858918,7.1102558 L 5.3852814,6.2075273 L 5.5841792,5.9847147 C 6.2042121,5.2901442 7.0492645,4.7191892 7.9728498,4.3708238 C 8.3904403,4.2133139 8.3722944,4.1957801 8.3722944,4.7568035 L 8.3722944,5.2452091 L 8.0053831,5.4039641 C 6.9886784,5.843874 6.131668,6.6458329 5.5626727,7.6897632 L 5.3864996,8.012987 L 5.3858918,7.1102558 z"
   id="path5376" /><path
   style="fill:#00ffff"
   d="M 6.1627424,13.391775 L 6.1609827,6.8008658 L 6.02939,6.952381 C 5.9570152,7.0357143 5.7824823,7.2976584 5.6415398,7.5344792 L 5.3852814,7.9650623 L 5.3852814,7.0970156 L 5.3852814,6.2289719 L 5.6473628,5.9429545 C 5.9911242,5.5678013 6.458471,5.1952515 6.9630576,4.8941381 C 7.3987788,4.6341195 8.1045996,4.3116883 8.2380719,4.3116883 C 8.3433186,4.3116883 8.3709749,4.4248329 8.3717035,4.8584074 L 8.3722944,5.2103212 L 7.8830407,5.4500628 C 7.6139502,5.5819199 7.2389502,5.8059641 7.0497069,5.9479381 C 6.7200052,6.195287 6.1086,6.7792208 6.1793165,6.7792208 C 6.1979931,6.7792208 6.3630152,6.6369944 6.5460312,6.4631619 C 7.1519913,5.8876104 7.8034814,5.4850922 8.4480519,5.2880156 L 8.5454545,5.2582351 L 8.5508736,8.1724078 C 8.5538701,9.7842303 8.5717823,10.999521 8.5909541,10.891775 C 8.610019,10.784632 8.627061,9.4657424 8.628826,7.9609091 L 8.6320346,5.2248481 L 8.7943723,5.1798567 C 9.1268026,5.0877212 9.7073593,5.0373333 10.211671,5.0568455 L 10.731602,5.0769636 L 10.71816,4.5861009 C 10.702558,4.0164355 10.654186,4.0536835 11.240074,4.184187 C 12.008052,4.3552506 12.65758,4.6304866 13.341771,5.0747736 L 13.700857,5.3079511 L 13.694662,5.9617857 L 13.688455,6.6156203 L 13.911307,6.9143675 C 14.347519,7.4991424 14.641229,8.0913706 14.827792,8.7623351 C 14.915316,9.0770965 14.922165,9.2308844 14.953541,11.584416 C 14.971788,12.953463 14.988736,15.403139 14.991199,17.028139 L 14.995671,19.982684 L 10.580087,19.982684 L 6.1645022,19.982684 L 6.1627424,13.391775 z M 11.383117,5.2242827 C 11.356429,5.1811 10.968022,5.0878113 10.848519,5.095881 C 10.808026,5.0986147 10.911255,5.135987 11.077922,5.1789286 C 11.244589,5.2218697 11.386974,5.2585939 11.394329,5.2605368 C 11.401688,5.2624797 11.396641,5.2461654 11.383117,5.2242827 z"
   id="path5378" /><path
   style="fill:#00ffff"
   d="M 4.012939,14.668831 C 4.0321048,8.8910658 4.0208,9.1625273 4.2792991,8.2727273 C 4.423145,7.7775896 4.833129,6.9377013 5.1323117,6.5252619 L 5.3636364,6.2063675 L 5.3758117,7.1096771 C 5.3866675,7.91501 5.3788156,8.0388121 5.3034203,8.2510823 C 4.9855338,9.1460688 4.9957961,8.9291316 4.9957303,14.755411 L 4.995671,19.982684 L 4.4954918,19.982684 L 3.99531,19.982684 L 4.012939,14.668831 z"
   id="path5380" /><path
   style="fill:#00ffff"
   d="M 8.3722944,4.7925104 C 8.3722944,4.528058 8.3710749,4.2970779 8.3695844,4.2792208 C 8.3598459,4.162532 9.8071732,3.9843766 10.36768,4.0332706 L 10.709957,4.0631273 L 10.7099,4.5445519 L 10.709835,5.025974 L 9.9847879,5.027319 C 9.3893983,5.0284216 9.1939377,5.0452857 8.8917749,5.1216203 C 8.6893939,5.1727481 8.4897186,5.2277983 8.4480519,5.2439554 C 8.3786857,5.2708528 8.3722944,5.2327671 8.3722944,4.7925104 z"
   id="path5382" /><path
   style="fill:#00ffff"
   d="M 6.1538169,13.391775 L 6.1428571,6.8008658 L 5.991342,7.007442 C 5.9080087,7.121061 5.7375541,7.383884 5.6125541,7.5914948 L 5.3852814,7.9689675 L 5.3852814,7.0852 L 5.3852814,6.201432 L 5.8073593,5.7850771 C 6.2971823,5.3018957 6.8492446,4.9191866 7.537003,4.5860255 C 8.1025571,4.312061 8.3099074,4.2595931 8.3414918,4.3824528 C 8.359242,4.4514987 8.3629788,4.4495706 8.3672727,4.369158 C 8.3708139,4.3028584 8.4138043,4.2622584 8.512987,4.231545 C 8.8408935,4.1300039 9.3491169,4.0781879 10.038961,4.0759649 C 10.663645,4.0739506 10.843602,4.0891693 11.229437,4.1766346 C 12.015983,4.3549381 12.652502,4.6245983 13.33142,5.0671403 L 13.69697,5.3054173 L 13.69697,5.9592571 L 13.69697,6.613097 L 13.951931,6.9667229 C 14.381208,7.5621238 14.643961,8.1018879 14.829251,8.768955 C 14.913342,9.0716853 14.922294,9.2546169 14.953342,11.30303 C 14.971745,12.517316 14.988797,14.966991 14.991234,16.746753 L 14.995671,19.982684 L 10.580225,19.982684 L 6.1647797,19.982684 L 6.1538169,13.391775 z M 8.6277199,7.5059961 L 8.6320346,5.2241165 L 8.7943723,5.1808264 C 9.1592636,5.0835208 9.625961,5.0400307 10.152805,5.0542385 C 10.45926,5.0625035 10.709983,5.0546537 10.709974,5.0367965 C 10.709948,4.9873147 9.577645,4.9981026 9.2247424,5.0509468 C 9.053516,5.0765879 8.8173515,5.1252879 8.6999351,5.1591719 C 8.4129359,5.2419957 8.4165922,5.2432576 8.4083074,5.0584416 L 8.4010312,4.8961039 L 8.3842056,5.0558152 C 8.3677329,5.2121879 8.3572519,5.2205303 7.8828247,5.4549 C 7.343442,5.7213576 6.7845078,6.1234268 6.4242424,6.5041307 C 6.182268,6.7598316 6.2711636,6.7000996 6.6623264,6.3441502 C 6.9393312,6.0920805 7.2894074,5.8369329 7.5993784,5.6611909 C 7.8413935,5.5239771 8.436145,5.2640693 8.5081186,5.2640693 C 8.5286545,5.2640693 8.5473965,6.3306277 8.5497697,7.6341991 C 8.5521433,8.9377706 8.5696818,9.9556277 8.5887446,9.8961039 C 8.6078074,9.8365801 8.6253463,8.761032 8.6277195,7.5059974 L 8.6277199,7.5059961 z M 11.383987,5.2256857 C 11.370939,5.2045762 11.286996,5.1743169 11.197446,5.1584437 C 11.1079,5.1425697 10.995671,5.1184615 10.948052,5.104868 C 10.900433,5.0912749 10.875494,5.0949701 10.892628,5.1130797 C 10.909762,5.1311887 11.026645,5.1709134 11.152368,5.2013558 C 11.278091,5.2317983 11.386974,5.2583628 11.394329,5.2603874 C 11.401688,5.2624113 11.39703,5.246797 11.383987,5.2256866 L 11.383987,5.2256857 z"
   id="path5384" /><path
   style="fill:#00ffff"
   d="M 6.1538169,13.391775 L 6.1428571,6.8008658 L 5.9143874,7.1361814 C 5.7887312,7.3206039 5.6183264,7.5835909 5.5357121,7.7205961 L 5.3855035,7.969697 L 5.3853922,7.0792628 L 5.3852814,6.1888286 L 5.7640693,5.8213203 C 6.3699113,5.233519 6.8278857,4.91701 7.6057052,4.5485537 C 8.0838619,4.3220468 8.2771727,4.2717835 8.3327229,4.3595134 C 8.3638706,4.408703 8.3710918,4.4067113 8.3716316,4.3487874 C 8.3719965,4.309668 8.4063853,4.2643113 8.4480519,4.2479944 C 8.6351732,4.1747165 9.2671688,4.0913238 9.824013,4.0664329 C 11.03303,4.0123905 12.062983,4.2949935 13.236411,5.0027437 L 13.69697,5.2805277 L 13.69697,5.9453987 L 13.69697,6.6102723 L 13.983169,7.0085996 C 14.301048,7.4510251 14.537255,7.8951827 14.709264,8.3739351 C 14.955173,9.0583697 14.95239,8.9937515 14.982303,14.712121 L 15.009874,19.982684 L 10.587333,19.982684 L 6.1647797,19.982684 L 6.1538169,13.391775 z M 8.6295403,7.0514506 L 8.6320346,5.2241165 L 8.8160173,5.176826 C 9.0595883,5.114219 9.0994632,5.0983203 9.021645,5.0948407 C 8.9859307,5.0932433 8.8495671,5.1206952 8.7186147,5.1558442 C 8.4131961,5.2378221 8.4166377,5.2381835 8.4096892,5.1233766 L 8.4037948,5.025974 L 8.3851355,5.1226052 C 8.3711545,5.1950009 8.257813,5.273632 7.9331861,5.4361463 C 7.3896468,5.7082506 6.9331234,6.0223961 6.5614706,6.3800554 C 6.3126238,6.6195307 6.3043165,6.6319126 6.501345,6.4696558 C 7.0338922,6.0310935 7.3271667,5.8135134 7.5736,5.6741506 C 7.8298883,5.529213 8.4341165,5.2640693 8.5081186,5.2640693 C 8.5286545,5.2640693 8.5476948,6.155303 8.5504329,7.2445887 C 8.5533727,8.4139831 8.5700801,9.15419 8.5912281,9.0519481 C 8.6109273,8.95671 8.6281675,8.0564866 8.6295398,7.0514519 L 8.6295403,7.0514506 z M 11.251082,5.1774892 C 11.203463,5.1570264 11.125541,5.1408571 11.077922,5.1415571 C 11.00832,5.1425797 11.012567,5.1496264 11.099567,5.1774892 C 11.247584,5.2248922 11.361394,5.2248922 11.251082,5.1774892 z M 9.3576494,5.0611658 C 9.3162597,5.0503303 9.2383377,5.0499372 9.1844874,5.0602918 C 9.1306385,5.0706472 9.1645022,5.0795117 9.2597403,5.0799922 C 9.3549784,5.0804736 9.3990346,5.0720004 9.3576494,5.0611654 L 9.3576494,5.0611658 z M 10.396104,5.015516 C 10.23539,5.0071879 9.9724026,5.0071879 9.8116883,5.0155173 C 9.650974,5.0238481 9.7824675,5.0306615 10.103896,5.0306615 C 10.425325,5.0306615 10.556818,5.0238468 10.396104,5.0155173 L 10.396104,5.015516 z"
   id="path5386" /><path
   style="fill:#00ffff"
   d="M 6.1645022,13.424242 C 6.1645022,9.581884 6.1484177,6.8658009 6.1256632,6.8658009 C 6.0924615,6.8658009 5.8340221,7.2473411 5.480558,7.8181818 L 5.3867398,7.969697 L 5.3860108,7.0792628 L 5.3852814,6.1888286 L 5.7640693,5.8213203 C 6.3732931,5.2302385 6.8270255,4.9174177 7.6199442,4.5418087 C 7.8556403,4.4301567 8.1103745,4.3399035 8.1964429,4.3375502 C 8.2812571,4.3352307 8.375013,4.310361 8.4047909,4.282284 C 8.474297,4.2167485 8.8056039,4.1496455 9.3246753,4.0959727 C 10.901208,3.9329576 12.056299,4.2374061 13.599567,5.2227091 C 13.693576,5.2827294 13.69697,5.3078186 13.69697,5.9426922 L 13.69697,6.6004883 L 13.956489,6.9604186 C 14.259199,7.3802528 14.549563,7.925 14.709926,8.3739351 C 14.95826,9.0691481 14.954745,8.9876303 14.983139,14.712121 L 15.009286,19.982684 L 10.586892,19.982684 L 6.1645022,19.982684 L 6.1645022,13.424242 z M 8.6320346,6.7962234 L 8.6536797,5.1752935 L 8.534632,5.2014753 C 8.439545,5.2223887 8.4145736,5.2117186 8.4105628,5.1484615 C 8.4058667,5.0743784 8.4042463,5.0742394 8.3854961,5.1463056 C 8.3738182,5.1911952 8.1997667,5.3060429 7.9684398,5.4215017 C 7.4738156,5.6683758 6.9518922,6.0167459 6.6406926,6.3077355 C 6.3596,6.5705732 6.4544277,6.510839 6.8779364,6.1582887 C 7.0450706,6.0191563 7.3109004,5.8284346 7.4686675,5.7344606 C 7.7410281,5.5722299 8.420332,5.2640693 8.5055922,5.2640693 C 8.529168,5.2640693 8.5454545,5.9214779 8.5454545,6.873016 C 8.5454545,7.7579355 8.5600649,8.4673805 8.5779221,8.4495584 C 8.5957792,8.4317368 8.6201299,7.6877351 8.6320346,6.7962234 z M 8.8367615,5.1513338 C 8.8223758,5.1369498 8.7850377,5.1354121 8.7537879,5.1479173 C 8.7192541,5.1617364 8.7295117,5.1719944 8.7799424,5.1740714 C 8.8255762,5.1759524 8.8511455,5.1657195 8.8367606,5.1513346 L 8.8367615,5.1513338 z M 9.3354978,5.0622385 C 9.3057359,5.0502299 9.2570346,5.0502299 9.2272727,5.062239 C 9.1975108,5.0742485 9.2218615,5.084074 9.2813853,5.084074 C 9.3409091,5.0840745 9.3652597,5.0742481 9.3354978,5.062239 L 9.3354978,5.0622385 z M 10.245411,5.0192234 C 10.216104,5.0073654 10.157662,5.0066437 10.115541,5.0176195 C 10.073424,5.0285952 10.097403,5.0382974 10.168831,5.0391797 C 10.24026,5.0400619 10.274723,5.0310818 10.245411,5.0192234 z"
   id="path5388" /><path
   style="fill:#00ffff"
   d="M 6.1645022,14.275361 C 6.1645022,11.136331 6.1516935,8.1855857 6.1360385,7.7181476 L 6.1075758,6.8682606 L 5.93041,7.1226584 C 5.8329706,7.2625771 5.6708459,7.5104004 5.5701338,7.6733766 L 5.3870199,7.969697 L 5.3861506,7.0792628 L 5.3852814,6.1888286 L 5.7640693,5.8213203 C 6.1816905,5.4161355 6.523429,5.1468641 6.9299948,4.9026351 C 7.318681,4.6691468 7.9862225,4.3606506 8.2049147,4.3134472 C 8.3088779,4.2910061 8.494332,4.2440589 8.6170346,4.2091182 C 8.9788117,4.1060991 9.8168745,4.0379307 10.383766,4.0654126 C 11.390628,4.1142225 12.344312,4.4351545 13.339827,5.0601827 L 13.69697,5.2844117 L 13.69697,5.9424498 L 13.69697,6.6004883 L 13.958416,6.9604186 C 14.284645,7.4095403 14.653485,8.1512701 14.804723,8.6623377 C 14.916472,9.0399476 14.921082,9.0999494 14.954463,10.61039 C 14.973407,11.467532 14.990429,13.926948 14.99229,16.075758 L 14.995671,19.982684 L 10.580087,19.982684 L 6.1645022,19.982684 L 6.1645022,14.275361 z M 8.6320346,6.6043087 L 8.6536797,5.1811593 L 8.551632,5.2068281 C 8.4879307,5.2228515 8.4353087,5.2099606 8.4116009,5.172526 C 8.3846593,5.1299823 8.3734277,5.1281541 8.3729571,5.166232 C 8.3725922,5.1957537 8.1969697,5.3079636 7.982684,5.4155844 C 7.7683983,5.5232052 7.5930736,5.6195394 7.5930736,5.629661 C 7.5930736,5.6397814 7.7537879,5.5728827 7.9502165,5.4809952 C 8.146645,5.3891082 8.3609307,5.3005974 8.4264069,5.2843052 L 8.5454545,5.254684 L 8.5454545,6.673519 C 8.5454545,7.4538766 8.5600649,8.0777511 8.5779221,8.0599052 C 8.5957792,8.0420597 8.6201299,7.3870407 8.6320346,6.6043087 z M 7.1168831,5.9548182 C 7.1764069,5.904242 7.1341169,5.9251346 7.0229052,6.001245 C 6.9116939,6.0773563 6.7655896,6.1993329 6.6982299,6.2723052 C 6.5822087,6.3979957 6.703961,6.3056623 7.1168831,5.9548173 L 7.1168831,5.9548182 z M 7.5497835,5.6722784 C 7.5497835,5.6603736 7.5108225,5.6714848 7.4632035,5.6969697 C 7.4155844,5.7224545 7.3766234,5.7530463 7.3766234,5.7649511 C 7.3766234,5.7768558 7.4155844,5.7657446 7.4632035,5.7402597 C 7.5108225,5.7147749 7.5497835,5.6841831 7.5497835,5.6722784 z"
   id="path5390" /><path
   style="fill:#00ffff"
   d="M 4.0271593,15.318182 C 4.0387632,12.752706 4.0651312,10.254329 4.0857528,9.7662338 C 4.1213446,8.9238048 4.1312134,8.852639 4.2802931,8.3632957 C 4.4502212,7.805516 4.7983762,7.0671251 5.119042,6.5844156 L 5.3203463,6.2813853 L 5.3320697,7.1591684 C 5.3436952,8.0297338 5.3427152,8.0404143 5.2128918,8.4582883 C 5.1380792,8.6990909 5.0639771,9.0649368 5.0399485,9.3121074 C 5.0155078,9.5635056 5.0010372,11.421221 5.0053861,13.748918 L 5.0128667,17.753247 L 5.0412069,13.489177 L 5.0695498,9.2251082 L 5.1804411,8.8354978 C 5.3236056,8.3324931 5.4369996,8.0457541 5.6512277,7.6450216 C 5.8526216,7.2682948 5.8160481,7.2862654 5.5631225,7.6883117 L 5.386103,7.969697 L 5.3856935,7.075997 L 5.3852814,6.1822996 L 5.833771,5.7540996 C 6.080442,5.51859 6.4531247,5.2122065 6.6619558,5.0732472 C 7.1134926,4.7727905 7.9517329,4.3610104 8.1847662,4.3251801 C 8.2760022,4.3111524 8.3703104,4.2844039 8.3943403,4.2657398 C 8.4183693,4.2470758 8.6131753,4.1976848 8.8272407,4.1559814 C 9.3891775,4.0465052 10.689342,4.044371 11.164502,4.152142 C 11.939797,4.3279874 12.503805,4.5575922 13.231602,4.9936519 L 13.69697,5.2724766 L 13.69697,5.936484 L 13.69697,6.6004883 L 13.956489,6.9604186 C 14.437385,7.6273818 14.809195,8.4718203 14.908632,9.122884 C 14.941515,9.3381745 14.965494,11.151434 14.982541,14.712121 L 15.007779,19.982684 L 10.586139,19.982684 L 6.1645022,19.982684 L 6.1586974,14.798701 C 6.1555035,11.947511 6.1408931,9.0010823 6.126229,8.2510823 L 6.0995671,6.8874459 L 5.99841,7.038961 C 5.9335117,7.1361658 5.9271195,7.1569468 5.9805766,7.0969355 C 6.0630061,7.0043978 6.0642078,7.0253043 6.0925065,9.0449874 C 6.1082394,10.167862 6.1211346,13.088203 6.1211623,15.534632 L 6.1212121,19.982684 L 5.0636342,19.982684 L 4.0060558,19.982684 L 4.0271593,15.318182 z M 8.6269749,6.231326 C 8.632019,5.1887771 8.6317576,5.1856671 8.5410234,5.2093948 C 8.4877022,5.2233394 8.4341944,5.2082147 8.411816,5.1728745 C 8.3849303,5.1304177 8.3734238,5.1284351 8.3729571,5.1661835 C 8.3725922,5.1956801 8.2164502,5.2981697 8.025974,5.3939394 C 7.8354978,5.4897091 7.6796537,5.5763212 7.6796537,5.5864108 C 7.6796537,5.5965 7.8212039,5.5393558 7.9942095,5.4594221 C 8.1672152,5.3794896 8.3620203,5.3007225 8.42711,5.2843857 L 8.5454545,5.254684 L 8.552055,6.5472554 C 8.5561797,7.3547515 8.5705264,7.734229 8.5902857,7.5584416 C 8.6076827,7.4036797 8.6241918,6.8064775 8.6269749,6.2313255 L 8.6269749,6.231326 z M 6.7922078,6.2164502 C 6.8353026,6.1688312 6.8608216,6.1298701 6.8489169,6.1298701 C 6.8370113,6.1298701 6.7920126,6.1688312 6.7489177,6.2164502 C 6.7058229,6.2640693 6.6803039,6.3030303 6.6922087,6.3030303 C 6.7041143,6.3030303 6.749113,6.2640693 6.7922078,6.2164502 z M 6.9925351,6.0541126 C 7.0463823,5.9854519 7.0448511,5.9839208 6.9761905,6.037768 C 6.9345238,6.0704455 6.9004329,6.1045364 6.9004329,6.1135255 C 6.9004329,6.149155 6.9359823,6.1262229 6.9925351,6.0541126 z"
   id="path5392" /><path
   style="fill:#00ffff"
   d="M 6.0963091,7.8614719 C 6.09631,7.3495671 6.1025723,7.1401515 6.1102255,7.3961039 C 6.1178788,7.6520563 6.1178792,8.0708874 6.1102255,8.3268398 C 6.1025719,8.5827922 6.09631,8.3733766 6.09631,7.8614719 L 6.0963091,7.8614719 z"
   id="path5394" /><path
   style="fill:#00ffff"
   d=""
   id="path5396" /><path
   style="fill:#00ffff"
   d="M 4.0031312,18.75974 C 4.0133965,14.749571 4.0840026,9.1977087 4.1278909,8.9496515 C 4.2496766,8.261319 4.6609541,7.2777416 5.1119242,6.596316 L 5.3203463,6.2813853 L 5.3320221,7.1715554 C 5.3436654,8.0592013 5.3433199,8.0629481 5.2102623,8.4919026 C 5.020958,9.1021926 4.9967385,9.6461584 5.0051229,13.099567 L 5.0122165,16.021645 L 5.0417883,12.601732 C 5.0628104,10.170319 5.0861887,9.1317675 5.1226697,9.008658 C 5.2836952,8.4652615 5.4161571,8.1055541 5.5650498,7.8073593 C 5.6571848,7.6228355 5.7240398,7.4718615 5.7136169,7.4718615 C 5.7031948,7.4718615 5.6299247,7.5838745 5.5507961,7.7207792 L 5.4069264,7.969697 L 5.3938684,7.0822511 L 5.3808108,6.1948052 L 5.8376126,5.7538169 C 6.8134429,4.811768 8.0130446,4.2288074 9.2472121,4.0968831 C 10.739355,3.9373818 11.887069,4.1929247 13.21271,4.9798108 L 13.69697,5.267261 L 13.69697,5.9211827 L 13.69697,6.5751043 L 13.994377,7.0126606 C 14.492043,7.744845 14.809727,8.477803 14.909009,9.122884 C 14.942424,9.3399883 14.965909,11.121436 14.982701,14.712121 L 15.007346,19.982684 L 10.58613,19.982684 L 6.1649117,19.982684 L 6.1536771,15.556277 L 6.142445,11.12987 L 6.1318286,15.556277 L 6.1212121,19.982684 L 5.0606061,19.982684 L 4,19.982684 L 4.0031312,18.75974 z M 6.1212121,8.0320771 C 6.1212121,6.9241965 6.1059169,6.8106753 5.9891866,7.0521944 C 5.9448784,7.1438723 5.9456251,7.1442537 6.0105987,7.0631545 C 6.0719459,6.9865818 6.0779221,7.0759368 6.0779221,8.0696481 C 6.0779221,8.6694355 6.0876623,9.1601732 6.0995671,9.1601732 C 6.1114719,9.1601732 6.1212121,8.6525299 6.1212121,8.0320771 z M 8.6273368,6.0786325 L 8.6320346,5.2265286 L 8.512987,5.2128316 C 8.4137268,5.2014108 7.8528139,5.4462693 7.8528139,5.5010208 C 7.8528139,5.5091121 7.9843074,5.4596342 8.1450216,5.3910714 C 8.3057359,5.3225074 8.4615801,5.2658844 8.491342,5.2652403 C 8.5330701,5.2643377 8.5469113,5.5142364 8.551819,6.3571429 C 8.5559619,7.0687472 8.5694303,7.3595701 8.5904108,7.1904762 C 8.6081346,7.047619 8.6247519,6.5472896 8.6273364,6.0786329 L 8.6273368,6.0786325 z"
   id="path5398" /><path
   style="fill:#00ffff"
   d="M 4.0027688,18.32684 C 4.0089818,14.613471 4.0812563,9.218955 4.128403,8.9496515 C 4.2494104,8.2584502 4.6439792,7.3078087 5.0921368,6.6277056 L 5.3203463,6.2813853 L 5.3320805,7.1625242 C 5.3436342,8.0302532 5.3418221,8.0506087 5.213032,8.4998792 C 5.1411017,8.7507978 5.0845108,8.9971416 5.0872727,9.0473108 C 5.0920775,9.1346139 5.0931996,9.134813 5.1133883,9.0519481 C 5.1900974,8.7370866 5.4187913,8.0969541 5.5425623,7.8506494 C 5.7123697,7.5127329 5.7040879,7.4641671 5.5277987,7.7640693 L 5.4069264,7.969697 L 5.3951792,7.0841403 L 5.383432,6.198581 L 5.7198545,5.8578039 C 6.6858719,4.8792805 7.9822654,4.2320978 9.2472121,4.0968831 C 10.744459,3.9368359 11.922662,4.200713 13.231602,4.9892463 L 13.69697,5.2695939 L 13.697056,5.9270061 L 13.697143,6.5844156 L 13.959264,6.952381 C 14.242108,7.3494481 14.63613,8.1140372 14.773541,8.5324675 C 14.951091,9.0731225 14.957472,9.2615861 14.982749,14.712121 L 15.007195,19.982684 L 10.58613,19.982684 L 6.1650753,19.982684 L 6.1536745,16.876623 L 6.1422758,13.770563 L 6.1317442,16.876623 L 6.1212121,19.982684 L 5.0606061,19.982684 L 4,19.982684 L 4.0027688,18.32684 z M 5.0281043,11.357143 C 5.0213156,10.755952 5.015761,11.247835 5.015761,12.450216 C 5.0157623,13.652597 5.0213156,14.144481 5.0281043,13.54329 C 5.0348931,12.9421 5.0348931,11.958333 5.0281043,11.357143 z M 5.0705935,9.4510758 C 5.0615156,9.3506026 5.0541952,9.4437229 5.0543273,9.6580087 C 5.054458,9.8722944 5.0618874,9.9544987 5.0708342,9.8406853 C 5.0797814,9.7268706 5.0796732,9.5515468 5.0705944,9.4510749 L 5.0705935,9.4510758 z M 6.1102048,7.4632294 C 6.1023325,7.2417861 6.0958541,7.4112554 6.0958087,7.8398268 C 6.0957619,8.2683983 6.1022043,8.4495784 6.1101225,8.2424494 C 6.1180403,8.0353195 6.1180779,7.684671 6.1102052,7.4632286 L 6.1102048,7.4632294 z M 8.6277541,5.9242424 L 8.6320346,5.2207792 L 8.5184009,5.2207792 C 8.4091325,5.2207792 7.8782697,5.4338251 7.9095628,5.4651182 C 7.9179541,5.47351 8.0445952,5.4317069 8.190987,5.3722225 C 8.3373775,5.3127377 8.4770216,5.2640693 8.5013043,5.2640693 C 8.5297364,5.2640693 8.5476247,5.5916026 8.5515498,6.1839827 C 8.5556797,6.8073922 8.5682537,7.0271541 8.5905584,6.8658009 C 8.6086623,6.7348485 8.6253987,6.3111472 8.6277532,5.9242424 L 8.6277541,5.9242424 z"
   id="path5400" /><path
   style="fill:#00ffff"
   d="M 15.033701,19.365801 C 15.030814,19.026515 15.014385,16.58658 14.997199,13.943723 C 14.966714,9.2568139 14.963723,9.1305359 14.875723,8.8138528 C 14.670749,8.0762472 14.426121,7.5683654 13.958268,6.9090909 L 13.697143,6.5411255 L 13.702117,6.2164502 C 13.704853,6.0378788 13.719424,5.769145 13.734498,5.6192641 L 13.761905,5.3467519 L 14.067693,5.6262325 C 14.447502,5.9733658 14.789108,6.3879857 15.089476,6.8664078 L 15.320346,7.2341359 L 15.309238,13.60841 L 15.29813,19.982684 L 15.168545,19.982684 L 15.038961,19.982684 L 15.033701,19.365801 z"
   id="path5402" /><path
   style="fill:#00ffff"
   d="M 4.0025974,18.02381 C 4.0074303,14.379971 4.0789558,9.2365485 4.1287848,8.9496515 C 4.2484861,8.2604619 4.6561078,7.2778714 5.0962087,6.6176351 L 5.3203463,6.2813853 L 5.3320645,7.1574671 C 5.3435156,8.0137511 5.3408273,8.0445654 5.2130818,8.521103 C 5.0379974,9.1742268 5.0520494,9.2030082 5.2503303,8.5974026 C 5.3399779,8.3235931 5.4570766,8.014887 5.5105489,7.9113892 C 5.624513,7.6908082 5.6020303,7.6120697 5.4858762,7.8249814 C 5.4070494,7.9694732 5.4069065,7.9683177 5.3941576,7.0822511 L 5.3813896,6.1948052 L 5.8283965,5.7601424 C 6.7742554,4.8404026 7.8930892,4.2792195 9.1082251,4.1150494 C 10.63845,3.9083095 11.978087,4.2034139 13.339827,5.0472134 L 13.69697,5.268516 L 13.704346,5.818242 L 13.711723,6.3679654 L 13.736814,5.9061511 C 13.750615,5.6521537 13.773662,5.4326022 13.788039,5.4182589 C 13.84384,5.3625684 14.696208,6.3132199 14.991909,6.7609506 L 15.298701,7.2254723 L 15.298701,13.604077 L 15.298701,19.982684 L 15.169139,19.982684 L 15.03958,19.982684 L 15.028134,17.114719 L 15.016688,14.246753 L 15.006177,17.114719 L 14.995671,19.982684 L 10.580524,19.982684 L 6.1653766,19.982684 L 6.1536693,18.002165 L 6.1419615,16.021645 L 6.1315883,18.002165 L 6.1212121,19.982684 L 5.0606061,19.982684 L 4,19.982684 L 4.0025974,18.02381 z M 5.0262892,12.353319 C 5.0159338,12.29947 5.0070684,12.333333 5.0065879,12.428571 C 5.0061065,12.52381 5.0145797,12.567868 5.0254147,12.526479 C 5.0362502,12.48509 5.0366429,12.407168 5.0262883,12.353319 L 5.0262892,12.353319 z M 14.983,9.9723662 C 14.972645,9.9185173 14.963779,9.952381 14.963299,10.047619 C 14.962818,10.142857 14.97129,10.186916 14.982126,10.145526 C 14.992961,10.104137 14.993355,10.026215 14.983,9.9723662 z M 14.938931,9.0844156 C 14.928043,9.0427489 14.919134,9.0768398 14.919134,9.1601732 C 14.91913,9.2435065 14.928043,9.2775974 14.938931,9.2359307 C 14.949823,9.1942641 14.949823,9.1260823 14.938931,9.0844156 z M 14.894476,8.8463203 C 14.882463,8.8165584 14.872636,8.8409091 14.872636,8.9004329 C 14.872632,8.9599567 14.882463,8.9843074 14.894472,8.9545455 C 14.906476,8.9247835 14.906481,8.8760823 14.894472,8.8463203 L 14.894476,8.8463203 z M 14.852082,8.6758658 C 14.838264,8.641332 14.828004,8.6515896 14.825926,8.7020203 C 14.824048,8.7476541 14.834281,8.7732234 14.848667,8.7588385 C 14.863052,8.7444528 14.864589,8.7071156 14.852082,8.6758658 z M 14.731121,8.299181 C 14.70445,8.2226775 14.675056,8.1676584 14.665797,8.1769177 C 14.656537,8.1861766 14.670779,8.2563476 14.69745,8.3328524 C 14.724121,8.4093558 14.753515,8.4643762 14.762775,8.4551169 C 14.772035,8.445858 14.757792,8.375687 14.731121,8.2991823 L 14.731121,8.299181 z M 14.478442,7.7360801 C 14.381433,7.5431416 14.292684,7.3852814 14.281216,7.3852814 C 14.269753,7.3852814 14.34213,7.5501342 14.442056,7.7516208 C 14.541983,7.9531065 14.630736,8.1109671 14.639281,8.1024208 C 14.647823,8.093874 14.57545,7.9290212 14.478442,7.7360814 L 14.478442,7.7360801 z M 14.117251,7.1115957 C 13.945199,6.84901 13.687359,6.5052117 13.708476,6.5665381 C 13.733939,6.6404887 14.139766,7.2121212 14.16681,7.2121212 C 14.175779,7.2121212 14.153476,7.1668848 14.117251,7.1115957 z M 8.6277541,5.7943723 L 8.6320346,5.2207792 L 8.5295827,5.2207792 C 8.4279463,5.2207792 7.9673957,5.393081 7.9950671,5.4207524 C 8.0029987,5.4286848 8.11081,5.3966762 8.2346463,5.3496221 C 8.3584835,5.3025684 8.4790749,5.2640693 8.502629,5.2640693 C 8.5290823,5.2640693 8.5477848,5.5660952 8.5515498,6.0541126 C 8.5558896,6.616719 8.5671199,6.775613 8.5905584,6.6060606 C 8.6086623,6.4751082 8.6253987,6.1098485 8.6277532,5.7943723 L 8.6277541,5.7943723 z"
   id="path5404" /><path
   style="fill:#00ffff"
   d="M 15.313338,18.482104 C 15.329095,17.656785 15.3429,14.8175 15.344009,12.172581 L 15.346022,7.3636364 L 15.446675,7.5584416 C 15.589766,7.8353913 15.753437,8.3325641 15.867078,8.8354978 L 15.9649,9.2683983 L 15.980017,14.625541 L 15.995134,19.982684 L 15.639913,19.982684 L 15.28468,19.982684 L 15.313338,18.482104 z"
   id="path5406" /><path
   style="fill:#00ffff"
   d="M 4.0184693,15.188312 C 4.0522372,9.9953649 4.0796697,9.0534623 4.2110567,8.5757576 C 4.4021974,7.8807939 4.7134381,7.1902584 5.0890879,6.6277056 L 5.3203463,6.2813853 L 5.3320697,7.1596758 C 5.343161,7.9905043 5.3377095,8.0603017 5.2311918,8.4512935 C 5.1692593,8.6786234 5.1260671,8.8720987 5.1352069,8.8812385 C 5.1443472,8.8903797 5.2068169,8.7279814 5.2740294,8.5203567 C 5.3412437,8.3127333 5.4327312,8.0705814 5.4773381,7.9822442 C 5.5816874,7.7755935 5.5793511,7.7240541 5.4718615,7.8614719 L 5.3872074,7.969697 L 5.3862433,7.0769165 L 5.3852814,6.1841359 L 5.8325528,5.7533359 C 6.694813,4.9228307 7.6615022,4.4005437 8.7835498,4.1589589 C 9.2173541,4.0655589 10.348156,4.0274649 10.798091,4.0910965 C 11.609719,4.2058775 12.356117,4.474255 13.150996,4.9371108 L 13.675325,5.2424242 L 13.69932,5.6969697 C 13.720952,6.1068433 13.724446,6.1217338 13.734827,5.8484848 C 13.754584,5.3287039 13.753061,5.3287342 14.244017,5.8384615 C 14.485974,6.0896745 14.81668,6.4959035 14.988931,6.7534957 L 15.298701,7.2167502 L 15.307723,13.155994 L 15.31674,19.095238 L 15.34019,13.330433 C 15.353087,10.159792 15.37584,7.5534329 15.390753,7.5385255 C 15.436264,7.4930442 15.629156,8.0279004 15.788952,8.6426229 L 15.940364,9.2251082 L 15.961792,14.603896 L 15.983221,19.982684 L 15.511498,19.982684 L 15.039775,19.982684 L 15.02813,17.850649 L 15.016481,15.718615 L 15.006078,17.850649 L 14.995671,19.982684 L 10.580766,19.982684 L 6.165871,19.982684 L 6.1536506,18.781385 L 6.1414303,17.580087 L 6.1313212,18.781385 L 6.1212121,19.982684 L 5.0542515,19.982684 L 3.9872909,19.982684 L 4.0184693,15.188312 z M 14.938662,9.1087662 C 14.924844,9.0742325 14.914584,9.08449 14.912506,9.1349208 C 14.910628,9.1805545 14.920861,9.2061238 14.935247,9.191739 C 14.949632,9.1773532 14.951169,9.140016 14.938662,9.1087662 z M 14.698013,8.2395385 C 14.65526,8.1971026 14.650286,8.2020749 14.673779,8.2637719 C 14.690035,8.3064645 14.714242,8.3304913 14.727571,8.3171628 C 14.7409,8.3038329 14.727597,8.2689035 14.698013,8.2395381 L 14.698013,8.2395385 z M 14.478329,7.7357974 C 14.35555,7.4951225 14.323649,7.5094623 14.441628,7.752297 C 14.493424,7.858916 14.543234,7.9387273 14.552312,7.9296524 C 14.561385,7.9205779 14.528095,7.833342 14.478329,7.735797 L 14.478329,7.7357974 z M 13.91342,6.8225108 C 13.862558,6.7510823 13.811203,6.6926407 13.799299,6.6926407 C 13.787394,6.6926407 13.819268,6.7510823 13.87013,6.8225108 C 13.920991,6.8939394 13.972346,6.952381 13.984251,6.952381 C 13.996156,6.952381 13.964281,6.8939394 13.91342,6.8225108 z M 8.6288268,5.7077922 C 8.6319762,5.2296779 8.630255,5.2208416 8.534632,5.224197 C 8.4810606,5.2260753 8.4615801,5.2374403 8.491342,5.2494494 C 8.5309472,5.2654299 8.5469074,5.4473074 8.5508732,5.9278498 C 8.5548017,6.4039615 8.5658186,6.530874 8.5909541,6.3896104 C 8.610019,6.2824675 8.627061,5.9756494 8.628826,5.7077922 L 8.6288268,5.7077922 z M 8.2857143,5.3290043 C 8.3690476,5.296913 8.4080087,5.2700528 8.3722944,5.2693152 C 8.3365801,5.2685792 8.2489177,5.2947342 8.1774892,5.3274411 C 8.0103004,5.4039961 8.0880649,5.4051186 8.2857143,5.3290043 z"
   id="path5408" /><path
   style="fill:#00ffff"
   d="M 4.0174545,15.160214 C 4.051526,9.876703 4.0741589,9.1063987 4.2109844,8.5735377 C 4.3798541,7.9158848 4.7399442,7.1304788 5.1427996,6.5411255 L 5.3203463,6.2813853 L 5.3320697,7.1591104 C 5.3412671,7.8478576 5.3290944,8.0935511 5.2755299,8.3002623 C 5.1868926,8.6423281 5.2214026,8.6728779 5.3327403,8.3509074 C 5.3805424,8.2126697 5.4517182,8.021645 5.4909074,7.9264069 L 5.5621619,7.7532468 L 5.4746835,7.8614719 L 5.3872074,7.969697 L 5.3862433,7.0769165 L 5.3852814,6.1841359 L 5.8324156,5.753468 C 6.7285065,4.8903784 7.7707606,4.3410697 8.9134199,4.1296589 C 9.1010831,4.094939 9.5460693,4.0746636 10.082251,4.0764052 C 10.879645,4.0789961 10.982255,4.0883818 11.380952,4.1952134 C 12.017896,4.3658827 12.560771,4.5934247 13.150996,4.9371108 L 13.675325,5.2424242 L 13.699727,5.6103896 C 13.718203,5.8890264 13.726827,5.9258087 13.735238,5.7619048 C 13.756874,5.3403013 13.76542,5.3415325 14.239935,5.8345814 C 14.477017,6.080926 14.812229,6.4902108 14.984848,6.7441035 L 15.298701,7.2057268 L 15.308346,12.414552 L 15.317991,17.623377 L 15.340814,12.5945 C 15.353364,9.8286169 15.37632,7.552945 15.391827,7.5374506 C 15.436186,7.4931139 15.665485,8.1353307 15.808913,8.7056277 L 15.939567,9.2251082 L 15.965636,14.603896 L 15.991723,19.982684 L 15.515918,19.982684 L 15.040113,19.982684 L 15.028117,18.521645 L 15.016126,17.060606 L 15.005896,18.521645 L 14.995671,19.982684 L 10.581108,19.982684 L 6.1665472,19.982684 L 6.1536108,19.235931 L 6.1406745,18.489177 L 6.1309433,19.235931 L 6.1212121,19.982684 L 5.053784,19.982684 L 3.9863554,19.982684 L 4.0174545,15.160214 z M 14.47619,7.7316017 C 14.450706,7.6839827 14.420113,7.6450216 14.408208,7.6450216 C 14.396303,7.6450216 14.407416,7.6839827 14.4329,7.7316017 C 14.458385,7.7792208 14.488978,7.8181818 14.500883,7.8181818 C 14.512788,7.8181818 14.501675,7.7792208 14.47619,7.7316017 z M 8.6228978,5.5989831 C 8.6160182,5.4067091 8.5909091,5.2429169 8.5670996,5.2350017 C 8.5391325,5.2257043 8.5298126,5.4236714 8.5407688,5.7942879 C 8.5554277,6.2901961 8.5629926,6.3395385 8.5965662,6.1582701 C 8.6179281,6.0429368 8.6297762,5.7912593 8.622897,5.598984 L 8.6228978,5.5989831 z M 8.3290043,5.3073593 C 8.3647186,5.2842788 8.3744589,5.2653952 8.3506494,5.2653952 C 8.3268398,5.2653948 8.2781385,5.2842788 8.2424242,5.3073593 C 8.20671,5.3304398 8.1969697,5.3493234 8.2207792,5.3493234 C 8.2445887,5.3493238 8.29329,5.3304398 8.3290043,5.3073593 z"
   id="path5410" /><path
   style="fill:#00ffff"
   d="M 4.0162524,15.145022 C 4.0490922,9.9052108 4.074358,9.0753571 4.2175792,8.5324675 C 4.3447043,8.0505948 4.6491255,7.3460221 4.9502879,6.8366429 C 5.3536528,6.1543983 5.3420775,6.1444065 5.3414775,7.1743532 C 5.3411082,7.8064 5.3231628,8.1231667 5.2781368,8.2923593 C 5.2435823,8.4222048 5.222203,8.5353342 5.2306277,8.5437589 C 5.2390528,8.5521848 5.2995662,8.416726 5.365103,8.2427416 C 5.4306407,8.0687584 5.5022593,7.8874459 5.5242567,7.8398268 C 5.5533026,7.7769498 5.5400173,7.7828758 5.4757294,7.8614719 L 5.3872074,7.969697 L 5.3862433,7.0769165 L 5.3852814,6.1841359 L 5.8324156,5.753468 C 6.7285065,4.8903784 7.7707606,4.3410697 8.9134199,4.1296589 C 9.0966385,4.095761 9.5502121,4.0739688 10.060606,4.0745437 C 10.798606,4.075374 10.956481,4.0882693 11.316017,4.1770827 C 12.021506,4.3513524 12.778203,4.6824312 13.469697,5.1193818 L 13.69697,5.2629939 L 13.703455,5.5557407 C 13.707022,5.7167494 13.717234,5.7900433 13.726147,5.7186147 C 13.772268,5.3490515 13.75842,5.3496926 14.114026,5.7006524 C 14.488861,6.070587 14.761675,6.4030152 15.076403,6.8733152 L 15.298701,7.2055052 L 15.308078,11.37548 L 15.31745,15.545455 L 15.343268,11.541126 C 15.357468,9.3387446 15.37342,7.5270563 15.378719,7.5151515 C 15.420026,7.4223251 15.660835,8.1020636 15.834693,8.8022485 L 15.939688,9.2251082 L 15.969775,14.603896 L 15.999866,19.982684 L 15.520368,19.982684 L 15.04087,19.982684 L 15.028082,19.170996 L 15.015286,18.359307 L 15.005481,19.170996 L 14.995671,19.982684 L 10.58155,19.982684 L 6.1674325,19.982684 L 6.153516,19.517316 L 6.1395991,19.051948 L 6.1304069,19.517316 L 6.1212121,19.982684 L 5.0535723,19.982684 L 3.9859329,19.982684 L 4.0162524,15.145022 z M 8.6283303,5.8701299 C 8.6267597,5.8273134 8.6132762,5.8346866 8.5887446,5.8917749 C 8.5376052,6.0107831 8.5376052,6.0791329 8.5887446,6 C 8.6118251,5.9642857 8.6296381,5.9058442 8.628329,5.8701299 L 8.6283303,5.8701299 z M 8.5750264,5.2992424 C 8.5612074,5.2647087 8.5509494,5.2749662 8.5488723,5.325397 C 8.5469913,5.3710307 8.5572242,5.3966 8.5716091,5.3822152 C 8.5859931,5.3678294 8.5875316,5.3304922 8.5750264,5.2992424 z"
   id="path5412" /><path
   style="fill:#00ffff"
   d="M 4.0153459,15.123377 C 4.0483965,9.7015022 4.0709485,9.0320762 4.2401571,8.4501732 C 4.3860848,7.9483364 4.6744541,7.2972641 4.9706039,6.8009957 C 5.3633892,6.1427913 5.3522489,6.1279801 5.3305792,7.2795584 C 5.3203,7.8258013 5.2986333,8.3214286 5.2824299,8.3809524 C 5.2455584,8.5163978 5.2900952,8.4236896 5.4262143,8.0816463 C 5.4982203,7.9007048 5.5041866,7.8599706 5.4523827,7.9029641 C 5.3921177,7.9529779 5.3856896,7.8665892 5.3892892,7.055084 L 5.3932978,6.1515152 L 5.8546576,5.7254792 C 6.4058182,5.2165199 6.8569939,4.9011255 7.4415584,4.6161567 C 8.2199524,4.2366991 8.8042675,4.1002814 9.8051732,4.0643355 C 11.080004,4.0185532 11.962255,4.2498831 13.188268,4.9513991 L 13.696879,5.2424242 L 13.701905,5.5021645 C 13.706455,5.7375087 13.709892,5.7466126 13.738502,5.5990892 C 13.755866,5.5095407 13.778978,5.4273688 13.789866,5.4164853 C 13.837052,5.3692978 14.62981,6.2371567 14.949177,6.6856225 L 15.298701,7.1764407 L 15.309242,10.560082 L 15.319788,13.943723 L 15.331165,10.729437 C 15.337489,8.9430835 15.359286,7.5151515 15.380229,7.5151515 C 15.437268,7.5151515 15.576199,7.8660277 15.757329,8.4675325 L 15.920273,9.008658 L 15.950494,11.930736 C 15.967113,13.537879 15.983104,16.007035 15.986026,17.417749 L 15.991342,19.982684 L 15.516775,19.982684 L 15.042212,19.982684 L 15.027926,19.582251 L 15.013636,19.181818 L 15.004654,19.582251 L 14.995671,19.982684 L 10.582065,19.982684 L 6.1684576,19.982684 L 6.1533152,19.690476 L 6.1381697,19.398268 L 6.1296909,19.690476 L 6.1212121,19.982684 L 5.0534693,19.982684 L 3.9857242,19.982684 L 4.0153459,15.123377 z"
   id="path5414" /><path
   style="fill:#00ffff"
   d="M 4.0147701,15.123377 C 4.0469398,9.7427537 4.0706489,9.0278978 4.2358424,8.4578502 C 4.4315883,7.7823727 4.9232,6.7680087 5.2234913,6.4199892 L 5.3430879,6.2813853 L 5.3296286,7.2770563 C 5.3222264,7.8246753 5.3016892,8.3116883 5.2839905,8.3593074 C 5.2662922,8.4069264 5.3013221,8.3411165 5.3618359,8.2130632 C 5.4793333,7.9644238 5.4982043,7.8833714 5.4285714,7.9264069 C 5.4002407,7.9439165 5.3852814,7.6415043 5.3852814,7.0512597 L 5.3852814,6.1493593 L 5.8506494,5.7268662 C 6.8061143,4.8594351 7.7105983,4.3739082 8.7774294,4.1557719 C 9.2869004,4.0516004 10.482208,4.0285208 10.969697,4.1134433 C 11.76419,4.2518476 12.363498,4.4780307 13.187749,4.9505524 L 13.696879,5.2424242 L 13.700831,5.4588745 C 13.704749,5.6736775 13.7051,5.6742022 13.747169,5.5278126 L 13.789558,5.3803004 L 14.136558,5.7226177 C 14.50397,6.0850641 14.732788,6.362758 15.083403,6.8717165 L 15.298701,7.1842485 L 15.309147,9.7198286 L 15.319589,12.255411 L 15.33116,9.8852814 C 15.337524,8.58171 15.359645,7.5151515 15.38032,7.5151515 C 15.437576,7.5151515 15.585489,7.8872381 15.762645,8.4769017 L 15.922403,9.008658 L 15.951355,11.649351 C 15.967281,13.101732 15.982792,15.570887 15.985827,17.136364 L 15.991342,19.982684 L 15.517524,19.982684 L 15.043706,19.982684 L 15.027489,19.777056 L 15.011277,19.571429 L 15.003472,19.777056 L 14.995671,19.982684 L 10.582576,19.982684 L 6.1694801,19.982684 L 6.1529108,19.798701 L 6.136339,19.614719 L 6.128774,19.798701 L 6.1212121,19.982684 L 5.0534641,19.982684 L 3.985716,19.982684 L 4.0147701,15.123377 z"
   id="path5416" /><path
   style="fill:#00ffff"
   d="M 4.0018576,16.963203 C 4.0041074,13.309677 4.0671199,9.3349537 4.1292732,8.9261251 C 4.2189212,8.336442 4.6058346,7.3725381 5.0191693,6.7091567 C 5.3602048,6.1618126 5.3513022,6.1454814 5.3348074,7.2882312 C 5.3238048,8.0504758 5.3319974,8.2672922 5.3690632,8.1948199 C 5.4533602,8.0300004 5.4862909,7.8907342 5.4332091,7.9235407 C 5.3987489,7.944839 5.3852814,7.6985961 5.3852814,7.0472009 L 5.3852814,6.1412394 L 5.8506494,5.7207498 C 6.5927359,5.0502277 7.259932,4.6352403 8.0361299,4.3614091 C 8.7290247,4.1169658 9.0314251,4.0744571 10.060606,4.0768251 C 10.93719,4.0788424 11.016368,4.0858498 11.42145,4.1972736 C 12.010732,4.3593641 12.553593,4.5897139 13.173606,4.9407632 L 13.69697,5.2370896 L 13.698918,5.4345636 C 13.700823,5.6268835 13.702234,5.6288948 13.753035,5.5116532 L 13.805195,5.3912706 L 14.198545,5.7930381 C 14.617459,6.2209173 14.727619,6.355016 15.077247,6.8626866 L 15.298701,7.1842485 L 15.308952,8.8756727 L 15.319203,10.5671 L 15.331152,9.0411255 C 15.337723,8.2018398 15.359931,7.5151515 15.380502,7.5151515 C 15.434342,7.5151515 15.569667,7.8494004 15.757333,8.4458874 L 15.920771,8.965368 L 15.951113,11.38961 C 15.967805,12.722944 15.983684,15.20184 15.986403,16.898268 L 15.991342,19.982684 L 15.518165,19.982684 C 15.061874,19.982684 15.044312,19.979206 15.026221,19.885281 L 15.007468,19.787879 L 15.001567,19.885281 L 14.995671,19.982684 L 10.582961,19.982684 L 6.1702515,19.982684 L 6.1522186,19.863636 L 6.1341853,19.744589 L 6.1276987,19.863636 L 6.1212121,19.982684 L 5.0606061,19.982684 L 4,19.982684 L 4.0018576,16.963203 z"
   id="path5418" /><path
   style="fill:#00ffff"
   d=""
   id="path5420" /><path
   style="fill:#00ffff"
   d="M 4.0018918,16.876623 C 4.0041355,13.197268 4.0659264,9.3452693 4.1294294,8.9261251 C 4.1543433,8.7616835 4.2331723,8.4499961 4.3046052,8.2334844 C 4.4619004,7.756726 4.9345238,6.7953372 5.1578576,6.4978355 L 5.3203463,6.2813853 L 5.3419913,7.2554113 C 5.3607632,8.1001429 5.3708195,8.2099039 5.4177489,8.0822848 C 5.483097,7.9045792 5.483958,7.8921762 5.4285714,7.9264069 C 5.4002368,7.9439186 5.3852814,7.6393892 5.3852814,7.0449147 L 5.3852814,6.1366684 L 5.8452567,5.7207416 C 6.7719861,4.8827615 7.6900091,4.3874939 8.7402597,4.1589069 C 9.1642022,4.0666351 10.37842,4.0276797 10.851983,4.0911558 C 11.597221,4.1910481 12.337156,4.4632922 13.209957,4.9587242 L 13.69697,5.2351714 L 13.698502,5.4119567 C 13.699948,5.578358 13.703268,5.5829208 13.755061,5.4896203 C 13.808771,5.3928641 13.820394,5.4011351 14.241827,5.8359407 C 14.479281,6.0809359 14.814221,6.4817277 14.986134,6.7265905 L 15.298701,7.1717957 L 15.308671,8.3283221 L 15.318632,9.4848485 L 15.331126,8.5 C 15.337996,7.9583333 15.360333,7.5151515 15.380762,7.5151515 C 15.431632,7.5151515 15.562195,7.8315948 15.755848,8.4242424 L 15.918524,8.9220779 L 15.949961,11.21645 C 15.967251,12.478355 15.983636,14.966991 15.986372,16.746753 L 15.991342,19.982684 L 15.518758,19.982684 C 15.181199,19.982684 15.039939,19.967223 15.024342,19.928571 C 15.00687,19.885281 15.001823,19.885281 14.999087,19.928571 C 14.996377,19.971485 14.082472,19.982684 10.5831,19.982684 L 6.1705238,19.982684 L 6.1517641,19.885281 L 6.1330017,19.787879 L 6.1271069,19.885281 L 6.1212121,19.982684 L 5.0606061,19.982684 L 4,19.982684 L 4.0018918,16.876623 z"
   id="path5422" /><path
   style="fill:#00ffff"
   d="M 4.0017571,16.811688 C 4.0038355,13.060462 4.0647333,9.2915078 4.1294355,8.9097095 C 4.1547965,8.7600498 4.2250437,8.4775823 4.2855377,8.2820039 C 4.4199753,7.8473597 4.9351225,6.7932169 5.1574377,6.4978355 L 5.3203463,6.2813853 L 5.3320459,7.1796537 C 5.3426117,7.9906926 5.3712225,8.2032316 5.4442264,8.012987 C 5.4579312,7.9772727 5.4502749,7.9480519 5.427213,7.9480519 C 5.4014983,7.9480519 5.3852814,7.5972706 5.3852814,7.0410645 L 5.3852814,6.1340766 L 5.842255,5.7214446 C 6.768481,4.8850948 7.6858537,4.3902338 8.7402597,4.1581667 C 9.1590052,4.0660026 10.374996,4.0274844 10.851983,4.0912727 C 11.601641,4.1915273 12.322511,4.4561515 13.219736,4.9604515 C 13.689126,5.2242823 13.69697,5.2312515 13.69697,5.3845242 C 13.69697,5.5219472 13.703532,5.5313831 13.752519,5.46439 C 13.802714,5.3957437 13.849827,5.4314433 14.241485,5.8349039 C 14.479866,6.0804688 14.815255,6.4798221 14.986801,6.7223558 L 15.298701,7.1633273 L 15.308273,7.9777662 L 15.317848,8.7922078 L 15.331095,8.1504641 C 15.341035,7.668997 15.357563,7.5129688 15.397281,7.5257307 C 15.426394,7.5350866 15.557069,7.8530922 15.687671,8.2324095 L 15.925121,8.9220779 L 15.953277,11.064935 C 15.968762,12.243506 15.983662,14.731861 15.986385,16.594612 L 15.991342,19.981432 L 11.081147,19.982314 C 6.4344468,19.983148 6.169884,19.979116 6.1511022,19.907182 C 6.1322745,19.835066 6.1309978,19.835053 6.1262338,19.906926 C 6.1215957,19.976878 6.0399342,19.982684 5.0606061,19.982684 L 4,19.982684 L 4.0017571,16.811688 z"
   id="path5424" /><path
   style="fill:#00ffff"
   d="M 4.0016489,16.681818 C 4.0035385,12.90078 4.0627602,9.3077545 4.1297524,8.9097095 C 4.1982506,8.5027203 4.3735814,7.9807299 4.6127126,7.4718615 C 4.8308169,7.0077342 5.2499537,6.3030303 5.3078961,6.3030303 C 5.3255745,6.3030303 5.3458156,6.6585498 5.3528766,7.0930736 L 5.3657156,7.8831169 L 5.3754974,7.0096087 L 5.3852814,6.1361004 L 5.7780043,5.7758424 C 6.3320939,5.2675545 6.8399312,4.9139095 7.4415584,4.6173835 C 8.2838407,4.2022442 8.7386442,4.0976329 9.8441558,4.0647459 C 11.152779,4.0258165 11.918792,4.2299139 13.231602,4.9673 C 13.663385,5.2098264 13.69697,5.2381602 13.69697,5.3599056 C 13.69697,5.4650779 13.708554,5.4815052 13.755342,5.4426753 C 13.836632,5.375213 14.573736,6.1394277 14.986766,6.7193918 L 15.298701,7.1573983 L 15.307684,7.7367065 C 15.315251,8.2244727 15.318926,8.2527394 15.330957,7.9155844 C 15.338814,7.6953463 15.361593,7.5151515 15.381576,7.5151515 C 15.433229,7.5151515 15.564494,7.8401173 15.771567,8.4806563 L 15.950749,9.0349056 L 15.978156,14.508795 L 16.005558,19.982684 L 11.088641,19.982684 C 7.1956065,19.982684 6.1671701,19.971416 6.1498823,19.928571 C 6.1324139,19.885281 6.1273641,19.885281 6.1246299,19.928571 C 6.1219931,19.970296 5.8784082,19.982684 5.0606061,19.982684 L 4,19.982684 L 4.0016489,16.681818 z M 5.4285714,8.012987 C 5.4285714,7.9772727 5.4097022,7.9480519 5.3866398,7.9480519 C 5.3635784,7.9480519 5.3559216,7.9772727 5.3696264,8.012987 C 5.3833316,8.0487013 5.4022004,8.0779221 5.411558,8.0779221 C 5.4209152,8.0779221 5.4285714,8.0487013 5.4285714,8.012987 z"
   id="path5426" /><path
   style="fill:#00ffff"
   d="M 4.0016065,16.638528 C 4.0034377,12.821516 4.0617814,9.3109823 4.1301104,8.9063615 C 4.2066039,8.4533926 4.4167645,7.8624494 4.7036459,7.2936541 C 4.9788117,6.7480879 5.2500658,6.3030303 5.3074121,6.3030303 C 5.3248706,6.3030303 5.3453701,6.5221861 5.3529649,6.7900433 L 5.3667753,7.2770563 L 5.3760281,6.7065784 L 5.3852814,6.1361004 L 5.7780043,5.7758424 C 6.3320939,5.2675545 6.8399312,4.9139095 7.4415584,4.6173835 C 8.2838407,4.2022442 8.7386442,4.0976329 9.8441558,4.0647459 C 11.170364,4.0252931 11.91645,4.2269814 13.274892,4.9921645 C 13.663,5.2107779 13.69697,5.2404251 13.69697,5.3605169 C 13.69697,5.4658087 13.708394,5.481639 13.755922,5.4421948 C 13.802693,5.4033775 13.907788,5.4897913 14.26458,5.8604468 C 14.511918,6.1173948 14.845316,6.512026 15.005459,6.7374052 L 15.296636,7.1471861 L 15.305675,7.5584416 C 15.311519,7.824155 15.320377,7.8882675 15.330714,7.7396035 C 15.341394,7.58599 15.363913,7.5151338 15.398463,7.5264299 C 15.426931,7.5357346 15.563255,7.8730442 15.701416,8.2760039 L 15.95261,9.008658 L 15.978957,14.495671 L 16.005303,19.982684 L 11.088511,19.982684 C 7.195581,19.982684 6.1671701,19.971416 6.1498823,19.928571 C 6.1324139,19.885281 6.1273641,19.885281 6.1246299,19.928571 C 6.1219931,19.970296 5.8784082,19.982684 5.0606061,19.982684 L 4,19.982684 L 4.0016065,16.638528 z M 5.4148532,7.9832251 C 5.4010342,7.9486913 5.3907762,7.9589489 5.3886991,8.0093797 C 5.3868182,8.0550134 5.3970511,8.0805827 5.4114359,8.0661978 C 5.4258199,8.0518121 5.4273584,8.0144749 5.4148532,7.9832251 z"
   id="path5428" /><path
   style="fill:#f4d7d7"
   d="M 4.0013476,16.573147 C 4.0030558,12.252115 4.0588823,9.2595926 4.1460991,8.8138528 C 4.2371004,8.3487762 4.4465758,7.7823468 4.7304433,7.2337662 C 4.9922896,6.7277424 5.2553152,6.3030303 5.3068524,6.3030303 C 5.324003,6.3030303 5.3448502,6.4345238 5.3531797,6.5952381 C 5.367642,6.8742684 5.3687061,6.8705043 5.3768026,6.5117732 L 5.3852814,6.1361004 L 5.7640693,5.7891749 C 6.2414922,5.3519121 6.4392264,5.1991866 6.9082645,4.9054238 C 7.8848797,4.2937615 8.784739,4.0519481 10.084307,4.0519481 C 11.239104,4.0519481 12.103498,4.3113143 13.361472,5.0352775 C 13.640078,5.1956156 13.69697,5.2468519 13.69697,5.3374247 C 13.69697,5.4126182 13.71561,5.4393394 13.756991,5.4234606 C 13.844255,5.3899727 14.574814,6.1531861 14.967935,6.688532 L 15.298701,7.1389688 L 15.305186,7.4461078 C 15.308753,7.6150342 15.319788,7.6996753 15.32971,7.6341991 C 15.371883,7.3557853 15.452957,7.5049879 15.759004,8.4242424 L 15.953567,9.008658 L 15.97916,14.495811 L 16.004753,19.982964 L 10.002377,19.982377 L 4,19.981791 L 4.0013476,16.573147 z"
   id="path13120" /><path
   style="fill:#f4d7d7"
   d="M 4.0015087,18.564935 C 4.0047,15.563725 4.0848048,9.7629515 4.1301857,9.2467532 C 4.1846407,8.6273528 4.3517649,8.0579961 4.6702377,7.4069264 C 4.9195926,6.8971576 5.2551061,6.3315853 5.2884065,6.3648857 C 5.3028887,6.3793701 5.3281732,6.4736489 5.3445918,6.574397 C 5.3709346,6.7360372 5.3750814,6.7215632 5.3798628,6.4513091 L 5.3852814,6.1450416 L 5.8939394,5.7047221 C 7.2893593,4.4967723 8.3482489,4.08589 10.060606,4.0879247 C 10.83571,4.0888459 11.221866,4.1442104 11.813398,4.3392307 C 12.561277,4.5857952 13.63681,5.160129 13.681095,5.336581 C 13.694558,5.3902299 13.740303,5.4451485 13.782745,5.458619 C 13.905433,5.4975597 14.59981,6.240319 14.964779,6.7230195 C 15.28997,7.1531087 15.298701,7.1710714 15.298701,7.4101381 C 15.298701,7.6164043 15.308446,7.6475351 15.359706,7.6049952 C 15.410087,7.5631805 15.443052,7.6131225 15.549074,7.8919022 C 15.619675,8.0775463 15.736615,8.4145022 15.808935,8.6406926 L 15.940429,9.0519481 L 15.966186,14.517316 L 15.991939,19.982684 L 9.9959697,19.982684 L 4,19.982684 L 4.0015087,18.564935 z"
   id="path13122" /><path
   style="fill:#f4d7d7"
   d="M 4.0012394,18.218615 C 4.0033498,15.209737 4.0810636,9.8150818 4.1304844,9.2467532 C 4.1883602,8.5812082 4.4032307,7.8921199 4.7631177,7.2179156 C 5.0647026,6.6529359 5.2592584,6.3357377 5.2871216,6.3636009 C 5.2990117,6.37549 5.3239658,6.4495169 5.3425784,6.5281061 C 5.3713848,6.6497359 5.3770784,6.6315697 5.3808502,6.4059913 L 5.3852814,6.1409887 L 5.8722944,5.7183108 C 7.2718996,4.5035961 8.3376498,4.088639 10.060606,4.0875619 C 11.095169,4.0869152 11.793346,4.2506576 12.722944,4.7119545 C 13.079437,4.8888584 13.65368,5.230926 13.65368,5.2663797 C 13.65368,5.2823797 13.883416,5.5270398 14.164199,5.8100719 C 14.444987,6.0931035 14.815117,6.5127913 14.98671,6.7427113 C 15.280251,7.1360264 15.298701,7.1740602 15.298701,7.385871 C 15.298701,7.5614987 15.312082,7.6058597 15.359563,7.5876403 C 15.434095,7.5590394 15.524792,7.7650667 15.765965,8.5108225 L 15.940961,9.0519481 L 15.969377,14.517316 L 15.997792,19.982684 L 9.9989004,19.982684 L 4,19.982684 L 4.0012394,18.218615 z"
   id="path13124" /><path
   style="fill:#f4d7d7"
   d="M 4.0171082,15.729437 C 4.0487281,11.355281 4.0949874,9.2891554 4.1714398,8.8363719 C 4.2701879,8.2515437 4.741242,7.1368758 5.1484571,6.5244268 L 5.2746939,6.334568 L 5.3280351,6.4594918 C 5.3797052,6.5805022 5.3814377,6.577429 5.383329,6.3613805 L 5.3852814,6.1383463 L 5.8722944,5.7149658 C 6.9211251,4.8031749 7.8405216,4.332781 8.915274,4.1580766 C 9.5690866,4.0517957 10.653887,4.0621788 11.226563,4.1801965 C 11.906121,4.3202416 12.682693,4.6416714 13.350649,5.0593775 C 13.670892,5.2596424 14.571983,6.1884078 15.019242,6.7792208 C 15.280996,7.1249905 15.297827,7.1611749 15.298251,7.3790905 C 15.298602,7.5604247 15.311974,7.6059017 15.359563,7.5876403 C 15.433909,7.5591104 15.523788,7.7628896 15.766745,8.5108225 L 15.942519,9.0519481 L 15.972446,14.517316 L 16.002372,19.982684 L 9.994368,19.982684 L 3.9863636,19.982684 L 4.0171082,15.729437 z"
   id="path13126" /><path
   style="fill:#f4d7d7"
   d="M 4.0163208,15.676921 C 4.0504571,10.83346 4.0926792,9.2072108 4.1975082,8.6981883 C 4.3171524,8.1172281 4.7521558,7.1241762 5.1510277,6.5214403 C 5.2707061,6.3405926 5.2708996,6.3405048 5.326526,6.4407597 C 5.378339,6.534142 5.3823199,6.5269675 5.3837472,6.3376216 L 5.3852814,6.134116 L 5.8722944,5.712955 C 6.6613351,5.0306035 7.3629766,4.6037983 8.1035879,4.3556706 C 8.6929463,4.1582169 9.1685779,4.0907558 9.995671,4.0873074 C 10.768333,4.0840866 11.202351,4.1400234 11.781281,4.3174433 C 12.117,4.420329 12.932658,4.7983545 13.298667,5.0206926 C 13.619429,5.2155476 14.460939,6.0672134 14.931459,6.6731939 C 15.274623,7.1151563 15.298701,7.1596844 15.298701,7.3523048 C 15.298701,7.4984844 15.316039,7.5584416 15.358307,7.5584416 C 15.429922,7.5584416 15.534061,7.7956996 15.767299,8.4902861 L 15.9421,9.0108749 L 15.973485,14.496781 L 16.004861,19.982684 L 9.9954156,19.982684 L 3.9859723,19.982684 L 4.0163208,15.676921 z"
   id="path13128" /><path
   style="fill:#f4d7d7"
   d="M 4.0163208,15.676921 C 4.0504571,10.83346 4.0926792,9.2072108 4.1975082,8.6981883 C 4.3171524,8.1172281 4.7521558,7.1241762 5.1510277,6.5214403 C 5.2707061,6.3405926 5.2708996,6.3405048 5.326526,6.4407597 C 5.378339,6.534142 5.3823199,6.5269675 5.3837472,6.3376216 L 5.3852814,6.134116 L 5.8722944,5.712955 C 6.6613351,5.0306035 7.3629766,4.6037983 8.1035879,4.3556706 C 8.6929463,4.1582169 9.1685779,4.0907558 9.995671,4.0873074 C 10.768333,4.0840866 11.202351,4.1400234 11.781281,4.3174433 C 12.117,4.420329 12.932658,4.7983545 13.298667,5.0206926 C 13.619429,5.2155476 14.460939,6.0672134 14.931459,6.6731939 C 15.274623,7.1151563 15.298701,7.1596844 15.298701,7.3523048 C 15.298701,7.4984844 15.316039,7.5584416 15.358307,7.5584416 C 15.429922,7.5584416 15.534061,7.7956996 15.767299,8.4902861 L 15.9421,9.0108749 L 15.973485,14.496781 L 16.004861,19.982684 L 9.9954156,19.982684 L 3.9859723,19.982684 L 4.0163208,15.676921 z"
   id="path13130" /><path
   style="fill:#f4d7d7"
   d="M 4.0151242,15.599567 C 4.0474225,10.785339 4.088519,9.2273987 4.1971234,8.7000511 C 4.3145745,8.1297528 4.724974,7.1795424 5.1288091,6.5428983 C 5.2567974,6.3411242 5.2685983,6.3331649 5.325132,6.4104797 C 5.3800139,6.4855342 5.3852814,6.4769584 5.3852814,6.3125792 C 5.3852814,6.1395273 5.4010797,6.118561 5.7857143,5.7811537 C 6.8498935,4.8476403 7.7929874,4.351929 8.8703195,4.1598177 C 9.3373723,4.0765333 10.586325,4.0626225 11.034632,4.1357134 C 11.705264,4.2450515 12.786831,4.6778706 13.393723,5.079768 C 13.681498,5.2703398 14.686827,6.3206108 15.041173,6.8008658 C 15.25639,7.0925584 15.296853,7.175868 15.297697,7.3290177 C 15.298286,7.4350896 15.323121,7.5252732 15.357316,7.545468 C 15.445,7.5972541 15.502506,7.7254234 15.736494,8.39059 L 15.949801,8.9969688 L 15.97771,14.489826 L 16.005619,19.982684 L 9.995671,19.982684 L 3.985716,19.982684 L 4.0151242,15.599567 z"
   id="path13132" /><path
   style="fill:#f4d7d7"
   d="M 4.0151926,15.556277 C 4.0471346,10.752931 4.0875411,9.2321571 4.1973961,8.6987312 C 4.314174,8.1316827 4.7253355,7.1789701 5.1256009,6.5479567 C 5.236,6.3739134 5.269319,6.3472615 5.3219242,6.3909199 C 5.3755013,6.4353835 5.3852814,6.4199645 5.3852814,6.2910299 C 5.3852814,6.1620195 5.4207139,6.1062489 5.6155519,5.9285861 C 6.7464771,4.8973554 7.7343558,4.3599515 8.8701299,4.1581022 C 9.390961,4.0655411 10.690238,4.0631316 11.149511,4.1538762 C 11.833667,4.2890532 12.795043,4.6860433 13.393939,5.0806887 C 13.680061,5.2692294 14.684879,6.317829 15.042294,6.8008658 C 15.245797,7.0758944 15.298563,7.1799675 15.298623,7.3064316 C 15.298667,7.394016 15.325394,7.4923719 15.358022,7.5249987 C 15.4559,7.622871 15.537775,7.8103606 15.750736,8.4242424 L 15.953472,9.008658 L 15.979364,14.495671 L 16.005247,19.982684 L 9.9955022,19.982684 L 3.9857584,19.982684 L 4.0151926,15.556277 z"
   id="path13134" /><path
   style="fill:#f4d7d7"
   d="M 4.0145506,15.512987 C 4.0450152,10.762378 4.0860316,9.2395165 4.1981866,8.6949048 C 4.2837766,8.279284 4.4937558,7.7286719 4.7767013,7.177903 C 5.0947312,6.5588442 5.2400874,6.3431576 5.3188866,6.3733952 C 5.3695684,6.3928446 5.3852814,6.3677667 5.3852814,6.2674216 C 5.3852814,6.1585532 5.4416381,6.0852459 5.7133273,5.8407121 C 6.6904931,4.9612139 7.6268926,4.4341615 8.6250325,4.2018602 C 9.3089654,4.0426866 10.685749,4.0401541 11.359307,4.1968325 C 11.953896,4.3351433 12.869121,4.7323606 13.39384,5.079842 C 13.679251,5.2688524 14.685554,6.3186472 15.037212,6.794245 C 15.23155,7.0570753 15.293385,7.1782866 15.310476,7.3299022 C 15.322623,7.4376779 15.351446,7.538061 15.374528,7.5529732 C 15.445887,7.5990805 15.5401,7.8171 15.751035,8.4242424 L 15.954078,9.008658 L 15.973035,13.662338 C 15.983468,16.221861 15.999909,18.691017 16.009567,19.149351 L 16.027134,19.982684 L 10.006511,19.982684 L 3.9858853,19.982684 L 4.0145506,15.512987 z"
   id="path13136" /><path
   style="fill:#f4d7d7"
   d=""
   id="path13138" /><path
   style="fill:#f4d7d7"
   d=""
   id="path13140" /><path
   style="fill:#f4d7d7"
   d="M 3.9878351,17.569274 C 4.0014788,14.095253 4.0774532,9.6929987 4.1333325,9.1385281 C 4.1917831,8.5585532 4.3803294,7.9646693 4.7230494,7.2810424 C 5.0554333,6.618032 5.2368268,6.3419061 5.3192169,6.3735221 C 5.3690645,6.3926511 5.3852814,6.3681173 5.3852814,6.2735671 C 5.3852814,6.1804584 5.4381182,6.0978775 5.5909091,5.9521818 C 6.6206455,4.9702658 7.734739,4.3556216 8.8465338,4.1560589 C 9.3756797,4.0610784 10.657831,4.0609294 11.154758,4.1557896 C 11.830974,4.2848753 12.785139,4.6771074 13.377048,5.0693156 C 13.680636,5.2704779 14.683502,6.3126372 15.043316,6.8008658 C 15.194654,7.0062165 15.29858,7.1913792 15.298623,7.2557558 C 15.298667,7.3154701 15.350632,7.4615727 15.414108,7.5804312 C 15.47758,7.6992905 15.62419,8.0595238 15.739913,8.3809524 L 15.950312,8.965368 L 15.970983,12.645022 C 15.982351,14.668831 16.000485,17.147727 16.011277,18.15368 L 16.0309,19.982684 L 10.004628,19.982694 L 3.978355,19.982708 L 3.9878351,17.569274 z"
   id="path13142" /><path
   style="fill:#f4d7d7"
   d="M 3.9893784,17.482692 C 4.0047052,14.006152 4.0789333,9.6563165 4.1317667,9.1385281 C 4.1560606,8.9004329 4.2330498,8.519787 4.3028528,8.2926485 C 4.5092459,7.6210429 5.1793723,6.3306229 5.3080528,6.3569952 C 5.3374939,6.363029 5.3686212,6.3192641 5.377226,6.2597403 C 5.3967494,6.1246935 5.4856805,6.0270948 5.9481299,5.6331987 C 6.7498368,4.9503364 7.6432883,4.452387 8.4328909,4.2483589 C 9.2325567,4.0417299 10.624589,4.0189779 11.380952,4.2001727 C 11.962385,4.3394593 12.836935,4.7155351 13.329004,5.0378762 C 13.918987,5.424355 15.298537,6.9828771 15.298792,7.2632113 C 15.298844,7.318445 15.354987,7.4707792 15.42355,7.6017316 C 15.492113,7.732684 15.636532,8.0844039 15.744485,8.3833312 L 15.940758,8.9268364 L 15.966121,11.024023 C 15.980074,12.177477 16.002277,14.665043 16.015472,16.551948 L 16.039459,19.982684 L 10.008909,19.982692 L 3.978355,19.982703 L 3.9893784,17.482692 z"
   id="path13144" /><path
   style="fill:#f4d7d7"
   d="M 3.9893784,17.482692 C 4.0047052,14.006152 4.0789333,9.6563165 4.1317667,9.1385281 C 4.1560606,8.9004329 4.2330498,8.519787 4.3028528,8.2926485 C 4.5092459,7.6210429 5.1793723,6.3306229 5.3080528,6.3569952 C 5.3374939,6.363029 5.3686212,6.3192641 5.377226,6.2597403 C 5.3967494,6.1246935 5.4856805,6.0270948 5.9481299,5.6331987 C 6.7498368,4.9503364 7.6432883,4.452387 8.4328909,4.2483589 C 9.2325567,4.0417299 10.624589,4.0189779 11.380952,4.2001727 C 11.962385,4.3394593 12.836935,4.7155351 13.329004,5.0378762 C 13.918987,5.424355 15.298537,6.9828771 15.298792,7.2632113 C 15.298844,7.318445 15.354987,7.4707792 15.42355,7.6017316 C 15.492113,7.732684 15.636532,8.0844039 15.744485,8.3833312 L 15.940758,8.9268364 L 15.966121,11.024023 C 15.980074,12.177477 16.002277,14.665043 16.015472,16.551948 L 16.039459,19.982684 L 10.008909,19.982692 L 3.978355,19.982703 L 3.9893784,17.482692 z"
   id="path13146" /><path
   style="fill:#ffd5d5"
   d="M 3.9893784,17.482692 C 4.0047052,14.006152 4.0789333,9.6563165 4.1317667,9.1385281 C 4.1560606,8.9004329 4.2330498,8.519787 4.3028528,8.2926485 C 4.5092459,7.6210429 5.1793723,6.3306229 5.3080528,6.3569952 C 5.3374939,6.363029 5.3686212,6.3192641 5.377226,6.2597403 C 5.3967494,6.1246935 5.4856805,6.0270948 5.9481299,5.6331987 C 6.7498368,4.9503364 7.6432883,4.452387 8.4328909,4.2483589 C 9.2325567,4.0417299 10.624589,4.0189779 11.380952,4.2001727 C 11.962385,4.3394593 12.836935,4.7155351 13.329004,5.0378762 C 13.918987,5.424355 15.298537,6.9828771 15.298792,7.2632113 C 15.298844,7.318445 15.354987,7.4707792 15.42355,7.6017316 C 15.492113,7.732684 15.636532,8.0844039 15.744485,8.3833312 L 15.940758,8.9268364 L 15.966121,11.024023 C 15.980074,12.177477 16.002277,14.665043 16.015472,16.551948 L 16.039459,19.982684 L 10.008909,19.982692 L 3.978355,19.982703 L 3.9893784,17.482692 z"
   id="path13148" /><path
   style="fill:#ffd5d5"
   d="M 3.9759848,17.201299 C 4.0209675,12.791954 4.0824844,9.5988693 4.1316879,9.1193913 C 4.1602459,8.8411048 4.2309169,8.512632 4.3221632,8.2340814 C 4.547297,7.5468087 5.1203043,6.4417957 5.3019745,6.3445684 C 5.3477931,6.3200472 5.3852814,6.2646736 5.3852814,6.2215169 C 5.3852814,6.0805866 6.1870554,5.3821052 6.8063429,4.9835277 C 7.290555,4.6718861 7.9722541,4.3636186 8.4390727,4.2452004 C 9.3272381,4.0198996 10.738082,4.0172697 11.532468,4.2394359 C 12.171208,4.4180723 13.091801,4.8375909 13.463,5.1191874 C 13.536697,5.1750935 13.821853,5.4497203 14.096684,5.7294662 C 14.859,6.5054221 15.2601,7.0199416 15.32,7.2987013 C 15.337909,7.3820346 15.390532,7.525219 15.436944,7.6168892 C 15.483359,7.708558 15.618095,8.0366052 15.736364,8.345881 L 15.95139,8.9082009 L 15.991853,12.356698 C 16.014113,14.253371 16.03284,16.74513 16.033476,17.893939 L 16.034632,19.982684 L 9.9911212,19.982684 L 3.94761,19.982684 L 3.9759848,17.201299 z"
   id="path13444" /><path
   style="fill:#ffd5d5"
   d="M 3.9746983,17.028139 C 4.0167818,12.767234 4.0811983,9.5513446 4.1339368,9.0783818 C 4.1872303,8.6004468 4.3249455,8.1366476 4.5865597,7.5540381 C 4.8072134,7.0626511 5.168216,6.4420918 5.2951879,6.3359216 C 5.3447403,6.2944887 5.3852814,6.2341416 5.3852814,6.2018186 C 5.3852814,6.086381 6.2498645,5.3373303 6.7601883,5.0106385 C 6.8849407,4.9307758 6.987013,4.8447368 6.987013,4.8194411 C 6.987013,4.7941468 6.998168,4.7846039 7.0118017,4.7982377 C 7.0254355,4.8118701 7.2565126,4.7172758 7.5253061,4.5880251 C 7.7995606,4.4561489 8.1989939,4.3061013 8.4355372,4.246097 C 9.3091299,4.0244909 10.700035,4.0139589 11.493805,4.2229385 C 11.939918,4.340387 12.585316,4.6086026 13.076251,4.8805714 C 13.419766,5.0708745 13.568519,5.1927446 14.042004,5.6718082 C 14.86116,6.5006126 15.198636,6.93279 15.346212,7.3419913 C 15.384853,7.4491342 15.536926,7.8439913 15.684156,8.2194519 L 15.951844,8.9021082 L 15.992043,11.747591 C 16.014152,13.312606 16.032779,15.805736 16.033437,17.287879 L 16.034632,19.982684 L 9.9900736,19.982684 L 3.9455177,19.982684 L 3.9746983,17.028139 z"
   id="path13446" /><path
   style="fill:#ffd5d5"
   d="M 4.0467091,9.481242 C 4.0487848,9.4308104 4.0590429,9.4205528 4.0728619,9.4550866 C 4.0853671,9.4863364 4.0838294,9.5236745 4.0694446,9.5380593 C 4.0550589,9.5524433 4.0448281,9.5268758 4.0467078,9.4812411 L 4.0467091,9.481242 z"
   id="path13448" /><path
   style="fill:#ffd5d5"
   d="M 4.0584169,9.8961039 C 4.058416,9.6937229 4.0658732,9.6109307 4.0749874,9.7121212 C 4.0841,9.8133117 4.0841013,9.9788961 4.0749874,10.080087 C 4.0658719,10.181277 4.058416,10.098485 4.058416,9.8961039 L 4.0584169,9.8961039 z"
   id="path13450" /></svg>