<?xml version="1.0" encoding="UTF-8"?>
<!DOCTYPE svg PUBLIC "-//W3C//DTD SVG 1.1 Tiny//EN" "http://www.w3.org/Graphics/SVG/1.1/DTD/svg11-tiny.dtd">
<svg baseProfile="tiny" height="30px" version="1.1" viewBox="0 0 30 30" width="30px" x="0px" xmlns="http://www.w3.org/2000/svg" xmlns:xlink="http://www.w3.org/1999/xlink" y="0px">
<rect fill="none" height="30" width="30"/>
<path d="M10.611,11.199c-0.307,0-0.617-0.094-0.881-0.289c-0.652-0.479-0.785-1.387-0.299-2.029l1.998-2.625  c0.488-0.641,1.412-0.771,2.064-0.293c0.65,0.48,0.783,1.389,0.297,2.029l-1.998,2.627C11.504,10.998,11.061,11.199,10.611,11.199  L10.611,11.199z"/>
<path d="M27.576,18.043h-4.74l-1.639-5.9L16.824,8.32l-3.979,0.141c-0.801,0.01-1.445-0.576-1.473-1.35  c-0.027-0.771,0.584-1.42,1.371-1.447l5.118-0.18l5.859,5.121l1.287,4.637h2.566c0.785,0,1.424,0.627,1.424,1.4  C28.998,17.415,28.361,18.043,27.576,18.043L27.576,18.043z"/>
<path d="M10.266,18.777l-0.539-1.771c-0.297-1.66,0.633-3.42,2.766-5.232c0.646-0.549,2.512-2.381,3.532-3.408l2.326-2.33  l4.746,4.572l-2.326,2.332c-0.291,0.289-2.871,2.872-3.938,3.777c-0.143,0.121-0.262,0.229-0.357,0.32l0.205,1.237l-5.5,1  L10.266,18.777z"/>
<circle cx="25" cy="5" r="4"/>
<path d="M11.584,29c-0.572,0-1.141-0.244-1.537-0.719c-0.707-0.85-0.592-2.111,0.256-2.818l4.965-4.135l-3.303-3.965  c-0.707-0.848-0.594-2.109,0.256-2.816c0.848-0.707,2.109-0.592,2.816,0.256l4.582,5.5c0.707,0.85,0.594,2.111-0.256,2.818  l-6.5,5.416C12.49,28.848,12.035,29,11.584,29L11.584,29z"/>
<path d="M3.002,28.084c-0.578,0-1.152-0.25-1.549-0.732c-0.699-0.854-0.574-2.115,0.279-2.813l6.988-5.726l2.361-4.278  c0.533-0.967,1.75-1.316,2.719-0.783c0.967,0.533,1.318,1.75,0.783,2.717l-2.547,4.615c-0.123,0.224-0.287,0.42-0.482,0.58  l-7.287,5.969C3.896,27.936,3.447,28.084,3.002,28.084L3.002,28.084z"/>
</svg>
