<?xml version="1.0" encoding="UTF-8"?>
<!DOCTYPE svg PUBLIC "-//W3C//DTD SVG 1.1 Tiny//EN" "http://www.w3.org/Graphics/SVG/1.1/DTD/svg11-tiny.dtd">
<svg baseProfile="tiny" height="60" viewBox="0 0 60 60" width="60" xmlns="http://www.w3.org/2000/svg" xmlns:xlink="http://www.w3.org/1999/xlink">
<g>
<linearGradient gradientTransform="matrix(0.2118 0.9773 -0.9773 0.2118 -634.5609 -270.4865)" gradientUnits="userSpaceOnUse" id="SVGID_1_" x1="423.0967" x2="429.6524" y1="-578.646" y2="-582.9078">
<stop offset="0" style="stop-color:#A7E722"/>
<stop offset="0.1333" style="stop-color:#A7E722"/>
<stop offset="0.6303" style="stop-color:#428C0F"/>
<stop offset="1" style="stop-color:#5CA617"/>
</linearGradient>
<path d="M19.081,33.91c2.089-3.595,4.591-6.496,7.281-9.188c2.593-2.591,6.72-5.3,8.562-6.256l9.604-10.282  c-0.845-0.3-3.693-0.464-7.279,0.616c-3.586,1.083-11.736,6.303-16.979,11.547c-5.242,5.246-9.727,12.347-10.581,14.595  c-1.343,3.541-1.221,7.445-0.929,8.58c0,0,0.34,1.035,1.144,2.377C10.248,46.475,19.081,33.91,19.081,33.91z" fill="url(#SVGID_1_)"/>
<path d="M31.184,20.8c1.488-1.036,2.87-1.882,3.74-2.334L44.271,8.46  c-0.132-0.058-0.209-0.088-0.209-0.088c-0.247-0.088-0.642-0.162-1.124-0.219c-0.793,0.006-1.596,0.093-2.401,0.27  C34.843,9.673,31.019,14.958,31.184,20.8z" fill="#020202" fill-opacity="0.05" stroke-opacity="0.05"/>
<path d="M31.906,20.306c1.205-0.809,2.291-1.462,3.018-1.84l9.377-10.04  c-0.146-0.063-0.233-0.098-0.233-0.098c-0.231-0.08-0.604-0.152-1.06-0.203c-0.751,0.006-1.51,0.087-2.27,0.253  C35.275,9.576,31.636,14.695,31.906,20.306z" fill="#020202" fill-opacity="0.1" stroke-opacity="0.1"/>
<path d="M44.079,8.263c-0.21-0.073-0.55-0.137-0.962-0.186c-0.681,0.006-1.369,0.08-2.06,0.231  c-5.087,1.116-8.426,5.984-7.978,11.233c0.725-0.455,1.363-0.826,1.844-1.076l9.424-10.088C44.178,8.302,44.079,8.263,44.079,8.263z  " fill="#020202" fill-opacity="0.1" stroke-opacity="0.1"/>
<radialGradient cx="40.9697" cy="9.21" gradientUnits="userSpaceOnUse" id="SVGID_2_" r="12.2872">
<stop offset="0" style="stop-color:#A7E722"/>
<stop offset="0.6242" style="stop-color:#428C0F"/>
<stop offset="1" style="stop-color:#5CA617"/>
</radialGradient>
<path d="M34.924,18.466l0.929,1.55c0,0,15.101-6.784,14.084-8.038c-0.513-0.631-0.577-0.656-1.237-1.263  c-1.985-1.815-4.172-2.531-4.172-2.531c-0.186-0.063-0.481-0.12-0.845-0.161c-0.596,0.004-1.2,0.068-1.806,0.201  c-4.591,1.009-7.57,5.501-6.963,10.257C34.916,18.477,34.921,18.47,34.924,18.466z" fill="url(#SVGID_2_)"/>
<path d="M17.483,34.105c-0.988-0.139-2.007-0.119-3.027,0.105c-2.418,0.531-4.376,2.066-5.646,4.131  c-0.367,2.35-0.25,4.408-0.05,5.18c0,0,0.34,1.035,1.144,2.377c0.29,0.482,6.54-8.264,8.556-11.107L17.483,34.105z" fill="#020202" fill-opacity="0.1" stroke-opacity="0.1"/>
<path d="M18.366,34.135c-0.989-0.139-2.008-0.117-3.029,0.105c-3.313,0.727-5.775,3.332-6.76,6.623  c-0.026,1.025,0.034,1.873,0.127,2.398c0.003,0.012,0.005,0.033,0.01,0.047c0,0,0.34,1.033,1.144,2.379  c0.3,0.498,6.981-8.887,8.75-11.383L18.366,34.135z" fill="#020202" fill-opacity="0.1" stroke-opacity="0.1"/>
<radialGradient cx="437.4258" cy="-571.231" gradientTransform="matrix(0.2095 0.9787 -0.9682 0.2124 -629.4526 -270.6148)" gradientUnits="userSpaceOnUse" id="SVGID_3_" r="14.6187">
<stop offset="0" style="stop-color:#A7E722"/>
<stop offset="0.6242" style="stop-color:#428C0F"/>
<stop offset="1" style="stop-color:#5CA617"/>
</radialGradient>
<path d="M11.202,47.738c0.616,0.74,0.646,0.953,1.295,1.523c1.194,1.055,9.301-13.611,9.301-13.611  l-2.683-1.719c-0.941-0.111-1.914-0.08-2.89,0.135c-4.777,1.049-7.806,5.869-6.87,10.832C9.749,45.686,10.349,46.709,11.202,47.738z  " fill="url(#SVGID_3_)"/>
<path d="M49.937,11.978c-0.179-0.22-0.381-0.446-0.578-0.67l-13.944,7.959l0.438,0.749  C35.853,20.016,50.953,13.231,49.937,11.978z" fill="#020202" fill-opacity="0.4" stroke-opacity="0.4"/>
<linearGradient gradientTransform="matrix(0.2118 0.9773 -0.9773 0.2118 -634.5599 -270.4865)" gradientUnits="userSpaceOnUse" id="SVGID_4_" x1="422.2881" x2="427.4786" y1="-610.9287" y2="-594.4409">
<stop offset="0" style="stop-color:#C6FF45"/>
<stop offset="0.6788" style="stop-color:#387300"/>
<stop offset="1" style="stop-color:#66A00E"/>
</linearGradient>
<path d="M35.853,20.016l1.178,1.981c0.302,0.515,0.972,0.674,1.569,0.422l4.09-2.334l8.043-4.668  c0.632-0.363,0.878-1.119,0.549-1.686c0,0-0.333-0.501-1.349-1.751L35.853,20.016z" fill="url(#SVGID_4_)"/>
<path d="M21.798,35.65l-0.725-0.473l-9.215,13.486c0.216,0.205,0.43,0.414,0.639,0.598  C13.691,50.316,21.798,35.65,21.798,35.65z" fill="#020202" fill-opacity="0.4" stroke-opacity="0.4"/>
<linearGradient gradientTransform="matrix(0.2118 0.9773 -0.9773 0.2118 -634.5599 -270.4865)" gradientUnits="userSpaceOnUse" id="SVGID_5_" x1="439.6982" x2="451.5232" y1="-577.7549" y2="-564.7323">
<stop offset="0" style="stop-color:#C6FF45"/>
<stop offset="0.6788" style="stop-color:#387300"/>
<stop offset="1" style="stop-color:#66A00E"/>
</linearGradient>
<path d="M12.498,49.262c1.193,1.049,1.686,1.369,1.686,1.369c0.567,0.367,1.363,0.17,1.781-0.441l7.9-11.605  c0.419-0.615,0.307-1.412-0.26-1.777l-1.808-1.156L12.498,49.262z" fill="url(#SVGID_5_)"/>
<rect fill="none" height="60" width="60"/>
</g>
<g transform="matrix(1 0 0 1 30 30)">
<g>
<path d="M0,30V0h30v30H0z M23.599,26.25l-8.732-8.732L6.134,26.25H23.599z M26.25,23.599V6.134l-8.732,8.732   L26.25,23.599z M3.75,23.331l8.465-8.465L3.75,6.401V23.331z M14.866,12.215L23.33,3.75H6.402L14.866,12.215z" fill-opacity="0.6" stroke-opacity="0.6"/>
<linearGradient gradientUnits="userSpaceOnUse" id="SVGID_1__" x1="14.9995" x2="14.9995" y1="0.9941" y2="29.1902">
<stop offset="0" style="stop-color:#E6E6E6"/>
<stop offset="0.6182" style="stop-color:#A8A8A8"/>
<stop offset="1" style="stop-color:#CCCCCC"/>
</linearGradient>
<path d="M0.938,0.938v28.125h28.125V0.938H0.938z M13.541,14.866L2.813,25.595V4.138L13.541,14.866z    M4.139,2.813h21.455L14.866,13.541L4.139,2.813z M14.866,16.192l10.995,10.995H3.871L14.866,16.192z M16.192,14.866L27.188,3.871   v21.99L16.192,14.866z" fill="url(#SVGID_1__)"/>
<g>
<polygon fill-opacity="0.6" points="8.547,25.313 7.61,17.813 5.625,17.813 5.625,12.199 24.375,12.199 24.375,17.813 22.391,17.813     21.453,25.313   " stroke-opacity="0.6"/>
<linearGradient gradientUnits="userSpaceOnUse" id="SVGID_2__" x1="14.9995" x2="14.9995" y1="12.103" y2="23.9943">
<stop offset="0" style="stop-color:#A0F800"/>
<stop offset="1" style="stop-color:#319E00"/>
</linearGradient>
<polygon fill="url(#SVGID_2__)" points="6.563,13.137 6.563,16.875 8.438,16.875 9.375,24.375 20.625,24.375 21.563,16.875     23.438,16.875 23.438,13.137   "/>
<path d="M13.125,14.063v-2.886c-0.348,0.048-0.692,0.073-1.03,0.073c-0.804,0-1.568-0.139-2.272-0.414    C5.866,9.294,5.955,6.329,5.96,6.204l0.019-0.408l0.312-0.265c0.103-0.088,1.06-0.855,2.881-0.855c0.958,0,1.99,0.212,3.066,0.632    c1.3,0.506,2.174,1.126,2.762,1.716c0.588-0.589,1.462-1.209,2.762-1.716c1.076-0.42,2.108-0.632,3.066-0.632    c1.82,0,2.777,0.767,2.881,0.855l0.313,0.265l0.019,0.408c0.005,0.125,0.094,3.091-3.862,4.632    c-0.704,0.275-1.469,0.414-2.272,0.414c-0.338,0-0.683-0.025-1.03-0.073v2.886H13.125z" fill-opacity="0.6" stroke-opacity="0.6"/>
<path d="M10.163,9.963c1.436,0.559,2.896,0.346,3.899,0.057v3.105h1.875V10.02    c1.003,0.289,2.464,0.502,3.899-0.057c3.375-1.316,3.267-3.717,3.267-3.717s-1.627-1.379-5.002-0.064    C16.242,6.907,15.392,7.849,15,8.551c-0.392-0.702-1.242-1.644-3.102-2.369C8.523,4.866,6.896,6.246,6.896,6.246    S6.788,8.647,10.163,9.963z" fill="url(#SVGID_3__)"/>
<defs>
<linearGradient gradientUnits="userSpaceOnUse" id="SVGID_3__" x1="14.9995" x2="14.9995" y1="4.9224" y2="12.8702">
<stop offset="0" style="stop-color:#A0F800"/>
<stop offset="1" style="stop-color:#319E00"/>
</linearGradient>
</defs>
</g>
<linearGradient gradientUnits="userSpaceOnUse" id="SVGID_4__" x1="14.9995" x2="14.9995" y1="12.5542" y2="17.3683">
<stop offset="0" style="stop-color:#D07100"/>
<stop offset="1" style="stop-color:#A23600"/>
</linearGradient>
<rect fill="url(#SVGID_4__)" height="3.738" width="16.875" x="6.563" y="13.137"/>
<linearGradient gradientUnits="userSpaceOnUse" id="SVGID_5__" x1="14.9995" x2="14.9995" y1="16.8408" y2="24.5597">
<stop offset="0" style="stop-color:#D07100"/>
<stop offset="1" style="stop-color:#A23600"/>
</linearGradient>
<polygon fill="url(#SVGID_5__)" points="20.625,24.375 9.375,24.375 8.438,16.875 21.563,16.875  "/>
<path d="M23.104,6.246c0,0-1.627-1.379-5.002-0.064C16.242,6.907,15.392,7.849,15,8.551   c-0.392-0.702-1.242-1.644-3.102-2.369C8.523,4.866,6.896,6.246,6.896,6.246s-0.109,2.401,3.267,3.717   c1.436,0.559,2.896,0.346,3.899,0.057v3.105h1.875V10.02c1.003,0.289,2.464,0.502,3.899-0.057   C23.212,8.647,23.104,6.246,23.104,6.246z" fill="url(#SVGID_3__)"/>
<g fill-opacity="0.2" stroke-opacity="0.2">
<path d="M14.063,9.082c-1.003,0.289-2.464,0.502-3.899-0.057C8.06,8.205,7.31,6.963,7.042,6.144    c-0.094,0.06-0.146,0.102-0.146,0.102s-0.109,2.401,3.267,3.717c1.436,0.559,2.896,0.346,3.899,0.057V9.082z"/>
<path d="M22.958,6.144c-0.268,0.819-1.018,2.061-3.121,2.881c-1.436,0.559-2.896,0.346-3.899,0.057v0.938    c1.003,0.289,2.464,0.502,3.899-0.057c3.375-1.316,3.267-3.717,3.267-3.717S23.052,6.204,22.958,6.144z"/>
<rect height="0.938" width="1.875" x="14.063" y="12.188"/>
</g>
<rect fill="#FFFFFF" fill-opacity="0.3" height="0.926" stroke-opacity="0.3" width="16.875" x="6.563" y="13.137"/>
<polygon fill-opacity="0.2" points="21.445,17.813 21.563,16.875 8.438,16.875 8.555,17.813  " stroke-opacity="0.2"/>
</g>
</g>
</svg>
