<?xml version="1.0" encoding="UTF-8"?>
<!DOCTYPE svg PUBLIC "-//W3C//DTD SVG 1.1 Tiny//EN" "http://www.w3.org/Graphics/SVG/1.1/DTD/svg11-tiny.dtd">
<svg baseProfile="tiny" height="16px" version="1.1" viewBox="0 0 16 16" width="16px" x="0px" xmlns="http://www.w3.org/2000/svg" xmlns:xlink="http://www.w3.org/1999/xlink" y="0px">
<rect fill="none" height="16" width="16"/>
<path d="M15,7.988c0,1.124-0.225,2.095-0.676,2.915c-0.547,1.011-1.34,1.52-2.376,1.52c-1.005,0-1.731-0.509-2.187-1.52  c-0.539,0.591-1.244,0.891-2.108,0.891c-1.016,0-1.828-0.391-2.442-1.164c-0.568-0.72-0.853-1.592-0.853-2.627  c0-1.042,0.284-1.912,0.853-2.612c0.606-0.755,1.421-1.13,2.442-1.13c0.76,0,1.358,0.206,1.796,0.62V4.419h1.476v5.097  c0,0.988,0.344,1.482,1.032,1.482c0.562,0,0.994-0.389,1.297-1.162c0.224-0.577,0.335-1.191,0.335-1.85  c0-1.522-0.55-2.822-1.645-3.903c-1.1-1.085-2.409-1.623-3.939-1.623c-1.539,0-2.846,0.536-3.921,1.61  C3.009,5.146,2.469,6.449,2.469,7.986c0,1.536,0.539,2.846,1.622,3.925c1.079,1.088,2.385,1.626,3.916,1.626v1.46  c-1.93,0-3.58-0.687-4.947-2.058c-1.368-1.375-2.053-3.026-2.053-4.954c0-1.918,0.686-3.564,2.058-4.935  C4.436,1.686,6.081,1,8.006,1c1.93,0,3.579,0.682,4.948,2.05c1.36,1.364,2.05,3.01,2.05,4.938H15z M9.354,7.932  c0-1.49-0.568-2.236-1.708-2.236c-0.57,0-1.013,0.254-1.32,0.762c-0.269,0.43-0.399,0.941-0.399,1.541  c0,1.567,0.572,2.349,1.718,2.349c1.139,0,1.708-0.808,1.708-2.417V7.932z"/>
</svg>
