<?xml version="1.0" encoding="utf-8"?>
<!-- Generator: Adobe Illustrator 14.0.0, SVG Export Plug-In  -->
<!DOCTYPE svg PUBLIC "-//W3C//DTD SVG 1.1//EN" "http://www.w3.org/Graphics/SVG/1.1/DTD/svg11.dtd" [
	<!ENTITY ns_flows "http://ns.adobe.com/Flows/1.0/">
]>
<svg version="1.1"
	 xmlns="http://www.w3.org/2000/svg" xmlns:xlink="http://www.w3.org/1999/xlink" xmlns:a="http://ns.adobe.com/AdobeSVGViewerExtensions/3.0/"
	 x="0px" y="0px" width="30px" height="30px" viewBox="0 0 30 30" enable-background="new 0 0 30 30" xml:space="preserve">
<defs>
</defs>
<g opacity="0.5">
	<rect fill="none" width="30" height="30"/>
</g>
<rect x="10" y="23" width="10" height="2"/>
<rect x="10" y="26" width="10" height="2"/>
<path d="M24,10.889C24,4.753,19.971,2,15,2s-9,2.753-9,8.889c0,3.335,1.196,6.32,3.082,8.356L10,22h10l0.918-2.755
	C22.804,17.209,24,14.224,24,10.889z M15,5c3.981,0,6,1.981,6,5.889C21,15.285,18.252,19,15,19s-6-3.715-6-8.111
	C9,6.981,11.019,5,15,5z"/>
</svg>
