<?xml version="1.0" encoding="UTF-8"?>
<!DOCTYPE svg PUBLIC "-//W3C//DTD SVG 1.1 Tiny//EN" "http://www.w3.org/Graphics/SVG/1.1/DTD/svg11-tiny.dtd">
<svg baseProfile="tiny" height="60" viewBox="0 0 60 60" width="60" xmlns="http://www.w3.org/2000/svg" xmlns:xlink="http://www.w3.org/1999/xlink">
<g>
<linearGradient gradientTransform="matrix(0.5 0 0 0.5 -3031.4424 -2204.0161)" gradientUnits="userSpaceOnUse" id="SVGID_1_" x1="6116.6025" x2="6116.4023" y1="4426.6328" y2="4519.0361">
<stop offset="0" style="stop-color:#B3C77D"/>
<stop offset="0.73" style="stop-color:#3C743A"/>
<stop offset="1" style="stop-color:#235138"/>
</linearGradient>
<polygon fill="url(#SVGID_1_)" points="6.052,34.437 26.636,55.941 47.556,34.437 36.274,34.437 36.274,9.834 17.095,9.832   17.095,34.437 "/>
<line fill="none" x1="36.274" x2="17.095" y1="9.842" y2="9.84"/>
<polygon fill="#E4EACE" points="17.095,9.34 36.274,9.342 36.274,10.342 17.095,10.34 "/>
<polygon fill="#E4EACE" fill-opacity="0.5" points="36.274,34.437 48.054,34.437 47.175,35.461 36.274,35.461 " stroke-opacity="0.5"/>
<polygon fill="#E4EACE" fill-opacity="0.5" points="5.397,34.437 17.075,34.437 17.075,35.461 6.453,35.461 " stroke-opacity="0.5"/>
<linearGradient gradientTransform="matrix(0.5 0 0 0.5 -3031.4424 -2204.0161)" gradientUnits="userSpaceOnUse" id="SVGID_2_" x1="6153.1982" x2="6077.7983" y1="4499.1309" y2="4499.1309">
<stop offset="0" style="stop-color:#9AB06A"/>
<stop offset="1" style="stop-color:#367039"/>
</linearGradient>
<polygon fill="url(#SVGID_2_)" points="46.896,34.437 26.636,55.219 6.604,34.437 5.214,34.437 26.636,56.66 48.296,34.437 "/>
<rect fill="none" height="60" width="60"/>
</g>
</svg>
