<?xml version="1.0" encoding="UTF-8" standalone="no"?>
<!DOCTYPE svg PUBLIC "-//W3C//DTD SVG 1.1 Tiny//EN" "http://www.w3.org/Graphics/SVG/1.1/DTD/svg11-tiny.dtd">
<svg xmlns="http://www.w3.org/2000/svg" xmlns:xlink="http://www.w3.org/1999/xlink" baseProfile="tiny" height="30px" version="1.1" viewBox="0 0 30 30" width="30px" x="0px" y="0px">
<g fill-opacity="0.5" stroke-opacity="0.5">
<rect fill="none" height="30" width="30"/>
</g>
<path d="M3,5v3H1v2h2v2H1v2h2v2H1v2h2v2H1v2h2v3h26V5H3z M26,22H6V8h20V22z"/>
<path d="M9.243,13.314c0.405-0.221,0.651-0.603,0.789-0.881c0.477,0.275,1.009,0.524,1.556,0.742  c0.449,0.179,1.003,0.36,1.614,0.547c-0.47,0.105-0.979,0.303-1.479,0.687c-1.603,1.229-1.786,2.46-1.328,2.87  s2.097,0.743,3.708-0.974c0.615-0.657,0.835-1.519,0.915-2.057c2.166,0.609,4.643,1.29,6.448,2.117  c-0.907-0.107-2.054-0.052-3.058,0.594c-2.037,1.308-1.852,3.128-1.268,3.564c0.581,0.436,3.111,1.079,5.158-0.747  c0.801-0.713,0.885-1.773,0.85-2.429c0.75,0.569,1.361,1.122,1.852,1.634v-1.914v-0.006v-4.936  c-0.469,0.524-0.889,1.192-1.162,2.033c-0.306,0.938-0.02,1.781,0.281,2.341c-0.028-0.015-0.052-0.031-0.08-0.046  c-1.096-0.558-3.502-1.213-6.131-1.951c0.393-0.042,0.869-0.146,1.301-0.405c1.086-0.652,1.352-1.691,0.963-2.256  c-0.278-0.399-1.191-0.742-2.199,0.359c-0.504,0.552-0.749,1.623-0.834,2.084c-1.775-0.503-3.599-1.042-5.155-1.613  c0.403-0.036,0.907-0.14,1.36-0.411c1.086-0.654,1.27-1.371,0.985-1.691c-0.321-0.358-1.2-0.783-2.381,0.307  c-0.487,0.449-0.639,1.129-0.688,1.51c-3.417-1.469-2.146-2.951-2.146-2.951c-0.092-0.359-0.32-0.717-0.687-0.102  C7.902,10.217,8.24,11.016,9.002,11.7c-0.236-0.012-0.497,0.014-0.771,0.106c-1.072,0.363-1.365,1.003-1.178,1.317  C7.24,13.439,8.09,13.943,9.243,13.314z"/>
</svg>
