<?xml version="1.0" encoding="UTF-8"?>
<!DOCTYPE svg PUBLIC "-//W3C//DTD SVG 1.1 Tiny//EN" "http://www.w3.org/Graphics/SVG/1.1/DTD/svg11-tiny.dtd">
<svg baseProfile="tiny" height="30" viewBox="0 0 30 30" width="30" xmlns="http://www.w3.org/2000/svg" xmlns:xlink="http://www.w3.org/1999/xlink">
<rect fill="none" height="30" width="30"/>
<rect fill="none" height="30" width="30"/>
<rect height="2.25" width="2.25" x="8.624" y="7.875"/>
<rect height="2.25" width="2.25" x="6.374" y="14.625"/>
<rect height="2.25" width="2.25" x="8.624" y="16.875"/>
<rect height="2.25" width="2.25" x="6.374" y="10.125"/>
<rect height="2.25" width="2.251" x="13.124" y="7.875"/>
<rect height="2.25" width="2.25" x="10.874" y="10.125"/>
<rect height="2.25" width="2.25" x="10.874" y="14.625"/>
<rect height="2.25" width="2.25" x="8.624" y="12.375"/>
<rect height="2.25" width="2.251" x="13.124" y="12.375"/>
<rect height="2.25" width="2.25" x="15.375" y="10.125"/>
<rect height="2.25" width="2.25" x="15.375" y="14.625"/>
<polygon points="14.572,17.804 15.375,17.604 15.375,16.875 13.124,16.875 13.124,19.125 14.572,19.125 "/>
<path d="M14.991,21.375h-1.867v-2.25h-2.25v2.25h-2.25v-2.25h-2.25v2.25h-2.25v-2.25h2.25v-2.25h-2.25v-2.25h2.25v-2.25h-2.25v-2.25 h2.25v-2.25h-2.25v-2.25h2.25v2.25h2.25v-2.25h2.25v2.25h2.25v-2.25h2.251v2.25h2.25v-2.25h2.25v2.25h-2.25v2.25h2.25v2.25h-2.25 v2.25h2.25v2.25h-2.25v0.453c0.951,0.029,1.721,0.264,2.281,0.707c0.147,0.117,0.303,0.273,0.448,0.467v-1.104h1.396V3.75H2.249 v19.5h12.742V21.375z"/>
<path d="M16.116,21.697c1.005,0,1.632-0.103,1.882-0.307s0.374-0.518,0.374-0.944c0-0.372-0.1-0.651-0.3-0.841 c-0.199-0.188-0.498-0.281-0.894-0.281c-0.349,0-0.837,0.086-1.472,0.264h-0.012v-0.905c0.644-0.161,1.225-0.241,1.744-0.241 c0.781,0,1.371,0.158,1.764,0.473c0.393,0.313,0.59,0.785,0.59,1.416c0,0.434-0.118,0.807-0.354,1.118 c-0.235,0.313-0.574,0.535-1.016,0.665c0.479,0.085,0.845,0.289,1.101,0.605c0.255,0.315,0.383,0.709,0.383,1.186 c0,0.783-0.229,1.367-0.686,1.762c-0.455,0.389-1.141,0.584-2.053,0.584c-0.547,0-1.107-0.08-1.681-0.24v-0.893H15.5 c0.672,0.168,1.197,0.252,1.581,0.252c0.465,0,0.814-0.117,1.049-0.354c0.234-0.234,0.352-0.584,0.352-1.052 c0-0.503-0.141-0.862-0.42-1.081c-0.281-0.219-0.93-0.328-1.944-0.328V21.697z"/>
<path d="M27.75,18.523v7.645h-1.395v-5.294l-1.441,2.751h-0.588l-1.447-2.748v5.291h-1.399v-7.645h1.179l1.965,3.737l1.963-3.737 H27.75z"/>
</svg>
