<?xml version="1.0" encoding="UTF-8"?>
<!DOCTYPE svg PUBLIC "-//W3C//DTD SVG 1.1 Tiny//EN" "http://www.w3.org/Graphics/SVG/1.1/DTD/svg11-tiny.dtd">
<svg baseProfile="tiny" height="30" viewBox="0 0 30 30" width="30" xmlns="http://www.w3.org/2000/svg" xmlns:xlink="http://www.w3.org/1999/xlink">
<g>
<path d="M0,23.199c0-0.816,0.104-2.131,0.592-3.754  c0.758-2.514,4.254-7.972,7.795-11.513c3.586-3.584,8.342-6.553,9.887-7.141c2.486-0.941,5.271-0.881,6.21-0.639  c0.13,0.039,0.725,0.242,1.528,0.691l0.289,0.166c0.487,0.297,0.924,0.602,1.327,0.938c0.153,0.128,0.268,0.212,0.367,0.286  c0.221,0.162,0.431,0.316,0.74,0.67c0.697,0.793,0.938,1.152,0.979,1.215C29.902,4.405,30,4.737,30,5.08  c0,0.625-0.315,1.213-0.846,1.574l-7.584,5.164c-0.428,0.291-0.956,0.4-1.448,0.301c-0.466-0.094-0.861-0.363-1.116-0.758  L17.64,9.226c-1.688,1.08-3.245,2.367-4.98,4.104c-1.111,1.111-2.242,2.663-3.031,3.879L9,17.998l0.811,0.217l0.871,0.518  c0.523,0.308,0.842,0.873,0.842,1.515c0,0.26-0.053,0.517-0.153,0.758l-0.022,0.058l-1.558,2.725l-3.054,5.26  c-0.25,0.438-0.67,0.764-1.147,0.893c-0.452,0.121-0.922,0.062-1.319-0.17c-0.082-0.053-0.385-0.258-1.068-0.807l-0.061-0.012  l-0.185-0.18c-0.354-0.291-0.463-0.404-0.729-0.699l-0.164-0.18c-1.315-1.439-1.844-3.023-1.867-3.09  C0.028,24.326,0,23.592,0,23.199L0,23.199z" fill-opacity="0.6" stroke-opacity="0.6"/>
<linearGradient gradientUnits="userSpaceOnUse" id="SVGID_1_" x1="6.0952" x2="16.7272" y1="5.8071" y2="16.4392">
<stop offset="0" style="stop-color:#A0F800"/>
<stop offset="1" style="stop-color:#319E00"/>
</linearGradient>
<path d="M17.955,7.865c-2.35,1.365-4.244,3-6.003,4.758c-1.693,1.693-3.463,4.389-4.088,5.594L1.147,24.49  c-0.197-0.553-0.303-2.414,0.401-4.756c0.707-2.344,4.117-7.669,7.546-11.095c3.426-3.424,8.063-6.354,9.532-6.912  c2.315-0.876,4.866-0.798,5.608-0.607c0,0,0.676,0.223,1.553,0.748C26.163,2.094,17.955,7.865,17.955,7.865z" fill="url(#SVGID_1_)"/>
<radialGradient cx="139.6035" cy="-88.5283" gradientTransform="matrix(-4.371139e-008 1 1 4.371139e-008 101.0201 -117.4801)" gradientUnits="userSpaceOnUse" id="SVGID_2_" r="12.7529">
<stop offset="0" style="stop-color:#A0F800"/>
<stop offset="1" style="stop-color:#319E00"/>
</radialGradient>
<path d="M5.872,28.543l3.049-5.254l1.527-2.672c0.164-0.391,0.059-0.828-0.277-1.025l-1.293-0.77H8.875  l-1.012-0.605c0.002-0.002,0.008-0.006,0.01-0.008c-3.107-0.396-6.043,1.551-6.701,4.549c-0.086,0.396-0.129,0.791-0.131,1.18  c0.027,0.238,0.064,0.433,0.105,0.554c0,0,0.467,1.428,1.653,2.725c0.396,0.435,0.41,0.476,0.824,0.81  c0.002,0.002,0.004,0.002,0.008,0.004c0.813,0.658,1.138,0.875,1.138,0.875C5.141,29.117,5.635,28.957,5.872,28.543z" fill="url(#SVGID_2_)"/>
<path d="M8.877,18.822l1.293,0.77c0.336,0.197,0.441,0.635,0.277,1.025  L8.92,23.289l-3.049,5.254c-0.236,0.414-0.73,0.574-1.102,0.359c0,0-0.326-0.217-1.144-0.881L8.877,18.822z" fill="#FFFFFF" fill-opacity="0.4" stroke-opacity="0.4"/>
<radialGradient cx="122.1025" cy="-72.9136" gradientTransform="matrix(-4.371139e-008 1 1 4.371139e-008 101.0201 -117.4801)" gradientUnits="userSpaceOnUse" id="SVGID_3_" r="12.9265">
<stop offset="0" style="stop-color:#A0F800"/>
<stop offset="1" style="stop-color:#319E00"/>
</radialGradient>
<path d="M21.008,10.99l7.582-5.162c0.4-0.271,0.529-0.791,0.289-1.162c0,0-0.209-0.322-0.893-1.1  c-0.001,0,0-0.002-0.002-0.002c-0.372-0.423-0.511-0.443-0.995-0.845c-0.673-0.559-1.343-0.951-1.856-1.207  C21.892,0.899,18.742,2.878,18.058,6c-0.142,0.637-0.162,1.271-0.088,1.887l1.122,1.754l0.756,1.18  C20.086,11.19,20.605,11.264,21.008,10.99z" fill="url(#SVGID_3_)"/>
<path d="M27.984,3.563c0.686,0.78,0.895,1.102,0.895,1.102  c0.24,0.371,0.111,0.891-0.289,1.162l-7.582,5.162c-0.401,0.273-0.922,0.201-1.16-0.17l-0.756-1.18L27.984,3.563z" fill="#FFFFFF" fill-opacity="0.4" stroke-opacity="0.4"/>
<rect fill="none" height="30" width="30" x="0" y="0"/>
</g>
<g>
<rect height="34.268" style="opacity:0.6;enable-background:new    ;" transform="matrix(0.7073 -0.707 0.707 0.7073 -6.2126 14.9968)" width="3.169" x="13.418" y="-2.134"/>
<linearGradient gradientTransform="matrix(0.8824 0 0 -0.8824 -284.8232 -348.3516)" gradientUnits="userSpaceOnUse" id="SVGID_1__" x1="339.7832" x2="339.7832" y1="-397.2993" y2="-425.2942">
<stop offset="0" style="stop-color:#DE8029"/>
<stop offset="0.2606" style="stop-color:#DE4E29"/>
<stop offset="1" style="stop-color:#D82E09"/>
</linearGradient>
<polygon points="25.996,26.987 3.015,4.005 4.006,3.014 26.987,25.996 " style="fill:url(#SVGID_1__);"/>
<rect height="30.002" style="fill:none;" width="30.002"/>
</g>
</svg>
