<?xml version="1.0" encoding="utf-8"?>
<!-- Generator: Adobe Illustrator 14.0.0, SVG Export Plug-In  -->
<!DOCTYPE svg PUBLIC "-//W3C//DTD SVG 1.1//EN" "http://www.w3.org/Graphics/SVG/1.1/DTD/svg11.dtd" [
	<!ENTITY ns_flows "http://ns.adobe.com/Flows/1.0/">
]>
<svg version="1.1"
	 xmlns="http://www.w3.org/2000/svg" xmlns:xlink="http://www.w3.org/1999/xlink" xmlns:a="http://ns.adobe.com/AdobeSVGViewerExtensions/3.0/"
	 x="0px" y="0px" width="30px" height="30px" viewBox="0 0 30 30" enable-background="new 0 0 30 30" xml:space="preserve">
<defs>
</defs>
<g opacity="0.5">
	<rect fill="none" width="30" height="30"/>
</g>
<rect x="2" y="2" width="26" height="7"/>
<path d="M28,13.828V11h-3.656c0.512,0,1.023,0.195,1.414,0.586L28,13.828z"/>
<path d="M18.515,16H4v-3h17.515l1.414-1.414C23.319,11.195,23.831,11,24.344,11H2v7h14.515L18.515,16z"/>
<path d="M24.343,13L13.736,23.606l-0.707,6.364l6.364-0.707L30,18.657L24.343,13z M18.687,27.142l-2.828-2.828l8.484-8.485
	l2.829,2.829L18.687,27.142z"/>
</svg>
