<?xml version="1.0" encoding="UTF-8" standalone="no"?>
<!DOCTYPE svg PUBLIC "-//W3C//DTD SVG 1.1 Tiny//EN" "http://www.w3.org/Graphics/SVG/1.1/DTD/svg11-tiny.dtd">
<svg xmlns="http://www.w3.org/2000/svg" xmlns:xlink="http://www.w3.org/1999/xlink" baseProfile="tiny" height="30" viewBox="0 0 30 30" width="30">
<g>
<rect fill="none" height="30" width="30"/>
<polygon fill-opacity="0.6" points="29,2 14.405,2 12,8.615 20.064,16.679 14.838,28 29,28 "/>
<linearGradient gradientUnits="userSpaceOnUse" id="SVGID_1_" x1="20.7363" x2="20.7363" y1="27" y2="3.4999">
<stop offset="0" style="stop-color:#000000"/>
<stop offset="1" style="stop-color:#666666"/>
</linearGradient>
<polygon fill="url(#SVGID_1_)" points="28,3 15.514,3 13.473,8.615 21.537,16.679 16.772,27 28,27 "/>
<linearGradient gradientUnits="userSpaceOnUse" id="SVGID_2_" x1="19.9287" x2="19.9287" y1="21.125" y2="9.0729">
<stop offset="0" style="stop-color:#36B5FF"/>
<stop offset="1" style="stop-color:#1B66D8"/>
</linearGradient>
<polygon fill="url(#SVGID_2_)" points="26,9 13.858,9 21.537,16.679 19.542,21 26,21 "/>
<polygon fill="#F1F1F2" points="17,7 17,5 14.787,5 14.06,7 "/>
<rect fill="#F1F1F2" height="2" width="3" x="19" y="5"/>
<rect fill="#F1F1F2" height="2" width="2" x="24" y="5"/>
<polygon fill="#F1F1F2" points="14,23 14,25 14.392,25 15.314,23 "/>
<rect fill="#F1F1F2" height="2" width="3" x="19" y="23"/>
<rect fill="#F1F1F2" height="2" width="2" x="24" y="23"/>
<polygon fill="#FFFFFF" fill-opacity="0.3" points="28,4 28,3 15.514,3 15.15,4 " stroke-opacity="0.3"/>
<polygon fill="#FFFFFF" fill-opacity="0.1" points="28,26 17.234,26 16.772,27 28,27 " stroke-opacity="0.1"/>
<polygon fill="#FFFFFF" fill-opacity="0.3" points="26,20 20.004,20 19.542,21 26,21 " stroke-opacity="0.3"/>
<polygon fill="#00006B" fill-opacity="0.2" points="26,9 13.858,9 14.858,10 26,10 " stroke-opacity="0.2"/>
<polygon fill-opacity="0.1" points="17,6 17,5 14.787,5 14.423,6 " stroke-opacity="0.1"/>
<rect fill-opacity="0.1" height="1" stroke-opacity="0.1" width="3" x="19" y="5"/>
<rect fill-opacity="0.1" height="1" stroke-opacity="0.1" width="2" x="24" y="5"/>
<polygon fill-opacity="0.6" points="9,9.385 11.686,2 1,2 1,28 12.007,28 16.936,17.321 "/>
<linearGradient gradientUnits="userSpaceOnUse" id="SVGID_3_" x1="9.4683" x2="9.4683" y1="27" y2="3.4999">
<stop offset="0" style="stop-color:#000000"/>
<stop offset="1" style="stop-color:#666666"/>
</linearGradient>
<polygon fill="url(#SVGID_3_)" points="9,9.385 11.321,3 2,3 2,27 12.469,27 16.936,17.321 "/>
<linearGradient gradientUnits="userSpaceOnUse" id="SVGID_4_" x1="10.4683" x2="10.4683" y1="21.125" y2="9.0729">
<stop offset="0" style="stop-color:#36B5FF"/>
<stop offset="1" style="stop-color:#1B66D8"/>
</linearGradient>
<polygon fill="url(#SVGID_4_)" points="9,9.385 9.14,9 4,9 4,21 15.238,21 16.936,17.321 "/>
<rect fill="#F1F1F2" height="2" width="2" x="4" y="5"/>
<polygon fill="#F1F1F2" points="8,5 8,7 9.867,7 10.595,5 "/>
<rect fill="#F1F1F2" height="2" width="2" x="4" y="23"/>
<rect fill="#F1F1F2" height="2" width="3" x="8" y="23"/>
<polygon fill="#FFFFFF" fill-opacity="0.3" points="2,3 2,4 10.958,4 11.321,3 " stroke-opacity="0.3"/>
<polygon fill="#FFFFFF" fill-opacity="0.1" points="2,26 2,27 12.469,27 12.93,26 " stroke-opacity="0.1"/>
<polygon fill="#FFFFFF" fill-opacity="0.3" points="4,20 4,21 15.238,21 15.699,20 " stroke-opacity="0.3"/>
<polygon fill="#00006B" fill-opacity="0.2" points="9.14,9 4,9 4,10 9.614,10 9,9.385 " stroke-opacity="0.2"/>
<rect fill-opacity="0.1" height="1" stroke-opacity="0.1" width="2" x="4" y="5"/>
<polygon fill-opacity="0.1" points="8,5 8,6 10.23,6 10.595,5 " stroke-opacity="0.1"/>
<rect fill-opacity="0.1" height="1" stroke-opacity="0.1" width="2" x="4" y="23"/>
<rect fill-opacity="0.1" height="1" stroke-opacity="0.1" width="3" x="8" y="23"/>
<polygon fill-opacity="0.1" points="13,23 13,24 13.854,24 14.314,23 " stroke-opacity="0.1"/>
<rect fill-opacity="0.1" height="1" stroke-opacity="0.1" width="3" x="19" y="23"/>
<rect fill-opacity="0.1" height="1" stroke-opacity="0.1" width="2" x="24" y="23"/>
</g>
</svg>
