<?xml version="1.0" encoding="UTF-8"?>
<!DOCTYPE svg PUBLIC "-//W3C//DTD SVG 1.1 Tiny//EN" "http://www.w3.org/Graphics/SVG/1.1/DTD/svg11-tiny.dtd">
<svg baseProfile="tiny" height="60" viewBox="0 0 60 60" width="60" xmlns="http://www.w3.org/2000/svg" xmlns:xlink="http://www.w3.org/1999/xlink">
<g>
<linearGradient gradientTransform="matrix(1 0 0 1 2296.5195 1443.9805)" gradientUnits="userSpaceOnUse" id="SVGID_1_" x1="-2266.519" x2="-2266.519" y1="-1432.3472" y2="-1395.6118">
<stop offset="0" style="stop-color:#757575"/>
<stop offset="0.2424" style="stop-color:#000000"/>
<stop offset="0.8606" style="stop-color:#000000"/>
<stop offset="1" style="stop-color:#363636"/>
</linearGradient>
<path d="M51.734,11.633H8.266c-0.678,0-1.225,0.549-1.225,1.225v34.285c0,0.678,0.547,1.226,1.225,1.226  h43.468c0.677,0,1.226-0.548,1.226-1.226V12.857C52.959,12.182,52.41,11.633,51.734,11.633z M12.551,45.918  c0,0.338-0.275,0.613-0.611,0.613H9.49c-0.338,0-0.613-0.275-0.613-0.613v-1.225c0-0.336,0.275-0.611,0.613-0.611h2.449  c0.336,0,0.611,0.275,0.611,0.611L12.551,45.918L12.551,45.918z M12.551,15.307c0,0.336-0.275,0.611-0.611,0.611H9.49  c-0.338,0-0.613-0.275-0.613-0.611v-1.225c0-0.336,0.275-0.613,0.613-0.613h2.449c0.336,0,0.611,0.277,0.611,0.613L12.551,15.307  L12.551,15.307z M18.061,45.918c0,0.338-0.275,0.613-0.611,0.613H15c-0.338,0-0.612-0.275-0.612-0.613v-1.225  c0-0.336,0.274-0.611,0.612-0.611h2.449c0.336,0,0.611,0.275,0.611,0.611L18.061,45.918L18.061,45.918z M18.061,15.307  c0,0.336-0.275,0.611-0.611,0.611H15c-0.338,0-0.612-0.275-0.612-0.611v-1.225c0-0.336,0.274-0.613,0.612-0.613h2.449  c0.336,0,0.611,0.277,0.611,0.613L18.061,15.307L18.061,15.307z M23.571,45.918c0,0.338-0.276,0.613-0.612,0.613H20.51  c-0.336,0-0.611-0.275-0.611-0.613v-1.225c0-0.336,0.274-0.611,0.611-0.611h2.449c0.336,0,0.612,0.275,0.612,0.611V45.918z   M23.571,15.307c0,0.336-0.276,0.611-0.612,0.611H20.51c-0.336,0-0.611-0.275-0.611-0.611v-1.225c0-0.336,0.274-0.613,0.611-0.613  h2.449c0.336,0,0.612,0.277,0.612,0.613V15.307z M29.082,45.918c0,0.338-0.276,0.613-0.613,0.613h-2.448  c-0.337,0-0.612-0.275-0.612-0.613v-1.225c0-0.336,0.275-0.611,0.612-0.611h2.448c0.337,0,0.613,0.275,0.613,0.611V45.918z   M29.082,15.307c0,0.336-0.276,0.611-0.613,0.611h-2.448c-0.337,0-0.612-0.275-0.612-0.611v-1.225c0-0.336,0.275-0.613,0.612-0.613  h2.448c0.337,0,0.613,0.277,0.613,0.613V15.307z M34.592,45.918c0,0.338-0.275,0.613-0.611,0.613h-2.448  c-0.339,0-0.613-0.275-0.613-0.613v-1.225c0-0.336,0.274-0.611,0.613-0.611h2.448c0.336,0,0.611,0.275,0.611,0.611V45.918z   M34.592,15.307c0,0.336-0.275,0.611-0.611,0.611h-2.448c-0.339,0-0.613-0.275-0.613-0.611v-1.225c0-0.336,0.274-0.613,0.613-0.613  h2.448c0.336,0,0.611,0.277,0.611,0.613V15.307z M40.102,45.918c0,0.338-0.274,0.613-0.61,0.613h-2.449  c-0.338,0-0.612-0.275-0.612-0.613v-1.225c0-0.336,0.274-0.611,0.612-0.611h2.449c0.336,0,0.61,0.275,0.61,0.611V45.918z   M40.102,15.307c0,0.336-0.274,0.611-0.61,0.611h-2.449c-0.338,0-0.612-0.275-0.612-0.611v-1.225c0-0.336,0.274-0.613,0.612-0.613  h2.449c0.336,0,0.61,0.277,0.61,0.613V15.307z M45.611,45.918c0,0.338-0.275,0.613-0.611,0.613h-2.449  c-0.337,0-0.611-0.275-0.611-0.613v-1.225c0-0.336,0.274-0.611,0.611-0.611H45c0.336,0,0.611,0.275,0.611,0.611V45.918z   M45.611,15.307c0,0.336-0.275,0.611-0.611,0.611h-2.449c-0.337,0-0.611-0.275-0.611-0.611v-1.225c0-0.336,0.274-0.613,0.611-0.613  H45c0.336,0,0.611,0.277,0.611,0.613V15.307z M51.123,45.918c0,0.338-0.277,0.613-0.613,0.613h-2.449  c-0.336,0-0.61-0.275-0.61-0.613v-1.225c0-0.336,0.274-0.611,0.61-0.611h2.449c0.336,0,0.613,0.275,0.613,0.611V45.918z   M51.123,15.307c0,0.336-0.277,0.611-0.613,0.611h-2.449c-0.336,0-0.61-0.275-0.61-0.611v-1.225c0-0.336,0.274-0.613,0.61-0.613  h2.449c0.336,0,0.613,0.277,0.613,0.613V15.307z" fill="url(#SVGID_1_)"/>
<path d="M51.734,11.633H8.266c-0.678,0-1.225,0.549-1.225,1.225v0.611  c0-0.676,0.547-1.225,1.225-1.225h43.468c0.677,0,1.226,0.549,1.226,1.225v-0.611C52.959,12.182,52.41,11.633,51.734,11.633z" fill="#FFFFFF" fill-opacity="0.55" stroke-opacity="0.55"/>
<path d="M8.266,48.367h43.468c0.677,0,1.226-0.547,1.226-1.225v-0.611  c0,0.676-0.549,1.225-1.226,1.225H8.266c-0.678,0-1.225-0.549-1.225-1.225v0.611C7.041,47.82,7.588,48.367,8.266,48.367z" fill="#FFFFFF" fill-opacity="0.1" stroke-opacity="0.1"/>
<linearGradient gradientTransform="matrix(1 0 0 1 2296.5195 1443.9805)" gradientUnits="userSpaceOnUse" id="SVGID_2_" x1="-2266.5195" x2="-2266.5195" y1="-1426.1284" y2="-1401.6362">
<stop offset="0" style="stop-color:#000000"/>
<stop offset="0.5" style="stop-color:#666666"/>
<stop offset="1" style="stop-color:#000000"/>
</linearGradient>
<rect fill="url(#SVGID_2_)" height="24.492" width="45.918" x="7.041" y="17.754"/>
<linearGradient gradientTransform="matrix(1 0 0 1 2296.5195 1443.9805)" gradientUnits="userSpaceOnUse" id="SVGID_3_" x1="-2266.519" x2="-2266.519" y1="-1401.7349" y2="-1426.2271">
<stop offset="0" style="stop-color:#36B5FF"/>
<stop offset="1" style="stop-color:#1B66D8"/>
</linearGradient>
<path d="M51.123,41.021c0,0.674-0.553,1.225-1.225,1.225H10.102c-0.673,0-1.225-0.551-1.225-1.225V18.979  c0-0.672,0.552-1.225,1.225-1.225h39.796c0.672,0,1.226,0.553,1.226,1.225L51.123,41.021L51.123,41.021z" fill="url(#SVGID_3_)"/>
<path d="M49.898,41.021H10.102c-0.673,0-1.225,0.061-1.225-0.613l0,0  c0,0.674,0.552,1.225,1.225,1.225h39.796c0.672,0,1.226-0.551,1.226-1.225l0,0C51.123,41.082,50.57,41.021,49.898,41.021z" fill="#FFFFFF" fill-opacity="0.5" stroke-opacity="0.5"/>
<linearGradient gradientTransform="matrix(1 0 0 1 2296.5195 1443.9805)" gradientUnits="userSpaceOnUse" id="SVGID_4_" x1="-2266.519" x2="-2266.519" y1="-1426.2261" y2="-1401.6362">
<stop offset="0" style="stop-color:#000000"/>
<stop offset="1" style="stop-color:#404040"/>
</linearGradient>
<path d="M49.898,18.367c0.336,0,0.61,0.275,0.61,0.611v22.043c0,0.338-0.274,0.61-0.61,0.61H10.102  c-0.337,0-0.611-0.272-0.611-0.61V18.979c0-0.336,0.274-0.611,0.611-0.611L49.898,18.367 M49.898,17.754H10.102  c-0.673,0-1.225,0.553-1.225,1.225v22.042c0,0.674,0.552,1.226,1.225,1.226h39.796c0.672,0,1.226-0.552,1.226-1.226V18.979  C51.123,18.307,50.57,17.754,49.898,17.754L49.898,17.754z" fill="url(#SVGID_4_)"/>
<path d="M49.898,25.102v-4.898c0-0.676-0.549-1.225-1.226-1.225H11.326  c-0.676,0-1.225,0.549-1.225,1.225v7.961L49.898,25.102z" fill="#FFFFFF" fill-opacity="0.2" stroke-opacity="0.2"/>
<rect fill="none" height="60" width="60"/>
</g>
<g transform="matrix(0.5 0 0 0.5 30 30)">
<rect fill="none" height="60" width="60"/>
<rect fill="none" height="59.996" width="59.996"/>
<path d="M51.311,47.291c0,2.219-1.801,4.02-4.021,4.02H12.707c-2.222,0-4.021-1.801-4.021-4.02V12.707 c0-2.221,1.799-4.022,4.021-4.022h34.582c2.221,0,4.021,1.801,4.021,4.022V47.291z" fill="#F7B388"/>
<linearGradient gradientUnits="userSpaceOnUse" id="SVGID_1" x1="10.55" x2="48.97" y1="10.55" y2="48.97">
<stop offset="0" stop-color="#DF4F20"/>
<stop offset="0.5" stop-color="#F48228"/>
<stop offset="1" stop-color="#CF3A21"/>
</linearGradient>
<path d="M12.707,50.086c-1.542,0-2.797-1.254-2.797-2.795V12.707c0-1.543,1.255-2.798,2.797-2.798 h34.582c1.543,0,2.797,1.255,2.797,2.798v34.584c0,1.541-1.254,2.795-2.797,2.795H12.707z" fill="url(#SVGID_1)"/>
<linearGradient gradientUnits="userSpaceOnUse" id="SVGID_2" x1="30" x2="30" y1="8.36" y2="51.47">
<stop offset="0" stop-color="#C5422B"/>
<stop offset="0.5" stop-color="#F48228"/>
<stop offset="1" stop-color="#AD1B00"/>
</linearGradient>
<path d="M47.381,9.251c1.854,0,3.363,1.509,3.363,3.363v34.769c0,1.853-1.509,3.361-3.363,3.361 H12.614c-1.853,0-3.362-1.509-3.362-3.361V12.614c0-1.854,1.509-3.363,3.362-3.363H47.381 M47.381,8.571H12.614 c-2.232,0-4.042,1.81-4.042,4.043v34.769c0,2.23,1.809,4.042,4.042,4.042h34.767c2.234,0,4.044-1.812,4.044-4.042V12.614 C51.425,10.381,49.615,8.571,47.381,8.571L47.381,8.571z" fill="url(#SVGID_2)"/>
<circle cx="19.476" cy="40.52" fill="#FFFFFF" r="4.132"/>
<path d="M39.143,44.193h5.51c0-15.907-12.942-28.85-28.85-28.85v5.51 C28.672,20.854,39.143,31.323,39.143,44.193z" fill="#FFFFFF"/>
<path d="M29.118,44.193h5.51c0-10.381-8.445-18.825-18.825-18.825v5.51 C23.145,30.878,29.118,36.851,29.118,44.193z" fill="#FFFFFF"/>
</g>
</svg>
