<?xml version="1.0" encoding="UTF-8"?>
<!DOCTYPE svg PUBLIC "-//W3C//DTD SVG 1.1 Tiny//EN" "http://www.w3.org/Graphics/SVG/1.1/DTD/svg11-tiny.dtd">
<svg baseProfile="tiny" height="30px" version="1.1" viewBox="0 0 30 30" width="30px" x="0px" xmlns="http://www.w3.org/2000/svg" xmlns:xlink="http://www.w3.org/1999/xlink" y="0px">
<path d="M2.811,21v-0.973l1.242-1.206c2.988-2.845,4.357-4.357,4.357-6.122c0-1.188-0.559-2.286-2.305-2.286  c-1.063,0-1.945,0.54-2.484,0.99l-0.505-1.116c0.792-0.666,1.963-1.188,3.295-1.188c2.521,0,3.583,1.729,3.583,3.403  c0,2.16-1.566,3.906-4.033,6.283l-0.918,0.864v0.036h5.239V21H2.811z"/>
<path d="M26.797,10.629h-4.466l-0.45,3.007c0.27-0.036,0.521-0.054,0.954-0.054c0.919,0,1.801,0.18,2.521,0.63  c0.919,0.504,1.675,1.53,1.675,2.989c0,2.286-1.818,3.997-4.357,3.997c-1.278,0-2.341-0.36-2.917-0.721l0.396-1.206  c0.486,0.288,1.44,0.648,2.521,0.648c1.477,0,2.772-0.973,2.755-2.539c0-1.513-1.026-2.574-3.349-2.574  c-0.685,0-1.206,0.054-1.639,0.107l0.757-5.617h5.6V10.629z"/>
<g fill-opacity="0.5" stroke-opacity="0.5">
<rect fill="none" height="30" width="30"/>
</g>
<polygon points="14,23 13,23 16,7 17,7 14,23 "/>
</svg>
