<?xml version="1.0" encoding="utf-8"?>
<!-- Generator: Adobe Illustrator 14.0.0, SVG Export Plug-In  -->
<!DOCTYPE svg PUBLIC "-//W3C//DTD SVG 1.1//EN" "http://www.w3.org/Graphics/SVG/1.1/DTD/svg11.dtd" [
	<!ENTITY ns_flows "http://ns.adobe.com/Flows/1.0/">
]>
<svg version="1.1"
	 xmlns="http://www.w3.org/2000/svg" xmlns:xlink="http://www.w3.org/1999/xlink" xmlns:a="http://ns.adobe.com/AdobeSVGViewerExtensions/3.0/"
	 x="0px" y="0px" width="30px" height="30px" viewBox="0 0 30 30" enable-background="new 0 0 30 30" xml:space="preserve">
<defs>
</defs>
<rect fill="none" width="30" height="30"/>
<rect x="10" y="12.5" width="2" height="6"/>
<path d="M11,8C4.925,8,0,12.926,0,19c0,6.076,4.925,11,11,11s11-4.924,11-11C22,12.926,17.075,8,11,8z M11,27c-4.419,0-8-3.582-8-8
	s3.581-8,8-8c4.418,0,8,3.582,8,8S15.418,27,11,27z"/>
<path d="M30,13h-2c0-4.502-3.662-8.166-8.166-8.166c-0.094,0-0.188,0.002-0.279,0.004L19.48,2.84
	c0.117-0.004,0.234-0.006,0.354-0.006C25.439,2.834,30,7.395,30,13L30,13z"/>
<polygon points="20,4 20,8 17.001,6 14,4 17.001,2.002 20,0 "/>
</svg>
