<?xml version="1.0" encoding="UTF-8"?>
<!DOCTYPE svg PUBLIC "-//W3C//DTD SVG 1.1 Tiny//EN" "http://www.w3.org/Graphics/SVG/1.1/DTD/svg11-tiny.dtd">
<svg baseProfile="tiny" height="30px" version="1.1" viewBox="0 0 30 30" width="30px" x="0px" xmlns="http://www.w3.org/2000/svg" xmlns:xlink="http://www.w3.org/1999/xlink" y="0px">
<rect fill="none" height="30" width="29.999"/>
<path d="M10.139,14.233c-0.349,0-0.616,0.142-0.8,0.426c-0.182,0.285-0.274,0.679-0.274,1.182c0,0.871,0.084,1.466,0.252,1.786  c0.169,0.32,0.423,0.479,0.761,0.479c0.354,0,0.619-0.137,0.796-0.413c0.178-0.277,0.267-0.83,0.267-1.66  c0-0.642-0.083-1.103-0.246-1.381C10.729,14.373,10.477,14.233,10.139,14.233z M27,4H3C1.896,4,1,4.896,1,6v18c0,1.104,0.896,2,2,2  h24c1.104,0,2-0.896,2-2V6C29,4.896,28.104,4,27,4z M12.399,18.406c-0.542,0.578-1.322,0.867-2.335,0.867  c-1.021,0-1.791-0.337-2.306-1.011c-0.515-0.672-0.772-1.789-0.772-3.35c0-1.542,0.339-2.761,1.015-3.651  c0.68-0.893,1.66-1.339,2.946-1.339c0.503,0,0.985,0.032,1.446,0.099v1.231c0,0,0.001,0,0.002,0h-0.002v0  c-0.431-0.084-0.845-0.126-1.24-0.126c-1.208,0-1.895,0.814-2.064,2.442c0.388-0.343,0.941-0.515,1.663-0.515  c0.807,0,1.42,0.252,1.837,0.758c0.417,0.507,0.627,1.233,0.627,2.183C13.215,17.024,12.943,17.83,12.399,18.406z M21.925,19.2  h-1.993v-5.435l-1.326,2.529h-0.916l-1.33-2.531V19.2h-2v-9.137h1.668l2.123,4.042l2.123-4.042h1.651V19.2z"/>
</svg>
