<?xml version="1.0" encoding="UTF-8"?>
<!DOCTYPE svg PUBLIC "-//W3C//DTD SVG 1.1 Tiny//EN" "http://www.w3.org/Graphics/SVG/1.1/DTD/svg11-tiny.dtd">
<svg baseProfile="tiny" height="30px" version="1.1" viewBox="0 0 30 30" width="30px" x="0px" xmlns="http://www.w3.org/2000/svg" xmlns:xlink="http://www.w3.org/1999/xlink" y="0px">
<path d="M14.181,10.201c0.559,0,0.954,0.538,1.188,0.989l0.728,1.406l-1.15,1.151l1.159,1.401c0.223,0.27,0.445,0.515,0.681,0.75  c0.296,0.297,0.625,0.552,0.969,0.77c-1.075,0.782-2.249,1.651-3.119,2.521c-1.016,1.015-1.342,2.373-1.657,3.687  c-0.337,1.404-0.656,2.73-1.724,3.799c-0.231,0.231-0.386,0.251-0.523,0.251c-1.333,0-3.588-2.265-4.55-3.231L5.976,23.49  L5.77,23.284c-0.966-0.961-3.227-3.213-3.229-4.546c0-0.139,0.019-0.294,0.249-0.524c1.069-1.067,2.397-1.387,3.802-1.724  c1.313-0.315,2.668-0.641,3.683-1.652c0.942-0.942,1.294-1.738,1.577-2.379c0.243-0.552,0.42-0.95,1.1-1.631  C13.35,10.43,13.798,10.201,14.181,10.201 M27.865,1.779l-5.897,2.418c0,0,0.26,0.99-0.418,1.669l-4.405,4.405  c-0.736-1.422-1.833-2.07-2.964-2.07c-0.918,0-1.857,0.427-2.644,1.213c-1.79,1.79-1.242,2.575-2.677,4.009  c-1.437,1.434-4.917,0.813-7.483,3.376c-2.566,2.568,1.433,6.354,3.185,8.105c1.347,1.348,3.896,4.022,6.169,4.022  c0.685,0,1.344-0.243,1.938-0.837c2.565-2.565,1.941-6.048,3.38-7.483c1.433-1.434,4.124-3.1,4.9-3.874  c0.359-0.358,0.688-0.977,0.091-0.995c-0.632-0.019-2.012-0.424-2.84-1.252c-0.204-0.204-0.386-0.407-0.554-0.61l6.291-6.293  c0.849-0.842,2.048-0.861,2.157-0.861c0.005,0,0.008,0,0.008,0l3.549-4.117L27.865,1.779L27.865,1.779z"/>
<g fill-opacity="0.5" stroke-opacity="0.5">
<rect fill="none" height="30" width="30"/>
</g>
</svg>
