<?xml version="1.0" encoding="UTF-8"?>
<!DOCTYPE svg PUBLIC "-//W3C//DTD SVG 1.1 Tiny//EN" "http://www.w3.org/Graphics/SVG/1.1/DTD/svg11-tiny.dtd">
<svg baseProfile="tiny" height="30px" version="1.1" viewBox="0 0 30 30" width="30px" x="0px" xmlns="http://www.w3.org/2000/svg" xmlns:xlink="http://www.w3.org/1999/xlink" y="0px">
<g fill-opacity="0.5" stroke-opacity="0.5">
<rect fill="none" height="30" width="30"/>
</g>
<path d="M10.5,22c1.934,0,3.5-1.344,3.5-3v-7.333L18,13V9l-6-2v9.3c-0.456-0.187-0.961-0.3-1.5-0.3C8.566,16,7,17.343,7,19  C7,20.656,8.566,22,10.5,22z"/>
<path d="M23,6h1V5.268V3H1v24h23v-2.268V24h-1V6z M20,24H4V6h16V24z"/>
<path d="M25,6.079V7h-1v16h1v0.921c2.449-2.195,4-5.372,4-8.921S27.449,8.274,25,6.079z"/>
</svg>
