<?xml version="1.0" encoding="UTF-8"?>
<!DOCTYPE svg PUBLIC "-//W3C//DTD SVG 1.1 Tiny//EN" "http://www.w3.org/Graphics/SVG/1.1/DTD/svg11-tiny.dtd">
<svg baseProfile="tiny" height="30px" version="1.1" viewBox="0 0 30 30" width="30px" x="0px" xmlns="http://www.w3.org/2000/svg" xmlns:xlink="http://www.w3.org/1999/xlink" y="0px">
<g fill-opacity="0.5" stroke-opacity="0.5">
<rect fill="none" height="30" width="30"/>
</g>
<polygon points="29.728,21.949 27.605,19.828 24.777,22.656 21.949,19.829 19.828,21.95 22.656,24.777 19.828,27.605 21.949,29.728   24.777,26.899 27.605,29.728 29.728,27.606 26.898,24.778 "/>
<path d="M17,27.605l2.828-2.828l-1.357-1.356c-1.07,0.442-2.242,0.69-3.471,0.69  c-1.225,0-2.391-0.246-3.458-0.686L21.729,8.878c1.475,1.619,2.383,3.764,2.383,6.122c0,1.229-0.248,2.4-0.691,3.472l1.357,1.356  L27.605,17l0.194,0.194C27.922,16.479,28,15.749,28,15c0-7.169-5.832-13-13-13S2,7.831,2,15s5.832,13,13,13  c0.75,0,1.479-0.078,2.194-0.2L17,27.605z M5.889,15c0-5.024,4.088-9.111,9.111-9.111c1.225,0,2.391,0.246,3.458,0.686L8.271,21.122  C6.797,19.503,5.889,17.358,5.889,15z" fill-rule="evenodd"/>
</svg>
