<?xml version="1.0" encoding="UTF-8"?>
<!DOCTYPE svg PUBLIC "-//W3C//DTD SVG 1.1 Tiny//EN" "http://www.w3.org/Graphics/SVG/1.1/DTD/svg11-tiny.dtd">
<svg baseProfile="tiny" height="16px" version="1.1" viewBox="0 0 16 16" width="16px" x="0px" xmlns="http://www.w3.org/2000/svg" xmlns:xlink="http://www.w3.org/1999/xlink" y="0px">
<polygon points="11.878,5.267 11.876,5.269 11.88,5.272 "/>
<path d="M9.769,12.834l-1.017-0.856c-0.097,0.098-0.192,0.193-0.29,0.289V9.188c0.125,0.124,0.251,0.25,0.377,0.375  C9.172,8.96,9.73,8.822,9.765,8.814l0.051-0.011h0.144C9.631,8.476,9.334,8.179,9.151,7.997c0.646-0.658,2.714-2.717,2.726-2.729  l-4.77-4.771v5.454L5.061,3.906L4.124,4.844c0,0,2.117,2.118,2.984,2.982v0.342c-0.867,0.862-2.984,2.981-2.984,2.981l0.938,0.937  l2.047-2.042v5.45L9.769,12.834z M8.472,3.736c0.579,0.584,1.194,1.198,1.533,1.539c-0.313,0.309-0.95,0.95-1.529,1.53H8.472V3.736z  "/>
<rect fill="none" height="16" width="16"/>
<path d="M14.984,10.629L11.999,8.11v1.259H9.948c0,0-0.745,0.156-0.745,1.26H14.984z"/>
<path d="M9.203,11.592l2.985,2.52v-1.26h2.051c0,0,0.745-0.155,0.745-1.26H9.203z"/>
</svg>
