<?xml version="1.0" encoding="utf-8"?>
<!-- Generator: Adobe Illustrator 14.0.0, SVG Export Plug-In  -->
<!DOCTYPE svg PUBLIC "-//W3C//DTD SVG 1.1//EN" "http://www.w3.org/Graphics/SVG/1.1/DTD/svg11.dtd" [
	<!ENTITY ns_flows "http://ns.adobe.com/Flows/1.0/">
]>
<svg version="1.1"
	 xmlns="http://www.w3.org/2000/svg" xmlns:xlink="http://www.w3.org/1999/xlink" xmlns:a="http://ns.adobe.com/AdobeSVGViewerExtensions/3.0/"
	 x="0px" y="0px" width="30px" height="30px" viewBox="0 0 30 30" enable-background="new 0 0 30 30" xml:space="preserve">
<defs>
</defs>
<g opacity="0.5">
	<rect fill="none" width="30" height="30"/>
</g>
<path d="M11.749,23.386c0.05-0.452,0.252-0.872,0.573-1.193L13.515,21H4.414l6.115-6.115L14,18.355l3.471-3.471l1.08,1.08
	l0.707-0.707l-1.08-1.08L24,8.355v2.677c0.619-0.107,1.279,0.075,1.758,0.553L27,12.828V4H1v20h10.681L11.749,23.386z M22.527,7
	L14,15.527L5.473,7H22.527z M4,8.355l5.822,5.822L4,20V8.355z"/>
<path d="M24.343,13L13.736,23.606l-0.707,6.364l6.364-0.707L30,18.657L24.343,13z M18.687,27.142l-2.828-2.828l8.484-8.485
	l2.829,2.829L18.687,27.142z"/>
</svg>
