<?xml version="1.0" encoding="UTF-8"?>
<!DOCTYPE svg PUBLIC "-//W3C//DTD SVG 1.1 Tiny//EN" "http://www.w3.org/Graphics/SVG/1.1/DTD/svg11-tiny.dtd">
<svg baseProfile="tiny" height="30px" version="1.1" viewBox="0 0 30 30" width="30px" x="0px" xmlns="http://www.w3.org/2000/svg" xmlns:xlink="http://www.w3.org/1999/xlink" y="0px">
<path d="M21.217,16.33v1.4h1.017V19.1c-0.137,0.049-0.317,0.09-0.604,0.09c-1.055,0-1.685-0.875-1.685-2.338  c0-0.715,0.229-3.019,2.773-2.071l0.276,0.173l0.322-1.38c0,0-0.596-0.474-1.592-0.474c-1.797,0-3.084,1.525-3.009,3.793  c0.113,3.355,1.992,3.717,2.869,3.717c1.188,0,1.829-0.475,1.829-0.475V16.33H21.217z"/>
<path d="M13.605,9.56h3.786v2.039h-2.331v1.765c0,0,2.963-0.55,2.783,3.848c0,0,0.092,3.074-2.239,3.357  c-0.674,0.082-2.015-0.184-2.015-0.184l0.016-2.066c0,0,2.852,0.914,2.852-1.322c0-2.393-2.852-1.578-2.852-1.578V9.56z"/>
<rect height="1.578" width="1.289" x="11.33" y="18.93"/>
<path d="M10.109,14.493c0.437-0.555,0.688-1.323,0.688-2.236c0-0.774-0.251-2.865-2.03-2.865c-1.226,0-1.963,1.091-1.963,1.091  l0.454,2c0,0,0.684-0.949,1.35-0.949c0.327,0,0.721,0.16,0.721,0.933c0,0.917-0.728,1.118-1.004,1.118H7.548v2.065h0.778  c0.198,0,1.314,0.24,1.211,1.424c-0.199,2.297-1.973,1.018-2.172,0.824l-0.338-0.336l-0.443,2.021c0,0,0.658,0.98,1.94,0.98  c1.712,0,2.5-1.799,2.5-3.469C11.024,15.983,10.676,15.037,10.109,14.493z"/>
<rect fill="none" height="30" width="30"/>
</svg>
