<?xml version="1.0" encoding="UTF-8"?>
<!DOCTYPE svg PUBLIC "-//W3C//DTD SVG 1.1 Tiny//EN" "http://www.w3.org/Graphics/SVG/1.1/DTD/svg11-tiny.dtd">
<svg baseProfile="tiny" height="52px" version="1.1" viewBox="0 0 52 52" width="52px" x="0px" xmlns="http://www.w3.org/2000/svg" xmlns:xlink="http://www.w3.org/1999/xlink" y="0px">
<rect fill="none" height="52" width="52"/>
<path d="M26.002,50.267c0.031,0,0.064,0,0.096,0v-5.711c-0.029,0-0.063,0-0.096,0  c-10.234,0-18.559-8.324-18.559-18.555c0-10.235,8.324-18.558,18.559-18.558c10.106,0,18.352,8.117,18.555,18.177h5.711  C50.065,12.412,39.258,1.732,26.002,1.732c-13.379,0-24.27,10.886-24.27,24.269C1.732,39.38,12.623,50.267,26.002,50.267z" fill="url(#SVGID_1_)"/>
<defs>
<linearGradient gradientTransform="matrix(-1 0 0 -1 -35.5381 246.5381)" gradientUnits="userSpaceOnUse" id="SVGID_1_" x1="-59.7715" x2="-65.756" y1="230.0591" y2="197.8378">
<stop offset="0" style="stop-color:#0067B1"/>
<stop offset="1" style="stop-color:#0069B1;stop-opacity:0.25"/>
</linearGradient>
</defs>
</svg>
