<?xml version="1.0" encoding="UTF-8"?>
<!DOCTYPE svg PUBLIC "-//W3C//DTD SVG 1.1 Tiny//EN" "http://www.w3.org/Graphics/SVG/1.1/DTD/svg11-tiny.dtd">
<svg baseProfile="tiny" height="30" viewBox="0 0 30 30" width="30" xmlns="http://www.w3.org/2000/svg" xmlns:xlink="http://www.w3.org/1999/xlink">
<rect fill="none" height="30" width="30"/>
<rect fill="none" height="30" width="30"/>
<rect fill="#44A51C" height="30" width="30"/>
<path d="M7.069,9.857c-3.87,0-5.903,2.655-5.903,6.435c0,3.829,1.497,6.84,5.863,6.84 c4.022,0,5.882-2.724,5.882-6.754C12.911,12.533,11.078,9.857,7.069,9.857z M7.027,21.064c-2.063,0-2.152-2.928-2.152-4.844 c0-1.868,0.156-4.297,2.152-4.297c1.901,0,2.169,2.567,2.169,4.297C9.197,18.448,9.084,21.064,7.027,21.064z" fill="#FFFFFF"/>
<path d="M17.85,23.132c1.57,0,2.125-0.788,2.498-1.933l3.385-11.162h-3.158l-2.42,9.658l-2.282-9.658h-3.739 l3.212,11.162C15.697,22.344,16.275,23.132,17.85,23.132z" fill="#FFFFFF"/>
<path d="M26.988,5.348c-1.162,0-1.969,0.587-1.969,1.667c0,1.082,0.827,1.667,1.969,1.667 c1.143,0,1.967-0.585,1.967-1.667C28.955,5.957,28.086,5.348,26.988,5.348z" fill="#FFFFFF"/>
<path d="M25.686,22.773c0.263,0.191,0.681,0.358,1.27,0.358c0.615,0,1.018-0.169,1.282-0.358 c0.507-0.357,0.507-0.963,0.507-1.289V10.037h-3.525c0,0-0.129,0-0.244,0c-0.341,0-0.626,0.007-0.818,0.275 c-0.098,0.124-0.229,0.351-0.229,0.759c0,0.424,0.132,0.628,0.229,0.756c0.192,0.272,0.478,0.273,0.818,0.273 c0.115,0,0.209-0.001,0.209-0.001v9.385C25.182,21.811,25.182,22.416,25.686,22.773z" fill="#FFFFFF"/>
</svg>
