<?xml version="1.0" encoding="UTF-8"?>
<!DOCTYPE svg PUBLIC "-//W3C//DTD SVG 1.1 Tiny//EN" "http://www.w3.org/Graphics/SVG/1.1/DTD/svg11-tiny.dtd">
<svg baseProfile="tiny" height="30" viewBox="0 0 30 30" width="30" xmlns="http://www.w3.org/2000/svg" xmlns:xlink="http://www.w3.org/1999/xlink">
<rect fill="none" height="30" width="30"/>
<rect fill="none" height="30" width="29.999" x="0.001"/>
<path d="M2.25,5.625v18.75h25.5V5.625H2.25z M25.5,22.125h-21V7.875h21V22.125z"/>
<path d="M14.175,11.178v7.644H12.76v-3.717h-2.184v3.717h-1.41v-7.644h1.41v3.055h2.184v-3.055H14.175z"/>
<path d="M15.688,11.178h2.174c0.998,0,1.743,0.296,2.234,0.887c0.492,0.591,0.738,1.524,0.738,2.799c0,1.394-0.26,2.403-0.775,3.024 c-0.519,0.622-1.303,0.934-2.352,0.934h-2.021L15.688,11.178L15.688,11.178z M17.096,12.049v5.89h0.642 c0.534,0,0.939-0.214,1.218-0.643c0.277-0.429,0.418-1.219,0.418-2.371c0-1.021-0.137-1.757-0.41-2.204 c-0.273-0.448-0.689-0.672-1.246-0.672H17.096z"/>
</svg>
