<?xml version="1.0" ?>
<!DOCTYPE svg  PUBLIC '-//W3C//DTD SVG 1.1//EN'  'http://www.w3.org/Graphics/SVG/1.1/DTD/svg11.dtd'>
<svg height="30" viewBox="0 0 30 30" width="30" xmlns="http://www.w3.org/2000/svg" xmlns:xlink="http://www.w3.org/1999/xlink">
<g>
<defs>
</defs>
<rect fill="none" height="30" width="30"/>
<rect height="21" opacity="0.6" width="15" x="14" y="8"/>
<linearGradient gradientUnits="userSpaceOnUse" id="SVGID_1_" x1="21.5" x2="21.5" y1="9.2114" y2="27.8131">
	<stop offset="0" style="stop-color:#FFFFFF"/>
	<stop offset="1" style="stop-color:#787878"/>
</linearGradient>
<rect fill="url(#SVGID_1_)" height="19" width="13" x="15" y="9"/>
<linearGradient gradientUnits="userSpaceOnUse" id="SVGID_2_" x1="23.5" x2="23.5" y1="14" y2="11">
	<stop offset="0" style="stop-color:#A0F800"/>
	<stop offset="1" style="stop-color:#319E00"/>
</linearGradient>
<rect fill="url(#SVGID_2_)" height="3" width="9" x="19" y="11"/>
<linearGradient gradientUnits="userSpaceOnUse" id="SVGID_3_" x1="23.5" x2="23.5" y1="19" y2="16">
	<stop offset="0" style="stop-color:#A0F800"/>
	<stop offset="1" style="stop-color:#319E00"/>
</linearGradient>
<rect fill="url(#SVGID_3_)" height="3" width="9" x="19" y="16"/>
<linearGradient gradientUnits="userSpaceOnUse" id="SVGID_4_" x1="23.5" x2="23.5" y1="24" y2="21">
	<stop offset="0" style="stop-color:#A0F800"/>
	<stop offset="1" style="stop-color:#319E00"/>
</linearGradient>
<rect fill="url(#SVGID_4_)" height="3" width="9" x="19" y="21"/>
<rect height="28" opacity="0.6" width="19" x="1" y="1"/>
<linearGradient gradientUnits="userSpaceOnUse" id="SVGID_5_" x1="10.4995" x2="10.4995" y1="2.2896" y2="27.7443">
	<stop offset="0" style="stop-color:#FFFFFF"/>
	<stop offset="1" style="stop-color:#787878"/>
</linearGradient>
<rect fill="url(#SVGID_5_)" height="26" width="17" x="2" y="2"/>
<linearGradient gradientUnits="userSpaceOnUse" id="SVGID_6_" x1="5.5" x2="5.5" y1="4.0557" y2="8.9507">
	<stop offset="0" style="stop-color:#30BCE8"/>
	<stop offset="1" style="stop-color:#048CC6"/>
</linearGradient>
<rect fill="url(#SVGID_6_)" height="5" width="3" x="4" y="4"/>
<rect fill="#FFFFFF" height="1" opacity="0.4" width="3" x="4" y="8"/>
<linearGradient gradientUnits="userSpaceOnUse" id="SVGID_7_" x1="5.5" x2="5.5" y1="12.0557" y2="16.9512">
	<stop offset="0" style="stop-color:#30BCE8"/>
	<stop offset="1" style="stop-color:#048CC6"/>
</linearGradient>
<rect fill="url(#SVGID_7_)" height="5" width="3" x="4" y="12"/>
<rect fill="#FFFFFF" height="1" opacity="0.4" width="3" x="4" y="16"/>
<linearGradient gradientUnits="userSpaceOnUse" id="SVGID_8_" x1="5.5" x2="5.5" y1="20.0557" y2="24.9507">
	<stop offset="0" style="stop-color:#30BCE8"/>
	<stop offset="1" style="stop-color:#048CC6"/>
</linearGradient>
<rect fill="url(#SVGID_8_)" height="5" width="3" x="4" y="20"/>
<rect fill="#FFFFFF" height="1" opacity="0.4" width="3" x="4" y="24"/>
<linearGradient gradientUnits="userSpaceOnUse" id="SVGID_9_" x1="10.5" x2="10.5" y1="4.0557" y2="8.9507">
	<stop offset="0" style="stop-color:#30BCE8"/>
	<stop offset="1" style="stop-color:#048CC6"/>
</linearGradient>
<rect fill="url(#SVGID_9_)" height="5" width="3" x="9" y="4"/>
<rect fill="#FFFFFF" height="1" opacity="0.4" width="3" x="9" y="8"/>
<linearGradient gradientUnits="userSpaceOnUse" id="SVGID_10_" x1="10.5" x2="10.5" y1="12.0557" y2="16.9512">
	<stop offset="0" style="stop-color:#30BCE8"/>
	<stop offset="1" style="stop-color:#048CC6"/>
</linearGradient>
<rect fill="url(#SVGID_10_)" height="5" width="3" x="9" y="12"/>
<rect fill="#FFFFFF" height="1" opacity="0.4" width="3" x="9" y="16"/>
<linearGradient gradientUnits="userSpaceOnUse" id="SVGID_11_" x1="10.5" x2="10.5" y1="20.0557" y2="24.9507">
	<stop offset="0" style="stop-color:#30BCE8"/>
	<stop offset="1" style="stop-color:#048CC6"/>
</linearGradient>
<rect fill="url(#SVGID_11_)" height="5" width="3" x="9" y="20"/>
<rect fill="#FFFFFF" height="1" opacity="0.4" width="3" x="9" y="24"/>
<linearGradient gradientUnits="userSpaceOnUse" id="SVGID_12_" x1="15.4995" x2="15.4995" y1="4.0557" y2="8.9507">
	<stop offset="0" style="stop-color:#30BCE8"/>
	<stop offset="1" style="stop-color:#048CC6"/>
</linearGradient>
<rect fill="url(#SVGID_12_)" height="5" width="3" x="14" y="4"/>
<rect fill="#FFFFFF" height="1" opacity="0.4" width="3" x="14" y="8"/>
<linearGradient gradientUnits="userSpaceOnUse" id="SVGID_13_" x1="15.4995" x2="15.4995" y1="12.0557" y2="16.9512">
	<stop offset="0" style="stop-color:#30BCE8"/>
	<stop offset="1" style="stop-color:#048CC6"/>
</linearGradient>
<rect fill="url(#SVGID_13_)" height="5" width="3" x="14" y="12"/>
<rect fill="#FFFFFF" height="1" opacity="0.4" width="3" x="14" y="16"/>
<linearGradient gradientUnits="userSpaceOnUse" id="SVGID_14_" x1="15.4995" x2="15.4995" y1="20.0557" y2="24.9507">
	<stop offset="0" style="stop-color:#30BCE8"/>
	<stop offset="1" style="stop-color:#048CC6"/>
</linearGradient>
<rect fill="url(#SVGID_14_)" height="5" width="3" x="14" y="20"/>
<rect fill="#FFFFFF" height="1" opacity="0.4" width="3" x="14" y="24"/>
</g>
</svg>