<?xml version="1.0" encoding="UTF-8"?>
<!DOCTYPE svg PUBLIC "-//W3C//DTD SVG 1.1 Tiny//EN" "http://www.w3.org/Graphics/SVG/1.1/DTD/svg11-tiny.dtd">
<svg baseProfile="tiny" height="30" viewBox="0 0 30 30" width="30" xmlns="http://www.w3.org/2000/svg" xmlns:xlink="http://www.w3.org/1999/xlink">
<g>
<path d="M16.75,11.111V9.971C16.998,9.99,17.25,10,17.507,10c1.958,0,4.081-0.578,5.979-1.63  c2.972-1.646,5.026-4.185,5.499-6.793l0.151-0.838l-0.804-0.283C27.474,0.153,26.519,0,25.493,0c-1.958,0-4.081,0.579-5.979,1.63  C17.529,2.729,15.969,4.23,15,5.881c-0.969-1.65-2.53-3.151-4.515-4.25C8.588,0.579,6.465,0,4.507,0  c-1.025,0-1.98,0.153-2.839,0.456L0.864,0.739l0.151,0.838c0.473,2.608,2.527,5.147,5.499,6.792C8.412,9.421,10.535,10,12.492,10  c0.001,0,0.001,0,0.001,0c0.257,0,0.509-0.01,0.757-0.029v1.141C5.802,11.981,0,18.322,0,26c0,1.058,0.119,2.139,0.354,3.213  L0.524,30h28.951l0.171-0.787C29.881,28.139,30,27.058,30,26C30,18.322,24.198,11.981,16.75,11.111z" fill-opacity="0.6" stroke-opacity="0.6"/>
<radialGradient cx="15" cy="13.1133" gradientUnits="userSpaceOnUse" id="SVGID_1_" r="21.8867">
<stop offset="0" style="stop-color:#FEE891"/>
<stop offset="0.7818" style="stop-color:#FFB701"/>
<stop offset="1" style="stop-color:#FFC501"/>
</radialGradient>
<path d="M29,26c0-7.732-6.268-14-14-14C7.269,12,1,18.268,1,26c0,1.031,0.119,2.033,0.33,3h27.34  C28.881,28.033,29,27.031,29,26z" fill="url(#SVGID_1_)"/>
<path d="M15,13c7.563,0,13.71,6.002,13.975,13.5C28.98,26.332,29,26.169,29,26c0-7.732-6.268-14-14-14  C7.269,12,1,18.268,1,26c0,0.169,0.02,0.332,0.025,0.5C1.291,19.002,7.438,13,15,13z" fill="#FFFFFF" fill-opacity="0.3" stroke-opacity="0.3"/>
<linearGradient gradientUnits="userSpaceOnUse" id="SVGID_2_" x1="8.5" x2="8.5" y1="16.542" y2="28.6124">
<stop offset="0" style="stop-color:#DB9D00"/>
<stop offset="1" style="stop-color:#FFEEA9"/>
</linearGradient>
<path d="M8.5,28C5.468,28,3,25.533,3,22.5S5.468,17,8.5,17c3.033,0,5.5,2.467,5.5,5.5S11.533,28,8.5,28  L8.5,28z" fill="url(#SVGID_2_)"/>
<linearGradient gradientUnits="userSpaceOnUse" id="SVGID_3_" x1="8.5" x2="8.5" y1="17.625" y2="27.5008">
<stop offset="0" style="stop-color:#CCCCCC"/>
<stop offset="0.2" style="stop-color:#EEEEEE"/>
<stop offset="1" style="stop-color:#FCFCFC"/>
</linearGradient>
<circle cx="8.5" cy="22.5" fill="url(#SVGID_3_)" r="4.5"/>
<path d="M8.5,19c2.314,0,4.198,1.753,4.45,4c0.019-0.166,0.05-0.328,0.05-0.5c0-2.485-2.014-4.5-4.5-4.5  C6.016,18,4,20.015,4,22.5c0,0.172,0.032,0.334,0.051,0.5C4.303,20.753,6.187,19,8.5,19z" fill-opacity="0.2" stroke-opacity="0.2"/>
<path d="M8.5,23c-1.102,0-2-0.897-2-2s0.898-2,2-2c1.104,0,2,0.897,2,2S9.604,23,8.5,23L8.5,23z" fill="#0C3554"/>
<linearGradient gradientUnits="userSpaceOnUse" id="SVGID_4_" x1="21.5" x2="21.5" y1="16.542" y2="28.6124">
<stop offset="0" style="stop-color:#DB9D00"/>
<stop offset="1" style="stop-color:#FFEEA9"/>
</linearGradient>
<path d="M21.5,28c-3.032,0-5.5-2.467-5.5-5.5s2.468-5.5,5.5-5.5c3.033,0,5.5,2.467,5.5,5.5S24.533,28,21.5,28  L21.5,28z" fill="url(#SVGID_4_)"/>
<linearGradient gradientUnits="userSpaceOnUse" id="SVGID_5_" x1="21.5" x2="21.5" y1="17.625" y2="27.5008">
<stop offset="0" style="stop-color:#CCCCCC"/>
<stop offset="0.2" style="stop-color:#EEEEEE"/>
<stop offset="1" style="stop-color:#FCFCFC"/>
</linearGradient>
<circle cx="21.5" cy="22.5" fill="url(#SVGID_5_)" r="4.5"/>
<path d="M21.5,19c2.314,0,4.198,1.753,4.45,4c0.019-0.166,0.05-0.328,0.05-0.5c0-2.485-2.014-4.5-4.5-4.5  c-2.484,0-4.5,2.015-4.5,4.5c0,0.172,0.032,0.334,0.051,0.5C17.303,20.753,19.187,19,21.5,19z" fill-opacity="0.2" stroke-opacity="0.2"/>
<path d="M21.5,23c-1.102,0-2-0.897-2-2s0.898-2,2-2c1.104,0,2,0.897,2,2S22.604,23,21.5,23L21.5,23z" fill="#0C3554"/>
<linearGradient gradientUnits="userSpaceOnUse" id="SVGID_6_" x1="8.5" x2="8.5" y1="20.5039" y2="22.6352">
<stop offset="0" style="stop-color:#0C3554"/>
<stop offset="1" style="stop-color:#9BD1FF"/>
</linearGradient>
<circle cx="8.5" cy="21.5" fill="url(#SVGID_6_)" r="1"/>
<linearGradient gradientUnits="userSpaceOnUse" id="SVGID_7_" x1="21.5" x2="21.5" y1="20.5039" y2="22.6352">
<stop offset="0" style="stop-color:#0C3554"/>
<stop offset="1" style="stop-color:#9BD1FF"/>
</linearGradient>
<circle cx="21.5" cy="21.5" fill="url(#SVGID_7_)" r="1"/>
<linearGradient gradientUnits="userSpaceOnUse" id="SVGID_8_" x1="14.2085" x2="15.7085" y1="11.75" y2="11.75">
<stop offset="0" style="stop-color:#81E200"/>
<stop offset="0.6364" style="stop-color:#138F00"/>
<stop offset="1" style="stop-color:#3DAF00"/>
</linearGradient>
<rect fill="url(#SVGID_8_)" height="6.5" width="1.5" x="14.25" y="8.5"/>
<linearGradient gradientUnits="userSpaceOnUse" id="SVGID_9_" x1="8.5" x2="8.5" y1="1.3125" y2="8.6699">
<stop offset="0" style="stop-color:#94FF26"/>
<stop offset="1" style="stop-color:#0BA133"/>
</linearGradient>
<path d="M10.001,2.505C7.22,0.964,4.191,0.627,2,1.399c0.399,2.208,2.217,4.555,4.999,6.096  C9.78,9.036,12.808,9.373,15,8.602C14.601,6.394,12.782,4.046,10.001,2.505z" fill="url(#SVGID_9_)"/>
<linearGradient gradientUnits="userSpaceOnUse" id="SVGID_10_" x1="23.4902" x2="21.6777" y1="9.5977" y2="5.4102">
<stop offset="0" style="stop-color:#A7FF00"/>
<stop offset="1" style="stop-color:#138F00"/>
</linearGradient>
<path d="M19.999,2.505C22.78,0.964,25.809,0.627,28,1.399c-0.399,2.208-2.217,4.555-4.999,6.096  C20.22,9.036,17.191,9.373,15,8.602C15.399,6.394,17.217,4.046,19.999,2.505z" fill="url(#SVGID_10_)"/>
<linearGradient gradientUnits="userSpaceOnUse" id="SVGID_11_" x1="7.2104" x2="8.4605" y1="9.5762" y2="5.1384">
<stop offset="0" style="stop-color:#A7FF00"/>
<stop offset="1" style="stop-color:#138F00"/>
</linearGradient>
<path d="M6.999,7.495C9.78,9.036,12.808,9.373,15,8.602c0,0-5.116-2.277-6.844-3.203  C5.844,4.161,2,1.399,2,1.399C2.399,3.606,4.217,5.954,6.999,7.495z" fill="url(#SVGID_11_)"/>
<linearGradient gradientUnits="userSpaceOnUse" id="SVGID_12_" x1="21.5" x2="21.5" y1="1.125" y2="9.1258">
<stop offset="0" style="stop-color:#94FF26"/>
<stop offset="1" style="stop-color:#0BA133"/>
</linearGradient>
<path d="M19.999,2.505c-2.782,1.541-4.6,3.889-4.999,6.097c0,0,4.789-1.8,6.906-3.015  C24.281,4.224,28,1.399,28,1.399C25.809,0.627,22.78,0.964,19.999,2.505z" fill="url(#SVGID_12_)"/>
<path d="M10.001,2.505C7.22,0.964,4.191,0.627,2,1.399C4.767,1.004,7.391,1.54,9.759,2.942  c2.333,1.382,3.96,3.3,5.241,5.659C14.601,6.394,12.782,4.046,10.001,2.505z" fill="#FFFFFF" fill-opacity="0.3" stroke-opacity="0.3"/>
<path d="M20.241,2.942C23.938,0.805,28,1.399,28,1.399c-2.191-0.772-5.22-0.435-8.001,1.106  c-2.782,1.541-4.6,3.889-4.999,6.097C15,8.602,16.365,5.184,20.241,2.942z" fill="#FFFFFF" fill-opacity="0.3" stroke-opacity="0.3"/>
<linearGradient gradientUnits="userSpaceOnUse" id="SVGID_13_" x1="7.2104" x2="8.4605" y1="9.5762" y2="5.1384">
<stop offset="0" style="stop-color:#A7FF00"/>
<stop offset="0.2303" style="stop-color:#D6FF61"/>
<stop offset="1" style="stop-color:#138F00"/>
</linearGradient>
<path d="M7.241,7.058C3.496,5.045,2,1.399,2,1.399c0.399,2.208,2.217,4.555,4.999,6.096  C9.78,9.036,12.808,9.373,15,8.602C15,8.602,11.5,9.347,7.241,7.058z" fill="url(#SVGID_13_)" fill-opacity="0.6" stroke-opacity="0.6"/>
<linearGradient gradientUnits="userSpaceOnUse" id="SVGID_14_" x1="22.5986" x2="21.786" y1="9.311" y2="6.1229">
<stop offset="0" style="stop-color:#A7FF00"/>
<stop offset="0.2303" style="stop-color:#D6FF61"/>
<stop offset="1" style="stop-color:#138F00"/>
</linearGradient>
<path d="M22.759,7.058C20.441,8.43,18.093,8.98,15,8.602c2.191,0.771,5.22,0.435,8.001-1.106  c2.782-1.541,4.6-3.889,4.999-6.096C27.114,3.668,25.719,5.305,22.759,7.058z" fill="url(#SVGID_14_)" fill-opacity="0.6" stroke-opacity="0.6"/>
</g>
</svg>
