<?xml version="1.0" encoding="UTF-8"?>
<!DOCTYPE svg PUBLIC "-//W3C//DTD SVG 1.1 Tiny//EN" "http://www.w3.org/Graphics/SVG/1.1/DTD/svg11-tiny.dtd">
<svg baseProfile="tiny" height="15px" version="1.1" viewBox="0 0 15 15" width="15px" x="0px" xmlns="http://www.w3.org/2000/svg" xmlns:xlink="http://www.w3.org/1999/xlink" y="0px">
<g>
<path d="M11.002,6.025C5.699,6.029,3.458,4.258,1.74,1.627   c-0.48-0.734-0.611-1.35-0.924-1.553C0.352-0.227-0.029,0.461,0.002,1.07v0.113V15H15V6.025H11.002z" fill="#14141E" fill-opacity="0.1" fill-rule="evenodd" stroke-opacity="0.1"/>
<linearGradient gradientUnits="userSpaceOnUse" id="SVGID_1_" x1="8.5" x2="8.5" y1="9.6133" y2="52.2818">
<stop offset="0" style="stop-color:#E6E6E6"/>
<stop offset="1" style="stop-color:#FFFFFF"/>
</linearGradient>
<path d="M10,8.986c-1.859,0-3.616-0.344-5.221-1.02L2,6.793V15h13   V8.986H10z" fill="url(#SVGID_1_)" fill-rule="evenodd"/>
<linearGradient gradientUnits="userSpaceOnUse" id="SVGID_2_" x1="7.4995" x2="7.4995" y1="4.2793" y2="52.948">
<stop offset="0" style="stop-color:#66B8CC"/>
<stop offset="1" style="stop-color:#3F89A9"/>
</linearGradient>
<path d="M10,6.988c-5,0-8.203-2.824-9.545-5.717   C0.161,0.639,0,1.271,0,1.271V15h3V8.299l1.39,0.588c1.727,0.729,3.614,1.1,5.61,1.1h5V6.988H10z" fill="url(#SVGID_2_)" fill-rule="evenodd"/>
<rect fill="none" fill-rule="evenodd" height="15" width="15"/>
</g>
</svg>
