<?xml version="1.0" encoding="UTF-8"?>
<!DOCTYPE svg PUBLIC "-//W3C//DTD SVG 1.1 Tiny//EN" "http://www.w3.org/Graphics/SVG/1.1/DTD/svg11-tiny.dtd">
<svg baseProfile="tiny" height="30px" version="1.1" viewBox="0 0 30 30" width="30px" x="0px" xmlns="http://www.w3.org/2000/svg" xmlns:xlink="http://www.w3.org/1999/xlink" y="0px">
<rect fill="none" height="30" width="30"/>
<path d="M24.196,5.794C20.179,1.778,14.193,0.952,9.351,3.292c0.377,0.187,0.738,0.421,1.053,0.737l1.468,1.469  c3.472-1.141,7.442-0.341,10.201,2.419c3.906,3.906,3.904,10.24-0.001,14.145c-3.907,3.907-10.24,3.908-14.146,0.001  c-2.759-2.759-3.561-6.728-2.419-10.2l-1.47-1.469c-0.314-0.314-0.548-0.676-0.736-1.055c-2.338,4.843-1.513,10.83,2.503,14.846  c5.078,5.078,13.31,5.078,18.391-0.001C29.272,19.105,29.273,10.873,24.196,5.794z"/>
<path d="M15.353,11.807c0.782,0.782,0.783,2.047,0,2.828l-0.707,0.708c-0.781,0.781-2.048,0.781-2.829,0L5.452,8.977  c-0.781-0.78-0.781-2.048,0-2.828l0.707-0.707c0.781-0.78,2.048-0.781,2.829,0L15.353,11.807z"/>
</svg>
