<?xml version="1.0" encoding="UTF-8"?>
<!DOCTYPE svg PUBLIC "-//W3C//DTD SVG 1.1 Tiny//EN" "http://www.w3.org/Graphics/SVG/1.1/DTD/svg11-tiny.dtd">
<svg baseProfile="tiny" height="60" viewBox="0 0 60 60" width="60" xmlns="http://www.w3.org/2000/svg" xmlns:xlink="http://www.w3.org/1999/xlink">
<g>
<linearGradient gradientTransform="matrix(1 0 0 1 2296.5195 1443.9805)" gradientUnits="userSpaceOnUse" id="SVGID_1_" x1="-2266.519" x2="-2266.519" y1="-1432.3472" y2="-1395.6118">
<stop offset="0" style="stop-color:#757575"/>
<stop offset="0.2424" style="stop-color:#000000"/>
<stop offset="0.8606" style="stop-color:#000000"/>
<stop offset="1" style="stop-color:#363636"/>
</linearGradient>
<path d="M51.734,11.633H8.266c-0.678,0-1.225,0.549-1.225,1.225v34.285c0,0.678,0.547,1.226,1.225,1.226  h43.468c0.677,0,1.226-0.548,1.226-1.226V12.857C52.959,12.182,52.41,11.633,51.734,11.633z M12.551,45.918  c0,0.338-0.275,0.613-0.611,0.613H9.49c-0.338,0-0.613-0.275-0.613-0.613v-1.225c0-0.336,0.275-0.611,0.613-0.611h2.449  c0.336,0,0.611,0.275,0.611,0.611L12.551,45.918L12.551,45.918z M12.551,15.307c0,0.336-0.275,0.611-0.611,0.611H9.49  c-0.338,0-0.613-0.275-0.613-0.611v-1.225c0-0.336,0.275-0.613,0.613-0.613h2.449c0.336,0,0.611,0.277,0.611,0.613L12.551,15.307  L12.551,15.307z M18.061,45.918c0,0.338-0.275,0.613-0.611,0.613H15c-0.338,0-0.612-0.275-0.612-0.613v-1.225  c0-0.336,0.274-0.611,0.612-0.611h2.449c0.336,0,0.611,0.275,0.611,0.611L18.061,45.918L18.061,45.918z M18.061,15.307  c0,0.336-0.275,0.611-0.611,0.611H15c-0.338,0-0.612-0.275-0.612-0.611v-1.225c0-0.336,0.274-0.613,0.612-0.613h2.449  c0.336,0,0.611,0.277,0.611,0.613L18.061,15.307L18.061,15.307z M23.571,45.918c0,0.338-0.276,0.613-0.612,0.613H20.51  c-0.336,0-0.611-0.275-0.611-0.613v-1.225c0-0.336,0.274-0.611,0.611-0.611h2.449c0.336,0,0.612,0.275,0.612,0.611V45.918z   M23.571,15.307c0,0.336-0.276,0.611-0.612,0.611H20.51c-0.336,0-0.611-0.275-0.611-0.611v-1.225c0-0.336,0.274-0.613,0.611-0.613  h2.449c0.336,0,0.612,0.277,0.612,0.613V15.307z M29.082,45.918c0,0.338-0.276,0.613-0.613,0.613h-2.448  c-0.337,0-0.612-0.275-0.612-0.613v-1.225c0-0.336,0.275-0.611,0.612-0.611h2.448c0.337,0,0.613,0.275,0.613,0.611V45.918z   M29.082,15.307c0,0.336-0.276,0.611-0.613,0.611h-2.448c-0.337,0-0.612-0.275-0.612-0.611v-1.225c0-0.336,0.275-0.613,0.612-0.613  h2.448c0.337,0,0.613,0.277,0.613,0.613V15.307z M34.592,45.918c0,0.338-0.275,0.613-0.611,0.613h-2.448  c-0.339,0-0.613-0.275-0.613-0.613v-1.225c0-0.336,0.274-0.611,0.613-0.611h2.448c0.336,0,0.611,0.275,0.611,0.611V45.918z   M34.592,15.307c0,0.336-0.275,0.611-0.611,0.611h-2.448c-0.339,0-0.613-0.275-0.613-0.611v-1.225c0-0.336,0.274-0.613,0.613-0.613  h2.448c0.336,0,0.611,0.277,0.611,0.613V15.307z M40.102,45.918c0,0.338-0.274,0.613-0.61,0.613h-2.449  c-0.338,0-0.612-0.275-0.612-0.613v-1.225c0-0.336,0.274-0.611,0.612-0.611h2.449c0.336,0,0.61,0.275,0.61,0.611V45.918z   M40.102,15.307c0,0.336-0.274,0.611-0.61,0.611h-2.449c-0.338,0-0.612-0.275-0.612-0.611v-1.225c0-0.336,0.274-0.613,0.612-0.613  h2.449c0.336,0,0.61,0.277,0.61,0.613V15.307z M45.611,45.918c0,0.338-0.275,0.613-0.611,0.613h-2.449  c-0.337,0-0.611-0.275-0.611-0.613v-1.225c0-0.336,0.274-0.611,0.611-0.611H45c0.336,0,0.611,0.275,0.611,0.611V45.918z   M45.611,15.307c0,0.336-0.275,0.611-0.611,0.611h-2.449c-0.337,0-0.611-0.275-0.611-0.611v-1.225c0-0.336,0.274-0.613,0.611-0.613  H45c0.336,0,0.611,0.277,0.611,0.613V15.307z M51.123,45.918c0,0.338-0.277,0.613-0.613,0.613h-2.449  c-0.336,0-0.61-0.275-0.61-0.613v-1.225c0-0.336,0.274-0.611,0.61-0.611h2.449c0.336,0,0.613,0.275,0.613,0.611V45.918z   M51.123,15.307c0,0.336-0.277,0.611-0.613,0.611h-2.449c-0.336,0-0.61-0.275-0.61-0.611v-1.225c0-0.336,0.274-0.613,0.61-0.613  h2.449c0.336,0,0.613,0.277,0.613,0.613V15.307z" fill="url(#SVGID_1_)"/>
<path d="M51.734,11.633H8.266c-0.678,0-1.225,0.549-1.225,1.225v0.611  c0-0.676,0.547-1.225,1.225-1.225h43.468c0.677,0,1.226,0.549,1.226,1.225v-0.611C52.959,12.182,52.41,11.633,51.734,11.633z" fill="#FFFFFF" fill-opacity="0.55" stroke-opacity="0.55"/>
<path d="M8.266,48.367h43.468c0.677,0,1.226-0.547,1.226-1.225v-0.611  c0,0.676-0.549,1.225-1.226,1.225H8.266c-0.678,0-1.225-0.549-1.225-1.225v0.611C7.041,47.82,7.588,48.367,8.266,48.367z" fill="#FFFFFF" fill-opacity="0.1" stroke-opacity="0.1"/>
<linearGradient gradientTransform="matrix(1 0 0 1 2296.5195 1443.9805)" gradientUnits="userSpaceOnUse" id="SVGID_2_" x1="-2266.5195" x2="-2266.5195" y1="-1426.1284" y2="-1401.6362">
<stop offset="0" style="stop-color:#000000"/>
<stop offset="0.5" style="stop-color:#666666"/>
<stop offset="1" style="stop-color:#000000"/>
</linearGradient>
<rect fill="url(#SVGID_2_)" height="24.492" width="45.918" x="7.041" y="17.754"/>
<linearGradient gradientTransform="matrix(1 0 0 1 2296.5195 1443.9805)" gradientUnits="userSpaceOnUse" id="SVGID_3_" x1="-2266.519" x2="-2266.519" y1="-1401.7349" y2="-1426.2271">
<stop offset="0" style="stop-color:#36B5FF"/>
<stop offset="1" style="stop-color:#1B66D8"/>
</linearGradient>
<path d="M51.123,41.021c0,0.674-0.553,1.225-1.225,1.225H10.102c-0.673,0-1.225-0.551-1.225-1.225V18.979  c0-0.672,0.552-1.225,1.225-1.225h39.796c0.672,0,1.226,0.553,1.226,1.225L51.123,41.021L51.123,41.021z" fill="url(#SVGID_3_)"/>
<path d="M49.898,41.021H10.102c-0.673,0-1.225,0.061-1.225-0.613l0,0  c0,0.674,0.552,1.225,1.225,1.225h39.796c0.672,0,1.226-0.551,1.226-1.225l0,0C51.123,41.082,50.57,41.021,49.898,41.021z" fill="#FFFFFF" fill-opacity="0.5" stroke-opacity="0.5"/>
<linearGradient gradientTransform="matrix(1 0 0 1 2296.5195 1443.9805)" gradientUnits="userSpaceOnUse" id="SVGID_4_" x1="-2266.519" x2="-2266.519" y1="-1426.2261" y2="-1401.6362">
<stop offset="0" style="stop-color:#000000"/>
<stop offset="1" style="stop-color:#404040"/>
</linearGradient>
<path d="M49.898,18.367c0.336,0,0.61,0.275,0.61,0.611v22.043c0,0.338-0.274,0.61-0.61,0.61H10.102  c-0.337,0-0.611-0.272-0.611-0.61V18.979c0-0.336,0.274-0.611,0.611-0.611L49.898,18.367 M49.898,17.754H10.102  c-0.673,0-1.225,0.553-1.225,1.225v22.042c0,0.674,0.552,1.226,1.225,1.226h39.796c0.672,0,1.226-0.552,1.226-1.226V18.979  C51.123,18.307,50.57,17.754,49.898,17.754L49.898,17.754z" fill="url(#SVGID_4_)"/>
<path d="M49.898,25.102v-4.898c0-0.676-0.549-1.225-1.226-1.225H11.326  c-0.676,0-1.225,0.549-1.225,1.225v7.961L49.898,25.102z" fill="#FFFFFF" fill-opacity="0.2" stroke-opacity="0.2"/>
<rect fill="none" height="60" width="60"/>
</g>
<g transform="matrix(1 0 0 1 30 30)">
<g>
<path d="M0,30V0h30v30H0z M23.599,26.25l-8.732-8.732L6.134,26.25H23.599z M26.25,23.599V6.134l-8.732,8.732   L26.25,23.599z M3.75,23.331l8.465-8.465L3.75,6.401V23.331z M14.866,12.215L23.33,3.75H6.402L14.866,12.215z" fill-opacity="0.6" stroke-opacity="0.6"/>
<linearGradient gradientUnits="userSpaceOnUse" id="SVGID_1__" x1="14.9995" x2="14.9995" y1="0.9941" y2="29.1902">
<stop offset="0" style="stop-color:#E6E6E6"/>
<stop offset="0.6182" style="stop-color:#A8A8A8"/>
<stop offset="1" style="stop-color:#CCCCCC"/>
</linearGradient>
<path d="M0.938,0.938v28.125h28.125V0.938H0.938z M13.541,14.866L2.813,25.595V4.138L13.541,14.866z    M4.139,2.813h21.455L14.866,13.541L4.139,2.813z M14.866,16.192l10.995,10.995H3.871L14.866,16.192z M16.192,14.866L27.188,3.871   v21.99L16.192,14.866z" fill="url(#SVGID_1__)"/>
<g>
<polygon fill-opacity="0.6" points="8.547,25.313 7.61,17.813 5.625,17.813 5.625,12.199 24.375,12.199 24.375,17.813 22.391,17.813     21.453,25.313   " stroke-opacity="0.6"/>
<linearGradient gradientUnits="userSpaceOnUse" id="SVGID_2__" x1="14.9995" x2="14.9995" y1="12.103" y2="23.9943">
<stop offset="0" style="stop-color:#A0F800"/>
<stop offset="1" style="stop-color:#319E00"/>
</linearGradient>
<polygon fill="url(#SVGID_2__)" points="6.563,13.137 6.563,16.875 8.438,16.875 9.375,24.375 20.625,24.375 21.563,16.875     23.438,16.875 23.438,13.137   "/>
<path d="M13.125,14.063v-2.886c-0.348,0.048-0.692,0.073-1.03,0.073c-0.804,0-1.568-0.139-2.272-0.414    C5.866,9.294,5.955,6.329,5.96,6.204l0.019-0.408l0.312-0.265c0.103-0.088,1.06-0.855,2.881-0.855c0.958,0,1.99,0.212,3.066,0.632    c1.3,0.506,2.174,1.126,2.762,1.716c0.588-0.589,1.462-1.209,2.762-1.716c1.076-0.42,2.108-0.632,3.066-0.632    c1.82,0,2.777,0.767,2.881,0.855l0.313,0.265l0.019,0.408c0.005,0.125,0.094,3.091-3.862,4.632    c-0.704,0.275-1.469,0.414-2.272,0.414c-0.338,0-0.683-0.025-1.03-0.073v2.886H13.125z" fill-opacity="0.6" stroke-opacity="0.6"/>
<path d="M10.163,9.963c1.436,0.559,2.896,0.346,3.899,0.057v3.105h1.875V10.02    c1.003,0.289,2.464,0.502,3.899-0.057c3.375-1.316,3.267-3.717,3.267-3.717s-1.627-1.379-5.002-0.064    C16.242,6.907,15.392,7.849,15,8.551c-0.392-0.702-1.242-1.644-3.102-2.369C8.523,4.866,6.896,6.246,6.896,6.246    S6.788,8.647,10.163,9.963z" fill="url(#SVGID_3__)"/>
<defs>
<linearGradient gradientUnits="userSpaceOnUse" id="SVGID_3__" x1="14.9995" x2="14.9995" y1="4.9224" y2="12.8702">
<stop offset="0" style="stop-color:#A0F800"/>
<stop offset="1" style="stop-color:#319E00"/>
</linearGradient>
</defs>
</g>
<linearGradient gradientUnits="userSpaceOnUse" id="SVGID_4__" x1="14.9995" x2="14.9995" y1="12.5542" y2="17.3683">
<stop offset="0" style="stop-color:#D07100"/>
<stop offset="1" style="stop-color:#A23600"/>
</linearGradient>
<rect fill="url(#SVGID_4__)" height="3.738" width="16.875" x="6.563" y="13.137"/>
<linearGradient gradientUnits="userSpaceOnUse" id="SVGID_5_" x1="14.9995" x2="14.9995" y1="16.8408" y2="24.5597">
<stop offset="0" style="stop-color:#D07100"/>
<stop offset="1" style="stop-color:#A23600"/>
</linearGradient>
<polygon fill="url(#SVGID_5_)" points="20.625,24.375 9.375,24.375 8.438,16.875 21.563,16.875  "/>
<path d="M23.104,6.246c0,0-1.627-1.379-5.002-0.064C16.242,6.907,15.392,7.849,15,8.551   c-0.392-0.702-1.242-1.644-3.102-2.369C8.523,4.866,6.896,6.246,6.896,6.246s-0.109,2.401,3.267,3.717   c1.436,0.559,2.896,0.346,3.899,0.057v3.105h1.875V10.02c1.003,0.289,2.464,0.502,3.899-0.057   C23.212,8.647,23.104,6.246,23.104,6.246z" fill="url(#SVGID_3__)"/>
<g fill-opacity="0.2" stroke-opacity="0.2">
<path d="M14.063,9.082c-1.003,0.289-2.464,0.502-3.899-0.057C8.06,8.205,7.31,6.963,7.042,6.144    c-0.094,0.06-0.146,0.102-0.146,0.102s-0.109,2.401,3.267,3.717c1.436,0.559,2.896,0.346,3.899,0.057V9.082z"/>
<path d="M22.958,6.144c-0.268,0.819-1.018,2.061-3.121,2.881c-1.436,0.559-2.896,0.346-3.899,0.057v0.938    c1.003,0.289,2.464,0.502,3.899-0.057c3.375-1.316,3.267-3.717,3.267-3.717S23.052,6.204,22.958,6.144z"/>
<rect height="0.938" width="1.875" x="14.063" y="12.188"/>
</g>
<rect fill="#FFFFFF" fill-opacity="0.3" height="0.926" stroke-opacity="0.3" width="16.875" x="6.563" y="13.137"/>
<polygon fill-opacity="0.2" points="21.445,17.813 21.563,16.875 8.438,16.875 8.555,17.813  " stroke-opacity="0.2"/>
</g>
</g>
</svg>
