<?xml version="1.0" encoding="UTF-8" standalone="no"?>
<!DOCTYPE svg PUBLIC "-//W3C//DTD SVG 1.1 Tiny//EN" "http://www.w3.org/Graphics/SVG/1.1/DTD/svg11-tiny.dtd">
<svg xmlns="http://www.w3.org/2000/svg" xmlns:xlink="http://www.w3.org/1999/xlink" baseProfile="tiny" height="16px" version="1.1" viewBox="0 0 16 16" width="16px" x="0px" y="0px">
<rect fill="none" height="16" width="16"/>
<path d="M3.363,5.413c1.206-2.139,3.811-3.208,6.259-2.412,2.448,0.795,3.931,3.192,3.649,5.63l1.703,0.554c0.564-3.372-1.426-6.75-4.811-7.85-3.381-1.099-6.977,0.465-8.499,3.525l1.702,0.553z"/>
<path d="M14.34,11.14l-1.705-0.553c-1.203,2.141-3.81,3.208-6.257,2.412s-3.936-3.193-3.654-5.634l-1.703-0.553c-0.565,3.371,1.427,6.752,4.811,7.85,3.386,1.1,6.983-0.46,8.503-3.52z"/>
</svg>
