<?xml version="1.0" encoding="UTF-8" standalone="no"?>
<!DOCTYPE svg PUBLIC "-//W3C//DTD SVG 1.1 Tiny//EN" "http://www.w3.org/Graphics/SVG/1.1/DTD/svg11-tiny.dtd">
<svg xmlns="http://www.w3.org/2000/svg" xmlns:xlink="http://www.w3.org/1999/xlink" baseProfile="tiny" height="30px" style="enable-background:new 0 0 30 30;" version="1.1" viewBox="0 0 30 30" width="30px" x="0px" y="0px">
<path d="M16.08,11.41v-3.592h-3.592v2.619h-1.198v-2.622h-3.59v3.595h2.62l-0.011,1.209-2.622,0.017,0.012,3.57,3.571-0.014,0.006-2.607h1.216v2.62h3.592v-3.595h-2.62v-1.197l2.61-0.01zm-3.57,1.2h-0.014v0.017h-1.216v-1.213h0.018v-0.015h1.198v0.015h0.014v1.19z"/>
<polygon points="11.91,3.607,17.64,9.316,18.3,8.643,11.87,2.188,5.433,8.625,6.178,9.352"/>
<polygon points="17.26,22.44,18.62,24.63,22.36,24.63,21,22.44"/>
<polygon points="11.42,22.44,12.78,24.63,16.51,24.63,15.14,22.44"/>
<polygon points="23.12,22.44,24.25,24.26,24.25,22.44"/>
<polygon points="10.66,24.63,10.67,24.63,9.303,22.44,6.724,22.44,10.51,28.5,12.36,27.35,11.72,26.32"/>
<polygon points="20.26,17.92,21.62,20.11,24.25,20.11,20.46,14.05,18.6,15.21,20.28,17.92"/>
<polygon points="19.51,20.11,18.14,17.92,14.46,17.92,15.82,20.11"/>
<polygon points="6.724,18.28,6.724,20.11,7.859,20.11"/>
<polygon points="13.7,20.11,12.34,17.92,8.615,17.92,9.979,20.11"/>
<rect fill="none" height="29.03" width="29.03" x="0.323" y="0.83"/>
<rect fill="none" height="29.03" width="29.03" x="0.323" y="0.83"/>
</svg>
