<?xml version="1.0" encoding="utf-8"?>
<!-- Generator: Adobe Illustrator 13.0.2, SVG Export Plug-In  -->
<!DOCTYPE svg PUBLIC "-//W3C//DTD SVG 1.1//EN" "http://www.w3.org/Graphics/SVG/1.1/DTD/svg11.dtd" [
	<!ENTITY ns_flows "http://ns.adobe.com/Flows/1.0/">
]>
<svg version="1.1"
	 xmlns="http://www.w3.org/2000/svg" xmlns:xlink="http://www.w3.org/1999/xlink" xmlns:a="http://ns.adobe.com/AdobeSVGViewerExtensions/3.0/"
	 x="0px" y="0px" width="360px" height="640px" viewBox="0 0 360 640" enable-background="new 0 0 360 640" xml:space="preserve">
<defs>
</defs>
<linearGradient id="SVGID_1_" gradientUnits="userSpaceOnUse" x1="-132.0664" y1="194.3247" x2="273.5945" y2="357.4873">
	<stop  offset="0" style="stop-color:#808080"/>
	<stop  offset="0.2099" style="stop-color:#848484"/>
	<stop  offset="0.4539" style="stop-color:#929292"/>
	<stop  offset="0.7148" style="stop-color:#AAAAAA"/>
	<stop  offset="0.9861" style="stop-color:#CACACA"/>
	<stop  offset="1" style="stop-color:#CCCCCC"/>
</linearGradient>
<rect y="0.001" fill="url(#SVGID_1_)" width="360" height="639.681"/>
<linearGradient id="SVGID_2_" gradientUnits="userSpaceOnUse" x1="180" y1="407.5771" x2="180" y2="-6.6583">
	<stop  offset="0" style="stop-color:#B2B2B2"/>
	<stop  offset="1" style="stop-color:#4D4D4D"/>
</linearGradient>
<rect y="0.001" opacity="0.2" fill="url(#SVGID_2_)" width="360" height="639.681"/>
<linearGradient id="SVGID_3_" gradientUnits="userSpaceOnUse" x1="85.5303" y1="-15.0386" x2="320.427" y2="547.7139">
	<stop  offset="0.2582" style="stop-color:#666666"/>
	<stop  offset="0.5549" style="stop-color:#E6E6E6"/>
	<stop  offset="1" style="stop-color:#F2F2F2"/>
</linearGradient>
<path fill="url(#SVGID_3_)" d="M313.897,639.683c0,0-163.236-107.884-201.343-344.265C95.599,190.242,85.308,119.48,104.273,49.706
	c1.611-5.382,0.523-6.966-1.252-10.569c-2.023-4.108-5.446-11.862-5.446-22.293c0-16.86,11.53-16.484,29.422-16.842
	c0.179-0.003,84.641,0,84.641,0s-18.523,46.765,25.984,124.848C282.129,202.932,360,337.741,360,362.707
	c0,24.965,0,114.192,0,114.192S284.226,489.361,313.897,639.683z"/>
<linearGradient id="SVGID_4_" gradientUnits="userSpaceOnUse" x1="94.8726" y1="232.1313" x2="94.8725" y2="639.9976">
	<stop  offset="0" style="stop-color:#F2F2F2"/>
	<stop  offset="1" style="stop-color:#999999"/>
</linearGradient>
<path fill="url(#SVGID_4_)" d="M0,232.131c0,0,48.806,17.183,107.882,138.166c59.799,122.465,68.434,177.697,81.864,269.386
	c0.104,0.708-189.746,0-189.746,0v-72.725c0,0,17.395-51.762,18.664-151.777C19.623,339.522,13.111,273.486,0,232.131z"/>
<linearGradient id="SVGID_5_" gradientUnits="userSpaceOnUse" x1="4.3105" y1="-11.582" x2="253.8281" y2="457.5106">
	<stop  offset="0.5" style="stop-color:#808080"/>
	<stop  offset="0.6541" style="stop-color:#AAAAAA"/>
	<stop  offset="0.7981" style="stop-color:#CBCBCB"/>
	<stop  offset="0.9183" style="stop-color:#DEDEDE"/>
	<stop  offset="1" style="stop-color:#E6E6E6"/>
</linearGradient>
<path fill="url(#SVGID_5_)" d="M341.467,639.683c0,0-97.997-82.366-178.59-238.438C87.578,255.428,68.22,211.58,0,125.771V0.001
	h74.706c0,0,19.951,2.675,21.238,18.165c1.016,12.229-4.499,18.023-19.945,23.83c-12.202,4.586-33.735,4.486-33.735,4.486
	S126.192,248.035,203.1,367.076C274.23,477.18,360,579.71,360,579.71v59.973H341.467z"/>
<linearGradient id="SVGID_6_" gradientUnits="userSpaceOnUse" x1="44.4014" y1="-20.0718" x2="307.8064" y2="584.5637">
	<stop  offset="0" style="stop-color:#999999"/>
	<stop  offset="0.0743" style="stop-color:#9E9E9E"/>
	<stop  offset="0.6736" style="stop-color:#BFBFBF"/>
	<stop  offset="1" style="stop-color:#CCCCCC"/>
</linearGradient>
<path opacity="0.9" fill="url(#SVGID_6_)" d="M47.839,0.001c0,0,22.646,128.36,36.892,197.894
	c15.25,74.435,53.995,155.405,53.995,155.405l-2.553,1.08c0,0,17.135,28.398,27,43.356c9.109,13.813,41.139,82.109,41.139,82.109
	s3.575-5.899,5.386-7.311c0.61-0.476,1.596-0.919,2.467,0.454c0.286,0.45,2.856,4.911,3.281,5.578
	c1.501,2.37,39.624,64.616,50.242,75.907c10.619,11.29,21.933,16.496,31.209,12.036c9.02-4.336,16.278-12.863,16.278-12.863
	s20.063,25.895,22.333,28.907c0.578,0.768,0.71,0.994,0.813,2.145c0.184,2.062-0.288,4.874-0.438,6.893
	c-0.023,0.313-0.249,0.577-0.594,0.345c-0.813-0.549-2.326-1.795-3.844-2.428c-1.577-0.657-3.641-0.83-3.297,3.571
	c0.381,4.873,6.671,16.539,8.438,18.875c0.391,0.517,0.813,0.251,0.688-0.5c-0.137-0.822-0.992-8.013-1.141-9.822
	c-0.438-5.325-0.463-6.936-0.375-8.662c0.031-0.611,0.188-0.878,0.688-0.533c0.611,0.421,5.109,4.184,8.141,7.128
	c1.479,1.437,5.611,5.284,7.688,7.08c0.344,0.297,0.689,0.058,0.281-0.549c-1.141-1.69-4.729-7.039-6.673-9.507
	c-3.221-4.096-5.191-6.756-7.296-9.666c-1.609-2.225-2.258-2.802-1.922-4.119c3.396-13.319,4.729-17.831,11.979-29.609
	c4.188-6.807,11.356-5.514,11.356-5.514v-7.103c0,0-1.785,4.324-7.773,7.018c-2.418,1.087-11.053-0.767-15.167-1.754
	c-15.779-3.787-31.299-17.361-48.582-33.918c-23.54-22.55-39.434-40.928-53.874-45.989c-9.567-3.354-16.509,0.376-20.28,2.808
	c-2.325,1.499-3.114,2.914-5.688-0.958c-1.502-2.258-37.06-59.688-43.981-71.074c-6.922-11.388-24.367-40.976-24.367-40.976
	s2.064-0.856,2.164-0.912c4.439-2.512,3.722-7.469,2.391-16.097c-3.361-21.786-31.521-113.103-38.86-140.081
	c-8.25-30.325-17.25-74.685-13.5-103.506c2.929-22.515,18.107-30.69,18.107-30.69s6.757-27.674-3.541-64.45H47.839z"/>
<linearGradient id="SVGID_7_" gradientUnits="userSpaceOnUse" x1="345.1563" y1="56.4385" x2="202.2328" y2="263.778">
	<stop  offset="0" style="stop-color:#808080"/>
	<stop  offset="0.0278" style="stop-color:#898989"/>
	<stop  offset="0.1595" style="stop-color:#ADADAD"/>
	<stop  offset="0.2982" style="stop-color:#CBCBCB"/>
	<stop  offset="0.4441" style="stop-color:#E2E2E2"/>
	<stop  offset="0.6003" style="stop-color:#F2F2F2"/>
	<stop  offset="0.7739" style="stop-color:#FCFCFC"/>
	<stop  offset="1" style="stop-color:#FFFFFF"/>
</linearGradient>
<path opacity="0.8" fill="url(#SVGID_7_)" d="M242.479,163.56C208.955,104.542,155.479,0.001,155.479,0.001H360v59.202
	c-8.525,225.218-15.506,224.729-18.006,333.425C341.994,392.629,303.977,271.83,242.479,163.56z"/>
<linearGradient id="SVGID_8_" gradientUnits="userSpaceOnUse" x1="119.9194" y1="324.877" x2="119.9194" y2="639.6826">
	<stop  offset="0" style="stop-color:#E6E6E6"/>
	<stop  offset="1" style="stop-color:#808080"/>
</linearGradient>
<path fill="url(#SVGID_8_)" d="M0.003,324.936c13.43-1.604,89.858,29.173,160.53,155.482
	c70.28,125.61,79.306,159.265,79.306,159.265H29.743c0,0-7.673-57.319-2.559-130.733c5.117-73.413,6.755-114.623,0.32-143.941
	C20.47,332.95-0.314,324.973,0.003,324.936z"/>
<path opacity="0.5" fill="#FFFFFF" d="M0,148.302l149.772,154.521c0,0,4.158,97.775,57.882,152.274
	c38.943,39.507,88.186,55.975,117.998,64.761C352.834,527.868,360,537.165,360,537.165v35.908c0,0-15.801-31.416-18.039-37.188
	s-2.527-9.159-14.71-11.223c-68.112-11.541-140.384-27.57-195.386-63.476C65.452,417.835,31.408,352.004,31.408,352.004
	S30.699,312.119,0,199.274V148.302z"/>
<linearGradient id="SVGID_9_" gradientUnits="userSpaceOnUse" x1="302.6963" y1="648.5098" x2="230.006" y2="329.711">
	<stop  offset="0" style="stop-color:#808080"/>
	<stop  offset="0.0334" style="stop-color:#909090"/>
	<stop  offset="0.1019" style="stop-color:#AAAAAA"/>
	<stop  offset="0.1807" style="stop-color:#C0C0C0"/>
	<stop  offset="0.2727" style="stop-color:#D1D1D1"/>
	<stop  offset="0.3864" style="stop-color:#DDDDDD"/>
	<stop  offset="0.546" style="stop-color:#E4E4E4"/>
	<stop  offset="0.989" style="stop-color:#E6E6E6"/>
</linearGradient>
<path opacity="0.54" fill="url(#SVGID_9_)" d="M360,639.683V476.899c-0.953,0.167-30.197,5.422-44.811,45.845
	c-55.194-9.213-113.773-25.56-147.09-41.608c69.208,123.947,78.724,158.547,78.724,158.547H360z"/>
<linearGradient id="SVGID_10_" gradientUnits="userSpaceOnUse" x1="-31.2251" y1="519.9121" x2="97.9191" y2="303.0478">
	<stop  offset="0" style="stop-color:#666666"/>
	<stop  offset="0.0471" style="stop-color:#747474"/>
	<stop  offset="0.1426" style="stop-color:#8B8B8B"/>
	<stop  offset="0.2533" style="stop-color:#9D9D9D"/>
	<stop  offset="0.3868" style="stop-color:#A9A9A9"/>
	<stop  offset="0.5663" style="stop-color:#B0B0B0"/>
	<stop  offset="0.989" style="stop-color:#B2B2B2"/>
</linearGradient>
<path opacity="0.2" fill="url(#SVGID_10_)" d="M133.455,426.018c-7.312-16.949-15.748-35.405-25.573-55.537
	C48.806,249.438,0,232.246,0,232.246c7.594,23.962,12.968,56.379,15.965,93.979C36.136,331.73,83.416,357.538,133.455,426.018z
	 M37.531,639.683c0,0-7.674-57.031-2.559-130.481c5.117-73.449,6.755-114.68,0.32-144.013c-4.01-18.28-12.482-28.728-18.972-34.345
	c1.923,26.088,2.724,54.472,2.343,84.542C17.395,515.451,0,566.958,0,566.958v72.725H37.531z"/>
<linearGradient id="SVGID_11_" gradientUnits="userSpaceOnUse" x1="177.6655" y1="369.7793" x2="166.9262" y2="410.7846">
	<stop  offset="0" style="stop-color:#FFFFFF"/>
	<stop  offset="1" style="stop-color:#4D4D4D"/>
</linearGradient>
<path opacity="0.04" fill="url(#SVGID_11_)" d="M0,148.375l149.772,154.597c0,0,4.158,97.824,57.882,152.35
	c38.943,39.526,88.186,56.002,117.998,64.792C352.834,528.129,360,537.431,360,537.431v35.926c0,0-15.801-31.432-18.039-37.206
	c-2.238-5.773-2.527-9.163-14.71-11.228c-68.112-11.547-140.384-27.584-195.386-63.507
	C65.452,418.042,31.408,352.178,31.408,352.178S30.699,312.273,0,199.373V148.375z"/>
<linearGradient id="SVGID_12_" gradientUnits="userSpaceOnUse" x1="0" y1="482.3604" x2="239.8389" y2="482.3604">
	<stop  offset="0" style="stop-color:#666666"/>
	<stop  offset="0.0334" style="stop-color:#767676"/>
	<stop  offset="0.1019" style="stop-color:#919191"/>
	<stop  offset="0.1807" style="stop-color:#A7A7A7"/>
	<stop  offset="0.2727" style="stop-color:#B8B8B8"/>
	<stop  offset="0.3864" style="stop-color:#C3C3C3"/>
	<stop  offset="0.546" style="stop-color:#CACACA"/>
	<stop  offset="0.989" style="stop-color:#CCCCCC"/>
</linearGradient>
<path opacity="0.25" fill="url(#SVGID_12_)" d="M0.003,325.097c13.43-1.604,89.858,29.187,160.53,155.558
	c70.28,125.674,79.306,159.028,79.306,159.028H29.743c0,0-7.673-57.031-2.559-130.481c5.117-73.449,6.755-114.68,0.32-144.013
	C20.47,333.115-0.314,325.134,0.003,325.097z"/>
<path opacity="0.19" fill="#FFFFFF" d="M47.839,0.001c0,0,22.646,128.424,36.892,197.992
	c15.25,74.472,53.995,155.482,53.995,155.482l-2.553,1.08c0,0,17.135,28.413,27,43.378c9.109,13.819,41.139,82.15,41.139,82.15
	s3.575-5.902,5.386-7.314c0.61-0.476,1.596-0.919,2.467,0.455c0.286,0.449,2.856,4.913,3.281,5.58
	c1.501,2.372,39.624,64.648,50.242,75.945c10.619,11.296,21.933,16.504,31.209,12.042c9.02-4.338,16.278-12.87,16.278-12.87
	s20.063,25.908,22.333,28.922c0.578,0.768,0.71,0.995,0.813,2.146c0.184,2.063-0.288,4.877-0.438,6.896
	c-0.023,0.313-0.249,0.577-0.594,0.345c-0.813-0.549-2.326-1.796-3.844-2.429c-1.577-0.658-3.641-0.831-3.297,3.572
	c0.381,4.875,6.671,16.548,8.438,18.885c0.391,0.517,0.813,0.251,0.688-0.5c-0.137-0.823-0.992-8.017-1.141-9.827
	c-0.438-5.328-0.463-6.939-0.375-8.667c0.031-0.611,0.188-0.878,0.688-0.533c0.611,0.421,5.109,4.186,8.141,7.132
	c1.479,1.437,5.611,5.285,7.688,7.083c0.344,0.297,0.689,0.058,0.281-0.549c-1.141-1.691-4.729-7.043-6.673-9.512
	c-3.221-4.098-5.191-6.759-7.296-9.671c-1.609-2.226-2.258-2.804-1.922-4.121c3.396-13.326,4.729-17.84,11.979-29.624
	c4.188-6.81,11.356-5.517,11.356-5.517v-7.105c0,0-1.785,4.326-7.773,7.021c-2.418,1.088-11.053-0.767-15.167-1.755
	c-15.779-3.788-31.299-17.369-48.582-33.935c-23.54-22.561-39.434-40.947-53.874-46.012c-9.567-3.355-16.509,0.376-20.28,2.809
	c-2.325,1.5-3.114,2.916-5.688-0.958c-1.502-2.259-37.06-59.718-43.981-71.109c-6.922-11.394-24.367-40.996-24.367-40.996
	s2.064-0.856,2.164-0.912c4.439-2.514,3.722-7.473,2.391-16.104c-3.361-21.797-31.521-113.159-38.86-140.15
	c-8.25-30.341-17.25-74.722-13.5-103.558c2.929-22.526,18.107-30.705,18.107-30.705s6.757-27.688-3.541-64.481H47.839z"/>
<linearGradient id="SVGID_13_" gradientUnits="userSpaceOnUse" x1="309.5332" y1="161.8081" x2="236.3506" y2="276.9047">
	<stop  offset="0" style="stop-color:#808080"/>
	<stop  offset="1" style="stop-color:#CCCCCC"/>
</linearGradient>
<path opacity="0.37" fill="url(#SVGID_13_)" d="M313.897,639.683c0,0-163.236-108.506-201.343-344.265
	c-16.956-104.899-27.247-176.121-8.282-245.712c1.611-5.368,0.523-6.976-1.252-10.569c-2.023-4.097-5.446-11.889-5.446-22.293
	c0-16.816,11.53-16.485,29.422-16.842c0.179-0.003,84.641,0,84.641,0s-18.523,46.97,25.984,124.848
	C282.129,202.727,360,337.808,360,362.707c0,24.9,0,114.192,0,114.192S284.226,489.758,313.897,639.683z"/>
<linearGradient id="SVGID_14_" gradientUnits="userSpaceOnUse" x1="226.1445" y1="369.1504" x2="500.6118" y2="818.2781">
	<stop  offset="0" style="stop-color:#FFFFFF"/>
	<stop  offset="1" style="stop-color:#666666"/>
</linearGradient>
<path opacity="0.97" fill="url(#SVGID_14_)" d="M341.467,639.683c0,0-97.997-81.52-178.59-237.181
	C87.578,257.07,68.22,211.354,0,125.771V0.001h74.706c0,0,19.951,2.716,21.238,18.165c1.016,12.196-4.499,18.039-19.945,23.83
	c-12.202,4.574-33.735,4.486-33.735,4.486S126.192,248.348,203.1,367.076C274.23,476.89,360,579.71,360,579.71v59.973H341.467z"/>
<path opacity="0.14" fill="#666666" d="M168.099,481.136c-11.569-20.622-23.872-38.974-35.447-54.766
	c37.185,85.935,45.067,136.891,56.292,213.313h57.88C246.823,639.683,238.379,606.416,168.099,481.136z"/>
<linearGradient id="SVGID_15_" gradientUnits="userSpaceOnUse" x1="219.1475" y1="463.9541" x2="286.5726" y2="625.4874">
	<stop  offset="0" style="stop-color:#666666"/>
	<stop  offset="0.1169" style="stop-color:#8D8D8D"/>
	<stop  offset="0.2947" style="stop-color:#C4C4C4"/>
	<stop  offset="0.4278" style="stop-color:#E5E5E5"/>
	<stop  offset="0.5" style="stop-color:#F2F2F2"/>
	<stop  offset="1" style="stop-color:#B2B2B2"/>
</linearGradient>
<path opacity="0.41" fill="url(#SVGID_15_)" d="M307.709,559.608c-2.872,2.53-6.648,5.413-10.813,7.41
	c-9.276,4.448-20.59-0.744-31.209-12.005c-6.242-6.62-21.987-30.802-34.213-50.091c-17.558-4.932-34.73-10.638-51.13-17.413
	c59.912,103.426,133.589,152.173,133.589,152.173C307.438,606.869,306,580.559,307.709,559.608z"/>
<linearGradient id="SVGID_16_" gradientUnits="userSpaceOnUse" x1="339.8418" y1="549.5713" x2="314.854" y2="439.982">
	<stop  offset="0" style="stop-color:#999999"/>
	<stop  offset="0.0506" style="stop-color:#AAAAAA"/>
	<stop  offset="0.134" style="stop-color:#C0C0C0"/>
	<stop  offset="0.2325" style="stop-color:#D1D1D1"/>
	<stop  offset="0.3544" style="stop-color:#DDDDDD"/>
	<stop  offset="0.5254" style="stop-color:#E4E4E4"/>
	<stop  offset="1" style="stop-color:#E6E6E6"/>
</linearGradient>
<path opacity="0.24" fill="url(#SVGID_16_)" d="M337.06,546.404c4.114,0.985,12.749,2.834,15.167,1.75
	c5.988-2.687,7.773-6.999,7.773-6.999v-64.256c-0.953,0.167-30.197,5.912-44.811,46.208c-6.307-0.933-12.582-1.977-18.821-3.117
	C310.561,533.038,323.717,543.21,337.06,546.404z"/>
<linearGradient id="SVGID_17_" gradientUnits="userSpaceOnUse" x1="140.8643" y1="249.4741" x2="45.014" y2="76.744">
	<stop  offset="0" style="stop-color:#FFFFFF"/>
	<stop  offset="0.0693" style="stop-color:#EEEEEE"/>
	<stop  offset="0.2924" style="stop-color:#BEBEBE"/>
	<stop  offset="0.5041" style="stop-color:#989898"/>
	<stop  offset="0.6986" style="stop-color:#7C7C7C"/>
	<stop  offset="0.87" style="stop-color:#6C6C6C"/>
	<stop  offset="1" style="stop-color:#666666"/>
</linearGradient>
<polygon opacity="0.5" fill="url(#SVGID_17_)" points="360,0.318 360,639.999 0,639.683 0,0.001 "/>
<linearGradient id="SVGID_18_" gradientUnits="userSpaceOnUse" x1="360.9316" y1="63.4326" x2="314.7413" y2="136.0776">
	<stop  offset="0.3901" style="stop-color:#808080"/>
	<stop  offset="0.7824" style="stop-color:#C4C4C4"/>
	<stop  offset="1" style="stop-color:#E6E6E6"/>
</linearGradient>
<path opacity="0.5" fill="url(#SVGID_18_)" d="M211.906,0.001c0,0-18.793,46.97,25.715,124.848
	C282.129,202.727,360,337.808,360,362.707V0.001H211.906z"/>
<linearGradient id="SVGID_19_" gradientUnits="userSpaceOnUse" x1="345.1563" y1="56.4385" x2="202.2328" y2="263.778">
	<stop  offset="0" style="stop-color:#B2B2B2"/>
	<stop  offset="1" style="stop-color:#4D4D4D"/>
</linearGradient>
<path opacity="0.31" fill="url(#SVGID_19_)" d="M242.479,163.56C208.955,104.542,155.479,0.001,155.479,0.001H360v59.202
	c-8.525,225.218-15.506,224.729-18.006,333.425C341.994,392.629,303.977,271.83,242.479,163.56z"/>
<linearGradient id="SVGID_20_" gradientUnits="userSpaceOnUse" x1="179.5737" y1="280.2192" x2="156.7636" y2="294.1037">
	<stop  offset="0" style="stop-color:#FFFFFF"/>
	<stop  offset="0.1743" style="stop-color:#FCFCFC"/>
	<stop  offset="0.3249" style="stop-color:#F1F1F1"/>
	<stop  offset="0.4668" style="stop-color:#DFDFDF"/>
	<stop  offset="0.6033" style="stop-color:#C6C6C6"/>
	<stop  offset="0.736" style="stop-color:#A6A6A6"/>
	<stop  offset="0.8659" style="stop-color:#7E7E7E"/>
	<stop  offset="0.9911" style="stop-color:#505050"/>
	<stop  offset="1" style="stop-color:#4D4D4D"/>
</linearGradient>
<path opacity="0.18" fill="url(#SVGID_20_)" d="M237.621,124.849C193.112,46.96,211.637,0.021,211.637,0.021s-84.461-0.003-84.64,0
	c-17.892,0.357-29.701-1.271-29.701,15.547c0,10.405,3.702,18.447,5.726,22.545c1.775,3.594,2.863,5.188,1.252,10.557
	c-10.063,36.93-11.888,74.229-8.853,116.779c30.232,64.441,69.339,142.157,106.839,200.06
	C240.653,424.789,283.538,481.94,314.885,522C329.646,480.308,360,475.299,360,475.299s0-87.688,0-112.592
	S282.128,202.738,237.621,124.849z"/>
<rect y="0.001" opacity="0.5" fill="#FFFFFF" width="360" height="639.999"/>
</svg>
