<?xml version="1.0" encoding="utf-8"?>
<!-- Generator: Adobe Illustrator 14.0.0, SVG Export Plug-In . SVG Version: 6.00 Build 43363)  -->
<!DOCTYPE svg PUBLIC "-//W3C//DTD SVG 1.1//EN" "http://www.w3.org/Graphics/SVG/1.1/DTD/svg11.dtd">
<svg version="1.1" id="Layer_1" xmlns="http://www.w3.org/2000/svg" xmlns:xlink="http://www.w3.org/1999/xlink" x="0px" y="0px"
	 width="30px" height="30px" viewBox="0 0 30 30" enable-background="new 0 0 30 30" xml:space="preserve">
<rect fill="none" width="30" height="30"/>
<path d="M12.934,4.15C13.57,4.063,14.215,4,14.876,4c0.587,0,1.161,0.047,1.729,0.117V3h1.834V1.918C18.439,1.41,18.027,1,17.521,1
	h-5.506c-0.507,0-0.916,0.41-0.916,0.918V3h1.835V4.15z"/>
<path d="M9.789,5.016C9.16,4.398,8.318,4,7.368,4c-1.933,0-3.5,1.566-3.5,3.5c0,0.561,0.139,1.086,0.374,1.553
	C5.717,7.283,7.62,5.891,9.789,5.016z"/>
<path d="M25.795,9.096c0.253-0.479,0.408-1.016,0.408-1.596c0-1.934-1.567-3.5-3.5-3.5c-0.961,0-1.807,0.408-2.438,1.037
	C22.43,5.918,24.328,7.32,25.795,9.096z"/>
<path d="M15,6C8.372,6,3,11.373,3,18c0,6.629,5.372,12,12,12c6.627,0,12-5.371,12-12C27,11.373,21.627,6,15,6z M15,27
	c-4.971,0-9-4.029-9-9c0-4.971,4.029-9,9-9c4.971,0,9,4.029,9,9C24,22.971,19.971,27,15,27z"/>
<rect x="14" y="10" width="2" height="10"/>
<rect x="12" y="17" width="10" height="2"/>
</svg>
