<?xml version="1.0" ?>
<!DOCTYPE svg  PUBLIC '-//W3C//DTD SVG 1.1 Tiny//EN'  'http://www.w3.org/Graphics/SVG/1.1/DTD/svg11-tiny.dtd'>
<svg baseProfile="tiny" height="30" viewBox="0 0 30 30" width="30" xmlns="http://www.w3.org/2000/svg" xmlns:xlink="http://www.w3.org/1999/xlink">

<rect fill="none" height="30" width="30"/>

<path d="M25,7h-13.14c-0.447-1.721-1.999-3-3.857-3-1.915,0-3.518,1.354-3.906,3.155-1.21,0.387-2.094,1.509-2.094,2.845v13c0,1.654,1.346,3,3,3h20c1.654,0,3-1.346,3-3v-13c0-1.654-1.35-3-3-3z" fill-opacity="0.6"/>

<linearGradient gradientUnits="userSpaceOnUse" id="SVGID_1" x1="15" x2="15" y1="8.16" y2="25.01">

<stop offset="0" stop-color="#E6E6E6"/>

<stop offset="1" stop-color="#626262"/>

</linearGradient>

<path d="M27,23c0,1.1-0.9,2-2,2h-20c-1.1,0-2-0.9-2-2v-13c0-1.1,0.9-2,2-2h20c1.1,0,2,0.9,2,2v13z" fill="url(#SVGID_1)"/>

<path d="M25,8h-20c-1.1,0-2,0.9-2,2v1c0-1.1,0.9-2,2-2h20c1.1,0,2,0.9,2,2v-1c0-1.1-0.9-2-2-2z" fill="#FFFFFF" fill-opacity="0.4"/>

<path d="M8,24c2.205,0,4-1.794,4-4v-12h-8v12c0,2.21,1.795,4,4,4z" fill-opacity="0.1"/>

<linearGradient gradientUnits="userSpaceOnUse" id="SVGID_2" x1="8" x2="8" y1="5.17" y2="23.01">

<stop offset="0" stop-color="#A0A7A8"/>

<stop offset="1" stop-color="#252629"/>

</linearGradient>

<path d="M11,20c0,1.65-1.35,3-3,3s-3-1.35-3-3v-12c0-1.65,1.35-3,3-3s3,1.35,3,3v12z" fill="url(#SVGID_2)"/>

<path d="M8,5c-1.65,0-3,1.35-3,3v1c0-1.65,1.35-3,3-3s3,1.35,3,3v-1c0-1.65-1.35-3-3-3z" fill="#FFFFFF" fill-opacity="0.3"/>

<path d="M10,11v11.22c0.609-0.55,1-1.337,1-2.217v-11l-1,2z" fill-opacity="0.3"/>

<path d="M6,22.22v-11.22l-1-2v11c0,0.88,0.391,1.67,1,2.22z" fill-opacity="0.3"/>

<linearGradient gradientUnits="userSpaceOnUse" id="SVGID_3" x1="14.5" x2="14.5" y1="14" y2="23.98">

<stop offset="0" stop-color="#696D6F"/>

<stop offset="1" stop-color="#252629"/>

</linearGradient>

<rect fill="url(#SVGID_3)" height="2" width="3" x="13" y="14"/>

<rect fill="url(#SVGID_3)" height="2" width="3" x="17" y="14"/>

<rect fill="url(#SVGID_3)" height="2" width="3" x="21" y="14"/>

<linearGradient gradientUnits="userSpaceOnUse" id="SVGID_6" x1="14.5" x2="14.5" y1="13" y2="22.98">

<stop offset="0" stop-color="#696D6F"/>

<stop offset="1" stop-color="#252629"/>

</linearGradient>

<rect fill="url(#SVGID_6)" height="2" width="3" x="13" y="17"/>

<rect fill="url(#SVGID_6)" height="2" width="3" x="17" y="17"/>

<rect fill="url(#SVGID_6)" height="2" width="3" x="21" y="17"/>

<linearGradient gradientUnits="userSpaceOnUse" id="SVGID_9" x1="14.5" x2="14.5" y1="12" y2="21.98">

<stop offset="0" stop-color="#696D6F"/>

<stop offset="1" stop-color="#252629"/>

</linearGradient>

<rect fill="url(#SVGID_9)" height="2" width="3" x="13" y="20"/>

<rect fill="url(#SVGID_9)" height="2" width="3" x="17" y="20"/>

<rect fill="url(#SVGID_9)" height="2" width="3" x="21" y="20"/>

<linearGradient gradientUnits="userSpaceOnUse" id="SVGID_12" x1="18.5" x2="18.5" y1="10.19" y2="13.06">

<stop offset="0" stop-color="#30BCE8"/>

<stop offset="1" stop-color="#048CC6"/>

</linearGradient>

<rect fill="url(#SVGID_12)" height="3" width="11" x="13" y="10"/>

<path d="M21,30c-4.411,0-8-3.589-8-8s3.589-8,8-8,8,3.589,8,8-3.59,8-8,8z" fill-opacity="0.6"/>

<linearGradient gradientUnits="userSpaceOnUse" id="SVGID_13" x1="21" x2="21" y1="14.97" y2="29.16">

<stop offset="0" stop-color="#4EDEFF"/>

<stop offset="1" stop-color="#048CC6"/>

</linearGradient>

<circle cx="21" cy="22" fill="url(#SVGID_13)" r="7"/>

<polygon fill-opacity="0.2" points="25.34,24,21,19.4,16.66,24,16,23.3,21,18,26,23.3,25.34,24"/>

<polygon fill-opacity="0.2" points="21,20.86,17,25.1,17,27,20,27,20,24,22,24,22,27,25,27,25,25.1"/>

<path d="M21,16c3.697,0,6.717,2.869,6.975,6.5,0.01-0.17,0.02-0.33,0.02-0.5,0-3.865-3.134-7-7-7s-7,3.135-7,7c0,0.169,0.014,0.334,0.025,0.5,0.26-3.63,3.28-6.5,6.98-6.5z" fill="#FFFFFF" fill-opacity="0.4"/>

<polygon fill="#FFFFFF" points="25.34,23,21,18.4,16.66,23,16,22.3,21,17,26,22.3,25.34,23"/>

<polygon fill="#FFFFFF" points="21,19.86,17,24.1,17,26,20,26,20,23,22,23,22,26,25,26,25,24.1"/>

</svg>