<?xml version="1.0" encoding="UTF-8"?>
<!DOCTYPE svg PUBLIC "-//W3C//DTD SVG 1.1 Tiny//EN" "http://www.w3.org/Graphics/SVG/1.1/DTD/svg11-tiny.dtd">
<svg baseProfile="tiny" height="60" viewBox="0 0 60 60" width="60" xmlns="http://www.w3.org/2000/svg" xmlns:xlink="http://www.w3.org/1999/xlink">
<g>
<rect fill="none" height="60" width="60"/>
<linearGradient gradientUnits="userSpaceOnUse" id="SVGID_1" x1="30" x2="30" y1="51.18" y2="8.63">
<stop offset="0" stop-color="#004E8C"/>
<stop offset="1" stop-color="#1B66D8"/>
</linearGradient>
<circle cx="30" cy="30" fill="url(#SVGID_1)" r="21.429"/>
<radialGradient cx="29.7" cy="22.59" gradientUnits="userSpaceOnUse" id="SVGID_2" r="25.8">
<stop offset="0" stop-color="#94FFFF"/>
<stop offset="0.5" stop-color="#36B5FF"/>
<stop offset="1" stop-color="#1B66D8"/>
</radialGradient>
<circle cx="30" cy="30" fill="url(#SVGID_2)" r="20.88"/>
<linearGradient gradientUnits="userSpaceOnUse" id="SVGID_3" x1="30" x2="30" y1="8.94" y2="50.99">
<stop offset="0" stop-color="#31A7F8"/>
<stop offset="0.5" stop-color="#1E74DC"/>
<stop offset="1" stop-color="#88D6EB"/>
</linearGradient>
<path d="M30.001,9.121C18.468,9.121,9.119,18.471,9.119,30 c0,11.533,9.349,20.879,20.882,20.879S50.88,41.533,50.88,30C50.88,18.471,41.534,9.121,30.001,9.121z M30.001,49.051 c-10.843,0-19.663-8.818-19.663-19.658c0-10.844,8.82-19.662,19.663-19.662c10.841,0,19.66,8.818,19.66,19.662 C49.661,40.232,40.842,49.051,30.001,49.051z" fill="url(#SVGID_3)" fill-opacity="0.3"/>
<linearGradient gradientUnits="userSpaceOnUse" id="SVGID_4" x1="9.46" x2="12.78" y1="32.84" y2="32.84">
<stop offset="0" stop-color="#58595B"/>
<stop offset="1" stop-color="#000000"/>
</linearGradient>
<path d="M11.08,29.66c-0.223-0.295-0.725-0.295-0.946-0.295c-0.437,0-0.669,0.311-0.673,0.615 v0.021l0.001,0.031c-0.001,0.537,0.029,1.139,0.094,1.871c0.013,0.137,0.029,0.275,0.047,0.414l0.024,0.201 c0.056,0.434,0.121,0.861,0.195,1.273l0.034,0.182c0.032,0.164,0.063,0.324,0.098,0.484c0.09,0.406,0.198,0.826,0.332,1.291 c0.02,0.066,0.037,0.135,0.055,0.199c0.028,0.109,0.058,0.217,0.091,0.322l0.005,0.014l0.012,0.033 c-0.003-0.008-0.008-0.023-0.01-0.037l1.197-0.08c0.02-0.188,0.025-0.381,0.02-0.576c-0.01-0.303-0.021-0.676-0.107-0.99 l1.112-1.494l0.12-0.162v-0.203v-1.162v-0.254l-0.179-0.178L11.08,29.66z" fill="url(#SVGID_4)" fill-opacity="0.3"/>
<linearGradient gradientUnits="userSpaceOnUse" id="SVGID_5" x1="15.86" x2="50.59" y1="26.76" y2="26.76">
<stop offset="0" stop-color="#58595B"/>
<stop offset="1" stop-color="#000000"/>
</linearGradient>
<path d="M50.584,25.908c-0.015-0.078-0.029-0.135-0.043-0.191 c-0.011-0.041-0.021-0.084-0.029-0.123c-0.106-0.496-0.237-1.006-0.392-1.527l-0.018-0.057c-0.032-0.117-0.067-0.234-0.104-0.35 c-0.188-0.586-0.393-1.148-0.608-1.666c-0.027-0.064-0.057-0.125-0.084-0.188l-0.045-0.1c-0.207-0.475-0.436-0.947-0.677-1.402 l-0.03-0.059c-0.047-0.09-0.093-0.182-0.142-0.27c-0.296-0.533-0.604-1.041-0.918-1.512c-0.032-0.049-0.069-0.102-0.106-0.154 c-0.023-0.031-0.045-0.061-0.066-0.092c-0.302-0.438-0.618-0.863-0.946-1.268l-0.064-0.082c-0.044-0.055-0.088-0.111-0.134-0.166 c-0.381-0.457-0.783-0.898-1.199-1.318c-0.056-0.055-0.115-0.113-0.176-0.172l-0.049-0.047c-0.375-0.367-0.774-0.73-1.184-1.072 l-0.08-0.07c-0.041-0.037-0.083-0.072-0.125-0.105c-0.446-0.367-0.931-0.729-1.436-1.076c-0.062-0.041-0.125-0.084-0.189-0.123 l-0.076-0.051c-0.455-0.301-0.93-0.59-1.405-0.854l-0.073-0.041c-0.039-0.023-0.078-0.045-0.118-0.068 c-0.529-0.283-1.081-0.551-1.643-0.791l-0.142-0.059l-0.153-0.063c-0.148-0.061-0.297-0.113-0.443-0.166 c-0.077-0.025-0.152-0.053-0.228-0.08l-0.283-0.105l-0.254,0.162c-0.17,0.107-0.84,0.49-1.235,0.715 c-0.438-0.059-1.499-0.191-2.57-0.295c0.33-0.033,0.786-0.07,1.43-0.111l0.09-1.203l-0.047-0.014 c-0.039-0.01-0.077-0.02-0.116-0.027L34.38,9.65l-0.075-0.016c-0.655-0.131-1.271-0.227-1.882-0.291h-0.004l-0.085-0.008 c-0.698-0.072-1.409-0.107-2.112-0.107c-0.621,0-1.262,0.033-1.964,0.1c-0.108,0.01-0.214,0.021-0.321,0.033 c-0.693,0.078-1.3,0.17-1.873,0.285l-0.02,0.004l-0.015,0.002c-0.604,0.125-1.211,0.281-1.856,0.479 c-0.058,0.018-0.116,0.037-0.174,0.055l-0.13,0.043c-0.547,0.176-1.082,0.371-1.596,0.582c-0.042,0.018-0.071,0.029-0.1,0.039 l-0.078,0.031c-0.564,0.24-1.128,0.512-1.688,0.813c-0.06,0.031-0.118,0.066-0.177,0.1l-0.072,0.041 c-0.157,0.088-0.315,0.186-0.473,0.283l-0.203,0.127l-1.118,0.684l1.242,0.416c0.186,0.063,0.385,0.094,0.592,0.094 c0.67,0,1.317-0.33,1.838-0.594c0.209-0.105,0.521-0.264,0.648-0.289c0.152,0.047,0.306,0.068,0.458,0.068 c0.568,0,1.035-0.307,1.446-0.578l0.111-0.07c0.134-0.043,0.362-0.129,0.818-0.299c0.465-0.176,1.314-0.494,1.54-0.547 c0.44-0.006,0.966-0.068,1.339-0.301c0.352,0.059,0.976,0.156,1.619,0.24c-0.047,0.029-0.093,0.059-0.132,0.098 c-0.209,0.191-1.335,0.533-1.68,0.578c-0.648,0.08-0.908,0.406-1.012,0.666c-0.135,0.336-0.054,0.672,0.078,0.945 c-0.245,0.162-0.545,0.342-0.804,0.479c0.001-0.006,0.003-0.012,0.004-0.02c0.093-0.518,0.16-0.891-0.091-1.189 c-0.128-0.154-0.317-0.24-0.518-0.24c-0.296,0-0.526,0.182-0.712,0.361c-0.519,0.502-0.833,1.129-0.952,1.365l-0.022,0.043 l-0.019,0.035c-0.225,0.432-0.317,0.736-0.191,1.689c-0.057,0.039-0.22,0.102-0.446,0.102c-0.03,0-0.058-0.002-0.079-0.004 c-0.146-0.158-0.349-0.248-0.576-0.248l0,0c-0.524,0-1.238,0.59-2.123,1.754l-0.284,0.375l0.289,0.371l0.269,0.342 c-4.215,3.26-4.246,3.445-4.291,3.717c-0.008,0.025-0.045,0.139-0.095,0.293c-0.628,1.953-0.977,3.414-0.638,4.195 c0.785,1.813,1.67,3.506,2.816,3.598c0.101,0.01,0.212,0.012,0.332,0.012c1.051,0,2.753-0.316,3.571-0.484 c0.151,0.283,0.335,0.615,0.437,0.795l0.182,0.322l0.37-0.012c0,0,0.2-0.006,0.448-0.006c0.287,0,0.478,0.008,0.602,0.018 c0.447,1.307,1.3,4.318,1.142,4.943l-0.003,0.002c-1.441,2.16,0.306,4.975,1.145,6.328c0.066,0.107,0.126,0.203,0.177,0.287 c0.324,0.922,0.716,1.531,1.545,1.531c0.062,0,0.124-0.004,0.188-0.006c0.047-0.004,0.096-0.006,0.146-0.006 c0.092,0,0.157,0.012,0.225,0.035l0.076,0.027l0.08,0.008c0.155,0.012,0.306,0.033,0.453,0.055c0.255,0.035,0.519,0.07,0.788,0.07 c0.721,0,1.293-0.271,1.787-0.855c0.019-0.002,0.036-0.004,0.054-0.006c0.519-0.072,0.713-0.332,0.779-0.564 c0.039-0.039,0.09-0.086,0.131-0.125c0.204-0.188,0.447-0.41,0.615-0.674c0.076-0.045,0.161-0.096,0.258-0.152 c0.167-0.104,0.355-0.217,0.504-0.293c0.131-0.039,0.246-0.117,0.334-0.225c0.209-0.256,0.166-0.549,0.131-0.783 c-0.035-0.242-0.071-0.49,0.06-0.758c0.738-0.355,2.051-1.23,2.263-1.373L37.627,38.5c-0.014,0.117-0.048,0.432-0.101,0.629 c-0.279,0.279-0.512,0.703-0.586,0.846l-0.048,0.094l-0.015,0.104c-0.019,0.137-0.094,0.85,0.306,1.311 c0.202,0.23,0.49,0.359,0.813,0.359c0.103,0,0.21-0.014,0.319-0.039c1.027-0.232,2.85-2.701,2.998-4.064 c0.072-0.658-0.185-1.174-0.704-1.418l-0.387-0.184l-0.304,0.303l-1.125,1.125c-0.381,0.035-0.678,0.148-0.879,0.326 c0.012-0.48-0.035-0.973-0.086-1.451c-0.155-1.447-0.185-2.369,0.703-2.996l0.045-0.033l0.039-0.039 c0.32-0.326,0.675-0.611,1.051-0.914c0.88-0.705,1.79-1.436,2.332-2.758l0.022-0.057c0.174-0.451,0.437-1.131,0.081-1.65 c-0.088-0.129-0.275-0.326-0.623-0.398c0.461-0.184,0.815-0.332,0.85-0.344l0.107-0.045l0.083-0.08l1.898-1.822l0.278-0.268 l-0.122-0.367c-0.017-0.047-0.12-0.334-0.411-0.746c0.554,0.074,1.029,0.207,1.185,0.326c0.057,0.123,0.171,0.396,0.292,0.682 c2.089,4.926,2.382,5.178,2.926,5.188c0.021,0,0.037,0.002,0.051,0.004c0.043,0.002,0.083,0.004,0.119,0.004 c0.31,0,0.486-0.158,0.564-0.252c0.227-0.273,0.163-0.609,0.14-0.734l-0.009-0.043c-0.025-0.295-0.008-1.619,0.034-2.707 c0.003,0.004,0.004,0.006,0.006,0.01l1.12-0.445L50.584,25.908z M34.126,19.885c-0.087,0.004-0.182,0.01-0.282,0.012 c-0.322,0.016-0.688,0.031-1.053,0.031c-0.956,0-1.174-0.117-1.196-0.131c-0.113-0.082-0.229-0.143-0.35-0.188 c0.216-0.049,0.464-0.215,0.719-0.709c0.251,0.488,0.592,0.918,1.115,0.918c0.141,0,0.277-0.033,0.406-0.1 C33.661,19.721,33.951,19.82,34.126,19.885z M33.751,17.221c-0.072,0-0.131-0.004-0.176-0.006c0.049-0.129,0.107-0.203,0.154-0.244 c0.06,0.092,0.141,0.174,0.232,0.244C33.888,17.219,33.817,17.221,33.751,17.221z M29.948,18.5c0.327,0.641,0.569,0.916,0.762,1.037 c-0.475,0.037-0.832,0.338-1.126,0.625c-0.206-0.068-0.565-0.287-0.672-0.438c-0.063-0.09-0.138-0.166-0.221-0.232 C29.211,19.344,29.667,18.861,29.948,18.5z M28.141,18.027l-0.679-0.033l-2.278-0.111c0.278-0.229,0.542-0.443,0.696-0.57 c0.043-0.016,0.205-0.061,0.607-0.061c0.241,0,0.473,0.018,0.619,0.029L28.141,18.027z" fill="url(#SVGID_5)" fill-opacity="0.3"/>
<radialGradient cx="30.36" cy="15.28" gradientUnits="userSpaceOnUse" id="SVGID_6" r="23.56">
<stop offset="0" stop-color="#7AF200"/>
<stop offset="0.32" stop-color="#7AF200"/>
<stop offset="0.73" stop-color="#1CAD0F"/>
<stop offset="1" stop-color="#007A3A"/>
</radialGradient>
<path d="M10.069,29.988c0,0,0,0,0,0.002c0,0.006,0.001,0.01,0.001,0.016c0,0.623,0.039,1.236,0.093,1.844 c0.018,0.199,0.047,0.398,0.069,0.6c0.053,0.416,0.116,0.828,0.19,1.236c0.041,0.215,0.081,0.434,0.127,0.646 c0.094,0.422,0.203,0.838,0.322,1.248c0.049,0.17,0.088,0.342,0.14,0.508c0.007,0.018,0.015,0.033,0.019,0.053 c0.017-0.162,0.021-0.328,0.017-0.496c-0.04-1.201-0.232-1.047-0.232-1.047l1.356-1.822v-1.162l-1.59-1.59 C10.581,30.023,10.07,29.943,10.069,29.988z" fill="url(#SVGID_6)"/>
<path d="M22.83,11.963c0.587,0.193,1.066-0.199,1.613-0.549c0.193-0.039,2.338-0.895,2.57-0.895 c0.231,0,1.011-0.031,1.204-0.34c0,0,3.357,0.584,3.863,0.389c0.275-0.107,1.432-0.201,2.425-0.266 c-0.056-0.012-0.106-0.027-0.162-0.039c-0.054-0.012-0.106-0.02-0.161-0.031c-0.623-0.125-1.252-0.225-1.894-0.289 c0,0-0.01,0-0.016-0.002c-0.674-0.068-1.358-0.104-2.052-0.104c-0.644,0-1.277,0.037-1.906,0.098 c-0.11,0.01-0.221,0.021-0.332,0.035c-0.607,0.066-1.21,0.154-1.8,0.273c-0.01,0.004-0.021,0.004-0.031,0.006 c-0.612,0.127-1.213,0.283-1.802,0.463c-0.102,0.031-0.199,0.064-0.302,0.096c-0.522,0.17-1.038,0.357-1.544,0.564 c-0.06,0.027-0.119,0.049-0.18,0.072c-0.557,0.238-1.1,0.502-1.63,0.785c-0.08,0.043-0.156,0.088-0.235,0.133 c-0.227,0.127-0.439,0.268-0.659,0.402C20.892,13.129,22.253,11.768,22.83,11.963z" fill="url(#SVGID_6)"/>
<radialGradient cx="30.36" cy="15.27" gradientUnits="userSpaceOnUse" id="SVGID_8" r="23.56">
<stop offset="0" stop-color="#B2F56E"/>
<stop offset="0.32" stop-color="#B2F56E"/>
<stop offset="0.73" stop-color="#5CBF1B"/>
<stop offset="1" stop-color="#227A00"/>
</radialGradient>
<path d="M49.983,26.01c-0.021-0.102-0.049-0.197-0.069-0.297c-0.106-0.498-0.233-0.99-0.378-1.473 c-0.038-0.131-0.076-0.264-0.117-0.395c-0.176-0.549-0.372-1.09-0.592-1.617c-0.039-0.092-0.084-0.184-0.124-0.273 c-0.202-0.465-0.421-0.92-0.657-1.363c-0.055-0.107-0.109-0.217-0.166-0.32c-0.279-0.502-0.575-0.992-0.893-1.469 c-0.054-0.082-0.115-0.16-0.17-0.242c-0.291-0.422-0.596-0.832-0.916-1.229c-0.064-0.078-0.127-0.16-0.194-0.24 c-0.368-0.441-0.756-0.867-1.161-1.277c-0.069-0.07-0.143-0.139-0.215-0.207c-0.369-0.363-0.756-0.715-1.152-1.049 c-0.068-0.055-0.132-0.115-0.199-0.17c-0.448-0.365-0.914-0.715-1.395-1.043c-0.084-0.057-0.17-0.113-0.256-0.168 c-0.442-0.293-0.898-0.57-1.365-0.83c-0.064-0.033-0.124-0.072-0.188-0.107c-0.52-0.277-1.05-0.533-1.594-0.768 c-0.097-0.041-0.195-0.078-0.29-0.119c-0.212-0.088-0.432-0.156-0.646-0.236c-0.255,0.164-1.438,0.832-1.438,0.832 s-5.141-0.701-5.491-0.352c-0.351,0.352-1.721,0.711-2.034,0.75c-0.309,0.041-0.955,0.207-0.181,1.162 c-0.116,0.117-2.325,1.656-2.325,0.957c0-0.701,0.494-1.953-0.2-1.283c-0.498,0.482-0.796,1.135-0.86,1.258 c-0.162,0.313-0.263,0.461-0.145,1.357c0.118,0.895-1.43,0.891-1.534,0.658c-0.276-0.621-1.809,1.395-1.809,1.395l0.646,0.828 c0,0-4.51,3.473-4.548,3.707c-0.039,0.234-1.164,3.25-0.775,4.146c0.39,0.898,1.375,3.158,2.307,3.232 c1.221,0.102,4.186-0.559,4.186-0.559c0.08,0.197,0.638,1.191,0.638,1.191s1.452-0.049,1.534,0.109 c0.026,0.053,1.75,5.121,1.182,5.793c-1.357,2.033,0.775,5.012,1.369,6.02c0.594,1.73,0.977,0.955,1.758,1.24 c0.962,0.082,1.772,0.438,2.589-0.613c0.237-0.195,0.641-0.041,0.641-0.313c0-0.15,0.698-0.598,0.878-1.018 c0.188-0.088,0.674-0.414,1.003-0.572c0.299-0.02-0.283-0.818,0.309-1.666c0.64-0.252,2.364-1.414,2.364-1.414 c0.078-1.705-0.839-3.811,0.873-5.02c1.104-1.125,2.553-1.766,3.255-3.479c0.194-0.506,0.628-1.541-0.62-1.23 c-1.172,0.295-2.479,0.361-1.861-0.154c-0.07-0.635-0.85-0.932-1.549-1.551c-0.361-0.855-0.93-2.379-0.93-2.379l-1.24-1.885 l0.155-0.389l1.474,2.17l1.474,1.781c0.542,1.783,1.007,1.939,1.007,1.939c0.816-0.287,2.752-1.084,2.752-1.084l1.899-1.822 c0,0-0.195-0.582-0.967-1.318l-0.584-0.348c-0.126,0.357-0.802,0.49-0.802,0.49l-1.641-1.963l0.61-0.123l0.471,0.895l1.128,0.391 c0,0,0.313-0.229,0.893,0.371c0.473-0.039,2.318,0.09,2.749,0.637c0.085,0.107,2.286,5.605,2.721,5.613 c0.19,0.002,0.329,0.076,0.267-0.256c-0.078-0.156,0-3.609,0.116-4.35c0.295-0.627,0.343-0.002,1.04,1.189 C49.991,26.068,49.989,26.039,49.983,26.01z M30.61,12.688c0.154-0.459,1.047-0.615,1.047-0.615s-0.256,0.473-0.197,0.717 c0.06,0.246-0.408,0.4-0.46,0.98c-0.051,0.578-1.117,0.24-1.204,0.037C29.708,13.604,30.453,13.145,30.61,12.688z M34.434,20.488 c-0.661,0-2.645,0.195-3.19-0.193s-0.97,0.039-1.363,0.43c-0.257,0.252-1.193-0.26-1.467-0.65c-0.271-0.391-1.188-0.361-1.188-0.361 l0.208-1.111l-2.637-0.127l-1.499,0.439l-1.41,0.039l0.79-0.375l0.983-0.232c0,0,1.431-1.176,1.859-1.525 c0.363-0.297,1.811-0.131,1.811-0.131l1.589,1.146c0,0-0.353,0.898-0.508,1.09c0.582-0.037,1.27-1.098,1.27-1.098 c-1.24-1.139-1.189-1.525-1.189-1.525l1.633,1.146l0.016,0.01c0,0,0.661,1.559,0.937,1.559c0.271,0,0.619-1.072,0.619-1.072 l0.465-0.117c0.207,0.49,0.595,1.602,1.059,1.342c0.269-0.146,0.71-0.014,1.215,0.182c0.509,0.193,0.854-0.105,1.267,0.258 C35.647,21.213,34.707,20.566,34.434,20.488z M35.471,17.807c-0.681-0.26-2.984,0.586-2.47-0.795 c0.275-0.748,0.98-0.902,1.223-0.406c0.063,0.203,0.83,0.52,0.824,0.09c-0.006-0.432,0.771-0.658,0.883-0.338 C35.517,16.654,37.55,18.205,35.471,17.807z M39.81,19.117c-0.377-0.305,0.169-0.564-0.387-1.041 c-0.799-0.684-1.421-0.979-0.334-1.531c1.341-0.17,0.217,0.428,0.44,0.785c0.119,0.189,0.796,0.828,1.325,1.609 C41.294,19.59,40.185,19.42,39.81,19.117z" fill="url(#SVGID_8)"/>
<path d="M40.351,36.871l-1.293,1.293c0,0-0.778,0-0.815,0.311c-0.017,0.133-0.063,0.709-0.192,1.006 c-0.258,0.18-0.569,0.775-0.569,0.775s-0.159,1.15,0.699,0.955S41.677,37.496,40.351,36.871z" fill="url(#SVGID_6)"/>
</g>
<g transform="matrix(1 0 0 1 30 30)">
<g>
<path d="M0,30V0h30v30H0z M23.599,26.25l-8.732-8.732L6.134,26.25H23.599z M26.25,23.599V6.134l-8.732,8.732   L26.25,23.599z M3.75,23.331l8.465-8.465L3.75,6.401V23.331z M14.866,12.215L23.33,3.75H6.402L14.866,12.215z" fill-opacity="0.6" stroke-opacity="0.6"/>
<linearGradient gradientUnits="userSpaceOnUse" id="SVGID_1_" x1="14.9995" x2="14.9995" y1="0.9941" y2="29.1902">
<stop offset="0" style="stop-color:#E6E6E6"/>
<stop offset="0.6182" style="stop-color:#A8A8A8"/>
<stop offset="1" style="stop-color:#CCCCCC"/>
</linearGradient>
<path d="M0.938,0.938v28.125h28.125V0.938H0.938z M13.541,14.866L2.813,25.595V4.138L13.541,14.866z    M4.139,2.813h21.455L14.866,13.541L4.139,2.813z M14.866,16.192l10.995,10.995H3.871L14.866,16.192z M16.192,14.866L27.188,3.871   v21.99L16.192,14.866z" fill="url(#SVGID_1_)"/>
<g>
<polygon fill-opacity="0.6" points="8.547,25.313 7.61,17.813 5.625,17.813 5.625,12.199 24.375,12.199 24.375,17.813 22.391,17.813     21.453,25.313   " stroke-opacity="0.6"/>
<linearGradient gradientUnits="userSpaceOnUse" id="SVGID_2_" x1="14.9995" x2="14.9995" y1="12.103" y2="23.9943">
<stop offset="0" style="stop-color:#A0F800"/>
<stop offset="1" style="stop-color:#319E00"/>
</linearGradient>
<polygon fill="url(#SVGID_2_)" points="6.563,13.137 6.563,16.875 8.438,16.875 9.375,24.375 20.625,24.375 21.563,16.875     23.438,16.875 23.438,13.137   "/>
<path d="M13.125,14.063v-2.886c-0.348,0.048-0.692,0.073-1.03,0.073c-0.804,0-1.568-0.139-2.272-0.414    C5.866,9.294,5.955,6.329,5.96,6.204l0.019-0.408l0.312-0.265c0.103-0.088,1.06-0.855,2.881-0.855c0.958,0,1.99,0.212,3.066,0.632    c1.3,0.506,2.174,1.126,2.762,1.716c0.588-0.589,1.462-1.209,2.762-1.716c1.076-0.42,2.108-0.632,3.066-0.632    c1.82,0,2.777,0.767,2.881,0.855l0.313,0.265l0.019,0.408c0.005,0.125,0.094,3.091-3.862,4.632    c-0.704,0.275-1.469,0.414-2.272,0.414c-0.338,0-0.683-0.025-1.03-0.073v2.886H13.125z" fill-opacity="0.6" stroke-opacity="0.6"/>
<path d="M10.163,9.963c1.436,0.559,2.896,0.346,3.899,0.057v3.105h1.875V10.02    c1.003,0.289,2.464,0.502,3.899-0.057c3.375-1.316,3.267-3.717,3.267-3.717s-1.627-1.379-5.002-0.064    C16.242,6.907,15.392,7.849,15,8.551c-0.392-0.702-1.242-1.644-3.102-2.369C8.523,4.866,6.896,6.246,6.896,6.246    S6.788,8.647,10.163,9.963z" fill="url(#SVGID_3_)"/>
<defs>
<linearGradient gradientUnits="userSpaceOnUse" id="SVGID_3_" x1="14.9995" x2="14.9995" y1="4.9224" y2="12.8702">
<stop offset="0" style="stop-color:#A0F800"/>
<stop offset="1" style="stop-color:#319E00"/>
</linearGradient>
</defs>
</g>
<linearGradient gradientUnits="userSpaceOnUse" id="SVGID_4_" x1="14.9995" x2="14.9995" y1="12.5542" y2="17.3683">
<stop offset="0" style="stop-color:#D07100"/>
<stop offset="1" style="stop-color:#A23600"/>
</linearGradient>
<rect fill="url(#SVGID_4_)" height="3.738" width="16.875" x="6.563" y="13.137"/>
<linearGradient gradientUnits="userSpaceOnUse" id="SVGID_5_" x1="14.9995" x2="14.9995" y1="16.8408" y2="24.5597">
<stop offset="0" style="stop-color:#D07100"/>
<stop offset="1" style="stop-color:#A23600"/>
</linearGradient>
<polygon fill="url(#SVGID_5_)" points="20.625,24.375 9.375,24.375 8.438,16.875 21.563,16.875  "/>
<path d="M23.104,6.246c0,0-1.627-1.379-5.002-0.064C16.242,6.907,15.392,7.849,15,8.551   c-0.392-0.702-1.242-1.644-3.102-2.369C8.523,4.866,6.896,6.246,6.896,6.246s-0.109,2.401,3.267,3.717   c1.436,0.559,2.896,0.346,3.899,0.057v3.105h1.875V10.02c1.003,0.289,2.464,0.502,3.899-0.057   C23.212,8.647,23.104,6.246,23.104,6.246z" fill="url(#SVGID_3_)"/>
<g fill-opacity="0.2" stroke-opacity="0.2">
<path d="M14.063,9.082c-1.003,0.289-2.464,0.502-3.899-0.057C8.06,8.205,7.31,6.963,7.042,6.144    c-0.094,0.06-0.146,0.102-0.146,0.102s-0.109,2.401,3.267,3.717c1.436,0.559,2.896,0.346,3.899,0.057V9.082z"/>
<path d="M22.958,6.144c-0.268,0.819-1.018,2.061-3.121,2.881c-1.436,0.559-2.896,0.346-3.899,0.057v0.938    c1.003,0.289,2.464,0.502,3.899-0.057c3.375-1.316,3.267-3.717,3.267-3.717S23.052,6.204,22.958,6.144z"/>
<rect height="0.938" width="1.875" x="14.063" y="12.188"/>
</g>
<rect fill="#FFFFFF" fill-opacity="0.3" height="0.926" stroke-opacity="0.3" width="16.875" x="6.563" y="13.137"/>
<polygon fill-opacity="0.2" points="21.445,17.813 21.563,16.875 8.438,16.875 8.555,17.813  " stroke-opacity="0.2"/>
</g>
</g>
</svg>
