<?xml version="1.0" encoding="UTF-8"?>
<!DOCTYPE svg PUBLIC "-//W3C//DTD SVG 1.1 Tiny//EN" "http://www.w3.org/Graphics/SVG/1.1/DTD/svg11-tiny.dtd">
<svg baseProfile="tiny" height="15px" version="1.1" viewBox="0 0 15 15" width="15px" x="0px" xmlns="http://www.w3.org/2000/svg" xmlns:xlink="http://www.w3.org/1999/xlink" y="0px">
<g>
<path d="M9,6c-4.963,0-9,4.037-9,9h15V6H9z" fill="#14141E" fill-opacity="0.1" fill-rule="evenodd" stroke-opacity="0.1"/>
<path d="M8,7c-4.411,0-8,3.59-8,8h15V7H8z" fill="url(#SVGID_1_)" fill-rule="evenodd"/>
<path d="M14,7H8c-4.411,0-8,3.59-8,8h1c0-3.859,3.14-7,7-7h6h1V7H14z" fill-opacity="0.2" stroke-opacity="0.2"/>
<path d="M8,8c-3.86,0-7,3.141-7,7h1c0-3.309,2.691-6,6-6h7   V8H8z" fill="#FFFFFF" fill-opacity="0.2" fill-rule="evenodd" stroke-opacity="0.2"/>
<rect fill="none" height="15" width="15"/>
<defs>
<linearGradient gradientUnits="userSpaceOnUse" id="SVGID_1_" x1="7.5005" x2="7.5005" y1="52.8105" y2="7.1469">
<stop offset="0" style="stop-color:#59B397"/>
<stop offset="1" style="stop-color:#2A7362"/>
</linearGradient>
</defs>
</g>
</svg>
