<?xml version="1.0" encoding="utf-8"?>
<!-- Generator: Adobe Illustrator 14.0.0, SVG Export Plug-In  -->
<!DOCTYPE svg PUBLIC "-//W3C//DTD SVG 1.1//EN" "http://www.w3.org/Graphics/SVG/1.1/DTD/svg11.dtd" [
	<!ENTITY ns_flows "http://ns.adobe.com/Flows/1.0/">
]>
<svg version="1.1"
	 xmlns="http://www.w3.org/2000/svg" xmlns:xlink="http://www.w3.org/1999/xlink" xmlns:a="http://ns.adobe.com/AdobeSVGViewerExtensions/3.0/"
	 x="0px" y="0px" width="30px" height="30px" viewBox="0 0 30 30" enable-background="new 0 0 30 30" xml:space="preserve">
<defs>
</defs>
<rect fill="none" width="30" height="30"/>
<path d="M22.443,18.261c-0.01-0.135-0.002-0.785,0-0.922c0.932-0.627,1.584-1.365,2.074-2.328c0.908-1.781,0.422-5.977,0.422-5.977
	C24.939,7.175,22.471,5,20.59,5h-1.191c-1.879,0-4.354,2.176-4.354,4.035c0,0-0.43,4.174,0.42,5.971
	c0.467,0.982,1.139,1.709,2.092,2.334c0.002,0.129,0.01,0.795,0.002,0.922c-0.117,1.822-6.258,5.09-6.559,5.484V29h2.988v-2h2v2h8
	v-2h2v2H29v-5.25C28.699,23.353,22.559,20.083,22.443,18.261z"/>
<path d="M6.143,8.5c0-3.229,2.023-5.971,4.857-7.029C10.197,1.173,9.334,1,8.428,1C4.324,1,1,4.357,1,8.5S4.324,16,8.428,16
	c0.906,0,1.77-0.17,2.572-0.471C8.166,14.472,6.143,11.728,6.143,8.5z"/>
</svg>
