<?xml version="1.0" encoding="UTF-8"?>
<!DOCTYPE svg PUBLIC "-//W3C//DTD SVG 1.1 Tiny//EN" "http://www.w3.org/Graphics/SVG/1.1/DTD/svg11-tiny.dtd">
<svg baseProfile="tiny" height="30px" version="1.1" viewBox="0 0 30 30" width="30px" x="0px" xmlns="http://www.w3.org/2000/svg" xmlns:xlink="http://www.w3.org/1999/xlink" y="0px">
<g fill-opacity="0.5" stroke-opacity="0.5">
<rect fill="none" height="30" width="30"/>
</g>
<rect height="3" width="2" x="7" y="10"/>
<rect height="3" width="2" x="11" y="10"/>
<rect height="3" width="2" x="7" y="15"/>
<rect height="3" width="2" x="11" y="15"/>
<path d="M18,8V1L2,7v21h26V8H18z M15,25h-3v-5H8v5H5V9.079l10-3.75V25z M25,23h-6v-2h6V23z M25,18h-6v-2h6V18z M25,13h-6v-2h6V13z"/>
</svg>
