<?xml version="1.0" encoding="UTF-8" standalone="no"?>
<!DOCTYPE svg PUBLIC "-//W3C//DTD SVG 1.1 Tiny//EN" "http://www.w3.org/Graphics/SVG/1.1/DTD/svg11-tiny.dtd">
<svg xmlns="http://www.w3.org/2000/svg" xmlns:xlink="http://www.w3.org/1999/xlink" baseProfile="tiny" height="30" viewBox="0 0 30 30" width="30">
<g>
<rect fill-opacity="0.6" height="30" stroke-opacity="0.6" width="30"/>
<linearGradient gradientUnits="userSpaceOnUse" id="SVGID_1_" x1="15" x2="15" y1="1.219" y2="29.44">
<stop offset="0" stop-color="#4EDEFF"/>
<stop offset="1" stop-color="#16A0D4"/>
</linearGradient>
<rect fill="url(#SVGID_1_)" height="28" width="28" x="1" y="1"/>
<linearGradient gradientUnits="userSpaceOnUse" id="SVGID_2_" x1="15" x2="15" y1="3.188" y2="27.38">
<stop offset="0" stop-color="#E0E1E2"/>
<stop offset="1" stop-color="#FFFFFF"/>
</linearGradient>
<rect fill="url(#SVGID_2_)" height="24" width="24" x="3" y="3"/>
<path d="M3,3v24h2v-20c0-0.55,0.45-1,1-1h18c0.55,0,1,0.45,1,1v20h2v-24h-24z" fill-opacity="0.05" stroke-opacity="0.05"/>
<path d="M3,3v24h1v-21c0-0.55,0.45-1,1-1h20c0.55,0,1,0.45,1,1v21h1v-24h-24z" fill-opacity="0.1" stroke-opacity="0.1"/>
<rect fill-opacity="0.1" height="1" stroke-opacity="0.1" width="24" x="3" y="3"/>
<polygon fill-opacity="0.6" points="11.89,22.98,4.213,15.31,8.303,11.22,12.54,15.46,21.7,6.31,25.79,10.4,12.49,23.69" stroke-opacity="0.6"/>
<linearGradient gradientUnits="userSpaceOnUse" id="SVGID_3_" x1="15" x2="15" y1="6.972" y2="23.64">
<stop offset="0" stop-color="#A0F800"/>
<stop offset="1" stop-color="#319E00"/>
</linearGradient>
<polygon fill="url(#SVGID_3_)" points="24.37,10.4,21.7,7.724,12.54,16.88,8.303,12.63,5.627,15.31,12.54,22.22,12.54,22.21,12.55,22.22"/>
<polygon fill="#FFFFFF" fill-opacity="0.4" points="8.303,13.63,12.54,17.88,21.7,8.724,23.87,10.9,24.37,10.4,21.7,7.724,12.54,16.88,8.303,12.63,5.627,15.31,6.127,15.81" stroke-opacity="0.4"/>
</g>
</svg>
