<?xml version="1.0" encoding="UTF-8"?>
<!DOCTYPE svg PUBLIC "-//W3C//DTD SVG 1.1 Tiny//EN" "http://www.w3.org/Graphics/SVG/1.1/DTD/svg11-tiny.dtd">
<svg baseProfile="tiny" height="30" viewBox="0 0 30 30" width="30" xmlns="http://www.w3.org/2000/svg" xmlns:xlink="http://www.w3.org/1999/xlink">
<g>
<rect fill="none" height="30" width="30"/>
<rect fill-opacity="0.6" height="17.647" stroke-opacity="0.6" width="24.708" x="2.647" y="6.177"/>
<linearGradient gradientUnits="userSpaceOnUse" id="SVGID_1" x1="15" x2="15" y1="7.09" y2="22.98">
<stop offset="0" stop-color="#FEAB0E"/>
<stop offset="0.31" stop-color="#FEAB0E"/>
<stop offset="0.79" stop-color="#FFDA33"/>
<stop offset="1" stop-color="#FFE377"/>
</linearGradient>
<rect fill="url(#SVGID_1)" height="15.883" width="22.943" x="3.53" y="7.059"/>
<polygon fill="#FFFFFF" fill-opacity="0.4" points="15.001,12.912 3.742,22.942 4.773,22.942 15.001,14.583 25.229,22.942 26.26,22.942 " stroke-opacity="0.4"/>
<linearGradient gradientUnits="userSpaceOnUse" id="SVGID_2" x1="15" x2="15" y1="7.06" y2="22.94">
<stop offset="0" stop-color="#C9700B"/>
<stop offset="0.27" stop-color="#C9700B"/>
<stop offset="0.72" stop-color="#E8AC22"/>
<stop offset="1" stop-color="#E8AC22"/>
</linearGradient>
<polygon fill="url(#SVGID_2)" fill-opacity="0.5" points="26.473,7.059 15.122,7.896 3.53,7.059 3.53,7.201 11.35,15.431 3.53,22.891 3.53,22.942 3.742,22.942 11.761,15.797 15.001,18.853 18.241,15.797 26.26,22.942 26.473,22.942 26.473,22.891 18.674,15.431 26.473,7.201 " stroke-opacity="0.5"/>
<linearGradient gradientUnits="userSpaceOnUse" id="SVGID_3" x1="15" x2="15" y1="7.14" y2="17.02">
<stop offset="0" stop-color="#FFF278"/>
<stop offset="1" stop-color="#FFFCDA"/>
</linearGradient>
<polygon fill="url(#SVGID_3)" points="3.642,7.059 15.001,17.18 26.359,7.059 "/>
<rect fill="none" height="30.002" width="30.002"/>
</g>
<g>
<g>
<rect height="15" style="fill:none;" width="15" x="15"/>
<rect height="4.412" style="opacity:0.6;enable-background:new    ;" transform="matrix(-0.2587 0.9659 -0.9659 -0.2587 29.2728 -12.3701)" width="7.941" x="15.412" y="2.841"/>
<linearGradient gradientTransform="matrix(1 0 0 -1 90.98 116.5195)" gradientUnits="userSpaceOnUse" id="SVGID_1_" x1="-70.1851" x2="-73.1451" y1="114.9482" y2="107.6632">
<stop offset="0" style="stop-color:#DE8029"/>
<stop offset="0.26" style="stop-color:#DE4E29"/>
<stop offset="1" style="stop-color:#D82E09"/>
</linearGradient>
<polygon points="20.174,8.913 16.765,8 18.592,1.181 22.001,2.094  " style="fill:url(#SVGID_1_);"/>
<rect height="4.411" style="opacity:0.6;enable-background:new    ;" transform="matrix(-0.7072 0.7071 -0.7071 -0.7072 48.0833 -1.2961)" width="9.707" x="19.457" y="7.104"/>
<linearGradient gradientTransform="matrix(1 0 0 -1 90.98 116.5195)" gradientUnits="userSpaceOnUse" id="SVGID_2_" x1="-63.0112" x2="-70.6762" y1="110.0527" y2="104.0977">
<stop offset="0" style="stop-color:#DE8029"/>
<stop offset="0.26" style="stop-color:#DE4E29"/>
<stop offset="1" style="stop-color:#D82E09"/>
</linearGradient>
<polygon points="22.438,13.677 19.941,11.182 26.182,4.942 28.677,7.438  " style="fill:url(#SVGID_2_);"/>
</g>
<rect height="30.002" style="fill:none;" width="30.002"/>
</g>
</svg>
