<?xml version="1.0" encoding="UTF-8"?>
<!DOCTYPE svg PUBLIC "-//W3C//DTD SVG 1.1 Tiny//EN" "http://www.w3.org/Graphics/SVG/1.1/DTD/svg11-tiny.dtd">
<svg baseProfile="tiny" height="30px" version="1.1" viewBox="0 0 30 30" width="30px" x="0px" xmlns="http://www.w3.org/2000/svg" xmlns:xlink="http://www.w3.org/1999/xlink" y="0px">
<g fill-opacity="0.5" stroke-opacity="0.5">
<rect fill="none" height="30" width="30"/>
</g>
<path d="M14.481,10.677c-1.992,0-3.585,0.628-4.777,1.885c-1.193,1.258-1.79,2.989-1.79,5.197c0,1.423,0.337,2.545,1.012,3.367  c0.675,0.824,1.506,1.234,2.494,1.234c0.758,0,1.401-0.181,1.932-0.545c0.531-0.364,1.019-0.972,1.463-1.823  c0.031,0.11,0.074,0.21,0.112,0.313l2.128-1.596c-0.011-0.198-0.018-0.414-0.018-0.651c0-1.515,0.288-3.975,0.864-7.381H14.481z   M14.234,16.258c-0.197,1.538-0.448,2.618-0.753,3.238c-0.304,0.62-0.704,0.93-1.197,0.93c-0.552,0-0.931-0.223-1.136-0.669  c-0.206-0.447-0.309-1.154-0.309-2.121c0-1.539,0.301-2.759,0.901-3.66s1.328-1.353,2.185-1.353h0.766L14.234,16.258z"/>
<path d="M16.19,24.643c-0.816,0.148-1.612,0.225-2.388,0.225c-5.465,0-8.197-2.861-8.197-8.584c0-2.563,0.738-4.566,2.216-6.01  c1.477-1.443,3.396-2.165,5.759-2.165c2.239,0,3.965,0.685,5.18,2.053c1.214,1.369,1.82,3.311,1.82,5.824  c0,0.029-0.003,0.054-0.003,0.082L22.8,14.4c0.037-0.028,0.081-0.041,0.12-0.066c-0.23-2.387-1.02-4.306-2.383-5.741  C18.896,6.863,16.556,6,13.519,6c-3.045,0-5.56,0.923-7.543,2.772C3.992,10.62,3,13.165,3,16.407c0,3.398,0.965,6.015,2.896,7.846  C7.825,26.085,10.42,27,13.679,27c0.766,0,1.644-0.088,2.636-0.266c0.764-0.138,1.433-0.301,2.013-0.489L16.19,24.643z"/>
<path d="M17.58,4.108c2.239,0,3.965,0.685,5.18,2.053c1.214,1.369,1.82,3.311,1.82,5.824c0,0.037-0.004,0.068-0.004,0.104  c0.164,0.672,0.267,1.391,0.335,2.133C25.578,14.564,26,15.249,26,16v0.071c0.654-1.065,1-2.46,1-4.223  c0-3.108-0.821-5.527-2.463-7.256C22.896,2.863,20.556,2,17.519,2c-2.769,0-5.094,0.771-6.984,2.3C11.481,4.108,12.473,4,13.519,4  c0.92,0,1.79,0.073,2.61,0.215C16.594,4.148,17.075,4.108,17.58,4.108z"/>
<polygon points="29,19 24,19 24,16 16,22 24,28 24,25 29,25 "/>
</svg>
