<?xml version="1.0" encoding="UTF-8"?>
<!DOCTYPE svg PUBLIC "-//W3C//DTD SVG 1.1 Tiny//EN" "http://www.w3.org/Graphics/SVG/1.1/DTD/svg11-tiny.dtd">
<svg baseProfile="tiny" height="30" viewBox="0 0 30 30" width="30" xmlns="http://www.w3.org/2000/svg" xmlns:xlink="http://www.w3.org/1999/xlink">
<rect fill="none" height="30" width="30"/>
<path d="M10.794,10.168c1.569-1.567,4.066-3.208,5.188-3.79c0,0.001,0,0.003,0,0.004c0.002-0.001,0.005-0.006,0.006-0.008 l1.278,2.142c0.183,0.313,0.589,0.408,0.952,0.256l7.36-4.248c0.384-0.22,0.532-0.68,0.333-1.022c0,0-0.202-0.305-0.818-1.062 c0.002,0.001,0.004,0.003,0.005,0.005c-0.001-0.002-0.001-0.005-0.003-0.008c-0.311-0.383-0.349-0.397-0.75-0.765 c-1.205-1.103-2.531-1.536-2.531-1.536c-0.513-0.182-2.24-0.282-4.416,0.374s-7.119,3.823-10.3,7.005 c-3.18,3.183-5.9,7.49-6.42,8.854c-0.814,2.148-0.74,4.517-0.563,5.205c0,0,0.169,0.513,0.56,1.211 c0.005,0.007,0.01,0.016,0.015,0.024c0.038,0.068,0.076,0.136,0.119,0.207c0.001,0.002,0.004,0.001,0.005,0.002 c0.21,0.35,0.464,0.729,0.783,1.114c0.374,0.449,0.392,0.578,0.785,0.925c0.001,0,0.002,0,0.003,0 c0.723,0.636,1.021,0.83,1.021,0.83c0.345,0.224,0.827,0.103,1.08-0.268l4.794-7.042c0.254-0.372,0.186-0.856-0.158-1.078 l-2.725-1.743c-0.01-0.001-0.019-0.001-0.027-0.003c0.002-0.002,0.008-0.01,0.008-0.01C7.644,13.562,9.162,11.803,10.794,10.168z"/>
<circle cx="22" cy="18" r="3"/>
<path d="M27,27h-3v-1.262c3.449-0.89,6-4.012,6-7.738c0-4.419-3.581-8-8-8s-8,3.581-8,8c0,3.727,2.551,6.849,6,7.738V27h-3 c-1.1,0-2,0.9-2,2v1h14v-1C29,27.9,28.1,27,27,27z M17,18c0-2.757,2.243-5,5-5s5,2.243,5,5s-2.243,5-5,5S17,20.757,17,18z"/>
</svg>
