<?xml version="1.0" encoding="UTF-8"?>
<!DOCTYPE svg PUBLIC "-//W3C//DTD SVG 1.1 Tiny//EN" "http://www.w3.org/Graphics/SVG/1.1/DTD/svg11-tiny.dtd">
<svg baseProfile="tiny" height="30px" version="1.1" viewBox="0 0 30 30" width="30px" x="0px" xmlns="http://www.w3.org/2000/svg" xmlns:xlink="http://www.w3.org/1999/xlink" y="0px">
<rect fill="none" height="30" width="30"/>
<path d="M12.794,12.168c1.569-1.566,4.065-3.208,5.188-3.79v0.004c0,0,0.004-0.006,0.006-0.008l1.277,2.142  c0.184,0.313,0.59,0.408,0.952,0.256l7.36-4.248c0.384-0.219,0.531-0.68,0.333-1.021c0,0-0.202-0.305-0.818-1.063l0.005,0.006  c0,0,0-0.006-0.002-0.008c-0.312-0.383-0.35-0.397-0.75-0.766c-1.205-1.104-2.531-1.535-2.531-1.535  c-0.514-0.183-2.24-0.283-4.416,0.373S12.279,6.333,9.098,9.516c-3.18,3.182-5.9,7.489-6.42,8.854  c-0.814,2.148-0.74,4.518-0.563,5.205c0,0,0.169,0.513,0.56,1.211c0.005,0.007,0.011,0.016,0.015,0.023  c0.039,0.068,0.076,0.137,0.119,0.207c0.002,0.002,0.004,0.002,0.004,0.002c0.211,0.351,0.465,0.729,0.785,1.114  c0.373,0.449,0.391,0.578,0.784,0.925h0.003c0.723,0.637,1.021,0.83,1.021,0.83c0.345,0.225,0.826,0.104,1.08-0.268l4.793-7.042  c0.255-0.372,0.187-0.856-0.157-1.078l-2.726-1.743c-0.01-0.001-0.019-0.001-0.026-0.003l0.008-0.01  C9.645,15.563,11.162,13.803,12.794,12.168z"/>
<path d="M22.199,27.536c0.025-0.566,0.176-1.087,0.45-1.561c0.274-0.476,0.611-0.911,1.012-1.306c0.4-0.395,0.955-0.889,1.666-1.481  c1.272-1.051,2.079-1.912,2.421-2.585s0.514-1.355,0.514-2.05c0-1.235-0.382-2.17-1.144-2.805c-0.761-0.633-1.875-0.949-3.342-0.949  c-1.188,0-2.407,0.194-3.66,0.584v1.699h0.019c1.194-0.426,2.211-0.641,3.05-0.641c0.795,0,1.39,0.188,1.786,0.561  c0.398,0.372,0.596,0.928,0.596,1.666c0,0.421-0.123,0.844-0.368,1.271c-0.246,0.428-0.837,1.029-1.773,1.808  c-0.781,0.648-1.426,1.246-1.937,1.791s-0.939,1.202-1.288,1.974c-0.348,0.771-0.521,1.653-0.521,2.646V29.2h8.64v-1.664H22.199z"/>
</svg>
