<?xml version="1.0" encoding="UTF-8"?>
<!DOCTYPE svg PUBLIC "-//W3C//DTD SVG 1.1 Tiny//EN" "http://www.w3.org/Graphics/SVG/1.1/DTD/svg11-tiny.dtd">
<svg baseProfile="tiny" height="72px" version="1.1" viewBox="0 0 72 72" width="72px" x="0px" xmlns="http://www.w3.org/2000/svg" xmlns:xlink="http://www.w3.org/1999/xlink" y="0px">
<path d="M13.8,35.3c0.2-5.6,2.4-10.7,6-14.5L10,11.1C4,17.4,0.2,25.9,0,35.3H13.8z" fill="#424242"/>
<path d="M20.8,19.8c3.8-3.6,8.9-5.8,14.5-6V0C25.9,0.2,17.4,4,11,10L20.8,19.8z" fill="#424242"/>
<path d="M36.7,0v13.8c5.6,0.2,10.7,2.4,14.5,6L61,10C54.7,4,46.1,0.2,36.7,0z" fill="#0067B1"/>
<path d="M19.8,51.201c-3.6-3.801-5.8-8.9-6-14.5H0c0.2,9.398,4,18,10,24.299L19.8,51.201z" fill="#0067B1"/>
<path d="M52.2,20.8c3.6,3.8,5.8,8.9,6,14.5H72C71.8,25.9,68,17.4,62,11L52.2,20.8z" fill="#0067B1"/>
<path d="M35.3,58.201c-5.6-0.201-10.7-2.4-14.5-6L11.1,62C17.4,68.099,25.9,71.9,35.4,72V58.201H35.3z" fill="#0067B1"/>
<path d="M51.2,52.201c-3.8,3.6-8.9,5.799-14.5,6V72C46.1,71.8,54.6,68,61,62L51.2,52.201z" fill="#0067B1"/>
<path d="M58.3,36.701L58.3,36.701c-0.2,5.6-2.5,10.699-6.1,14.5L62,61c6.1-6.299,9.9-14.799,10-24.299H58.3z" fill="#0067B1"/>
<polygon fill="#0067B1" points="6.9,30.8 13.8,35.3 0,35.3 "/>
</svg>
