<?xml version="1.0" encoding="UTF-8" standalone="no"?>
<!DOCTYPE svg PUBLIC "-//W3C//DTD SVG 1.1 Tiny//EN" "http://www.w3.org/Graphics/SVG/1.1/DTD/svg11-tiny.dtd">
<svg xmlns="http://www.w3.org/2000/svg" xmlns:xlink="http://www.w3.org/1999/xlink" baseProfile="tiny" height="30px" version="1.1" viewBox="0 0 30 30" width="30px" x="0px" y="0px">
<rect fill="none" height="30" width="30"/>
<path d="M23.041,9.079L9.08,23.041C10.74,24.266,12.783,25,15,25c5.514,0,10-4.486,10-10  C25,12.783,24.266,10.739,23.041,9.079z" fill="none"/>
<path d="M20.92,6.958C19.26,5.733,17.217,4.999,15,4.999C9.486,4.999,5,9.485,5,15c0,2.216,0.733,4.26,1.958,5.919  L20.92,6.958z" fill="none"/>
<path d="M15,1.999C7.82,1.999,2,7.819,2,15c0,7.18,5.82,13,13,13s13-5.82,13-13C28,7.819,22.18,1.999,15,1.999z M15,4.999  c2.217,0,4.26,0.734,5.92,1.959L6.958,20.919C5.733,19.26,5,17.216,5,15C5,9.485,9.486,4.999,15,4.999z M15,25  c-2.217,0-4.26-0.734-5.92-1.959L23.041,9.079C24.266,10.739,25,12.783,25,15C25,20.514,20.514,25,15,25z"/>
</svg>
