<?xml version="1.0" encoding="UTF-8"?>
<!DOCTYPE svg PUBLIC "-//W3C//DTD SVG 1.1 Tiny//EN" "http://www.w3.org/Graphics/SVG/1.1/DTD/svg11-tiny.dtd">
<svg baseProfile="tiny" height="30" viewBox="0 0 30 30" width="30" xmlns="http://www.w3.org/2000/svg" xmlns:xlink="http://www.w3.org/1999/xlink">
<rect fill="none" height="30" width="30"/>
<path d="M4.427,12.812c-0.771-0.426-1.315-0.787-1.635-1.083s-0.479-0.69-0.479-1.184c0-0.509,0.183-0.907,0.549-1.195 c0.366-0.287,0.854-0.432,1.464-0.432c0.672,0,1.398,0.089,2.18,0.266V7.74C5.769,7.574,4.962,7.49,4.085,7.49 c-1.209,0-2.188,0.281-2.94,0.843s-1.127,1.401-1.127,2.52c0,0.703,0.169,1.329,0.507,1.88s0.993,1.098,1.963,1.64 c0.888,0.504,1.496,0.912,1.822,1.225c0.327,0.313,0.491,0.743,0.491,1.29c0,0.582-0.198,1.029-0.595,1.346 c-0.396,0.314-0.947,0.473-1.652,0.473c-0.742,0-1.594-0.13-2.554-0.391v1.479c0.877,0.227,1.768,0.34,2.672,0.34 c1.475,0,2.583-0.312,3.322-0.934c0.741-0.623,1.111-1.557,1.111-2.802c0-0.691-0.181-1.314-0.54-1.868 C6.204,13.977,5.491,13.403,4.427,12.812z"/>
<path d="M11.923,17.875L10,10.297H7.663l2.612,9.297h1.174c-0.233,0.725-0.471,1.206-0.712,1.443 c-0.241,0.238-0.572,0.357-0.994,0.357s-0.904-0.063-1.447-0.191v1.428c0.604,0.128,1.167,0.191,1.688,0.191 c0.793,0,1.433-0.202,1.918-0.605c0.485-0.404,0.855-1.041,1.11-1.91l2.937-10.01h-1.996L11.923,17.875z"/>
<path d="M29.257,10.943c-0.496-0.525-1.241-0.788-2.233-0.788c-1.171,0-2.075,0.459-2.714,1.378 c-0.433-0.919-1.295-1.378-2.587-1.378c-1.23,0-2.174,0.528-2.828,1.585l-0.391-1.443h-1.315V20h2.255v-5.902 c0-0.769,0.147-1.386,0.44-1.851c0.295-0.465,0.719-0.697,1.273-0.697c0.438,0,0.767,0.155,0.985,0.465 c0.22,0.31,0.329,0.772,0.329,1.386V20h2.246v-5.902c0-0.774,0.15-1.393,0.449-1.854c0.3-0.462,0.729-0.693,1.29-0.693 c0.433,0,0.754,0.14,0.966,0.419c0.21,0.279,0.314,0.757,0.314,1.432V20H30v-6.699C30,12.256,29.753,11.47,29.257,10.943z"/>
</svg>
