<?xml version="1.0" encoding="UTF-8"?>
<!DOCTYPE svg PUBLIC "-//W3C//DTD SVG 1.1 Tiny//EN" "http://www.w3.org/Graphics/SVG/1.1/DTD/svg11-tiny.dtd">
<svg baseProfile="tiny" height="60px" version="1.1" viewBox="45 45 60 60" width="60px" x="0px" xmlns="http://www.w3.org/2000/svg" xmlns:xlink="http://www.w3.org/1999/xlink" y="0px">
<g>
<rect fill="none" height="52" width="52" x="49" y="49"/>
<path d="M89.263,55.367c-0.025-0.019-0.054-0.038-0.078-0.056l-3.356,4.62   c0.025,0.018,0.053,0.038,0.078,0.056c8.279,6.015,10.12,17.643,4.106,25.92c-6.016,8.279-17.642,10.12-25.921,4.104   c-8.176-5.939-10.075-17.353-4.328-25.611l-4.62-3.356c-7.598,10.805-5.133,25.797,5.591,33.588   c10.825,7.865,26.032,5.459,33.899-5.368C102.498,78.439,100.088,63.231,89.263,55.367z" fill="url(#SVGID_1_)"/>
<defs>
<linearGradient gradientTransform="matrix(0.809 0.5878 0.5878 -0.809 -32.9132 -486.7301)" gradientUnits="userSpaceOnUse" id="SVGID_1_" x1="419.2471" x2="413.2627" y1="-400.54" y2="-368.3198">
<stop offset="0" style="stop-color:#3B87C0"/>
<stop offset="1" style="stop-color:#0069B2;stop-opacity:0"/>
</linearGradient>
</defs>
</g>
</svg>
