<?xml version="1.0" encoding="UTF-8" standalone="no"?>
<!DOCTYPE svg PUBLIC "-//W3C//DTD SVG 1.1 Tiny//EN" "http://www.w3.org/Graphics/SVG/1.1/DTD/svg11-tiny.dtd">
<svg xmlns="http://www.w3.org/2000/svg" xmlns:xlink="http://www.w3.org/1999/xlink" baseProfile="tiny" height="16px" version="1.1" viewBox="0 0 16 16" width="16px" x="0px" y="0px">
<rect fill="none" height="16" width="16"/>
<path d="M5.772,3.183c2.23-1.021,4.964-0.353,6.476,1.73,1.512,2.082,1.301,4.891-0.36,6.699l1.052,1.447c2.437-2.393,2.813-6.296,0.724-9.174-2.089-2.879-5.914-3.73-8.942-2.15l1.054,1.447z"/>
<path d="M11.28,14.27l-1.053-1.449c-2.23,1.022-4.963,0.354-6.475-1.729-1.515-2.084-1.305-4.893,0.357-6.7l-1.052-1.449c-2.438,2.393-2.813,6.297-0.725,9.176,2.09,2.88,5.915,3.72,8.945,2.15z"/>
</svg>
