<?xml version="1.0" encoding="utf-8"?>
<!-- Generator: Adobe Illustrator 14.0.0, SVG Export Plug-In  -->
<!DOCTYPE svg PUBLIC "-//W3C//DTD SVG 1.1//EN" "http://www.w3.org/Graphics/SVG/1.1/DTD/svg11.dtd" [
	<!ENTITY ns_flows "http://ns.adobe.com/Flows/1.0/">
]>
<svg version="1.1"
	 xmlns="http://www.w3.org/2000/svg" xmlns:xlink="http://www.w3.org/1999/xlink" xmlns:a="http://ns.adobe.com/AdobeSVGViewerExtensions/3.0/"
	 x="0px" y="0px" width="30px" height="30px" viewBox="0 0 30 30" enable-background="new 0 0 30 30" xml:space="preserve">
<defs>
</defs>
<g opacity="0.5">
	<rect fill="none" width="30" height="30"/>
</g>
<rect x="7" y="6" width="2" height="2"/>
<rect x="10" y="6" width="10" height="2"/>
<path d="M5,3h18v8.557c0.785-0.716,1.999-0.7,2.758,0.059L26,11.857V0H2v29h9.128l0.333-3H5V3z"/>
<polygon points="26,29 26,25.515 22.515,29 "/>
<path d="M24.343,13.029L13.736,23.636L13.029,30l6.364-0.707L30,18.687L24.343,13.029z M18.687,27.171l-2.828-2.828l8.484-8.485
	l2.829,2.829L18.687,27.171z"/>
</svg>
