<?xml version="1.0" encoding="UTF-8"?>
<!DOCTYPE svg PUBLIC "-//W3C//DTD SVG 1.1 Tiny//EN" "http://www.w3.org/Graphics/SVG/1.1/DTD/svg11-tiny.dtd">
<svg baseProfile="tiny" height="30px" version="1.1" viewBox="0 0 30 30" width="30px" x="0px" xmlns="http://www.w3.org/2000/svg" xmlns:xlink="http://www.w3.org/1999/xlink" y="0px">
<rect fill="none" height="30" width="29.999"/>
<path d="M23.372,24.001h-6.886V23.04c0-0.785,0.195-1.549,0.587-2.287c0.391-0.739,1.139-1.571,2.247-2.494  c0.587-0.493,0.986-0.899,1.205-1.221c0.218-0.317,0.326-0.681,0.326-1.08c0-1.039-0.563-1.561-1.686-1.561  c-0.625,0-1.395,0.168-2.307,0.498V13.41c1-0.297,1.975-0.447,2.922-0.447c1.162,0,2.043,0.246,2.645,0.736  c0.6,0.492,0.9,1.215,0.9,2.172c0,0.459-0.074,0.879-0.223,1.26c-0.15,0.381-0.369,0.738-0.66,1.074  c-0.291,0.334-0.721,0.74-1.293,1.219c-0.629,0.527-1.088,0.941-1.377,1.242c-0.287,0.299-0.515,0.605-0.676,0.914  c-0.164,0.311-0.273,0.793-0.304,1.123h4.563L23.372,24.001z"/>
<path d="M15.768,24h-5.601v-1.283h1.711v-7.832L9.999,15.3v-1.285l2.943-0.986h1.248v9.688h1.576V24H15.768z"/>
<path d="M23.999,4V2h-3v2h-8V2h-3v2H8.882c0.156,0.594,0.344,1.483,0.445,2.611h5.828L14.868,7h12.131v2H13.39l-1.479,2h15.088v16H6  v-7.998l-0.09,0.121L3,15.185V30h26.999V4H23.999z"/>
<polygon points="0.629,8.612 5.91,15.757 11.19,8.611 "/>
<path d="M0,0v3.011C0.892,3.063,3.342,3.333,3.969,4.99C3.975,5.006,4.452,6.552,4.4,8.715h2.999c0.055-2.725-0.578-4.66-0.613-4.76  C5.466,0.471,1.323,0.042,0,0z"/>
</svg>
