<?xml version="1.0" encoding="UTF-8"?>
<!DOCTYPE svg PUBLIC "-//W3C//DTD SVG 1.1 Tiny//EN" "http://www.w3.org/Graphics/SVG/1.1/DTD/svg11-tiny.dtd">
<svg baseProfile="tiny" height="30" viewBox="0 0 30 30" width="30" xmlns="http://www.w3.org/2000/svg" xmlns:xlink="http://www.w3.org/1999/xlink">
<rect fill="none" height="30" width="30"/>
<rect fill="none" height="30" width="30"/>
<path d="M15,3.75C8.788,3.75,3.75,8.787,3.75,15S8.788,26.25,15,26.25c6.213,0,11.25-5.037,11.25-11.25S21.213,3.75,15,3.75z M15,7.5c1.486,0,2.869,0.439,4.035,1.188L8.688,19.035C7.939,17.869,7.5,16.486,7.5,15C7.5,10.864,10.864,7.5,15,7.5z M15,22.5 c-1.291,0-2.506-0.328-3.568-0.905l10.163-10.163C22.172,12.494,22.5,13.709,22.5,15C22.5,19.137,19.135,22.5,15,22.5z"/>
</svg>
