<?xml version="1.0" encoding="UTF-8"?>
<!DOCTYPE svg PUBLIC "-//W3C//DTD SVG 1.1 Tiny//EN" "http://www.w3.org/Graphics/SVG/1.1/DTD/svg11-tiny.dtd">
<svg baseProfile="tiny" height="30" viewBox="0 0 30 30" width="30" xmlns="http://www.w3.org/2000/svg" xmlns:xlink="http://www.w3.org/1999/xlink">
<g>
<path d="M15.001,27.354c-6.813,0-12.354-5.542-12.354-12.354  c0-6.813,5.541-12.354,12.354-12.354c6.812,0,12.354,5.541,12.354,12.354C27.354,21.813,21.813,27.354,15.001,27.354L15.001,27.354z  " style="opacity:0.6;enable-background:new    ;"/>
<circle cx="15.001" cy="15.001" r="11.471" style="fill:url(#SVGID_1_);"/>
<path d="M15.001,4.412c6.187,0,11.216,4.901,11.449,11.03  c0.006-0.148,0.022-0.293,0.022-0.441c0-6.336-5.137-11.471-11.472-11.471C8.665,3.53,3.53,8.665,3.53,15.001  c0,0.148,0.018,0.293,0.022,0.441C3.786,9.313,8.815,4.412,15.001,4.412z" style="opacity:0.4;fill:#FFFFFF;enable-background:new    ;"/>
<path d="M21.196,18.977l1.337,1.15c1.35-1.55,2.174-3.57,2.174-5.788  c0-2.216-0.824-4.236-2.174-5.788l-1.337,1.152c1.085,1.24,1.746,2.859,1.746,4.636C22.942,16.118,22.281,17.736,21.196,18.977z" style="opacity:0.2;enable-background:new    ;"/>
<path d="M10.57,18.977c-1.084-1.24-1.746-2.858-1.746-4.638  c0-1.777,0.662-3.396,1.746-4.636L9.232,8.551c-1.349,1.551-2.173,3.571-2.173,5.788c0,2.218,0.824,4.238,2.173,5.788L10.57,18.977z  " style="opacity:0.2;enable-background:new    ;"/>
<path d="M18.515,16.672l1.346,1.156c0.817-0.934,1.317-2.151,1.317-3.489  c0-1.337-0.5-2.555-1.316-3.486l-1.346,1.157c0.553,0.622,0.896,1.432,0.896,2.33C19.412,15.237,19.068,16.049,18.515,16.672z" style="opacity:0.2;enable-background:new    ;"/>
<path d="M13.252,16.672c-0.552-0.623-0.898-1.435-0.898-2.333  c0-0.898,0.347-1.708,0.898-2.33l-1.344-1.157c-0.82,0.932-1.319,2.15-1.319,3.487c0,1.338,0.5,2.556,1.318,3.488L13.252,16.672z" style="opacity:0.2;enable-background:new    ;"/>
<polygon points="13.138,24.629 15.902,15.023 18.664,24.629 " style="opacity:0.2;enable-background:new    ;"/>
<path d="M20.313,18.095l1.338,1.149c1.349-1.549,2.173-3.569,2.173-5.788c0-2.216-0.824-4.236-2.173-5.788  L20.313,8.82c1.085,1.241,1.747,2.859,1.747,4.636C22.061,15.235,21.398,16.854,20.313,18.095z" style="fill:#FFFFFF;"/>
<path d="M9.688,18.095c-1.084-1.241-1.747-2.859-1.747-4.638c0-1.777,0.662-3.396,1.747-4.636L8.35,7.669  C7.001,9.22,6.177,11.24,6.177,13.457c0,2.218,0.824,4.239,2.173,5.788L9.688,18.095z" style="fill:#FFFFFF;"/>
<path d="M17.633,15.789l1.345,1.156c0.818-0.934,1.317-2.151,1.317-3.489s-0.499-2.555-1.316-3.486  l-1.346,1.157c0.553,0.621,0.897,1.431,0.897,2.33S18.186,15.167,17.633,15.789z" style="fill:#FFFFFF;"/>
<path d="M12.37,15.789c-0.552-0.623-0.898-1.434-0.898-2.333s0.347-1.708,0.898-2.331l-1.344-1.157  c-0.819,0.932-1.319,2.15-1.319,3.487c0,1.338,0.5,2.555,1.318,3.489L12.37,15.789z" style="fill:#FFFFFF;"/>
<polygon points="12.256,23.747 15.02,14.141 17.782,23.747 " style="fill:#FFFFFF;"/>
<rect height="30.002" style="fill:none;" width="30.002"/>
<defs>
<linearGradient gradientTransform="matrix(0.8824 0 0 -0.8824 -284.8232 -348.3516)" gradientUnits="userSpaceOnUse" id="SVGID_1_" x1="339.7822" x2="339.7822" y1="-399.0518" y2="-428.7852">
<stop offset="0" style="stop-color:#4EDEFF"/>
<stop offset="1" style="stop-color:#048CC6"/>
</linearGradient>
</defs>
</g>
</svg>
