<?xml version="1.0" encoding="UTF-8" standalone="no"?>
<!DOCTYPE svg PUBLIC "-//W3C//DTD SVG 1.1 Tiny//EN" "http://www.w3.org/Graphics/SVG/1.1/DTD/svg11-tiny.dtd">
<svg xmlns="http://www.w3.org/2000/svg" xmlns:xlink="http://www.w3.org/1999/xlink" baseProfile="tiny" height="30px" version="1.1" viewBox="0 0 30 30" width="30px" x="0px" y="0px">
<g fill-opacity="0.5" stroke-opacity="0.5">
<rect fill="none" height="30" width="30"/>
</g>
<polygon points="10,29 10,21 2,21 "/>
<polygon points="11.484,17.257 16.484,11.257 11.691,8.381 15.382,1 2,1 2,20 5,20 5,4 11.646,4 9.074,9.144 13.453,11.771   8.453,17.771 13.987,21.091 11.31,26 11,26 11,29 11.952,29 16.662,20.363 "/>
<path d="M17.618,1l-3.31,6.619l5.207,3.124l-5,6l4.822,2.894L14.23,29H28V1H17.618z M25,26h-6.855l3.868-7.091l-4.466-2.68l5-6  l-5.621-3.373L18.354,4H25V26z"/>
</svg>
