<?xml version="1.0" encoding="UTF-8"?>
<!DOCTYPE svg PUBLIC "-//W3C//DTD SVG 1.1 Tiny//EN" "http://www.w3.org/Graphics/SVG/1.1/DTD/svg11-tiny.dtd">
<svg baseProfile="tiny" height="30px" style="enable-background:new 0 0 30 30;" version="1.1" viewBox="0 0 30 30" width="30px" x="0px" xmlns="http://www.w3.org/2000/svg" xmlns:xlink="http://www.w3.org/1999/xlink" y="0px">
<rect fill="none" height="29.03" width="29.03" x="0.54" y="0.202"/>
<path d="M17.84,25.04c0,1.713-1.393,3.11-3.113,3.11s-3.115-1.397-3.115-3.11c0-1.717,1.395-3.115,3.115-3.115s3.1,1.4,3.1,3.12z"/>
<path d="M15.28,1.285c-2.324,0-3.988,0.716-5.086,2.191-1.04,1.396-1.688,3.248-1.918,5.509l3.837,0.662c0.161-1.211,0.444-2.098,0.862-2.689,0.565-0.796,1.331-1.214,2.223-1.214,1.052,0,1.636,0.476,1.941,0.877,0.395,0.515,0.598,1.217,0.598,2.083,0,0.886-0.437,1.832-1.295,2.805-1.35,1.568-2.227,2.667-2.598,3.262-0.359,0.576-0.631,1.217-0.805,1.906-0.185,0.697-0.279,1.639-0.281,2.793h3.725c0.048-0.754,0.179-1.393,0.388-1.936,0.285-0.721,0.901-1.594,1.89-2.687,1.256-1.382,2.096-2.552,2.488-3.476,0.388-0.909,0.585-1.868,0.585-2.838,0-2.417-0.739-4.287-2.255-5.72-1.09-1.017-2.49-1.517-4.3-1.517z"/>
<rect fill="none" height="29.03" width="29.03" x="0.54" y="0.202"/>
</svg>
