<?xml version="1.0" encoding="UTF-8"?>
<!DOCTYPE svg PUBLIC "-//W3C//DTD SVG 1.1 Tiny//EN" "http://www.w3.org/Graphics/SVG/1.1/DTD/svg11-tiny.dtd">
<svg baseProfile="tiny" height="60" viewBox="0 0 60 60" width="60" xmlns="http://www.w3.org/2000/svg" xmlns:xlink="http://www.w3.org/1999/xlink">
<g>
<rect fill="none" height="60" width="60"/>
<linearGradient gradientTransform="matrix(1 0 0 1 2296.5195 3743.9824)" gradientUnits="userSpaceOnUse" id="SVGID_1_" x1="-2268.4766" x2="-2264.6106" y1="-3735.1396" y2="-3735.1396">
<stop offset="0" style="stop-color:#7D7F80"/>
<stop offset="0.5091" style="stop-color:#BABEBD"/>
<stop offset="1" style="stop-color:#828585"/>
</linearGradient>
<rect fill="url(#SVGID_1_)" height="7.185" width="4.074" x="27.964" y="5.25"/>
<rect fill-opacity="0.2" height="3.276" stroke-opacity="0.2" width="4.074" x="27.964" y="5.909"/>
<rect fill-opacity="0.2" height="3.275" stroke-opacity="0.2" width="4.074" x="27.964" y="5.25"/>
<linearGradient gradientTransform="matrix(1 0 0 1 2296.5195 3743.9824)" gradientUnits="userSpaceOnUse" id="SVGID_2_" x1="-2269.7334" x2="-2263.386" y1="-3739.0508" y2="-3739.0508">
<stop offset="0" style="stop-color:#AAADAD"/>
<stop offset="0.5" style="stop-color:#D3D7D5"/>
<stop offset="1" style="stop-color:#959898"/>
</linearGradient>
<rect fill="url(#SVGID_2_)" height="5.864" width="6.688" x="26.655" y="2"/>
<rect fill="#FFFFFF" fill-opacity="0.35" height="0.661" stroke-opacity="0.35" width="6.688" x="26.655" y="2"/>
<linearGradient gradientTransform="matrix(0.6906 0.369 -0.4713 0.882 1428.1566 3995.4771)" gradientUnits="userSpaceOnUse" id="SVGID_3_" x1="-3961.1157" x2="-3958.5808" y1="-2859.4375" y2="-2859.4375">
<stop offset="0" style="stop-color:#7D7F80"/>
<stop offset="0.5091" style="stop-color:#BABEBD"/>
<stop offset="1" style="stop-color:#828585"/>
</linearGradient>
<polygon fill="url(#SVGID_3_)" points="40.979,14.854 39.139,13.869 41.357,9.715 43.202,10.7 "/>
<rect fill-opacity="0.2" height="2.147" stroke-opacity="0.2" transform="matrix(-0.8823 -0.4706 0.4706 -0.8823 72.8173 41.2729)" width="2.087" x="40.525" y="10.46"/>
<rect fill-opacity="0.2" height="2.148" stroke-opacity="0.2" transform="matrix(-0.8824 -0.4706 0.4706 -0.8824 73.3945 40.6563)" width="2.092" x="40.733" y="10.08"/>
<linearGradient gradientTransform="matrix(0.6906 0.369 -0.4713 0.882 1428.1566 3995.4771)" gradientUnits="userSpaceOnUse" id="SVGID_4_" x1="-3961.9404" x2="-3957.7771" y1="-2862.001" y2="-2862.001">
<stop offset="0" style="stop-color:#AAADAD"/>
<stop offset="0.5" style="stop-color:#D3D7D5"/>
<stop offset="1" style="stop-color:#959898"/>
</linearGradient>
<polygon fill="url(#SVGID_4_)" points="42.984,12.528 39.958,10.91 41.77,7.521 44.798,9.139 "/>
<rect fill="#FFFFFF" fill-opacity="0.35" height="3.432" stroke-opacity="0.35" transform="matrix(0.4701 -0.8826 0.8826 0.4701 15.3612 42.6281)" width="0.432" x="42.967" y="6.805"/>
<linearGradient gradientTransform="matrix(1 0 0 1 2296.5195 3743.9824)" gradientUnits="userSpaceOnUse" id="SVGID_5_" x1="-2266.5205" x2="-2266.5205" y1="-3732.8804" y2="-3686.0859">
<stop offset="0" style="stop-color:#E7EAE8"/>
<stop offset="1" style="stop-color:#939696"/>
</linearGradient>
<circle cx="29.999" cy="34.382" fill="url(#SVGID_5_)" r="23.618"/>
<linearGradient gradientTransform="matrix(1 0 0 1 2296.5195 3743.9824)" gradientUnits="userSpaceOnUse" id="SVGID_6_" x1="-2266.519" x2="-2266.519" y1="-3731.5786" y2="-3687.4014">
<stop offset="0" style="stop-color:#D3D7D5"/>
<stop offset="1" style="stop-color:#6C6F70"/>
</linearGradient>
<path d="M30,56.68c-12.295,0-22.297-10.005-22.297-22.299S17.705,12.084,30,12.084  c12.296,0,22.298,10.003,22.298,22.297S42.296,56.68,30,56.68L30,56.68z" fill="url(#SVGID_6_)"/>
<linearGradient gradientTransform="matrix(1 0 0 1 2296.5195 3743.9824)" gradientUnits="userSpaceOnUse" id="SVGID_7_" x1="-2266.5195" x2="-2266.5195" y1="-3689.3555" y2="-3729.4453">
<stop offset="0" style="stop-color:#BFC2C1"/>
<stop offset="1" style="stop-color:#47494B"/>
</linearGradient>
<path d="M30,54.305c-10.986,0-19.923-8.937-19.923-19.924c0-10.986,8.936-19.922,19.923-19.922  c10.986,0,19.923,8.934,19.923,19.922C49.923,45.366,40.986,54.305,30,54.305L30,54.305z" fill="url(#SVGID_7_)"/>
<radialGradient cx="-2340.0537" cy="-3826.6226" gradientTransform="matrix(0.9438 0 0 0.9438 2238.5432 3680.6506)" gradientUnits="userSpaceOnUse" id="SVGID_8_" r="74.2208">
<stop offset="0" style="stop-color:#FAF9F9"/>
<stop offset="0.4" style="stop-color:#FAF9F9"/>
<stop offset="1" style="stop-color:#818283"/>
</radialGradient>
<path d="M30,53.661c-10.632,0-19.28-8.647-19.28-19.28c0-10.63,8.648-19.279,19.28-19.279  s19.279,8.648,19.279,19.279C49.279,45.014,40.632,53.661,30,53.661L30,53.661z" fill="url(#SVGID_8_)"/>
<path d="M30,35.759c6.357,0,12.43-0.534,17.991-1.499  C47.925,24.393,39.884,16.388,30,16.388c-9.882,0-17.927,8.005-17.991,17.874C17.573,35.225,23.64,35.759,30,35.759z" fill="#FFFFFF" fill-opacity="0.7" stroke-opacity="0.7"/>
<rect fill="#404041" height="3.855" width="1.287" x="29.356" y="16.86"/>
<rect fill="#404041" height="3.857" width="1.287" x="29.356" y="48.994"/>
<rect fill="#404041" height="1.284" width="3.855" x="44.139" y="34.214"/>
<rect fill="#404041" height="1.284" width="3.854" x="12.007" y="34.214"/>
<path d="M42.059,34.889H31.407c-0.25-0.14-0.458-0.193-0.458-0.193  V19.562h-0.644v15.133c-0.092,0.021-0.238,0.088-0.402,0.193h-3.074v1.137h2.252c-0.017,0.084-0.031,0.168-0.031,0.261  c0,0.965,0.791,1.465,1.256,1.56v4.209h0.644v-4.209c0.083-0.018,1.284-0.283,1.284-1.574c0-0.092-0.019-0.166-0.029-0.248h9.854  V34.889L42.059,34.889z" fill="#222021" fill-opacity="0.2" stroke-opacity="0.2"/>
<linearGradient gradientTransform="matrix(1 0 0 1 2296.5195 3743.9824)" gradientUnits="userSpaceOnUse" id="SVGID_9_" x1="-2262.7349" x2="-2262.7349" y1="-3709.355" y2="-3709.0774">
<stop offset="0" style="stop-color:#373737"/>
<stop offset="0.3152" style="stop-color:#373737"/>
<stop offset="1" style="stop-color:#000000"/>
</linearGradient>
<rect fill="url(#SVGID_9_)" height="1.135" width="15.224" x="26.173" y="34.229"/>
<linearGradient gradientTransform="matrix(0 -1 1 0 2394.1406 1590.2969)" gradientUnits="userSpaceOnUse" id="SVGID_10_" x1="1560.8965" x2="1560.8965" y1="-2364.5513" y2="-2363.6135">
<stop offset="0" style="stop-color:#B34D4D"/>
<stop offset="1" style="stop-color:#763242"/>
</linearGradient>
<path d="M29.679,18.155V33.29c-0.732,0.149-1.284,0.797-1.284,1.573c0,0.779,0.552,1.427,1.284,1.574v4.209  h0.645v-4.209c0.734-0.147,1.283-0.795,1.283-1.574c0-0.776-0.549-1.424-1.283-1.573V18.155H29.679z" fill="url(#SVGID_10_)"/>
<linearGradient gradientTransform="matrix(1 0 0 1 2296.5195 3743.9824)" gradientUnits="userSpaceOnUse" id="SVGID_11_" x1="-2266.5195" x2="-2266.5195" y1="-3710.1396" y2="-3708.0024">
<stop offset="0" style="stop-color:#F4EDE4"/>
<stop offset="1" style="stop-color:#BC7A73"/>
</linearGradient>
<circle cx="30" cy="34.863" fill="url(#SVGID_11_)" r="0.964"/>
<rect fill="none" height="60" width="60"/>
</g>
</svg>
