<?xml version="1.0" encoding="UTF-8"?>
<!DOCTYPE svg PUBLIC "-//W3C//DTD SVG 1.1 Tiny//EN" "http://www.w3.org/Graphics/SVG/1.1/DTD/svg11-tiny.dtd">
<svg baseProfile="tiny" height="30px" version="1.1" viewBox="0 0 30 30" width="30px" x="0px" xmlns="http://www.w3.org/2000/svg" xmlns:xlink="http://www.w3.org/1999/xlink" y="0px">
<rect fill="none" height="30" width="30"/>
<path d="M15.001,23.5c0-0.104,0.012-0.206,0.016-0.31c-0.782,0.541-1.489,0.36-1.489,0.36c-1.205,0-1.423-0.781-1.423-1.039  c0-0.254-1.205-2.225-1.205-2.885c0-0.656,0.365-1.459,0.365-1.459c0.072-0.949-0.949-3.501-0.949-3.501H9.256l-0.365-0.806  c-3.432,0.729-3.577-0.146-4.089-1.096C4.291,11.816,4.876,9.262,5.204,8.86c0.21-0.257,1.328-1.063,2.109-1.614l7.999,2.552  L16.711,7l-5.6-1.398L7.989,6.776c0.058-0.04,0.1-0.068,0.1-0.068L7.76,6.233C7.54,5.76,8.965,5.103,8.965,5.103  c0.548,0.365,0.912,0,0.912,0l0.146-0.365L9.877,4.19l0.677-0.842C11.642,2.996,12.798,2.8,14.001,2.8  c1.259,0,2.465,0.22,3.596,0.604L16.801,4.2l1.399,1.4l1.325-1.326c2.934,1.677,5.043,4.64,5.545,8.119  c-0.584-1.177-1.066-2.545-1.066-2.545l-1.787-0.327L20.607,8.9l0.914,1.239l0.656-0.291c0,0,0.803,0.768,0.766,1.021  c-0.033,0.257-1.236,1.424-1.236,1.424l-1.059,0.376l-1.39-1.144l-1.057-0.873l0.654,1.566l0.876,0.914c0,0,1.533-0.219,1.752-0.036  c0.223,0.182-0.291,1.571-0.291,1.571l-0.961,0.987C21.238,15.234,22.342,15,23.5,15c1.576,0,3.047,0.438,4.313,1.188  C27.926,15.474,28,14.746,28,14c0-7.731-6.268-14-13.999-14c-7.732,0-14,6.269-14,14c0,7.732,6.268,14,14,14  c0.746,0,1.474-0.075,2.188-0.188C15.439,26.547,15.001,25.075,15.001,23.5z M4.841,20.422c-0.775-1.102-1.351-2.348-1.689-3.689  l1.636-0.322l1.4,2.8L4.841,20.422z"/>
<path d="M23.5,17c-3.59,0-6.499,2.91-6.499,6.5S19.91,30,23.5,30s6.5-2.91,6.5-6.5S27.09,17,23.5,17z M28,25h-3v3h-3v-3h-2.999v-3  H22v-3h3v3h3V25z"/>
</svg>
