<?xml version="1.0" encoding="UTF-8"?>
<!DOCTYPE svg PUBLIC "-//W3C//DTD SVG 1.1 Tiny//EN" "http://www.w3.org/Graphics/SVG/1.1/DTD/svg11-tiny.dtd">
<svg baseProfile="tiny" height="30" viewBox="0 0 30 30" width="30" xmlns="http://www.w3.org/2000/svg" xmlns:xlink="http://www.w3.org/1999/xlink">
<g>
<rect fill="url(#SVGID_1_)" height="28" width="28" x="1" y="1"/>
<path d="M1,1v28h2V5c0-0.55,0.45-1,1-1h22c0.55,0,1,0.45,1,1v24h2V1H1z" fill-opacity="0.05" stroke-opacity="0.05"/>
<path d="M1,1v28h1V4c0-0.55,0.45-1,1-1h24c0.55,0,1,0.45,1,1v25h1V1H1z" fill-opacity="0.1" stroke-opacity="0.1"/>
<rect fill-opacity="0.1" height="1" stroke-opacity="0.1" width="28" x="1" y="1"/>
<path d="M0,0v30h30V0H0z M29,29H1V1h28V29z" fill-opacity="0.6" stroke-opacity="0.6"/>
<defs>
<linearGradient gradientUnits="userSpaceOnUse" id="SVGID_1_" x1="14.9995" x2="14.9995" y1="1.2188" y2="29.4379">
<stop offset="0" style="stop-color:#E0E1E2"/>
<stop offset="1" style="stop-color:#FFFFFF"/>
</linearGradient>
</defs>
</g>
</svg>
