<?xml version="1.0" encoding="UTF-8"?>
<!DOCTYPE svg PUBLIC "-//W3C//DTD SVG 1.1 Tiny//EN" "http://www.w3.org/Graphics/SVG/1.1/DTD/svg11-tiny.dtd">
<svg baseProfile="tiny" height="30" viewBox="0 0 30 30" width="30" xmlns="http://www.w3.org/2000/svg" xmlns:xlink="http://www.w3.org/1999/xlink">
<rect fill="none" height="30" width="30"/>
<rect fill="none" height="30" width="30"/>
<path d="M26.25,18.652L26.25,18.652l1.5-0.002v0.002c0,5.018-4.642,9.098-10.346,9.098v-1.5C22.281,26.25,26.25,22.842,26.25,18.652 z"/>
<path d="M23.549,18.65h1.5c0,3.723-3.431,6.749-7.645,6.749v-1.5C20.792,23.899,23.549,21.545,23.549,18.65z"/>
<path d="M3.75,18.652L3.75,18.652l-1.5-0.002v0.002c0,5.018,4.641,9.098,10.346,9.098v-1.5C7.718,26.25,3.75,22.842,3.75,18.652z"/>
<path d="M6.451,18.65h-1.5c0,3.723,3.43,6.749,7.646,6.749v-1.5C9.208,23.899,6.451,21.545,6.451,18.65z"/>
<path d="M20.136,5.585c-0.149,0-0.294,0.014-0.437,0.041c-0.201-1.088-1.168-1.917-2.326-1.917c-0.188,0-0.371,0.021-0.547,0.063 C16.491,2.884,15.624,2.25,14.61,2.25c-1.014,0-1.881,0.634-2.216,1.522c-0.175-0.042-0.359-0.063-0.546-0.063 c-1.304,0-2.364,1.047-2.364,2.334v3.953c-0.215-0.109-0.442-0.193-0.68-0.253C8.584,9.686,8.36,9.659,8.138,9.659 c-0.56,0-1.059,0.178-1.439,0.511c-0.703,0.61-0.896,1.642-0.489,2.632L9.87,21.75h10.894l1.736-6.341v-7.49 C22.5,6.632,21.439,5.585,20.136,5.585z M20.998,15.207l-1.381,5.043h-8.741c-1.858-4.545-3.277-8.015-3.28-8.02 c-0.116-0.285-0.172-0.704,0.086-0.928c0.192-0.169,0.511-0.167,0.749-0.107c0.489,0.124,0.862,0.425,1.126,0.815 c0.249,0.367,0.685,1.744,0.925,2.584l0.5-0.095V6.043c0-0.46,0.387-0.834,0.863-0.834c0.478,0,0.864,0.374,0.864,0.834v6.662h1.036 V4.583c0.001-0.461,0.388-0.833,0.863-0.833c0.478,0,0.863,0.372,0.863,0.833v8.121h1.037V6.043c0-0.46,0.387-0.834,0.862-0.834 c0.478,0,0.862,0.374,0.862,0.834v6.662h1.037V7.918c0-0.461,0.388-0.833,0.863-0.833c0.478,0,0.862,0.371,0.862,0.833 L20.998,15.207L20.998,15.207z"/>
</svg>
