<?xml version="1.0" encoding="UTF-8"?>
<!DOCTYPE svg PUBLIC "-//W3C//DTD SVG 1.1 Tiny//EN" "http://www.w3.org/Graphics/SVG/1.1/DTD/svg11-tiny.dtd">
<svg baseProfile="tiny" height="30" viewBox="0 0 30 30" width="30" xmlns="http://www.w3.org/2000/svg" xmlns:xlink="http://www.w3.org/1999/xlink">
<g>
<path d="M15,30C6.729,30,0,23.271,0,15C0,6.729,6.729,0,15,0c8.271,0,15,6.729,15,15C30,23.271,23.271,30,15,30L15,30  z" fill-opacity="0.6" stroke-opacity="0.6"/>
<radialGradient cx="15" cy="2.8335" gradientUnits="userSpaceOnUse" id="SVGID_1_" r="24.8358">
<stop offset="0" style="stop-color:#FEE891"/>
<stop offset="0.7818" style="stop-color:#FFB701"/>
<stop offset="1" style="stop-color:#FFC501"/>
</radialGradient>
<circle cx="15" cy="15" fill="url(#SVGID_1_)" r="14"/>
<path d="M15,2c7.563,0,13.709,6.002,13.975,13.5C28.98,15.332,29,15.169,29,15c0-7.732-6.268-14-14-14  C7.268,1,1,7.268,1,15c0,0.169,0.02,0.332,0.025,0.5C1.291,8.002,7.437,2,15,2z" fill="#FFFFFF" fill-opacity="0.3" stroke-opacity="0.3"/>
<path d="M24.854,23.146l-3-3c-0.195-0.195-0.512-0.195-0.707,0L18.5,22.793l-2.646-2.646  c-0.195-0.195-0.512-0.195-0.707,0L12.5,22.793l-2.646-2.646c-0.195-0.195-0.512-0.195-0.707,0l-3,3  c-0.195,0.195-0.195,0.512,0,0.707C6.244,23.951,6.372,24,6.5,24s0.256-0.049,0.354-0.146L9.5,21.207l2.646,2.646  C12.244,23.951,12.372,24,12.5,24s0.256-0.049,0.354-0.146l2.646-2.646l2.646,2.646C18.244,23.951,18.372,24,18.5,24  s0.256-0.049,0.354-0.146l2.646-2.646l2.646,2.646C24.244,23.951,24.372,24,24.5,24s0.256-0.049,0.354-0.146  C25.049,23.658,25.049,23.342,24.854,23.146z" fill-opacity="0.4" stroke-opacity="0.4"/>
<path d="M24.854,21.146l-3-3c-0.195-0.195-0.512-0.195-0.707,0L18.5,20.793l-2.646-2.646  c-0.195-0.195-0.512-0.195-0.707,0L12.5,20.793l-2.646-2.646c-0.195-0.195-0.512-0.195-0.707,0l-3,3  c-0.195,0.195-0.195,0.512,0,0.707C6.244,21.951,6.372,22,6.5,22s0.256-0.049,0.354-0.146L9.5,19.207l2.646,2.646  C12.244,21.951,12.372,22,12.5,22s0.256-0.049,0.354-0.146l2.646-2.646l2.646,2.646C18.244,21.951,18.372,22,18.5,22  s0.256-0.049,0.354-0.146l2.646-2.646l2.646,2.646C24.244,21.951,24.372,22,24.5,22s0.256-0.049,0.354-0.146  C25.049,21.658,25.049,21.342,24.854,21.146z" fill="#FFFFFF" fill-opacity="0.3" stroke-opacity="0.3"/>
<path d="M24.854,22.146l-3-3c-0.195-0.195-0.512-0.195-0.707,0L18.5,21.793l-2.646-2.646  c-0.195-0.195-0.512-0.195-0.707,0L12.5,21.793l-2.646-2.646c-0.195-0.195-0.512-0.195-0.707,0l-3,3  c-0.195,0.195-0.195,0.512,0,0.707C6.244,22.951,6.372,23,6.5,23s0.256-0.049,0.354-0.146L9.5,20.207l2.646,2.646  C12.244,22.951,12.372,23,12.5,23s0.256-0.049,0.354-0.146l2.646-2.646l2.646,2.646C18.244,22.951,18.372,23,18.5,23  s0.256-0.049,0.354-0.146l2.646-2.646l2.646,2.646C24.244,22.951,24.372,23,24.5,23s0.256-0.049,0.354-0.146  C25.049,22.658,25.049,22.342,24.854,22.146z" fill="#3B2314"/>
<path d="M6.5,16c-0.198,0-0.386-0.118-0.464-0.314c-0.103-0.256,0.022-0.547,0.279-0.649l3.839-2.536l-3.839-0.535  c-0.256-0.103-0.381-0.394-0.279-0.65c0.103-0.256,0.395-0.381,0.65-0.278l6.161,1.464l-6.161,3.465C6.625,15.989,6.562,16,6.5,16  L6.5,16z" fill-opacity="0.4" stroke-opacity="0.4"/>
<path d="M6.5,14c-0.198,0-0.386-0.118-0.464-0.314c-0.103-0.256,0.022-0.547,0.279-0.649l3.839-0.536  L6.314,9.965c-0.256-0.103-0.381-0.394-0.279-0.65c0.103-0.256,0.395-0.381,0.65-0.278l6.161,3.464l-6.161,1.465  C6.625,13.989,6.562,14,6.5,14L6.5,14z" fill="#FFFFFF" fill-opacity="0.3" stroke-opacity="0.3"/>
<path d="M6.5,15c-0.198,0-0.386-0.119-0.464-0.314c-0.103-0.256,0.022-0.547,0.279-0.65l3.839-1.535l-3.839-1.535  c-0.256-0.104-0.381-0.395-0.279-0.65c0.103-0.257,0.395-0.382,0.65-0.279l6.161,2.465l-6.161,2.465C6.625,14.988,6.562,15,6.5,15  L6.5,15z" fill="#3B2314"/>
<path d="M23.346,16c0.199,0,0.387-0.118,0.465-0.314c0.103-0.256-0.022-0.547-0.279-0.649L19.692,12.5l3.839-0.535  c0.257-0.103,0.382-0.394,0.279-0.65c-0.103-0.256-0.395-0.381-0.65-0.278L17,12.5l6.16,3.465C23.221,15.989,23.284,16,23.346,16  L23.346,16z" fill-opacity="0.4" stroke-opacity="0.4"/>
<path d="M23.346,14c0.199,0,0.387-0.118,0.465-0.314c0.103-0.256-0.022-0.547-0.279-0.649L19.692,12.5  l3.839-2.535c0.257-0.103,0.382-0.394,0.279-0.65c-0.103-0.256-0.395-0.381-0.65-0.278L17,12.5l6.16,1.465  C23.221,13.989,23.284,14,23.346,14L23.346,14z" fill="#FFFFFF" fill-opacity="0.3" stroke-opacity="0.3"/>
<path d="M23.346,15c0.199,0,0.387-0.119,0.465-0.314c0.103-0.256-0.022-0.547-0.279-0.65L19.692,12.5l3.839-1.535  c0.257-0.104,0.382-0.395,0.279-0.65c-0.103-0.257-0.395-0.382-0.65-0.279L17,12.5l6.16,2.465C23.221,14.988,23.284,15,23.346,15  L23.346,15z" fill="#3B2314"/>
</g>
</svg>
