<?xml version="1.0" encoding="UTF-8"?>
<!DOCTYPE svg PUBLIC "-//W3C//DTD SVG 1.1 Tiny//EN" "http://www.w3.org/Graphics/SVG/1.1/DTD/svg11-tiny.dtd">
<svg baseProfile="tiny" height="30px" style="enable-background:new 0 0 30 30;" version="1.1" viewBox="0 0 30 30" width="30px" x="0px" xmlns="http://www.w3.org/2000/svg" xmlns:xlink="http://www.w3.org/1999/xlink" y="0px">
<g>
<rect height="30" style="fill:none;" width="30"/>
<g>
<path d="M16.136,13.045l-0.258-1.03c1.031-0.366,1.775-1.323,1.775-2.477c0-1.469-1.188-2.656-2.655-2.656    c-1.382,0-2.503,1.056-2.63,2.407L16.136,13.045z"/>
<polygon points="18.616,21.399 18.227,21.399 18.098,20.883 13.132,15.935 11.767,21.399 8.355,21.399 8.355,24.054     21.279,24.054   "/>
<path d="M8.413,5.349c0.141-0.223,0.24-0.351,0.253-0.369C8.397,4.795,7.945,4.482,7.681,4.301    C7.673,4.312,7.622,4.388,7.554,4.493L8.413,5.349z"/>
<path d="M6.045,8.871C6.026,9.092,6,9.311,6,9.54c0,2.967,1.627,5.158,1.676,5.232c0.267-0.181,0.721-0.494,0.99-0.674    c-0.049-0.066-1.267-1.82-1.439-4.05L6.045,8.871z"/>
<path d="M10.764,7.692c0.234-0.54,0.488-0.884,0.518-0.922c-0.267-0.18-0.724-0.491-0.988-0.68    c-0.021,0.033-0.213,0.288-0.432,0.703L10.764,7.692z"/>
<path d="M22.318,4.301c-0.264,0.181-0.72,0.494-0.983,0.674c0.047,0.071,1.472,2.088,1.472,4.56c0,2.673-1.425,4.484-1.472,4.558    c0.264,0.185,0.72,0.498,0.983,0.679C22.365,14.702,24,12.415,24,9.535C24,6.566,22.371,4.375,22.318,4.301z"/>
<path d="M18.713,12.304c0.268,0.18,0.718,0.493,0.986,0.679c0.053-0.078,1.127-1.438,1.127-3.448c0-1.974-1.072-3.373-1.125-3.445    c-0.264,0.18-0.721,0.494-0.99,0.675c0.057,0.08,0.923,1.378,0.923,2.77C19.634,11.087,18.768,12.231,18.713,12.304z"/>
</g>
<rect height="33.238" transform="matrix(0.7057 -0.7085 0.7085 0.7057 -6.2107 15.042)" width="1.4" x="14.301" y="-1.622"/>
</g>
<g style="display:none;">
<g style="display:inline;">
<rect height="30" style="fill:none;" width="30"/>
<rect height="30" style="fill:none;" width="30"/>
<polygon points="13.661,10.548 15.869,3.375 11.366,3.375 10.217,7.104   "/>
<polygon points="19.539,16.428 21.246,10.879 18.62,10.879 16.744,10.879 13.993,10.879   "/>
<polygon points="14.632,17.74 13.744,20.628 10.38,20.628 16.008,26.625 19.643,22.752   "/>
<polygon points="8.754,11.861 8.361,13.131 9.613,13.131 10.021,13.131   "/>
</g>
</g>
</svg>
