<?xml version="1.0" encoding="UTF-8"?>
<!DOCTYPE svg PUBLIC "-//W3C//DTD SVG 1.1 Tiny//EN" "http://www.w3.org/Graphics/SVG/1.1/DTD/svg11-tiny.dtd">
<svg baseProfile="tiny" height="30px" version="1.1" viewBox="0 0 30 30" width="30px" x="0px" xmlns="http://www.w3.org/2000/svg" xmlns:xlink="http://www.w3.org/1999/xlink" y="0px">
<g fill-opacity="0.5" stroke-opacity="0.5">
<rect fill="none" height="30" width="30"/>
</g>
<path d="M15.166,21.834c0.282-1.417,0.919-2.708,1.813-3.777l-4.518-4.172L18,9l-8-8  v10.282L5.563,6.986L4,8.549l5.543,5.336L4,19.286l1.563,1.562L10,16.554V27L15.166,21.834z M15,19l-3,2.498v-4.944L15,19z   M11.986,6.464L15,9l-3.014,2.41V6.464z" fill-rule="evenodd"/>
<path d="M23.5,17c-3.59,0-6.5,2.91-6.5,6.5s2.91,6.5,6.5,6.5s6.5-2.91,6.5-6.5S27.09,17,23.5,17z M28,25h-3v3h-3v-3h-3v-3h3v-3h3v3  h3V25z"/>
</svg>
