<?xml version="1.0" ?>
<!DOCTYPE svg  PUBLIC '-//W3C//DTD SVG 1.1 Tiny//EN'  'http://www.w3.org/Graphics/SVG/1.1/DTD/svg11-tiny.dtd'>
<svg baseProfile="tiny" height="30px" version="1.1" viewBox="0 0 30 30" width="30px" x="0px" xmlns="http://www.w3.org/2000/svg" xmlns:xlink="http://www.w3.org/1999/xlink" y="0px">

<path d="M19,13v-2h-2.677c-0.284,0.714-0.651,1.383-1.092,2h1.77v1h-2v-0.69c-0.875,1.127-1.995,2.049-3.283,2.69h3.28v3h-5v-2.345c-0.643,0.176-1.312,0.283-2,0.319v2.02h-2v2h2v1h-2v2h13v-2h-1v-1h1v-2h-2v-3h2v-2h-1v-1h1zm-8,9h-2v-1h2v1zm3,0h-2v-1h2v1zm3,0h-2v-1h2v1z"/>

<path d="M16.87,6c0.08,0.49,0.13,0.988,0.13,1.5s-0.05,1.01-0.13,1.5h4.13v17h-17v-9.677c-1.121-0.446-2.135-1.1-3-1.914v14.59h23v-23h-7.131z"/>

<path d="M14.41,1c0.813,0.865,1.468,1.879,1.914,3h9.68v20h3v-23h-14.59z"/>

<path d="M7.5,0c-4.136,0-7.5,3.364-7.5,7.5s3.364,7.5,7.5,7.5,7.5-3.36,7.5-7.5-3.36-7.5-7.5-7.5zm-5.5,7.5c0-1.521,0.621-2.898,1.621-3.896,1.733,0.274,3.085,1.653,3.324,3.396h-2.945l3.983,5.976c-0.159,0.01-0.32,0.02-0.483,0.02-3.033,0-5.5-2.47-5.5-5.5zm6.018,5.47l3.982-5.97h-3.027c-0.186-2.052-1.405-3.81-3.135-4.742,0.525-0.167,1.083-0.258,1.662-0.258,3.03,0,5.5,2.468,5.5,5.5,0,2.86-2.19,5.21-4.982,5.47z"/>

</svg>