<?xml version="1.0" encoding="UTF-8" standalone="no"?>
<!DOCTYPE svg PUBLIC "-//W3C//DTD SVG 1.1 Tiny//EN" "http://www.w3.org/Graphics/SVG/1.1/DTD/svg11-tiny.dtd">
<svg xmlns="http://www.w3.org/2000/svg" xmlns:xlink="http://www.w3.org/1999/xlink" baseProfile="tiny" height="30px" version="1.1" viewBox="0 0 30 30" width="30px" x="0px" y="0px">
<g fill-opacity="0.5" stroke-opacity="0.5">
<rect fill="none" height="30" width="30"/>
</g>
<path d="M22.5,13c0.232,0,0.461,0.019,0.688,0.035l1.81-1.04-21-12v24l9.998-5.713c1.56-3.13,4.78-5.29,8.5-5.29z"/>
<path d="M22.5,15c-4.136,0-7.5,3.364-7.5,7.5s3.364,7.5,7.5,7.5,7.5-3.364,7.5-7.5-3.36-7.5-7.5-7.5zm0,13c-3.033,0-5.5-2.468-5.5-5.5s2.467-5.5,5.5-5.5,5.5,2.468,5.5,5.5-2.47,5.5-5.5,5.5z"/>
<polygon points="23,22,23,18,21,18,21,22,21,24,23,24,27,24,27,22"/>
</svg>
