<?xml version="1.0" encoding="UTF-8"?>
<!DOCTYPE svg PUBLIC "-//W3C//DTD SVG 1.1 Tiny//EN" "http://www.w3.org/Graphics/SVG/1.1/DTD/svg11-tiny.dtd">
<svg baseProfile="tiny" height="30" viewBox="0 0 30 30" width="30" xmlns="http://www.w3.org/2000/svg" xmlns:xlink="http://www.w3.org/1999/xlink">
<g>
<path d="M15.001,27.354c-6.813,0-12.354-5.542-12.354-12.354  c0-6.813,5.541-12.354,12.354-12.354c6.812,0,12.354,5.541,12.354,12.354C27.354,21.813,21.813,27.354,15.001,27.354L15.001,27.354z  " style="opacity:0.6;enable-background:new    ;"/>
<circle cx="15.001" cy="15.001" r="11.471" style="fill:url(#SVGID_1_);"/>
<path d="M15.001,4.412c6.187,0,11.216,4.901,11.449,11.03  c0.005-0.148,0.022-0.293,0.022-0.441c0-6.336-5.137-11.471-11.472-11.471C8.665,3.53,3.53,8.665,3.53,15.001  c0,0.148,0.017,0.293,0.022,0.441C3.786,9.313,8.814,4.412,15.001,4.412z" style="opacity:0.4;fill:#FFFFFF;enable-background:new    ;"/>
<polygon points="24.564,14.56 8.342,14.56 8.342,11.913 19.637,11.913   18.508,10.209 20.715,8.748 " style="opacity:0.2;enable-background:new    ;"/>
<polygon points="7.46,16.324 23.683,16.324 23.683,18.972 12.389,18.972   13.517,20.673 11.31,22.136 " style="opacity:0.2;enable-background:new    ;"/>
<polygon points="23.683,13.677 7.46,13.677 7.46,11.03 18.754,11.03 17.626,9.327 19.833,7.866 " style="fill:#FFFFFF;"/>
<polygon points="6.578,15.442 22.801,15.442 22.801,18.09 11.506,18.09 12.634,19.791 10.427,21.254 " style="fill:#FFFFFF;"/>
<rect height="30.002" style="fill:none;" width="30.002"/>
<defs>
<linearGradient gradientTransform="matrix(0.8824 0 0 -0.8824 -284.8232 -348.3516)" gradientUnits="userSpaceOnUse" id="SVGID_1_" x1="339.7822" x2="339.7822" y1="-399.0518" y2="-428.7852">
<stop offset="0" style="stop-color:#4EDEFF"/>
<stop offset="1" style="stop-color:#048CC6"/>
</linearGradient>
</defs>
</g>
</svg>
