<?xml version="1.0" encoding="UTF-8"?>
<!DOCTYPE svg PUBLIC "-//W3C//DTD SVG 1.1 Tiny//EN" "http://www.w3.org/Graphics/SVG/1.1/DTD/svg11-tiny.dtd">
<svg baseProfile="tiny" height="55px" version="1.1" viewBox="0 0 55 55" width="55px" x="0px" xmlns="http://www.w3.org/2000/svg" xmlns:xlink="http://www.w3.org/1999/xlink" y="0px">
<rect fill="none" height="55" width="55"/>
<g>
<path d="M16,0c-4.4,0-8,3.6-8,8v39c0,4.418-3.582,8-8,8h55V0H16z" fill="url(#SVGID_1_)"/>
<defs>
<linearGradient gradientUnits="userSpaceOnUse" id="SVGID_1_" x1="27.5" x2="27.5" y1="0" y2="55.0005">
<stop offset="0" style="stop-color:#AAAAB4"/>
<stop offset="1" style="stop-color:#D2D2DC"/>
</linearGradient>
</defs>
</g>
<path d="M16,0c-4.4,0-8,3.6-8,8v39c0,4.016-2.962,7.331-6.819,7.903C3.616,54.588,9,53.195,9,47V8c0-3.859,3.14-7,7-7  h39V0H16z" fill-opacity="0.2" stroke-opacity="0.2"/>
<g fill-opacity="0.2" stroke-opacity="0.2">
<path d="M16,1c-3.86,0-7,3.141-7,7v39c0,6.426-5.89,7.792-8.404,7.974C2.744,54.824,10,53.816,10,47V8   c0-3.309,2.691-6,6-6h39V1H16z" fill="#FFFFFF"/>
</g>
<rect fill="none" height="55" width="55"/>
</svg>
