<?xml version="1.0" encoding="UTF-8"?>
<!DOCTYPE svg PUBLIC "-//W3C//DTD SVG 1.1 Tiny//EN" "http://www.w3.org/Graphics/SVG/1.1/DTD/svg11-tiny.dtd">
<svg baseProfile="tiny" height="60" viewBox="0 0 60 60" width="60" xmlns="http://www.w3.org/2000/svg" xmlns:xlink="http://www.w3.org/1999/xlink">
<rect fill="none" height="60" width="60"/>
<linearGradient gradientUnits="userSpaceOnUse" id="SVGID_1" x1="18.98" x2="18.98" y1="7.81" y2="45.46">
<stop offset="0" stop-color="#D1D7D9"/>
<stop offset="0.07" stop-color="#D1D7D9"/>
<stop offset="0.26" stop-color="#BDC2C4"/>
<stop offset="0.66" stop-color="#949DA1"/>
<stop offset="0.96" stop-color="#ADB3B5"/>
<stop offset="1" stop-color="#595C5E"/>
</linearGradient>
<path d="M31.223,42.854c0,1.354-1.097,2.449-2.449,2.449H9.183c-1.353,0-2.449-1.096-2.449-2.449 V9.795c0-1.353,1.096-2.449,2.449-2.449h19.59c1.353,0,2.449,1.097,2.449,2.449V42.854z" fill="url(#SVGID_1)"/>
<linearGradient gradientUnits="userSpaceOnUse" id="SVGID_2" x1="18.98" x2="18.98" y1="7.35" y2="44.44">
<stop offset="0" stop-color="#D5D7DB"/>
<stop offset="0.67" stop-color="#85878A"/>
<stop offset="1" stop-color="#808184"/>
</linearGradient>
<path d="M28.773,7.346H9.183c-1.353,0-2.449,1.097-2.449,2.449v33.058c0,0.654,0.26,1.244,0.677,1.684 c-0.038-0.147-0.065-0.299-0.065-0.459v-1.225V11.02V9.795c0-1.013,0.824-1.837,1.837-1.837h19.59c1.013,0,1.836,0.824,1.836,1.837 v1.224v31.834v1.225c0,0.16-0.026,0.312-0.064,0.459c0.417-0.439,0.678-1.029,0.678-1.684V9.795 C31.223,8.443,30.126,7.346,28.773,7.346z" fill="url(#SVGID_2)"/>
<linearGradient gradientUnits="userSpaceOnUse" id="SVGID_3" x1="18.98" x2="18.98" y1="10.44" y2="34.29">
<stop offset="0" stop-color="#878B8C"/>
<stop offset="1" stop-color="#B1BABD"/>
</linearGradient>
<rect fill="url(#SVGID_3)" fill-opacity="0.6" height="23.876" stroke-opacity="0.6" width="20.815" x="8.571" y="10.407"/>
<linearGradient gradientUnits="userSpaceOnUse" id="SVGID_4" x1="18.98" x2="18.98" y1="11.05" y2="33.67">
<stop offset="0" stop-color="#3D3D3D"/>
<stop offset="1" stop-color="#1A1A1A"/>
</linearGradient>
<rect fill="url(#SVGID_4)" height="22.651" width="19.59" x="9.183" y="11.02"/>
<linearGradient gradientUnits="userSpaceOnUse" id="SVGID_5" x1="18.98" x2="18.98" y1="11.66" y2="33.06">
<stop offset="0" stop-color="#3BC8EB"/>
<stop offset="0.39" stop-color="#2D9BD2"/>
<stop offset="0.89" stop-color="#1347BA"/>
<stop offset="1" stop-color="#1347BA"/>
</linearGradient>
<rect fill="url(#SVGID_5)" height="21.427" width="18.366" x="9.795" y="11.632"/>
<linearGradient gradientUnits="userSpaceOnUse" id="SVGID_6" x1="18.98" x2="18.98" y1="12.14" y2="20.78">
<stop offset="0" stop-color="#85EFFF"/>
<stop offset="1" stop-color="#3BA1D9"/>
</linearGradient>
<polygon fill="url(#SVGID_6)" points="28.161,18.978 9.795,21.427 9.795,12.244 28.161,12.244 "/>
<rect fill="#9FE4FF" height="0.612" width="18.366" x="9.795" y="11.632"/>
<linearGradient gradientUnits="userSpaceOnUse" id="SVGID_7" x1="19.3" x2="19.3" y1="10.44" y2="7.99">
<stop offset="0" stop-color="#CFCFCF"/>
<stop offset="1" stop-color="#808385"/>
</linearGradient>
<path d="M17.113,10.407c-0.686,0-1.224-0.448-1.224-1.021V8.979c0-0.572,0.538-1.021,1.224-1.021h4.37 c0.686,0,1.224,0.448,1.224,1.021v0.408c0,0.573-0.538,1.021-1.224,1.021H17.113z" fill="url(#SVGID_7)"/>
<linearGradient gradientUnits="userSpaceOnUse" id="SVGID_8" x1="19.3" x2="19.3" y1="8.32" y2="9.9">
<stop offset="0" stop-color="#343838"/>
<stop offset="1" stop-color="#7D8182"/>
</linearGradient>
<path d="M22.095,9.387c0,0.226-0.273,0.409-0.612,0.409h-4.37c-0.338,0-0.612-0.183-0.612-0.409V8.979 c0-0.226,0.274-0.408,0.612-0.408h4.37c0.338,0,0.612,0.183,0.612,0.408V9.387z" fill="url(#SVGID_8)"/>
<linearGradient gradientUnits="userSpaceOnUse" id="SVGID_9" x1="18.98" x2="18.98" y1="34.92" y2="43.41">
<stop offset="0" stop-color="#878B8C"/>
<stop offset="1" stop-color="#B1BABD"/>
</linearGradient>
<path d="M17.072,43.467c-1.312,0-2.379-1.057-2.379-2.355 V37.25c0-1.298,1.067-2.354,2.379-2.354h3.813c1.311,0,2.378,1.057,2.378,2.354v3.862c0,1.298-1.067,2.354-2.379,2.354H17.072z" fill="url(#SVGID_9)" fill-opacity="0.6" stroke-opacity="0.6"/>
<path d="M17.068,42.854c-0.972,0-1.763-0.781-1.763-1.742V37.25 c0-0.961,0.791-1.742,1.763-1.742h3.82c0.972,0,1.763,0.781,1.763,1.742v3.862c0,0.96-0.791,1.741-1.763,1.741H17.068z" fill="#020202" fill-opacity="0.5" stroke-opacity="0.5"/>
<linearGradient gradientUnits="userSpaceOnUse" id="SVGID_10" x1="18.98" x2="18.98" y1="36.09" y2="42.25">
<stop offset="0" stop-color="#D1D7D9"/>
<stop offset="0.07" stop-color="#D1D7D9"/>
<stop offset="0.26" stop-color="#BDC2C4"/>
<stop offset="0.66" stop-color="#949DA1"/>
<stop offset="0.96" stop-color="#ADB3B5"/>
<stop offset="1" stop-color="#595C5E"/>
</linearGradient>
<path d="M22.039,41.111c0,0.625-0.514,1.131-1.146,1.131h-3.83c-0.633,0-1.146-0.506-1.146-1.131 V37.25c0-0.625,0.514-1.131,1.146-1.131h3.83c0.632,0,1.146,0.506,1.146,1.131V41.111z" fill="url(#SVGID_10)"/>
<path d="M18.366,41.018c-0.675,0-1.225-0.549-1.225-1.225v-1.225 c0-0.676,0.549-1.225,1.225-1.225h1.224c0.675,0,1.225,0.549,1.225,1.225v1.225c0,0.676-0.549,1.225-1.225,1.225H18.366z" fill="#020202" fill-opacity="0.5" stroke-opacity="0.5"/>
<linearGradient gradientUnits="userSpaceOnUse" id="SVGID_11" x1="18.98" x2="18.98" y1="37.95" y2="40.41">
<stop offset="0" stop-color="#A6A8AB"/>
<stop offset="0.7" stop-color="#58595B"/>
<stop offset="1" stop-color="#808184"/>
</linearGradient>
<path d="M18.366,40.405c-0.337,0-0.612-0.275-0.612-0.612v-1.225c0-0.336,0.275-0.611,0.612-0.611 h1.224c0.337,0,0.612,0.275,0.612,0.611v1.225c0,0.337-0.275,0.612-0.612,0.612H18.366z" fill="url(#SVGID_11)"/>
<linearGradient gradientUnits="userSpaceOnUse" id="SVGID_12" x1="11.02" x2="11.02" y1="35.48" y2="42.25">
<stop offset="0" stop-color="#878B8C"/>
<stop offset="1" stop-color="#B1BABD"/>
</linearGradient>
<path d="M11.02,42.242c-1.35,0-2.449-1.057-2.449-2.355 v-2.025c0-1.297,1.099-2.354,2.449-2.354l0,0c1.35,0,2.449,1.057,2.449,2.354v2.025C13.468,41.186,12.37,42.242,11.02,42.242 L11.02,42.242z" fill="url(#SVGID_12)" fill-opacity="0.6" stroke-opacity="0.6"/>
<linearGradient gradientUnits="userSpaceOnUse" id="SVGID_13" x1="11.02" x2="11.02" y1="36.09" y2="41.64">
<stop offset="0" stop-color="#231F20"/>
<stop offset="1" stop-color="#6D6E70"/>
</linearGradient>
<path d="M11.02,41.629c-1,0-1.812-0.78-1.812-1.742v-2.025 c0-0.961,0.813-1.742,1.812-1.742l0,0c1,0,1.812,0.781,1.812,1.743v2.025C12.832,40.849,12.02,41.629,11.02,41.629L11.02,41.629z" fill="url(#SVGID_13)" fill-opacity="0.7" stroke-opacity="0.7"/>
<linearGradient gradientUnits="userSpaceOnUse" id="SVGID_14" x1="11.02" x2="11.02" y1="36.71" y2="41.02">
<stop offset="0" stop-color="#C6FF45"/>
<stop offset="0.73" stop-color="#66A00E"/>
<stop offset="1" stop-color="#387300"/>
</linearGradient>
<path d="M12.195,39.887c0,0.625-0.526,1.131-1.175,1.131l0,0c-0.649,0-1.175-0.506-1.175-1.131 v-2.025c0-0.623,0.526-1.129,1.175-1.129l0,0c0.649,0,1.175,0.506,1.175,1.13V39.887z" fill="url(#SVGID_14)"/>
<path d="M26.981,42.242c-1.374,0-2.493-1.057-2.493-2.355 v-2.025c0-1.297,1.119-2.354,2.493-2.354h-0.089c1.375,0,2.494,1.057,2.494,2.354v2.025c0,1.298-1.119,2.354-2.493,2.354H26.981z" fill="url(#SVGID_12)" fill-opacity="0.6" stroke-opacity="0.6"/>
<path d="M26.981,41.629c-1.018,0-1.845-0.78-1.845-1.742 v-2.025c0-0.961,0.828-1.742,1.845-1.742h-0.089c1.018,0,1.845,0.781,1.845,1.742v2.025c0,0.961-0.828,1.742-1.845,1.742H26.981z" fill="url(#SVGID_13)" fill-opacity="0.7" stroke-opacity="0.7"/>
<linearGradient gradientUnits="userSpaceOnUse" id="SVGID_17" x1="26.94" x2="26.94" y1="36.71" y2="41.02">
<stop offset="0" stop-color="#FFC142"/>
<stop offset="0.75" stop-color="#CF4E18"/>
<stop offset="1" stop-color="#B52100"/>
</linearGradient>
<path d="M28.089,39.887c0,0.625-0.536,1.131-1.196,1.131h0.089c-0.66,0-1.196-0.506-1.196-1.131 v-2.025c0-0.624,0.536-1.13,1.196-1.13h-0.089c0.66,0,1.196,0.506,1.196,1.13V39.887z" fill="url(#SVGID_17)"/>
<rect fill="#020202" fill-opacity="0.2" height="37.957" stroke-opacity="0.2" width="1.225" x="21.427" y="7.346"/>
<rect fill="#020202" fill-opacity="0.1" height="37.957" stroke-opacity="0.1" width="2.449" x="22.039" y="7.346"/>
<linearGradient gradientUnits="userSpaceOnUse" id="SVGID_18" x1="37.04" x2="37.04" y1="7.35" y2="51.31">
<stop offset="0" stop-color="#D1D7D9"/>
<stop offset="0.07" stop-color="#D1D7D9"/>
<stop offset="0.26" stop-color="#BDC2C4"/>
<stop offset="0.66" stop-color="#949DA1"/>
<stop offset="0.96" stop-color="#ADB3B5"/>
<stop offset="1" stop-color="#595C5E"/>
</linearGradient>
<path d="M51.425,48.977c0,1.352-1.097,2.448-2.448,2.448H25.1c-1.352,0-2.449-1.097-2.449-2.448 V9.795c0-1.353,1.097-2.449,2.449-2.449h23.876c1.352,0,2.448,1.097,2.448,2.449V48.977z" fill="url(#SVGID_18)"/>
<linearGradient gradientUnits="userSpaceOnUse" id="SVGID_19" x1="37.04" x2="37.04" y1="7.35" y2="50.55">
<stop offset="0" stop-color="#E4EBED"/>
<stop offset="0.07" stop-color="#E4EBED"/>
<stop offset="0.26" stop-color="#D6DCDE"/>
<stop offset="0.66" stop-color="#B2BEC2"/>
<stop offset="1" stop-color="#ADB3B5"/>
</linearGradient>
<path d="M48.977,7.346H25.1c-1.352,0-2.449,1.097-2.449,2.449v39.181c0,0.652,0.26,1.242,0.677,1.683 c-0.038-0.147-0.065-0.3-0.065-0.459v-1.224V11.02V9.795c0-1.013,0.824-1.837,1.836-1.837h23.876c1.012,0,1.836,0.824,1.836,1.837 v1.224v37.957V50.2c0,0.159-0.027,0.312-0.064,0.459c0.416-0.44,0.677-1.03,0.677-1.683V9.795 C51.425,8.443,50.328,7.346,48.977,7.346z" fill="url(#SVGID_19)"/>
<linearGradient gradientUnits="userSpaceOnUse" id="SVGID_20" x1="37.04" x2="37.04" y1="10.45" y2="39.8">
<stop offset="0" stop-color="#B6BBBD"/>
<stop offset="1" stop-color="#F0FBFF"/>
</linearGradient>
<rect fill="url(#SVGID_20)" fill-opacity="0.6" height="29.386" stroke-opacity="0.6" width="25.1" x="24.488" y="10.407"/>
<linearGradient gradientUnits="userSpaceOnUse" id="SVGID_21" x1="37.04" x2="37.04" y1="11.06" y2="39.18">
<stop offset="0" stop-color="#6E6E6E"/>
<stop offset="1" stop-color="#333333"/>
</linearGradient>
<rect fill="url(#SVGID_21)" height="28.161" width="23.876" x="25.1" y="11.02"/>
<linearGradient gradientUnits="userSpaceOnUse" id="SVGID_22" x1="37.04" x2="37.04" y1="11.67" y2="38.57">
<stop offset="0" stop-color="#3BC8EB"/>
<stop offset="0.39" stop-color="#2D9BD2"/>
<stop offset="0.89" stop-color="#1347BA"/>
<stop offset="1" stop-color="#1347BA"/>
</linearGradient>
<rect fill="url(#SVGID_22)" height="26.937" width="22.651" x="25.712" y="11.632"/>
<linearGradient gradientUnits="userSpaceOnUse" id="SVGID_23" x1="37.04" x2="37.04" y1="12.12" y2="22.49">
<stop offset="0" stop-color="#85EFFF"/>
<stop offset="1" stop-color="#3BA1D9"/>
</linearGradient>
<polygon fill="url(#SVGID_23)" points="48.363,20.815 25.712,23.264 25.712,12.244 48.363,12.244 "/>
<rect fill="#9FE4FF" height="0.612" width="22.651" x="25.712" y="11.632"/>
<linearGradient gradientUnits="userSpaceOnUse" id="SVGID_24" x1="36.94" x2="36.94" y1="40.43" y2="49.53">
<stop offset="0" stop-color="#B6BBBD"/>
<stop offset="1" stop-color="#FFFFFF"/>
</linearGradient>
<path d="M34.73,49.588c-1.312,0-2.379-1.057-2.379-2.354 V42.76c0-1.299,1.067-2.355,2.379-2.355h4.426c1.313,0,2.379,1.057,2.379,2.355v4.475c0,1.297-1.066,2.354-2.379,2.354H34.73z" fill="url(#SVGID_24)" fill-opacity="0.6" stroke-opacity="0.6"/>
<path d="M34.728,48.977c-0.972,0-1.763-0.781-1.763-1.742V42.76 c0-0.961,0.791-1.743,1.763-1.743h4.433c0.973,0,1.764,0.781,1.764,1.743v4.475c0,0.96-0.791,1.742-1.764,1.742H34.728z" fill="#020202" fill-opacity="0.5" stroke-opacity="0.5"/>
<linearGradient gradientUnits="userSpaceOnUse" id="SVGID_25" x1="36.94" x2="36.94" y1="41.6" y2="48.37">
<stop offset="0" stop-color="#A6A8AB"/>
<stop offset="0.7" stop-color="#58595B"/>
<stop offset="1" stop-color="#808184"/>
</linearGradient>
<path d="M40.311,47.234c0,0.623-0.514,1.129-1.146,1.129h-4.442c-0.633,0-1.146-0.506-1.146-1.129 V42.76c0-0.625,0.514-1.131,1.146-1.131h4.442c0.632,0,1.146,0.506,1.146,1.131V47.234z" fill="url(#SVGID_25)"/>
<path d="M36.025,47.14c-0.676,0-1.225-0.549-1.225-1.225v-1.837 c0-0.676,0.549-1.225,1.225-1.225h1.837c0.675,0,1.224,0.549,1.224,1.225v1.837c0,0.676-0.549,1.225-1.224,1.225H36.025z" fill="#020202" fill-opacity="0.2" stroke-opacity="0.2"/>
<linearGradient gradientUnits="userSpaceOnUse" id="SVGID_26" x1="36.94" x2="36.94" y1="43.45" y2="46.53">
<stop offset="0" stop-color="#D1D7D9"/>
<stop offset="0.07" stop-color="#D1D7D9"/>
<stop offset="0.26" stop-color="#BDC2C4"/>
<stop offset="0.66" stop-color="#949DA1"/>
<stop offset="0.96" stop-color="#ADB3B5"/>
<stop offset="1" stop-color="#595C5E"/>
</linearGradient>
<path d="M36.025,46.527c-0.336,0-0.612-0.275-0.612-0.612v-1.837c0-0.336,0.276-0.611,0.612-0.611 h1.837c0.337,0,0.612,0.275,0.612,0.611v1.837c0,0.337-0.275,0.612-0.612,0.612H36.025z" fill="url(#SVGID_26)"/>
<linearGradient gradientUnits="userSpaceOnUse" id="SVGID_27" x1="27.2" x2="27.2" y1="40.98" y2="48.38">
<stop offset="0" stop-color="#B6BBBD"/>
<stop offset="1" stop-color="#F0FBFF"/>
</linearGradient>
<path d="M26.843,48.363c-1.298,0-2.355-1.057-2.355-2.354 v-2.639c0-1.297,1.057-2.354,2.355-2.354h0.706c1.298,0,2.354,1.057,2.354,2.354v2.638c0,1.297-1.057,2.354-2.354,2.354H26.843z" fill="url(#SVGID_27)" fill-opacity="0.4" stroke-opacity="0.4"/>
<linearGradient gradientUnits="userSpaceOnUse" id="SVGID_28" x1="27.2" x2="27.2" y1="41.6" y2="47.76">
<stop offset="0" stop-color="#231F20"/>
<stop offset="1" stop-color="#6D6E70"/>
</linearGradient>
<path d="M26.843,47.752c-0.961,0-1.743-0.781-1.743-1.742 v-2.639c0-0.961,0.781-1.742,1.743-1.742h0.706c0.961,0,1.743,0.781,1.743,1.743v2.638c0,0.961-0.782,1.742-1.743,1.742H26.843z" fill="url(#SVGID_28)" fill-opacity="0.7" stroke-opacity="0.7"/>
<linearGradient gradientUnits="userSpaceOnUse" id="SVGID_29" x1="27.2" x2="27.2" y1="42.22" y2="47.15">
<stop offset="0" stop-color="#C6FF45"/>
<stop offset="0.73" stop-color="#66A00E"/>
<stop offset="1" stop-color="#387300"/>
</linearGradient>
<path d="M28.679,46.01c0,0.624-0.506,1.13-1.13,1.13h-0.706c-0.624,0-1.13-0.506-1.13-1.13v-2.639 c0-0.623,0.506-1.129,1.13-1.129h0.706c0.624,0,1.13,0.506,1.13,1.13V46.01z" fill="url(#SVGID_29)"/>
<path d="M46,48.363c-1.299,0-2.355-1.057-2.355-2.354v-2.639 c0-1.298,1.057-2.354,2.355-2.354h0.706c1.298,0,2.354,1.057,2.354,2.354v2.639c0,1.297-1.057,2.354-2.354,2.354H46z" fill="url(#SVGID_27)" fill-opacity="0.4" stroke-opacity="0.4"/>
<path d="M46,47.752c-0.961,0-1.742-0.781-1.742-1.742v-2.639 c0-0.961,0.78-1.742,1.742-1.742h0.706c0.96,0,1.742,0.781,1.742,1.742v2.639c0,0.96-0.781,1.742-1.742,1.742H46z" fill="url(#SVGID_28)" fill-opacity="0.7" stroke-opacity="0.7"/>
<linearGradient gradientUnits="userSpaceOnUse" id="SVGID_32" x1="46.35" x2="46.35" y1="42.22" y2="47.15">
<stop offset="0" stop-color="#FFC142"/>
<stop offset="0.75" stop-color="#CF4E18"/>
<stop offset="1" stop-color="#B52100"/>
</linearGradient>
<path d="M47.836,46.01c0,0.624-0.506,1.13-1.13,1.13H46c-0.625,0-1.131-0.506-1.131-1.13v-2.639 c0-0.624,0.506-1.13,1.131-1.13h0.706c0.624,0,1.13,0.506,1.13,1.13V46.01z" fill="url(#SVGID_32)"/>
<rect fill="none" height="59.996" width="59.996"/>
<polygon fill-opacity="0.1" points="24.281,35.936 16.112,35.937 16.114,26.479 24.281,26.477 24.281,20.355 35.76,31.51 24.282,41.943 " stroke-opacity="0.1"/>
<polygon fill-opacity="0.2" points="24.893,35.323 16.725,35.324 16.727,27.091 24.893,27.089 24.893,21.804 34.88,31.508 24.895,40.505 " stroke-opacity="0.2"/>
<linearGradient gradientUnits="userSpaceOnUse" id="SVGID_33" x1="25.67" x2="25.67" y1="22.7" y2="38.5">
<stop offset="0" stop-color="#C6FF45"/>
<stop offset="0.73" stop-color="#66A00E"/>
<stop offset="1" stop-color="#387300"/>
</linearGradient>
<polygon fill="url(#SVGID_33)" points="25.506,39.066 33.999,30.894 25.505,22.641 25.505,27.088 17.339,27.09 17.337,34.713 25.505,34.711 "/>
<polygon fill="#FFFFFF" points="33.999,30.894 25.505,22.641 25.505,23.252 33.684,31.198 "/>
<polygon fill="#FFFFFF" points="17.339,27.703 25.505,27.7 25.505,27.088 17.339,27.09 17.337,34.713 17.337,34.713 "/>
</svg>
