<?xml version="1.0" encoding="UTF-8"?>
<!DOCTYPE svg PUBLIC "-//W3C//DTD SVG 1.1 Tiny//EN" "http://www.w3.org/Graphics/SVG/1.1/DTD/svg11-tiny.dtd">
<svg baseProfile="tiny" height="30px" version="1.1" viewBox="0 0 30 30" width="30px" x="0px" xmlns="http://www.w3.org/2000/svg" xmlns:xlink="http://www.w3.org/1999/xlink" y="0px">
<path d="M18.802,8.537l-1.735-1.735c-1.598-1.598-4.188-1.598-5.784,0l-4.05,4.05L6.075,9.693L4.34,11.43l1.157,1.157L3.184,14.9  c-0.646,0.647-1.019,1.458-1.142,2.299l-0.015,0.015l0.013,0.014c-0.171,1.226,0.2,2.515,1.144,3.457l1.735,1.735  c0.943,0.944,2.231,1.315,3.457,1.145l0.014,0.013l0.015-0.016c0.048-0.007,0.096-0.005,0.144-0.013v2.506H4.457  c-0.451,0-0.818,0.366-0.818,0.818v1.636h4.909h2.454h4.908v-1.636c0-0.452-0.366-0.818-0.818-0.818h-4.09v-3.933l2.016-2.016  l1.156,1.156l1.735-1.734l-1.157-1.157l4.05-4.049C20.399,12.725,20.399,10.135,18.802,8.537z M9.774,16.647  c-0.903,0-1.636-0.732-1.636-1.636c0-0.904,0.732-1.636,1.636-1.636c0.904,0,1.636,0.731,1.636,1.636  C11.41,15.915,10.679,16.647,9.774,16.647z M17.645,13.166l-4.049,4.049l-1.161-1.162c0.127-0.323,0.203-0.673,0.203-1.041  c0-1.579-1.284-2.863-2.863-2.863c-0.368,0-0.718,0.076-1.042,0.203L8.39,12.009l4.049-4.05c0.957-0.957,2.514-0.957,3.471,0  l1.735,1.734C18.601,10.651,18.601,12.208,17.645,13.166z"/>
<path d="M22.21,1.066l-1.09,1.739c4.889,3.068,6.369,9.545,3.302,14.435l1.738,1.09C29.831,12.48,28.061,4.737,22.21,1.066z"/>
<path d="M20.027,4.544l-1.091,1.738c2.972,1.867,3.874,5.803,2.007,8.773l1.739,1.094C25.15,12.216,23.96,7.012,20.027,4.544z"/>
<g fill-opacity="0.5" stroke-opacity="0.5">
<rect fill="none" height="30" width="30"/>
</g>
</svg>
