<?xml version="1.0" encoding="UTF-8" standalone="no"?>
<!DOCTYPE svg PUBLIC "-//W3C//DTD SVG 1.1 Tiny//EN" "http://www.w3.org/Graphics/SVG/1.1/DTD/svg11-tiny.dtd">
<svg xmlns="http://www.w3.org/2000/svg" xmlns:xlink="http://www.w3.org/1999/xlink" baseProfile="tiny" height="30px" version="1.1" viewBox="0 0 30 30" width="30px" x="0px" y="0px">
<g fill-opacity="0.5" stroke-opacity="0.5">
<rect fill="none" height="30" width="30"/>
</g>
<polygon points="6,1 6,4 26,4 26,16 29,16 29,1 "/>
<polygon points="17,29 24,22 17,22 "/>
<polygon points="26,20 29,17 26,17 "/>
<polygon points="1,29 16,29 16,26 4,26 4,9 21,9 21,21 24,21 24,6 1,6 "/>
<rect height="2" width="2" x="7" y="17"/>
<rect height="2" width="8" x="10" y="17"/>
<rect height="2" width="2" x="7" y="12"/>
<rect height="2" width="8" x="10" y="12"/>
</svg>
