<?xml version="1.0" ?>
<!DOCTYPE svg  PUBLIC '-//W3C//DTD SVG 1.1 Tiny//EN'  'http://www.w3.org/Graphics/SVG/1.1/DTD/svg11-tiny.dtd'>
<svg baseProfile="tiny" height="30" viewBox="0 0 30 30" width="30" xmlns="http://www.w3.org/2000/svg" xmlns:xlink="http://www.w3.org/1999/xlink">

<rect fill="none" height="30" width="30"/>

<path d="M4.427,12.81c-0.771-0.426-1.315-0.787-1.635-1.083s-0.479-0.69-0.479-1.184c0-0.509,0.183-0.907,0.549-1.195,0.366-0.287,0.854-0.432,1.464-0.432,0.672,0,1.398,0.089,2.18,0.266v-1.449c-0.737-0.166-1.544-0.25-2.421-0.25-1.209,0-2.188,0.281-2.94,0.843s-1.127,1.401-1.127,2.52c0,0.703,0.169,1.329,0.507,1.88s0.993,1.098,1.963,1.64c0.888,0.504,1.496,0.912,1.822,1.225,0.327,0.313,0.491,0.743,0.491,1.29,0,0.582-0.198,1.029-0.595,1.346-0.396,0.314-0.947,0.473-1.652,0.473-0.742,0-1.594-0.13-2.554-0.391v1.479c0.877,0.227,1.768,0.34,2.672,0.34,1.475,0,2.583-0.312,3.322-0.934,0.741-0.623,1.111-1.557,1.111-2.802,0-0.691-0.181-1.314-0.54-1.868-0.361-0.56-1.074-1.14-2.138-1.73z"/>

<path d="M11.92,17.88l-1.92-7.58h-2.337l2.612,9.297h1.174c-0.233,0.725-0.471,1.206-0.712,1.443-0.241,0.238-0.572,0.357-0.994,0.357s-0.904-0.063-1.447-0.191v1.428c0.604,0.128,1.167,0.191,1.688,0.191,0.793,0,1.433-0.202,1.918-0.605,0.485-0.404,0.855-1.041,1.11-1.91l2.937-10.01h-1.996l-2.03,7.58z"/>

<path d="M29.26,10.94c-0.496-0.525-1.241-0.788-2.233-0.788-1.171,0-2.075,0.459-2.714,1.378-0.433-0.919-1.295-1.378-2.587-1.378-1.23,0-2.174,0.528-2.828,1.585l-0.391-1.443h-1.315v9.7h2.255v-5.902c0-0.769,0.147-1.386,0.44-1.851,0.295-0.465,0.719-0.697,1.273-0.697,0.438,0,0.767,0.155,0.985,0.465,0.22,0.31,0.329,0.772,0.329,1.386v6.59h2.246v-5.902c0-0.774,0.15-1.393,0.449-1.854,0.3-0.462,0.729-0.693,1.29-0.693,0.433,0,0.754,0.14,0.966,0.419,0.21,0.279,0.314,0.757,0.314,1.432v6.59h2.24v-6.699c0-1.04-0.25-1.83-0.74-2.36z"/>

</svg>