<?xml version="1.0" encoding="UTF-8"?>
<!DOCTYPE svg PUBLIC "-//W3C//DTD SVG 1.1 Tiny//EN" "http://www.w3.org/Graphics/SVG/1.1/DTD/svg11-tiny.dtd">
<svg baseProfile="tiny" height="52px" version="1.1" viewBox="0 0 52 52" width="52px" x="0px" xmlns="http://www.w3.org/2000/svg" xmlns:xlink="http://www.w3.org/1999/xlink" y="0px">
<rect fill="none" height="52" width="52"/>
<path d="M49.08,33.498c0.01-0.03,0.02-0.063,0.029-0.092l-5.432-1.766c-0.01,0.029-0.021,0.063-0.029,0.092  c-3.162,9.732-13.652,15.076-23.383,11.916C10.531,40.486,5.189,29.997,8.352,20.264C11.475,10.652,21.742,5.32,31.373,8.234  l1.766-5.432C20.514-1.084,7.018,5.893,2.922,18.499c-4.135,12.726,2.852,26.444,15.58,30.581  C31.227,53.215,44.945,46.223,49.08,33.498z" fill="url(#SVGID_1_)"/>
<defs>
<linearGradient gradientTransform="matrix(-0.309 0.9511 -0.9511 -0.309 189.1018 -329.3094)" gradientUnits="userSpaceOnUse" id="SVGID_1_" x1="390.0723" x2="384.0879" y1="54.8574" y2="22.6369">
<stop offset="0" style="stop-color:#0067B1"/>
<stop offset="1" style="stop-color:#0069B1;stop-opacity:0.25"/>
</linearGradient>
</defs>
</svg>
