<?xml version="1.0" encoding="UTF-8"?>
<!DOCTYPE svg PUBLIC "-//W3C//DTD SVG 1.1 Tiny//EN" "http://www.w3.org/Graphics/SVG/1.1/DTD/svg11-tiny.dtd">
<svg baseProfile="tiny" height="218px" version="1.1" viewBox="0 0 218 218" width="218px" x="0px" xmlns="http://www.w3.org/2000/svg" xmlns:xlink="http://www.w3.org/1999/xlink" y="0px">
<rect fill="none" height="218" width="218"/>
<rect fill-opacity="0.4" height="75" width="6" x="106" y="36"/>
<linearGradient gradientUnits="userSpaceOnUse" id="SVGID_1_" x1="108.9995" x2="108.9995" y1="37" y2="110">
<stop offset="0" style="stop-color:#FAFAFA"/>
<stop offset="0" style="stop-color:#FAFAFF"/>
<stop offset="1" style="stop-color:#DCDCE1"/>
</linearGradient>
<rect fill="url(#SVGID_1_)" height="73" width="4" x="107" y="37"/>
<path d="M109,118c-4.963,0-9-4.037-9-9.001c0-4.962,4.037-8.999,9-8.999s9,4.037,9,8.999  C118,113.963,113.963,118,109,118L109,118z" fill-opacity="0.4" stroke-opacity="0.4"/>
<linearGradient gradientUnits="userSpaceOnUse" id="SVGID_2_" x1="108.9995" x2="108.9995" y1="100.9004" y2="117.1001">
<stop offset="0" style="stop-color:#999999"/>
<stop offset="0.3091" style="stop-color:#4D4D4D"/>
<stop offset="1" style="stop-color:#000000"/>
</linearGradient>
<circle cx="109" cy="108.999" fill="url(#SVGID_2_)" r="8.1"/>
<linearGradient gradientUnits="userSpaceOnUse" id="SVGID_3_" x1="109.0005" x2="109.0005" y1="101.8008" y2="116.1997">
<stop offset="0" style="stop-color:#666666"/>
<stop offset="1" style="stop-color:#000000"/>
</linearGradient>
<path d="M109,116.199c-3.969,0-7.199-3.23-7.199-7.201c0-3.969,3.23-7.198,7.199-7.198  s7.201,3.229,7.201,7.198C116.201,112.969,112.969,116.199,109,116.199L109,116.199z" fill="url(#SVGID_3_)"/>
</svg>
