<?xml version="1.0" encoding="UTF-8"?>
<!DOCTYPE svg PUBLIC "-//W3C//DTD SVG 1.1 Tiny//EN" "http://www.w3.org/Graphics/SVG/1.1/DTD/svg11-tiny.dtd">
<svg baseProfile="tiny" height="31px" version="1.1" viewBox="-0.334 -0.857 31 31" width="31px" x="0px" xmlns="http://www.w3.org/2000/svg" xmlns:xlink="http://www.w3.org/1999/xlink" y="0px">
<path d="M16.288,10.937V7.222h-3.712v2.707h-1.238V7.222H7.623v3.715h2.708l-0.012,1.25L7.61,12.204l0.013,3.687l3.69-0.014  l0.007-2.694h1.256v2.707h3.712v-3.715h-2.707v-1.237H16.288z M12.591,12.174h-0.015v0.018H11.32v-1.254h0.018v-0.015h1.238v0.015  h0.015V12.174z"/>
<polygon points="11.97,2.87 17.889,8.77 18.581,8.074 11.931,1.404 5.28,8.056 6.05,8.807 "/>
<polygon points="17.505,22.329 18.913,24.598 22.773,24.598 21.365,22.329 "/>
<polygon points="11.471,22.329 12.877,24.598 16.725,24.598 15.312,22.329 "/>
<polygon points="23.556,22.329 24.722,24.208 24.722,22.329 "/>
<polygon points="10.684,24.598 10.688,24.598 9.28,22.329 6.614,22.329 10.529,28.596 12.435,27.403 11.773,26.34 "/>
<polygon points="20.604,17.657 22.013,19.924 24.722,19.924 20.81,13.659 18.882,14.86 20.626,17.657 "/>
<polygon points="19.824,19.924 18.413,17.657 14.607,17.657 16.016,19.924 "/>
<polygon points="6.614,18.033 6.614,19.924 7.787,19.924 "/>
<polygon points="13.825,19.924 12.419,17.657 8.569,17.657 9.978,19.924 "/>
<rect fill="none" height="30" width="30"/>
<rect fill="none" height="30" width="30"/>
</svg>
