<?xml version="1.0" encoding="UTF-8"?>
<!DOCTYPE svg PUBLIC "-//W3C//DTD SVG 1.1 Tiny//EN" "http://www.w3.org/Graphics/SVG/1.1/DTD/svg11-tiny.dtd">
<svg baseProfile="tiny" height="126px" version="1.1" viewBox="55.5 -55.5 15 126" width="15px" x="0px" xmlns="http://www.w3.org/2000/svg" xmlns:xlink="http://www.w3.org/1999/xlink" y="0px">
<path d="M55.5,70.5h9c3.3,0,6-2.7,6-6v-114c0-3.3-2.7-6-6-6h-9V70.5z" fill="url(#SVGID_1_)"/>
<rect fill="#14141E" fill-opacity="0.3" height="28" stroke-opacity="0.3" width="1" x="59.5" y="-6.5"/>
<rect fill="#FFFFFF" fill-opacity="0.5" height="28" stroke-opacity="0.5" width="1" x="60.5" y="-6.5"/>
<rect fill="#14141E" fill-opacity="0.3" height="28" stroke-opacity="0.3" width="1" x="63.5" y="-6.5"/>
<rect fill="#FFFFFF" fill-opacity="0.5" height="28" stroke-opacity="0.5" width="1" x="64.5" y="-6.5"/>
<path d="M55.5,70.5h9c3.3,0,6-2.7,6-6v-114c0-3.3-2.7-6-6-6h-9V70.5z   M64.5-54.5c2.757,0,5,2.243,5,5v114c0,2.757-2.243,5-5,5h-8v-124H64.5z" fill="#14141E" fill-opacity="0.3" stroke-opacity="0.3"/>
<defs>
<linearGradient gradientTransform="matrix(4.489659e-011 -1 -1 -4.489659e-011 -30.5195 127.9805)" gradientUnits="userSpaceOnUse" id="SVGID_1_" x1="120.4805" x2="120.4805" y1="-101.019" y2="-86.5195">
<stop offset="0" style="stop-color:#F0F0F0"/>
<stop offset="1" style="stop-color:#AAAAAA"/>
</linearGradient>
</defs>
</svg>
