<?xml version="1.0" encoding="UTF-8"?>
<!DOCTYPE svg PUBLIC "-//W3C//DTD SVG 1.1 Tiny//EN" "http://www.w3.org/Graphics/SVG/1.1/DTD/svg11-tiny.dtd">
<svg baseProfile="tiny" height="30px" version="1.1" viewBox="0 0 30 30" width="30px" x="0px" xmlns="http://www.w3.org/2000/svg" xmlns:xlink="http://www.w3.org/1999/xlink" y="0px">
<rect fill="none" height="30" width="30"/>
<path d="M28,7.222c0,1.288-1.045,2.333-2.333,2.333H10.111c-1.289,0-2.333-1.045-2.333-2.333l0,0c0-1.288,1.045-2.333,2.333-2.333  h15.556C26.955,4.889,28,5.934,28,7.222L28,7.222z"/>
<circle cx="4.333" cy="7.222" r="2.333"/>
<path d="M28,15c0,1.288-1.045,2.333-2.333,2.333H10.111c-1.289,0-2.333-1.045-2.333-2.333l0,0c0-1.288,1.045-2.333,2.333-2.333  h15.556C26.955,12.667,28,13.712,28,15L28,15z"/>
<circle cx="4.333" cy="15" r="2.333"/>
<path d="M28,22.777c0,1.289-1.045,2.334-2.333,2.334H10.111c-1.289,0-2.333-1.045-2.333-2.334l0,0c0-1.288,1.045-2.333,2.333-2.333  h15.556C26.955,20.444,28,21.489,28,22.777L28,22.777z"/>
<circle cx="4.333" cy="22.778" r="2.333"/>
</svg>
