<?xml version="1.0" encoding="UTF-8"?>
<!DOCTYPE svg PUBLIC "-//W3C//DTD SVG 1.1 Tiny//EN" "http://www.w3.org/Graphics/SVG/1.1/DTD/svg11-tiny.dtd">
<svg baseProfile="tiny" height="52px" version="1.1" viewBox="0 0 52 52" width="52px" x="0px" xmlns="http://www.w3.org/2000/svg" xmlns:xlink="http://www.w3.org/1999/xlink" y="0px">
<rect fill="none" height="52" width="52"/>
<path d="M11.738,45.633c0.025,0.02,0.053,0.039,0.078,0.057l3.355-4.619  c-0.023-0.018-0.051-0.037-0.078-0.057c-8.279-6.016-10.119-17.644-4.107-25.92C17.004,6.814,28.63,4.975,36.91,10.988  c8.174,5.941,10.072,17.354,4.326,25.612l4.619,3.357c7.6-10.807,5.133-25.797-5.59-33.588C29.439-1.496,14.232,0.91,6.367,11.736  S0.914,37.77,11.738,45.633z" fill="url(#SVGID_1_)"/>
<defs>
<linearGradient gradientTransform="matrix(-0.809 -0.5878 0.5878 -0.809 -349.8818 328.9452)" gradientUnits="userSpaceOnUse" id="SVGID_1_" x1="-124.2505" x2="-130.235" y1="475.5562" y2="443.3352">
<stop offset="0" style="stop-color:#0067B1"/>
<stop offset="1" style="stop-color:#0069B1;stop-opacity:0.25"/>
</linearGradient>
</defs>
</svg>
