<?xml version="1.0" ?>
<!DOCTYPE svg  PUBLIC '-//W3C//DTD SVG 1.1 Tiny//EN'  'http://www.w3.org/Graphics/SVG/1.1/DTD/svg11-tiny.dtd'>
<svg baseProfile="tiny" height="30px" version="1.1" viewBox="0 0 30 30" width="30px" x="0px" xmlns="http://www.w3.org/2000/svg" xmlns:xlink="http://www.w3.org/1999/xlink" y="0px">

<g fill-opacity="0.5" stroke-opacity="0.5">

<rect fill="none" height="30" width="30"/>

</g>

<path d="M13.13,21c0.17-1.069,0.508-2.081,1.003-3h-5.13v-8h12v3.13c0.49-0.078,0.988-0.13,1.5-0.13s1.01,0.052,1.5,0.13v-3.13h4v-3h-2v-2h2v-3h-26v3h2v2h-2v3h4v8h-4v3h2v2h-2v3h11.67c-0.371-0.937-0.594-1.945-0.648-3h-2.02v-2h2.13zm7.87-16h3v2h-3v-2zm-5,0h3v2h-3v-2zm-5,0h3v2h-3v-2zm-5,0h3v2h-3v-2zm3,18h-3v-2h3v2z"/>

<polygon points="19.6,18.89,23.97,20.29,24.71,18.82,21.76,18.08"/>

<path d="M22.5,15c-4.143,0-7.5,3.357-7.5,7.5s3.357,7.5,7.5,7.5,7.5-3.357,7.5-7.5-3.36-7.5-7.5-7.5zm3.96,5.47l0.346-0.152s0.422,0.403,0.403,0.537c-0.019,0.135-0.653,0.749-0.653,0.749l-0.56,0.19-0.732-0.603-0.557-0.46,0.346,0.826,0.461,0.48s0.807-0.115,0.922-0.02-0.152,0.827-0.152,0.827l-1.346,1.383-0.135,1.383c-0.75,0.386-0.826,0.979-0.826,0.979s-0.191-0.036-0.691,0.521c-0.5,0.556-1.039,0.41-1.039,0.41-0.633,0-0.748-0.41-0.748-0.546,0-0.134-0.635-1.172-0.635-1.519,0-0.345,0.192-0.769,0.192-0.769,0.038-0.499-0.499-1.843-0.499-1.843h-0.558l-0.192-0.424c-1.806,0.385-1.883-0.077-2.152-0.577-0.268-0.499,0.039-1.843,0.212-2.055s1.519-1.134,1.519-1.134l-0.174-0.25c-0.115-0.25,0.635-0.595,0.635-0.595,0.288,0.192,0.48,0,0.48,0l0.076-0.193-0.051-0.188c0.67-0.28,1.39-0.44,2.15-0.44,0.55,0,1.08,0.083,1.581,0.234l-0.108,0.107,0.737,0.737,0.412-0.412c1.061,0.577,1.907,1.495,2.401,2.604l-0.699-0.129-0.846-0.326,0.49,0.66zm-9.25,3.51l0.79,0.02,1,1-0.97,0.692c-0.37-0.51-0.65-1.09-0.82-1.71zm8.67,2.74l0.12-1.72,1.209,0.326c-0.334,0.555-0.76,1.048-1.262,1.453l-0.07-0.06z"/>

</svg>