<?xml version="1.0" encoding="utf-8"?>
<!-- Generator: Adobe Illustrator 14.0.0, SVG Export Plug-In  -->
<!DOCTYPE svg PUBLIC "-//W3C//DTD SVG 1.1//EN" "http://www.w3.org/Graphics/SVG/1.1/DTD/svg11.dtd" [
	<!ENTITY ns_flows "http://ns.adobe.com/Flows/1.0/">
]>
<svg version="1.1"
	 xmlns="http://www.w3.org/2000/svg" xmlns:xlink="http://www.w3.org/1999/xlink" xmlns:a="http://ns.adobe.com/AdobeSVGViewerExtensions/3.0/"
	 x="0px" y="0px" width="30px" height="30px" viewBox="0 0 30 30" enable-background="new 0 0 30 30" xml:space="preserve">
<defs>
</defs>
<rect fill="none" width="30" height="30"/>
<path d="M29.999,13h-2c0-4.502-3.662-8.166-8.166-8.166c-0.094,0-0.188,0.002-0.279,0.004L19.479,2.84
	c0.117-0.004,0.234-0.006,0.354-0.006C25.438,2.834,29.999,7.395,29.999,13L29.999,13z"/>
<polygon points="19.999,3.999 19.999,8 17,5.999 13.999,3.999 17,2.001 19.999,0 "/>
<path d="M2.921,6.375c-0.289,0.289-0.543,0.6-0.781,0.918l5.024,5.023c0.624,0.623,1.638,0.623,2.263-0.002l0.565-0.564
	c0.625-0.625,0.624-1.639,0-2.264L5.247,4.742C4.407,5.143,3.616,5.682,2.921,6.375z"/>
<path d="M25.083,21.602L16.882,13.4c0.402-2.592-0.383-5.334-2.375-7.326C11.192,2.76,5.8,2.76,2.485,6.074s-3.313,8.707,0,12.021
	c1.992,1.992,4.734,2.777,7.326,2.375l8.201,8.201c1.771,1.771,4.654,1.771,6.428,0l0.643-0.643
	C26.854,26.256,26.854,23.371,25.083,21.602z M22.345,25.367l-0.566,0.566c-0.625,0.623-1.637,0.625-2.262,0l-8.821-8.822
	c-2.013,0.879-4.443,0.508-6.089-1.139c-2.144-2.143-2.144-5.633,0-7.777c2.145-2.145,5.635-2.145,7.779,0
	c1.645,1.645,2.016,4.076,1.139,6.088l8.82,8.822C22.97,23.73,22.97,24.742,22.345,25.367z"/>
<rect x="1.023" y="13.392" transform="matrix(-0.7072 0.7071 -0.7071 -0.7072 20.3094 20.3716)" width="9.826" height="2"/>
<path d="M20.837,23.793c0.133,0.133,0.098,0.379-0.078,0.555l0,0c-0.174,0.174-0.422,0.209-0.553,0.078l-1.424-1.422
	c-0.131-0.133-0.096-0.381,0.078-0.555l0,0c0.176-0.174,0.424-0.209,0.555-0.078L20.837,23.793z"/>
</svg>
