<?xml version="1.0" encoding="UTF-8" standalone="no"?>
<!DOCTYPE svg PUBLIC "-//W3C//DTD SVG 1.1 Tiny//EN" "http://www.w3.org/Graphics/SVG/1.1/DTD/svg11-tiny.dtd">
<svg xmlns="http://www.w3.org/2000/svg" xmlns:xlink="http://www.w3.org/1999/xlink" baseProfile="tiny" height="30" viewBox="0 0 30 30" width="30">
<path d="M5.294,26.47c-0.156,0-0.313-0.042-0.45-0.124-0.268-0.16-0.432-0.45-0.432-0.76v-21.18c0-0.312,0.164-0.6,0.432-0.759,0.138-0.082,0.294-0.123,0.45-0.123,0.146,0,0.291,0.036,0.423,0.107l19.41,10.59c0.283,0.154,0.46,0.452,0.46,0.775s-0.177,0.62-0.46,0.774l-19.41,10.59c-0.132,0.08-0.277,0.11-0.423,0.11z" fill-opacity="0.6" stroke-opacity="0.6" style="enable-background:new;"/>
<polygon fill="url(#SVGID_1_)" points="5.294,4.412,24.71,15,5.294,25.59"/>
<polygon fill="#753200" fill-opacity="0.1" points="5.294,24.71,5.294,25.59,24.71,15,23.9,14.56" stroke-opacity="0.1" style="enable-background:new;"/>
<polygon fill="#FFFFFF" fill-opacity="0.4" points="24.71,15,5.294,4.412,5.294,5.294,23.9,15.44" stroke-opacity="0.4" style="enable-background:new;"/>
<rect fill="none" height="30" width="30"/>
<defs>
<linearGradient gradientTransform="matrix(0.8824 0 0 -0.8824 -284.8232 -348.3516)" gradientUnits="userSpaceOnUse" id="SVGID_1_" x1="339.8" x2="339.8" y1="-399.8" y2="-423.8">
<stop offset="0" stop-color="#4EDEFF"/>
<stop offset="1" stop-color="#048CC6"/>
</linearGradient>
</defs>
</svg>
