<?xml version="1.0" encoding="UTF-8" standalone="no"?>
<!DOCTYPE svg PUBLIC "-//W3C//DTD SVG 1.1 Tiny//EN" "http://www.w3.org/Graphics/SVG/1.1/DTD/svg11-tiny.dtd">
<svg xmlns="http://www.w3.org/2000/svg" xmlns:xlink="http://www.w3.org/1999/xlink" baseProfile="tiny" height="30" viewBox="0 0 30 30" width="30">
<rect fill="none" height="30" width="30"/>
<path d="M10.37,17.18c-0.731-0.662-1.288-1.417-1.714-2.314-1.002-2.12-0.705-5.979-0.611-6.944,0.072-2.494,2.419-4.848,4.767-5.638-0.98-1.273-2.62-2.288-3.874-2.288h-1.214c-1.915,0-4.342,2.367-4.342,4.388,0,0-0.29,4.066,0.575,6.022,0.475,1.067,0.918,1.963,1.889,2.645,0.003,0.14,0.012,0.733,0.003,0.87-0.118,1.98-5.847,4.35-5.847,4.35v5.72h4v-1.927l0.407-0.536c0.296-0.391,0.623-0.597,1.705-1.277,2.241-1.4,3.669-2.44,4.258-3.07z"/>
<path d="M19.52,14.01c0.908-1.782,0.423-5.978,0.423-5.978,0-1.858-2.47-4.034-4.35-4.034h-1.191c-1.88,0-4.354,2.176-4.354,4.034,0,0-0.431,4.175,0.419,5.972,0.467,0.982,1.139,1.708,2.092,2.334,0.003,0.128,0.01,0.794,0.002,0.921-0.006,0.087-0.037,0.179-0.068,0.271h3.143c0.659-1.187,1.783-2.071,3.138-2.391,0.29-0.33,0.53-0.7,0.75-1.12z"/>
<path d="M21.94,7.903c0.108,0.996,0.446,4.888-0.639,7.017-0.015,0.028-0.035,0.052-0.05,0.08h3.439c-0.311-0.36-0.514-0.724-0.534-1.075-0.009-0.146,0-0.75,0.003-0.896,0.947-0.685,1.361-1.57,1.861-2.618,0.926-1.938,0.587-6.022,0.587-6.022,0-2.011-2.43-4.378-4.34-4.378h-1.214c-1.253,0-2.889,1.016-3.874,2.282,2.33,0.791,4.67,3.135,4.75,5.621z"/>
<path d="M15,24.82l-2.916-6.596c-1.45,1.83-5.827,4.19-6.08,4.53v5.25h9.09c-0.05-0.29-0.09-0.58-0.09-0.89v-2.294z"/>
<path d="M27.11,17h-7.223c-1.6,0-2.89,1.29-2.89,2.89v7.221c0,1.596,1.294,2.89,2.889,2.89h7.223c1.6,0,2.89-1.29,2.89-2.89v-7.22c0-1.6-1.29-2.89-2.89-2.89zm-7.3,11.56c-0.752,0-1.361-0.608-1.361-1.359s0.609-1.36,1.361-1.36,1.363,0.609,1.363,1.36-0.61,1.36-1.36,1.36zm5.29,0h-1.93c0.002-0.08,0.012-0.159,0.012-0.241,0-2.48-2.021-4.5-4.506-4.5-0.078,0-0.154,0.008-0.23,0.012v-1.928c0.076-0.002,0.152-0.012,0.23-0.012,3.549,0,6.438,2.884,6.438,6.428,0,0.08-0.01,0.16-0.01,0.24zm3.44,0h-1.93c0.003-0.082,0.013-0.164,0.013-0.245,0-4.377-3.564-7.937-7.947-7.937-0.078,0-0.154,0.009-0.23,0.012v-1.929c0.078-0.001,0.152-0.011,0.23-0.011,5.448,0,9.879,4.424,9.879,9.864,0.01,0.08-0.01,0.16-0.01,0.25z"/>
</svg>
