<?xml version="1.0" encoding="utf-8"?>
<!-- Generator: Adobe Illustrator 14.0.0, SVG Export Plug-In  -->
<!DOCTYPE svg PUBLIC "-//W3C//DTD SVG 1.1//EN" "http://www.w3.org/Graphics/SVG/1.1/DTD/svg11.dtd" [
	<!ENTITY ns_flows "http://ns.adobe.com/Flows/1.0/">
]>
<svg version="1.1"
	 xmlns="http://www.w3.org/2000/svg" xmlns:xlink="http://www.w3.org/1999/xlink" xmlns:a="http://ns.adobe.com/AdobeSVGViewerExtensions/3.0/"
	 x="0px" y="0px" width="30px" height="30px" viewBox="0 0 30 30" enable-background="new 0 0 30 30" xml:space="preserve">
<defs>
</defs>
<g opacity="0.5">
	<rect fill="none" width="30" height="30"/>
</g>
<polygon points="5.999,1 5.999,4 26,4 26,24 29,24 29,1 "/>
<path d="M1,29h23V6H1V29z M4,9h17v17H4V9z"/>
<rect x="6" y="11" width="6" height="6"/>
<path d="M13,17h6v-6h-6V17z M15,13h2v2h-2V13z"/>
<path d="M6,24h6v-6H6V24z M8,20h2v2H8V20z"/>
<path d="M13,24h6v-6h-6V24z M15,20h2v2h-2V20z"/>
</svg>
