<?xml version="1.0" ?>
<!DOCTYPE svg  PUBLIC '-//W3C//DTD SVG 1.1//EN'  'http://www.w3.org/Graphics/SVG/1.1/DTD/svg11.dtd'>
<svg height="30" viewBox="0 0 30 30" width="30" xmlns="http://www.w3.org/2000/svg" xmlns:xlink="http://www.w3.org/1999/xlink">
<g>
<rect fill="none" height="30" width="30"/>
<polygon opacity="0.6" points="3,29 3,1 27,1 27,22.414 20.414,29 "/>
<linearGradient gradientUnits="userSpaceOnUse" id="SVGID_1_" x1="14.9995" x2="14.9995" y1="2" y2="28.0005">
	<stop offset="0" style="stop-color:#F9F9F9"/>
	<stop offset="1" style="stop-color:#B5B5B5"/>
</linearGradient>
<polygon fill="url(#SVGID_1_)" points="4,2 4,28 20,28 26,22 26,2 "/>
<polygon fill="#FFFFFF" points="26,22 20,22 20,28 "/>
<rect enable-background="new    " height="1.5" opacity="0.5" width="16" x="7" y="6.5"/>
<rect enable-background="new    " height="1.5" opacity="0.5" width="16" x="7" y="10.5"/>
<rect enable-background="new    " height="1.5" opacity="0.5" width="11" x="7" y="14.5"/>
</g>
<g>
<path d="M20.96,28.68c-1.825,0-3.309-1.187-3.309-2.646s1.483-2.647,3.309-2.647c0.224,0,0.445,0.018,0.661,0.053v-7.245l5.735,1.537v4.111l-3.089-0.828v5.02c0,1.47-1.49,2.66-3.31,2.66z" opacity="0.6" style="enable-background:new;"/>
<path d="M22.06,16.77v7.229c-0.34-0.109-0.712-0.17-1.103-0.17-1.584,0-2.868,0.987-2.868,2.206s1.284,2.206,2.868,2.206c1.583,0,2.867-0.988,2.867-2.206v-5.595l3.088,0.828v-3.198l-4.86-1.3z" fill="url(#SVGID_1__)"/>
<path d="M20.96,27.8c-1.487,0-2.709-0.871-2.854-1.985-0.009,0.072-0.014,0.146-0.014,0.221,0,1.219,1.283,2.206,2.867,2.206,1.583,0,2.867-0.988,2.867-2.206v-0.45c-0.02,1.22-1.3,2.21-2.88,2.21z" opacity="0.2" style="enable-background:new;"/>
<polygon opacity="0.2" points="23.82,20.44,26.91,21.26,26.91,20.82,23.82,20" style="enable-background:new;"/>
<path d="M20.96,24.27c0.391,0,0.763,0.062,1.103,0.171v-0.441c-0.339-0.109-0.712-0.17-1.103-0.17-1.584,0-2.867,0.987-2.867,2.206,0,0.074,0.005,0.147,0.014,0.22,0.15-1.12,1.37-1.99,2.86-1.99z" fill="#FFFFFF" opacity="0.4" style="enable-background:new;"/>
<polygon fill="#FFFFFF" opacity="0.4" points="22.06,16.77,22.06,17.21,26.91,18.51,26.91,18.07" style="enable-background:new;"/>
<rect fill="none" height="15" width="15" x="15" y="15"/>
<defs>

<linearGradient gradientTransform="matrix(0.8824 0 0 0.8824 -252.2905 -982.9092)" gradientUnits="userSpaceOnUse" id="SVGID_1__" x1="311.4" x2="311.4" y1="1131" y2="1148">

<stop offset="0" stop-color="#DE8029"/>

<stop offset="0.2606" stop-color="#DE4E29"/>

<stop offset="1" stop-color="#D82E09"/>

</linearGradient>

</defs>
<rect fill="none" height="30" width="30"/>
</g>
</svg>