<?xml version="1.0" encoding="UTF-8"?>
<!DOCTYPE svg PUBLIC "-//W3C//DTD SVG 1.1 Tiny//EN" "http://www.w3.org/Graphics/SVG/1.1/DTD/svg11-tiny.dtd">
<svg baseProfile="tiny" height="60" viewBox="0 0 60 60" width="60" xmlns="http://www.w3.org/2000/svg" xmlns:xlink="http://www.w3.org/1999/xlink">
<g>
<rect height="59.996" style="fill:none;" width="59.996"/>
<path d="M19.202,17.185v-5.032c3.047-0.702,5.935-1.053,8.674-1.053c4.04,0,7.138,0.782,9.295,2.35  c2.155,1.564,3.234,3.863,3.234,6.894c0,1.763-0.415,3.254-1.245,4.479c-0.831,1.223-6.561,6.977-7.125,7.765  c-0.565,0.787-0.847,1.72-0.847,2.799v1.079h-8.036v-1.438c0-1.747,0.382-3.222,1.143-4.429c0.762-1.207,2.093-2.7,3.992-4.48  c1.489-1.386,3.338-4.604,3.338-5.29c0-3.096-1.867-4.645-5.598-4.645C23.922,16.184,21.649,16.517,19.202,17.185z M27.131,50.2  c-1.352,0-2.516-0.479-3.491-1.438c-0.975-0.958-1.462-2.131-1.462-3.518c0-1.369,0.485-2.542,1.45-3.516  c0.967-0.978,2.134-1.465,3.503-1.465c1.37,0,2.542,0.487,3.518,1.465c0.976,0.974,1.463,2.146,1.463,3.516  c0,1.387-0.487,2.56-1.463,3.518C29.674,49.721,28.501,50.2,27.131,50.2z" style="fill:url(#SVGID_1_);"/>
<path d="M37.171,14.118c2.091,1.518,3.159,3.73,3.224,6.628c0.004-0.134,0.011-0.267,0.011-0.403  c0-3.031-1.079-5.329-3.234-6.894c-2.157-1.567-5.256-2.35-9.295-2.35c-2.739,0-5.627,0.351-8.674,1.053v0.667  c3.047-0.702,5.935-1.053,8.674-1.053C31.915,11.769,35.014,12.55,37.171,14.118z" style="fill:#FFFFFF;"/>
<path d="M31.605,20.979c-0.2,0.913-1.918,3.836-3.318,5.14c-1.899,1.78-3.23,3.274-3.992,4.479  c-0.761,1.208-1.143,2.683-1.143,4.43v0.667c0-1.746,0.382-3.222,1.143-4.429c0.762-1.206,2.093-2.7,3.992-4.479  c1.489-1.386,3.338-4.604,3.338-5.29C31.625,21.319,31.617,21.146,31.605,20.979z" style="fill:#FFFFFF;"/>
<path d="M27.131,40.264c-1.369,0-2.537,0.488-3.503,1.465c-0.965,0.975-1.45,2.146-1.45,3.517  c0,0.114,0.008,0.224,0.015,0.335c0.074-1.227,0.55-2.289,1.436-3.184c0.967-0.976,2.134-1.465,3.503-1.465  c1.37,0,2.542,0.489,3.518,1.465c0.896,0.895,1.374,1.957,1.448,3.186c0.006-0.112,0.014-0.223,0.014-0.337  c0-1.37-0.486-2.542-1.463-3.517C29.674,40.751,28.501,40.264,27.131,40.264z" style="fill:#FFFFFF;"/>
<path d="M40.405,20.343c0-3.031-1.079-5.329-3.234-6.894  c-2.157-1.567-5.256-2.35-9.295-2.35c-2.739,0-5.627,0.351-8.674,1.053v5.032c2.448-0.668,4.721-1.002,6.825-1.002  c3.731,0,5.598,1.549,5.598,4.645c0,0.552-1.207,2.757-2.455,4.316c3.574-0.051,7.045-0.384,10.371-0.973  C40.114,23.081,40.405,21.807,40.405,20.343z" style="opacity:0.2;fill:#FFFFFF;enable-background:new    ;"/>
<defs>
<linearGradient gradientTransform="matrix(0.6122 0 0 -0.6122 -280.8977 -334.1658)" gradientUnits="userSpaceOnUse" id="SVGID_1_" x1="507.5156" x2="507.5156" y1="-562.4116" y2="-630.0721">
<stop offset="0" style="stop-color:#FF7236"/>
<stop offset="0.7939" style="stop-color:#BA1212"/>
<stop offset="1" style="stop-color:#E8522A"/>
</linearGradient>
</defs>
</g>
</svg>
