<?xml version="1.0" encoding="UTF-8"?>
<!DOCTYPE svg PUBLIC "-//W3C//DTD SVG 1.1 Tiny//EN" "http://www.w3.org/Graphics/SVG/1.1/DTD/svg11-tiny.dtd">
<svg baseProfile="tiny" height="30" viewBox="0 0 30 30" width="30" xmlns="http://www.w3.org/2000/svg" xmlns:xlink="http://www.w3.org/1999/xlink">
<rect fill="none" height="30" width="30"/>
<path d="M25.797,13.179c-0.25-0.286-0.539-0.511-0.844-0.697C24.486,7.173,20.203,3,15,3s-9.486,4.173-9.953,9.481 c-0.305,0.187-0.593,0.411-0.843,0.697c-0.877,1.004-1.308,2.482-1.183,4.056C3.195,19.422,4.428,21.2,6,21.78V22 c0,2.206,1.795,4,4,4h2.535c0.808,0.464,1.617,0.708,2.41,0.708c1.979,0,3.598-0.875,4.953-2.675l0.066-0.094l0.047-0.106 c0.461-0.729,0.893-1.52,1.293-2.351c0.406,0.308,0.896,0.482,1.441,0.512l0.172,0.005c2.064,0,3.849-2.093,4.061-4.764 C27.104,15.661,26.674,14.183,25.797,13.179z" fill-opacity="0.6"/>
<radialGradient cx="11.55" cy="13.52" gradientUnits="userSpaceOnUse" id="SVGID_1" r="15.08">
<stop offset="0" stop-color="#FFE2D9"/>
<stop offset="0.51" stop-color="#FFC6B3"/>
<stop offset="0.76" stop-color="#FFA98E"/>
<stop offset="1" stop-color="#E88160"/>
</radialGradient>
<path d="M22.263,16.321c-0.038-0.018-0.079-0.021-0.118-0.033v-0.002c-0.006-0.001-0.013-0.003-0.021-0.004 c-0.057-0.015-0.115-0.028-0.175-0.032c-7.302-1.288-10.651-5.388-10.904-4.302c-0.2,0.863-2.247,2.731-3.319,3.664 c0.009,0.041,0.015,0.079,0.022,0.12c0,0,0.038,0.192,0.12,0.518c-0.086,0.009-0.17,0.026-0.25,0.063 c-0.682,0.29-0.896,1.426-0.478,2.531c0.419,1.108,1.31,1.771,1.991,1.48c0.043-0.019,0.078-0.05,0.116-0.074 c0.397,0.903,0.884,1.872,1.479,2.843c0.999,1.203,2.529,2.615,4.219,2.615c2.043,0,3.294-1.134,4.154-2.276 c0.021-0.048,0.044-0.094,0.066-0.133c0.639-1.009,1.154-2.021,1.573-2.965c0.667,0.235,1.524-0.393,1.948-1.459 C23.129,17.773,22.938,16.63,22.263,16.321z" fill="url(#SVGID_1)"/>
<path d="M18.954,23.612C18.73,22.143,17.275,21,15.5,21c-1.289,0-2.406,0.607-3.014,1.5h-2.093 c0.112,0.198,0.212,0.394,0.333,0.593c0.999,1.203,2.529,2.615,4.219,2.615C16.879,25.708,18.1,24.69,18.954,23.612z" fill-opacity="0.2"/>
<linearGradient gradientUnits="userSpaceOnUse" id="SVGID_2" x1="14.89" x2="14.89" y1="6.14" y2="15.56">
<stop offset="0" stop-color="#8A5D3B"/>
<stop offset="0.38" stop-color="#632F00"/>
<stop offset="1" stop-color="#361700"/>
</linearGradient>
<path d="M14.739,6c-2.53,0-3.749,1.168-4.688,2.387c-1.529,0.239-3.952,1.66-2.24,7.883 c1.071-0.933,3.033-3.458,3.233-4.321c0.255-1.097,3.662,3.091,11.101,4.338c0.088-0.348,0.128-0.554,0.128-0.554 C23.441,10.42,20.898,6.208,14.739,6z" fill="url(#SVGID_2)"/>
<linearGradient gradientUnits="userSpaceOnUse" id="SVGID_3" x1="15" x2="15" y1="14.07" y2="4.24">
<stop offset="0" stop-color="#838487"/>
<stop offset="0.47" stop-color="#BDBEC3"/>
<stop offset="1" stop-color="#E4E6EB"/>
</linearGradient>
<path d="M7.714,14c-0.013-0.185-0.026-0.367-0.026-0.556c0-4.288,3.28-7.777,7.313-7.777 s7.313,3.489,7.313,7.777c0,0.188-0.014,0.371-0.026,0.556h1.687C23.983,13.815,24,13.633,24,13.444C24,8.228,19.971,4,15,4 s-9,4.228-9,9.444C6,13.633,6.017,13.815,6.027,14H7.714z" fill="url(#SVGID_3)"/>
<linearGradient gradientUnits="userSpaceOnUse" id="SVGID_4" x1="10.5" x2="10.5" y1="24.91" y2="19.97">
<stop offset="0" stop-color="#969696"/>
<stop offset="1" stop-color="#464646"/>
</linearGradient>
<path d="M14,23.5h-4c-0.827,0-1.5-0.673-1.5-1.5v-2H7v2c0,1.65,1.35,3,3,3h4V23.5z" fill="url(#SVGID_4)"/>
<linearGradient gradientUnits="userSpaceOnUse" id="SVGID_5" x1="10.5" x2="10.5" y1="20.25" y2="23.94">
<stop offset="0" stop-color="#838487"/>
<stop offset="0.47" stop-color="#BDBEC3"/>
<stop offset="1" stop-color="#E4E6EB"/>
</linearGradient>
<path d="M8.5,22v-1v-1H7v1c0,1.65,1.35,3,3,3h4v-0.5h-4C9.173,23.5,8.5,22.827,8.5,22z" fill="url(#SVGID_5)"/>
<path d="M23.973,13.998C23.697,9.042,19.792,5.111,15,5.111s-8.697,3.931-8.973,8.887c0,0.001,0,0.001,0,0.002h1.687 c-0.013-0.185-0.026-0.367-0.026-0.556c0-4.288,3.28-7.777,7.313-7.777s7.313,3.489,7.313,7.777c0,0.188-0.014,0.371-0.026,0.556 h1.687C23.973,13.999,23.973,13.999,23.973,13.998z" fill-opacity="0.2"/>
<linearGradient gradientUnits="userSpaceOnUse" id="SVGID_6" x1="15.5" x2="15.5" y1="21.95" y2="25.46">
<stop offset="0" stop-color="#4EDEFF"/>
<stop offset="0.76" stop-color="#0487BF"/>
<stop offset="1" stop-color="#059FE0"/>
</linearGradient>
<ellipse cx="15.5" cy="23.999" fill="url(#SVGID_6)" rx="2.5" ry="2.001"/>
<path d="M15.5,23c1.164,0,2.133,0.639,2.412,1.499c0.052-0.16,0.088-0.326,0.088-0.5 C18,22.895,16.881,22,15.5,22S13,22.895,13,23.999c0,0.174,0.036,0.34,0.088,0.5C13.367,23.639,14.336,23,15.5,23z" fill="#FFFFFF" fill-opacity="0.3"/>
<linearGradient gradientUnits="userSpaceOnUse" id="SVGID_7" x1="6.5" x2="6.5" y1="13.17" y2="21.05">
<stop offset="0" stop-color="#7A7A7A"/>
<stop offset="1" stop-color="#212121"/>
</linearGradient>
<path d="M4.018,17.155c0.175,2.208,1.598,3.929,3.179,3.841c1.58-0.086,1.938-1.902,1.762-4.11 c-0.174-2.207-0.818-3.969-2.4-3.883C4.979,13.09,3.842,14.948,4.018,17.155z" fill="url(#SVGID_7)"/>
<linearGradient gradientUnits="userSpaceOnUse" id="SVGID_8" x1="5.88" x2="5.88" y1="13.21" y2="21.04">
<stop offset="0" stop-color="#4EDEFF"/>
<stop offset="0.76" stop-color="#0487BF"/>
<stop offset="1" stop-color="#059FE0"/>
</linearGradient>
<path d="M7.75,17.667c0-1.873-0.547-3.525-1.389-4.625c-1.474,0.228-2.512,2.001-2.343,4.113 C4.19,19.327,5.57,21.018,7.12,20.99C7.517,20.038,7.75,18.896,7.75,17.667z" fill="url(#SVGID_8)"/>
<path d="M4.054,17.393c0.201-1.595,1.103-2.821,2.307-3.007c0.76,0.993,1.256,2.447,1.35,4.097 c0.023-0.268,0.039-0.538,0.039-0.815c0-1.873-0.547-3.525-1.389-4.625c-1.474,0.228-2.512,2.001-2.343,4.113 C4.025,17.237,4.044,17.313,4.054,17.393z" fill="#FFFFFF" fill-opacity="0.3"/>
<path d="M25.982,17.155c-0.176,2.208-1.599,3.929-3.18,3.841c-1.58-0.086-1.938-1.902-1.762-4.11 c0.174-2.207,0.818-3.969,2.4-3.883C25.021,13.09,26.158,14.948,25.982,17.155z" fill="url(#SVGID_7)"/>
<path d="M22.25,17.667c0-1.873,0.547-3.525,1.389-4.625c1.474,0.228,2.512,2.001,2.344,4.113 c-0.173,2.172-1.553,3.862-3.103,3.835C22.483,20.038,22.25,18.896,22.25,17.667z" fill="url(#SVGID_8)"/>
<path d="M25.945,17.393c-0.201-1.595-1.102-2.821-2.307-3.007c-0.76,0.993-1.256,2.447-1.35,4.097 c-0.023-0.268-0.039-0.538-0.039-0.815c0-1.873,0.547-3.525,1.389-4.625c1.474,0.228,2.512,2.001,2.344,4.113 C25.975,17.237,25.956,17.313,25.945,17.393z" fill="#FFFFFF" fill-opacity="0.3"/>
</svg>
