<?xml version="1.0" encoding="UTF-8"?>
<!DOCTYPE svg PUBLIC "-//W3C//DTD SVG 1.1 Tiny//EN" "http://www.w3.org/Graphics/SVG/1.1/DTD/svg11-tiny.dtd">
<svg baseProfile="tiny" height="30" viewBox="0 0 30 30" width="30" xmlns="http://www.w3.org/2000/svg" xmlns:xlink="http://www.w3.org/1999/xlink">
<rect fill="none" height="30" width="30"/>
<path d="M12.393,8.243l4.364-4.364c1.17-1.17,3.073-1.17,4.242,0L23.121,6c1.169,1.17,1.169,3.073,0,4.243l-4.363,4.363l1.414,1.414 l4.363-4.363c1.953-1.953,1.953-5.118,0-7.071l-2.121-2.121c-1.953-1.953-5.119-1.953-7.071,0l-4.364,4.364L12.393,8.243z"/>
<path d="M17,12.5c0-1.93-1.57-3.5-3.5-3.5c-0.109,0-0.212,0.021-0.318,0.032l3.786,3.785C16.979,12.712,17,12.608,17,12.5z"/>
<path d="M20,26h-5v-4.808l1.023-1.022L6.83,10.977l-1.387,1.388c-0.791,0.791-1.245,1.782-1.396,2.81l-0.019,0.019l0.016,0.016 c-0.209,1.499,0.245,3.074,1.398,4.228l2.121,2.121c1.153,1.153,2.728,1.607,4.227,1.398l0.016,0.016l0.019-0.019 c0.059-0.009,0.117-0.007,0.175-0.017V26H7c-0.553,0-1,0.447-1,1v2h6h3h6v-2C21,26.447,20.553,26,20,26z"/>
<rect height="35.826" transform="matrix(0.7066 -0.7076 0.7076 0.7066 -6.1479 14.8607)" width="1.867" x="13.912" y="-3.069"/>
</svg>
