<?xml version="1.0" encoding="UTF-8"?>
<!DOCTYPE svg PUBLIC "-//W3C//DTD SVG 1.1 Tiny//EN" "http://www.w3.org/Graphics/SVG/1.1/DTD/svg11-tiny.dtd">
<svg baseProfile="tiny" height="15px" version="1.1" viewBox="2.5 2.5 15 15" width="15px" x="0px" xmlns="http://www.w3.org/2000/svg" xmlns:xlink="http://www.w3.org/1999/xlink" y="0px">
<g>
<path d="M11.5,16c3.309,0,6-2.692,6-6s-2.691-6.001-6-6.001h-9V16H11.5z" fill-opacity="0.1" fill-rule="evenodd" stroke-opacity="0.1"/>
<path d="M11.5,15.249c2.9,0,5.25-2.349,5.25-5.249   c0-2.899-2.35-5.25-5.25-5.25h-9v10.499H11.5z" fill="url(#SVGID_1_)" fill-rule="evenodd"/>
<path d="M11.5,5.499c2.48,0,4.502,2.02,4.502,4.501c0,2.48-2.021,4.501-4.502,4.501h-9v0.748h9   c2.9,0,5.25-2.349,5.25-5.249c0-2.899-2.35-5.25-5.25-5.25h-9v0.749H11.5z" fill-opacity="0.2" stroke-opacity="0.2"/>
<rect fill="none" fill-rule="evenodd" height="15" width="15" x="2.5" y="2.5"/>
<path d="M11.5,6.25c2.068,0,3.75,1.682,3.75,3.75   s-1.682,3.75-3.75,3.75h-9v0.751h9c2.48,0,4.502-2.021,4.502-4.501c0-2.481-2.021-4.501-4.502-4.501h-9V6.25H11.5z" fill="#FFFFFF" fill-opacity="0.4" fill-rule="evenodd" stroke-opacity="0.4"/>
<rect fill="#FFFFFF" fill-opacity="0.9" fill-rule="evenodd" height="4.501" stroke-opacity="0.9" width="0.748" x="8.502" y="7.749"/>
<rect fill-opacity="0.1" fill-rule="evenodd" height="4.501" stroke-opacity="0.1" width="0.752" x="7.75" y="7.749"/>
<defs>
<linearGradient gradientTransform="matrix(4.489659e-011 -1 1 4.489659e-011 -704.5505 -388.9524)" gradientUnits="userSpaceOnUse" id="SVGID_1_" x1="-398.9524" x2="-398.9524" y1="677.6689" y2="721.419">
<stop offset="0" style="stop-color:#E6E6F0"/>
<stop offset="0.3" style="stop-color:#FAFAFA"/>
<stop offset="0.7" style="stop-color:#FAFAFA"/>
<stop offset="1" style="stop-color:#E6E6F0"/>
</linearGradient>
</defs>
</g>
</svg>
