<?xml version="1.0" encoding="UTF-8" standalone="no"?>
<!DOCTYPE svg PUBLIC "-//W3C//DTD SVG 1.1 Tiny//EN" "http://www.w3.org/Graphics/SVG/1.1/DTD/svg11-tiny.dtd">
<svg xmlns="http://www.w3.org/2000/svg" xmlns:xlink="http://www.w3.org/1999/xlink" baseProfile="tiny" height="30" viewBox="0 0 30 30" width="30">
<g>
<rect fill="none" height="30" width="30"/>
<path d="M23.199,30c-0.816,0-2.131-0.104-3.754-0.592c-2.514-0.758-7.971-4.254-11.512-7.795  c-3.584-3.586-6.553-8.342-7.141-9.887c-0.941-2.486-0.881-5.271-0.639-6.21c0.039-0.13,0.242-0.725,0.691-1.528l0.166-0.289  c0.297-0.488,0.602-0.924,0.938-1.328C2.076,2.218,2.16,2.104,2.234,2.004c0.162-0.221,0.316-0.43,0.67-0.74  c0.793-0.697,1.152-0.939,1.215-0.98C4.406,0.098,4.738,0,5.08,0c0.625,0,1.213,0.316,1.574,0.846l5.164,7.584  c0.291,0.428,0.4,0.956,0.301,1.448c-0.094,0.466-0.363,0.862-0.758,1.116l-2.135,1.367c1.08,1.688,2.367,3.244,4.104,4.98  c1.111,1.111,2.662,2.242,3.879,3.031L17.998,21l0.217-0.811l0.518-0.871c0.307-0.523,0.873-0.842,1.514-0.842  c0.26,0,0.516,0.053,0.758,0.154l0.057,0.023l2.725,1.557l5.26,3.053c0.438,0.25,0.764,0.67,0.893,1.148  c0.121,0.453,0.061,0.922-0.17,1.32c-0.053,0.082-0.258,0.385-0.807,1.068l-0.012,0.061l-0.18,0.184  c-0.291,0.354-0.404,0.463-0.699,0.729l-0.18,0.164c-1.439,1.316-3.023,1.844-3.09,1.867C24.326,29.973,23.592,30,23.199,30  L23.199,30z" fill-opacity="0.6" stroke-opacity="0.6"/>
<linearGradient gradientUnits="userSpaceOnUse" id="SVGID_1_" x1="12.7437" x2="12.7437" y1="2.375" y2="29.2518">
<stop offset="0" style="stop-color:#A0F800"/>
<stop offset="1" style="stop-color:#319E00"/>
</linearGradient>
<path d="M7.865,12.045c1.365,2.35,3,4.244,4.758,6.004c1.693,1.693,4.389,3.463,5.594,4.088l6.273,6.717  c-0.553,0.197-2.414,0.303-4.756-0.402c-2.344-0.707-7.668-4.117-11.094-7.545c-3.424-3.426-6.354-8.064-6.912-9.533  C0.852,9.059,0.93,6.508,1.121,5.766c0,0,0.223-0.676,0.748-1.553C2.094,3.837,7.865,12.045,7.865,12.045z" fill="url(#SVGID_1_)"/>
<radialGradient cx="22.123" cy="17.5088" gradientUnits="userSpaceOnUse" id="SVGID_2_" r="12.7529">
<stop offset="0" style="stop-color:#A0F800"/>
<stop offset="1" style="stop-color:#319E00"/>
</radialGradient>
<path d="M28.543,24.129l-5.254-3.049l-2.672-1.527c-0.391-0.164-0.828-0.059-1.025,0.277l-0.77,1.293v0.002  l-0.605,1.012c-0.002-0.002-0.006-0.008-0.008-0.01c-0.396,3.107,1.551,6.043,4.549,6.701c0.396,0.086,0.791,0.129,1.18,0.131  c0.238-0.027,0.432-0.064,0.553-0.105c0,0,1.428-0.467,2.725-1.654c0.434-0.395,0.475-0.41,0.809-0.824  c0.002-0.002,0.002-0.004,0.004-0.008c0.658-0.813,0.875-1.137,0.875-1.137C29.117,24.859,28.957,24.365,28.543,24.129z" fill="url(#SVGID_2_)"/>
<path d="M18.822,21.123l0.77-1.293c0.197-0.336,0.635-0.441,1.025-0.277l2.672,1.527l5.254,3.049  c0.414,0.236,0.574,0.73,0.359,1.102c0,0-0.217,0.326-0.881,1.143L18.822,21.123z" fill="#FFFFFF" fill-opacity="0.4" stroke-opacity="0.4"/>
<radialGradient cx="4.623" cy="1.8936" gradientUnits="userSpaceOnUse" id="SVGID_3_" r="12.9256">
<stop offset="0" style="stop-color:#A0F800"/>
<stop offset="1" style="stop-color:#319E00"/>
</radialGradient>
<path d="M10.99,8.992L5.828,1.41c-0.271-0.4-0.791-0.529-1.162-0.289c0,0-0.322,0.209-1.1,0.893  c0,0.001-0.002,0-0.002,0.002C3.141,2.388,3.121,2.527,2.719,3.011C2.16,3.684,1.768,4.354,1.512,4.867  C0.9,8.109,2.879,11.258,6,11.943c0.637,0.141,1.271,0.162,1.887,0.088l1.754-1.123l1.18-0.755  C11.191,9.914,11.264,9.395,10.99,8.992z" fill="url(#SVGID_3_)"/>
<path d="M3.564,2.016C4.344,1.33,4.666,1.121,4.666,1.121C5.037,0.881,5.557,1.01,5.828,1.41  l5.162,7.582c0.273,0.402,0.201,0.922-0.17,1.161l-1.18,0.755L3.564,2.016z" fill="#FFFFFF" fill-opacity="0.4" stroke-opacity="0.4"/>
<rect fill="none" height="30" width="30"/>
</g>
<g>
<rect fill-opacity="0.6" height="34.27" stroke-opacity="0.6" style="enable-background:new;" transform="matrix(0.7073 -0.707 0.707 0.7073 -6.2126 14.9968)" width="3.169" x="13.42" y="-2.134"/>
<polygon fill="url(#SVGID_1__)" points="26,26.99,3.015,4.005,4.006,3.014,26.99,26"/>
<rect fill="none" height="30" width="30"/>
<defs>
<linearGradient gradientTransform="matrix(0.8824 0 0 -0.8824 -284.8232 -348.3516)" gradientUnits="userSpaceOnUse" id="SVGID_1__" x1="339.8" x2="339.8" y1="-397.3" y2="-425.3">
<stop offset="0" stop-color="#DE8029"/>
<stop offset="0.2606" stop-color="#DE4E29"/>
<stop offset="1" stop-color="#D82E09"/>
</linearGradient>
</defs>
</g>
</svg>
