<?xml version="1.0" encoding="UTF-8" standalone="no"?>
<!DOCTYPE svg PUBLIC "-//W3C//DTD SVG 1.1 Tiny//EN" "http://www.w3.org/Graphics/SVG/1.1/DTD/svg11-tiny.dtd">
<svg xmlns="http://www.w3.org/2000/svg" xmlns:xlink="http://www.w3.org/1999/xlink" baseProfile="tiny" height="60" viewBox="0 0 60 60" width="60">
<g>
<rect fill="none" height="60" width="60"/>
<path d="M58,53c0,2.762-2.238,5-5,5H7c-2.762,0-5-2.238-5-5V7c0-2.762,2.238-5,5-5h46c2.762,0,5,2.238,5,5V53z" fill="#E6E6E6"/>
<linearGradient gradientTransform="matrix(1 0 0 -1 102.52 39.9805)" gradientUnits="userSpaceOnUse" id="SVGID_1_" x1="-72.52" x2="-72.52" y1="32.0566" y2="-9.48">
<stop offset="0" style="stop-color:#949494"/>
<stop offset="1" style="stop-color:#393939"/>
</linearGradient>
<path d="M47.152,42.693c-1.711-0.891-10.189-3.861-10.353-4.045l0,0c-0.959-1.101-0.922-3.529-0.438-4.584  l0,0c0.035-0.074,0.068-0.146,0.104-0.203c0.119-0.184,0.226-0.365,0.339-0.549H36.8c0.837-1.365,1.539-2.726,2.111-4  c1.039,0.359,2.371-0.605,3.032-2.24c0.688-1.689,0.392-3.447-0.661-3.922c-0.062-0.027-0.123-0.029-0.183-0.049V23.1  c0.135-0.535,0.197-0.848,0.197-0.848c1.818-8.154-2.139-14.619-11.721-14.938c-3.938,0-5.834,1.789-7.295,3.662  c-2.377,0.367-6.146,2.545-3.488,12.09c-0.1,0.014-0.201,0.031-0.299,0.07c-1.061,0.449-1.395,2.188-0.742,3.889  c0.648,1.699,2.037,2.715,3.1,2.27c0.064-0.027,0.121-0.074,0.18-0.115c0.584,1.316,1.303,2.718,2.166,4.132h-0.004  c0.031,0.049,0.059,0.099,0.09,0.146c0.018,0.029,0.035,0.055,0.051,0.084c0.002,0.004,0.004,0.006,0.004,0.006  c0.064,0.104,0.125,0.209,0.193,0.313c0.545,0.855,0.68,3.316-0.172,4.58c-0.223,0.293-8.578,3.226-10.516,4.252  C10.625,43.871,7,46.58,7,52.686h46C53,46.58,48.863,43.582,47.152,42.693z M18.811,23.063c0.021-0.02,0.043-0.041,0.066-0.061  c0.002,0.016,0.004,0.025,0.01,0.041C18.859,23.047,18.836,23.057,18.811,23.063z" fill="url(#SVGID_1_)"/>
<linearGradient gradientTransform="matrix(1 0 0 -1 102.52 39.9805)" gradientUnits="userSpaceOnUse" id="SVGID_2_" x1="-72.52" x2="-72.52" y1="31.2559" y2="-12.5599">
<stop offset="0" style="stop-color:#7A7A7A"/>
<stop offset="0.7515" style="stop-color:#0A0A0A"/>
<stop offset="1" style="stop-color:#5F5F5F"/>
</linearGradient>
<path d="M7.645,52.686c0.172-4,2.02-6.963,5.496-8.807c1.014-0.539,4.008-1.676,6.412-2.592  c3.986-1.516,4.131-1.598,4.311-1.84c0.938-1.383,0.877-3.664,0.406-4.877l-0.535-0.957c-0.779-1.275-1.494-2.641-2.125-4.059  l-0.301-0.67l-0.617,0.396l-0.074,0.053c-0.098,0.047-0.191,0.066-0.291,0.066c-0.598,0-1.494-0.691-1.984-1.971  c-0.568-1.479-0.244-2.811,0.4-3.082c0.025-0.012,0.098-0.023,0.15-0.031l0.195-0.031l0.582-0.055l-0.418-1.711  c0,0-1.465-5.891,0.197-8.439c0.836-1.281,2.051-1.717,2.932-1.854l0.244-0.039l0.154-0.193c1.293-1.656,2.99-3.422,6.799-3.422  c4.238,0.143,7.525,1.553,9.484,4.082c1.938,2.504,2.514,6.084,1.621,10.088c-0.004,0.023-0.211,1.451-0.211,1.451l0.444,0.139  c0.039,0.014,0.08,0.021,0.121,0.029c0.627,0.281,0.924,1.629,0.321,3.104c-0.51,1.264-1.391,1.922-1.996,1.922  c-0.086,0-0.168-0.014-0.245-0.041l-0.543-0.188l-0.236,0.525c-0.612,1.359-1.312,2.684-2.075,3.929l-0.535,0.957  c-0.498,1.273-0.521,3.841,0.598,5.121c0,0,1.869,0.826,3.637,1.482c2.502,0.93,5.928,2.201,6.9,2.705  c0.889,0.463,5.199,3.002,5.492,8.807H7.645V52.686z" fill="url(#SVGID_2_)"/>
<rect fill="none" height="60" width="60"/>
</g>
<g transform="matrix(1 0 0 1 30 30)">
<polygon fill="none" points="0,7.489 0,24.514 0,30 30,30 30,24.514 30,5.713 30,0 0,0 "/>
<path d="M1.777,26.306C0.797,26.306,0,25.502,0,24.514V7.489c0-0.988,0.797-1.792,1.777-1.792h0.125V5.495  c0-1.01,0.771-1.801,1.754-1.801h3.548c0.657,0,1.22,0.354,1.521,0.892c0.326-0.405,0.824-0.665,1.381-0.665h18.116  c0.98,0,1.778,0.804,1.778,1.792v18.801c0,0.988-0.798,1.792-1.778,1.792H1.777z" fill-opacity="0.35" stroke-opacity="0.35"/>
<linearGradient gradientUnits="userSpaceOnUse" id="SVGID_1__" x1="2.8789" x2="7.9217" y1="6.0669" y2="6.0669">
<stop offset="0" style="stop-color:#F0F0F0"/>
<stop offset="0.4788" style="stop-color:#7C8284"/>
<stop offset="1" style="stop-color:#E6E6E6"/>
</linearGradient>
<path d="M7.957,7.439V5.495c0-0.458-0.339-0.801-0.753-0.801H3.656c-0.414,0-0.754,0.342-0.754,0.801v1.944  H7.957z" fill="url(#SVGID_1__)"/>
<radialGradient cx="5.4297" cy="19.583" gradientTransform="matrix(1 0 0 1.008 0 -14.4484)" gradientUnits="userSpaceOnUse" id="SVGID_2__" r="1.8354">
<stop offset="0" style="stop-color:#F2F2F2"/>
<stop offset="1" style="stop-color:#D9D9D9"/>
</radialGradient>
<path d="M7.204,4.694H3.656c-0.414,0-0.754,0.342-0.754,0.801v0.393c0-0.459,0.34-0.801,0.754-0.801h3.548  c0.414,0,0.753,0.342,0.753,0.801V5.495C7.957,5.037,7.618,4.694,7.204,4.694z" fill="url(#SVGID_2__)"/>
<linearGradient gradientUnits="userSpaceOnUse" id="SVGID_3_" x1="15" x2="15" y1="4.8916" y2="25.3392">
<stop offset="0" style="stop-color:#D0D4D5"/>
<stop offset="0.1212" style="stop-color:#D0D4D5"/>
<stop offset="0.4182" style="stop-color:#B0B6B8"/>
<stop offset="0.4182" style="stop-color:#9FA6A8"/>
<stop offset="0.6606" style="stop-color:#7D8588"/>
<stop offset="0.9697" style="stop-color:#ADB3B5"/>
<stop offset="0.9697" style="stop-color:#595C5E"/>
<stop offset="1" style="stop-color:#ADB3B5"/>
<stop offset="1" style="stop-color:#595C5E"/>
</linearGradient>
<path d="M28.222,4.921H10.105c-0.428,0-0.777,0.355-0.777,0.792v0.984H1.777C1.35,6.697,1,7.053,1,7.489  v17.024c0,0.436,0.35,0.792,0.777,0.792h26.444c0.427,0,0.778-0.356,0.778-0.792V5.713C29,5.276,28.648,4.921,28.222,4.921z" fill="url(#SVGID_3_)"/>
<linearGradient gradientUnits="userSpaceOnUse" id="SVGID_4_" x1="24.7998" x2="24.7998" y1="6.1997" y2="9.553">
<stop offset="0" style="stop-color:#808080"/>
<stop offset="1" style="stop-color:#E6E6E6"/>
</linearGradient>
<rect fill="url(#SVGID_4_)" height="3.366" width="5.244" x="22.179" y="6.185"/>
<linearGradient gradientUnits="userSpaceOnUse" id="SVGID_5_" x1="24.8008" x2="24.8008" y1="9.249" y2="6.4746">
<stop offset="0" style="stop-color:#000000"/>
<stop offset="1" style="stop-color:#3B3B3B"/>
</linearGradient>
<rect fill="url(#SVGID_5_)" height="2.801" width="4.583" x="22.509" y="6.468"/>
<path d="M23.174,15.992c-0.002,4.312-3.498,8.564-7.811,8.563c-4.311-0.002-7.806-4.257-7.806-8.568  c0.003-4.312,3.499-7.806,7.812-7.804S23.174,11.681,23.174,15.992z" fill="#231F20" fill-opacity="0.5" stroke-opacity="0.5"/>
<linearGradient gradientUnits="userSpaceOnUse" id="SVGID_6_" x1="15.3652" x2="15.3652" y1="7.8438" y2="23.4871">
<stop offset="0" style="stop-color:#CFCFCF"/>
<stop offset="0.1091" style="stop-color:#CFCFCF"/>
<stop offset="0.6848" style="stop-color:#121212"/>
<stop offset="1" style="stop-color:#A6A6A6"/>
</linearGradient>
<circle cx="15.366" cy="15.674" fill="url(#SVGID_6_)" r="7.778"/>
<linearGradient gradientUnits="userSpaceOnUse" id="SVGID_7_" x1="15.3652" x2="15.3652" y1="8.1816" y2="22.9943">
<stop offset="0" style="stop-color:#F2F2F2"/>
<stop offset="1" style="stop-color:#606769"/>
</linearGradient>
<circle cx="15.366" cy="15.675" fill="url(#SVGID_7_)" r="7.388"/>
<linearGradient gradientTransform="matrix(1 3.000000e-004 -3.000000e-004 1 -0.7997 -0.8701)" gradientUnits="userSpaceOnUse" id="SVGID_8_" x1="11.9092" x2="20.4338" y1="12.2778" y2="20.8025">
<stop offset="0" style="stop-color:#1A1A1A"/>
<stop offset="0.503" style="stop-color:#343434"/>
<stop offset="0.7515" style="stop-color:#9E9E9E"/>
<stop offset="1" style="stop-color:#CFCFCF"/>
</linearGradient>
<circle cx="15.366" cy="15.674" fill="url(#SVGID_8_)" r="6.028"/>
<radialGradient cx="13.751" cy="1.9536" gradientTransform="matrix(0.991 3.000000e-004 -3.000000e-004 0.991 2.3474 14.2158)" gradientUnits="userSpaceOnUse" id="SVGID_9_" r="6.5314">
<stop offset="0" style="stop-color:#000000"/>
<stop offset="0.5917" style="stop-color:#000000"/>
<stop offset="0.627" style="stop-color:#050505"/>
<stop offset="0.7652" style="stop-color:#121212"/>
<stop offset="0.8876" style="stop-color:#171717"/>
<stop offset="1" style="stop-color:#171717"/>
</radialGradient>
<circle cx="15.365" cy="15.674" fill="url(#SVGID_9_)" r="5.639"/>
<radialGradient cx="8.0361" cy="-26.853" gradientTransform="matrix(0.9785 3.000000e-004 -3.000000e-004 0.9786 6.3194 35.8131)" gradientUnits="userSpaceOnUse" id="SVGID_10_" r="11.413">
<stop offset="0" style="stop-color:#A700F5"/>
<stop offset="0.3091" style="stop-color:#A700F5"/>
<stop offset="0.4364" style="stop-color:#5E008A"/>
<stop offset="0.8061" style="stop-color:#0E1402"/>
<stop offset="1" style="stop-color:#0E1402"/>
</radialGradient>
<path d="M19.449,15.674c-0.001,2.256-1.83,4.084-4.086,4.084c-2.252-0.002-4.081-1.831-4.081-4.086  c0.002-2.256,1.831-4.082,4.083-4.082C17.623,11.592,19.449,13.42,19.449,15.674z" fill="url(#SVGID_10_)"/>
<linearGradient gradientUnits="userSpaceOnUse" id="SVGID_11_" x1="5.5742" x2="5.5742" y1="11.8188" y2="9.3852">
<stop offset="0" style="stop-color:#000000"/>
<stop offset="1" style="stop-color:#3B3B3B"/>
</linearGradient>
<circle cx="5.575" cy="10.556" fill="url(#SVGID_11_)" r="1.167"/>
<linearGradient gradientUnits="userSpaceOnUse" id="SVGID_12_" x1="15.3457" x2="15.3457" y1="10.6523" y2="15.6356">
<stop offset="0" style="stop-color:#F8FBFF"/>
<stop offset="1" style="stop-color:#808080"/>
</linearGradient>
<path d="M15.346,15.611c1.81,0,3.515-0.274,5.02-0.758c-0.428-2.386-2.51-4.201-5.02-4.201  s-4.592,1.814-5.02,4.201C11.83,15.337,13.536,15.611,15.346,15.611z" fill="url(#SVGID_12_)" fill-opacity="0.35" stroke-opacity="0.35"/>
<linearGradient gradientUnits="userSpaceOnUse" id="SVGID_13_" x1="15" x2="15" y1="4.8535" y2="25.2888">
<stop offset="0" style="stop-color:#F2F2F2"/>
<stop offset="0.3212" style="stop-color:#E6E6E6"/>
<stop offset="1" style="stop-color:#666666"/>
</linearGradient>
<path d="M28.222,4.921H10.105c-0.428,0-0.777,0.355-0.777,0.792v0.984H1.777C1.35,6.697,1,7.053,1,7.489  v17.024c0,0.436,0.35,0.792,0.777,0.792c0,0-0.389-0.214-0.389-0.792V7.489c0-0.222,0.175-0.401,0.389-0.401h7.551h0.389V6.697  V5.713c0-0.221,0.174-0.399,0.389-0.399h18.116c0.215,0,0.39,0.179,0.39,0.399v18.801c0,0.626-0.39,0.792-0.39,0.792  c0.427,0,0.778-0.356,0.778-0.792V5.713C29,5.276,28.648,4.921,28.222,4.921z" fill="url(#SVGID_13_)"/>
<rect fill="none" height="30" width="30"/>
</g>
</svg>
