<?xml version="1.0" encoding="UTF-8"?>
<!DOCTYPE svg PUBLIC "-//W3C//DTD SVG 1.1 Tiny//EN" "http://www.w3.org/Graphics/SVG/1.1/DTD/svg11-tiny.dtd">
<svg baseProfile="tiny" height="30" viewBox="0 0 30 30" width="30" xmlns="http://www.w3.org/2000/svg" xmlns:xlink="http://www.w3.org/1999/xlink">
<g>
<path d="M15.001,27.354c-6.813,0-12.354-5.542-12.354-12.354  c0-6.813,5.542-12.354,12.354-12.354c6.812,0,12.354,5.542,12.354,12.354C27.354,21.813,21.813,27.354,15.001,27.354L15.001,27.354z  " style="opacity:0.6;enable-background:new    ;"/>
<circle cx="15.001" cy="15.001" r="11.471" style="fill:url(#SVGID_1_);"/>
<path d="M23.604,17.037c0,1.379-0.277,2.572-0.83,3.581  c-0.673,1.242-1.646,1.866-2.92,1.866c-1.236,0-2.129-0.624-2.687-1.866c-0.673,0.728-1.539,1.091-2.601,1.091  c-1.248,0-2.247-0.478-3.001-1.43c-0.699-0.883-1.049-1.955-1.049-3.229c0-1.279,0.35-2.349,1.049-3.21  c0.745-0.928,1.746-1.389,3.001-1.389c0.934,0,1.67,0.253,2.208,0.761v-0.56h1.813v6.263c0,1.216,0.422,1.825,1.268,1.825  c0.689,0,1.222-0.478,1.594-1.43c0.274-0.709,0.412-1.464,0.412-2.273c0-1.871-0.676-3.468-2.02-4.798  c-1.344-1.332-2.958-1.994-4.839-1.994c-1.892,0-3.498,0.659-4.819,1.98c-1.322,1.322-1.986,2.923-1.986,4.813  c0,1.887,0.663,3.496,1.993,4.823c1.326,1.335,2.931,1.998,4.813,1.998v1.795c-2.372,0-4.4-0.844-6.08-2.528  c-1.682-1.689-2.523-3.721-2.523-6.088c0-2.358,0.843-4.38,2.529-6.065c1.686-1.682,3.708-2.525,6.074-2.525  c2.373,0,4.4,0.838,6.082,2.52C22.762,12.644,23.604,14.668,23.604,17.037z M16.664,16.968c0-1.83-0.699-2.748-2.098-2.748  c-0.701,0-1.244,0.313-1.623,0.937c-0.33,0.528-0.491,1.158-0.491,1.894c0,1.925,0.704,2.888,2.112,2.888  C15.965,19.938,16.664,18.947,16.664,16.968z" style="opacity:0.2;enable-background:new    ;"/>
<path d="M23.604,14.988c0,1.379-0.277,2.574-0.83,3.583c-0.673,1.24-1.646,1.865-2.92,1.865  c-1.236,0-2.129-0.625-2.687-1.865c-0.673,0.725-1.539,1.09-2.601,1.09c-1.248,0-2.247-0.479-3.001-1.43  c-0.699-0.885-1.049-1.957-1.049-3.229c0-1.281,0.35-2.35,1.049-3.21c0.745-0.928,1.746-1.389,3.001-1.389  c0.934,0,1.67,0.253,2.208,0.761v-0.56h1.813v6.264c0,1.214,0.422,1.822,1.268,1.822c0.689,0,1.222-0.476,1.594-1.428  c0.274-0.709,0.412-1.464,0.412-2.274c0-1.871-0.676-3.468-2.02-4.797c-1.344-1.332-2.958-1.994-4.839-1.994  c-1.892,0-3.498,0.659-4.819,1.979c-1.322,1.322-1.986,2.923-1.986,4.813c0,1.887,0.663,3.497,1.993,4.823  c1.326,1.336,2.931,1.998,4.813,1.998v1.795c-2.372,0-4.4-0.843-6.08-2.527c-1.682-1.691-2.523-3.721-2.523-6.088  c0-2.358,0.843-4.38,2.529-6.065c1.685-1.682,3.707-2.525,6.073-2.525c2.372,0,4.399,0.838,6.081,2.52  C22.762,10.595,23.604,12.619,23.604,14.988z M16.664,14.919c0-1.831-0.699-2.748-2.098-2.748c-0.701,0-1.244,0.313-1.623,0.937  c-0.33,0.528-0.491,1.157-0.491,1.894c0,1.925,0.704,2.886,2.112,2.886C15.965,17.887,16.664,16.898,16.664,14.919z" style="fill:#FFFFFF;"/>
<rect height="30.002" style="fill:none;" width="30.002"/>
<defs>
<linearGradient gradientTransform="matrix(0.8824 0 0 -0.8824 -284.8232 -348.3516)" gradientUnits="userSpaceOnUse" id="SVGID_1_" x1="339.7822" x2="339.7822" y1="-398.7178" y2="-425.0826">
<stop offset="0" style="stop-color:#4EDEFF"/>
<stop offset="1" style="stop-color:#048CC6"/>
</linearGradient>
</defs>
</g>
<g>
<g>
<rect height="15" style="fill:none;" width="15" x="15"/>
<rect height="4.412" style="opacity:0.6;enable-background:new    ;" transform="matrix(-0.2587 0.9659 -0.9659 -0.2587 29.2728 -12.3701)" width="7.941" x="15.412" y="2.841"/>
<linearGradient gradientTransform="matrix(1 0 0 -1 90.98 116.5195)" gradientUnits="userSpaceOnUse" id="SVGID_1__" x1="-70.1851" x2="-73.1451" y1="114.9482" y2="107.6632">
<stop offset="0" style="stop-color:#DE8029"/>
<stop offset="0.26" style="stop-color:#DE4E29"/>
<stop offset="1" style="stop-color:#D82E09"/>
</linearGradient>
<polygon points="20.174,8.913 16.765,8 18.592,1.181 22.001,2.094  " style="fill:url(#SVGID_1__);"/>
<rect height="4.411" style="opacity:0.6;enable-background:new    ;" transform="matrix(-0.7072 0.7071 -0.7071 -0.7072 48.0833 -1.2961)" width="9.707" x="19.457" y="7.104"/>
<linearGradient gradientTransform="matrix(1 0 0 -1 90.98 116.5195)" gradientUnits="userSpaceOnUse" id="SVGID_2_" x1="-63.0112" x2="-70.6762" y1="110.0527" y2="104.0977">
<stop offset="0" style="stop-color:#DE8029"/>
<stop offset="0.26" style="stop-color:#DE4E29"/>
<stop offset="1" style="stop-color:#D82E09"/>
</linearGradient>
<polygon points="22.438,13.677 19.941,11.182 26.182,4.942 28.677,7.438  " style="fill:url(#SVGID_2_);"/>
</g>
<rect height="30.002" style="fill:none;" width="30.002"/>
</g>
</svg>
