<?xml version="1.0" encoding="UTF-8"?>
<!DOCTYPE svg PUBLIC "-//W3C//DTD SVG 1.1 Tiny//EN" "http://www.w3.org/Graphics/SVG/1.1/DTD/svg11-tiny.dtd">
<svg baseProfile="tiny" height="30px" version="1.1" viewBox="0 0 30 30" width="30px" x="0px" xmlns="http://www.w3.org/2000/svg" xmlns:xlink="http://www.w3.org/1999/xlink" y="0px">
<g>
<rect fill="none" height="30" width="30"/>
</g>
<rect height="7.5" width="1.5" x="2.25" y="3.75"/>
<rect height="1.5" width="9" x="2.25" y="3.75"/>
<rect height="7.5" width="1.5" x="26.25" y="3.75"/>
<rect height="1.5" width="9" x="18.75" y="3.75"/>
<rect height="7.5" width="1.5" x="26.25" y="18.75"/>
<rect height="1.5" width="9" x="18.75" y="24.75"/>
<rect height="7.5" width="1.5" x="2.25" y="18.75"/>
<rect height="1.5" width="9" x="2.25" y="24.75"/>
<path d="M8.006,22.347L8,23.553h14l-0.006-1.206c0,0-4.371-2.604-4.809-4.052c-0.02-0.061-0.041-0.121-0.045-0.179v-0.738  c0.002-0.023,0.002-0.058,0.002-0.072c0.818-0.552,1.393-1.201,1.824-2.049c0.799-1.568,0.371-5.261,0.371-5.261  c0-1.635-2.172-3.55-3.827-3.55h-1.049c-1.654,0-3.831,1.915-3.831,3.55c0,0-0.38,3.675,0.368,5.256  c0.411,0.864,1.002,1.503,1.841,2.054c0.003,0.113,0.009,0.699,0.002,0.811c-0.005,0.077-0.032,0.157-0.061,0.239h0.018  C12.26,19.814,8.006,22.347,8.006,22.347z"/>
</svg>
