<?xml version="1.0" encoding="UTF-8"?>
<!DOCTYPE svg PUBLIC "-//W3C//DTD SVG 1.1 Tiny//EN" "http://www.w3.org/Graphics/SVG/1.1/DTD/svg11-tiny.dtd">
<svg baseProfile="tiny" height="30px" version="1.1" viewBox="0 0 30 30" width="30px" x="0px" xmlns="http://www.w3.org/2000/svg" xmlns:xlink="http://www.w3.org/1999/xlink" y="0px">
<g fill-opacity="0.5" stroke-opacity="0.5">
<rect fill="none" height="30" width="30"/>
</g>
<path d="M11,26c-1.104,0-2-0.896-2-2s0.896-2,2-2c0.718,0,1.343,0.381,1.695,0.949c0.083-0.055,0.167-0.109,0.262-0.171  c1.875-1.218,3.101-2.121,3.656-2.697c-0.025-0.025-0.044-0.056-0.069-0.081H4V2h14v4.68c0.638-0.346,1.318-0.577,2-0.65V3  c0-1.65-1.35-3-3-3H5C3.35,0,2,1.35,2,3v22c0,1.65,1.35,3,3,3h6V26z M7,25H4v-2h3V25z"/>
<path d="M18.828,19.312c0.002,0.117,0.009,0.728,0.001,0.844c-0.005,0.079-0.032,0.164-0.061,0.249h4.464  c-0.028-0.085-0.056-0.17-0.061-0.249c-0.008-0.123,0-0.719,0-0.844c0.828-0.575,1.407-1.251,1.844-2.134  c0.808-1.634,0.375-5.479,0.375-5.479C25.391,9.994,23.196,8,21.525,8h-1.06c-1.67,0-3.869,1.994-3.869,3.698  c0,0-0.383,3.827,0.372,5.474C17.384,18.072,17.981,18.737,18.828,19.312z"/>
<path d="M23.593,21.035L21,27.082l-2.592-6.047c-1.292,1.677-5.184,3.844-5.408,4.148V30h16v-4.813  C28.775,24.882,24.884,22.713,23.593,21.035z"/>
</svg>
