<?xml version="1.0" encoding="UTF-8"?>
<!DOCTYPE svg PUBLIC "-//W3C//DTD SVG 1.1 Tiny//EN" "http://www.w3.org/Graphics/SVG/1.1/DTD/svg11-tiny.dtd">
<svg baseProfile="tiny" height="30" viewBox="0 0 30 30" width="30" xmlns="http://www.w3.org/2000/svg" xmlns:xlink="http://www.w3.org/1999/xlink">
<g>
<rect fill="none" fill-opacity="0.5" height="30" stroke-opacity="0.5" width="30"/>
<path d="M15,30C6.729,30,0,23.271,0,15S6.729,0,15,0s15,6.729,15,15S23.271,30,15,30L15,30z" fill-opacity="0.6" stroke-opacity="0.6"/>
<path d="M15,29C7.279,29,1,22.72,1,15S7.279,1,15,1s14,6.28,14,14S22.721,29,15,29L15,29z" fill="url(#SVGID_1_)"/>
<path d="M15,1C7.279,1,1,7.28,1,15s6.279,14,14,14C7.831,29,2,23.168,2,16S7.831,3,15,3s13,5.832,13,13  s-5.831,13-13,13c7.721,0,14-6.28,14-14S22.721,1,15,1z" fill-opacity="0.1" stroke-opacity="0.1"/>
<path d="M15,2c7.551,0,13.709,6.013,13.975,13.5C28.98,15.333,29,15.169,29,15c0-7.72-6.279-14-14-14S1,7.28,1,15  c0,0.169,0.02,0.333,0.025,0.5C1.291,8.013,7.449,2,15,2z" fill-opacity="0.1" stroke-opacity="0.1"/>
<defs>
<linearGradient gradientUnits="userSpaceOnUse" id="SVGID_1_" x1="14.9995" x2="14.9995" y1="1.2188" y2="29.4379">
<stop offset="0" style="stop-color:#E0E1E2"/>
<stop offset="1" style="stop-color:#FFFFFF"/>
</linearGradient>
</defs>
</g>
</svg>
