<?xml version="1.0" encoding="UTF-8"?>
<!DOCTYPE svg PUBLIC "-//W3C//DTD SVG 1.1 Tiny//EN" "http://www.w3.org/Graphics/SVG/1.1/DTD/svg11-tiny.dtd">
<svg baseProfile="tiny" height="31px" version="1.1" viewBox="-0.334 -0.016 31 31" width="31px" x="0px" xmlns="http://www.w3.org/2000/svg" xmlns:xlink="http://www.w3.org/1999/xlink" y="0px">
<rect fill="none" height="30" width="30"/>
<polygon points="5.279,7.184 7.277,7.184 7.396,11.02 9.236,7.184 10.834,7.184 10.834,11.02 12.551,7.184 14.671,7.184   11.473,13.178 9.597,13.178 9.556,9.45 7.878,13.178 5.96,13.178 "/>
<path d="M17.796,6.356c0-0.636-0.696-1.149-1.557-1.149s-1.559,0.514-1.559,1.149c0,0.341,0.201,0.646,0.52,0.856v5.965h2.076V7.213  C17.596,7.002,17.796,6.697,17.796,6.356z"/>
<path d="M12.213,6.965c0,0,1.099-2.258,4.036-2.258c2.935,0,4.016,2.217,4.016,2.217s-0.539-2.877-4.076-2.877  C12.65,4.047,12.213,6.965,12.213,6.965z"/>
<path d="M11.015,6.325c0,0,1.278-3.077,5.234-3.077c3.954,0,4.973,3.036,4.973,3.036s-0.918-3.835-5.033-3.835  S11.015,6.325,11.015,6.325z"/>
<polygon points="9.648,23.26 9.652,23.26 8.139,20.825 5.279,20.825 9.48,27.552 11.524,26.271 10.818,25.132 "/>
<polygon points="10.491,20.822 12.008,23.26 16.132,23.26 14.617,20.822 "/>
<polygon points="16.97,20.822 18.487,23.26 22.63,23.26 21.116,20.822 "/>
<polygon points="23.469,20.822 24.721,22.842 24.721,20.822 "/>
<polygon points="20.301,15.807 21.814,18.24 24.721,18.24 20.52,11.514 18.452,12.805 20.324,15.807 "/>
<polygon points="19.462,18.24 17.949,15.807 13.861,15.809 15.374,18.24 "/>
<polygon points="13.022,18.24 11.513,15.809 7.378,15.809 8.892,18.242 "/>
<polygon points="5.279,16.21 5.279,18.242 6.539,18.242 "/>
<rect fill="none" height="30" width="30"/>
</svg>
