<?xml version="1.0" encoding="UTF-8" standalone="no"?>
<!DOCTYPE svg PUBLIC "-//W3C//DTD SVG 1.1 Tiny//EN" "http://www.w3.org/Graphics/SVG/1.1/DTD/svg11-tiny.dtd">
<svg xmlns="http://www.w3.org/2000/svg" xmlns:xlink="http://www.w3.org/1999/xlink" baseProfile="tiny" height="30px" version="1.1" viewBox="0 0 30 30" width="30px" x="0px" y="0px">
<g fill-opacity="0.5" stroke-opacity="0.5">
<rect fill="none" height="30" width="30"/>
</g>
<path d="M8.649,14.904c0.002,0.148,0.013,0.419,0.003,0.566c-0.006,0.102-0.042,0.209-0.08,0.317h5.857  c-0.037-0.108-0.073-0.216-0.079-0.317c-0.01-0.157,0-0.437,0.002-0.596c1.086-0.732,2.028-1.654,2.6-2.776  c1.061-2.08,0.672-7.392,0.672-7.392C17.625,2.538,14.382,0,12.19,0h-1.391C8.606,0,5.375,2.538,5.375,4.707  c0,0-0.333,5.294,0.659,7.392C6.577,13.243,7.536,14.175,8.649,14.904z"/>
<path d="M13,27.11v-6.216l-1.5,3.392l-3.401-7.694C6.402,18.725,1.294,21.482,1,21.87V28h12.09C13.036,27.711,13,27.415,13,27.11z"/>
<path d="M25.111,17h-7.223C16.294,17,15,18.294,15,19.89v7.221c0,1.596,1.294,2.89,2.889,2.89h7.223C26.706,30,28,28.706,28,27.11  V19.89C28,18.294,26.706,17,25.111,17z M17.807,28.555c-0.752,0-1.361-0.608-1.361-1.359s0.609-1.36,1.361-1.36  s1.363,0.609,1.363,1.36S18.559,28.555,17.807,28.555z M23.102,28.555H21.17c0.002-0.08,0.012-0.159,0.012-0.241  c0-2.48-2.021-4.5-4.506-4.5c-0.078,0-0.154,0.008-0.23,0.012v-1.928c0.076-0.002,0.152-0.012,0.23-0.012  c3.549,0,6.438,2.884,6.438,6.428C23.113,28.396,23.105,28.475,23.102,28.555z M26.543,28.555H24.61  c0.003-0.082,0.013-0.164,0.013-0.245c0-4.377-3.564-7.937-7.947-7.937c-0.078,0-0.154,0.009-0.23,0.012v-1.929  c0.078-0.001,0.152-0.011,0.23-0.011c5.448,0,9.879,4.424,9.879,9.864C26.555,28.391,26.544,28.473,26.543,28.555z"/>
</svg>
