<?xml version="1.0" encoding="UTF-8" standalone="no"?>
<!DOCTYPE svg PUBLIC "-//W3C//DTD SVG 1.1 Tiny//EN" "http://www.w3.org/Graphics/SVG/1.1/DTD/svg11-tiny.dtd">
<svg xmlns="http://www.w3.org/2000/svg" xmlns:xlink="http://www.w3.org/1999/xlink" baseProfile="tiny" height="15px" version="1.1" viewBox="0 0 30 15" width="30px" x="0px" y="0px">
<path d="M24.5,14c-0.825,0-1.5-0.675-1.5-1.5v-10C23,1.675,23.675,1,24.5,1l0,0C25.325,1,26,1.675,26,2.5v10  C26,13.325,25.325,14,24.5,14L24.5,14z" fill="#E34D15"/>
<path d="M19.5,13.5c-0.825,0-1.5-0.675-1.5-1.5V3c0-0.825,0.675-1.5,1.5-1.5l0,0C20.325,1.5,21,2.175,21,3v9  C21,12.825,20.325,13.5,19.5,13.5L19.5,13.5z" fill="#E34D15"/>
<path d="M14.5,13c-0.825,0-1.5-0.675-1.5-1.5v-8C13,2.675,13.675,2,14.5,2l0,0C15.325,2,16,2.675,16,3.5v8  C16,12.325,15.325,13,14.5,13L14.5,13z" fill="#E34D15"/>
<path d="M9.5,12.5C8.675,12.5,8,11.825,8,11V4c0-0.825,0.675-1.5,1.5-1.5l0,0C10.325,2.5,11,3.175,11,4v7  C11,11.825,10.325,12.5,9.5,12.5L9.5,12.5z" fill="#E34D15"/>
<path d="M4.5,12C3.675,12,3,11.325,3,10.5v-6C3,3.675,3.675,3,4.5,3l0,0C5.325,3,6,3.675,6,4.5v6  C6,11.325,5.325,12,4.5,12L4.5,12z" fill="#E34D15"/>
<rect fill="none" height="15" width="30"/>
</svg>
