<?xml version="1.0" ?>
<!DOCTYPE svg  PUBLIC '-//W3C//DTD SVG 1.1 Tiny//EN'  'http://www.w3.org/Graphics/SVG/1.1/DTD/svg11-tiny.dtd'>
<svg baseProfile="tiny" height="30px" version="1.1" viewBox="0 0 30 30" width="30px" x="0px" xmlns="http://www.w3.org/2000/svg" xmlns:xlink="http://www.w3.org/1999/xlink" y="0px">

<g fill-opacity="0.5" stroke-opacity="0.5">

<rect fill="none" height="30" width="30"/>

</g>

<path d="M14.48,10.68c-1.992,0-3.585,0.628-4.777,1.885-1.193,1.258-1.79,2.989-1.79,5.197,0,1.423,0.337,2.545,1.012,3.367,0.675,0.824,1.506,1.234,2.494,1.234,0.758,0,1.401-0.181,1.932-0.545s1.019-0.972,1.463-1.823c0.031,0.11,0.074,0.21,0.112,0.313l2.128-1.596c-0.011-0.198-0.018-0.414-0.018-0.651,0-1.515,0.288-3.975,0.864-7.381h-3.409zm-0.25,5.58c-0.197,1.538-0.448,2.618-0.753,3.238-0.304,0.62-0.704,0.93-1.197,0.93-0.552,0-0.931-0.223-1.136-0.669-0.206-0.447-0.309-1.154-0.309-2.121,0-1.539,0.301-2.759,0.901-3.66s1.328-1.353,2.185-1.353h0.766l-0.46,3.63z"/>

<path d="M16.19,24.64c-0.816,0.148-1.612,0.225-2.388,0.225-5.465,0-8.197-2.861-8.197-8.584,0-2.563,0.738-4.566,2.216-6.01,1.477-1.443,3.396-2.165,5.759-2.165,2.239,0,3.965,0.685,5.18,2.053,1.214,1.369,1.82,3.311,1.82,5.824,0,0.029-0.003,0.054-0.003,0.082l2.22-1.66c0.037-0.028,0.081-0.041,0.12-0.066-0.23-2.387-1.02-4.306-2.383-5.741-1.64-1.726-3.98-2.589-7.02-2.589-3.045,0-5.56,0.923-7.543,2.772-1.985,1.848-2.977,4.388-2.977,7.638,0,3.398,0.965,6.015,2.896,7.846,1.929,1.82,4.524,2.74,7.784,2.74,0.766,0,1.644-0.088,2.636-0.266,0.764-0.138,1.433-0.301,2.013-0.489l-2.14-1.6z"/>

<path d="M17.58,4.108c2.239,0,3.965,0.685,5.18,2.053,1.214,1.369,1.82,3.311,1.82,5.824,0,0.037-0.004,0.068-0.004,0.104,0.164,0.672,0.267,1.391,0.335,2.133,0.66,0.35,1.08,1.04,1.08,1.79v0.071c0.654-1.065,1-2.46,1-4.223,0-3.108-0.821-5.527-2.463-7.256-1.64-1.731-3.98-2.594-7.02-2.594-2.769,0-5.094,0.771-6.984,2.3,0.94-0.192,1.93-0.3,2.98-0.3,0.92,0,1.79,0.073,2.61,0.215,0.46-0.067,0.95-0.107,1.45-0.107z"/>

<polygon points="29,19,24,19,24,16,16,22,24,28,24,25,29,25"/>

</svg>