<?xml version="1.0" encoding="UTF-8"?>
<!DOCTYPE svg PUBLIC "-//W3C//DTD SVG 1.1 Tiny//EN" "http://www.w3.org/Graphics/SVG/1.1/DTD/svg11-tiny.dtd">
<svg baseProfile="tiny" height="30px" version="1.1" viewBox="0 0 30 30" width="30px" x="0px" xmlns="http://www.w3.org/2000/svg" xmlns:xlink="http://www.w3.org/1999/xlink" y="0px">
<rect fill="none" height="30" width="30"/>
<path d="M15,2C7.82,2,2,7.82,2,15c0,7.18,5.82,13,13,13c7.18,0,13-5.82,13-13C28,7.82,22.18,2,15,2z M21.5,15.5c0,1.654-1.346,3-3,3  c0,1.654-1.346,3-3,3H15V25C9.477,25,5,20.523,5,15C5,9.477,9.477,5,15,5v3.5h0.5c1.654,0,3,1.346,3,3c1.654,0,3,1.346,3,3V15.5z"/>
<path d="M11.5,16.5h2v2c0,0.553,0.447,1,1,1h1c0.553,0,1-0.447,1-1v-2h2c0.553,0,1-0.447,1-1v-1c0-0.552-0.447-1-1-1h-2v-2  c0-0.552-0.447-1-1-1h-1c-0.553,0-1,0.448-1,1v2h-2c-0.553,0-1,0.448-1,1v1C10.5,16.053,10.947,16.5,11.5,16.5z"/>
</svg>
