<?xml version="1.0" encoding="UTF-8"?>
<!DOCTYPE svg PUBLIC "-//W3C//DTD SVG 1.1 Tiny//EN" "http://www.w3.org/Graphics/SVG/1.1/DTD/svg11-tiny.dtd">
<svg baseProfile="tiny" height="30" viewBox="0 0 30 30" width="30" xmlns="http://www.w3.org/2000/svg" xmlns:xlink="http://www.w3.org/1999/xlink">
<g>
<g>
<path d="M5.793,6.17c0.129-0.424,0.521-0.825,0.969-0.825h9.85h9.584   c0.445,0,0.838,0.401,0.969,0.825c0.004,0.011,0.004,0.026,0.008,0.037c0.047-0.342,0.049-0.68-0.008-0.862   c-0.131-0.424-0.523-0.826-0.969-0.826h-9.586H6.76c-0.445,0-0.839,0.402-0.968,0.826C5.734,5.53,5.735,5.87,5.782,6.215   C5.787,6.201,5.788,6.182,5.793,6.17z" fill="#FFFFFF" fill-opacity="0.4"/>
<path d="M5.575,21.8c0.51-0.396,0.802-0.942,0.802-1.592c0-0.55-0.215-1.054-0.603-1.423   c-0.423-0.402-1.038-0.614-1.769-0.614c-0.888,0-1.658,0.326-2.048,0.606l-0.237,0.168l0.532,1.424l0.406-0.288   c0.25-0.179,0.708-0.388,1.168-0.388c0.382,0,0.838,0.117,0.838,0.666c0,0.651-0.847,0.795-1.172,0.795H2.588v1.468h0.906   c0.232,0,1.404,0.049,1.413,1.014c0.003,0.117-0.018,0.413-0.244,0.646c-0.207,0.205-0.524,0.313-0.946,0.313   c-0.569,0-1.112-0.234-1.341-0.375L1.977,23.98l-0.514,1.438l0.251,0.165c0.373,0.246,1.127,0.533,2.017,0.533   c2.001,0,2.913-1.278,2.913-2.466C6.646,22.857,6.234,22.184,5.575,21.8z" fill="#020202" fill-opacity="0.6"/>
<linearGradient gradientTransform="matrix(1 0 0 1 246.9297 -811.8066)" gradientUnits="userSpaceOnUse" id="SVGID_1_" x1="-242.833" x2="-242.833" y1="830.249" y2="837.442">
<stop offset="0" style="stop-color:#8D9F71"/>
<stop offset="1" style="stop-color:#557A68"/>
</linearGradient>
<path d="M3.729,25.689c-0.822,0-1.473-0.271-1.751-0.444l0.226-0.631c0.339,0.192,0.92,0.405,1.514,0.405   c0.536,0,0.956-0.146,1.247-0.438c0.351-0.359,0.375-0.791,0.369-0.961c-0.009-1.051-0.997-1.428-1.84-1.428H3.016v-0.612h0.479   c0.644,0,1.599-0.326,1.599-1.222c0-0.528-0.333-1.094-1.266-1.094c-0.535,0-1.048,0.219-1.369,0.435l-0.223-0.597   c0.375-0.256,1.054-0.506,1.771-0.506c0.622,0,1.133,0.172,1.475,0.495c0.303,0.288,0.47,0.685,0.47,1.113   c0,0.497-0.221,0.933-0.636,1.253L4.813,21.85l0.547,0.319c0.546,0.317,0.857,0.856,0.854,1.479   C6.215,24.665,5.446,25.689,3.729,25.689L3.729,25.689z" fill="url(#SVGID_1_)"/>
<path d="M10.504,20.48v1.51h1.453v1.482c-0.19,0.051-0.455,0.096-0.859,0.096   c-1.502,0-2.396-0.943-2.396-2.525c0-0.775,0.232-1.416,0.677-1.854c0.438-0.435,1.073-0.662,1.836-0.662   c0.582,0,1.035,0.088,1.433,0.273l0.396,0.188l0.462-1.493l-0.295-0.145c-0.352-0.168-1.079-0.369-1.974-0.369   c-2.563,0-4.282,1.649-4.282,4.102c0,1.191,0.41,2.271,1.121,2.958c0.746,0.712,1.712,1.06,2.959,1.06   c1.174,0,2.102-0.321,2.36-0.42l0.246-0.096V20.48H10.504L10.504,20.48z" fill="#020202" fill-opacity="0.6"/>
<linearGradient gradientTransform="matrix(1 0 0 1 246.9297 -811.8066)" gradientUnits="userSpaceOnUse" id="SVGID_2_" x1="-236.6343" x2="-236.6343" y1="829.0742" y2="836.7697">
<stop offset="0" style="stop-color:#8D9F71"/>
<stop offset="1" style="stop-color:#557A68"/>
</linearGradient>
<path d="M11.032,24.674c-1.13,0-2.001-0.308-2.664-0.939C7.74,23.13,7.38,22.163,7.38,21.086   c0-2.23,1.514-3.674,3.855-3.674c0.838,0,1.477,0.188,1.751,0.313l-0.208,0.67c-0.446-0.199-0.945-0.293-1.565-0.293   c-0.881,0-1.62,0.271-2.138,0.787c-0.525,0.514-0.803,1.26-0.803,2.155c0,1.821,1.082,2.952,2.824,2.952   c0.379,0,0.688-0.035,0.97-0.109l0.316-0.085v-2.237h-1.452v-0.655h2.28v3.386C12.936,24.395,12.083,24.674,11.032,24.674   L11.032,24.674z" fill="url(#SVGID_2_)"/>
<rect fill="none" height="30" width="30"/>
</g>
<g>
<path d="M5.127,5.399v-2.75h22.701v2.75L16.477,17.625L5.127,5.399z M16.477,12.857   l6.469-6.965H10.01L16.477,12.857z" fill-opacity="0.6" stroke-opacity="0.6"/>
<linearGradient gradientTransform="matrix(1 0 0 -1 123.4648 205.2559)" gradientUnits="userSpaceOnUse" id="SVGID_3_" x1="-106.9873" x2="-106.9873" y1="201.7959" y2="188.8232">
<stop offset="0" style="stop-color:#FFFFFF"/>
<stop offset="1" style="stop-color:#A5A5A5"/>
</linearGradient>
<path d="M5.938,3.46v1.621l10.539,11.352L27.018,5.081V3.46H5.938z M16.477,14.049L8.15,5.081h16.654   L16.477,14.049z" fill="url(#SVGID_3_)"/>
<rect fill-opacity="0.6" height="20.271" stroke-opacity="0.6" width="4.865" x="14.045" y="5.081"/>
<linearGradient gradientTransform="matrix(1 0 0 -1 123.4648 205.2559)" gradientUnits="userSpaceOnUse" id="SVGID_4_" x1="-105.3657" x2="-108.6099" y1="190.4463" y2="190.4463">
<stop offset="0" style="stop-color:#8D8E8E"/>
<stop offset="0.55" style="stop-color:#D9D9D9"/>
<stop offset="1" style="stop-color:#B0B2B1"/>
</linearGradient>
<rect fill="url(#SVGID_4_)" height="19.459" width="3.244" x="14.855" y="5.081"/>
</g>
</g>
</svg>
