<?xml version="1.0" encoding="UTF-8" standalone="no"?>
<!DOCTYPE svg PUBLIC "-//W3C//DTD SVG 1.1 Tiny//EN" "http://www.w3.org/Graphics/SVG/1.1/DTD/svg11-tiny.dtd">
<svg xmlns="http://www.w3.org/2000/svg" xmlns:xlink="http://www.w3.org/1999/xlink" baseProfile="tiny" height="40px" version="1.1" viewBox="0 0 60 40" width="60px" x="0px" y="0px">
<rect fill="none" height="40" width="60"/>
<linearGradient gradientUnits="userSpaceOnUse" id="SVGID_1_" x1="30.5" x2="30.5" y1="3.6216" y2="38.7848">
<stop offset="0" style="stop-color:#4D4D4D"/>
<stop offset="1" style="stop-color:#000000"/>
</linearGradient>
<path d="M1,1v29c0,4.963,4.037,9,9,9h50V1H1z" fill="url(#SVGID_1_)" fill-opacity="0.6" stroke-opacity="0.6"/>
<linearGradient gradientUnits="userSpaceOnUse" id="SVGID_2_" x1="30" x2="30" y1="0.1665" y2="40.0592">
<stop offset="0" style="stop-color:#00BAFF"/>
<stop offset="0.9835" style="stop-color:#0075BD"/>
<stop offset="1" style="stop-color:#0075BD"/>
</linearGradient>
<path d="M10,38c-4.411,0-8-3.59-8-8V2h58V0H0v30c0,5.5,4.5,10,10,10h50v-2H10z" fill="url(#SVGID_2_)"/>
<linearGradient gradientUnits="userSpaceOnUse" id="SVGID_3_" x1="31.5" x2="31.5" y1="4" y2="21.0194">
<stop offset="0" style="stop-color:#FFFFFF"/>
<stop offset="0.011" style="stop-color:#FFFFFF"/>
<stop offset="1" style="stop-color:#3C3C3C"/>
</linearGradient>
<polygon fill="url(#SVGID_3_)" fill-opacity="0.25" points="3,3 3,21 4,21 4,4 60,4 60,3 " stroke-opacity="0.25"/>
<rect fill-opacity="0.2" height="34" stroke-opacity="0.2" width="1" x="59" y="4"/>
</svg>
