<?xml version="1.0" encoding="UTF-8"?>
<!DOCTYPE svg PUBLIC "-//W3C//DTD SVG 1.1 Tiny//EN" "http://www.w3.org/Graphics/SVG/1.1/DTD/svg11-tiny.dtd">
<svg baseProfile="tiny" height="30px" version="1.1" viewBox="0 0 30 30" width="30px" x="0px" xmlns="http://www.w3.org/2000/svg" xmlns:xlink="http://www.w3.org/1999/xlink" y="0px">
<rect fill="none" height="30" width="30"/>
<circle cx="6.688" cy="14.67" r="1.5"/>
<path d="M17.44,19.6c-0.28,1.37-1.49,2.4-2.94,2.4-1.657,0-3-1.344-3-3,0-1.657,1.343-3,3-3,0.891,0,1.682,0.396,2.231,1.012l0.311-3.44c-0.77-0.36-1.63-0.57-2.54-0.57-3.314,0-6,2.686-6,6,0,3.313,2.686,6,6,6s6-2.687,6-6c0-0.805-0.161-1.57-0.447-2.271l-2.61,2.87z"/>
<polygon points="24,12.64,24,26,4,26,4,12,17.18,12,17.38,9.798,16.51,9,1,9,1,29,27,29,27,12.9"/>
<polygon points="24.54,7.014,29,11.08,22.99,10.53,18.92,15,19.46,8.988,15,4.922,21.01,5.465,25.08,1"/>
</svg>
