<?xml version="1.0" encoding="UTF-8"?>
<!DOCTYPE svg PUBLIC "-//W3C//DTD SVG 1.1 Tiny//EN" "http://www.w3.org/Graphics/SVG/1.1/DTD/svg11-tiny.dtd">
<svg baseProfile="tiny" height="30px" version="1.1" viewBox="0 0 30 30" width="30px" x="0px" xmlns="http://www.w3.org/2000/svg" xmlns:xlink="http://www.w3.org/1999/xlink" y="0px">
<rect fill="none" height="30" width="30"/>
<path d="M14.954,8.815c0.002,0,0.003,0,0.005,0c3.328,0,6.036,2.705,6.042,6.031h1.5c-0.006-4.152-3.387-7.531-7.542-7.531  c-0.002,0-0.003,0-0.005,0V8.815z"/>
<polygon points="21.782,14.739 24.104,14.739 22.943,16.752 21.781,18.762 20.62,16.752 19.459,14.739 "/>
<path d="M15,1C7.268,1,1,7.268,1,15c0,7.73,6.268,14,14,14c7.731,0,14-6.27,14-14C29,7.268,22.731,1,15,1z M15,26  C8.925,26,4,21.075,4,15C4,8.924,8.925,4,15,4s11,4.924,11,11C26,21.075,21.075,26,15,26z"/>
<rect height="9" width="2" x="14.044" y="6.009"/>
<rect height="9.001" transform="matrix(0.8281 0.5605 -0.5605 0.8281 9.3921 -7.8538)" width="2" x="16.503" y="6.888"/>
<circle cx="15.032" cy="15.014" r="1"/>
</svg>
