<?xml version="1.0" encoding="UTF-8"?>
<!DOCTYPE svg PUBLIC "-//W3C//DTD SVG 1.1 Tiny//EN" "http://www.w3.org/Graphics/SVG/1.1/DTD/svg11-tiny.dtd">
<svg baseProfile="tiny" height="30px" version="1.1" viewBox="0 0 30 30" width="30px" x="0px" xmlns="http://www.w3.org/2000/svg" xmlns:xlink="http://www.w3.org/1999/xlink" y="0px">
<rect fill="none" height="30" width="30"/>
<polygon points="26,6 26,1 20,1 20,6 17,6 23,14 29,6 "/>
<path d="M21,21H7V3h11.006V1H8C6.35,1,5,2.35,5,4v22c0,1.65,1.35,3,3,3h12c1.65,0,3-1.35,3-3v-8.865l-2-2.667V21z M10,26H7v-2h3V26z   M14,27c-1.104,0-2-0.896-2-2s0.896-2,2-2c1.105,0,2,0.896,2,2S15.105,27,14,27z M21,26h-3v-2h3V26z"/>
</svg>
