<?xml version="1.0" encoding="UTF-8"?>
<!DOCTYPE svg PUBLIC "-//W3C//DTD SVG 1.1 Tiny//EN" "http://www.w3.org/Graphics/SVG/1.1/DTD/svg11-tiny.dtd">
<svg baseProfile="tiny" height="30px" style="enable-background:new 0 0 30 30;" version="1.1" viewBox="0 0 30 30" width="30px" x="0px" xmlns="http://www.w3.org/2000/svg" xmlns:xlink="http://www.w3.org/1999/xlink" y="0px">
<polygon points="9.66,24.72,9.665,24.72,8.199,22.36,5.432,22.36,9.497,28.87,11.48,27.63,10.79,26.52"/>
<polygon points="10.48,22.36,11.94,24.72,15.93,24.72,14.47,22.36"/>
<polygon points="16.74,22.36,18.21,24.72,22.22,24.72,20.76,22.36"/>
<polygon points="23.03,22.36,24.25,24.31,24.25,22.36"/>
<polygon points="19.97,17.5,21.43,19.86,24.25,19.86,20.18,13.35,18.18,14.6,19.99,17.5"/>
<polygon points="19.16,19.86,17.69,17.5,13.74,17.5,15.2,19.86"/>
<polygon points="12.93,19.86,11.46,17.5,7.463,17.5,8.929,19.86"/>
<polygon points="5.432,17.89,5.432,19.86,6.652,19.86"/>
<path d="M11.89,6.522c0.646-0.499,1.015-1.193,1.015-2.013,0-0.698-0.272-1.336-0.764-1.802-0.542-0.512-1.313-0.779-2.238-0.779-1.125,0-2.102,0.415-2.598,0.767l-0.301,0.215,0.674,1.803,0.509-0.364c0.322-0.227,0.9-0.491,1.482-0.491,0.485,0,1.06,0.146,1.06,0.844,0,0.824-1.07,1.006-1.482,1.006h-1.146v1.857h1.148c0.295,0,1.779,0.062,1.792,1.284,0.002,0.148-0.024,0.521-0.313,0.814-0.262,0.26-0.664,0.397-1.195,0.397-0.72,0-1.409-0.298-1.699-0.472l-0.507-0.306-0.652,1.822,0.319,0.208c0.47,0.312,1.427,0.676,2.55,0.676,2.534,0,3.69-1.62,3.69-3.123,0-1.005-0.52-1.859-1.35-2.345z"/>
<path d="M19.04,6.136v1.915h1.838v1.876c-0.242,0.064-0.57,0.12-1.084,0.12-1.901,0-3.036-1.196-3.036-3.197,0-0.982,0.297-1.794,0.859-2.348,0.554-0.547,1.358-0.836,2.323-0.836,0.735,0,1.311,0.11,1.813,0.345l0.501,0.238,0.585-1.887-0.378-0.181c-0.441-0.218-1.366-0.467-2.494-0.467-3.244,0-5.422,2.087-5.422,5.19,0,1.509,0.519,2.874,1.42,3.744,0.945,0.9,2.167,1.341,3.743,1.341,1.488,0,2.664-0.407,2.987-0.532l0.3-0.12v-5.2h-3.965z"/>
<rect fill="none" height="29.03" width="29.03" x="0.323" y="0.775"/>
<rect fill="none" height="29.03" width="29.03" x="0.323" y="0.775"/>
</svg>
