<?xml version="1.0" encoding="UTF-8"?>
<!DOCTYPE svg PUBLIC "-//W3C//DTD SVG 1.1 Tiny//EN" "http://www.w3.org/Graphics/SVG/1.1/DTD/svg11-tiny.dtd">
<svg baseProfile="tiny" height="60" viewBox="0 0 60 60" width="60" xmlns="http://www.w3.org/2000/svg" xmlns:xlink="http://www.w3.org/1999/xlink">
<g>
<linearGradient gradientUnits="userSpaceOnUse" id="SVGID_1_" x1="35.7021" x2="40.6006" y1="20.668" y2="14.6214">
<stop offset="0" style="stop-color:#9E9E9E"/>
<stop offset="0.3576" style="stop-color:#666666"/>
<stop offset="0.697" style="stop-color:#9E9E9E"/>
<stop offset="1" style="stop-color:#9E9E9E"/>
</linearGradient>
<polygon fill="url(#SVGID_1_)" points="41.555,25.63 29.846,15.093 34.875,9.501 46.584,20.04 "/>
<linearGradient gradientUnits="userSpaceOnUse" id="SVGID_2_" x1="38.2773" x2="30.2417" y1="9.4087" y2="18.6688">
<stop offset="0" style="stop-color:#FFFFFF"/>
<stop offset="0.697" style="stop-color:#999B9D"/>
<stop offset="1" style="stop-color:#A1A3A5"/>
</linearGradient>
<path d="M35.41,19.697c-0.878,0.979-2.386,1.055-3.364,0.178l-3.362-3.03c-0.98-0.879-1.059-2.386-0.18-3.363  l4.928-5.477c0.882-0.976,2.387-1.059,3.365-0.176l3.363,3.029c0.978,0.878,1.059,2.382,0.177,3.365L35.41,19.697z" fill="url(#SVGID_2_)"/>
<linearGradient gradientUnits="userSpaceOnUse" id="SVGID_3_" x1="37.6455" x2="30.9261" y1="10.1367" y2="17.88">
<stop offset="0" style="stop-color:#E6E7E7"/>
<stop offset="0.1455" style="stop-color:#E6E7E7"/>
<stop offset="0.6061" style="stop-color:#A6A8A9"/>
<stop offset="1" style="stop-color:#D4D5D6"/>
</linearGradient>
<path d="M33.641,19.484c-0.343,0-0.672-0.125-0.928-0.354l-3.36-3.027c-0.275-0.248-0.438-0.586-0.457-0.954  c-0.021-0.369,0.104-0.723,0.352-0.998l4.928-5.477c0.263-0.29,0.638-0.457,1.03-0.457c0.341,0,0.668,0.126,0.922,0.355l3.364,3.029  c0.566,0.509,0.611,1.385,0.102,1.954l-4.926,5.472C34.402,19.322,34.038,19.484,33.641,19.484L33.641,19.484z" fill="url(#SVGID_3_)"/>
<linearGradient gradientTransform="matrix(0.7433 0.669 -0.669 0.7433 4218.2832 -295.1886)" gradientUnits="userSpaceOnUse" id="SVGID_4_" x1="-2895.0591" x2="-2888.9287" y1="3048.2993" y2="3048.2993">
<stop offset="0" style="stop-color:#E5E5E5"/>
<stop offset="0.6" style="stop-color:#B2B2B2"/>
<stop offset="1" style="stop-color:#F1F1F1"/>
</linearGradient>
<polygon fill="url(#SVGID_4_)" points="41.062,27.351 36.546,23.293 17.641,44.384 22.155,48.446 "/>
<polygon fill="#1A1A1A" fill-opacity="0.5" points="41.087,27.349 36.57,23.291 35.036,24.982 39.551,29.041 " stroke-opacity="0.5"/>
<linearGradient gradientUnits="userSpaceOnUse" id="SVGID_5_" x1="22.9233" x2="30.0399" y1="36.0415" y2="42.7754">
<stop offset="0" style="stop-color:#4D4D4D"/>
<stop offset="0.3818" style="stop-color:#CCCCCC"/>
<stop offset="1" style="stop-color:#4D4D4D"/>
</linearGradient>
<path d="M38.501,33.13c0.387-0.432,0.351-1.096-0.081-1.483l-5.684-5.115  c-0.431-0.389-1.096-0.351-1.482,0.079L14.263,45.494c-0.39,0.429-0.352,1.096,0.075,1.483l5.688,5.114  c0.429,0.385,1.093,0.355,1.481-0.078L38.501,33.13z" fill="url(#SVGID_5_)"/>
<linearGradient gradientUnits="userSpaceOnUse" id="SVGID_6_" x1="23.5879" x2="29.3344" y1="36.6714" y2="42.109">
<stop offset="0" style="stop-color:#4D4D4D"/>
<stop offset="0.3818" style="stop-color:#7A7A7A"/>
<stop offset="0.7091" style="stop-color:#1A1A1A"/>
<stop offset="1" style="stop-color:#4D4D4D"/>
</linearGradient>
<path d="M20.728,51.361c-0.02,0-0.03-0.01-0.034-0.014l-5.687-5.113l16.99-18.955l5.754,5.111L20.764,51.343  L20.728,51.361z" fill="url(#SVGID_6_)"/>
<linearGradient gradientUnits="userSpaceOnUse" id="SVGID_7_" x1="51.4463" x2="43.4107" y1="20.8364" y2="30.0965">
<stop offset="0" style="stop-color:#FFFFFF"/>
<stop offset="0.697" style="stop-color:#999B9D"/>
<stop offset="1" style="stop-color:#A1A3A5"/>
</linearGradient>
<path d="M51.39,37.954c-0.332-4.472-3.603-8.419-5.072-9.741c-0.803-0.721-1.401-1.07-1.427-1.086  l-0.204-0.119l-3.36,1.368l-6.3-5.671c0,0,6.102-6.842,6.974-7.749c0.874-0.906,1.709-0.532,2.193-0.098  c2.011,1.802,5.313,4.758,5.432,4.868C57.657,27.207,51.39,37.954,51.39,37.954z" fill="url(#SVGID_7_)"/>
<linearGradient gradientUnits="userSpaceOnUse" id="SVGID_8_" x1="50.4434" x2="44.0808" y1="21.3555" y2="28.6875">
<stop offset="0" style="stop-color:#E6E7E7"/>
<stop offset="0.1455" style="stop-color:#E6E7E7"/>
<stop offset="0.6061" style="stop-color:#A6A8A9"/>
<stop offset="1" style="stop-color:#D4D5D6"/>
</linearGradient>
<path d="M51.729,34.746c-1.14-3.348-3.422-6.088-4.742-7.276c-0.783-0.703-1.403-1.095-1.575-1.197  l-0.646-0.376l-3.235,1.316l-5.094-4.586c1.603-1.794,5.605-6.271,6.285-6.977c0.09-0.093,0.263-0.25,0.408-0.25  c0.106,0,0.255,0.076,0.397,0.204c0,0,5.309,4.756,5.417,4.855C54.01,25.176,52.95,31.281,51.729,34.746L51.729,34.746z" fill="url(#SVGID_8_)"/>
<path d="M31.737,28.671l-0.421-0.353l-0.192,0.185l-0.813-0.846l-6.373,7.084l0.318,0.33l-0.129,0.124  l0.329,0.435c1.769,2.336,3.649,4.821,5.39,7.117l8.022-8.914C35.865,32.146,33.744,30.361,31.737,28.671z" fill="#231F20" fill-opacity="0.3" stroke-opacity="0.3"/>
<linearGradient gradientUnits="userSpaceOnUse" id="SVGID_9_" x1="24.561" x2="12.9283" y1="17.8447" y2="30.2936">
<stop offset="0" style="stop-color:#FAFAFA"/>
<stop offset="0.7515" style="stop-color:#A6A8A9"/>
<stop offset="1" style="stop-color:#BBBDBE"/>
</linearGradient>
<path d="M6.284,20.353c0,0-0.317,6.246,4.916,9.559c0,0,2.531,1.449,6.532,0.626c0,0,2.521-0.481,4.076,1.109  l4.737,4.921l5.923-5.784l-4.737-4.923c0,0-2.081-2.13-2.554-4.27c0,0-0.811-6.412-2.248-8.127c0,0-3.417-5.897-12.539-1.856  l6.474,4.17l1.243,2.18l-2.641,5.912l-2.028,0.469L6.284,20.353z" fill="url(#SVGID_9_)"/>
<linearGradient gradientUnits="userSpaceOnUse" id="SVGID_10_" x1="24.293" x2="13.795" y1="18.6533" y2="29.8878">
<stop offset="0" style="stop-color:#E6E7E7"/>
<stop offset="0.6061" style="stop-color:#999999"/>
<stop offset="1" style="stop-color:#D4D5D6"/>
</linearGradient>
<path d="M22.529,30.954c-1.2-1.228-2.788-1.484-3.909-1.484c-0.606,0-1.029,0.077-1.075,0.086  c-0.764,0.157-1.513,0.235-2.24,0.235c-2.237,0-3.6-0.742-3.613-0.75c-3.036-1.922-3.987-5-4.282-6.916l5.879,3.275l2.889-0.668  l3.051-6.829l-1.616-2.833l-5.024-3.236c1.318-0.426,2.561-0.641,3.711-0.641c4.061,0,5.702,2.666,5.771,2.779l0.04,0.068  l0.055,0.067c0.908,1.084,1.723,5.244,2.022,7.611c0.544,2.481,2.737,4.747,2.831,4.843l4.043,4.201l-4.492,4.388L22.529,30.954z" fill="url(#SVGID_10_)"/>
<linearGradient gradientUnits="userSpaceOnUse" id="SVGID_11_" x1="41.1973" x2="32.322" y1="36.8784" y2="45.8162">
<stop offset="0" style="stop-color:#FF4C00"/>
<stop offset="0.7939" style="stop-color:#821212"/>
<stop offset="1" style="stop-color:#E8522A"/>
</linearGradient>
<path d="M37.255,50.886c2.249,2.352,5.735,2.033,8.38-0.498c2.643-2.525,2.98-5.986,0.728-8.342  c-0.14-0.146-15.02-12.906-15.02-12.906l-6.398,6.121C24.944,35.261,37.105,50.731,37.255,50.886z M39.589,48.169  c-0.828-0.863-0.561-2.845,0.307-3.674c0.865-0.827,2.691-0.674,3.521,0.191c0.826,0.866,0.634,2.654-0.229,3.482  C42.319,49,40.418,49.037,39.589,48.169z" fill="url(#SVGID_11_)"/>
<linearGradient gradientUnits="userSpaceOnUse" id="SVGID_12_" x1="40.5557" x2="32.9953" y1="37.5757" y2="45.1361">
<stop offset="0" style="stop-color:#FF7236"/>
<stop offset="0.7939" style="stop-color:#BA1212"/>
<stop offset="1" style="stop-color:#E8522A"/>
</linearGradient>
<path d="M40.927,51.481c-1.125,0-2.145-0.444-2.949-1.286c-0.282-0.338-8.061-10.228-11.687-14.839  l5.089-4.866c4.435,3.803,13.942,11.961,14.297,12.285c0.859,0.9,1.273,2.05,1.162,3.289c-0.114,1.264-0.787,2.543-1.895,3.602  C43.72,50.836,42.294,51.481,40.927,51.481L40.927,51.481z M41.468,42.951c-0.904,0-1.708,0.292-2.264,0.822  c-0.663,0.635-1.091,1.708-1.114,2.802c-0.021,0.931,0.256,1.743,0.777,2.287c0.573,0.6,1.479,0.944,2.483,0.944  c0.999,0,1.92-0.334,2.527-0.914c1.3-1.248,1.429-3.672,0.262-4.895C43.512,43.341,42.513,42.951,41.468,42.951L41.468,42.951z" fill="url(#SVGID_12_)"/>
<linearGradient gradientUnits="userSpaceOnUse" id="SVGID_13_" x1="38.9873" x2="44.0268" y1="48.606" y2="44.2384">
<stop offset="0" style="stop-color:#FFFFFF"/>
<stop offset="0.5455" style="stop-color:#999B9D"/>
<stop offset="1" style="stop-color:#999B9D"/>
</linearGradient>
<path d="M44.95,46.428c0.021-0.899-0.312-1.753-0.932-2.403c-1.285-1.34-3.422-1.389-4.762-0.106  c-0.651,0.624-1.022,1.462-1.041,2.362c-0.021,0.9,0.312,1.752,0.935,2.402c1.282,1.344,3.419,1.393,4.765,0.105  C44.563,48.165,44.932,47.328,44.95,46.428 M43.75,46.402c-0.011,0.557-0.234,1.105-0.668,1.52  c-0.866,0.829-2.235,0.799-3.063-0.068c-0.413-0.432-0.613-0.99-0.602-1.547c0.012-0.553,0.237-1.102,0.669-1.516  c0.865-0.828,2.235-0.801,3.064,0.066C43.563,45.291,43.761,45.849,43.75,46.402L43.75,46.402z" fill="url(#SVGID_13_)"/>
<rect fill="none" height="60" width="60"/>
</g>
</svg>
