<?xml version="1.0" encoding="UTF-8"?>
<!DOCTYPE svg PUBLIC "-//W3C//DTD SVG 1.1 Tiny//EN" "http://www.w3.org/Graphics/SVG/1.1/DTD/svg11-tiny.dtd">
<svg baseProfile="tiny" height="30" viewBox="0 0 30 30" width="30" xmlns="http://www.w3.org/2000/svg" xmlns:xlink="http://www.w3.org/1999/xlink">
<g>
<rect fill="none" height="30" width="30"/>
<path d="M15,29C7.279,29,1,22.719,1,15C1,7.279,7.279,1,15,1c7.719,0,14,6.279,14,14C29,22.719,22.719,29,15,29  L15,29z" fill-opacity="0.6"/>
<circle cx="15" cy="15" fill="url(#SVGID_1_)" r="13"/>
<path d="M15,3c7.011,0,12.71,5.555,12.975,12.5C27.981,15.332,28,15.168,28,15c0-7.18-5.82-13-13-13  S2,7.82,2,15c0,0.168,0.019,0.332,0.025,0.5C2.29,8.555,7.989,3,15,3z" fill="#FFFFFF" fill-opacity="0.4" stroke-opacity="0.4"/>
<polygon fill-opacity="0.2" points="25.839,14.5 7.454,14.5 7.454,11.5 20.253,11.5 18.975,9.57 21.476,7.914 25.839,14.5 " stroke-opacity="0.2"/>
<polygon fill-opacity="0.2" points="6.454,16.5 24.839,16.5 24.839,19.5 12.04,19.5 13.318,21.428 10.817,23.086 6.454,16.5 " stroke-opacity="0.2"/>
<polygon fill="#FFFFFF" points="24.839,13.5 6.454,13.5 6.454,10.5 19.253,10.5 17.975,8.57 20.476,6.914 24.839,13.5 "/>
<polygon fill="#FFFFFF" points="5.454,15.5 23.839,15.5 23.839,18.5 11.04,18.5 12.318,20.428 9.817,22.086 5.454,15.5 "/>
<rect fill="none" height="30" width="30"/>
<defs>
<linearGradient gradientUnits="userSpaceOnUse" id="SVGID_1_" x1="14.9995" x2="14.9995" y1="2.2749" y2="32.0078">
<stop offset="0" style="stop-color:#4EDEFF"/>
<stop offset="1" style="stop-color:#048CC6"/>
</linearGradient>
</defs>
</g>
</svg>
