<?xml version="1.0" encoding="UTF-8"?>
<!DOCTYPE svg PUBLIC "-//W3C//DTD SVG 1.1 Tiny//EN" "http://www.w3.org/Graphics/SVG/1.1/DTD/svg11-tiny.dtd">
<svg baseProfile="tiny" height="10px" version="1.1" viewBox="0 0 10 10" width="10px" x="0px" xmlns="http://www.w3.org/2000/svg" xmlns:xlink="http://www.w3.org/1999/xlink" y="0px">
<rect fill="none" height="10" width="10"/>
<path d="M10,7c0-3.86-3.141-7-7-7H0v10h10V7z" fill="#14141E" fill-opacity="0.1" stroke-opacity="0.1"/>
<path d="M9,7c0-3.3-2.7-6-6-6H0v9h9V7z" fill="url(#SVGID_1_)"/>
<path d="M3,2H0v1h3c2.206,0,4,1.794,4,4v3h1V7C8,4.243,5.757,2,3,2z" fill="#FFFFFF" fill-opacity="0.2" stroke-opacity="0.2"/>
<path d="M3,1H0v1h3c2.757,0,5,2.243,5,5v3h1V7C9,3.7,6.3,1,3,1z" fill-opacity="0.2" stroke-opacity="0.2"/>
<defs>
<linearGradient gradientUnits="userSpaceOnUse" id="SVGID_1_" x1="4.5" x2="4.5" y1="80.001" y2="1.3721">
<stop offset="0" style="stop-color:#65B8CC"/>
<stop offset="1" style="stop-color:#306D8C"/>
</linearGradient>
</defs>
</svg>
