<?xml version="1.0" encoding="utf-8"?>
<!-- Generator: Adobe Illustrator 14.0.0, SVG Export Plug-In  -->
<!DOCTYPE svg PUBLIC "-//W3C//DTD SVG 1.1//EN" "http://www.w3.org/Graphics/SVG/1.1/DTD/svg11.dtd" [
	<!ENTITY ns_flows "http://ns.adobe.com/Flows/1.0/">
]>
<svg version="1.1"
	 xmlns="http://www.w3.org/2000/svg" xmlns:xlink="http://www.w3.org/1999/xlink" xmlns:a="http://ns.adobe.com/AdobeSVGViewerExtensions/3.0/"
	 x="0px" y="0px" width="30px" height="30px" viewBox="0 0 30 30" enable-background="new 0 0 30 30" xml:space="preserve">
<defs>
</defs>
<rect fill="none" width="30" height="30"/>
<path fill="none" d="M23.041,9.079L9.08,23.041C10.74,24.266,12.783,25,15,25c5.514,0,10-4.486,10-10
	C25,12.783,24.266,10.739,23.041,9.079z"/>
<path fill="none" d="M20.92,6.958C19.26,5.733,17.217,4.999,15,4.999C9.486,4.999,5,9.485,5,15c0,2.216,0.733,4.26,1.958,5.919
	L20.92,6.958z"/>
<path d="M15,1.999C7.82,1.999,2,7.819,2,15c0,7.18,5.82,13,13,13s13-5.82,13-13C28,7.819,22.18,1.999,15,1.999z M15,4.999
	c2.217,0,4.26,0.734,5.92,1.959L6.958,20.919C5.733,19.26,5,17.216,5,15C5,9.485,9.486,4.999,15,4.999z M15,25
	c-2.217,0-4.26-0.734-5.92-1.959L23.041,9.079C24.266,10.739,25,12.783,25,15C25,20.514,20.514,25,15,25z"/>
</svg>
