<?xml version="1.0" ?>
<!DOCTYPE svg  PUBLIC '-//W3C//DTD SVG 1.1//EN'  'http://www.w3.org/Graphics/SVG/1.1/DTD/svg11.dtd'>
<svg height="60" viewBox="0 0 60 60" width="60" xmlns="http://www.w3.org/2000/svg" xmlns:xlink="http://www.w3.org/1999/xlink">
<g>
<defs>
</defs>
<rect fill="none" height="60" width="60"/>
<linearGradient gradientUnits="userSpaceOnUse" id="SVGID_1_" x1="30" x2="30" y1="9.8965" y2="49.8018">
	<stop offset="0" style="stop-color:#FEEFA7"/>
	<stop offset="0.5091" style="stop-color:#FFC501"/>
	<stop offset="1" style="stop-color:#F6A800"/>
</linearGradient>
<polygon fill="url(#SVGID_1_)" points="58,50.4 2,50.4 2,9.6 30.463,10.4 58,9.6 "/>
<linearGradient gradientUnits="userSpaceOnUse" id="SVGID_2_" x1="30" x2="30" y1="9.7017" y2="50.6398">
	<stop offset="0" style="stop-color:#F7AC00"/>
	<stop offset="0.3394" style="stop-color:#FFF8DB"/>
	<stop offset="1" style="stop-color:#FFE066"/>
</linearGradient>
<path d="M57.385,10.22v39.56H2.613V10.22H57.385 M58,9.6L29.802,9.936L2,9.6v40.8h56V9.6L58,9.6z" fill="url(#SVGID_2_)"/>
<polygon fill="#FBAB13" opacity="0.3" points="2,49.71 58,49.71 58,48.916 29.998,24.328 2,48.916 "/>
<polygon fill="#F18800" opacity="0.3" points="2,50.4 58,50.4 58,49.603 29.998,25.019 2,49.603 "/>
<linearGradient gradientTransform="matrix(-1 0 0 -1 -1801.0049 1240.3164)" gradientUnits="userSpaceOnUse" id="SVGID_3_" x1="-1831.0049" x2="-1831.0049" y1="1214.7607" y2="1190.0703">
	<stop offset="0" style="stop-color:#F98A00"/>
	<stop offset="0.7273" style="stop-color:#FCBC3C"/>
	<stop offset="1" style="stop-color:#FFE36A"/>
</linearGradient>
<polygon fill="url(#SVGID_3_)" points="58,50.38 29.998,25.689 2,50.38 "/>
<linearGradient gradientUnits="userSpaceOnUse" id="SVGID_4_" x1="30" x2="30" y1="25.4995" y2="51.0736">
	<stop offset="0" style="stop-color:#FFF1B5"/>
	<stop offset="1" style="stop-color:#FFE066"/>
</linearGradient>
<polygon fill="url(#SVGID_4_)" points="58,50.38 29.998,25.689 2,50.38 29.998,26.563 "/>
<polygon fill="#F18800" opacity="0.3" points="30.057,10.4 2,9.6 29.998,38.617 58,9.6 "/>
<polygon fill="#C26D00" opacity="0.4" points="30.006,10.4 2,9.6 29.998,37.091 58,9.6 "/>
<polygon fill="#AB6100" opacity="0.4" points="29.904,10.297 2,9.6 29.998,35.802 58,9.6 "/>
<linearGradient gradientUnits="userSpaceOnUse" id="SVGID_5_" x1="30" x2="30" y1="32.9619" y2="8.0088">
	<stop offset="0" style="stop-color:#FFDA33"/>
	<stop offset="0.25" style="stop-color:#FFE692"/>
	<stop offset="1" style="stop-color:#FFFBF8"/>
</linearGradient>
<polygon fill="url(#SVGID_5_)" points="2,9.6 29.998,34.29 58,9.6 "/>
<rect fill="none" height="60" width="60"/>
</g>
<g transform="matrix(1 0 0 1 30 30)">
<rect fill="none" height="30" width="30"/>
<rect fill="none" height="30" width="30"/>
<linearGradient gradientTransform="matrix(0.5 0 0 -0.5 -313.5 -276)" gradientUnits="userSpaceOnUse" id="SVGID_1__" x1="654.6" x2="654.6" y1="-558.3" y2="-601.7">

<stop offset="0" stop-color="#DFE1E6"/>

<stop offset="1" stop-color="#BDBEC3"/>

</linearGradient>
<rect fill="url(#SVGID_1__)" height="21.5" width="17.33" x="5.158" y="3.499"/>
<linearGradient gradientTransform="matrix(0.5 0 0 -0.5 -313.5 -276)" gradientUnits="userSpaceOnUse" id="SVGID_2__" x1="654.6" x2="654.6" y1="-558.9" y2="-602.2">

<stop offset="0" stop-color="#E7E9EF"/>

<stop offset="1" stop-color="#C8C9CE"/>

</linearGradient>
<path d="M21.99,3.999v20.5h-16.33v-20.5h16.33m0.5-0.501h-17.33v21.5h17.33v-21.5z" fill="url(#SVGID_2__)"/>
<linearGradient gradientTransform="matrix(0.5 0 0 -0.5 -313.5 -276)" gradientUnits="userSpaceOnUse" id="SVGID_3__" x1="642.6" x2="642.6" y1="-567.9" y2="-562.2">

<stop offset="0" stop-color="#75BCFF"/>

<stop offset="1" stop-color="#0070A1"/>

</linearGradient>
<rect fill="url(#SVGID_3__)" height="3" width="3" x="6.324" y="5.146"/>
<linearGradient gradientTransform="matrix(0.5 0 0 -0.5 -313.5 -276)" gradientUnits="userSpaceOnUse" id="SVGID_4__" x1="650.6" x2="650.6" y1="-567.9" y2="-562.2">

<stop offset="0" stop-color="#75BCFF"/>

<stop offset="1" stop-color="#0070A1"/>

</linearGradient>
<rect fill="url(#SVGID_4__)" height="3" width="3" x="10.32" y="5.146"/>
<linearGradient gradientTransform="matrix(0.5 0 0 -0.5 -313.5 -276)" gradientUnits="userSpaceOnUse" id="SVGID_5__" x1="666.6" x2="666.6" y1="-567.9" y2="-562.2">

<stop offset="0" stop-color="#75BCFF"/>

<stop offset="1" stop-color="#0070A1"/>

</linearGradient>
<rect fill="url(#SVGID_5__)" height="3" width="3" x="18.32" y="5.146"/>
<linearGradient gradientTransform="matrix(0.5 0 0 -0.5 -313.5 -276)" gradientUnits="userSpaceOnUse" id="SVGID_6_" x1="658.6" x2="658.6" y1="-567.9" y2="-562.2">

<stop offset="0" stop-color="#75BCFF"/>

<stop offset="1" stop-color="#0070A1"/>

</linearGradient>
<rect fill="url(#SVGID_6_)" height="3" width="3" x="14.32" y="5.146"/>
<linearGradient gradientTransform="matrix(0.5 0 0 -0.5 -313.5 -276)" gradientUnits="userSpaceOnUse" id="SVGID_7_" x1="642.6" x2="642.6" y1="-576.5" y2="-570.8">

<stop offset="0" stop-color="#75BCFF"/>

<stop offset="1" stop-color="#0070A1"/>

</linearGradient>
<rect fill="url(#SVGID_7_)" height="3" width="3" x="6.324" y="9.458"/>
<linearGradient gradientTransform="matrix(0.5 0 0 -0.5 -313.5 -276)" gradientUnits="userSpaceOnUse" id="SVGID_8_" x1="650.6" x2="650.6" y1="-576.5" y2="-570.8">

<stop offset="0" stop-color="#75BCFF"/>

<stop offset="1" stop-color="#0070A1"/>

</linearGradient>
<rect fill="url(#SVGID_8_)" height="3" width="3" x="10.32" y="9.458"/>
<linearGradient gradientTransform="matrix(0.5 0 0 -0.5 -313.5 -276)" gradientUnits="userSpaceOnUse" id="SVGID_9_" x1="666.6" x2="666.6" y1="-576.5" y2="-570.8">

<stop offset="0" stop-color="#75BCFF"/>

<stop offset="1" stop-color="#0070A1"/>

</linearGradient>
<rect fill="url(#SVGID_9_)" height="3" width="3" x="18.32" y="9.458"/>
<linearGradient gradientTransform="matrix(0.5 0 0 -0.5 -313.5 -276)" gradientUnits="userSpaceOnUse" id="SVGID_10_" x1="658.6" x2="658.6" y1="-576.5" y2="-570.8">

<stop offset="0" stop-color="#75BCFF"/>

<stop offset="1" stop-color="#0070A1"/>

</linearGradient>
<rect fill="url(#SVGID_10_)" height="3" width="3" x="14.32" y="9.458"/>
<linearGradient gradientTransform="matrix(0.5 0 0 -0.5 -313.5 -276)" gradientUnits="userSpaceOnUse" id="SVGID_11_" x1="642.6" x2="642.6" y1="-594.5" y2="-588.8">

<stop offset="0" stop-color="#75BCFF"/>

<stop offset="1" stop-color="#0070A1"/>

</linearGradient>
<rect fill="url(#SVGID_11_)" height="3" width="3" x="6.324" y="18.46"/>
<linearGradient gradientTransform="matrix(0.5 0 0 -0.5 -313.5 -276)" gradientUnits="userSpaceOnUse" id="SVGID_12_" x1="650.6" x2="650.6" y1="-594.5" y2="-588.8">

<stop offset="0" stop-color="#75BCFF"/>

<stop offset="1" stop-color="#0070A1"/>

</linearGradient>
<rect fill="url(#SVGID_12_)" height="3" width="3" x="10.32" y="18.46"/>
<linearGradient gradientTransform="matrix(0.5 0 0 -0.5 -313.5 -276)" gradientUnits="userSpaceOnUse" id="SVGID_13_" x1="666.6" x2="666.6" y1="-594.5" y2="-588.8">

<stop offset="0" stop-color="#75BCFF"/>

<stop offset="1" stop-color="#0070A1"/>

</linearGradient>
<rect fill="url(#SVGID_13_)" height="3" width="3" x="18.32" y="18.46"/>
<linearGradient gradientTransform="matrix(0.5 0 0 -0.5 -313.5 -276)" gradientUnits="userSpaceOnUse" id="SVGID_14_" x1="658.6" x2="658.6" y1="-594.5" y2="-588.8">

<stop offset="0" stop-color="#75BCFF"/>

<stop offset="1" stop-color="#0070A1"/>

</linearGradient>
<rect fill="url(#SVGID_14_)" height="3" width="3" x="14.32" y="18.46"/>
<linearGradient gradientTransform="matrix(0.5 0 0 -0.5 -313.5 -276)" gradientUnits="userSpaceOnUse" id="SVGID_15_" x1="642.6" x2="642.6" y1="-585.5" y2="-579.8">

<stop offset="0" stop-color="#75BCFF"/>

<stop offset="1" stop-color="#0070A1"/>

</linearGradient>
<rect fill="url(#SVGID_15_)" height="3" width="3" x="6.324" y="13.96"/>
<linearGradient gradientTransform="matrix(0.5 0 0 -0.5 -313.5 -276)" gradientUnits="userSpaceOnUse" id="SVGID_16_" x1="650.6" x2="650.6" y1="-585.5" y2="-579.8">

<stop offset="0" stop-color="#75BCFF"/>

<stop offset="1" stop-color="#0070A1"/>

</linearGradient>
<rect fill="url(#SVGID_16_)" height="3" width="3" x="10.32" y="13.96"/>
<linearGradient gradientTransform="matrix(0.5 0 0 -0.5 -313.5 -276)" gradientUnits="userSpaceOnUse" id="SVGID_17_" x1="666.6" x2="666.6" y1="-585.5" y2="-579.8">

<stop offset="0" stop-color="#75BCFF"/>

<stop offset="1" stop-color="#0070A1"/>

</linearGradient>
<rect fill="url(#SVGID_17_)" height="3" width="3" x="18.32" y="13.96"/>
<linearGradient gradientTransform="matrix(0.5 0 0 -0.5 -313.5 -276)" gradientUnits="userSpaceOnUse" id="SVGID_18_" x1="658.6" x2="658.6" y1="-585.5" y2="-579.8">

<stop offset="0" stop-color="#75BCFF"/>

<stop offset="1" stop-color="#0070A1"/>

</linearGradient>
<rect fill="url(#SVGID_18_)" height="3" width="3" x="14.32" y="13.96"/>
<polygon opacity="0.3" points="22.49,25,22.49,14.85,12.51,11.92,12.51,25" style="enable-background:new;"/>
<linearGradient gradientTransform="matrix(0.5 0 0 -0.5 -313.5 -276)" gradientUnits="userSpaceOnUse" id="SVGID_19_" x1="665.4" x2="665.4" y1="-582.2" y2="-604.8">

<stop offset="0" stop-color="#CCCCCC"/>

<stop offset="1" stop-color="#949494"/>

</linearGradient>
<polygon fill="url(#SVGID_19_)" points="24.84,16.25,13.51,12.92,13.51,26.5,24.84,26.5"/>
<linearGradient gradientTransform="matrix(0.5 0 0 -0.5 -313.5 -276)" gradientUnits="userSpaceOnUse" id="SVGID_20_" x1="665.4" x2="665.4" y1="-582" y2="-605.1">

<stop offset="0" stop-color="#DBDDE2"/>

<stop offset="1" stop-color="#B5B6BA"/>

</linearGradient>
<path d="M14.01,13.58l10.33,3.039v9.38h-10.33v-12.42m-0.5-0.665v13.58h11.33v-10.25l-11.33-3.33z" fill="url(#SVGID_20_)"/>
</g>
</svg>