<?xml version="1.0" encoding="UTF-8"?>
<!DOCTYPE svg PUBLIC "-//W3C//DTD SVG 1.1 Tiny//EN" "http://www.w3.org/Graphics/SVG/1.1/DTD/svg11-tiny.dtd">
<svg baseProfile="tiny" height="60" viewBox="0 0 60 60" width="60" xmlns="http://www.w3.org/2000/svg" xmlns:xlink="http://www.w3.org/1999/xlink">
<g>
<linearGradient gradientTransform="matrix(1 0 0 1 2296.5195 1443.9805)" gradientUnits="userSpaceOnUse" id="SVGID_1_" x1="-2266.519" x2="-2266.519" y1="-1432.3472" y2="-1395.6118">
<stop offset="0" style="stop-color:#757575"/>
<stop offset="0.2424" style="stop-color:#000000"/>
<stop offset="0.8606" style="stop-color:#000000"/>
<stop offset="1" style="stop-color:#363636"/>
</linearGradient>
<path d="M51.734,11.633H8.266c-0.678,0-1.225,0.549-1.225,1.225v34.285c0,0.678,0.547,1.226,1.225,1.226  h43.468c0.677,0,1.226-0.548,1.226-1.226V12.857C52.959,12.182,52.41,11.633,51.734,11.633z M12.551,45.918  c0,0.338-0.275,0.613-0.611,0.613H9.49c-0.338,0-0.613-0.275-0.613-0.613v-1.225c0-0.336,0.275-0.611,0.613-0.611h2.449  c0.336,0,0.611,0.275,0.611,0.611L12.551,45.918L12.551,45.918z M12.551,15.307c0,0.336-0.275,0.611-0.611,0.611H9.49  c-0.338,0-0.613-0.275-0.613-0.611v-1.225c0-0.336,0.275-0.613,0.613-0.613h2.449c0.336,0,0.611,0.277,0.611,0.613L12.551,15.307  L12.551,15.307z M18.061,45.918c0,0.338-0.275,0.613-0.611,0.613H15c-0.338,0-0.612-0.275-0.612-0.613v-1.225  c0-0.336,0.274-0.611,0.612-0.611h2.449c0.336,0,0.611,0.275,0.611,0.611L18.061,45.918L18.061,45.918z M18.061,15.307  c0,0.336-0.275,0.611-0.611,0.611H15c-0.338,0-0.612-0.275-0.612-0.611v-1.225c0-0.336,0.274-0.613,0.612-0.613h2.449  c0.336,0,0.611,0.277,0.611,0.613L18.061,15.307L18.061,15.307z M23.571,45.918c0,0.338-0.276,0.613-0.612,0.613H20.51  c-0.336,0-0.611-0.275-0.611-0.613v-1.225c0-0.336,0.274-0.611,0.611-0.611h2.449c0.336,0,0.612,0.275,0.612,0.611V45.918z   M23.571,15.307c0,0.336-0.276,0.611-0.612,0.611H20.51c-0.336,0-0.611-0.275-0.611-0.611v-1.225c0-0.336,0.274-0.613,0.611-0.613  h2.449c0.336,0,0.612,0.277,0.612,0.613V15.307z M29.082,45.918c0,0.338-0.276,0.613-0.613,0.613h-2.448  c-0.337,0-0.612-0.275-0.612-0.613v-1.225c0-0.336,0.275-0.611,0.612-0.611h2.448c0.337,0,0.613,0.275,0.613,0.611V45.918z   M29.082,15.307c0,0.336-0.276,0.611-0.613,0.611h-2.448c-0.337,0-0.612-0.275-0.612-0.611v-1.225c0-0.336,0.275-0.613,0.612-0.613  h2.448c0.337,0,0.613,0.277,0.613,0.613V15.307z M34.592,45.918c0,0.338-0.275,0.613-0.611,0.613h-2.448  c-0.339,0-0.613-0.275-0.613-0.613v-1.225c0-0.336,0.274-0.611,0.613-0.611h2.448c0.336,0,0.611,0.275,0.611,0.611V45.918z   M34.592,15.307c0,0.336-0.275,0.611-0.611,0.611h-2.448c-0.339,0-0.613-0.275-0.613-0.611v-1.225c0-0.336,0.274-0.613,0.613-0.613  h2.448c0.336,0,0.611,0.277,0.611,0.613V15.307z M40.102,45.918c0,0.338-0.274,0.613-0.61,0.613h-2.449  c-0.338,0-0.612-0.275-0.612-0.613v-1.225c0-0.336,0.274-0.611,0.612-0.611h2.449c0.336,0,0.61,0.275,0.61,0.611V45.918z   M40.102,15.307c0,0.336-0.274,0.611-0.61,0.611h-2.449c-0.338,0-0.612-0.275-0.612-0.611v-1.225c0-0.336,0.274-0.613,0.612-0.613  h2.449c0.336,0,0.61,0.277,0.61,0.613V15.307z M45.611,45.918c0,0.338-0.275,0.613-0.611,0.613h-2.449  c-0.337,0-0.611-0.275-0.611-0.613v-1.225c0-0.336,0.274-0.611,0.611-0.611H45c0.336,0,0.611,0.275,0.611,0.611V45.918z   M45.611,15.307c0,0.336-0.275,0.611-0.611,0.611h-2.449c-0.337,0-0.611-0.275-0.611-0.611v-1.225c0-0.336,0.274-0.613,0.611-0.613  H45c0.336,0,0.611,0.277,0.611,0.613V15.307z M51.123,45.918c0,0.338-0.277,0.613-0.613,0.613h-2.449  c-0.336,0-0.61-0.275-0.61-0.613v-1.225c0-0.336,0.274-0.611,0.61-0.611h2.449c0.336,0,0.613,0.275,0.613,0.611V45.918z   M51.123,15.307c0,0.336-0.277,0.611-0.613,0.611h-2.449c-0.336,0-0.61-0.275-0.61-0.611v-1.225c0-0.336,0.274-0.613,0.61-0.613  h2.449c0.336,0,0.613,0.277,0.613,0.613V15.307z" fill="url(#SVGID_1_)"/>
<path d="M51.734,11.633H8.266c-0.678,0-1.225,0.549-1.225,1.225v0.611  c0-0.676,0.547-1.225,1.225-1.225h43.468c0.677,0,1.226,0.549,1.226,1.225v-0.611C52.959,12.182,52.41,11.633,51.734,11.633z" fill="#FFFFFF" fill-opacity="0.55" stroke-opacity="0.55"/>
<path d="M8.266,48.367h43.468c0.677,0,1.226-0.547,1.226-1.225v-0.611  c0,0.676-0.549,1.225-1.226,1.225H8.266c-0.678,0-1.225-0.549-1.225-1.225v0.611C7.041,47.82,7.588,48.367,8.266,48.367z" fill="#FFFFFF" fill-opacity="0.1" stroke-opacity="0.1"/>
<linearGradient gradientTransform="matrix(1 0 0 1 2296.5195 1443.9805)" gradientUnits="userSpaceOnUse" id="SVGID_2_" x1="-2266.5195" x2="-2266.5195" y1="-1426.1284" y2="-1401.6362">
<stop offset="0" style="stop-color:#000000"/>
<stop offset="0.5" style="stop-color:#666666"/>
<stop offset="1" style="stop-color:#000000"/>
</linearGradient>
<rect fill="url(#SVGID_2_)" height="24.492" width="45.918" x="7.041" y="17.754"/>
<linearGradient gradientTransform="matrix(1 0 0 1 2296.5195 1443.9805)" gradientUnits="userSpaceOnUse" id="SVGID_3_" x1="-2266.519" x2="-2266.519" y1="-1401.7349" y2="-1426.2271">
<stop offset="0" style="stop-color:#36B5FF"/>
<stop offset="1" style="stop-color:#1B66D8"/>
</linearGradient>
<path d="M51.123,41.021c0,0.674-0.553,1.225-1.225,1.225H10.102c-0.673,0-1.225-0.551-1.225-1.225V18.979  c0-0.672,0.552-1.225,1.225-1.225h39.796c0.672,0,1.226,0.553,1.226,1.225L51.123,41.021L51.123,41.021z" fill="url(#SVGID_3_)"/>
<path d="M49.898,41.021H10.102c-0.673,0-1.225,0.061-1.225-0.613l0,0  c0,0.674,0.552,1.225,1.225,1.225h39.796c0.672,0,1.226-0.551,1.226-1.225l0,0C51.123,41.082,50.57,41.021,49.898,41.021z" fill="#FFFFFF" fill-opacity="0.5" stroke-opacity="0.5"/>
<linearGradient gradientTransform="matrix(1 0 0 1 2296.5195 1443.9805)" gradientUnits="userSpaceOnUse" id="SVGID_4_" x1="-2266.519" x2="-2266.519" y1="-1426.2261" y2="-1401.6362">
<stop offset="0" style="stop-color:#000000"/>
<stop offset="1" style="stop-color:#404040"/>
</linearGradient>
<path d="M49.898,18.367c0.336,0,0.61,0.275,0.61,0.611v22.043c0,0.338-0.274,0.61-0.61,0.61H10.102  c-0.337,0-0.611-0.272-0.611-0.61V18.979c0-0.336,0.274-0.611,0.611-0.611L49.898,18.367 M49.898,17.754H10.102  c-0.673,0-1.225,0.553-1.225,1.225v22.042c0,0.674,0.552,1.226,1.225,1.226h39.796c0.672,0,1.226-0.552,1.226-1.226V18.979  C51.123,18.307,50.57,17.754,49.898,17.754L49.898,17.754z" fill="url(#SVGID_4_)"/>
<path d="M49.898,25.102v-4.898c0-0.676-0.549-1.225-1.226-1.225H11.326  c-0.676,0-1.225,0.549-1.225,1.225v7.961L49.898,25.102z" fill="#FFFFFF" fill-opacity="0.2" stroke-opacity="0.2"/>
<rect fill="none" height="60" width="60"/>
</g>
<g transform="matrix(0.5 0 0 0.5 30 30)">
<path d="M30,54.705C16.376,54.705,5.294,43.623,5.294,30  C5.294,16.376,16.376,5.294,30,5.294c13.623,0,24.705,11.083,24.705,24.706C54.705,43.623,43.623,54.705,30,54.705L30,54.705z" style="opacity:0.6;enable-background:new    ;"/>
<radialGradient cx="2.7217" cy="-242.9165" gradientTransform="matrix(0.618 0 0 -0.618 28.3176 -128.0637)" gradientUnits="userSpaceOnUse" id="SVGID_1__" r="48.9069">
<stop offset="0" style="stop-color:#94FFFF"/>
<stop offset="0.5" style="stop-color:#36B5FF"/>
<stop offset="1" style="stop-color:#1B66D8"/>
</radialGradient>
<circle cx="30" cy="30" r="22.941" style="fill:url(#SVGID_1__);"/>
<path d="M52.122,28.744c-0.509-8.961-6.312-16.677-14.788-19.661l-1.032,0.169  l-5.995-1.147l-7.474,4.456l-0.281,1.878h-4.336l1.714,2.914l-4.643,3.787l-1.082,4.675l3.834,6.795l3.914-0.799l1.429,1.229  l1.117,0.111l0.738,2.883l-0.974,2.527l3.552,9.086h3.623l3.592-2.9v-1.185l0.947-1.47l0.783-0.4  c-0.199,0.303-0.512,0.998-0.512,0.998c-0.033,0.236,0.51,4.862,2.104,4.5c1.211-0.273,5.533-8.303,5.615-9.066  c0.164-1.51-0.658-2.134-1.162-2.37l-0.562-0.265l-2.58,2.587c-0.276,0.021-0.526,0.067-0.751,0.134v-2.147l2.802-2.737l1.426-4.595  l2.173-1.769l-0.477-0.866l1.639-1.578l-0.916-1.669l0.697,0.084l4.082,9.138l0.836-0.666c-0.025-0.447-0.074-0.887-0.125-1.329  L52.122,28.744z M30.275,18.466l-0.341-0.911h2.049l0.997,2.243h-1.484v-1.333H30.275z M37.035,22.983l1.637,2.388l0.111,0.286  l-1.677-1.013l-0.401-1.445L37.035,22.983z M39.496,27.155l0.494,0.494l-0.639,0.143l-0.145-0.177L39.496,27.155z M26.695,11.093  l1.041,1.611l-1.183,0.362l-0.462-0.263L26.695,11.093z" style="opacity:0.3;enable-background:new    ;"/>
<path d="M30,7.059C17.331,7.059,7.059,17.331,7.059,30  c0,12.674,10.272,22.941,22.941,22.941c12.674,0,22.941-10.268,22.941-22.941C52.941,17.331,42.674,7.059,30,7.059z M30,51.176  C18.323,51.176,8.823,41.677,8.823,30c0-11.677,9.5-21.177,21.177-21.177c11.677,0,21.176,9.5,21.176,21.177  C51.176,41.677,41.677,51.176,30,51.176z" style="opacity:0.3;fill:url(#SVGID_2__);enable-background:new    ;"/>
<radialGradient cx="182.1514" cy="-162.9028" gradientTransform="matrix(1.7647 0 0 -1.7647 -290.1173 -274.2362)" gradientUnits="userSpaceOnUse" id="SVGID_3__" r="15.4155">
<stop offset="0" style="stop-color:#94FF26"/>
<stop offset="0.3152" style="stop-color:#94FF26"/>
<stop offset="0.7273" style="stop-color:#1FC211"/>
<stop offset="1" style="stop-color:#0BA133"/>
</radialGradient>
<path d="M42.431,36.555l-2.388,2.391c0,0-1.443,0-1.511,0.572c-0.032,0.246-0.111,1.313-0.354,1.863  c-0.48,0.332-1.054,1.434-1.054,1.434s-0.298,2.129,1.296,1.768C40.004,44.224,44.883,37.707,42.431,36.555z" style="fill:url(#SVGID_3__);"/>
<radialGradient cx="182.1514" cy="-162.9023" gradientTransform="matrix(1.7647 0 0 -1.7647 -290.1173 -274.2362)" gradientUnits="userSpaceOnUse" id="SVGID_4__" r="17.8322">
<stop offset="0" style="stop-color:#94FF26"/>
<stop offset="0.3152" style="stop-color:#94FF26"/>
<stop offset="0.7273" style="stop-color:#1FC211"/>
<stop offset="1" style="stop-color:#0BA133"/>
</radialGradient>
<path d="M37.041,9.916c-0.392,0.148-0.66,0.25-0.66,0.25L30.48,9.037l-2.894,1.811l1.523,2.356  l-2.663,0.819l-1.435-0.819l0.504-1.431l-1.871,1.295l-0.333,2.255h-3.554l1.314,2.238l-4.996,4.073l-0.94,4.066l1.855,3.591  L18.104,30l3.914-0.799l1.43,1.228l1.299,0.127l1.414,5.53l-0.941,2.446l2.079,4.595l0.585,1.908h3.623l2.048-1.108l1.543-1.793  v-2.169l2.936-1.498v-3.213l1.16-2.208l2.59-2.329l0.619-2.7l-3.387,0.755l-0.891-1.085l0.633-1.013l-2.404-1.454l-1.025-3.687  l1.776-1.158l1.636,2.388l0.613,1.572l1.228,1.229l1.435,0.75l1.594-0.258l1.77-1.703l-1.246-2.273l-1.568,0.409L41.146,20.8  l1.349-0.94l4.23,0.512v1.505l3.681,7.585l0.837-0.669C50.746,20.045,44.965,12.704,37.041,9.916z M35.119,20.169l-1.932,0.512  h-2.573v-1.333h-2.46l-1.946,0.514l-2.966-0.821l-0.821-1.535l4.096-0.921h4.098L30,14.945h2.049l1.14,2.561l1.933,0.678v1.985  H35.119z M39.523,16.79l-3.482-0.616v-1.228l1.741-0.41l0.512-0.614l1.229,1.023L39.523,16.79L39.523,16.79z" style="fill:url(#SVGID_4__);"/>
<rect height="60" style="fill:none;" width="60"/>
<defs>
<linearGradient gradientTransform="matrix(1.7647 0 0 -1.7647 -290.1173 -274.2362)" gradientUnits="userSpaceOnUse" id="SVGID_2__" x1="181.4004" x2="181.4004" y1="-159.4634" y2="-185.5335">
<stop offset="0" style="stop-color:#31A7F8"/>
<stop offset="0.497" style="stop-color:#1E74DC"/>
<stop offset="1" style="stop-color:#C8E4EB"/>
</linearGradient>
</defs>
</g>
</svg>
