<?xml version="1.0" encoding="UTF-8"?>
<!DOCTYPE svg PUBLIC "-//W3C//DTD SVG 1.1 Tiny//EN" "http://www.w3.org/Graphics/SVG/1.1/DTD/svg11-tiny.dtd">
<svg baseProfile="tiny" height="60" viewBox="0 0 60 60" width="60" xmlns="http://www.w3.org/2000/svg" xmlns:xlink="http://www.w3.org/1999/xlink">
<g>
<linearGradient gradientUnits="userSpaceOnUse" id="SVGID_1_" x1="29.9995" x2="29.9995" y1="16.686" y2="43.3949">
<stop offset="0" style="stop-color:#CED5D8"/>
<stop offset="0.7308" style="stop-color:#818687"/>
<stop offset="1" style="stop-color:#CEDBE0"/>
</linearGradient>
<path d="M5,41.538c0,0.977,0.787,1.775,1.751,1.775h46.497c0.963,0,1.752-0.799,1.752-1.775  V18.461c0-0.976-0.789-1.775-1.752-1.775H6.751C5.787,16.686,5,17.485,5,18.461V41.538z" fill="url(#SVGID_1_)" fill-opacity="0.6" stroke-opacity="0.6"/>
<linearGradient gradientUnits="userSpaceOnUse" id="SVGID_2_" x1="29.9995" x2="29.9995" y1="17.5742" y2="42.5028">
<stop offset="0" style="stop-color:#BCC3C5"/>
<stop offset="0.8121" style="stop-color:#7A8285"/>
<stop offset="1" style="stop-color:#B7BDBF"/>
</linearGradient>
<path d="M53.248,42.427H6.751c-0.478,0-0.864-0.398-0.864-0.889V18.461c0-0.488,0.387-0.887,0.864-0.887  h46.497c0.477,0,0.864,0.399,0.864,0.887v23.077C54.112,42.028,53.725,42.427,53.248,42.427L53.248,42.427z" fill="url(#SVGID_2_)"/>
<path d="M23.061,35.278c0,0.49-0.396,0.889-0.887,0.889h-2.663c-0.489,0-0.888-0.398-0.888-0.889v-2.662  c0-0.49,0.398-0.889,0.888-0.889h2.663c0.49,0,0.887,0.398,0.887,0.889V35.278z" fill-opacity="0.25" stroke-opacity="0.25"/>
<linearGradient gradientUnits="userSpaceOnUse" id="SVGID_3_" x1="20.8418" x2="20.8418" y1="31.2266" y2="35.7055">
<stop offset="0" style="stop-color:#ECF4F8"/>
<stop offset="0.7939" style="stop-color:#A0A6A7"/>
<stop offset="1" style="stop-color:#CEDBE0"/>
</linearGradient>
<path d="M23.061,34.798c0,0.49-0.396,0.887-0.887,0.887h-2.663c-0.489,0-0.888-0.396-0.888-0.887v-2.662  c0-0.49,0.398-0.889,0.888-0.889h2.663c0.49,0,0.887,0.398,0.887,0.889V34.798z" fill="url(#SVGID_3_)"/>
<linearGradient gradientUnits="userSpaceOnUse" id="SVGID_4_" x1="22.6729" x2="19.0852" y1="33.4658" y2="33.4658">
<stop offset="0" style="stop-color:#E4EBED"/>
<stop offset="0.8364" style="stop-color:#C5CFD2"/>
<stop offset="0.9758" style="stop-color:#D2D9DB"/>
<stop offset="1" style="stop-color:#D2D9DB"/>
</linearGradient>
<path d="M19.511,35.241c-0.245,0-0.444-0.199-0.444-0.443v-2.662c0-0.246,0.199-0.445,0.444-0.445h2.663  c0.244,0,0.443,0.199,0.443,0.445v2.662c0,0.244-0.199,0.443-0.443,0.443H19.511z" fill="url(#SVGID_4_)"/>
<path d="M28.387,35.278c0,0.49-0.398,0.889-0.888,0.889h-2.663c-0.49,0-0.887-0.398-0.887-0.889v-2.662  c0-0.49,0.396-0.889,0.887-0.889h2.663c0.489,0,0.888,0.398,0.888,0.889V35.278z" fill-opacity="0.25" stroke-opacity="0.25"/>
<linearGradient gradientUnits="userSpaceOnUse" id="SVGID_5_" x1="26.168" x2="26.168" y1="31.2266" y2="35.7055">
<stop offset="0" style="stop-color:#ECF4F8"/>
<stop offset="0.7939" style="stop-color:#A0A6A7"/>
<stop offset="1" style="stop-color:#CEDBE0"/>
</linearGradient>
<path d="M28.387,34.798c0,0.49-0.398,0.887-0.888,0.887h-2.663c-0.49,0-0.887-0.396-0.887-0.887v-2.662  c0-0.49,0.396-0.889,0.887-0.889h2.663c0.489,0,0.888,0.398,0.888,0.889V34.798z" fill="url(#SVGID_5_)"/>
<linearGradient gradientUnits="userSpaceOnUse" id="SVGID_6_" x1="27.999" x2="24.4114" y1="33.4658" y2="33.4658">
<stop offset="0" style="stop-color:#E4EBED"/>
<stop offset="0.8364" style="stop-color:#C5CFD2"/>
<stop offset="0.9758" style="stop-color:#D2D9DB"/>
<stop offset="1" style="stop-color:#D2D9DB"/>
</linearGradient>
<path d="M24.836,35.241c-0.244,0-0.443-0.199-0.443-0.443v-2.662c0-0.246,0.199-0.445,0.443-0.445h2.663  c0.245,0,0.444,0.199,0.444,0.445v2.662c0,0.244-0.199,0.443-0.444,0.443H24.836z" fill="url(#SVGID_6_)"/>
<path d="M33.712,35.278c0,0.49-0.397,0.889-0.888,0.889h-2.662c-0.49,0-0.889-0.398-0.889-0.889v-2.662  c0-0.49,0.398-0.889,0.889-0.889h2.662c0.49,0,0.888,0.398,0.888,0.889V35.278z" fill-opacity="0.25" stroke-opacity="0.25"/>
<linearGradient gradientUnits="userSpaceOnUse" id="SVGID_7_" x1="31.4932" x2="31.4932" y1="31.2266" y2="35.7055">
<stop offset="0" style="stop-color:#ECF4F8"/>
<stop offset="0.7939" style="stop-color:#A0A6A7"/>
<stop offset="1" style="stop-color:#CEDBE0"/>
</linearGradient>
<path d="M33.712,34.798c0,0.49-0.397,0.887-0.888,0.887h-2.662c-0.49,0-0.889-0.396-0.889-0.887v-2.662  c0-0.49,0.398-0.889,0.889-0.889h2.662c0.49,0,0.888,0.398,0.888,0.889V34.798z" fill="url(#SVGID_7_)"/>
<linearGradient gradientUnits="userSpaceOnUse" id="SVGID_8_" x1="33.3232" x2="29.7371" y1="33.4658" y2="33.4658">
<stop offset="0" style="stop-color:#E4EBED"/>
<stop offset="0.8364" style="stop-color:#C5CFD2"/>
<stop offset="0.9758" style="stop-color:#D2D9DB"/>
<stop offset="1" style="stop-color:#D2D9DB"/>
</linearGradient>
<path d="M30.162,35.241c-0.245,0-0.444-0.199-0.444-0.443v-2.662c0-0.246,0.199-0.445,0.444-0.445h2.662  c0.246,0,0.443,0.199,0.443,0.445v2.662c0,0.244-0.197,0.443-0.443,0.443H30.162z" fill="url(#SVGID_8_)"/>
<path d="M39.037,35.278c0,0.49-0.396,0.889-0.887,0.889h-2.662c-0.492,0-0.889-0.398-0.889-0.889v-2.662  c0-0.49,0.396-0.889,0.889-0.889h2.662c0.49,0,0.887,0.398,0.887,0.889V35.278z" fill-opacity="0.25" stroke-opacity="0.25"/>
<linearGradient gradientUnits="userSpaceOnUse" id="SVGID_9_" x1="36.8184" x2="36.8184" y1="31.2266" y2="35.7055">
<stop offset="0" style="stop-color:#ECF4F8"/>
<stop offset="0.7939" style="stop-color:#A0A6A7"/>
<stop offset="1" style="stop-color:#CEDBE0"/>
</linearGradient>
<path d="M39.037,34.798c0,0.49-0.396,0.887-0.887,0.887h-2.662c-0.492,0-0.889-0.396-0.889-0.887v-2.662  c0-0.49,0.396-0.889,0.889-0.889h2.662c0.49,0,0.887,0.398,0.887,0.889V34.798z" fill="url(#SVGID_9_)"/>
<linearGradient gradientUnits="userSpaceOnUse" id="SVGID_10_" x1="38.6494" x2="35.0618" y1="33.4658" y2="33.4658">
<stop offset="0" style="stop-color:#E4EBED"/>
<stop offset="0.8364" style="stop-color:#C5CFD2"/>
<stop offset="0.9758" style="stop-color:#D2D9DB"/>
<stop offset="1" style="stop-color:#D2D9DB"/>
</linearGradient>
<path d="M35.488,35.241c-0.246,0-0.445-0.199-0.445-0.443v-2.662c0-0.246,0.199-0.445,0.445-0.445h2.662  c0.244,0,0.443,0.199,0.443,0.445v2.662c0,0.244-0.199,0.443-0.443,0.443H35.488z" fill="url(#SVGID_10_)"/>
<path d="M17.551,35.278c0,0.49-0.396,0.889-0.887,0.889H8.787c-0.491,0-0.889-0.398-0.889-0.889v-2.662  c0-0.49,0.397-0.889,0.889-0.889h7.877c0.49,0,0.887,0.398,0.887,0.889V35.278z" fill-opacity="0.25" stroke-opacity="0.25"/>
<linearGradient gradientUnits="userSpaceOnUse" id="SVGID_11_" x1="12.7246" x2="12.7246" y1="31.2266" y2="35.7055">
<stop offset="0" style="stop-color:#ECF4F8"/>
<stop offset="0.7939" style="stop-color:#A0A6A7"/>
<stop offset="1" style="stop-color:#CEDBE0"/>
</linearGradient>
<path d="M17.551,34.798c0,0.49-0.396,0.887-0.887,0.887H8.787c-0.491,0-0.889-0.396-0.889-0.887v-2.662  c0-0.49,0.397-0.889,0.889-0.889h7.877c0.49,0,0.887,0.398,0.887,0.889V34.798z" fill="url(#SVGID_11_)"/>
<linearGradient gradientUnits="userSpaceOnUse" id="SVGID_12_" x1="17.2441" x2="8.3885" y1="33.4658" y2="33.4658">
<stop offset="0" style="stop-color:#E4EBED"/>
<stop offset="0.8364" style="stop-color:#C5CFD2"/>
<stop offset="0.9758" style="stop-color:#D2D9DB"/>
<stop offset="1" style="stop-color:#D2D9DB"/>
</linearGradient>
<path d="M8.787,35.241c-0.246,0-0.444-0.199-0.444-0.443v-2.662c0-0.246,0.198-0.445,0.444-0.445h7.877  c0.244,0,0.443,0.199,0.443,0.445v2.662c0,0.244-0.199,0.443-0.443,0.443H8.787z" fill="url(#SVGID_12_)"/>
<path d="M23.061,24.904c0,0.491-0.396,0.888-0.887,0.888h-5.663c-0.489,0-0.888-0.396-0.888-0.888v-2.663  c0-0.49,0.398-0.888,0.888-0.888h5.663c0.49,0,0.887,0.398,0.887,0.888V24.904z" fill-opacity="0.25" stroke-opacity="0.25"/>
<linearGradient gradientUnits="userSpaceOnUse" id="SVGID_13_" x1="19.3418" x2="19.3418" y1="20.854" y2="25.3329">
<stop offset="0" style="stop-color:#ECF4F8"/>
<stop offset="0.7939" style="stop-color:#A0A6A7"/>
<stop offset="1" style="stop-color:#CEDBE0"/>
</linearGradient>
<path d="M23.061,24.424c0,0.49-0.396,0.888-0.887,0.888h-5.663c-0.489,0-0.888-0.397-0.888-0.888v-2.662  c0-0.491,0.398-0.888,0.888-0.888h5.663c0.49,0,0.887,0.397,0.887,0.888V24.424z" fill="url(#SVGID_13_)"/>
<linearGradient gradientUnits="userSpaceOnUse" id="SVGID_14_" x1="22.7197" x2="16.1009" y1="23.0928" y2="23.0928">
<stop offset="0" style="stop-color:#E4EBED"/>
<stop offset="0.8364" style="stop-color:#C5CFD2"/>
<stop offset="0.9758" style="stop-color:#D2D9DB"/>
<stop offset="1" style="stop-color:#D2D9DB"/>
</linearGradient>
<path d="M16.511,24.868c-0.245,0-0.444-0.199-0.444-0.444v-2.662c0-0.245,0.199-0.444,0.444-0.444h5.663  c0.244,0,0.443,0.199,0.443,0.444v2.662c0,0.245-0.199,0.444-0.443,0.444H16.511z" fill="url(#SVGID_14_)"/>
<path d="M28.387,24.904c0,0.491-0.398,0.888-0.888,0.888h-2.663c-0.49,0-0.887-0.396-0.887-0.888v-2.663  c0-0.49,0.396-0.888,0.887-0.888h2.663c0.489,0,0.888,0.398,0.888,0.888V24.904z" fill-opacity="0.25" stroke-opacity="0.25"/>
<linearGradient gradientUnits="userSpaceOnUse" id="SVGID_15_" x1="26.168" x2="26.168" y1="20.854" y2="25.3329">
<stop offset="0" style="stop-color:#ECF4F8"/>
<stop offset="0.7939" style="stop-color:#A0A6A7"/>
<stop offset="1" style="stop-color:#CEDBE0"/>
</linearGradient>
<path d="M28.387,24.424c0,0.49-0.398,0.888-0.888,0.888h-2.663c-0.49,0-0.887-0.397-0.887-0.888v-2.662  c0-0.491,0.396-0.888,0.887-0.888h2.663c0.489,0,0.888,0.397,0.888,0.888V24.424z" fill="url(#SVGID_15_)"/>
<linearGradient gradientUnits="userSpaceOnUse" id="SVGID_16_" x1="27.999" x2="24.4114" y1="23.0928" y2="23.0928">
<stop offset="0" style="stop-color:#E4EBED"/>
<stop offset="0.8364" style="stop-color:#C5CFD2"/>
<stop offset="0.9758" style="stop-color:#D2D9DB"/>
<stop offset="1" style="stop-color:#D2D9DB"/>
</linearGradient>
<path d="M24.836,24.868c-0.244,0-0.443-0.199-0.443-0.444v-2.662c0-0.245,0.199-0.444,0.443-0.444h2.663  c0.245,0,0.444,0.199,0.444,0.444v2.662c0,0.245-0.199,0.444-0.444,0.444H24.836z" fill="url(#SVGID_16_)"/>
<path d="M33.712,24.904c0,0.491-0.397,0.888-0.888,0.888h-2.662c-0.49,0-0.889-0.396-0.889-0.888v-2.663  c0-0.49,0.398-0.888,0.889-0.888h2.662c0.49,0,0.888,0.398,0.888,0.888V24.904z" fill-opacity="0.25" stroke-opacity="0.25"/>
<linearGradient gradientUnits="userSpaceOnUse" id="SVGID_17_" x1="31.4932" x2="31.4932" y1="20.854" y2="25.3329">
<stop offset="0" style="stop-color:#ECF4F8"/>
<stop offset="0.7939" style="stop-color:#A0A6A7"/>
<stop offset="1" style="stop-color:#CEDBE0"/>
</linearGradient>
<path d="M33.712,24.424c0,0.49-0.397,0.888-0.888,0.888h-2.662c-0.49,0-0.889-0.397-0.889-0.888v-2.662  c0-0.491,0.398-0.888,0.889-0.888h2.662c0.49,0,0.888,0.397,0.888,0.888V24.424z" fill="url(#SVGID_17_)"/>
<linearGradient gradientUnits="userSpaceOnUse" id="SVGID_18_" x1="33.3232" x2="29.7371" y1="23.0928" y2="23.0928">
<stop offset="0" style="stop-color:#E4EBED"/>
<stop offset="0.8364" style="stop-color:#C5CFD2"/>
<stop offset="0.9758" style="stop-color:#D2D9DB"/>
<stop offset="1" style="stop-color:#D2D9DB"/>
</linearGradient>
<path d="M30.162,24.868c-0.245,0-0.444-0.199-0.444-0.444v-2.662c0-0.245,0.199-0.444,0.444-0.444h2.662  c0.246,0,0.443,0.199,0.443,0.444v2.662c0,0.245-0.197,0.444-0.443,0.444H30.162z" fill="url(#SVGID_18_)"/>
<path d="M39.037,24.904c0,0.491-0.396,0.888-0.887,0.888h-2.662c-0.492,0-0.889-0.396-0.889-0.888v-2.663  c0-0.49,0.396-0.888,0.889-0.888h2.662c0.49,0,0.887,0.398,0.887,0.888V24.904z" fill-opacity="0.25" stroke-opacity="0.25"/>
<linearGradient gradientUnits="userSpaceOnUse" id="SVGID_19_" x1="36.8184" x2="36.8184" y1="20.854" y2="25.3329">
<stop offset="0" style="stop-color:#ECF4F8"/>
<stop offset="0.7939" style="stop-color:#A0A6A7"/>
<stop offset="1" style="stop-color:#CEDBE0"/>
</linearGradient>
<path d="M39.037,24.424c0,0.49-0.396,0.888-0.887,0.888h-2.662c-0.492,0-0.889-0.397-0.889-0.888v-2.662  c0-0.491,0.396-0.888,0.889-0.888h2.662c0.49,0,0.887,0.397,0.887,0.888V24.424z" fill="url(#SVGID_19_)"/>
<linearGradient gradientUnits="userSpaceOnUse" id="SVGID_20_" x1="38.6494" x2="35.0618" y1="23.0928" y2="23.0928">
<stop offset="0" style="stop-color:#E4EBED"/>
<stop offset="0.8364" style="stop-color:#C5CFD2"/>
<stop offset="0.9758" style="stop-color:#D2D9DB"/>
<stop offset="1" style="stop-color:#D2D9DB"/>
</linearGradient>
<path d="M35.488,24.868c-0.246,0-0.445-0.199-0.445-0.444v-2.662c0-0.245,0.199-0.444,0.445-0.444h2.662  c0.244,0,0.443,0.199,0.443,0.444v2.662c0,0.245-0.199,0.444-0.443,0.444H35.488z" fill="url(#SVGID_20_)"/>
<path d="M44.418,24.904c0,0.491-0.396,0.888-0.887,0.888h-2.663c-0.491,0-0.888-0.396-0.888-0.888v-2.663  c0-0.49,0.396-0.888,0.888-0.888h2.663c0.49,0,0.887,0.398,0.887,0.888V24.904z" fill-opacity="0.25" stroke-opacity="0.25"/>
<linearGradient gradientUnits="userSpaceOnUse" id="SVGID_21_" x1="42.1992" x2="42.1992" y1="20.854" y2="25.3329">
<stop offset="0" style="stop-color:#ECF4F8"/>
<stop offset="0.7939" style="stop-color:#A0A6A7"/>
<stop offset="1" style="stop-color:#CEDBE0"/>
</linearGradient>
<path d="M44.418,24.424c0,0.49-0.396,0.888-0.887,0.888h-2.663c-0.491,0-0.888-0.397-0.888-0.888v-2.662  c0-0.491,0.396-0.888,0.888-0.888h2.663c0.49,0,0.887,0.397,0.887,0.888V24.424z" fill="url(#SVGID_21_)"/>
<linearGradient gradientUnits="userSpaceOnUse" id="SVGID_22_" x1="44.0303" x2="40.4426" y1="23.0928" y2="23.0928">
<stop offset="0" style="stop-color:#E4EBED"/>
<stop offset="0.8364" style="stop-color:#C5CFD2"/>
<stop offset="0.9758" style="stop-color:#D2D9DB"/>
<stop offset="1" style="stop-color:#D2D9DB"/>
</linearGradient>
<path d="M40.868,24.868c-0.245,0-0.444-0.199-0.444-0.444v-2.662c0-0.245,0.199-0.444,0.444-0.444h2.663  c0.244,0,0.443,0.199,0.443,0.444v2.662c0,0.245-0.199,0.444-0.443,0.444H40.868z" fill="url(#SVGID_22_)"/>
<path d="M52.102,24.904c0,0.491-0.397,0.888-0.888,0.888h-5.021c-0.49,0-0.887-0.396-0.887-0.888v-2.663  c0-0.49,0.396-0.888,0.887-0.888h5.021c0.49,0,0.888,0.398,0.888,0.888V24.904z" fill-opacity="0.25" stroke-opacity="0.25"/>
<linearGradient gradientUnits="userSpaceOnUse" id="SVGID_23_" x1="48.7041" x2="48.7041" y1="20.854" y2="25.3329">
<stop offset="0" style="stop-color:#ECF4F8"/>
<stop offset="0.7939" style="stop-color:#A0A6A7"/>
<stop offset="1" style="stop-color:#CEDBE0"/>
</linearGradient>
<path d="M52.102,24.424c0,0.49-0.397,0.888-0.888,0.888h-5.021c-0.49,0-0.887-0.397-0.887-0.888v-2.662  c0-0.491,0.396-0.888,0.887-0.888h5.021c0.49,0,0.888,0.397,0.888,0.888V24.424z" fill="url(#SVGID_23_)"/>
<linearGradient gradientUnits="userSpaceOnUse" id="SVGID_24_" x1="51.751" x2="45.7814" y1="23.0928" y2="23.0928">
<stop offset="0" style="stop-color:#E4EBED"/>
<stop offset="0.8364" style="stop-color:#C5CFD2"/>
<stop offset="0.9758" style="stop-color:#D2D9DB"/>
<stop offset="1" style="stop-color:#D2D9DB"/>
</linearGradient>
<path d="M46.193,24.868c-0.245,0-0.443-0.199-0.443-0.444v-2.662c0-0.245,0.198-0.444,0.443-0.444h5.021  c0.245,0,0.444,0.199,0.444,0.444v2.662c0,0.245-0.199,0.444-0.444,0.444H46.193z" fill="url(#SVGID_24_)"/>
<path d="M46.775,30.063c0,0.49-0.397,0.889-0.888,0.889h-5.021c-0.49,0-0.887-0.398-0.887-0.889v-2.662  c0-0.49,0.396-0.889,0.887-0.889h5.021c0.49,0,0.888,0.398,0.888,0.889V30.063z" fill-opacity="0.25" stroke-opacity="0.25"/>
<linearGradient gradientUnits="userSpaceOnUse" id="SVGID_25_" x1="43.3779" x2="43.3779" y1="26.0132" y2="30.4921">
<stop offset="0" style="stop-color:#ECF4F8"/>
<stop offset="0.7939" style="stop-color:#A0A6A7"/>
<stop offset="1" style="stop-color:#CEDBE0"/>
</linearGradient>
<path d="M46.775,29.583c0,0.49-0.397,0.888-0.888,0.888h-5.021c-0.49,0-0.887-0.397-0.887-0.888v-2.662  c0-0.49,0.396-0.888,0.887-0.888h5.021c0.49,0,0.888,0.397,0.888,0.888V29.583z" fill="url(#SVGID_25_)"/>
<linearGradient gradientUnits="userSpaceOnUse" id="SVGID_26_" x1="46.4248" x2="40.4553" y1="28.252" y2="28.252">
<stop offset="0" style="stop-color:#E4EBED"/>
<stop offset="0.8364" style="stop-color:#C5CFD2"/>
<stop offset="0.9758" style="stop-color:#D2D9DB"/>
<stop offset="1" style="stop-color:#D2D9DB"/>
</linearGradient>
<path d="M40.867,30.026c-0.245,0-0.443-0.198-0.443-0.443v-2.662c0-0.245,0.198-0.443,0.443-0.443h5.021  c0.245,0,0.444,0.198,0.444,0.443v2.662c0,0.245-0.199,0.443-0.444,0.443H40.867z" fill="url(#SVGID_26_)"/>
<path d="M14.551,24.904c0,0.491-0.396,0.888-0.887,0.888H8.787c-0.491,0-0.889-0.396-0.889-0.888v-2.663  c0-0.49,0.397-0.888,0.889-0.888h4.877c0.49,0,0.887,0.398,0.887,0.888V24.904z" fill-opacity="0.25" stroke-opacity="0.25"/>
<linearGradient gradientUnits="userSpaceOnUse" id="SVGID_27_" x1="11.2246" x2="11.2246" y1="20.854" y2="25.3329">
<stop offset="0" style="stop-color:#ECF4F8"/>
<stop offset="0.7939" style="stop-color:#A0A6A7"/>
<stop offset="1" style="stop-color:#CEDBE0"/>
</linearGradient>
<path d="M14.551,24.424c0,0.49-0.396,0.888-0.887,0.888H8.787c-0.491,0-0.889-0.397-0.889-0.888v-2.662  c0-0.491,0.397-0.888,0.889-0.888h4.877c0.49,0,0.887,0.397,0.887,0.888V24.424z" fill="url(#SVGID_27_)"/>
<linearGradient gradientUnits="userSpaceOnUse" id="SVGID_28_" x1="14.1973" x2="8.3728" y1="23.0928" y2="23.0928">
<stop offset="0" style="stop-color:#E4EBED"/>
<stop offset="0.8364" style="stop-color:#C5CFD2"/>
<stop offset="0.9758" style="stop-color:#D2D9DB"/>
<stop offset="1" style="stop-color:#D2D9DB"/>
</linearGradient>
<path d="M8.787,24.868c-0.246,0-0.444-0.199-0.444-0.444v-2.662c0-0.245,0.198-0.444,0.444-0.444h4.877  c0.244,0,0.443,0.199,0.443,0.444v2.662c0,0.245-0.199,0.444-0.443,0.444H8.787z" fill="url(#SVGID_28_)"/>
<path d="M12.337,30.063c0,0.49-0.397,0.889-0.888,0.889H8.787c-0.491,0-0.889-0.398-0.889-0.889v-2.662  c0-0.49,0.397-0.888,0.889-0.888h2.662c0.49,0,0.888,0.397,0.888,0.888V30.063z" fill-opacity="0.25" stroke-opacity="0.25"/>
<linearGradient gradientUnits="userSpaceOnUse" id="SVGID_29_" x1="10.1177" x2="10.1177" y1="26.0132" y2="30.4921">
<stop offset="0" style="stop-color:#ECF4F8"/>
<stop offset="0.7939" style="stop-color:#A0A6A7"/>
<stop offset="1" style="stop-color:#CEDBE0"/>
</linearGradient>
<path d="M12.337,29.583c0,0.49-0.397,0.888-0.888,0.888H8.787c-0.491,0-0.889-0.397-0.889-0.888v-2.662  c0-0.49,0.397-0.888,0.889-0.888h2.662c0.49,0,0.888,0.397,0.888,0.888V29.583z" fill="url(#SVGID_29_)"/>
<linearGradient gradientUnits="userSpaceOnUse" id="SVGID_30_" x1="11.9482" x2="8.3616" y1="28.252" y2="28.252">
<stop offset="0" style="stop-color:#E4EBED"/>
<stop offset="0.8364" style="stop-color:#C5CFD2"/>
<stop offset="0.9758" style="stop-color:#D2D9DB"/>
<stop offset="1" style="stop-color:#D2D9DB"/>
</linearGradient>
<path d="M8.787,30.027c-0.246,0-0.444-0.199-0.444-0.444v-2.662c0-0.246,0.198-0.444,0.444-0.444h2.662  c0.244,0,0.443,0.198,0.443,0.444v2.662c0,0.245-0.199,0.444-0.443,0.444H8.787z" fill="url(#SVGID_30_)"/>
<path d="M17.662,30.063c0,0.49-0.397,0.889-0.889,0.889h-2.662c-0.49,0-0.887-0.398-0.887-0.889v-2.662  c0-0.49,0.396-0.888,0.887-0.888h2.662c0.491,0,0.889,0.397,0.889,0.888V30.063z" fill-opacity="0.25" stroke-opacity="0.25"/>
<linearGradient gradientUnits="userSpaceOnUse" id="SVGID_31_" x1="15.4434" x2="15.4434" y1="26.0132" y2="30.4921">
<stop offset="0" style="stop-color:#ECF4F8"/>
<stop offset="0.7939" style="stop-color:#A0A6A7"/>
<stop offset="1" style="stop-color:#CEDBE0"/>
</linearGradient>
<path d="M17.662,29.583c0,0.49-0.397,0.888-0.889,0.888h-2.662c-0.49,0-0.887-0.397-0.887-0.888v-2.662  c0-0.49,0.396-0.888,0.887-0.888h2.662c0.491,0,0.889,0.397,0.889,0.888V29.583z" fill="url(#SVGID_31_)"/>
<linearGradient gradientUnits="userSpaceOnUse" id="SVGID_32_" x1="17.2734" x2="13.6868" y1="28.252" y2="28.252">
<stop offset="0" style="stop-color:#E4EBED"/>
<stop offset="0.8364" style="stop-color:#C5CFD2"/>
<stop offset="0.9758" style="stop-color:#D2D9DB"/>
<stop offset="1" style="stop-color:#D2D9DB"/>
</linearGradient>
<path d="M14.111,30.027c-0.244,0-0.443-0.199-0.443-0.444v-2.662c0-0.246,0.199-0.444,0.443-0.444h2.662  c0.246,0,0.444,0.198,0.444,0.444v2.662c0,0.245-0.198,0.444-0.444,0.444H14.111z" fill="url(#SVGID_32_)"/>
<path d="M22.988,30.063c0,0.49-0.398,0.889-0.889,0.889h-2.662c-0.49,0-0.889-0.398-0.889-0.889v-2.662  c0-0.49,0.398-0.888,0.889-0.888H22.1c0.49,0,0.889,0.397,0.889,0.888V30.063z" fill-opacity="0.25" stroke-opacity="0.25"/>
<linearGradient gradientUnits="userSpaceOnUse" id="SVGID_33_" x1="20.7686" x2="20.7686" y1="26.0132" y2="30.4921">
<stop offset="0" style="stop-color:#ECF4F8"/>
<stop offset="0.7939" style="stop-color:#A0A6A7"/>
<stop offset="1" style="stop-color:#CEDBE0"/>
</linearGradient>
<path d="M22.988,29.583c0,0.49-0.398,0.888-0.889,0.888h-2.662c-0.49,0-0.889-0.397-0.889-0.888v-2.662  c0-0.49,0.398-0.888,0.889-0.888H22.1c0.49,0,0.889,0.397,0.889,0.888V29.583z" fill="url(#SVGID_33_)"/>
<linearGradient gradientUnits="userSpaceOnUse" id="SVGID_34_" x1="22.5986" x2="19.012" y1="28.252" y2="28.252">
<stop offset="0" style="stop-color:#E4EBED"/>
<stop offset="0.8364" style="stop-color:#C5CFD2"/>
<stop offset="0.9758" style="stop-color:#D2D9DB"/>
<stop offset="1" style="stop-color:#D2D9DB"/>
</linearGradient>
<path d="M19.438,30.027c-0.245,0-0.444-0.199-0.444-0.444v-2.662c0-0.246,0.199-0.444,0.444-0.444H22.1  c0.245,0,0.443,0.198,0.443,0.444v2.662c0,0.245-0.198,0.444-0.443,0.444H19.438z" fill="url(#SVGID_34_)"/>
<path d="M28.313,30.063c0,0.49-0.396,0.889-0.887,0.889h-2.664c-0.489,0-0.887-0.398-0.887-0.889v-2.662  c0-0.49,0.397-0.888,0.887-0.888h2.664c0.49,0,0.887,0.397,0.887,0.888V30.063z" fill-opacity="0.25" stroke-opacity="0.25"/>
<linearGradient gradientUnits="userSpaceOnUse" id="SVGID_35_" x1="26.0938" x2="26.0938" y1="26.0132" y2="30.4921">
<stop offset="0" style="stop-color:#ECF4F8"/>
<stop offset="0.7939" style="stop-color:#A0A6A7"/>
<stop offset="1" style="stop-color:#CEDBE0"/>
</linearGradient>
<path d="M28.313,29.583c0,0.49-0.396,0.888-0.887,0.888h-2.664c-0.489,0-0.887-0.397-0.887-0.888v-2.662  c0-0.49,0.397-0.888,0.887-0.888h2.664c0.49,0,0.887,0.397,0.887,0.888V29.583z" fill="url(#SVGID_35_)"/>
<linearGradient gradientUnits="userSpaceOnUse" id="SVGID_36_" x1="27.9248" x2="24.3372" y1="28.252" y2="28.252">
<stop offset="0" style="stop-color:#E4EBED"/>
<stop offset="0.8364" style="stop-color:#C5CFD2"/>
<stop offset="0.9758" style="stop-color:#D2D9DB"/>
<stop offset="1" style="stop-color:#D2D9DB"/>
</linearGradient>
<path d="M24.762,30.027c-0.244,0-0.443-0.199-0.443-0.444v-2.662c0-0.246,0.199-0.444,0.443-0.444h2.664  c0.244,0,0.443,0.198,0.443,0.444v2.662c0,0.245-0.199,0.444-0.443,0.444H24.762z" fill="url(#SVGID_36_)"/>
<path d="M33.693,30.063c0,0.49-0.396,0.889-0.887,0.889h-2.664c-0.488,0-0.887-0.398-0.887-0.889v-2.662  c0-0.49,0.398-0.888,0.887-0.888h2.664c0.49,0,0.887,0.397,0.887,0.888V30.063z" fill-opacity="0.25" stroke-opacity="0.25"/>
<linearGradient gradientUnits="userSpaceOnUse" id="SVGID_37_" x1="31.4746" x2="31.4746" y1="26.0132" y2="30.4921">
<stop offset="0" style="stop-color:#ECF4F8"/>
<stop offset="0.7939" style="stop-color:#A0A6A7"/>
<stop offset="1" style="stop-color:#CEDBE0"/>
</linearGradient>
<path d="M33.693,29.583c0,0.49-0.396,0.888-0.887,0.888h-2.664c-0.488,0-0.887-0.397-0.887-0.888v-2.662  c0-0.49,0.398-0.888,0.887-0.888h2.664c0.49,0,0.887,0.397,0.887,0.888V29.583z" fill="url(#SVGID_37_)"/>
<linearGradient gradientUnits="userSpaceOnUse" id="SVGID_38_" x1="33.3057" x2="29.7185" y1="28.252" y2="28.252">
<stop offset="0" style="stop-color:#E4EBED"/>
<stop offset="0.8364" style="stop-color:#C5CFD2"/>
<stop offset="0.9758" style="stop-color:#D2D9DB"/>
<stop offset="1" style="stop-color:#D2D9DB"/>
</linearGradient>
<path d="M30.143,30.027c-0.244,0-0.443-0.199-0.443-0.444v-2.662c0-0.246,0.199-0.444,0.443-0.444h2.664  c0.244,0,0.443,0.198,0.443,0.444v2.662c0,0.245-0.199,0.444-0.443,0.444H30.143z" fill="url(#SVGID_38_)"/>
<path d="M39.037,30.063c0,0.49-0.396,0.889-0.887,0.889h-2.662c-0.492,0-0.889-0.398-0.889-0.889v-2.662  c0-0.49,0.396-0.888,0.889-0.888h2.662c0.49,0,0.887,0.397,0.887,0.888V30.063z" fill-opacity="0.25" stroke-opacity="0.25"/>
<linearGradient gradientUnits="userSpaceOnUse" id="SVGID_39_" x1="36.8184" x2="36.8184" y1="26.0132" y2="30.4921">
<stop offset="0" style="stop-color:#ECF4F8"/>
<stop offset="0.7939" style="stop-color:#A0A6A7"/>
<stop offset="1" style="stop-color:#CEDBE0"/>
</linearGradient>
<path d="M39.037,29.583c0,0.49-0.396,0.888-0.887,0.888h-2.662c-0.492,0-0.889-0.397-0.889-0.888v-2.662  c0-0.49,0.396-0.888,0.889-0.888h2.662c0.49,0,0.887,0.397,0.887,0.888V29.583z" fill="url(#SVGID_39_)"/>
<linearGradient gradientUnits="userSpaceOnUse" id="SVGID_40_" x1="38.6494" x2="35.0618" y1="28.252" y2="28.252">
<stop offset="0" style="stop-color:#E4EBED"/>
<stop offset="0.8364" style="stop-color:#C5CFD2"/>
<stop offset="0.9758" style="stop-color:#D2D9DB"/>
<stop offset="1" style="stop-color:#D2D9DB"/>
</linearGradient>
<path d="M35.488,30.027c-0.246,0-0.445-0.199-0.445-0.444v-2.662c0-0.246,0.199-0.444,0.445-0.444h2.662  c0.244,0,0.443,0.198,0.443,0.444v2.662c0,0.245-0.199,0.444-0.443,0.444H35.488z" fill="url(#SVGID_40_)"/>
<path d="M52.102,35.278c0,0.49-0.397,0.889-0.888,0.889H40.868c-0.491,0-0.888-0.398-0.888-0.889v-2.662  c0-0.49,0.396-0.887,0.888-0.887h10.346c0.49,0,0.888,0.396,0.888,0.887V35.278z" fill-opacity="0.25" stroke-opacity="0.25"/>
<linearGradient gradientUnits="userSpaceOnUse" id="SVGID_41_" x1="46.041" x2="46.041" y1="26.0435" y2="35.6712">
<stop offset="0" style="stop-color:#8C8C8C"/>
<stop offset="1" style="stop-color:#2E2E2E"/>
</linearGradient>
<path d="M51.215,26.033h-2.662c-0.492,0-0.889,0.397-0.889,0.888v4.328h-6.796  c-0.491,0-0.888,0.396-0.888,0.887v2.662c0,0.49,0.396,0.889,0.888,0.889h10.346c0.49,0,0.888-0.398,0.888-0.889v-7.877  C52.102,26.431,51.705,26.033,51.215,26.033z" fill="url(#SVGID_41_)"/>
<linearGradient gradientUnits="userSpaceOnUse" id="SVGID_42_" x1="46.041" x2="46.041" y1="26.4497" y2="35.2351">
<stop offset="0" style="stop-color:#686868"/>
<stop offset="1" style="stop-color:#000000"/>
</linearGradient>
<path d="M51.215,26.477h-2.662c-0.246,0-0.445,0.198-0.445,0.444v4.771h-7.239  c-0.245,0-0.444,0.197-0.444,0.443v2.662c0,0.246,0.199,0.445,0.444,0.445h10.346c0.245,0,0.444-0.199,0.444-0.445v-7.877  C51.658,26.675,51.459,26.477,51.215,26.477z" fill="url(#SVGID_42_)"/>
<path d="M23.061,40.548c0,0.49-0.396,0.889-0.887,0.889h-2.663c-0.489,0-0.888-0.398-0.888-0.889v-2.662  c0-0.49,0.398-0.889,0.888-0.889h2.663c0.49,0,0.887,0.398,0.887,0.889V40.548z" fill-opacity="0.25" stroke-opacity="0.25"/>
<linearGradient gradientUnits="userSpaceOnUse" id="SVGID_43_" x1="20.8418" x2="20.8418" y1="36.498" y2="40.9769">
<stop offset="0" style="stop-color:#ECF4F8"/>
<stop offset="0.7939" style="stop-color:#A0A6A7"/>
<stop offset="1" style="stop-color:#CEDBE0"/>
</linearGradient>
<path d="M23.061,40.067c0,0.49-0.396,0.889-0.887,0.889h-2.663c-0.489,0-0.888-0.398-0.888-0.889v-2.662  c0-0.49,0.398-0.887,0.888-0.887h2.663c0.49,0,0.887,0.396,0.887,0.887V40.067z" fill="url(#SVGID_43_)"/>
<linearGradient gradientUnits="userSpaceOnUse" id="SVGID_44_" x1="22.6729" x2="19.0852" y1="38.7363" y2="38.7363">
<stop offset="0" style="stop-color:#E4EBED"/>
<stop offset="0.8364" style="stop-color:#C5CFD2"/>
<stop offset="0.9758" style="stop-color:#D2D9DB"/>
<stop offset="1" style="stop-color:#D2D9DB"/>
</linearGradient>
<path d="M19.511,40.511c-0.245,0-0.444-0.197-0.444-0.443v-2.662c0-0.246,0.199-0.443,0.444-0.443h2.663  c0.244,0,0.443,0.197,0.443,0.443v2.662c0,0.246-0.199,0.443-0.443,0.443H19.511z" fill="url(#SVGID_44_)"/>
<path d="M17.699,40.548c0,0.49-0.398,0.889-0.889,0.889h-2.662c-0.49,0-0.887-0.398-0.887-0.889v-2.662  c0-0.49,0.396-0.889,0.887-0.889h2.662c0.49,0,0.889,0.398,0.889,0.889V40.548z" fill-opacity="0.25" stroke-opacity="0.25"/>
<linearGradient gradientUnits="userSpaceOnUse" id="SVGID_45_" x1="15.4805" x2="15.4805" y1="36.498" y2="40.9769">
<stop offset="0" style="stop-color:#ECF4F8"/>
<stop offset="0.7939" style="stop-color:#A0A6A7"/>
<stop offset="1" style="stop-color:#CEDBE0"/>
</linearGradient>
<path d="M17.699,40.067c0,0.49-0.398,0.889-0.889,0.889h-2.662c-0.49,0-0.887-0.398-0.887-0.889v-2.662  c0-0.49,0.396-0.887,0.887-0.887h2.662c0.49,0,0.889,0.396,0.889,0.887V40.067z" fill="url(#SVGID_45_)"/>
<linearGradient gradientUnits="userSpaceOnUse" id="SVGID_46_" x1="17.3105" x2="13.7239" y1="38.7363" y2="38.7363">
<stop offset="0" style="stop-color:#E4EBED"/>
<stop offset="0.8364" style="stop-color:#C5CFD2"/>
<stop offset="0.9758" style="stop-color:#D2D9DB"/>
<stop offset="1" style="stop-color:#D2D9DB"/>
</linearGradient>
<path d="M14.148,40.511c-0.244,0-0.443-0.197-0.443-0.443v-2.662c0-0.246,0.199-0.443,0.443-0.443h2.662  c0.246,0,0.444,0.197,0.444,0.443v2.662c0,0.246-0.198,0.443-0.444,0.443H14.148z" fill="url(#SVGID_46_)"/>
<path d="M12.337,40.548c0,0.49-0.397,0.889-0.888,0.889H8.787c-0.491,0-0.889-0.398-0.889-0.889v-2.662  c0-0.49,0.397-0.889,0.889-0.889h2.662c0.49,0,0.888,0.398,0.888,0.889V40.548z" fill-opacity="0.25" stroke-opacity="0.25"/>
<linearGradient gradientUnits="userSpaceOnUse" id="SVGID_47_" x1="10.1177" x2="10.1177" y1="36.498" y2="40.9769">
<stop offset="0" style="stop-color:#ECF4F8"/>
<stop offset="0.7939" style="stop-color:#A0A6A7"/>
<stop offset="1" style="stop-color:#CEDBE0"/>
</linearGradient>
<path d="M12.337,40.067c0,0.49-0.397,0.889-0.888,0.889H8.787c-0.491,0-0.889-0.398-0.889-0.889v-2.662  c0-0.49,0.397-0.887,0.889-0.887h2.662c0.49,0,0.888,0.396,0.888,0.887V40.067z" fill="url(#SVGID_47_)"/>
<linearGradient gradientUnits="userSpaceOnUse" id="SVGID_48_" x1="11.9482" x2="8.3616" y1="38.7363" y2="38.7363">
<stop offset="0" style="stop-color:#E4EBED"/>
<stop offset="0.8364" style="stop-color:#C5CFD2"/>
<stop offset="0.9758" style="stop-color:#D2D9DB"/>
<stop offset="1" style="stop-color:#D2D9DB"/>
</linearGradient>
<path d="M8.787,40.511c-0.246,0-0.444-0.197-0.444-0.443v-2.662c0-0.246,0.198-0.443,0.444-0.443h2.662  c0.244,0,0.443,0.197,0.443,0.443v2.662c0,0.246-0.199,0.443-0.443,0.443H8.787z" fill="url(#SVGID_48_)"/>
<path d="M46.859,40.548c0,0.49-0.398,0.889-0.888,0.889h-2.663c-0.49,0-0.887-0.398-0.887-0.889v-2.662  c0-0.49,0.396-0.889,0.887-0.889h2.663c0.489,0,0.888,0.398,0.888,0.889V40.548z" fill-opacity="0.25" stroke-opacity="0.25"/>
<linearGradient gradientUnits="userSpaceOnUse" id="SVGID_49_" x1="44.6406" x2="44.6406" y1="36.498" y2="40.9769">
<stop offset="0" style="stop-color:#ECF4F8"/>
<stop offset="0.7939" style="stop-color:#A0A6A7"/>
<stop offset="1" style="stop-color:#CEDBE0"/>
</linearGradient>
<path d="M46.859,40.067c0,0.49-0.398,0.889-0.888,0.889h-2.663c-0.49,0-0.887-0.398-0.887-0.889v-2.662  c0-0.49,0.396-0.887,0.887-0.887h2.663c0.489,0,0.888,0.396,0.888,0.887V40.067z" fill="url(#SVGID_49_)"/>
<linearGradient gradientUnits="userSpaceOnUse" id="SVGID_50_" x1="46.4717" x2="42.884" y1="38.7363" y2="38.7363">
<stop offset="0" style="stop-color:#E4EBED"/>
<stop offset="0.8364" style="stop-color:#C5CFD2"/>
<stop offset="0.9758" style="stop-color:#D2D9DB"/>
<stop offset="1" style="stop-color:#D2D9DB"/>
</linearGradient>
<path d="M43.309,40.511c-0.244,0-0.443-0.197-0.443-0.443v-2.662c0-0.246,0.199-0.443,0.443-0.443h2.663  c0.245,0,0.444,0.197,0.444,0.443v2.662c0,0.246-0.199,0.443-0.444,0.443H43.309z" fill="url(#SVGID_50_)"/>
<path d="M52.102,40.548c0,0.49-0.397,0.889-0.888,0.889h-2.663c-0.49,0-0.887-0.398-0.887-0.889v-2.662  c0-0.49,0.396-0.889,0.887-0.889h2.663c0.49,0,0.888,0.398,0.888,0.889V40.548z" fill-opacity="0.25" stroke-opacity="0.25"/>
<linearGradient gradientUnits="userSpaceOnUse" id="SVGID_51_" x1="49.8828" x2="49.8828" y1="36.498" y2="40.9769">
<stop offset="0" style="stop-color:#ECF4F8"/>
<stop offset="0.7939" style="stop-color:#A0A6A7"/>
<stop offset="1" style="stop-color:#CEDBE0"/>
</linearGradient>
<path d="M52.102,40.067c0,0.49-0.397,0.889-0.888,0.889h-2.663c-0.49,0-0.887-0.398-0.887-0.889v-2.662  c0-0.49,0.396-0.887,0.887-0.887h2.663c0.49,0,0.888,0.396,0.888,0.887V40.067z" fill="url(#SVGID_51_)"/>
<linearGradient gradientUnits="userSpaceOnUse" id="SVGID_52_" x1="51.7139" x2="48.1262" y1="38.7363" y2="38.7363">
<stop offset="0" style="stop-color:#E4EBED"/>
<stop offset="0.8364" style="stop-color:#C5CFD2"/>
<stop offset="0.9758" style="stop-color:#D2D9DB"/>
<stop offset="1" style="stop-color:#D2D9DB"/>
</linearGradient>
<path d="M48.551,40.511c-0.244,0-0.443-0.197-0.443-0.443v-2.662c0-0.246,0.199-0.443,0.443-0.443h2.663  c0.245,0,0.444,0.197,0.444,0.443v2.662c0,0.246-0.199,0.443-0.444,0.443H48.551z" fill="url(#SVGID_52_)"/>
<path d="M41.479,40.493c0,0.49-0.398,0.887-0.888,0.887H24.614c-0.489,0-0.888-0.396-0.888-0.887v-2.662  c0-0.49,0.398-0.889,0.888-0.889h15.977c0.489,0,0.888,0.398,0.888,0.889V40.493z" fill-opacity="0.25" stroke-opacity="0.25"/>
<linearGradient gradientUnits="userSpaceOnUse" id="SVGID_53_" x1="32.6025" x2="32.6025" y1="36.4414" y2="40.9203">
<stop offset="0" style="stop-color:#ECF4F8"/>
<stop offset="0.7939" style="stop-color:#A0A6A7"/>
<stop offset="1" style="stop-color:#CEDBE0"/>
</linearGradient>
<path d="M41.479,40.013c0,0.49-0.398,0.887-0.888,0.887H24.614c-0.489,0-0.888-0.396-0.888-0.887v-2.664  c0-0.488,0.398-0.887,0.888-0.887h15.977c0.489,0,0.888,0.398,0.888,0.887V40.013z" fill="url(#SVGID_53_)"/>
<linearGradient gradientUnits="userSpaceOnUse" id="SVGID_54_" x1="41.2988" x2="24.259" y1="38.6807" y2="38.6807">
<stop offset="0" style="stop-color:#E4EBED"/>
<stop offset="0.8364" style="stop-color:#C5CFD2"/>
<stop offset="0.9758" style="stop-color:#D2D9DB"/>
<stop offset="1" style="stop-color:#D2D9DB"/>
</linearGradient>
<path d="M24.614,40.456c-0.245,0-0.444-0.199-0.444-0.443v-2.664c0-0.244,0.199-0.443,0.444-0.443h15.977  c0.245,0,0.444,0.199,0.444,0.443v2.664c0,0.244-0.199,0.443-0.444,0.443H24.614z" fill="url(#SVGID_54_)"/>
<rect fill="none" height="60.001" width="60"/>
</g>
</svg>
