<?xml version="1.0" encoding="UTF-8"?>
<!DOCTYPE svg PUBLIC "-//W3C//DTD SVG 1.1 Tiny//EN" "http://www.w3.org/Graphics/SVG/1.1/DTD/svg11-tiny.dtd">
<svg baseProfile="tiny" height="60" viewBox="0 0 60 60" width="60" xmlns="http://www.w3.org/2000/svg" xmlns:xlink="http://www.w3.org/1999/xlink">
<rect fill="none" height="60" width="60"/>
<rect fill="none" height="59.996" width="59.996"/>
<linearGradient gradientUnits="userSpaceOnUse" id="SVGID_1" x1="30.3" x2="30.3" y1="21.02" y2="51.38">
<stop offset="0" stop-color="#B5B9BC"/>
<stop offset="0.82" stop-color="#7C7E87"/>
<stop offset="1" stop-color="#94979D"/>
</linearGradient>
<path d="M12.856,21.427V50.2c0,0.677,0.548,1.225,1.224,1.225h32.447c0.676,0,1.225-0.548,1.225-1.225 V21.427H12.856z" fill="url(#SVGID_1)"/>
<linearGradient gradientUnits="userSpaceOnUse" id="SVGID_2" x1="30.3" x2="30.3" y1="21.02" y2="51.38">
<stop offset="0" stop-color="#6B6B6B"/>
<stop offset="0.72" stop-color="#363636"/>
<stop offset="0.96" stop-color="#5E5E5E"/>
<stop offset="1" stop-color="#5E5E5E"/>
</linearGradient>
<path d="M47.14,21.427v0.612v27.549V50.2c0,0.338-0.274,0.612-0.612,0.612H14.081 c-0.337,0-0.612-0.274-0.612-0.612v-0.612V22.039v-0.612h-0.612V50.2c0,0.677,0.548,1.225,1.224,1.225h32.447 c0.676,0,1.225-0.548,1.225-1.225V21.427H47.14z" fill="url(#SVGID_2)"/>
<linearGradient gradientUnits="userSpaceOnUse" id="SVGID_3" x1="30.3" x2="30.3" y1="21.02" y2="50.77">
<stop offset="0" stop-color="#D1D7D9"/>
<stop offset="0.07" stop-color="#D1D7D9"/>
<stop offset="0.26" stop-color="#CED3D6"/>
<stop offset="0.66" stop-color="#CEDBE0"/>
<stop offset="1" stop-color="#ADB3B5"/>
</linearGradient>
<path d="M46.527,21.729V50.2H14.121l0.017-28.773h-0.669V50.2 c0,0.339,0.316,0.612,0.653,0.612h32.406c0.338,0,0.611-0.273,0.611-0.612V21.729H46.527z" fill="url(#SVGID_3)" fill-opacity="0.6" stroke-opacity="0.6"/>
<linearGradient gradientUnits="userSpaceOnUse" id="SVGID_4" x1="30.3" x2="30.3" y1="6.71" y2="21.4">
<stop offset="0" stop-color="#B5B9BC"/>
<stop offset="0.82" stop-color="#7C7E87"/>
<stop offset="1" stop-color="#94979D"/>
</linearGradient>
<path d="M47.751,21.427V7.935c0.021-0.663-0.528-1.2-1.204-1.2H14.082c-0.677,0-1.226,0.537-1.226,1.2 v13.492H47.751z" fill="url(#SVGID_4)"/>
<linearGradient gradientUnits="userSpaceOnUse" id="SVGID_5" x1="30.3" x2="30.3" y1="7.33" y2="21.41">
<stop offset="0" stop-color="#D1D7D9"/>
<stop offset="0.07" stop-color="#D1D7D9"/>
<stop offset="0.26" stop-color="#CED3D6"/>
<stop offset="0.66" stop-color="#CEDBE0"/>
<stop offset="1" stop-color="#ADB3B5"/>
</linearGradient>
<path d="M46.988,7.529c-0.115-0.118-0.271-0.183-0.441-0.183 H14.082c-0.339,0-0.614,0.264-0.614,0.588v0.612v12.268v0.612h33.67L47.14,8.528V7.916C47.144,7.772,47.09,7.635,46.988,7.529z M46.527,8.528l-0.001,12.287H14.081V7.935l32.466,0.024L46.527,8.528z" fill="url(#SVGID_5)" fill-opacity="0.6" stroke-opacity="0.6"/>
<linearGradient gradientUnits="userSpaceOnUse" id="SVGID_6" x1="30.3" x2="30.3" y1="6.71" y2="21.4">
<stop offset="0" stop-color="#6B6B6B"/>
<stop offset="0.72" stop-color="#363636"/>
<stop offset="0.96" stop-color="#5E5E5E"/>
<stop offset="1" stop-color="#5E5E5E"/>
</linearGradient>
<path d="M46.547,6.734H14.082c-0.677,0-1.226,0.537-1.226,1.2v13.492h0.612v-0.612V8.547V7.935 c0-0.324,0.275-0.588,0.614-0.588h32.465c0.17,0,0.326,0.064,0.441,0.183c0.102,0.106,0.155,0.243,0.151,0.387v0.612l0,0 l-0.001,12.899h0.612V7.935C47.771,7.271,47.223,6.734,46.547,6.734z" fill="url(#SVGID_6)"/>
<linearGradient gradientUnits="userSpaceOnUse" id="SVGID_7" x1="30.3" x2="30.3" y1="9.81" y2="18.42">
<stop offset="0" stop-color="#686C6E"/>
<stop offset="1" stop-color="#CAD3D6"/>
</linearGradient>
<path d="M17.143,18.366c-0.676,0-1.226-0.562-1.226-1.25 v-6.072c0-0.689,0.55-1.25,1.226-1.25h26.322c0.676,0,1.226,0.56,1.226,1.25v6.072c0,0.688-0.55,1.25-1.226,1.25H17.143z" fill="url(#SVGID_7)" fill-opacity="0.4" stroke-opacity="0.4"/>
<linearGradient gradientUnits="userSpaceOnUse" id="SVGID_8" x1="30.3" x2="30.3" y1="10.45" y2="17.88">
<stop offset="0" stop-color="#171717"/>
<stop offset="1" stop-color="#2E2E2E"/>
</linearGradient>
<path d="M44.071,17.117c0,0.344-0.274,0.625-0.614,0.625H17.143c-0.338,0-0.613-0.28-0.613-0.625 v-6.072c0-0.345,0.274-0.625,0.613-0.625h26.314c0.34,0,0.614,0.28,0.614,0.625V17.117z" fill="url(#SVGID_8)"/>
<linearGradient gradientUnits="userSpaceOnUse" id="SVGID_9" x1="30.3" x2="30.3" y1="-0.01" y2="21.37">
<stop offset="0" stop-color="#45E8FF"/>
<stop offset="0.15" stop-color="#45E8FF"/>
<stop offset="0.56" stop-color="#30A4D5"/>
<stop offset="0.87" stop-color="#1347BA"/>
<stop offset="1" stop-color="#1C65C3"/>
</linearGradient>
<rect fill="url(#SVGID_9)" height="6.072" width="26.314" x="17.143" y="11.045"/>
<linearGradient gradientUnits="userSpaceOnUse" id="SVGID_10" x1="30.3" x2="30.3" y1="3.88" y2="19.37">
<stop offset="0" stop-color="#45E8FF"/>
<stop offset="0.15" stop-color="#45E8FF"/>
<stop offset="0.56" stop-color="#4FADD5"/>
<stop offset="0.87" stop-color="#1347BA"/>
<stop offset="1" stop-color="#1C65C3"/>
</linearGradient>
<polygon fill="url(#SVGID_10)" points="17.143,13.876 43.457,12.829 43.457,11.045 17.143,11.045 "/>
<path d="M26.604,16.135h-2.64V15.68h0.958v-3.047l-0.958,0.178v-0.456l1.32-0.436h0.361v3.76h0.958 L26.604,16.135L26.604,16.135z" fill="#FFFFFF"/>
<path d="M29.826,16.135h-2.638v-0.33c0-0.282,0.063-0.555,0.191-0.819c0.127-0.262,0.458-0.594,0.995-0.996 c0.311-0.232,0.509-0.414,0.596-0.546c0.087-0.131,0.13-0.263,0.13-0.394c0-0.209-0.076-0.374-0.225-0.495 c-0.149-0.12-0.345-0.181-0.583-0.181c-0.201,0-0.546,0.046-1.036,0.139v-0.491c0.418-0.088,0.785-0.131,1.1-0.131 c0.461,0,0.823,0.103,1.081,0.305c0.259,0.205,0.389,0.482,0.389,0.832c0,0.154-0.031,0.313-0.094,0.476 c-0.063,0.163-0.162,0.313-0.295,0.448c-0.136,0.134-0.328,0.297-0.58,0.489c-0.285,0.214-0.482,0.38-0.591,0.498 c-0.107,0.117-0.19,0.242-0.246,0.371c-0.058,0.129-0.087,0.253-0.09,0.373h1.897v0.452H29.826z" fill="#FFFFFF"/>
<path d="M34.748,13.907c0.235,0.072,0.414,0.19,0.531,0.357c0.117,0.166,0.178,0.381,0.178,0.642 c0,0.429-0.125,0.747-0.373,0.949c-0.25,0.203-0.637,0.305-1.16,0.305c-0.333,0-0.664-0.043-0.993-0.129v-0.496 c0.38,0.092,0.703,0.139,0.97,0.139c0.298,0,0.507-0.063,0.628-0.187c0.122-0.123,0.183-0.321,0.183-0.597 c0-0.257-0.078-0.449-0.232-0.577c-0.156-0.128-0.389-0.193-0.697-0.193h-0.473v-0.456h0.477c0.572,0,0.857-0.221,0.857-0.665 c0-0.207-0.061-0.362-0.182-0.466c-0.122-0.104-0.305-0.156-0.549-0.156c-0.156,0-0.445,0.042-0.863,0.129v-0.497 c0.367-0.078,0.694-0.116,0.982-0.116c0.45,0,0.789,0.088,1.015,0.262s0.339,0.435,0.339,0.782c0,0.234-0.053,0.432-0.16,0.593 C35.118,13.69,34.959,13.815,34.748,13.907z" fill="#FFFFFF"/>
<path d="M39.102,15.297h-0.457v0.838h-0.723v-0.838h-1.811v-0.455l2-2.921h0.533v2.921h0.457V15.297z M37.922,13.015l-1.195,1.827h1.195V13.015z" fill="#FFFFFF"/>
<path d="M40.566,13.456h0.143c0.452,0,0.801,0.113,1.045,0.335c0.244,0.223,0.367,0.542,0.367,0.953 c0,0.472-0.125,0.828-0.373,1.063c-0.249,0.235-0.621,0.353-1.117,0.353c-0.361,0-0.685-0.041-0.969-0.122v-0.493 c0.326,0.085,0.637,0.128,0.93,0.128c0.248,0,0.443-0.068,0.58-0.203c0.138-0.135,0.207-0.37,0.207-0.702 c0-0.275-0.078-0.482-0.232-0.62c-0.154-0.14-0.385-0.208-0.695-0.208c-0.204,0-0.407,0.01-0.61,0.031v-2.048h2.173v0.453h-1.447 V13.456L40.566,13.456z" fill="#FFFFFF"/>
<circle cx="30.957" cy="15.698" fill="#FFFFFF" r="0.491"/>
<linearGradient gradientUnits="userSpaceOnUse" id="SVGID_11" x1="41.32" x2="41.32" y1="42.22" y2="47.78">
<stop offset="0" stop-color="#646263"/>
<stop offset="0.2" stop-color="#4D4D4D"/>
<stop offset="0.72" stop-color="#242424"/>
<stop offset="1" stop-color="#373737"/>
</linearGradient>
<path d="M39.793,47.752c-0.676,0-1.225-0.549-1.225-1.225 v-3.061c0-0.676,0.549-1.225,1.225-1.225h3.061c0.676,0,1.225,0.549,1.225,1.225v3.061c0,0.676-0.549,1.225-1.225,1.225H39.793z" fill="url(#SVGID_11)" fill-opacity="0.8" stroke-opacity="0.8"/>
<path d="M42.854,47.752h-3.061c-0.676,0-1.225-0.549-1.225-1.225 v0.612c0,0.675,0.549,1.224,1.225,1.224h3.061c0.676,0,1.225-0.549,1.225-1.224v-0.612C44.078,47.203,43.529,47.752,42.854,47.752z" fill="#231F20" fill-opacity="0.4" stroke-opacity="0.4"/>
<linearGradient gradientUnits="userSpaceOnUse" id="SVGID_12" x1="41.32" x2="41.32" y1="42.8" y2="47.25">
<stop offset="0" stop-color="#F0653D"/>
<stop offset="0.1" stop-color="#C94832"/>
<stop offset="0.75" stop-color="#89181F"/>
<stop offset="1" stop-color="#961A22"/>
</linearGradient>
<path d="M43.467,46.527c0,0.338-0.274,0.612-0.613,0.612h-3.061c-0.338,0-0.612-0.274-0.612-0.612 v-3.061c0-0.34,0.274-0.613,0.612-0.613h3.061c0.339,0,0.613,0.273,0.613,0.613V46.527z" fill="url(#SVGID_12)"/>
<path d="M32.447,47.752c-0.677,0-1.225-0.549-1.225-1.225 v-3.061c0-0.676,0.548-1.225,1.225-1.225h3.061c0.676,0,1.225,0.549,1.225,1.225v3.061c0,0.676-0.549,1.225-1.225,1.225H32.447z" fill="url(#SVGID_11)" fill-opacity="0.8" stroke-opacity="0.8"/>
<path d="M35.508,47.752h-3.061c-0.677,0-1.225-0.549-1.225-1.225 v0.612c0,0.675,0.548,1.224,1.225,1.224h3.061c0.676,0,1.225-0.549,1.225-1.224v-0.612C36.732,47.203,36.184,47.752,35.508,47.752z" fill="#231F20" fill-opacity="0.4" stroke-opacity="0.4"/>
<linearGradient gradientUnits="userSpaceOnUse" id="SVGID_14" x1="33.98" x2="33.98" y1="42.8" y2="47.25">
<stop offset="0" stop-color="#E4EBED"/>
<stop offset="0.26" stop-color="#D6DCDE"/>
<stop offset="0.66" stop-color="#B6C3C7"/>
<stop offset="0.98" stop-color="#D2D9DB"/>
<stop offset="1" stop-color="#D2D9DB"/>
</linearGradient>
<path d="M36.119,46.527c0,0.338-0.273,0.612-0.611,0.612h-3.061c-0.34,0-0.613-0.274-0.613-0.612 v-3.061c0-0.34,0.273-0.613,0.613-0.613h3.061c0.338,0,0.611,0.273,0.611,0.613V46.527z" fill="url(#SVGID_14)"/>
<path d="M25.1,47.752c-0.676,0-1.224-0.549-1.224-1.225 v-3.061c0-0.676,0.548-1.225,1.224-1.225h3.061c0.676,0,1.225,0.549,1.225,1.225v3.061c0,0.676-0.549,1.225-1.225,1.225H25.1z" fill="url(#SVGID_11)" fill-opacity="0.8" stroke-opacity="0.8"/>
<path d="M28.161,47.752H25.1c-0.676,0-1.224-0.549-1.224-1.225v0.612 c0,0.675,0.548,1.224,1.224,1.224h3.061c0.676,0,1.225-0.549,1.225-1.224v-0.612C29.386,47.203,28.837,47.752,28.161,47.752z" fill="#231F20" fill-opacity="0.4" stroke-opacity="0.4"/>
<path d="M28.773,46.527c0,0.338-0.273,0.612-0.612,0.612H25.1c-0.338,0-0.612-0.274-0.612-0.612 v-3.061c0-0.34,0.274-0.613,0.612-0.613h3.061c0.339,0,0.612,0.273,0.612,0.613V46.527z" fill="url(#SVGID_14)"/>
<path d="M17.754,47.752c-0.676,0-1.225-0.549-1.225-1.225v-3.061c0-0.676,0.549-1.225,1.225-1.225 h3.061c0.676,0,1.224,0.549,1.224,1.225v3.061c0,0.676-0.548,1.225-1.224,1.225H17.754z" fill="url(#SVGID_11)"/>
<path d="M20.815,47.752h-3.061c-0.676,0-1.225-0.549-1.225-1.225 v0.612c0,0.675,0.549,1.224,1.225,1.224h3.061c0.676,0,1.224-0.549,1.224-1.224v-0.612C22.039,47.203,21.491,47.752,20.815,47.752z" fill="#231F20" fill-opacity="0.4" stroke-opacity="0.4"/>
<path d="M21.427,46.527c0,0.338-0.273,0.612-0.612,0.612h-3.061c-0.339,0-0.612-0.274-0.612-0.612 v-3.061c0-0.34,0.273-0.613,0.612-0.613h3.061c0.338,0,0.612,0.273,0.612,0.613V46.527z" fill="url(#SVGID_14)"/>
<path d="M42.854,39.181h-3.061c-0.676,0-1.225-0.549-1.225-1.224 v0.611c0,0.676,0.549,1.225,1.225,1.225h3.061c0.676,0,1.225-0.549,1.225-1.225v-0.611C44.078,38.632,43.529,39.181,42.854,39.181z" fill="#231F20" fill-opacity="0.4" stroke-opacity="0.4"/>
<linearGradient gradientUnits="userSpaceOnUse" id="SVGID_19" x1="41.32" x2="41.32" y1="33.67" y2="39.16">
<stop offset="0" stop-color="#646263"/>
<stop offset="0.2" stop-color="#4D4D4D"/>
<stop offset="0.72" stop-color="#242424"/>
<stop offset="1" stop-color="#373737"/>
</linearGradient>
<path d="M39.793,39.181c-0.676,0-1.225-0.549-1.225-1.224 v-3.062c0-0.675,0.549-1.225,1.225-1.225h3.061c0.676,0,1.225,0.55,1.225,1.225v3.062c0,0.675-0.549,1.224-1.225,1.224H39.793z" fill="url(#SVGID_19)" fill-opacity="0.9" stroke-opacity="0.9"/>
<linearGradient gradientUnits="userSpaceOnUse" id="SVGID_20" x1="41.32" x2="41.32" y1="34.23" y2="38.68">
<stop offset="0" stop-color="#A0A3A6"/>
<stop offset="0.13" stop-color="#838688"/>
<stop offset="0.26" stop-color="#7B7E80"/>
<stop offset="0.66" stop-color="#474B4D"/>
<stop offset="1" stop-color="#707577"/>
</linearGradient>
<path d="M43.467,37.957c0,0.338-0.274,0.611-0.613,0.611h-3.061c-0.338,0-0.612-0.273-0.612-0.611 v-3.062c0-0.339,0.274-0.612,0.612-0.612h3.061c0.339,0,0.613,0.273,0.613,0.612V37.957z" fill="url(#SVGID_20)"/>
<rect fill="#231F20" fill-opacity="0.5" height="0.612" stroke-opacity="0.5" width="33.671" x="13.468" y="21.427"/>
<path d="M35.508,39.181h-3.061c-0.677,0-1.225-0.549-1.225-1.224 v0.611c0,0.676,0.548,1.225,1.225,1.225h3.061c0.676,0,1.225-0.549,1.225-1.225v-0.611C36.732,38.632,36.184,39.181,35.508,39.181z" fill="#231F20" fill-opacity="0.4" stroke-opacity="0.4"/>
<path d="M32.447,39.181c-0.677,0-1.225-0.549-1.225-1.224 v-3.062c0-0.675,0.548-1.225,1.225-1.225h3.061c0.676,0,1.225,0.55,1.225,1.225v3.062c0,0.675-0.549,1.224-1.225,1.224H32.447z" fill="url(#SVGID_19)" fill-opacity="0.8" stroke-opacity="0.8"/>
<linearGradient gradientUnits="userSpaceOnUse" id="SVGID_22" x1="33.98" x2="33.98" y1="34.23" y2="38.68">
<stop offset="0" stop-color="#E4EBED"/>
<stop offset="0.26" stop-color="#D6DCDE"/>
<stop offset="0.66" stop-color="#B6C3C7"/>
<stop offset="0.98" stop-color="#D2D9DB"/>
<stop offset="1" stop-color="#D2D9DB"/>
</linearGradient>
<path d="M36.119,37.957c0,0.338-0.273,0.611-0.611,0.611h-3.061c-0.34,0-0.613-0.273-0.613-0.611 v-3.062c0-0.339,0.273-0.612,0.613-0.612h3.061c0.338,0,0.611,0.273,0.611,0.612V37.957z" fill="url(#SVGID_22)"/>
<path d="M28.161,39.181H25.1c-0.676,0-1.224-0.549-1.224-1.224v0.611 c0,0.676,0.548,1.225,1.224,1.225h3.061c0.676,0,1.225-0.549,1.225-1.225v-0.611C29.386,38.632,28.837,39.181,28.161,39.181z" fill="#231F20" fill-opacity="0.4" stroke-opacity="0.4"/>
<path d="M25.1,39.181c-0.676,0-1.224-0.549-1.224-1.224 v-3.062c0-0.675,0.548-1.225,1.224-1.225h3.061c0.676,0,1.225,0.55,1.225,1.225v3.062c0,0.675-0.549,1.224-1.225,1.224H25.1z" fill="url(#SVGID_19)" fill-opacity="0.8" stroke-opacity="0.8"/>
<path d="M28.773,37.957c0,0.338-0.273,0.611-0.612,0.611H25.1c-0.338,0-0.612-0.273-0.612-0.611 v-3.062c0-0.339,0.274-0.612,0.612-0.612h3.061c0.339,0,0.612,0.273,0.612,0.612V37.957z" fill="url(#SVGID_22)"/>
<path d="M20.815,39.181h-3.061c-0.676,0-1.225-0.549-1.225-1.224 v0.611c0,0.676,0.549,1.225,1.225,1.225h3.061c0.676,0,1.224-0.549,1.224-1.225v-0.611C22.039,38.632,21.491,39.181,20.815,39.181z" fill="#231F20" fill-opacity="0.4" stroke-opacity="0.4"/>
<path d="M17.754,39.181c-0.676,0-1.225-0.549-1.225-1.224 v-3.062c0-0.675,0.549-1.225,1.225-1.225h3.061c0.676,0,1.224,0.55,1.224,1.225v3.062c0,0.675-0.548,1.224-1.224,1.224H17.754z" fill="url(#SVGID_19)" fill-opacity="0.8" stroke-opacity="0.8"/>
<path d="M21.427,37.957c0,0.338-0.273,0.611-0.612,0.611h-3.061c-0.339,0-0.612-0.273-0.612-0.611 v-3.062c0-0.339,0.273-0.612,0.612-0.612h3.061c0.338,0,0.612,0.273,0.612,0.612V37.957z" fill="url(#SVGID_22)"/>
<path d="M42.854,30.609h-3.061c-0.676,0-1.225-0.548-1.225-1.224 v0.612c0,0.675,0.549,1.225,1.225,1.225h3.061c0.676,0,1.225-0.55,1.225-1.225v-0.612C44.078,30.061,43.529,30.609,42.854,30.609z" fill="#231F20" fill-opacity="0.4" stroke-opacity="0.4"/>
<linearGradient gradientUnits="userSpaceOnUse" id="SVGID_27" x1="41.32" x2="41.32" y1="25.11" y2="30.66">
<stop offset="0" stop-color="#646263"/>
<stop offset="0.2" stop-color="#4D4D4D"/>
<stop offset="0.72" stop-color="#242424"/>
<stop offset="1" stop-color="#373737"/>
</linearGradient>
<path d="M39.793,30.609c-0.676,0-1.225-0.548-1.225-1.224 v-3.061c0-0.675,0.549-1.225,1.225-1.225h3.061c0.676,0,1.225,0.549,1.225,1.225v3.061c0,0.675-0.549,1.224-1.225,1.224H39.793z" fill="url(#SVGID_27)" fill-opacity="0.9" stroke-opacity="0.9"/>
<linearGradient gradientUnits="userSpaceOnUse" id="SVGID_28" x1="41.32" x2="41.32" y1="25.66" y2="30.11">
<stop offset="0" stop-color="#A0A3A6"/>
<stop offset="0.13" stop-color="#838688"/>
<stop offset="0.26" stop-color="#7B7E80"/>
<stop offset="0.66" stop-color="#474B4D"/>
<stop offset="1" stop-color="#707577"/>
</linearGradient>
<path d="M43.467,29.386c0,0.338-0.274,0.612-0.613,0.612h-3.061c-0.338,0-0.612-0.274-0.612-0.612 v-3.061c0-0.339,0.274-0.612,0.612-0.612h3.061c0.339,0,0.613,0.273,0.613,0.612V29.386z" fill="url(#SVGID_28)"/>
<path d="M35.508,30.609h-3.061c-0.677,0-1.225-0.548-1.225-1.224 v0.612c0,0.675,0.548,1.225,1.225,1.225h3.061c0.676,0,1.225-0.55,1.225-1.225v-0.612C36.732,30.061,36.184,30.609,35.508,30.609z" fill="#231F20" fill-opacity="0.4" stroke-opacity="0.4"/>
<path d="M32.447,30.609c-0.677,0-1.225-0.548-1.225-1.224 v-3.061c0-0.675,0.548-1.225,1.225-1.225h3.061c0.676,0,1.225,0.549,1.225,1.225v3.061c0,0.675-0.549,1.224-1.225,1.224H32.447z" fill="url(#SVGID_27)" fill-opacity="0.8" stroke-opacity="0.8"/>
<linearGradient gradientUnits="userSpaceOnUse" id="SVGID_30" x1="33.98" x2="33.98" y1="25.66" y2="30.11">
<stop offset="0" stop-color="#E4EBED"/>
<stop offset="0.26" stop-color="#D6DCDE"/>
<stop offset="0.66" stop-color="#B6C3C7"/>
<stop offset="0.98" stop-color="#D2D9DB"/>
<stop offset="1" stop-color="#D2D9DB"/>
</linearGradient>
<path d="M36.119,29.386c0,0.338-0.273,0.612-0.611,0.612h-3.061c-0.34,0-0.613-0.274-0.613-0.612 v-3.061c0-0.339,0.273-0.612,0.613-0.612h3.061c0.338,0,0.611,0.273,0.611,0.612V29.386z" fill="url(#SVGID_30)"/>
<path d="M28.161,30.609H25.1c-0.676,0-1.224-0.548-1.224-1.224v0.612 c0,0.675,0.548,1.225,1.224,1.225h3.061c0.676,0,1.225-0.55,1.225-1.225v-0.612C29.386,30.061,28.837,30.609,28.161,30.609z" fill="#231F20" fill-opacity="0.4" stroke-opacity="0.4"/>
<path d="M25.1,30.609c-0.676,0-1.224-0.548-1.224-1.224 v-3.061c0-0.675,0.548-1.225,1.224-1.225h3.061c0.676,0,1.225,0.549,1.225,1.225v3.061c0,0.675-0.549,1.224-1.225,1.224H25.1z" fill="url(#SVGID_27)" fill-opacity="0.8" stroke-opacity="0.8"/>
<path d="M28.773,29.386c0,0.338-0.273,0.612-0.612,0.612H25.1c-0.338,0-0.612-0.274-0.612-0.612 v-3.061c0-0.339,0.274-0.612,0.612-0.612h3.061c0.339,0,0.612,0.273,0.612,0.612V29.386z" fill="url(#SVGID_30)"/>
<path d="M17.754,30.609c-0.676,0-1.225-0.548-1.225-1.224 v-3.061c0-0.675,0.549-1.225,1.225-1.225h3.061c0.676,0,1.224,0.549,1.224,1.225v3.061c0,0.675-0.548,1.224-1.224,1.224H17.754z" fill="url(#SVGID_27)" fill-opacity="0.8" stroke-opacity="0.8"/>
<path d="M20.815,30.609h-3.061c-0.676,0-1.225-0.548-1.225-1.224 v0.612c0,0.675,0.549,1.225,1.225,1.225h3.061c0.676,0,1.224-0.55,1.224-1.225v-0.612C22.039,30.061,21.491,30.609,20.815,30.609z" fill="#231F20" fill-opacity="0.4" stroke-opacity="0.4"/>
<path d="M21.427,29.386c0,0.338-0.273,0.612-0.612,0.612h-3.061c-0.339,0-0.612-0.274-0.612-0.612 v-3.061c0-0.339,0.273-0.612,0.612-0.612h3.061c0.338,0,0.612,0.273,0.612,0.612V29.386z" fill="url(#SVGID_30)"/>
<rect fill="#FFFFFF" fill-opacity="0.6" height="0.612" stroke-opacity="0.6" width="33.671" x="13.468" y="22.651"/>
<rect fill="#231F20" fill-opacity="0.3" height="0.612" stroke-opacity="0.3" width="33.671" x="13.468" y="22.039"/>
</svg>
