<?xml version="1.0" encoding="UTF-8"?>
<!DOCTYPE svg PUBLIC "-//W3C//DTD SVG 1.1 Tiny//EN" "http://www.w3.org/Graphics/SVG/1.1/DTD/svg11-tiny.dtd">
<svg baseProfile="tiny" height="30px" version="1.1" viewBox="-0.001 0 30 30" width="30px" x="0px" xmlns="http://www.w3.org/2000/svg" xmlns:xlink="http://www.w3.org/1999/xlink" y="0px">
<rect fill="none" height="30" width="29.999"/>
<path d="M2.921,6.375c-0.289,0.289-0.543,0.6-0.781,0.918l5.024,5.023c0.624,0.623,1.638,0.623,2.262-0.002l0.566-0.564  c0.625-0.625,0.625-1.639,0-2.264L5.247,4.742C4.407,5.143,3.616,5.682,2.921,6.375z"/>
<path d="M25.083,21.602l-8.201-8.202c0.402-2.591-0.383-5.333-2.375-7.325C11.192,2.76,5.8,2.76,2.485,6.074  c-3.314,3.314-3.313,8.707,0,12.021c1.993,1.992,4.734,2.777,7.326,2.374l8.202,8.202c1.771,1.771,4.654,1.771,6.428,0l0.643-0.643  C26.854,26.256,26.854,23.371,25.083,21.602z M22.345,25.367l-0.566,0.566c-0.625,0.623-1.637,0.625-2.262,0l-8.821-8.822  c-2.013,0.878-4.443,0.507-6.088-1.139c-2.144-2.143-2.144-5.633,0-7.777s5.634-2.145,7.778,0c1.645,1.645,2.016,4.076,1.139,6.088  l8.821,8.822C22.97,23.73,22.97,24.742,22.345,25.367z"/>
<rect height="2" transform="matrix(-0.7071 0.7071 -0.7071 -0.7071 20.3101 20.3709)" width="9.825" x="1.024" y="13.392"/>
<path d="M20.837,23.793c0.133,0.133,0.098,0.379-0.078,0.555l0,0c-0.174,0.174-0.422,0.209-0.553,0.078l-1.424-1.422  c-0.131-0.133-0.096-0.381,0.078-0.555l0,0c0.176-0.174,0.424-0.209,0.555-0.078L20.837,23.793z"/>
<path d="M29.999,12.557h-2c0-4.502-3.662-8.166-8.166-8.166c-0.094,0-0.188,0.002-0.279,0.004l-0.074-1.998  c0.117-0.004,0.234-0.006,0.354-0.006C25.438,2.391,29.999,6.951,29.999,12.557L29.999,12.557z"/>
<polygon points="19.845,3.404 19.845,6.811 16.897,5.107 13.948,3.404 16.897,1.703 19.845,0 "/>
</svg>
