<?xml version="1.0" encoding="UTF-8"?>
<!DOCTYPE svg PUBLIC "-//W3C//DTD SVG 1.1 Tiny//EN" "http://www.w3.org/Graphics/SVG/1.1/DTD/svg11-tiny.dtd">
<svg baseProfile="tiny" height="30px" version="1.1" viewBox="0 0 30 30" width="30px" x="0px" xmlns="http://www.w3.org/2000/svg" xmlns:xlink="http://www.w3.org/1999/xlink" y="0px">
<rect fill="none" height="30" width="29.999"/>
<path d="M23.085,4.084l0.707-0.707c0.778-0.777,2.054-0.777,2.83,0c0.776,0.779,0.776,2.051,0,2.828l-0.707,0.709L23.085,4.084z"/>
<path d="M12.467,23.869c-1.676,0.43-3.57-0.033-4.936-1.398c-1.363-1.363-1.83-3.262-1.398-4.936L12.467,23.869z"/>
<path d="M4.652,8.801C4.137,8.952,3.74,9.289,3.309,9.721l-1.436,1.436l16.97,16.971l1.437-1.437c0.432-0.433,0.77-0.827,0.92-1.346  L4.652,8.801z"/>
<path d="M24.146,19.996l1.063-1.063c3.889-3.89,3.889-10.252,0-14.144c-3.891-3.889-10.253-3.889-14.142,0l-1.063,1.063  L24.146,19.996z"/>
<rect height="35.828" transform="matrix(-0.7061 0.7082 -0.7082 -0.7061 36.2137 14.9664)" width="1.867" x="14.067" y="-2.915"/>
</svg>
