<?xml version="1.0" encoding="utf-8"?>
<!-- Generator: Adobe Illustrator 14.0.0, SVG Export Plug-In . SVG Version: 6.00 Build 43363)  -->
<!DOCTYPE svg PUBLIC "-//W3C//DTD SVG 1.1//EN" "http://www.w3.org/Graphics/SVG/1.1/DTD/svg11.dtd">
<svg version="1.1" xmlns="http://www.w3.org/2000/svg" xmlns:xlink="http://www.w3.org/1999/xlink" x="0px" y="0px"
	 width="30px" height="30px" viewBox="0 0 30 30" enable-background="new 0 0 30 30" xml:space="preserve">
<path d="M23.047,7.27c0.066,0.408,0.106,0.831,0.106,1.281c0,0.371-0.042,0.746-0.109,1.122c1.19,1.425,2.014,3.162,2.294,5.075
	c-0.546-1.085-0.996-2.347-0.996-2.347l-1.671-0.302l-0.448-0.171c-0.102,0.17-0.225,0.351-0.354,0.535l0.156,0.208l0.612-0.269
	c0,0,0.75,0.708,0.715,0.941c-0.032,0.238-1.155,1.313-1.155,1.313l-0.985,0.348l-0.876-0.71c-0.155,0.164-0.294,0.318-0.464,0.489
	c-0.024,0.026-0.048,0.049-0.074,0.075l0.557,0.572c0,0,1.432-0.201,1.636-0.033c0.206,0.167-0.271,1.449-0.271,1.449l-2.388,2.423
	l-0.239,2.424c-0.333,0.17-0.593,0.363-0.793,0.556c0.069,0.289,0.118,0.586,0.118,0.897c0,1.007-0.374,1.909-1.081,2.61
	c-0.697,0.705-1.602,1.082-2.605,1.082c-1.013,0-1.921-0.379-2.625-1.096c-0.693-0.694-1.064-1.596-1.064-2.597
	c0-1,0.371-1.899,1.072-2.6c0.067-0.066,0.144-0.121,0.215-0.183c0.039-0.108,0.072-0.19,0.094-0.238h-0.93v-2.907
	c0-0.127,0.016-0.247,0.021-0.371h-0.944l-0.339-0.742c-3.206,0.674-3.341-0.135-3.82-1.011c-0.477-0.876,0.068-3.232,0.375-3.604
	c0.197-0.235,1.239-0.98,1.968-1.487l5.425,1.708c0.134-0.135,0.261-0.267,0.407-0.404c1.148-1.12,1.419-1.589,1.473-1.707
	c0.028-0.059,0.04-0.115,0.062-0.172l-3.817-0.945L9.385,9.566C9.44,9.53,9.479,9.504,9.479,9.504L9.172,9.066
	c-0.205-0.436,1.125-1.042,1.125-1.042c0.513,0.336,0.852,0,0.852,0l0.114-0.282c-0.107,0.03-0.207,0.053-0.315,0.085L9.146,8.359
	V5.727C5.4,7.768,2.86,11.706,2.86,16.23c0,6.622,5.434,11.991,12.14,11.991c6.704,0,12.14-5.369,12.14-11.991
	C27.14,12.661,25.553,9.466,23.047,7.27z M6.446,22.154c-0.723-1.016-1.262-2.165-1.576-3.403l1.528-0.297l1.307,2.583L6.446,22.154
	z M21.645,24.202l-0.656-0.585l1.308-2.581l1.758,0.342C23.425,22.455,22.61,23.415,21.645,24.202z"/>
<path d="M10.312,4.952V2.241C12.1,1.748,13.696,1.5,15.103,1.5c2.336,0,4.124,0.479,5.355,1.437
	c1.235,0.956,1.854,2.367,1.854,4.237c0,0.786-0.179,1.594-0.533,2.422c-0.359,0.822-1.209,1.916-2.551,3.283
	c-0.982,0.987-1.642,1.727-1.972,2.213c-0.329,0.491-0.497,1.055-0.497,1.696v1.433h-3.937v-1.652c0-1.063,0.232-1.981,0.697-2.759
	c0.464-0.777,1.184-1.635,2.154-2.567c1.025-1.011,1.658-1.778,1.9-2.302s0.361-1.041,0.361-1.544c0-1.052-0.293-1.84-0.884-2.364
	c-0.588-0.523-1.473-0.788-2.65-0.788C13.255,4.242,11.894,4.479,10.312,4.952z M14.79,25.5c-0.683,0-1.26-0.243-1.734-0.732
	c-0.479-0.486-0.715-1.078-0.715-1.771c0-0.69,0.236-1.28,0.715-1.765c0.477-0.485,1.053-0.727,1.734-0.727
	c0.685,0,1.262,0.239,1.737,0.727c0.478,0.482,0.711,1.07,0.711,1.765s-0.235,1.284-0.721,1.771
	C16.04,25.257,15.464,25.5,14.79,25.5z"/>
</svg>
