<?xml version="1.0" encoding="UTF-8"?>
<!DOCTYPE svg PUBLIC "-//W3C//DTD SVG 1.1 Tiny//EN" "http://www.w3.org/Graphics/SVG/1.1/DTD/svg11-tiny.dtd">
<svg baseProfile="tiny" height="31px" version="1.1" viewBox="-0.874 -0.016 31 31" width="31px" x="0px" xmlns="http://www.w3.org/2000/svg" xmlns:xlink="http://www.w3.org/1999/xlink" y="0px">
<rect fill="none" height="30" width="30"/>
<polygon points="5.279,7.191 7.278,7.191 7.396,11.027 9.237,7.191 10.835,7.191 10.835,11.027 12.552,7.191 14.672,7.191   11.474,13.186 9.598,13.186 9.557,9.458 7.879,13.186 5.961,13.186 "/>
<path d="M17.797,6.364c0-0.637-0.696-1.15-1.557-1.15s-1.559,0.514-1.559,1.15c0,0.341,0.201,0.646,0.52,0.856v5.965h2.076V7.221  C17.597,7.01,17.797,6.705,17.797,6.364z"/>
<path d="M12.214,6.973c0,0,1.099-2.258,4.036-2.258c2.935,0,4.017,2.217,4.017,2.217s-0.54-2.877-4.076-2.877  C12.651,4.055,12.214,6.973,12.214,6.973z"/>
<path d="M11.015,6.333c0,0,1.279-3.077,5.235-3.077c3.954,0,4.974,3.036,4.974,3.036s-0.919-3.836-5.033-3.836  C12.074,2.456,11.015,6.333,11.015,6.333z"/>
<polygon points="24.722,20.781 24.722,23.215 20.317,23.215 20.321,23.215 14.345,23.215 16.377,20.781 "/>
<polygon points="5.279,20.777 10.581,20.777 8.524,23.215 5.279,23.215 "/>
<polygon points="24.722,15.766 24.722,18.199 18.53,18.199 20.567,15.766 "/>
<polygon points="5.279,18.195 5.279,15.766 14.806,15.766 12.753,18.199 "/>
<polygon points="21.425,13.041 21.5,13.104 21.448,13.162 10.382,26.352 9.383,27.545 7.519,25.978 8.938,24.28 19.631,11.539 "/>
<rect fill="none" height="30" width="30"/>
</svg>
