<?xml version="1.0" encoding="UTF-8" standalone="no"?>
<!DOCTYPE svg PUBLIC "-//W3C//DTD SVG 1.1 Tiny//EN" "http://www.w3.org/Graphics/SVG/1.1/DTD/svg11-tiny.dtd">
<svg xmlns="http://www.w3.org/2000/svg" xmlns:xlink="http://www.w3.org/1999/xlink" baseProfile="tiny" height="30" viewBox="0 0 30 30" width="30">
<g>
<rect fill="none" height="30" width="30"/>
<path d="M13.5,28c-1.93,0-3.5-1.57-3.5-3.5s1.57-3.5,3.5-3.5s3.5,1.57,3.5,3.5S15.43,28,13.5,28L13.5,28z" fill-opacity="0.6"/>
<linearGradient gradientUnits="userSpaceOnUse" id="SVGID_1_" x1="13.4995" x2="13.4995" y1="2.917" y2="26.9193">
<stop offset="0" style="stop-color:#4EDEFF"/>
<stop offset="1" style="stop-color:#048CC6"/>
</linearGradient>
<circle cx="13.5" cy="24.5" fill="url(#SVGID_1_)" r="2.5"/>
<path d="M10.511,20.719v-2.654c0-1.242,0.284-2.343,0.843-3.273c0.512-0.857,1.271-1.766,2.316-2.773  c1.214-1.193,1.579-1.766,1.688-2c0.181-0.392,0.272-0.771,0.272-1.123c0-0.758-0.18-1.287-0.551-1.619  c-0.396-0.353-1.066-0.533-1.987-0.533c-1.044,0-2.324,0.225-3.806,0.667L8,7.793V2.98l0.733-0.203C10.598,2.262,12.299,2,13.791,2  c2.549,0,4.557,0.553,5.969,1.643C21.246,4.793,22,6.484,22,8.674c0,0.926-0.208,1.874-0.617,2.816  c-0.412,0.951-1.313,2.125-2.757,3.588c-0.938,0.947-1.56,1.644-1.85,2.072c-0.221,0.326-0.327,0.696-0.327,1.135v2.434H10.511z" fill-opacity="0.6"/>
<linearGradient gradientUnits="userSpaceOnUse" id="SVGID_2_" x1="14.9995" x2="14.9995" y1="2.9165" y2="26.9195">
<stop offset="0" style="stop-color:#4EDEFF"/>
<stop offset="1" style="stop-color:#048CC6"/>
</linearGradient>
<path d="M19.148,4.434C17.911,3.479,16.126,3,13.791,3C12.384,3,10.787,3.246,9,3.741v2.71  c1.581-0.473,2.945-0.709,4.092-0.709c1.18,0,2.063,0.263,2.654,0.788c0.588,0.526,0.884,1.313,0.884,2.364  c0,0.503-0.123,1.018-0.365,1.544c-0.243,0.524-0.876,1.292-1.901,2.3c-0.971,0.935-1.688,1.791-2.152,2.568  c-0.468,0.777-0.7,1.697-0.7,2.758v1.654h3.938v-1.434c0-0.641,0.167-1.205,0.498-1.693c0.33-0.489,0.986-1.227,1.967-2.215  c1.347-1.366,2.194-2.46,2.552-3.284C20.824,10.268,21,9.461,21,8.674C21,6.805,20.384,5.39,19.148,4.434z" fill="url(#SVGID_2_)"/>
<path d="M13.5,23c1.209,0,2.218,0.859,2.449,2C15.982,24.838,16,24.672,16,24.5  c0-1.381-1.119-2.5-2.5-2.5S11,23.119,11,24.5c0,0.172,0.018,0.338,0.051,0.5C11.282,23.859,12.291,23,13.5,23z" fill="#FFFFFF" fill-opacity="0.4" stroke-opacity="0.4"/>
<path d="M16.63,9.895c0-0.22-0.021-0.42-0.046-0.616c-0.047,0.381-0.138,0.767-0.319,1.16  c-0.243,0.524-0.876,1.292-1.901,2.3c-0.971,0.935-1.688,1.791-2.152,2.568c-0.468,0.777-0.7,1.697-0.7,2.758v1  c0-1.061,0.232-1.98,0.7-2.758c0.464-0.777,1.182-1.634,2.152-2.568c1.025-1.008,1.658-1.775,1.901-2.3  C16.507,10.912,16.63,10.397,16.63,9.895z" fill="#FFFFFF" fill-opacity="0.4" stroke-opacity="0.4"/>
<path d="M19.148,5.434c1.106,0.856,1.712,2.084,1.827,3.672C20.987,8.961,21,8.816,21,8.674  c0-1.869-0.616-3.284-1.852-4.24C17.911,3.479,16.126,3,13.791,3C12.384,3,10.787,3.246,9,3.741v1C10.787,4.246,12.384,4,13.791,4  C16.126,4,17.911,4.479,19.148,5.434z" fill="#FFFFFF" fill-opacity="0.4" stroke-opacity="0.4"/>
<rect fill="none" height="30" width="30"/>
</g>
</svg>
