<?xml version="1.0" encoding="UTF-8"?>
<!DOCTYPE svg PUBLIC "-//W3C//DTD SVG 1.1 Tiny//EN" "http://www.w3.org/Graphics/SVG/1.1/DTD/svg11-tiny.dtd">
<svg baseProfile="tiny" height="30px" version="1.1" viewBox="0 0 30 30" width="30px" x="0px" xmlns="http://www.w3.org/2000/svg" xmlns:xlink="http://www.w3.org/1999/xlink" y="0px">
<g fill-opacity="0.5" stroke-opacity="0.5">
<rect fill="none" height="30" width="30"/>
</g>
<path d="M2,5v20h26V5H2z M26,23H4V7h22V23z"/>
<path d="M25,8H5v14h20V8z M24,21h-2.9c0.117-0.1,0.234-0.206,0.35-0.324c0.756-0.773,0.836-1.923,0.802-2.632  c0.708,0.617,1.286,1.216,1.749,1.771V21z M24,12.388c-0.443,0.568-0.839,1.292-1.098,2.202c-0.288,1.017-0.02,1.929,0.266,2.535  c-0.026-0.016-0.049-0.033-0.075-0.049c-1.035-0.604-3.308-1.314-5.79-2.114c0.371-0.045,0.82-0.158,1.229-0.438  c1.024-0.707,1.275-1.832,0.908-2.443c-0.262-0.434-1.124-0.805-2.076,0.389c-0.477,0.598-0.707,1.759-0.788,2.258  c-1.677-0.545-3.397-1.129-4.868-1.747c0.381-0.04,0.857-0.152,1.284-0.446c1.026-0.708,1.2-1.485,0.931-1.832  c-0.303-0.389-1.133-0.849-2.248,0.332c-0.461,0.487-0.604,1.223-0.65,1.636c-3.228-1.591-2.025-3.197-2.025-3.197  c-0.087-0.39-0.303-0.776-0.648-0.11c-0.498,0.957-0.178,1.822,0.541,2.564c-0.224-0.013-0.469,0.015-0.729,0.115  c-1.014,0.393-1.289,1.086-1.111,1.427c0.176,0.342,0.979,0.888,2.068,0.206c0.382-0.239,0.615-0.652,0.744-0.954  c0.45,0.299,0.953,0.568,1.47,0.804c0.425,0.194,0.947,0.391,1.525,0.593c-0.444,0.114-0.925,0.327-1.397,0.744  c-1.514,1.332-1.688,2.664-1.255,3.108s1.979,0.806,3.502-1.055c0.581-0.711,0.789-1.645,0.864-2.228  c2.046,0.66,4.385,1.397,6.091,2.295c-0.856-0.118-1.94-0.058-2.889,0.642c-1.522,1.121-1.723,2.579-1.47,3.377H6V9h18V12.388z"/>
</svg>
