<?xml version="1.0" ?>
<!DOCTYPE svg  PUBLIC '-//W3C//DTD SVG 1.1//EN'  'http://www.w3.org/Graphics/SVG/1.1/DTD/svg11.dtd'>
<svg height="30" viewBox="0 0 30 30" width="30" xmlns="http://www.w3.org/2000/svg" xmlns:xlink="http://www.w3.org/1999/xlink">
<g>
<defs>
</defs>
<rect fill="none" height="30" width="30"/>
<path d="M15,29C7.279,29,1,22.719,1,15C1,7.279,7.279,1,15,1c7.719,0,14,6.279,14,14C29,22.719,22.719,29,15,29  L15,29z" fill-opacity="0.6"/>
<linearGradient gradientUnits="userSpaceOnUse" id="SVGID_1_" x1="14.9995" x2="14.9995" y1="2.2749" y2="32.0078">
	<stop offset="0" style="stop-color:#4EDEFF"/>
	<stop offset="1" style="stop-color:#048CC6"/>
</linearGradient>
<circle cx="15" cy="15" fill="url(#SVGID_1_)" r="13"/>
<g opacity="0.2">
	<g>
		<path d="M24.99,12.631c-0.283-0.748-1.309-2.688-2.809-4.158c0.485-2.043-0.762-2.379-1.248-2.457    c-0.865-0.055-2.592-0.715-4.184-0.203c-2.305,0.74-4.67,3.051-6.592,5.797C8.193,14.395,7.414,19.094,7,19.234    c0.57,1.799,2.896,4.215,2.896,4.215s-0.687,2.191,1.361,2.535c1.986,0.205,3.936-1.619,3.936-1.619s9.661-1.873,7.774-11.104    C23.006,13.275,24.684,12.729,24.99,12.631z M14.783,20.25c-0.049,0.412-2.373,3.385-3.342,2.664    c-0.914-0.68-1.818-1.74-2.335-3.156c0.023-0.025,1.533-0.443,1.566-0.422c-1.491-6.658,4.111-7.711,4.111-7.711    c0.015,0.002-2.349,2.613-1.457,6.775c-0.005-0.049,1.341-0.365,1.989-0.572C15.531,18.402,14.892,19.322,14.783,20.25z     M16.575,20.842c-0.015-0.004,3.059-3.283,2.171-7.441c0.003,0.045-1.344,0.363-1.99,0.57c-0.559-1.488,0.066-5.105,1.385-5.938    c0.785-0.236,2.498,0.49,3.758,2.094c0.424,0.539-0.71,1.391-0.742,1.373C22.646,18.154,16.575,20.842,16.575,20.842z"/>
	</g>
</g>
<path d="M15,3c7.011,0,12.71,5.555,12.975,12.5C27.981,15.332,28,15.168,28,15c0-7.18-5.82-13-13-13  S2,7.82,2,15c0,0.168,0.019,0.332,0.025,0.5C2.29,8.555,7.989,3,15,3z" fill="#FFFFFF" opacity="0.4"/>
<g>
	<path d="M23.778,11.643c-0.283-0.749-1.309-2.688-2.809-4.159c0.485-2.042-0.762-2.379-1.248-2.456   c-2.12-0.134-2.895,0.569-3.568,1.059c-1.26,0.916-4.098,0.759-7.208,4.535c-1.964,2.784-1.265,7.074-1.265,7.074   s-1.479,0.41-1.893,0.55c0.57,1.8,2.896,4.216,2.896,4.216s-0.687,2.191,1.361,2.534c1.986,0.205,3.936-1.618,3.936-1.618   s9.661-1.874,7.774-11.104C21.793,12.287,23.471,11.74,23.778,11.643z M12.717,22.778c-1.05,0.314-3.757-1.092-4.824-4.009   c0.023-0.026,1.533-0.443,1.566-0.423c-1.491-6.657,4.822-8.378,4.822-8.378c0.015,0.003-3.06,3.281-2.167,7.443   c-0.005-0.049,1.341-0.366,1.989-0.573C14.662,18.326,14.037,21.945,12.717,22.778z M15.363,19.854   c-0.015-0.004,3.059-3.284,2.17-7.442c0.004,0.046-1.344,0.363-1.99,0.571c-0.558-1.489,0.066-5.106,1.384-5.938   c1.05-0.315,3.758,1.09,4.823,4.009c-0.022,0.024-1.533,0.441-1.565,0.424C21.676,18.131,15.363,19.854,15.363,19.854z" fill="#FFFFFF"/>
</g>
<rect fill="none" height="30" width="30"/>
</g>
</svg>