<?xml version="1.0" encoding="UTF-8"?>
<!DOCTYPE svg PUBLIC "-//W3C//DTD SVG 1.1 Tiny//EN" "http://www.w3.org/Graphics/SVG/1.1/DTD/svg11-tiny.dtd">
<svg baseProfile="tiny" height="30px" version="1.1" viewBox="0 0 30 30" width="30px" x="0px" xmlns="http://www.w3.org/2000/svg" xmlns:xlink="http://www.w3.org/1999/xlink" y="0px">
<g fill-opacity="0.5" stroke-opacity="0.5">
<rect fill="none" height="30" width="30"/>
</g>
<path d="M15.583,27c2.763,0,4.856-0.568,6.28-1.706C23.289,24.156,24,22.471,24,20.239c0-1.696-0.399-3.015-1.199-3.96  c-0.8-0.944-1.989-1.59-3.569-1.932c2.854-0.967,4.276-2.812,4.276-5.537c0-1.48-0.343-2.664-1.026-3.55  c-0.686-0.885-1.575-1.483-2.665-1.795C18.728,3.156,17.314,3,15.583,3H7v24H15.583z M12.557,13.027v-6.92h2.022  c1.348,0,2.247,0.285,2.695,0.86c0.45,0.574,0.675,1.371,0.675,2.392c0,1.179-0.252,2.086-0.756,2.72  c-0.503,0.633-1.535,0.948-3.091,0.948H12.557z M12.557,23.893v-7.838h1.611c0.943,0,1.696,0.105,2.262,0.321  c0.563,0.215,1.02,0.599,1.365,1.149c0.345,0.553,0.519,1.373,0.519,2.455c0,1.32-0.27,2.303-0.808,2.946  c-0.534,0.644-1.628,0.966-3.271,0.966H12.557L12.557,23.893z"/>
</svg>
