<?xml version="1.0" encoding="UTF-8"?>
<!DOCTYPE svg PUBLIC "-//W3C//DTD SVG 1.1 Tiny//EN" "http://www.w3.org/Graphics/SVG/1.1/DTD/svg11-tiny.dtd">
<svg baseProfile="tiny" height="31px" version="1.1" viewBox="-0.144 -0.801 31 31" width="31px" x="0px" xmlns="http://www.w3.org/2000/svg" xmlns:xlink="http://www.w3.org/1999/xlink" y="0px">
<path d="M11.944,5.983c0.667-0.515,1.05-1.232,1.05-2.078c0-0.722-0.281-1.381-0.787-1.863c-0.555-0.529-1.358-0.805-2.314-0.805  c-1.162,0-2.168,0.428-2.68,0.793L6.9,2.25L7.6,4.113l0.529-0.377c0.328-0.234,0.93-0.506,1.53-0.506  c0.499,0,1.097,0.152,1.097,0.872c0,0.852-1.108,1.039-1.533,1.039H8.036V7.06h1.187c0.304,0,1.837,0.064,1.849,1.327  c0.004,0.153-0.023,0.54-0.32,0.843c-0.27,0.269-0.686,0.41-1.236,0.41c-0.745,0-1.456-0.309-1.755-0.488L7.236,8.835L6.565,10.72  l0.328,0.214c0.487,0.322,1.475,0.699,2.637,0.699c2.618,0,3.812-1.673,3.812-3.226C13.346,7.369,12.807,6.487,11.944,5.983z"/>
<path d="M19.337,5.585v1.978h1.899v1.939c-0.249,0.067-0.592,0.125-1.123,0.125c-1.967,0-3.137-1.237-3.137-3.305  c0-1.013,0.305-1.853,0.886-2.426c0.573-0.565,1.404-0.864,2.403-0.864c0.76,0,1.354,0.115,1.872,0.357l0.52,0.246l0.604-1.951  l-0.386-0.187c-0.46-0.225-1.411-0.483-2.582-0.483c-3.352,0-5.602,2.157-5.602,5.363c0,1.56,0.534,2.97,1.466,3.87  c0.977,0.931,2.24,1.384,3.87,1.384c1.537,0,2.75-0.421,3.09-0.55l0.319-0.125V5.585H19.337z"/>
<polygon points="20.52,13.041 18.451,14.328 20.324,17.332 17.27,17.332 14.589,13.041 12.522,14.328 14.391,17.332 5.278,17.334   5.278,19.769 24.721,19.766 "/>
<polygon points="9.479,28.985 11.543,27.695 9.679,24.69 12.725,24.69 15.408,28.985 17.473,27.695 15.604,24.69 24.721,24.69   24.721,22.256 5.278,22.256 "/>
<rect fill="none" height="30" width="30"/>
<rect fill="none" height="30" width="30"/>
</svg>
