<?xml version="1.0" encoding="UTF-8"?>
<!DOCTYPE svg PUBLIC "-//W3C//DTD SVG 1.1 Tiny//EN" "http://www.w3.org/Graphics/SVG/1.1/DTD/svg11-tiny.dtd">
<svg baseProfile="tiny" height="30px" version="1.1" viewBox="0 0 30 30" width="30px" x="0px" xmlns="http://www.w3.org/2000/svg" xmlns:xlink="http://www.w3.org/1999/xlink" y="0px">
<rect fill="none" fill-rule="evenodd" height="30" width="30"/>
<path d="M3.143,12c0-0.363,0.034-0.719,0.082-1.07H1.06C1.021,11.281,1,11.639,1,12  c0,0.363,0.021,0.719,0.06,1.072h2.165C3.177,12.721,3.143,12.365,3.143,12z" fill-rule="evenodd"/>
<path d="M6.26,5.744L4.73,4.217C4.173,4.666,3.665,5.174,3.216,5.73L4.744,7.26  C5.179,6.689,5.688,6.18,6.26,5.744z" fill-rule="evenodd"/>
<path d="M11,4.143c0.364,0,0.72,0.035,1.071,0.082V2.061C11.719,2.021,11.362,2,11,2  s-0.719,0.021-1.071,0.061v2.164C10.28,4.178,10.636,4.143,11,4.143z" fill-rule="evenodd"/>
<path d="M17.256,7.26l1.528-1.529c-0.449-0.557-0.957-1.064-1.515-1.514L15.74,5.744  C16.312,6.18,16.821,6.689,17.256,7.26z" fill-rule="evenodd"/>
<path d="M6.832,15.748c0.137-0.33,0.302-0.643,0.478-0.947  c0.11-0.201,0.229-0.395,0.354-0.584c0.001-0.002,0.002-0.004,0.003-0.006c-0.426-0.635-0.676-1.4-0.676-2.223c0-2.209,1.791-4,4-4  c1.512,0,2.812,0.85,3.492,2.086C14.81,10.039,15.137,10,15.473,10c0.409,0,0.81,0.035,1.205,0.088  c-0.795-2.383-3.039-4.1-5.688-4.1c-3.313,0-6,2.686-6,6c0,1.453,0.518,2.787,1.378,3.824C6.523,15.791,6.676,15.762,6.832,15.748z" fill-rule="evenodd"/>
<path d="M23.523,20.045h-0.718c0.021-0.223,0.034-0.449,0.034-0.678  c0-4.068-3.298-7.367-7.367-7.367c-3.51,0-6.44,2.455-7.182,5.74c-0.212-0.02-0.428-0.031-0.646-0.031  C3.976,17.709,1,20.684,1,24.354c0,1.348,0.402,2.6,1.092,3.646h26.312C28.782,27.254,29,26.414,29,25.521  C29,22.496,26.548,20.045,23.523,20.045z" fill-rule="evenodd"/>
</svg>
