<?xml version="1.0" encoding="UTF-8"?>
<!DOCTYPE svg PUBLIC "-//W3C//DTD SVG 1.1 Tiny//EN" "http://www.w3.org/Graphics/SVG/1.1/DTD/svg11-tiny.dtd">
<svg baseProfile="tiny" height="60" viewBox="0 0 60 60" width="60" xmlns="http://www.w3.org/2000/svg" xmlns:xlink="http://www.w3.org/1999/xlink">
<g>
<rect fill="none" height="60" width="60" y="0.148"/>
<g>
<linearGradient gradientTransform="matrix(1 0 0 -1 4 54)" gradientUnits="userSpaceOnUse" id="SVGID_1_" x1="26" x2="26" y1="44.7422" y2="3.0271">
<stop offset="0" style="stop-color:#F2F2F2"/>
<stop offset="0.297" style="stop-color:#DCDCDC"/>
<stop offset="0.6121" style="stop-color:#AFB3B2"/>
<stop offset="0.9152" style="stop-color:#CED0CE"/>
<stop offset="0.9818" style="stop-color:#E7E8E7"/>
<stop offset="1" style="stop-color:#E7E8E7"/>
</linearGradient>
<rect fill="url(#SVGID_1_)" height="41.367" width="54.237" x="2.881" y="9.465"/>
<linearGradient gradientTransform="matrix(1 0 0 -1 4 54)" gradientUnits="userSpaceOnUse" id="SVGID_2_" x1="26" x2="26" y1="44.5352" y2="2.9566">
<stop offset="0" style="stop-color:#FFFFFF"/>
<stop offset="0.2485" style="stop-color:#F1F2F1"/>
<stop offset="0.6121" style="stop-color:#D7DBD9"/>
<stop offset="0.9152" style="stop-color:#E4E6E5"/>
<stop offset="0.9818" style="stop-color:#FDFEFD"/>
<stop offset="1" style="stop-color:#FDFEFD"/>
</linearGradient>
<path d="M56.438,10.156v39.985H3.562V10.156H56.438 M57.118,9.465H2.881v41.367h54.237V9.465L57.118,9.465z" fill="url(#SVGID_2_)"/>
<linearGradient gradientTransform="matrix(1 0 0 -1 4 54)" gradientUnits="userSpaceOnUse" id="SVGID_3_" x1="26.105" x2="26.105" y1="41.1328" y2="6.2378">
<stop offset="0" style="stop-color:#B3B3B3"/>
<stop offset="1" style="stop-color:#666666"/>
</linearGradient>
<rect fill="url(#SVGID_3_)" height="33.869" width="48.498" x="5.856" y="13.058"/>
<radialGradient cx="48.8174" cy="40.4512" gradientTransform="matrix(1 0 0 -1 4 54)" gradientUnits="userSpaceOnUse" id="SVGID_4_" r="56.7127">
<stop offset="0" style="stop-color:#869D67"/>
<stop offset="0.503" style="stop-color:#476358"/>
<stop offset="1" style="stop-color:#182637"/>
</radialGradient>
<rect fill="url(#SVGID_4_)" height="32.476" width="46.85" x="6.661" y="13.839"/>
<linearGradient gradientTransform="matrix(1 0 0 -1 4 54)" gradientUnits="userSpaceOnUse" id="SVGID_5_" x1="10.2798" x2="60.8983" y1="35.4844" y2="7.1028">
<stop offset="0" style="stop-color:#8FB34D"/>
<stop offset="1" style="stop-color:#2B644B"/>
</linearGradient>
<path d="M53.511,35.44c-0.68-0.465-1.442-0.909-2.301-1.302c-4.7-2.133-19.424-4.937-29.297-8.228   c-9.875-3.293-6.474-6.803-6.474-6.803c-0.218-0.769-0.766-1.536-1.645-0.221c-2.33,3.494,2.372,6.379,7.57,8.229   c6.474,2.305,21.454,4.783,27.32,8.67c1.985,1.315,3.565,2.589,4.828,3.766V35.44H53.511z" fill="url(#SVGID_5_)"/>
<linearGradient gradientTransform="matrix(1 0 0 -1 4 54)" gradientUnits="userSpaceOnUse" id="SVGID_6_" x1="17.438" x2="20.5108" y1="25.5879" y2="18.1253">
<stop offset="0" style="stop-color:#8FB34D"/>
<stop offset="1" style="stop-color:#2B644B"/>
</linearGradient>
<path d="M17.633,36.336c1.097,0.877,5.026,1.591,8.889-2.087c2.302-2.194,2.302-5.485,2.302-5.485   s-4.168-1.208-8.008,1.426C16.976,32.823,16.538,35.454,17.633,36.336z" fill="url(#SVGID_6_)"/>
<linearGradient gradientTransform="matrix(1 0 0 -1 4 54)" gradientUnits="userSpaceOnUse" id="SVGID_7_" x1="8.4087" x2="8.6177" y1="30.6162" y2="26.5416">
<stop offset="0" style="stop-color:#8FB34D"/>
<stop offset="1" style="stop-color:#2B644B"/>
</linearGradient>
<path d="M8.986,26.127c0.427,0.643,2.367,1.669,5,0.388c1.569-0.766,2.119-2.489,2.119-2.489   s-1.983-1.325-4.431-0.584C9.224,24.18,8.559,25.485,8.986,26.127z" fill="url(#SVGID_7_)"/>
<linearGradient gradientTransform="matrix(1 0 0 -1 4 54)" gradientUnits="userSpaceOnUse" id="SVGID_8_" x1="18.6426" x2="19.5833" y1="32.9648" y2="28.3662">
<stop offset="0" style="stop-color:#8FB34D"/>
<stop offset="1" style="stop-color:#2B644B"/>
</linearGradient>
<path d="M26.457,20.657c-0.732-0.731-2.739-1.597-5.433,0.628c-1.61,1.327-1.629,3.663-1.629,3.663   s2.673,0.307,4.816-0.841C26.688,22.776,27.11,21.31,26.457,20.657z" fill="url(#SVGID_8_)"/>
<linearGradient gradientTransform="matrix(1 0 0 -1 4 54)" gradientUnits="userSpaceOnUse" id="SVGID_9_" x1="33.7539" x2="35.948" y1="30.0854" y2="18.5301">
<stop offset="0" style="stop-color:#8FB34D"/>
<stop offset="1" style="stop-color:#2B644B"/>
</linearGradient>
<path d="M41.938,24.265c-0.666-0.857-2.854-1.59-5.269,0.768c-1.565,1.53-2.093,4.943-2.093,4.943   s2.807,0.324,5.056-0.883C42.233,27.696,42.869,25.473,41.938,24.265z" fill="url(#SVGID_9_)"/>
<linearGradient gradientTransform="matrix(1 0 0 -1 4 54)" gradientUnits="userSpaceOnUse" id="SVGID_10_" x1="37.7178" x2="37.1332" y1="21.481" y2="9.7782">
<stop offset="0" style="stop-color:#8FB34D"/>
<stop offset="1" style="stop-color:#2B644B"/>
</linearGradient>
<path d="M34.673,42.854c1.393,0.934,7.458,2.313,12.364-1.6c2.932-2.333,1.865-6.455,1.865-6.455   s-6.305-2.38-11.189,0.422C32.826,38.021,33.277,41.918,34.673,42.854z" fill="url(#SVGID_10_)"/>
<linearGradient gradientTransform="matrix(1 0 0 -1 4 54)" gradientUnits="userSpaceOnUse" id="SVGID_11_" x1="46.9072" x2="51.5889" y1="28.6685" y2="15.0642">
<stop offset="0" style="stop-color:#8FB34D"/>
<stop offset="1" style="stop-color:#2B644B"/>
</linearGradient>
<path d="M53.511,24.872c-1.126,1.123-2.13,2.553-2.786,4.354c-1.281,3.52,1.776,6.48,1.776,6.48   s0.389-0.077,1.012-0.254v-10.58H53.511z" fill="url(#SVGID_11_)"/>
<linearGradient gradientTransform="matrix(1 0 0 -1 4 54)" gradientUnits="userSpaceOnUse" id="SVGID_12_" x1="41.71" x2="38.554" y1="28.7227" y2="22.5586">
<stop offset="0" style="stop-color:#7DC7BB"/>
<stop offset="0.1333" style="stop-color:#7DC7BB"/>
<stop offset="0.5333" style="stop-color:#6292A3"/>
<stop offset="1" style="stop-color:#455188"/>
</linearGradient>
<path d="M42.191,31.941c0,0,1.737-9.126,3.458-6.174C46.703,27.573,43.664,31.685,42.191,31.941z" fill="url(#SVGID_12_)"/>
<linearGradient gradientTransform="matrix(1 0 0 -1 4 54)" gradientUnits="userSpaceOnUse" id="SVGID_13_" x1="34.665" x2="37.2244" y1="28.7881" y2="21.8936">
<stop offset="0" style="stop-color:#7DC7BB"/>
<stop offset="0.5152" style="stop-color:#6292A3"/>
<stop offset="1" style="stop-color:#455188"/>
</linearGradient>
<path d="M42.328,31.99c0,0-0.541-11.095-4.209-6.598C35.619,28.464,39.37,30.626,42.328,31.99z" fill="url(#SVGID_13_)"/>
<polygon fill="#FFFFFF" fill-opacity="0.3" points="57.118,20.217 57.118,9.465 2.881,9.465 2.881,26.692     " stroke-opacity="0.3"/>
<rect fill="#FFFFFF" fill-opacity="0.05" height="1.509" stroke-opacity="0.05" width="48.498" x="5.856" y="45.418"/>
<rect fill="#FFFFFF" fill-opacity="0.05" height="2.384" stroke-opacity="0.05" width="48.498" x="5.856" y="44.543"/>
<rect fill="#FFFFFF" fill-opacity="0.05" height="3.257" stroke-opacity="0.05" width="48.498" x="5.856" y="43.67"/>
<rect fill="#FFFFFF" fill-opacity="0.05" height="4.132" stroke-opacity="0.05" width="48.498" x="5.856" y="42.795"/>
</g>
<rect fill="none" height="60" width="60" y="0.148"/>
</g>
</svg>
