<?xml version="1.0" encoding="UTF-8"?>
<!DOCTYPE svg PUBLIC "-//W3C//DTD SVG 1.1 Tiny//EN" "http://www.w3.org/Graphics/SVG/1.1/DTD/svg11-tiny.dtd">
<svg baseProfile="tiny" height="60" viewBox="0 0 60 60" width="60" xmlns="http://www.w3.org/2000/svg" xmlns:xlink="http://www.w3.org/1999/xlink">
<g>
<rect fill="none" height="60" width="60"/>
<linearGradient gradientUnits="userSpaceOnUse" id="SVGID_1" x1="30" x2="30" y1="8.47" y2="51.33">
<stop offset="0" stop-color="#F2F2F2"/>
<stop offset="0.25" stop-color="#4F88BD"/>
<stop offset="0.73" stop-color="#0055A3"/>
<stop offset="1" stop-color="#64AEFB"/>
</linearGradient>
<path d="M30,51.428C18.184,51.428,8.57,41.816,8.57,30C8.57,18.186,18.184,8.572,30,8.572 c11.814,0,21.43,9.613,21.43,21.428C51.43,41.816,41.814,51.428,30,51.428L30,51.428z" fill="url(#SVGID_1)"/>
<radialGradient cx="29.8" cy="13.11" gradientUnits="userSpaceOnUse" id="SVGID_2" r="39.33">
<stop offset="0" stop-color="#96E9FA"/>
<stop offset="0.15" stop-color="#96E9FA"/>
<stop offset="0.75" stop-color="#005BCC"/>
<stop offset="1" stop-color="#0087D9"/>
</radialGradient>
<path d="M50.816,30c0,11.498-9.322,20.816-20.816,20.816C18.504,50.816,9.184,41.498,9.184,30 c0-11.494,9.32-20.816,20.816-20.816C41.494,9.184,50.816,18.506,50.816,30z" fill="url(#SVGID_2)"/>
<linearGradient gradientUnits="userSpaceOnUse" id="SVGID_3" x1="30" x2="30" y1="15.46" y2="43.93">
<stop offset="0" stop-color="#0B81FA"/>
<stop offset="1" stop-color="#47DAFA"/>
</linearGradient>
<path d="M29.998,44.193c-3.898,0-7.273-1.402-10.029-4.172c-2.762-2.773-4.16-6.152-4.16-10.041 c0-3.871,1.402-7.238,4.168-10.008c2.771-2.764,6.143-4.164,10.021-4.164c3.898,0,7.273,1.398,10.033,4.156 c2.758,2.758,4.16,6.127,4.16,10.016c0,2.268-0.469,4.27-1.387,5.949c-1.176,2.16-2.906,3.262-5.145,3.262 c-1.936,0-3.418-0.859-4.414-2.555c-1.078,0.883-2.398,1.33-3.936,1.33c-2.152,0-3.908-0.84-5.217-2.49 c-1.186-1.494-1.787-3.336-1.787-5.477c0-2.152,0.604-3.986,1.795-5.453c1.285-1.604,3.041-2.42,5.209-2.42 c1.107,0,2.068,0.213,2.873,0.633v-0.313h4.09v10.496c0,2.27,0.971,2.27,1.387,2.27c0.299,0,1.215,0,1.947-1.867 c0.4-1.041,0.604-2.174,0.604-3.365c0-2.805-0.98-5.139-3.004-7.141c-1.992-1.971-4.418-2.971-7.209-2.971 c-2.84,0-5.186,0.965-7.174,2.947c-1.986,1.984-2.953,4.328-2.953,7.164c0,2.842,0.973,5.189,2.967,7.182 c1.967,1.975,4.373,2.973,7.16,2.973h0.611v4.059H29.998L29.998,44.193z M29.311,26.146c-0.887,0-1.553,0.389-2.039,1.184 c-0.455,0.734-0.684,1.633-0.684,2.67c0,3.535,1.553,3.943,2.723,3.943c1.158,0,2.701-0.42,2.701-4.072 C32.012,26.531,30.469,26.146,29.311,26.146L29.311,26.146z" fill="url(#SVGID_3)"/>
<path d="M43.578,29.98c0,2.176-0.438,4.061-1.313,5.654c-1.063,1.961-2.598,2.943-4.605,2.943 c-1.953,0-3.363-0.982-4.242-2.943c-1.059,1.145-2.43,1.719-4.107,1.719c-1.967,0-3.543-0.752-4.736-2.258 c-1.102-1.391-1.656-3.084-1.656-5.096c0-2.021,0.555-3.707,1.656-5.064c1.178-1.467,2.756-2.197,4.736-2.197 c1.477,0,2.639,0.4,3.486,1.207v-0.885h2.863v9.883c0,1.922,0.664,2.883,2,2.883c1.09,0,1.928-0.754,2.516-2.256 c0.43-1.119,0.648-2.313,0.648-3.59c0-2.953-1.063-5.477-3.188-7.576c-2.121-2.1-4.668-3.146-7.639-3.146 c-2.982,0-5.518,1.041-7.607,3.125c-2.086,2.086-3.131,4.615-3.131,7.598c0,2.979,1.045,5.52,3.145,7.615 c2.092,2.102,4.627,3.152,7.594,3.152v2.834c-3.744,0-6.945-1.332-9.596-3.992c-2.654-2.666-3.982-5.873-3.982-9.609 c0-3.727,1.33-6.914,3.99-9.576c2.664-2.654,5.855-3.984,9.588-3.984c3.744,0,6.945,1.322,9.6,3.979 C42.25,23.045,43.578,26.24,43.578,29.98z M32.625,29.871c0-2.893-1.105-4.336-3.314-4.336c-1.104,0-1.961,0.49-2.561,1.479 c-0.52,0.832-0.773,1.826-0.773,2.986c0,3.039,1.109,4.557,3.332,4.557C31.52,34.557,32.625,32.996,32.625,29.871z" fill="#FFFFFF"/>
</g>
<g transform="matrix(0.5 0 0 0.5 30 30)">
<rect fill="none" height="60" width="60"/>
<linearGradient gradientUnits="userSpaceOnUse" id="SVGID_1_" x1="30" x2="30" y1="8.52" y2="50.07">
<stop offset="0" stop-color="#FFFFFF"/>
<stop offset="0.1" stop-color="#FFFFFF"/>
<stop offset="0.74" stop-color="#929497"/>
<stop offset="1" stop-color="#C8C8C8"/>
</linearGradient>
<path d="M47.14,25.712h-1.06c-0.674,0-1.396-0.523-1.607-1.163l-0.817-1.981 c-0.304-0.6-0.164-1.48,0.313-1.956l0.749-0.749c0.948-0.949,1.017-1.171,1.413-1.961l0.536-1.071 c-1.173-1.554-2.558-2.939-4.112-4.111l-1.07,0.533c-0.602,0.301-1.484,0.938-1.961,1.414l-0.748,0.749 c-0.478,0.476-1.359,0.618-1.959,0.313l-1.98-0.817c-0.643-0.212-1.165-0.938-1.165-1.61v-1.059c0-0.673-0.175-1.748-0.388-2.387 l-0.377-1.134c-0.953-0.133-1.921-0.206-2.908-0.206c-0.988,0-1.958,0.073-2.908,0.206l-0.378,1.134 c-0.213,0.639-0.387,1.713-0.387,2.387v1.059c0,0.673-0.523,1.397-1.162,1.608l-1.982,0.818c-0.6,0.304-1.48,0.163-1.956-0.313 l-0.75-0.749c-0.477-0.476-1.36-1.112-1.961-1.414l-1.07-0.536c-1.554,1.173-2.939,2.558-4.112,4.112l0.535,1.07 c0.301,0.603,0.938,1.485,1.414,1.961l0.75,0.75c0.476,0.476,0.617,1.357,0.312,1.957l-0.819,1.982 c-0.211,0.64-0.934,1.163-1.608,1.163h-1.058c-0.675,0-1.748,0.173-2.387,0.388l-1.134,0.377c-0.134,0.951-0.207,1.92-0.207,2.908 c0,0.987,0.073,1.957,0.207,2.907l1.134,0.379c0.639,0.214,1.712,0.387,2.387,0.387h1.058c0.675,0,1.398,0.523,1.608,1.164 l0.817,1.98c0.305,0.6,0.164,1.48-0.313,1.956l-0.749,0.749c-0.476,0.475-1.112,1.359-1.414,1.961l-0.536,1.07 c1.173,1.555,2.558,2.939,4.112,4.111l1.07-0.533c0.603-0.301,1.485-0.938,1.961-1.414l0.749-0.748 c0.476-0.476,1.358-0.618,1.958-0.313l1.98,0.816c0.642,0.213,1.165,0.938,1.165,1.61v1.059c0,0.674,0.174,1.747,0.387,2.387 l0.378,1.133c0.951,0.133,1.92,0.206,2.908,0.206c0.987,0,1.955-0.073,2.908-0.206l0.377-1.133c0.213-0.64,0.388-1.713,0.388-2.387 v-1.059c0-0.674,0.522-1.397,1.162-1.608l1.981-0.817c0.601-0.305,1.48-0.163,1.957,0.313l0.748,0.748 c0.477,0.476,1.359,1.111,1.961,1.414l1.072,0.535c1.554-1.172,2.938-2.557,4.11-4.111l-0.536-1.07 c-0.299-0.602-0.936-1.486-1.413-1.961l-0.747-0.749c-0.478-0.476-0.617-1.357-0.313-1.958l0.815-1.979 c0.214-0.642,0.937-1.165,1.609-1.165h1.061c0.673,0,1.747-0.172,2.386-0.387l1.135-0.379c0.133-0.949,0.207-1.92,0.207-2.907 c0-0.988-0.074-1.956-0.207-2.908L49.525,26.1C48.887,25.886,47.813,25.712,47.14,25.712z M29.998,36.732 c-4.059,0-7.347-3.289-7.347-7.347c0-4.057,3.288-7.347,7.347-7.347c4.057,0,7.346,3.29,7.346,7.347 C37.344,33.443,34.055,36.732,29.998,36.732z" fill="url(#SVGID_1_)"/>
<linearGradient gradientUnits="userSpaceOnUse" id="SVGID_2_" x1="22.6" x2="37.39" y1="32.78" y2="32.78">
<stop offset="0" stop-color="#7A7A7A"/>
<stop offset="0.5" stop-color="#FFFFFF"/>
<stop offset="1" stop-color="#7A7A7A"/>
</linearGradient>
<path d="M29.998,36.732c4.057,0,7.346-3.289,7.346-7.347c0-0.192-0.014-0.378-0.028-0.566 c-0.29,3.792-3.451,6.782-7.317,6.782c-3.867,0-7.028-2.989-7.318-6.782c-0.015,0.188-0.029,0.375-0.029,0.566 C22.651,33.443,25.939,36.732,29.998,36.732z" fill="url(#SVGID_2_)"/>
<linearGradient gradientUnits="userSpaceOnUse" id="SVGID_3_" x1="30" x2="30" y1="41.78" y2="16.69">
<stop offset="0" stop-color="#FFFFFF"/>
<stop offset="0.52" stop-color="#C8C8C8"/>
<stop offset="1" stop-color="#929497"/>
</linearGradient>
<path d="M29.998,16.3c-7.227,0-13.086,5.859-13.086,13.086c0,7.228,5.859,13.085,13.086,13.085 c7.227,0,13.086-5.857,13.086-13.085C43.084,22.159,37.225,16.3,29.998,16.3z M29.998,39.498c-5.584,0-10.113-4.526-10.113-10.112 c0-5.585,4.528-10.112,10.113-10.112c5.582,0,10.111,4.527,10.111,10.112C40.109,34.972,35.58,39.498,29.998,39.498z" fill="url(#SVGID_3_)"/>
<rect fill="none" height="59.996" width="59.996"/>
</g>
</svg>
