<?xml version="1.0" encoding="UTF-8" standalone="no"?>
<!DOCTYPE svg PUBLIC "-//W3C//DTD SVG 1.1 Tiny//EN" "http://www.w3.org/Graphics/SVG/1.1/DTD/svg11-tiny.dtd">
<svg xmlns="http://www.w3.org/2000/svg" xmlns:xlink="http://www.w3.org/1999/xlink" baseProfile="tiny" height="30px" version="1.1" viewBox="0 0 30 30" width="30px" x="0px" y="0px">
<g fill-opacity="0.5" stroke-opacity="0.5">
<rect fill="none" height="30" width="30"/>
</g>
<rect height="7" width="26" x="2" y="2"/>
<path d="M28,13.828V11h-3.656c0.512,0,1.023,0.195,1.414,0.586L28,13.828z"/>
<path d="M18.515,16H4v-3h17.515l1.414-1.414C23.319,11.195,23.831,11,24.344,11H2v7h14.515L18.515,16z"/>
<path d="M24.343,13L13.736,23.606l-0.707,6.364l6.364-0.707L30,18.657L24.343,13z M18.687,27.142l-2.828-2.828l8.484-8.485  l2.829,2.829L18.687,27.142z"/>
</svg>
