<?xml version="1.0" encoding="UTF-8"?>
<!DOCTYPE svg PUBLIC "-//W3C//DTD SVG 1.1 Tiny//EN" "http://www.w3.org/Graphics/SVG/1.1/DTD/svg11-tiny.dtd">
<svg baseProfile="tiny" height="30" viewBox="0 0 30 30" width="30" xmlns="http://www.w3.org/2000/svg" xmlns:xlink="http://www.w3.org/1999/xlink">
<rect fill="none" height="30" width="30"/>
<path d="M11.189,0H9.799C7.605,0,4.375,2.538,4.375,4.707c0,0-0.332,5.294,0.658,7.392c0.544,1.145,1.503,2.076,2.615,2.806 c0.002,0.148,0.014,0.419,0.004,0.566c-0.007,0.102-0.043,0.209-0.08,0.317h5.857c-0.037-0.108-0.072-0.216-0.079-0.317 c-0.011-0.157,0-0.437,0.003-0.596c1.086-0.732,2.027-1.654,2.6-2.776c1.061-2.08,0.672-7.392,0.672-7.392 C16.625,2.538,13.383,0,11.189,0z"/>
<path d="M15.377,18.012c-0.592-0.482-1.112-0.966-1.474-1.421L10.5,24.286l-3.401-7.694C5.402,18.725,0.295,21.482,0,21.87V28h15.09 C15.036,27.711,15,27.415,15,27.11V19.89C15,19.225,15.136,18.591,15.377,18.012z"/>
<path d="M27.111,17h-7.223C18.294,17,17,18.294,17,19.89v7.221c0,1.596,1.294,2.89,2.889,2.89h7.223C28.706,30,30,28.706,30,27.11 V19.89C30,18.294,28.706,17,27.111,17z M19.807,28.555c-0.752,0-1.361-0.608-1.361-1.359s0.609-1.36,1.361-1.36 s1.363,0.609,1.363,1.36S20.559,28.555,19.807,28.555z M25.102,28.555H23.17c0.002-0.08,0.012-0.159,0.012-0.241 c0-2.48-2.021-4.5-4.506-4.5c-0.078,0-0.154,0.008-0.23,0.012v-1.928c0.076-0.002,0.152-0.012,0.23-0.012 c3.549,0,6.438,2.884,6.438,6.428C25.113,28.396,25.105,28.475,25.102,28.555z M28.543,28.555H26.61 c0.003-0.082,0.013-0.164,0.013-0.245c0-4.377-3.564-7.937-7.947-7.937c-0.078,0-0.154,0.009-0.23,0.012v-1.929 c0.078-0.001,0.152-0.011,0.23-0.011c5.448,0,9.879,4.424,9.879,9.864C28.555,28.391,28.544,28.473,28.543,28.555z"/>
</svg>
