<?xml version="1.0" encoding="UTF-8"?>
<!DOCTYPE svg PUBLIC "-//W3C//DTD SVG 1.1 Tiny//EN" "http://www.w3.org/Graphics/SVG/1.1/DTD/svg11-tiny.dtd">
<svg baseProfile="tiny" height="194.3px" version="1.1" viewBox="0 0 194.3 194.3" width="194.3px" x="0px" xmlns="http://www.w3.org/2000/svg" xmlns:xlink="http://www.w3.org/1999/xlink" y="0px">
<rect fill="#A6A8AB" height="194.3" width="194.232" x="0.093"/>
<rect fill="#231F20" height="143.675" width="194.231" x="0.161" y="25.313"/>
<g>
<path d="M187.666,157.97c0,1.146-0.506,2.08-1.137,2.08H8.681c-0.628,0-1.138-0.934-1.138-2.08v-1.158   c0-1.146,0.51-2.076,1.138-2.076H186.53c0.631,0,1.137,0.93,1.137,2.076V157.97z" fill="#808184"/>
<path d="M64.512,154.728H8.663c-0.618,0-1.12,0.928-1.12,2.076v1.158c0,1.145,0.502,2.078,1.12,2.078h55.849   V154.728z" fill="#FFFFFF"/>
</g>
<path d="M71.81,91.858c0,14.069,11.401,25.476,25.465,25.476c14.069,0,25.467-11.406,25.467-25.476  c0-14.07-11.398-25.477-25.467-25.477C83.212,66.381,71.81,77.788,71.81,91.858z" fill="#808184"/>
<g>
<polygon fill="#FFFFFF" points="88.982,77.048 88.982,106.667 110.383,91.83  "/>
<polygon fill="#FFFFFF" points="88.982,77.048 88.982,106.667 110.383,91.83  "/>
</g>
</svg>
