<?xml version="1.0" encoding="UTF-8"?>
<!DOCTYPE svg PUBLIC "-//W3C//DTD SVG 1.1 Tiny//EN" "http://www.w3.org/Graphics/SVG/1.1/DTD/svg11-tiny.dtd">
<svg baseProfile="tiny" height="60" viewBox="0 0 60 60" width="60" xmlns="http://www.w3.org/2000/svg" xmlns:xlink="http://www.w3.org/1999/xlink">
<rect fill="none" height="60" width="60"/>
<rect fill="none" height="59.996" width="59.996"/>
<linearGradient gradientUnits="userSpaceOnUse" id="SVGID_1" x1="30" x2="30" y1="8.77" y2="51.63">
<stop offset="0" stop-color="#E5FFB2"/>
<stop offset="0.39" stop-color="#6AAB18"/>
<stop offset="0.68" stop-color="#247307"/>
<stop offset="1" stop-color="#C2FF4A"/>
</linearGradient>
<circle cx="29.998" cy="29.998" fill="url(#SVGID_1)" r="21.427"/>
<radialGradient cx="30.2" cy="11.02" gradientUnits="userSpaceOnUse" id="SVGID_2" r="39.38">
<stop offset="0" stop-color="#AFED23"/>
<stop offset="0.81" stop-color="#358C0C"/>
<stop offset="1" stop-color="#67AD1A"/>
</radialGradient>
<path d="M29.998,50.813c-11.478,0-20.815-9.337-20.815-20.814S18.521,9.183,29.998,9.183 c11.477,0,20.814,9.337,20.814,20.815S41.475,50.813,29.998,50.813L29.998,50.813z" fill="url(#SVGID_2)"/>
<polygon fill-opacity="0.1" points="25.252,27.84 27.297,27.84 27.297,45.543 33.251,45.543 33.251,24.45 25.252,24.45 " stroke-opacity="0.1"/>
<path d="M30.295,22.262c0.98,0,1.767-0.243,2.359-0.727 c0.592-0.484,0.888-1.151,0.888-2c0-0.825-0.306-1.486-0.915-1.981c-0.609-0.496-1.387-0.745-2.332-0.745 c-0.993,0-1.778,0.245-2.358,0.735c-0.581,0.49-0.871,1.154-0.871,1.991c0,0.849,0.296,1.516,0.889,2 C28.547,22.02,29.327,22.262,30.295,22.262z" fill-opacity="0.1" stroke-opacity="0.1"/>
<polygon fill-opacity="0.2" points="25.252,27.228 27.297,27.228 27.297,44.931 33.251,44.931 33.251,23.838 25.252,23.838 " stroke-opacity="0.2"/>
<path d="M30.295,21.65c0.98,0,1.767-0.243,2.359-0.727 c0.592-0.484,0.888-1.151,0.888-2c0-0.825-0.306-1.485-0.915-1.981s-1.387-0.745-2.332-0.745c-0.993,0-1.778,0.245-2.358,0.735 c-0.581,0.491-0.871,1.154-0.871,1.991c0,0.85,0.296,1.516,0.889,2C28.547,21.407,29.327,21.65,30.295,21.65z" fill-opacity="0.2" stroke-opacity="0.2"/>
<linearGradient gradientUnits="userSpaceOnUse" id="SVGID_3" x1="29.25" x2="29.25" y1="15.88" y2="44.66">
<stop offset="0" stop-color="#F6FDFF"/>
<stop offset="1" stop-color="#ADB3B5"/>
</linearGradient>
<polygon fill="url(#SVGID_3)" points="25.252,26.616 27.297,26.616 27.297,44.318 33.251,44.318 33.251,23.226 25.252,23.226 "/>
<path d="M30.274,21.038c0.981,0,1.767-0.242,2.359-0.727s0.888-1.151,0.888-2 c0-0.825-0.306-1.486-0.915-1.982c-0.609-0.496-1.387-0.744-2.332-0.744c-0.992,0-1.778,0.245-2.358,0.735 c-0.581,0.491-0.871,1.154-0.871,1.991c0,0.849,0.296,1.516,0.889,2C28.525,20.795,29.305,21.038,30.274,21.038z" fill="url(#SVGID_3)"/>
</svg>
