<?xml version="1.0" ?>
<!DOCTYPE svg  PUBLIC '-//W3C//DTD SVG 1.1 Tiny//EN'  'http://www.w3.org/Graphics/SVG/1.1/DTD/svg11-tiny.dtd'>
<svg baseProfile="tiny" height="30px" version="1.1" viewBox="0 0 30 30" width="30px" x="0px" xmlns="http://www.w3.org/2000/svg" xmlns:xlink="http://www.w3.org/1999/xlink" y="0px">

<g fill-opacity="0.5" stroke-opacity="0.5">

<rect fill="none" height="30" width="30"/>

</g>

<path d="M6,13h2v1h-2v2h2v3h-2v2h2v1h-2v2h13v-2h-1v-1h1v-2h-2v-3h2v-2h-1v-1h1v-2h-13v2zm3,0h2v1h-2v-1zm3,1v-1h2v1h-2zm-3,7h2v1h-2v-1zm5,0v1h-2v-1h2zm3,1h-2v-1h2v1zm-2-3h-5v-3h5v3zm2-5h-2v-1h2v1z"/>

<polygon points="5.999,1,5.999,4,26,4,26,24,29,24,29,1"/>

<path d="M1,29h23v-23h-23v23zm3-20h17v17h-17v-17z"/>

</svg>