<?xml version="1.0" encoding="utf-8"?>
<!-- Generator: Adobe Illustrator 14.0.0, SVG Export Plug-In  -->
<!DOCTYPE svg PUBLIC "-//W3C//DTD SVG 1.1//EN" "http://www.w3.org/Graphics/SVG/1.1/DTD/svg11.dtd" [
	<!ENTITY ns_flows "http://ns.adobe.com/Flows/1.0/">
]>
<svg version="1.1"
	 xmlns="http://www.w3.org/2000/svg" xmlns:xlink="http://www.w3.org/1999/xlink" xmlns:a="http://ns.adobe.com/AdobeSVGViewerExtensions/3.0/"
	 x="0px" y="0px" width="30px" height="30px" viewBox="0 0 30 30" enable-background="new 0 0 30 30" xml:space="preserve">
<defs>
</defs>
<polygon points="1.539,18 2,21 4,21 4,18 "/>
<polygon points="0.77,13 1.23,16 4,16 4,13 "/>
<polygon points="0,8 0.461,11 4,11 4,8 "/>
<g opacity="0.5">
	<rect fill="none" width="30" height="30"/>
</g>
<path d="M5,6v18h24V6H5z M27,22H7V8h20V22z"/>
<rect x="18" y="11" width="7" height="2"/>
<rect x="18" y="15" width="7" height="2"/>
<path d="M13.447,16.48c-0.004-0.076,0-0.443,0-0.52c0.553-0.355,0.939-0.771,1.23-1.313c0.537-1.007,0.25-3.373,0.25-3.373
	c0-1.049-1.465-2.275-2.577-2.275h-0.706c-1.115,0-2.58,1.227-2.58,2.275c0,0-0.255,2.355,0.248,3.369
	c0.276,0.554,0.676,0.963,1.24,1.316c0.002,0.071,0.006,0.447,0.002,0.52c-0.07,1.028-2.377,1.604-2.555,1.827V20h8v-1.69
	C15.821,18.086,13.516,17.509,13.447,16.48z"/>
</svg>
