<?xml version="1.0" encoding="UTF-8"?>
<!DOCTYPE svg PUBLIC "-//W3C//DTD SVG 1.1 Tiny//EN" "http://www.w3.org/Graphics/SVG/1.1/DTD/svg11-tiny.dtd">
<svg baseProfile="tiny" height="30" viewBox="0 0 30 30" width="30" xmlns="http://www.w3.org/2000/svg" xmlns:xlink="http://www.w3.org/1999/xlink">
<rect fill="none" height="30" width="30"/>
<rect fill-opacity="0.6" height="28" width="28" x="1" y="1"/>
<linearGradient gradientUnits="userSpaceOnUse" id="SVGID_1" x1="15" x2="15" y1="2" y2="28">
<stop offset="0" stop-color="#4EDEFF"/>
<stop offset="1" stop-color="#048CC6"/>
</linearGradient>
<rect fill="url(#SVGID_1)" height="26" width="26" x="2" y="2"/>
<polygon fill-opacity="0.2" points="20.904,17.24 25.244,16.488 23.202,20.391 25.26,24.286 20.916,23.55 17.848,26.71 17.206,22.352 13.252,20.41 17.199,18.453 17.824,14.092 "/>
<circle cx="8" cy="9" fill-opacity="0.2" r="4"/>
<circle cx="21.5" cy="8.5" fill-opacity="0.2" r="2.5"/>
<rect fill-opacity="0.2" height="10" width="6" x="5" y="17"/>
<linearGradient gradientUnits="userSpaceOnUse" id="SVGID_2" x1="19.26" x2="19.26" y1="25.38" y2="13">
<stop offset="0" stop-color="#FEAB0E"/>
<stop offset="0.31" stop-color="#FEAB0E"/>
<stop offset="0.79" stop-color="#FFDA33"/>
<stop offset="1" stop-color="#FFE377"/>
</linearGradient>
<polygon fill="url(#SVGID_2)" points="20.904,16.24 25.244,15.488 23.202,19.391 25.26,23.286 20.916,22.55 17.848,25.71 17.206,21.352 13.252,19.41 17.199,17.453 17.824,13.092 "/>
<circle cx="8" cy="8" fill="#FFFFFF" r="4"/>
<circle cx="21.5" cy="7.5" fill="#FFFFFF" r="2.5"/>
<rect fill="#FFFFFF" height="10" width="6" x="5" y="16"/>
<rect fill="#FFFFFF" fill-opacity="0.4" height="1" width="26" x="2" y="2"/>
</svg>
