<?xml version="1.0" encoding="UTF-8"?>
<!DOCTYPE svg PUBLIC "-//W3C//DTD SVG 1.1 Tiny//EN" "http://www.w3.org/Graphics/SVG/1.1/DTD/svg11-tiny.dtd">
<svg baseProfile="tiny" height="30" viewBox="0 0 30 30" width="30" xmlns="http://www.w3.org/2000/svg" xmlns:xlink="http://www.w3.org/1999/xlink">
<rect fill="none" height="30" width="30"/>
<path d="M2.647,27.354v-0.882c0-2.625,1.168-4.641,3.38-5.83 c0.531-0.285,1.713-0.749,3.328-1.371c0.6-0.23,1.317-0.508,1.667-0.655c0.13-0.374,0.097-1.011,0.001-1.202 c0,0-0.975-1.768-1.011-1.842c-0.802-0.083-1.569-0.771-1.944-1.764c-0.403-1.067-0.252-2.129,0.329-2.73 c-0.52-2.232-0.404-3.951,0.347-5.112c0.446-0.689,1.118-1.172,1.917-1.382c0.824-0.997,1.986-1.938,4.132-1.938 c2.504,0.085,4.447,0.948,5.651,2.499c1.184,1.524,1.567,3.644,1.085,5.982c0.549,0.615,0.67,1.672,0.25,2.721 c-0.362,0.91-1.035,1.542-1.771,1.69c-0.041,0.086-1.036,1.887-1.036,1.887c-0.107,0.211-0.12,0.911,0.021,1.25 c0.294,0.117,0.874,0.336,1.399,0.533c1.713,0.645,3.066,1.16,3.577,1.429c0.566,0.3,3.387,1.983,3.387,5.835v0.882H2.647z" fill-opacity="0.6" stroke-opacity="0.6"/>
<linearGradient gradientUnits="userSpaceOnUse" id="SVGID_1" x1="15" x2="15" y1="23.08" y2="16.98">
<stop offset="0" stop-color="#FFA98E"/>
<stop offset="0.2" stop-color="#FFA98E"/>
<stop offset="0.96" stop-color="#D45D36"/>
<stop offset="1" stop-color="#D45D36"/>
</linearGradient>
<path d="M18.678,19.592c-0.812-0.356-0.785-2.109-0.451-2.639c0.058-0.092,0.111-0.184,0.168-0.277 h-6.788c0.056,0.094,0.109,0.186,0.167,0.277c0.334,0.531,0.36,2.282-0.451,2.639c-0.812,0.357,3.771,3.47,3.771,3.47 S19.49,19.949,18.678,19.592z" fill="url(#SVGID_1)"/>
<path d="M11.775,16.953c0.136,0.216,0.216,0.637,0.214,1.082 c0.764,0.833,1.816,1.67,2.96,1.67c1.467,0,2.406-0.753,3.066-1.568c-0.018-0.481,0.064-0.949,0.211-1.182 c0.058-0.094,0.111-0.186,0.168-0.277h-6.788C11.664,16.77,11.716,16.859,11.775,16.953z" fill-opacity="0.1" stroke-opacity="0.1"/>
<linearGradient gradientUnits="userSpaceOnUse" id="SVGID_2" x1="15" x2="15" y1="19.27" y2="26.47">
<stop offset="0" stop-color="#FF7236"/>
<stop offset="1" stop-color="#BA1212"/>
</linearGradient>
<path d="M23.557,21.418c-0.854-0.449-5.084-1.951-5.164-2.045l-3.231,2.723l-3.473-2.828 c-0.094,0.145-4.277,1.631-5.244,2.15c-1.107,0.598-2.915,1.967-2.915,5.055h22.943C26.473,23.385,24.409,21.869,23.557,21.418z" fill="url(#SVGID_2)"/>
<path d="M23.145,22.199c-0.453-0.238-2.211-0.9-3.375-1.34c-0.554-0.207-0.943-0.354-1.223-0.463 l-0.275,0.232c0.18,0.068,0.38,0.144,0.615,0.232c1.163,0.438,2.923,1.1,3.375,1.339c0.362,0.191,2.014,1.177,2.374,3.39h0.882 C25.16,23.377,23.508,22.391,23.145,22.199z" fill="#FF7B56"/>
<path d="M7.745,22.195c0.475-0.254,2.012-0.848,3.134-1.279c0.389-0.15,0.708-0.273,0.975-0.377l-0.29-0.236 c-0.339,0.139-0.832,0.33-1.566,0.611c-1.122,0.434-2.66,1.025-3.134,1.281c-1.372,0.739-2.174,1.879-2.391,3.395h0.882 C5.571,24.074,6.374,22.935,7.745,22.195z" fill="#FF7B56"/>
<radialGradient cx="12.31" cy="9.37" gradientUnits="userSpaceOnUse" id="SVGID_3" r="11.7">
<stop offset="0" stop-color="#FFE2D9"/>
<stop offset="0.51" stop-color="#FFC6B3"/>
<stop offset="0.76" stop-color="#FFA98E"/>
<stop offset="1" stop-color="#E88160"/>
</radialGradient>
<path d="M20.629,11.538c-0.029-0.014-0.061-0.017-0.092-0.025v-0.001 c-0.006-0.001-0.011-0.002-0.018-0.003c-0.045-0.012-0.09-0.021-0.135-0.025c-5.667-1-8.266-4.181-8.463-3.338 c-0.155,0.67-1.744,2.12-2.576,2.844c0.007,0.032,0.012,0.061,0.018,0.093c0,0,0.03,0.149,0.092,0.401 c-0.066,0.007-0.13,0.021-0.194,0.049c-0.53,0.226-0.695,1.106-0.371,1.965c0.325,0.86,1.017,1.374,1.545,1.149 c0.034-0.015,0.061-0.039,0.091-0.057c0.309,0.701,0.686,1.452,1.149,2.206c0.775,0.934,1.962,2.029,3.273,2.029 c1.585,0,2.556-0.88,3.223-1.767c0.017-0.037,0.034-0.072,0.054-0.103c0.494-0.783,0.895-1.569,1.22-2.3 c0.519,0.183,1.184-0.305,1.513-1.132C21.301,12.666,21.152,11.778,20.629,11.538z" fill="url(#SVGID_3)"/>
<linearGradient gradientUnits="userSpaceOnUse" id="SVGID_4" x1="14.9" x2="14.9" y1="3.64" y2="10.94">
<stop offset="0" stop-color="#8A5D3B"/>
<stop offset="0.38" stop-color="#632F00"/>
<stop offset="1" stop-color="#361700"/>
</linearGradient>
<path d="M14.791,3.53c-1.964,0-2.91,0.905-3.638,1.852C9.966,5.567,8.085,6.67,9.414,11.5 c0.831-0.724,2.354-2.684,2.509-3.354c0.199-0.851,2.842,2.399,8.615,3.366c0.067-0.27,0.099-0.43,0.099-0.43 C21.543,6.959,19.57,3.691,14.791,3.53z" fill="url(#SVGID_4)"/>
<linearGradient gradientUnits="userSpaceOnUse" id="SVGID_5" x1="15.05" x2="15.05" y1="19.58" y2="24.38">
<stop offset="0" stop-color="#BC1C24"/>
<stop offset="1" stop-color="#6B1C24"/>
</linearGradient>
<path d="M20.26,20.102c-0.997-0.375-1.831-0.688-1.866-0.729l-3.231,2.723l-3.472-2.828 c-0.042,0.063-0.857,0.38-1.844,0.76l5.335,4.359L20.26,20.102z" fill="url(#SVGID_5)"/>
<rect fill="none" height="30.002" width="30.002"/>
</svg>
