<?xml version="1.0" encoding="UTF-8"?>
<!DOCTYPE svg PUBLIC "-//W3C//DTD SVG 1.1 Tiny//EN" "http://www.w3.org/Graphics/SVG/1.1/DTD/svg11-tiny.dtd">
<svg baseProfile="tiny" height="40px" version="1.1" viewBox="0 0 60 40" width="60px" x="0px" xmlns="http://www.w3.org/2000/svg" xmlns:xlink="http://www.w3.org/1999/xlink" y="0px">
<rect fill="none" height="40" width="60"/>
<linearGradient gradientUnits="userSpaceOnUse" id="SVGID_1_" x1="29.5" x2="29.5" y1="-0.1704" y2="38.8301">
<stop offset="0" style="stop-color:#646464"/>
<stop offset="0.2679" style="stop-color:#585858"/>
<stop offset="0.75" style="stop-color:#464646"/>
<stop offset="0.8457" style="stop-color:#525252"/>
<stop offset="1" style="stop-color:#6E6E6E"/>
</linearGradient>
<path d="M0,0v39h50c4.963,0,9-4.037,9-9V0H0z" fill="url(#SVGID_1_)"/>
<path d="M58,0v30c0,4.411-3.589,8-8,8H0v2h50c5.5,0,10-4.5,10-10V0H58z" fill="#FFFFFF" fill-opacity="0.1" stroke-opacity="0.1"/>
<linearGradient gradientUnits="userSpaceOnUse" id="SVGID_2_" x1="28.5" x2="28.5" y1="2.125" y2="20.8817">
<stop offset="0" style="stop-color:#FFFFFF"/>
<stop offset="1" style="stop-color:#505050"/>
</linearGradient>
<polygon fill="url(#SVGID_2_)" fill-opacity="0.7" points="0,1 0,2 56,2 56,21 57,21 57,1 " stroke-opacity="0.7"/>
<linearGradient gradientUnits="userSpaceOnUse" id="SVGID_3_" x1="28" x2="28" y1="1.769" y2="18.0023">
<stop offset="0" style="stop-color:#FFFFFF"/>
<stop offset="1" style="stop-color:#999999"/>
</linearGradient>
<rect fill="url(#SVGID_3_)" fill-opacity="0.1" height="16" stroke-opacity="0.1" width="56" y="2"/>
<linearGradient gradientUnits="userSpaceOnUse" id="SVGID_4_" x1="0.5" x2="0.5" y1="2" y2="38.0005">
<stop offset="0" style="stop-color:#828282"/>
<stop offset="0.0971" style="stop-color:#BEBEBE"/>
<stop offset="0.1826" style="stop-color:#EDEDED"/>
<stop offset="0.2253" style="stop-color:#FFFFFF"/>
<stop offset="1" style="stop-color:#505050"/>
</linearGradient>
<rect fill="url(#SVGID_4_)" fill-opacity="0.4" height="36" stroke-opacity="0.4" width="1" y="2"/>
<linearGradient gradientTransform="matrix(-1 0 0 1 -1619 0)" gradientUnits="userSpaceOnUse" id="SVGID_5_" x1="-1676" x2="-1620" y1="33" y2="33">
<stop offset="0" style="stop-color:#666666"/>
<stop offset="0.5055" style="stop-color:#F8FBFF"/>
<stop offset="1" style="stop-color:#666666"/>
</linearGradient>
<path d="M57,28v2c0,4.411-3.589,8-8,8H1v-2h48C53.411,36,57,32.411,57,28z" fill="url(#SVGID_5_)" fill-opacity="0.4" stroke-opacity="0.4"/>
</svg>
