<?xml version="1.0" encoding="UTF-8"?>
<!DOCTYPE svg PUBLIC "-//W3C//DTD SVG 1.1 Tiny//EN" "http://www.w3.org/Graphics/SVG/1.1/DTD/svg11-tiny.dtd">
<svg baseProfile="tiny" height="31px" version="1.1" viewBox="0 0 31 31" width="31px" x="0px" xmlns="http://www.w3.org/2000/svg" xmlns:xlink="http://www.w3.org/1999/xlink" y="0px">
<path d="M15.87,7.11c1.071,1.078,2.212,2.219,2.839,2.845c-0.524,0.52-1.54,1.536-2.521,2.519l1.735,1.73  c1.587-1.591,4.252-4.249,4.252-4.249L13.348,1.12v8.52l2.522,2.516V7.11z"/>
<path d="M15.862,22.891v-4.349l-2.874-2.867c-1.762,1.756-5.163,5.162-5.163,5.162l1.732,1.731l3.79-3.781V28.88l6.427-6.434  l-1.735-1.731C17.417,21.337,16.628,22.127,15.862,22.891z"/>
<rect height="1.867" transform="matrix(-0.7079 -0.7063 0.7063 -0.7079 15.5243 37.4201)" width="35.827" x="-2.414" y="14.566"/>
</svg>
