<?xml version="1.0" encoding="UTF-8"?>
<!DOCTYPE svg PUBLIC "-//W3C//DTD SVG 1.1 Tiny//EN" "http://www.w3.org/Graphics/SVG/1.1/DTD/svg11-tiny.dtd">
<svg baseProfile="tiny" height="60" viewBox="0 0 60 60" width="60" xmlns="http://www.w3.org/2000/svg" xmlns:xlink="http://www.w3.org/1999/xlink">
<g>
<linearGradient gradientTransform="matrix(0.2118 0.9773 -0.9773 0.2118 -634.5609 -270.4865)" gradientUnits="userSpaceOnUse" id="SVGID_1_" x1="423.0967" x2="429.6524" y1="-578.646" y2="-582.9078">
<stop offset="0" style="stop-color:#A7E722"/>
<stop offset="0.1333" style="stop-color:#A7E722"/>
<stop offset="0.6303" style="stop-color:#428C0F"/>
<stop offset="1" style="stop-color:#5CA617"/>
</linearGradient>
<path d="M19.081,33.91c2.089-3.595,4.591-6.496,7.281-9.188c2.593-2.591,6.72-5.3,8.562-6.256l9.604-10.282  c-0.845-0.3-3.693-0.464-7.279,0.616c-3.586,1.083-11.736,6.303-16.979,11.547c-5.242,5.246-9.727,12.347-10.581,14.595  c-1.343,3.541-1.221,7.445-0.929,8.58c0,0,0.34,1.035,1.144,2.377C10.248,46.475,19.081,33.91,19.081,33.91z" fill="url(#SVGID_1_)"/>
<path d="M31.184,20.8c1.488-1.036,2.87-1.882,3.74-2.334L44.271,8.46  c-0.132-0.058-0.209-0.088-0.209-0.088c-0.247-0.088-0.642-0.162-1.124-0.219c-0.793,0.006-1.596,0.093-2.401,0.27  C34.843,9.673,31.019,14.958,31.184,20.8z" fill="#020202" fill-opacity="0.05" stroke-opacity="0.05"/>
<path d="M31.906,20.306c1.205-0.809,2.291-1.462,3.018-1.84l9.377-10.04  c-0.146-0.063-0.233-0.098-0.233-0.098c-0.231-0.08-0.604-0.152-1.06-0.203c-0.751,0.006-1.51,0.087-2.27,0.253  C35.275,9.576,31.636,14.695,31.906,20.306z" fill="#020202" fill-opacity="0.1" stroke-opacity="0.1"/>
<path d="M44.079,8.263c-0.21-0.073-0.55-0.137-0.962-0.186c-0.681,0.006-1.369,0.08-2.06,0.231  c-5.087,1.116-8.426,5.984-7.978,11.233c0.725-0.455,1.363-0.826,1.844-1.076l9.424-10.088C44.178,8.302,44.079,8.263,44.079,8.263z  " fill="#020202" fill-opacity="0.1" stroke-opacity="0.1"/>
<radialGradient cx="40.9697" cy="9.21" gradientUnits="userSpaceOnUse" id="SVGID_2_" r="12.2872">
<stop offset="0" style="stop-color:#A7E722"/>
<stop offset="0.6242" style="stop-color:#428C0F"/>
<stop offset="1" style="stop-color:#5CA617"/>
</radialGradient>
<path d="M34.924,18.466l0.929,1.55c0,0,15.101-6.784,14.084-8.038c-0.513-0.631-0.577-0.656-1.237-1.263  c-1.985-1.815-4.172-2.531-4.172-2.531c-0.186-0.063-0.481-0.12-0.845-0.161c-0.596,0.004-1.2,0.068-1.806,0.201  c-4.591,1.009-7.57,5.501-6.963,10.257C34.916,18.477,34.921,18.47,34.924,18.466z" fill="url(#SVGID_2_)"/>
<path d="M17.483,34.105c-0.988-0.139-2.007-0.119-3.027,0.105c-2.418,0.531-4.376,2.066-5.646,4.131  c-0.367,2.35-0.25,4.408-0.05,5.18c0,0,0.34,1.035,1.144,2.377c0.29,0.482,6.54-8.264,8.556-11.107L17.483,34.105z" fill="#020202" fill-opacity="0.1" stroke-opacity="0.1"/>
<path d="M18.366,34.135c-0.989-0.139-2.008-0.117-3.029,0.105c-3.313,0.727-5.775,3.332-6.76,6.623  c-0.026,1.025,0.034,1.873,0.127,2.398c0.003,0.012,0.005,0.033,0.01,0.047c0,0,0.34,1.033,1.144,2.379  c0.3,0.498,6.981-8.887,8.75-11.383L18.366,34.135z" fill="#020202" fill-opacity="0.1" stroke-opacity="0.1"/>
<radialGradient cx="437.4258" cy="-571.231" gradientTransform="matrix(0.2095 0.9787 -0.9682 0.2124 -629.4526 -270.6148)" gradientUnits="userSpaceOnUse" id="SVGID_3_" r="14.6187">
<stop offset="0" style="stop-color:#A7E722"/>
<stop offset="0.6242" style="stop-color:#428C0F"/>
<stop offset="1" style="stop-color:#5CA617"/>
</radialGradient>
<path d="M11.202,47.738c0.616,0.74,0.646,0.953,1.295,1.523c1.194,1.055,9.301-13.611,9.301-13.611  l-2.683-1.719c-0.941-0.111-1.914-0.08-2.89,0.135c-4.777,1.049-7.806,5.869-6.87,10.832C9.749,45.686,10.349,46.709,11.202,47.738z  " fill="url(#SVGID_3_)"/>
<path d="M49.937,11.978c-0.179-0.22-0.381-0.446-0.578-0.67l-13.944,7.959l0.438,0.749  C35.853,20.016,50.953,13.231,49.937,11.978z" fill="#020202" fill-opacity="0.4" stroke-opacity="0.4"/>
<linearGradient gradientTransform="matrix(0.2118 0.9773 -0.9773 0.2118 -634.5599 -270.4865)" gradientUnits="userSpaceOnUse" id="SVGID_4_" x1="422.2881" x2="427.4786" y1="-610.9287" y2="-594.4409">
<stop offset="0" style="stop-color:#C6FF45"/>
<stop offset="0.6788" style="stop-color:#387300"/>
<stop offset="1" style="stop-color:#66A00E"/>
</linearGradient>
<path d="M35.853,20.016l1.178,1.981c0.302,0.515,0.972,0.674,1.569,0.422l4.09-2.334l8.043-4.668  c0.632-0.363,0.878-1.119,0.549-1.686c0,0-0.333-0.501-1.349-1.751L35.853,20.016z" fill="url(#SVGID_4_)"/>
<path d="M21.798,35.65l-0.725-0.473l-9.215,13.486c0.216,0.205,0.43,0.414,0.639,0.598  C13.691,50.316,21.798,35.65,21.798,35.65z" fill="#020202" fill-opacity="0.4" stroke-opacity="0.4"/>
<linearGradient gradientTransform="matrix(0.2118 0.9773 -0.9773 0.2118 -634.5599 -270.4865)" gradientUnits="userSpaceOnUse" id="SVGID_5_" x1="439.6982" x2="451.5232" y1="-577.7549" y2="-564.7323">
<stop offset="0" style="stop-color:#C6FF45"/>
<stop offset="0.6788" style="stop-color:#387300"/>
<stop offset="1" style="stop-color:#66A00E"/>
</linearGradient>
<path d="M12.498,49.262c1.193,1.049,1.686,1.369,1.686,1.369c0.567,0.367,1.363,0.17,1.781-0.441l7.9-11.605  c0.419-0.615,0.307-1.412-0.26-1.777l-1.808-1.156L12.498,49.262z" fill="url(#SVGID_5_)"/>
<rect fill="none" height="60" width="60"/>
</g>
<g transform="matrix(0.5 0 0 0.5 30 30)">
<linearGradient gradientTransform="matrix(2 0 0 -2 -292 -262)" gradientUnits="userSpaceOnUse" id="SVGID_1__" x1="161" x2="161" y1="-135.1333" y2="-142.1849">
<stop offset="0" style="stop-color:#D9D9D9"/>
<stop offset="0.5382" style="stop-color:#B3B3B3"/>
<stop offset="1" style="stop-color:#B3B3B3"/>
</linearGradient>
<rect height="13.47" style="fill:url(#SVGID_1__);" width="30.615" x="14.694" y="8.266"/>
<linearGradient gradientTransform="matrix(2 0 0 -2 -292 -262)" gradientUnits="userSpaceOnUse" id="SVGID_2__" x1="161" x2="161" y1="-135.0688" y2="-141.3504">
<stop offset="0" style="stop-color:#EDEDED"/>
<stop offset="1" style="stop-color:#BDBDBD"/>
</linearGradient>
<polygon points="45.307,13.598 45.307,21.736 14.694,21.736 14.694,8.266 26.224,8.266 32.54,8.586   44.082,11.888 45.004,12.85 " style="fill:url(#SVGID_2__);"/>
<rect height="0.612" style="opacity:0.2;fill:#020202;enable-background:new    ;" width="22.653" x="22.654" y="20.512"/>
<rect height="0.612" style="opacity:0.1;fill:#020202;enable-background:new    ;" width="22.653" x="22.654" y="19.9"/>
<rect height="0.612" style="opacity:0.5;fill:#020202;enable-background:new    ;" width="22.04" x="18.98" y="16.838"/>
<rect height="0.614" style="opacity:0.2;fill:#020202;enable-background:new    ;" width="22.04" x="18.98" y="16.224"/>
<rect height="0.614" style="opacity:0.5;fill:#020202;enable-background:new    ;" width="22.04" x="18.98" y="13.164"/>
<rect height="0.612" style="opacity:0.2;fill:#020202;enable-background:new    ;" width="22.04" x="18.98" y="12.552"/>
<path d="M26.07,8.268c0,0,11.112,1.682,15.245,7.346  c0,0,3.123-4.286,3.992-1.956C44.868,11.408,40.902,8.186,26.07,8.268z" style="opacity:0.05;fill:#050505;enable-background:new    ;"/>
<path d="M26.07,8.268c0,0,11.112,0.458,15.245,6.122  c0,0,3.123-3.674,3.992-0.73C44.868,11.408,40.902,8.186,26.07,8.268z" style="opacity:0.1;fill:#050505;enable-background:new    ;"/>
<linearGradient gradientTransform="matrix(2 0 0 -2 -292 -262)" gradientUnits="userSpaceOnUse" id="SVGID_3__" x1="164.1357" x2="163.5586" y1="-135.3989" y2="-137.5425">
<stop offset="0" style="stop-color:#FFFFFF"/>
<stop offset="0.0061" style="stop-color:#FFFFFF"/>
<stop offset="1" style="stop-color:#D9D9D9"/>
</linearGradient>
<path d="M26.07,8.268c0,0,11.112,0.098,15.245,5.762c0,0,2.957-3.648,3.992-0.372  C44.868,11.408,40.902,8.186,26.07,8.268z" style="fill:url(#SVGID_3__);"/>
<linearGradient gradientTransform="matrix(2 0 0 -2 -292 -262)" gradientUnits="userSpaceOnUse" id="SVGID_4__" x1="161" x2="161" y1="-141.3848" y2="-156.6929">
<stop offset="0" style="stop-color:#D1D7D9"/>
<stop offset="0.0667" style="stop-color:#D1D7D9"/>
<stop offset="0.2606" style="stop-color:#BDC2C4"/>
<stop offset="0.6606" style="stop-color:#949DA1"/>
<stop offset="0.9636" style="stop-color:#ADB3B5"/>
<stop offset="1" style="stop-color:#595C5E"/>
</linearGradient>
<path d="M50.816,49.288c0,1.353-1.099,2.45-2.45,2.45H11.632c-1.352,0-2.45-1.098-2.45-2.45V23.572  c0-1.352,1.098-2.45,2.45-2.45h36.734c1.352,0,2.45,1.098,2.45,2.45V49.288z" style="fill:url(#SVGID_4__);"/>
<linearGradient gradientTransform="matrix(2 0 0 -2 -292 -262)" gradientUnits="userSpaceOnUse" id="SVGID_5__" x1="161" x2="161" y1="-141.3848" y2="-156.6919">
<stop offset="0" style="stop-color:#E4EBED"/>
<stop offset="0.0667" style="stop-color:#E4EBED"/>
<stop offset="0.2606" style="stop-color:#D6DCDE"/>
<stop offset="0.6606" style="stop-color:#B2BEC2"/>
<stop offset="1" style="stop-color:#ADB3B5"/>
</linearGradient>
<path d="M48.368,21.124H11.632c-1.352,0-2.45,1.098-2.45,2.45v25.714c0,1.353,1.098,2.45,2.45,2.45  c-1.014,0-1.836-0.824-1.836-1.838v-0.612V24.186v-0.614c0-1.012,0.822-1.836,1.836-1.836h36.734c1.014,0,1.836,0.824,1.836,1.836  v0.614v25.102V49.9c0,1.014-0.822,1.838-1.836,1.838c1.352,0,2.45-1.098,2.45-2.45V23.572C50.816,22.22,49.718,21.124,48.368,21.124  z" style="fill:url(#SVGID_5__);"/>
<path d="M45.307,47.45h-2.451c-0.676,0-1.224-0.548-1.224-1.224v0.613  c0,0.676,0.548,1.225,1.224,1.225h2.451c0.676,0,1.223-0.549,1.223-1.225v-0.613C46.532,46.9,45.982,47.45,45.307,47.45z" style="opacity:0.4;fill:#231F20;enable-background:new    ;"/>
<linearGradient gradientTransform="matrix(2 0 0 -2 -292 -262)" gradientUnits="userSpaceOnUse" id="SVGID_6_" x1="168.041" x2="168.041" y1="-152.2827" y2="-154.7474">
<stop offset="0" style="stop-color:#646263"/>
<stop offset="0.2" style="stop-color:#4D4D4D"/>
<stop offset="0.7212" style="stop-color:#242424"/>
<stop offset="1" style="stop-color:#373737"/>
</linearGradient>
<path d="M42.857,47.45c-0.676,0-1.224-0.548-1.224-1.224  v-2.449c0-0.676,0.548-1.223,1.224-1.223h2.451c0.676,0,1.224,0.547,1.224,1.223v2.449c0,0.676-0.548,1.224-1.224,1.224H42.857z" style="opacity:0.8;fill:url(#SVGID_6_);enable-background:new    ;"/>
<linearGradient gradientTransform="matrix(2 0 0 -2 -292 -262)" gradientUnits="userSpaceOnUse" id="SVGID_7_" x1="168.041" x2="168.041" y1="-152.5596" y2="-154.466">
<stop offset="0" style="stop-color:#A0A3A6"/>
<stop offset="0.1333" style="stop-color:#838688"/>
<stop offset="0.2606" style="stop-color:#7B7E80"/>
<stop offset="0.6606" style="stop-color:#474B4D"/>
<stop offset="1" style="stop-color:#707577"/>
</linearGradient>
<path d="M45.918,46.225c0,0.34-0.273,0.613-0.611,0.613h-2.451c-0.338,0-0.611-0.273-0.611-0.613  v-2.449c0-0.34,0.273-0.613,0.611-0.613h2.451c0.338,0,0.611,0.273,0.611,0.613V46.225z" style="fill:url(#SVGID_7_);"/>
<path d="M38.57,47.45h-2.448c-0.677,0-1.224-0.548-1.224-1.224v0.613  c0,0.676,0.547,1.225,1.224,1.225h2.448c0.676,0,1.226-0.549,1.226-1.225v-0.613C39.796,46.9,39.246,47.45,38.57,47.45z" style="opacity:0.4;fill:#231F20;enable-background:new    ;"/>
<linearGradient gradientTransform="matrix(2 0 0 -2 -292 -262)" gradientUnits="userSpaceOnUse" id="SVGID_8_" x1="164.6738" x2="164.6738" y1="-152.2534" y2="-154.7776">
<stop offset="0" style="stop-color:#646263"/>
<stop offset="0.2" style="stop-color:#4D4D4D"/>
<stop offset="0.7212" style="stop-color:#242424"/>
<stop offset="1" style="stop-color:#373737"/>
</linearGradient>
<path d="M36.124,47.45c-0.676,0-1.224-0.548-1.224-1.224  v-2.449c0-0.676,0.548-1.223,1.224-1.223h2.448c0.676,0,1.226,0.547,1.226,1.223v2.449c0,0.676-0.55,1.224-1.226,1.224H36.124z" style="opacity:0.8;fill:url(#SVGID_8_);enable-background:new    ;"/>
<linearGradient gradientTransform="matrix(2 0 0 -2 -292 -262)" gradientUnits="userSpaceOnUse" id="SVGID_9_" x1="164.6729" x2="164.6729" y1="-152.5596" y2="-154.466">
<stop offset="0" style="stop-color:#A0A3A6"/>
<stop offset="0.1333" style="stop-color:#838688"/>
<stop offset="0.2606" style="stop-color:#7B7E80"/>
<stop offset="0.6606" style="stop-color:#474B4D"/>
<stop offset="1" style="stop-color:#707577"/>
</linearGradient>
<path d="M39.184,46.225c0,0.34-0.273,0.613-0.613,0.613h-2.448c-0.338,0-0.614-0.273-0.614-0.613  v-2.449c0-0.34,0.276-0.613,0.614-0.613h2.448c0.34,0,0.613,0.273,0.613,0.613V46.225z" style="fill:url(#SVGID_9_);"/>
<linearGradient gradientTransform="matrix(2 0 0 -2 -292 -262)" gradientUnits="userSpaceOnUse" id="SVGID_10_" x1="161.3066" x2="161.3066" y1="-152.2534" y2="-154.7479">
<stop offset="0" style="stop-color:#646263"/>
<stop offset="0.2" style="stop-color:#4D4D4D"/>
<stop offset="0.7212" style="stop-color:#242424"/>
<stop offset="1" style="stop-color:#373737"/>
</linearGradient>
<path d="M29.386,47.45c-0.674,0-1.222-0.548-1.222-1.224  v-2.449c0-0.676,0.548-1.223,1.222-1.223h2.45c0.676,0,1.225,0.547,1.225,1.223v2.449c0,0.676-0.549,1.224-1.225,1.224H29.386z" style="opacity:0.8;fill:url(#SVGID_10_);enable-background:new    ;"/>
<path d="M31.836,47.45h-2.45c-0.674,0-1.222-0.548-1.222-1.224v0.613  c0,0.676,0.548,1.225,1.222,1.225h2.45c0.676,0,1.225-0.549,1.225-1.225v-0.613C33.061,46.9,32.512,47.45,31.836,47.45z" style="opacity:0.4;fill:#231F20;enable-background:new    ;"/>
<linearGradient gradientTransform="matrix(2 0 0 -2 -292 -262)" gradientUnits="userSpaceOnUse" id="SVGID_11_" x1="161.3057" x2="161.3057" y1="-152.5596" y2="-154.466">
<stop offset="0" style="stop-color:#A0A3A6"/>
<stop offset="0.1333" style="stop-color:#838688"/>
<stop offset="0.2606" style="stop-color:#7B7E80"/>
<stop offset="0.6606" style="stop-color:#474B4D"/>
<stop offset="1" style="stop-color:#707577"/>
</linearGradient>
<path d="M32.45,46.225c0,0.34-0.274,0.613-0.614,0.613h-2.45c-0.338,0-0.612-0.273-0.612-0.613  v-2.449c0-0.34,0.274-0.613,0.612-0.613h2.45c0.34,0,0.614,0.273,0.614,0.613V46.225z" style="fill:url(#SVGID_11_);"/>
<path d="M45.307,41.328h-2.451c-0.676,0-1.224-0.549-1.224-1.225  v0.612c0,0.677,0.548,1.224,1.224,1.224h2.451c0.676,0,1.223-0.547,1.223-1.224v-0.612C46.532,40.779,45.982,41.328,45.307,41.328z" style="opacity:0.4;fill:#231F20;enable-background:new    ;"/>
<linearGradient gradientTransform="matrix(2 0 0 -2 -292 -262)" gradientUnits="userSpaceOnUse" id="SVGID_12_" x1="168.041" x2="168.041" y1="-149.2212" y2="-151.6869">
<stop offset="0" style="stop-color:#646263"/>
<stop offset="0.2" style="stop-color:#4D4D4D"/>
<stop offset="0.7212" style="stop-color:#242424"/>
<stop offset="1" style="stop-color:#373737"/>
</linearGradient>
<path d="M42.857,41.328c-0.676,0-1.224-0.549-1.224-1.225  v-2.449c0-0.674,0.548-1.225,1.224-1.225h2.451c0.676,0,1.224,0.551,1.224,1.225v2.449c0,0.676-0.548,1.225-1.224,1.225H42.857z" style="opacity:0.8;fill:url(#SVGID_12_);enable-background:new    ;"/>
<linearGradient gradientTransform="matrix(2 0 0 -2 -292 -262)" gradientUnits="userSpaceOnUse" id="SVGID_13_" x1="168.041" x2="168.041" y1="-149.499" y2="-151.4055">
<stop offset="0" style="stop-color:#A0A3A6"/>
<stop offset="0.1333" style="stop-color:#838688"/>
<stop offset="0.2606" style="stop-color:#7B7E80"/>
<stop offset="0.6606" style="stop-color:#474B4D"/>
<stop offset="1" style="stop-color:#707577"/>
</linearGradient>
<path d="M45.918,40.104c0,0.338-0.273,0.612-0.611,0.612h-2.451c-0.338,0-0.611-0.274-0.611-0.612  v-2.449c0-0.338,0.273-0.614,0.611-0.614h2.451c0.338,0,0.611,0.276,0.611,0.614V40.104z" style="fill:url(#SVGID_13_);"/>
<path d="M38.57,41.328h-2.448c-0.677,0-1.224-0.549-1.224-1.225v0.612  c0,0.677,0.547,1.224,1.224,1.224h2.448c0.676,0,1.226-0.547,1.226-1.224v-0.612C39.796,40.779,39.246,41.328,38.57,41.328z" style="opacity:0.4;fill:#231F20;enable-background:new    ;"/>
<linearGradient gradientTransform="matrix(2 0 0 -2 -292 -262)" gradientUnits="userSpaceOnUse" id="SVGID_14_" x1="164.6738" x2="164.6738" y1="-149.1919" y2="-151.7171">
<stop offset="0" style="stop-color:#646263"/>
<stop offset="0.2" style="stop-color:#4D4D4D"/>
<stop offset="0.7212" style="stop-color:#242424"/>
<stop offset="1" style="stop-color:#373737"/>
</linearGradient>
<path d="M36.124,41.328c-0.676,0-1.224-0.549-1.224-1.225  v-2.449c0-0.674,0.548-1.225,1.224-1.225h2.448c0.676,0,1.226,0.551,1.226,1.225v2.449c0,0.676-0.55,1.225-1.226,1.225H36.124z" style="opacity:0.8;fill:url(#SVGID_14_);enable-background:new    ;"/>
<linearGradient gradientTransform="matrix(2 0 0 -2 -292 -262)" gradientUnits="userSpaceOnUse" id="SVGID_15_" x1="164.6729" x2="164.6729" y1="-149.499" y2="-151.4055">
<stop offset="0" style="stop-color:#A0A3A6"/>
<stop offset="0.1333" style="stop-color:#838688"/>
<stop offset="0.2606" style="stop-color:#7B7E80"/>
<stop offset="0.6606" style="stop-color:#474B4D"/>
<stop offset="1" style="stop-color:#707577"/>
</linearGradient>
<path d="M39.184,40.104c0,0.338-0.273,0.612-0.613,0.612h-2.448c-0.338,0-0.614-0.274-0.614-0.612  v-2.449c0-0.338,0.276-0.614,0.614-0.614h2.448c0.34,0,0.613,0.276,0.613,0.614V40.104z" style="fill:url(#SVGID_15_);"/>
<linearGradient gradientTransform="matrix(2 0 0 -2 -292 -262)" gradientUnits="userSpaceOnUse" id="SVGID_16_" x1="161.3066" x2="161.3066" y1="-149.1919" y2="-151.6874">
<stop offset="0" style="stop-color:#646263"/>
<stop offset="0.2" style="stop-color:#4D4D4D"/>
<stop offset="0.7212" style="stop-color:#242424"/>
<stop offset="1" style="stop-color:#373737"/>
</linearGradient>
<path d="M29.386,41.328c-0.674,0-1.222-0.549-1.222-1.225  v-2.449c0-0.674,0.548-1.225,1.222-1.225h2.45c0.676,0,1.225,0.551,1.225,1.225v2.449c0,0.676-0.549,1.225-1.225,1.225H29.386z" style="opacity:0.8;fill:url(#SVGID_16_);enable-background:new    ;"/>
<path d="M31.836,41.328h-2.45c-0.674,0-1.222-0.549-1.222-1.225v0.612  c0,0.677,0.548,1.224,1.222,1.224h2.45c0.676,0,1.225-0.547,1.225-1.224v-0.612C33.061,40.779,32.512,41.328,31.836,41.328z" style="opacity:0.4;fill:#231F20;enable-background:new    ;"/>
<linearGradient gradientTransform="matrix(2 0 0 -2 -292 -262)" gradientUnits="userSpaceOnUse" id="SVGID_17_" x1="161.3057" x2="161.3057" y1="-149.499" y2="-151.4055">
<stop offset="0" style="stop-color:#A0A3A6"/>
<stop offset="0.1333" style="stop-color:#838688"/>
<stop offset="0.2606" style="stop-color:#7B7E80"/>
<stop offset="0.6606" style="stop-color:#474B4D"/>
<stop offset="1" style="stop-color:#707577"/>
</linearGradient>
<path d="M32.45,40.104c0,0.338-0.274,0.612-0.614,0.612h-2.45c-0.338,0-0.612-0.274-0.612-0.612  v-2.449c0-0.338,0.274-0.614,0.612-0.614h2.45c0.34,0,0.614,0.276,0.614,0.614V40.104z" style="fill:url(#SVGID_17_);"/>
<path d="M45.307,35.206h-2.451c-0.676,0-1.224-0.548-1.224-1.224  v0.611c0,0.676,0.548,1.225,1.224,1.225h2.451c0.676,0,1.223-0.549,1.223-1.225V33.98C46.532,34.656,45.982,35.206,45.307,35.206z" style="opacity:0.4;fill:#231F20;enable-background:new    ;"/>
<linearGradient gradientTransform="matrix(2 0 0 -2 -292 -262)" gradientUnits="userSpaceOnUse" id="SVGID_18_" x1="168.041" x2="168.041" y1="-146.1592" y2="-148.6264">
<stop offset="0" style="stop-color:#646263"/>
<stop offset="0.2" style="stop-color:#4D4D4D"/>
<stop offset="0.7212" style="stop-color:#242424"/>
<stop offset="1" style="stop-color:#373737"/>
</linearGradient>
<path d="M42.857,35.206c-0.676,0-1.224-0.548-1.224-1.224  v-2.45c0-0.675,0.548-1.224,1.224-1.224h2.451c0.676,0,1.224,0.549,1.224,1.224v2.45c0,0.676-0.548,1.224-1.224,1.224H42.857z" style="opacity:0.8;fill:url(#SVGID_18_);enable-background:new    ;"/>
<linearGradient gradientTransform="matrix(2 0 0 -2 -292 -262)" gradientUnits="userSpaceOnUse" id="SVGID_19_" x1="168.041" x2="168.041" y1="-146.437" y2="-148.3429">
<stop offset="0" style="stop-color:#A0A3A6"/>
<stop offset="0.1333" style="stop-color:#838688"/>
<stop offset="0.2606" style="stop-color:#7B7E80"/>
<stop offset="0.6606" style="stop-color:#474B4D"/>
<stop offset="1" style="stop-color:#707577"/>
</linearGradient>
<path d="M45.918,33.98c0,0.338-0.273,0.611-0.611,0.611h-2.451c-0.338,0-0.611-0.273-0.611-0.611  v-2.451c0-0.338,0.273-0.611,0.611-0.611h2.451c0.338,0,0.611,0.273,0.611,0.611V33.98z" style="fill:url(#SVGID_19_);"/>
<path d="M38.57,35.206h-2.448c-0.677,0-1.224-0.548-1.224-1.224v0.611  c0,0.676,0.547,1.225,1.224,1.225h2.448c0.676,0,1.226-0.549,1.226-1.225V33.98C39.796,34.656,39.246,35.206,38.57,35.206z" style="opacity:0.4;fill:#231F20;enable-background:new    ;"/>
<linearGradient gradientTransform="matrix(2 0 0 -2 -292 -262)" gradientUnits="userSpaceOnUse" id="SVGID_20_" x1="164.6738" x2="164.6738" y1="-146.1299" y2="-148.6566">
<stop offset="0" style="stop-color:#646263"/>
<stop offset="0.2" style="stop-color:#4D4D4D"/>
<stop offset="0.7212" style="stop-color:#242424"/>
<stop offset="1" style="stop-color:#373737"/>
</linearGradient>
<path d="M36.124,35.206c-0.676,0-1.224-0.548-1.224-1.224  v-2.45c0-0.675,0.548-1.224,1.224-1.224h2.448c0.676,0,1.226,0.549,1.226,1.224v2.45c0,0.676-0.55,1.224-1.226,1.224H36.124z" style="opacity:0.8;fill:url(#SVGID_20_);enable-background:new    ;"/>
<linearGradient gradientTransform="matrix(2 0 0 -2 -292 -262)" gradientUnits="userSpaceOnUse" id="SVGID_21_" x1="164.6729" x2="164.6729" y1="-146.437" y2="-148.3429">
<stop offset="0" style="stop-color:#A0A3A6"/>
<stop offset="0.1333" style="stop-color:#838688"/>
<stop offset="0.2606" style="stop-color:#7B7E80"/>
<stop offset="0.6606" style="stop-color:#474B4D"/>
<stop offset="1" style="stop-color:#707577"/>
</linearGradient>
<path d="M39.184,33.98c0,0.338-0.273,0.611-0.613,0.611h-2.448c-0.338,0-0.614-0.273-0.614-0.611  v-2.451c0-0.338,0.276-0.611,0.614-0.611h2.448c0.34,0,0.613,0.273,0.613,0.611V33.98z" style="fill:url(#SVGID_21_);"/>
<linearGradient gradientTransform="matrix(2 0 0 -2 -292 -262)" gradientUnits="userSpaceOnUse" id="SVGID_22_" x1="161.3066" x2="161.3066" y1="-146.1299" y2="-148.6269">
<stop offset="0" style="stop-color:#646263"/>
<stop offset="0.2" style="stop-color:#4D4D4D"/>
<stop offset="0.7212" style="stop-color:#242424"/>
<stop offset="1" style="stop-color:#373737"/>
</linearGradient>
<path d="M29.386,35.206c-0.674,0-1.222-0.548-1.222-1.224  v-2.45c0-0.675,0.548-1.224,1.222-1.224h2.45c0.676,0,1.225,0.549,1.225,1.224v2.45c0,0.676-0.549,1.224-1.225,1.224H29.386z" style="opacity:0.8;fill:url(#SVGID_22_);enable-background:new    ;"/>
<path d="M31.836,35.206h-2.45c-0.674,0-1.222-0.548-1.222-1.224v0.611  c0,0.676,0.548,1.225,1.222,1.225h2.45c0.676,0,1.225-0.549,1.225-1.225V33.98C33.061,34.656,32.512,35.206,31.836,35.206z" style="opacity:0.4;fill:#231F20;enable-background:new    ;"/>
<linearGradient gradientTransform="matrix(2 0 0 -2 -292 -262)" gradientUnits="userSpaceOnUse" id="SVGID_23_" x1="161.3057" x2="161.3057" y1="-146.437" y2="-148.3429">
<stop offset="0" style="stop-color:#A0A3A6"/>
<stop offset="0.1333" style="stop-color:#838688"/>
<stop offset="0.2606" style="stop-color:#7B7E80"/>
<stop offset="0.6606" style="stop-color:#474B4D"/>
<stop offset="1" style="stop-color:#707577"/>
</linearGradient>
<path d="M32.45,33.98c0,0.338-0.274,0.611-0.614,0.611h-2.45c-0.338,0-0.612-0.273-0.612-0.611  v-2.451c0-0.338,0.274-0.611,0.612-0.611h2.45c0.34,0,0.614,0.273,0.614,0.611V33.98z" style="fill:url(#SVGID_23_);"/>
<linearGradient gradientTransform="matrix(2 0 0 -2 -292 -262)" gradientUnits="userSpaceOnUse" id="SVGID_24_" x1="164.6748" x2="164.6748" y1="-142.4873" y2="-145.5609">
<stop offset="0" style="stop-color:#686C6E"/>
<stop offset="1" style="stop-color:#E4EEF2"/>
</linearGradient>
<path d="M27.552,29.082c-0.676,0-1.226-0.556-1.226-1.238  v-3.642c0-0.686,0.55-1.24,1.226-1.24H47.15c0.676,0,1.224,0.554,1.224,1.24v3.642c0,0.682-0.548,1.238-1.224,1.238H27.552z" style="opacity:0.4;fill:url(#SVGID_24_);enable-background:new    ;"/>
<linearGradient gradientTransform="matrix(2 0 0 -2 -292 -262)" gradientUnits="userSpaceOnUse" id="SVGID_25_" x1="164.6738" x2="164.6738" y1="-142.8013" y2="-145.2792">
<stop offset="0" style="stop-color:#171717"/>
<stop offset="1" style="stop-color:#2E2E2E"/>
</linearGradient>
<path d="M47.756,27.844c0,0.342-0.273,0.62-0.613,0.62H27.552c-0.338,0-0.614-0.278-0.614-0.62  v-3.642c0-0.344,0.276-0.622,0.614-0.622h19.591c0.34,0,0.613,0.278,0.613,0.622V27.844z" style="fill:url(#SVGID_25_);"/>
<linearGradient gradientTransform="matrix(2 0 0 -2 -292 -262)" gradientUnits="userSpaceOnUse" id="SVGID_26_" x1="164.6738" x2="164.6738" y1="-139.7861" y2="-146.1987">
<stop offset="0" style="stop-color:#45E8FF"/>
<stop offset="0.1455" style="stop-color:#45E8FF"/>
<stop offset="0.5576" style="stop-color:#30A4D5"/>
<stop offset="0.8727" style="stop-color:#1347BA"/>
<stop offset="1" style="stop-color:#1C65C3"/>
</linearGradient>
<rect height="3.642" style="fill:url(#SVGID_26_);" width="19.591" x="27.552" y="24.202"/>
<linearGradient gradientTransform="matrix(2 0 0 -2 -292 -262)" gradientUnits="userSpaceOnUse" id="SVGID_27_" x1="164.6738" x2="164.6738" y1="-141.0332" y2="-145.4888">
<stop offset="0" style="stop-color:#45E8FF"/>
<stop offset="0.1455" style="stop-color:#45E8FF"/>
<stop offset="0.5576" style="stop-color:#4FADD5"/>
<stop offset="0.8727" style="stop-color:#1347BA"/>
<stop offset="1" style="stop-color:#1C65C3"/>
</linearGradient>
<polygon points="27.552,25.816 47.143,24.772 47.143,24.186 27.552,24.186 " style="fill:url(#SVGID_27_);"/>
<path d="M17.142,49.288h1.224c3.376,0,6.124-2.748,6.124-6.124v-22.04  c0-3.376-2.748-6.122-6.124-6.122h-1.224c-0.87,0-1.698,0.184-2.45,0.514v5.608h-3.06c-0.212,0-0.416,0.038-0.614,0.088v21.954  C11.02,46.54,13.768,49.288,17.142,49.288z" style="opacity:0.1;fill:#050505;enable-background:new    ;"/>
<path d="M17.142,48.674h1.224c3.04,0,5.51-2.47,5.51-5.51v-22.04  c0-3.04-2.47-5.51-5.51-5.51h-1.224c-0.88,0-1.708,0.212-2.45,0.58v4.93h-3.06v22.042C11.632,46.204,14.106,48.674,17.142,48.674z" style="opacity:0.2;fill:#050505;enable-background:new    ;"/>
<linearGradient gradientTransform="matrix(2 0 0 -2 -292 -262)" gradientUnits="userSpaceOnUse" id="SVGID_28_" x1="154.8779" x2="154.8779" y1="-139.1777" y2="-155.3331">
<stop offset="0" style="stop-color:#727678"/>
<stop offset="0.7394" style="stop-color:#252629"/>
<stop offset="1" style="stop-color:#494C4F"/>
</linearGradient>
<path d="M23.266,43.164c0,2.706-2.192,4.898-4.898,4.898h-1.226c-2.706,0-4.896-2.194-4.896-4.898  v-22.04c0-2.706,2.192-4.898,4.896-4.898h1.224c2.708,0,4.898,2.194,4.898,4.898v22.04H23.266z" style="fill:url(#SVGID_28_);"/>
<linearGradient gradientTransform="matrix(2 0 0 -2 -292 -262)" gradientUnits="userSpaceOnUse" id="SVGID_29_" x1="154.877" x2="154.877" y1="-139.1299" y2="-143.4803">
<stop offset="0" style="stop-color:#B5BCBF"/>
<stop offset="1" style="stop-color:#494C4F"/>
</linearGradient>
<path d="M18.368,16.224h-1.226c-2.706,0-4.896,2.194-4.896,4.898v3.674  c0-2.706,2.192-4.898,4.896-4.898h1.224c2.708,0,4.898,2.194,4.898,4.898v-3.674C23.266,18.418,21.074,16.224,18.368,16.224z" style="fill:url(#SVGID_29_);"/>
<linearGradient gradientTransform="matrix(2 0 0 -2 -292 -262)" gradientUnits="userSpaceOnUse" id="SVGID_30_" x1="154.877" x2="154.877" y1="-139.1191" y2="-142.234">
<stop offset="0" style="stop-color:#D5DDE0"/>
<stop offset="1" style="stop-color:#494C4F"/>
</linearGradient>
<path d="M18.368,16.224h-1.226c-2.706,0-4.896,2.194-4.896,4.898v0.614  c0-2.706,2.192-4.898,4.896-4.898h1.224c2.708,0,4.898,2.194,4.898,4.898v-0.614C23.266,18.418,21.074,16.224,18.368,16.224z" style="fill:url(#SVGID_30_);"/>
<linearGradient gradientTransform="matrix(2 0 0 -2 -292 -262)" gradientUnits="userSpaceOnUse" id="SVGID_31_" x1="154.877" x2="154.877" y1="-138.873" y2="-155.1352">
<stop offset="0" style="stop-color:#A0A7A8"/>
<stop offset="0.7576" style="stop-color:#252629"/>
<stop offset="1" style="stop-color:#1F2021"/>
</linearGradient>
<path d="M18.368,19.898h-1.226c-0.65,0-1.27,0.128-1.836,0.362v24.129h4.896V20.26  C19.636,20.028,19.018,19.898,18.368,19.898z" style="fill:url(#SVGID_31_);"/>
<linearGradient gradientTransform="matrix(2 0 0 -2 -292 -262)" gradientUnits="userSpaceOnUse" id="SVGID_32_" x1="154.877" x2="154.877" y1="-150.7632" y2="-155.1131">
<stop offset="0" style="stop-color:#252629"/>
<stop offset="1" style="stop-color:#5A5D61"/>
</linearGradient>
<path d="M18.368,44.389h-1.226c-2.706,0-4.896-2.195-4.896-4.898v3.674  c0,2.706,2.192,4.898,4.896,4.898h1.224c2.708,0,4.898-2.194,4.898-4.898V39.49C23.266,42.195,21.074,44.389,18.368,44.389z" style="fill:url(#SVGID_32_);"/>
<rect height="60" style="fill:none;" width="60"/>
</g>
</svg>
