<?xml version="1.0" encoding="UTF-8" standalone="no"?>
<!DOCTYPE svg PUBLIC "-//W3C//DTD SVG 1.1 Tiny//EN" "http://www.w3.org/Graphics/SVG/1.1/DTD/svg11-tiny.dtd">
<svg xmlns="http://www.w3.org/2000/svg" xmlns:xlink="http://www.w3.org/1999/xlink" baseProfile="tiny" height="30" viewBox="0 0 30 30" width="30">
<g>
<rect fill-opacity="0.6" height="30" stroke-opacity="0.6" width="30"/>
<rect fill="url(#SVGID_1_)" height="28" width="28" x="1" y="1"/>
<polygon fill-opacity="0.2" points="24,13.88,17.99,13.88,17.99,8,13.99,8,13.99,13.88,8,13.88,8,17.88,13.99,17.88,13.99,24,17.99,24,17.99,17.88,24,17.88" stroke-opacity="0.2"/>
<rect fill="#FFFFFF" fill-opacity="0.4" height="1" stroke-opacity="0.4" width="28" x="1" y="1"/>
<rect fill-opacity="0.2" height="1" stroke-opacity="0.2" width="28" x="1" y="28"/>
<polygon fill="#FFFFFF" points="23,12.88,16.99,12.88,16.99,7,12.99,7,12.99,12.88,7,12.88,7,16.88,12.99,16.88,12.99,23,16.99,23,16.99,16.88,23,16.88"/>
<defs>
<linearGradient gradientUnits="userSpaceOnUse" id="SVGID_1_" x1="15" x2="15" y1="1.175" y2="29.18">
<stop offset="0" stop-color="#4EDEFF"/>
<stop offset="1" stop-color="#048CC6"/>
</linearGradient>
</defs>
</g>
</svg>
