<?xml version="1.0" encoding="UTF-8"?>
<!DOCTYPE svg PUBLIC "-//W3C//DTD SVG 1.1 Tiny//EN" "http://www.w3.org/Graphics/SVG/1.1/DTD/svg11-tiny.dtd">
<svg baseProfile="tiny" height="16px" version="1.1" viewBox="0 0 16 16" width="16px" x="0px" xmlns="http://www.w3.org/2000/svg" xmlns:xlink="http://www.w3.org/1999/xlink" y="0px">
<rect fill="none" height="16" width="16"/>
<path d="M11.877,5.274L7.106,0.5v5.454L5.059,3.908L4.123,4.847c0,0,2.117,2.118,2.984,2.982v0.342  c-0.867,0.862-2.984,2.982-2.984,2.982l0.937,0.936l2.047-2.042V15.5l4.771-4.773c0,0-2.075-2.076-2.727-2.726  C9.802,7.344,11.877,5.274,11.877,5.274z M10.004,10.727c-0.339,0.338-0.955,0.956-1.538,1.538V9.192  C9.049,9.775,9.688,10.411,10.004,10.727z M8.47,6.807V3.738c0.579,0.583,1.195,1.199,1.534,1.538  C9.688,5.585,9.049,6.227,8.47,6.807z"/>
</svg>
