<?xml version="1.0" encoding="UTF-8"?>
<!DOCTYPE svg PUBLIC "-//W3C//DTD SVG 1.1 Tiny//EN" "http://www.w3.org/Graphics/SVG/1.1/DTD/svg11-tiny.dtd">
<svg baseProfile="tiny" height="30" viewBox="0 0 30 30" width="30" xmlns="http://www.w3.org/2000/svg" xmlns:xlink="http://www.w3.org/1999/xlink">
<g>
<rect fill="none" height="30" width="30"/>
<rect fill="none" height="30" width="30"/>
<polygon fill-opacity="0.6" points="11.36,17.813 9.25,1.875 20.75,1.875 18.641,17.813 " stroke-opacity="0.6"/>
<linearGradient gradientUnits="userSpaceOnUse" id="SVGID_1" x1="15" x2="15" y1="2.81" y2="26.25">
<stop offset="0" stop-color="#FF4D00"/>
<stop offset="1" stop-color="#800000"/>
</linearGradient>
<path d="M19.688,2.813l-1.875,14.063h-5.625L10.313,2.813H19.688z" fill="url(#SVGID_1)"/>
<path d="M15,28.125c-2.584,0-4.688-2.104-4.688-4.688S12.416,18.75,15,18.75 c2.584,0,4.688,2.104,4.688,4.688S17.584,28.125,15,28.125L15,28.125z" fill-opacity="0.6" stroke-opacity="0.6"/>
<linearGradient gradientUnits="userSpaceOnUse" id="SVGID_2" x1="15" x2="15" y1="20" y2="27.09">
<stop offset="0" stop-color="#FF4D00"/>
<stop offset="1" stop-color="#800000"/>
</linearGradient>
<circle cx="15" cy="23.438" fill="url(#SVGID_2)" r="3.75"/>
<polygon fill="#FFFFFF" fill-opacity="0.4" points="19.563,3.75 19.688,2.813 10.313,2.813 10.438,3.75 " stroke-opacity="0.4"/>
<path d="M15,20.625c1.908,0,3.469,1.435,3.703,3.281 c0.02-0.156,0.047-0.308,0.047-0.469c0-2.07-1.68-3.75-3.75-3.75c-2.072,0-3.75,1.68-3.75,3.75c0,0.161,0.027,0.313,0.047,0.469 C11.53,22.06,13.089,20.625,15,20.625z" fill="#FFFFFF" fill-opacity="0.4" stroke-opacity="0.4"/>
</g>
</svg>
