<?xml version="1.0" encoding="UTF-8" standalone="no"?>
<!DOCTYPE svg PUBLIC "-//W3C//DTD SVG 1.1 Tiny//EN" "http://www.w3.org/Graphics/SVG/1.1/DTD/svg11-tiny.dtd">
<svg xmlns="http://www.w3.org/2000/svg" xmlns:xlink="http://www.w3.org/1999/xlink" baseProfile="tiny" height="30px" version="1.1" viewBox="0 0 30 30" width="30px" x="0px" y="0px">
<g fill-opacity="0.5" stroke-opacity="0.5">
<rect fill="none" height="30" width="30"/>
</g>
<rect height="2" width="2" x="8" y="16"/>
<rect height="2" width="7.941" x="11.059" y="16"/>
<rect height="2" width="2" x="7.971" y="21"/>
<rect height="2" width="2" x="8" y="11"/>
<rect height="2" width="7.941" x="11.059" y="11"/>
<path d="M16.382,21h-5.353v2h2.112C14.169,22.162,15.254,21.491,16.382,21z"/>
<path d="M10.428,28.235C10.143,27.873,10,27.437,10,27H6V8h15v12c1.014,0,2.018,0.146,3,0.416V5H3v25h9.029  C11.476,29.457,10.935,28.881,10.428,28.235z"/>
<path d="M26,21.18c1.042,0.496,2.048,1.136,3,1.931V0H8v3h18V21.18z"/>
<path d="M30,27c-2.454-3.123-5.586-5-9-5s-6.546,1.877-9,5h2.654  c0.695-0.709,1.522-1.386,2.463-1.921C17.047,25.376,17,25.682,17,26c0,2.21,1.792,4,4,4s4-1.79,4-4  c0-0.318-0.047-0.624-0.117-0.921c0.94,0.535,1.768,1.212,2.463,1.921H30z M21,28c-1.104,0-2-0.447-2-1s0.896-1,2-1s2,0.447,2,1  S22.104,28,21,28z" fill-rule="evenodd"/>
</svg>
