<?xml version="1.0" encoding="UTF-8"?>
<!DOCTYPE svg PUBLIC "-//W3C//DTD SVG 1.1 Tiny//EN" "http://www.w3.org/Graphics/SVG/1.1/DTD/svg11-tiny.dtd">
<svg baseProfile="tiny" height="31px" version="1.1" viewBox="-0.771 -0.801 31 31" width="31px" x="0px" xmlns="http://www.w3.org/2000/svg" xmlns:xlink="http://www.w3.org/1999/xlink" y="0px">
<polygon points="24.722,22.302 5.279,22.304 9.48,29.031 11.544,27.742 9.672,24.738 9.684,24.738 9.684,24.738 24.722,24.738 "/>
<polygon points="20.521,12.994 18.452,14.282 20.326,17.286 5.279,17.287 5.279,19.721 24.722,19.72 "/>
<path d="M11.948,5.938c0.667-0.515,1.048-1.233,1.048-2.08c0-0.721-0.28-1.381-0.786-1.862C11.65,1.467,10.85,1.19,9.896,1.19  c-1.161,0-2.173,0.429-2.685,0.792L6.904,2.204l0.697,1.863L8.128,3.69c0.332-0.234,0.93-0.507,1.528-0.507  c0.501,0,1.096,0.151,1.096,0.872c0,0.852-1.104,1.039-1.531,1.039H8.039v1.919h1.187c0.305,0,1.838,0.064,1.85,1.327  c0.002,0.153-0.023,0.54-0.323,0.841c-0.271,0.269-0.684,0.41-1.233,0.41c-0.747,0-1.458-0.308-1.758-0.487L7.238,8.79l-0.672,1.883  l0.328,0.215c0.489,0.322,1.477,0.699,2.638,0.699c2.619,0,3.811-1.673,3.811-3.227C13.343,7.322,12.807,6.439,11.948,5.938z"/>
<path d="M19.335,5.538v1.979h1.902v1.939c-0.253,0.067-0.592,0.124-1.121,0.124c-1.966,0-3.136-1.236-3.136-3.304  c0-1.015,0.304-1.854,0.885-2.426c0.573-0.565,1.404-0.863,2.403-0.863c0.761,0,1.355,0.113,1.872,0.355l0.518,0.246l0.606-1.95  l-0.391-0.187c-0.457-0.225-1.412-0.483-2.577-0.483c-3.354,0-5.604,2.157-5.604,5.364c0,1.56,0.536,2.97,1.468,3.869  c0.974,0.93,2.237,1.386,3.869,1.386c1.535,0,2.75-0.421,3.084-0.55l0.321-0.125V5.538H19.335z"/>
<rect fill="none" height="30" width="30"/>
<rect fill="none" height="30" width="30"/>
</svg>
