<?xml version="1.0" encoding="UTF-8"?>
<!DOCTYPE svg PUBLIC "-//W3C//DTD SVG 1.1 Tiny//EN" "http://www.w3.org/Graphics/SVG/1.1/DTD/svg11-tiny.dtd">
<svg baseProfile="tiny" height="30" viewBox="0 0 30 30" width="30" xmlns="http://www.w3.org/2000/svg" xmlns:xlink="http://www.w3.org/1999/xlink">
<rect fill="none" height="30" width="30"/>
<polygon points="7.79,8.82,5.865,5.946,4.046,5.946,6.243,8.82"/>
<polygon points="16.47,8.303,19,5,17.42,5,15.72,7,14,5,12.42,5,14.96,8.303"/>
<path d="M5.394,8.9c-1.107,0-2.283,0.171-3.527,0.513v1.528c1.217-0.362,2.259-0.544,3.128-0.544,0.533,0,0.967,0.087,1.302,0.262,0.335,0.174,0.574,0.42,0.718,0.738,0.144,0.317,0.215,0.774,0.215,1.368v1.118c-1.107,0-2.037,0.05-2.789,0.148-0.752,0.1-1.401,0.305-1.947,0.615-0.548,0.312-0.952,0.718-1.216,1.221-0.263,0.502-0.395,1.105-0.395,1.81,0,1.101,0.304,1.957,0.913,2.568,0.607,0.612,1.452,0.918,2.532,0.918,1.559,0,2.707-0.629,3.445-1.887l0.44,1.71h1.2v-8.295c0-1.313-0.358-2.275-1.077-2.887-0.717-0.607-1.698-0.913-2.942-0.913zm1.835,8.11c0,0.827-0.21,1.481-0.63,1.963-0.421,0.482-1.004,0.723-1.749,0.723-0.588,0-1.032-0.177-1.332-0.533-0.302-0.354-0.451-0.857-0.451-1.507,0-0.766,0.229-1.369,0.687-1.81s1.278-0.662,2.461-0.662h1.015v1.832z"/>
<polygon points="19.86,10.4,19.86,9.074,11.94,9.074,11.94,10.6,17.28,10.6,11.52,19.66,11.52,21,19.99,21,19.99,19.46,14.09,19.46"/>
<path d="M29,19.44c-0.471,0.157-1.142,0.236-2.01,0.236-1.004,0-1.764-0.409-2.275-1.226-0.514-0.817-0.77-1.991-0.77-3.522,0-1.429,0.258-2.541,0.774-3.338,0.516-0.796,1.272-1.194,2.271-1.194,0.772,0,1.416,0.082,1.928,0.246v-1.494c-0.725-0.17-1.397-0.256-2.02-0.256-1.702,0-2.999,0.521-3.892,1.563-0.892,1.043-1.338,2.518-1.338,4.425,0,2.044,0.41,3.601,1.23,4.671,0.82,1.069,2.051,1.604,3.691,1.604,0.175,0,0.332-0.022,0.501-0.03-0.234,0.652-0.441,1.331-0.612,1.866h-1.48v1h2v-0.001h1c0.088,0.04,0.368-1.64,0.73-3.089,0.087-0.021,0.183-0.029,0.268-0.054v-1.409z"/>
</svg>
