<?xml version="1.0" encoding="UTF-8"?>
<!DOCTYPE svg PUBLIC "-//W3C//DTD SVG 1.1 Tiny//EN" "http://www.w3.org/Graphics/SVG/1.1/DTD/svg11-tiny.dtd">
<svg baseProfile="tiny" height="60" viewBox="0 0 60 60" width="60" xmlns="http://www.w3.org/2000/svg" xmlns:xlink="http://www.w3.org/1999/xlink">
<g>
<linearGradient gradientTransform="matrix(0.5 0 0 0.5 -3031.4424 -2303.3008)" gradientUnits="userSpaceOnUse" id="SVGID_1_" x1="6116.3018" x2="6116.3018" y1="4610.5996" y2="4709.6021">
<stop offset="0" style="stop-color:#7DC7BB"/>
<stop offset="0.15" style="stop-color:#7DC7BB"/>
<stop offset="0.56" style="stop-color:#6292A3"/>
<stop offset="1" style="stop-color:#455188"/>
</linearGradient>
<polygon fill="url(#SVGID_1_)" points="47.517,26.58 26.813,5.055 5.899,26.58 17.177,26.58 17.177,51.16 36.474,51.16   36.474,26.58 "/>
<linearGradient gradientTransform="matrix(0.5 0 0 0.5 -3031.4424 -2303.3008)" gradientUnits="userSpaceOnUse" id="SVGID_2_" x1="6116.3955" x2="6116.3955" y1="4615.6016" y2="4661.0015">
<stop offset="0" style="stop-color:#CAE8D4"/>
<stop offset="0.42" style="stop-color:#CAE8D4"/>
<stop offset="1" style="stop-color:#83B4B4"/>
</linearGradient>
<polygon fill="url(#SVGID_2_)" points="6.548,26.58 26.813,5.777 46.954,26.58 48.356,26.58 26.813,4.34 5.153,26.58 "/>
<polygon fill="#659BA9" points="36.497,51.66 17.177,51.66 17.177,50.66 36.497,50.66 "/>
<rect fill="none" height="60" width="60"/>
</g>
<g transform="matrix(1 0 0 1 30 30)">
<path d="M22.379,24.469h-3.846v-0.341c4.922-1.536,8.297-6.068,8.297-11.278  c0-6.522-5.307-11.828-11.83-11.828c-6.522,0-11.828,5.306-11.828,11.828c0,5.212,3.376,9.745,8.301,11.279v0.34H7.66  c-1.588,0-2.879,1.281-2.879,2.893l0.005,0.148l0.007,0.06c0.006,0.042,0.014,0.121,0.027,0.47l0.042,0.939h20.323l0.048-1.235  c0.006-0.112,0.011-0.153,0.014-0.179c0.007-0.065,0.011-0.098,0.011-0.238C25.258,25.75,23.967,24.469,22.379,24.469z   M24.279,27.361c0,0.103-0.008,0.052-0.023,0.326c-0.004,0.091-0.008,0.186-0.013,0.313h-0.002h-0.002H5.803H5.799  c-0.025-0.635-0.039-0.508-0.039-0.639v-0.035c0-1.037,0.85-1.879,1.9-1.879h4.791v-2.063C7.698,22.233,4.15,17.953,4.15,12.85  C4.15,6.867,9.021,2,15,2c5.982,0,10.851,4.866,10.851,10.85c0,5.103-3.546,9.381-8.296,10.534v2.063h4.824  c1.05,0,1.9,0.842,1.9,1.879V27.361z" fill-opacity="0.6" stroke-opacity="0.6"/>
<linearGradient gradientTransform="matrix(1 0 0 -1 -27.48 -6114.1465)" gradientUnits="userSpaceOnUse" id="SVGID_1__" x1="39.8613" x2="45.0998" y1="-6137.793" y2="-6137.793">
<stop offset="0" style="stop-color:#898A8B"/>
<stop offset="0.2606" style="stop-color:#BFC2C1"/>
<stop offset="0.6606" style="stop-color:#5D5F61"/>
<stop offset="1" style="stop-color:#979A9A"/>
</linearGradient>
<rect fill="url(#SVGID_1__)" height="7.852" width="5.104" x="12.451" y="19.721"/>
<path d="M12.451,24.66c0.818,0.199,1.672,0.314,2.553,0.314s1.73-0.115,2.553-0.314v-4.294  h-5.105v4.284V24.66z" fill="#020202" fill-opacity="0.2"/>
<path d="M12.451,24.02c0.818,0.199,1.672,0.315,2.553,0.315s1.73-0.116,2.553-0.315v-4.293  h-5.105v4.287V24.02z" fill="#020202" fill-opacity="0.2"/>
<linearGradient gradientTransform="matrix(1 0 0 -1 -27.48 -6114.1465)" gradientUnits="userSpaceOnUse" id="SVGID_2__" x1="42.4795" x2="42.4795" y1="-6116.1221" y2="-6137.8223">
<stop offset="0" style="stop-color:#F2F2F2"/>
<stop offset="0.3212" style="stop-color:#E6E6E6"/>
<stop offset="1" style="stop-color:#666666"/>
</linearGradient>
<path d="M15,23.7c-5.979,0-10.85-4.867-10.85-10.851C4.15,6.867,9.021,2,15,2  c5.982,0,10.851,4.866,10.851,10.85C25.851,18.834,20.98,23.7,15,23.7z" fill="url(#SVGID_2__)"/>
<linearGradient gradientTransform="matrix(1 0 0 -1 -27.48 -6114.1465)" gradientUnits="userSpaceOnUse" id="SVGID_3_" x1="42.4805" x2="42.4805" y1="-6116.7617" y2="-6137.1816">
<stop offset="0" style="stop-color:#D3D7D5"/>
<stop offset="0.0667" style="stop-color:#D3D7D5"/>
<stop offset="0.2606" style="stop-color:#BFC2C1"/>
<stop offset="0.6606" style="stop-color:#7F8384"/>
<stop offset="1" style="stop-color:#AFB3B2"/>
</linearGradient>
<circle cx="15" cy="12.851" fill="url(#SVGID_3_)" r="10.21"/>
<path d="M15,21.99c-5.314,0-9.656-4.23-9.842-9.5c-0.006,0.115-0.01,0.23-0.01,0.349  c0,5.431,4.418,9.851,9.852,9.851s9.852-4.42,9.852-9.851c0-0.116-0.004-0.231-0.008-0.349c-0.179,5.27-4.52,9.5-9.84,9.5H15z" fill="#FFFFFF" fill-opacity="0.1"/>
<path d="M23.301,12.41c0,4.703-3.714,9.346-8.299,9.345c-4.58-0.003-8.293-4.646-8.291-9.351  s3.717-8.516,8.296-8.516c4.571,0,8.292,3.814,8.292,8.516L23.301,12.41z" fill="#222021" fill-opacity="0.3"/>
<path d="M15,21.07c-2.387-0.002-4.629-0.932-6.314-2.619C6.998,16.764,6.07,14.52,6.07,12.133  c0-4.923,4.01-8.929,8.936-8.929c2.387,0,4.633,0.931,6.318,2.618c1.688,1.688,2.617,3.934,2.615,6.318  c-0.003,4.924-4.012,8.93-8.936,8.93H14.99H15z" fill="#222021" fill-opacity="0.2"/>
<linearGradient gradientTransform="matrix(1 0 0 -1 -27.48 -6114.1465)" gradientUnits="userSpaceOnUse" id="SVGID_4_" x1="42.4834" x2="42.4834" y1="-6117.8691" y2="-6134.4961">
<stop offset="0" style="stop-color:#CFCFCF"/>
<stop offset="0.1091" style="stop-color:#CFCFCF"/>
<stop offset="0.6848" style="stop-color:#121212"/>
<stop offset="1" style="stop-color:#A6A6A6"/>
</linearGradient>
<path d="M15,20.43c-2.215-0.002-4.297-0.863-5.862-2.432c-1.569-1.566-2.429-3.65-2.429-5.865  c0-4.574,3.723-8.293,8.297-8.293c2.217,0,4.299,0.863,5.865,2.432c1.566,1.567,2.43,3.65,2.428,5.867  c0,4.572-3.723,8.291-8.295,8.291H15z" fill="url(#SVGID_4_)"/>
<linearGradient gradientTransform="matrix(1 0 0 -1 -27.48 -6114.1465)" gradientUnits="userSpaceOnUse" id="SVGID_5_" x1="42.4805" x2="42.4805" y1="-6118.5146" y2="-6133.8677">
<stop offset="0" style="stop-color:#F2F2F2"/>
<stop offset="1" style="stop-color:#636566"/>
</linearGradient>
<path d="M15,4.473c4.229,0,7.658,3.43,7.658,7.658s-3.43,7.656-7.658,7.656c-4.227,0-7.656-3.428-7.656-7.656  S10.773,4.473,15,4.473z" fill="url(#SVGID_5_)"/>
<linearGradient gradientTransform="matrix(1 0 0 -1 -27.48 -6114.1465)" gradientUnits="userSpaceOnUse" id="SVGID_6_" x1="42.4795" x2="42.4795" y1="-6119.9209" y2="-6132.5972">
<stop offset="0" style="stop-color:#1A1A1A"/>
<stop offset="0.503" style="stop-color:#343434"/>
<stop offset="0.7515" style="stop-color:#9E9E9E"/>
<stop offset="1" style="stop-color:#CFCFCF"/>
</linearGradient>
<path d="M15,18.51c-1.704-0.001-3.309-0.666-4.514-1.871c-1.203-1.205-1.867-2.807-1.867-4.512  c0-3.518,2.861-6.377,6.383-6.377c1.705,0,3.307,0.664,4.512,1.87c1.205,1.205,1.869,2.808,1.867,4.513  c0,3.51-2.859,6.37-6.379,6.37L15,18.51z" fill="url(#SVGID_6_)"/>
<radialGradient cx="-18.5371" cy="-6075.4541" gradientTransform="matrix(1.0143 3.000000e-004 3.000000e-004 -1.0141 36.2417 -6148.4917)" gradientUnits="userSpaceOnUse" id="SVGID_7_" r="6.4996">
<stop offset="0" style="stop-color:#000000"/>
<stop offset="0.5917" style="stop-color:#000000"/>
<stop offset="0.627" style="stop-color:#050505"/>
<stop offset="0.7652" style="stop-color:#121212"/>
<stop offset="0.8876" style="stop-color:#171717"/>
<stop offset="1" style="stop-color:#171717"/>
</radialGradient>
<path d="M20.74,12.141c0,3.172-2.574,5.739-5.744,5.739c-3.176-0.001-5.742-2.573-5.74-5.745  c0-3.171,2.572-5.742,5.744-5.74c3.17-0.008,5.74,2.563,5.74,5.74V12.141z" fill="url(#SVGID_7_)"/>
<radialGradient cx="-23.6514" cy="-6071.7656" gradientTransform="matrix(1.0143 0 0 -1.0141 36.3921 -6149.1094)" gradientUnits="userSpaceOnUse" id="SVGID_8_" r="10.3507">
<stop offset="0" style="stop-color:#242424"/>
<stop offset="0.4303" style="stop-color:#242424"/>
<stop offset="0.7818" style="stop-color:#000000"/>
<stop offset="1" style="stop-color:#000000"/>
</radialGradient>
<circle cx="15" cy="12.13" fill="url(#SVGID_8_)" r="4.712"/>
<radialGradient cx="-20.3467" cy="-6068.7339" gradientTransform="matrix(1.0143 3.000000e-004 3.000000e-004 -1.0141 36.2417 -6148.4917)" gradientUnits="userSpaceOnUse" id="SVGID_9_" r="11.36">
<stop offset="0" style="stop-color:#8D4AAB"/>
<stop offset="0.3091" style="stop-color:#8D4AAB"/>
<stop offset="0.4364" style="stop-color:#532961"/>
<stop offset="0.8061" style="stop-color:#070F0F"/>
<stop offset="1" style="stop-color:#070F0F"/>
</radialGradient>
<path d="M19.211,12.131c0,2.325-1.887,4.209-4.212,4.209c-2.327-0.002-4.214-1.887-4.214-4.211  c0.004-2.328,1.891-4.211,4.214-4.211c2.329,0.003,4.21,1.889,4.21,4.211L19.211,12.131z" fill="url(#SVGID_9_)"/>
<radialGradient cx="-19.1367" cy="-6078.4346" gradientTransform="matrix(1.0143 3.000000e-004 3.000000e-004 -1.0141 36.2417 -6148.4917)" gradientUnits="userSpaceOnUse" id="SVGID_10_" r="4.6115">
<stop offset="0" style="stop-color:#264932"/>
<stop offset="0.7879" style="stop-color:#000000"/>
<stop offset="1" style="stop-color:#000000"/>
</radialGradient>
<path d="M19.211,12.131c0,2.325-1.887,4.209-4.212,4.209c-2.327-0.002-4.214-1.887-4.214-4.211  c0,0,1.443,2.568,4.214,2.568c2.769,0,4.21-2.57,4.21-2.57L19.211,12.131z" fill="url(#SVGID_10_)"/>
<linearGradient gradientTransform="matrix(1 0 0 -1 -27.48 -6114.1465)" gradientUnits="userSpaceOnUse" id="SVGID_11_" x1="42.4609" x2="42.4609" y1="-6121.2129" y2="-6126.2388">
<stop offset="0" style="stop-color:#FAFDFB"/>
<stop offset="1" style="stop-color:#808080"/>
</linearGradient>
<path d="M14.98,12.07c1.828,0,3.549-0.277,5.066-0.766  c-0.43-2.41-2.531-4.238-5.066-4.238c-2.531,0-4.633,1.83-5.064,4.238c1.514,0.49,3.234,0.771,5.064,0.771V12.07z" fill="url(#SVGID_11_)" fill-opacity="0.35"/>
<linearGradient gradientTransform="matrix(1 0 0 -1 -27.48 -6114.1465)" gradientUnits="userSpaceOnUse" id="SVGID_12_" x1="33.2402" x2="51.7598" y1="-6140.8701" y2="-6140.8701">
<stop offset="0" style="stop-color:#898A8B"/>
<stop offset="0.2606" style="stop-color:#BFC2C1"/>
<stop offset="0.6606" style="stop-color:#5D5F61"/>
<stop offset="1" style="stop-color:#979A9A"/>
</linearGradient>
<path d="M24.241,28c0.025-0.635,0.038-0.508,0.038-0.639v-0.035c0-1.037-0.851-1.879-1.9-1.879H7.66  c-1.051,0-1.9,0.842-1.9,1.879v0.035c0,0.131,0.014,0.004,0.039,0.639h18.44H24.241z" fill="url(#SVGID_12_)"/>
<path d="M5.879,26.7h18.292c-0.084-0.235-0.213-0.444-0.377-0.626H6.262  c-0.164,0.189-0.293,0.4-0.377,0.63L5.879,26.7z" fill="#FFFFFF" fill-opacity="0.2"/>
<path d="M5.771,27.359C5.779,27.49,5.789,27.68,5.803,28h18.44  c0.012-0.316,0.021-0.508,0.027-0.639H5.77L5.771,27.359z" fill="#020202" fill-opacity="0.2"/>
<path d="M6.256,26.07h17.54c-0.348-0.383-0.846-0.627-1.407-0.627H7.668  c-0.561,0.01-1.059,0.25-1.406,0.629L6.256,26.07z" fill="#FFFFFF" fill-opacity="0.4"/>
<rect fill="none" height="30" width="30"/>
</g>
</svg>
