<?xml version="1.0" encoding="UTF-8"?>
<!DOCTYPE svg PUBLIC "-//W3C//DTD SVG 1.1 Tiny//EN" "http://www.w3.org/Graphics/SVG/1.1/DTD/svg11-tiny.dtd">
<svg baseProfile="tiny" height="60px" style="enable-background:new 0 0 30 60;" version="1.1" viewBox="0 0 30 60" width="30px" x="0px" xmlns="http://www.w3.org/2000/svg" xmlns:xlink="http://www.w3.org/1999/xlink" y="0px">
<g>
<path d="M30,0.5H3.131C1.68,0.5,0.5,2.07,0.5,4v52c0,1.93,1.18,3.5,2.631,3.5H30V0.5z" style="fill:url(#SVGID_1_);"/>
<path d="M29.993,59H3.131C1.976,59,1,57.626,1,56V4c0-1.626,0.976-3,2.131-3h26.862V0H3.131   C1.402,0,0,1.791,0,4v52c0,2.207,1.402,4,3.131,4h26.862V59z" style="fill:#E0E0E0;"/>
<defs>
<linearGradient gradientUnits="userSpaceOnUse" id="SVGID_1_" x1="15.2505" x2="15.2505" y1="59.2354" y2="-0.6073">
<stop offset="0" style="stop-color:#D2D2D2"/>
<stop offset="1" style="stop-color:#AAAAAA"/>
</linearGradient>
</defs>
</g>
<g>
<polygon points="29.993,60 0,60 0,0 30,0  " style="fill:none;"/>
</g>
</svg>
