<?xml version="1.0" encoding="UTF-8"?>
<!DOCTYPE svg PUBLIC "-//W3C//DTD SVG 1.1 Tiny//EN" "http://www.w3.org/Graphics/SVG/1.1/DTD/svg11-tiny.dtd">
<svg baseProfile="tiny" height="30" viewBox="0 0 30 30" width="30" xmlns="http://www.w3.org/2000/svg" xmlns:xlink="http://www.w3.org/1999/xlink">
<rect fill="none" height="30" width="30"/>
<rect fill="none" height="30" width="30"/>
<path d="M20.09,9.316c0.592,1.902,0.91,3.925,0.91,6.021c0,1.847-0.252,3.633-0.714,5.331l1.292,0.94 c0.598-1.986,0.922-4.091,0.922-6.271c0-2.429-0.404-4.764-1.141-6.946L20.09,9.316z"/>
<path d="M25.143,5.627l-1.254,0.911c1.038,2.73,1.611,5.69,1.611,8.786c0,2.847-0.486,5.579-1.371,8.125l1.269,0.924 C26.434,21.551,27,18.504,27,15.324C27,11.897,26.336,8.628,25.143,5.627z"/>
<path d="M10.231,9H8.25v1.5H3v9h5.25V21h2.036L18,25.5v-21L10.231,9z M15,15.75h-3.75v3.75h-1.5v-3.75H6v-1.5h3.75V10.5h1.5v3.75H15 V15.75z"/>
</svg>
