<?xml version="1.0" encoding="UTF-8" standalone="no"?>
<!DOCTYPE svg PUBLIC "-//W3C//DTD SVG 1.1 Tiny//EN" "http://www.w3.org/Graphics/SVG/1.1/DTD/svg11-tiny.dtd">
<svg xmlns="http://www.w3.org/2000/svg" xmlns:xlink="http://www.w3.org/1999/xlink" baseProfile="tiny" height="28px" version="1.1" viewBox="0 0 28 28" width="28px" x="0px" y="0px">
<path d="M14,28C6.28,28,0,21.719,0,14C0,6.28,6.28,0,14,0c7.719,0,14,6.28,14,14  C28,21.719,21.719,28,14,28L14,28z" fill-opacity="0.1" stroke-opacity="0.1"/>
<rect fill="none" height="28" width="28"/>
<circle cx="14" cy="14" fill="#969696" fill-opacity="0.8" r="12.923" stroke-opacity="0.8"/>
<path d="M14,1.077C6.863,1.077,1.077,6.862,1.077,14S6.863,26.924,14,26.924  S26.924,21.138,26.924,14S21.137,1.077,14,1.077z M14,25.846C7.468,25.846,2.154,20.531,2.154,14C2.154,7.468,7.468,2.154,14,2.154  c6.531,0,11.846,5.314,11.846,11.846C25.846,20.531,20.531,25.846,14,25.846z" fill-opacity="0.2" stroke-opacity="0.2"/>
</svg>
