<?xml version="1.0" encoding="utf-8"?>
<!-- Generator: Adobe Illustrator 14.0.0, SVG Export Plug-In  -->
<!DOCTYPE svg PUBLIC "-//W3C//DTD SVG 1.1//EN" "http://www.w3.org/Graphics/SVG/1.1/DTD/svg11.dtd" [
	<!ENTITY ns_flows "http://ns.adobe.com/Flows/1.0/">
]>
<svg version="1.1"
	 xmlns="http://www.w3.org/2000/svg" xmlns:xlink="http://www.w3.org/1999/xlink" xmlns:a="http://ns.adobe.com/AdobeSVGViewerExtensions/3.0/"
	 x="0px" y="0px" width="30px" height="30px" viewBox="0 0 30 30" enable-background="new 0 0 30 30" xml:space="preserve">
<defs>
</defs>
<g opacity="0.5">
	<rect fill="none" width="30" height="30"/>
</g>
<rect x="6" y="6" width="2" height="2"/>
<rect x="9" y="6" width="10" height="2"/>
<rect x="6" y="11" width="2" height="2"/>
<rect x="9" y="11" width="10" height="2"/>
<rect x="6" y="16" width="2" height="2"/>
<rect x="6" y="21" width="2" height="2"/>
<path d="M9,21v2h4.025C13.017,22.833,13,22.669,13,22.5c0-0.512,0.052-1.01,0.131-1.5H9z"/>
<path d="M15.591,16H9v2h5.137C14.531,17.269,15.025,16.601,15.591,16z"/>
<path d="M4,26V3h18v10.025C22.166,13.017,22.331,13,22.5,13c0.866,0,1.702,0.127,2.5,0.345V0H1v29h14.591
	c-0.813-0.865-1.468-1.879-1.914-3H4z"/>
<path d="M22.5,15c-4.136,0-7.5,3.364-7.5,7.5s3.364,7.5,7.5,7.5s7.5-3.364,7.5-7.5S26.636,15,22.5,15z M22.5,28
	c-3.033,0-5.5-2.468-5.5-5.5s2.467-5.5,5.5-5.5s5.5,2.468,5.5,5.5S25.533,28,22.5,28z"/>
<polygon points="23,22 23,18 21,18 21,22 21,24 23,24 27,24 27,22 "/>
</svg>
