<?xml version="1.0" encoding="UTF-8"?>
<!DOCTYPE svg PUBLIC "-//W3C//DTD SVG 1.1 Tiny//EN" "http://www.w3.org/Graphics/SVG/1.1/DTD/svg11-tiny.dtd">
<svg baseProfile="tiny" height="60" viewBox="0 0 60 60" width="60" xmlns="http://www.w3.org/2000/svg" xmlns:xlink="http://www.w3.org/1999/xlink">
<g>
<linearGradient gradientTransform="matrix(1 0 0 -1 123.4648 234.2559)" gradientUnits="userSpaceOnUse" id="SVGID_1_" x1="-80.6243" x2="-80.6243" y1="220.0928" y2="188.417">
<stop offset="0" style="stop-color:#98B060"/>
<stop offset="0.8121" style="stop-color:#326644"/>
<stop offset="1" style="stop-color:#4E8146"/>
</linearGradient>
<path d="M36.798,40.658l0.644-0.473c3.229-2.377,5.16-6.17,5.16-10.145c0-4.03-1.97-7.854-5.271-10.226  l-0.651-0.472l3.784-5.18l0.646,0.466c4.94,3.569,7.893,9.329,7.893,15.412c0,6.021-2.905,11.752-7.771,15.324l-0.646,0.474  L36.798,40.658z" fill="url(#SVGID_1_)"/>
<linearGradient gradientTransform="matrix(1 0 0 -1 123.4648 234.2559)" gradientUnits="userSpaceOnUse" id="SVGID_2_" x1="-80.4656" x2="-80.4656" y1="218.9775" y2="189.5352">
<stop offset="0" style="stop-color:#E2E5C2"/>
<stop offset="0.7455" style="stop-color:#49794A"/>
<stop offset="1" style="stop-color:#ACB991"/>
</linearGradient>
<path d="M43.399,30.042c0,4.425-2.166,8.347-5.486,10.788l2.844,3.891c4.513-3.313,7.443-8.652,7.443-14.679  c0-6.079-2.982-11.459-7.561-14.763l-2.841,3.887C41.185,21.601,43.399,25.563,43.399,30.042z" fill="url(#SVGID_2_)"/>
<linearGradient gradientTransform="matrix(1 0 0 -1 123.4648 234.2559)" gradientUnits="userSpaceOnUse" id="SVGID_3_" x1="-80.3098" x2="-80.3098" y1="217.8477" y2="190.6709">
<stop offset="0" style="stop-color:#98B060"/>
<stop offset="0.8121" style="stop-color:#326644"/>
<stop offset="1" style="stop-color:#4E8146"/>
</linearGradient>
<path d="M39.017,40.984c3.26-2.692,5.184-6.726,5.184-10.942c0-4.278-1.965-8.344-5.293-11.036l1.898-2.598  c4.145,3.291,6.596,8.328,6.596,13.634c0,5.25-2.41,10.253-6.482,13.543L39.017,40.984z" fill="url(#SVGID_3_)"/>
<linearGradient gradientTransform="matrix(1 0 0 -1 123.4648 234.2559)" gradientUnits="userSpaceOnUse" id="SVGID_4_" x1="-106.3035" x2="-106.3035" y1="220.0918" y2="188.415">
<stop offset="0" style="stop-color:#98B060"/>
<stop offset="0.8121" style="stop-color:#326644"/>
<stop offset="1" style="stop-color:#4E8146"/>
</linearGradient>
<path d="M18.77,45.366C13.904,41.794,11,36.064,11,30.042c0-6.083,2.95-11.843,7.892-15.412l0.646-0.466  l3.785,5.18l-0.655,0.472c-3.298,2.372-5.267,6.195-5.267,10.226c0,3.976,1.929,7.767,5.16,10.144l0.642,0.474l-3.785,5.182  L18.77,45.366z" fill="url(#SVGID_4_)"/>
<linearGradient gradientTransform="matrix(1 0 0 -1 123.4648 234.2559)" gradientUnits="userSpaceOnUse" id="SVGID_5_" x1="-106.4646" x2="-106.4646" y1="218.9775" y2="189.5352">
<stop offset="0" style="stop-color:#E2E5C2"/>
<stop offset="0.7455" style="stop-color:#49794A"/>
<stop offset="1" style="stop-color:#ACB991"/>
</linearGradient>
<path d="M19.243,44.721l2.842-3.891c-3.317-2.441-5.484-6.363-5.484-10.788c0-4.479,2.216-8.441,5.601-10.876  l-2.84-3.887c-4.579,3.304-7.561,8.684-7.561,14.763C11.8,36.068,14.731,41.408,19.243,44.721z" fill="url(#SVGID_5_)"/>
<linearGradient gradientTransform="matrix(1 0 0 -1 123.4648 234.2559)" gradientUnits="userSpaceOnUse" id="SVGID_6_" x1="-106.6179" x2="-106.6179" y1="217.8477" y2="190.6709">
<stop offset="0" style="stop-color:#98B060"/>
<stop offset="0.8121" style="stop-color:#326644"/>
<stop offset="1" style="stop-color:#4E8146"/>
</linearGradient>
<path d="M19.081,43.585c-4.072-3.29-6.48-8.293-6.48-13.543c0-5.306,2.45-10.343,6.594-13.634l1.897,2.598  c-3.327,2.691-5.293,6.758-5.293,11.036c0,4.218,1.924,8.25,5.184,10.942L19.081,43.585z" fill="url(#SVGID_6_)"/>
<linearGradient gradientTransform="matrix(1 0 0 -1 123.4648 234.2559)" gradientUnits="userSpaceOnUse" id="SVGID_7_" x1="-73.468" x2="-73.468" y1="227.3604" y2="181.1504">
<stop offset="0" style="stop-color:#98B060"/>
<stop offset="0.8121" style="stop-color:#326644"/>
<stop offset="1" style="stop-color:#4E8146"/>
</linearGradient>
<path d="M42.112,47.93l0.643-0.472c5.539-4.067,8.847-10.577,8.847-17.417c0-6.893-3.351-13.435-8.959-17.499  l-0.65-0.47l3.781-5.176l0.645,0.468c7.254,5.261,11.584,13.737,11.584,22.677c0,8.881-4.285,17.326-11.463,22.59l-0.646,0.475  L42.112,47.93z" fill="url(#SVGID_7_)"/>
<linearGradient gradientTransform="matrix(1 0 0 -1 123.4648 234.2559)" gradientUnits="userSpaceOnUse" id="SVGID_8_" x1="-73.3088" x2="-73.3089" y1="226.2432" y2="182.2715">
<stop offset="0" style="stop-color:#E2E5C2"/>
<stop offset="0.7455" style="stop-color:#49794A"/>
<stop offset="1" style="stop-color:#ACB991"/>
</linearGradient>
<path d="M52.399,30.041c0,7.406-3.615,13.98-9.172,18.063l2.838,3.881C52.815,47.035,57.2,39.051,57.2,30.041  c0-9.063-4.436-17.086-11.252-22.028l-2.836,3.883C48.733,15.969,52.399,22.583,52.399,30.041z" fill="url(#SVGID_8_)"/>
<linearGradient gradientTransform="matrix(1 0 0 -1 123.4648 234.2559)" gradientUnits="userSpaceOnUse" id="SVGID_9_" x1="-73.1536" x2="-73.1536" y1="225.1191" y2="183.4023">
<stop offset="0" style="stop-color:#98B060"/>
<stop offset="0.8121" style="stop-color:#326644"/>
<stop offset="1" style="stop-color:#4E8146"/>
</linearGradient>
<path d="M44.337,48.264c5.564-4.389,8.863-11.143,8.863-18.223c0-7.138-3.342-13.922-8.977-18.312  l1.893-2.592c6.455,4.986,10.283,12.739,10.283,20.903c0,8.106-3.785,15.828-10.168,20.813L44.337,48.264z" fill="url(#SVGID_9_)"/>
<linearGradient gradientTransform="matrix(1 0 0 -1 123.4648 234.2559)" gradientUnits="userSpaceOnUse" id="SVGID_10_" x1="-113.4607" x2="-113.4607" y1="227.3604" y2="181.1504">
<stop offset="0" style="stop-color:#98B060"/>
<stop offset="0.8121" style="stop-color:#326644"/>
<stop offset="1" style="stop-color:#4E8146"/>
</linearGradient>
<path d="M13.461,52.631C6.285,47.367,2,38.922,2,30.041c0-8.94,4.33-17.416,11.582-22.677l0.646-0.468  l3.78,5.176l-0.649,0.47c-5.61,4.064-8.958,10.606-8.958,17.499c0,6.84,3.307,13.35,8.844,17.417l0.644,0.472l-3.781,5.176  L13.461,52.631z" fill="url(#SVGID_10_)"/>
<linearGradient gradientTransform="matrix(1 0 0 -1 123.4648 234.2559)" gradientUnits="userSpaceOnUse" id="SVGID_11_" x1="-113.6199" x2="-113.6199" y1="226.2432" y2="182.2715">
<stop offset="0" style="stop-color:#E2E5C2"/>
<stop offset="0.7455" style="stop-color:#49794A"/>
<stop offset="1" style="stop-color:#ACB991"/>
</linearGradient>
<path d="M13.935,51.984l2.836-3.881c-5.556-4.082-9.17-10.656-9.17-18.063  c0-7.458,3.667-14.072,9.289-18.145l-2.837-3.883C7.237,12.955,2.8,20.979,2.8,30.041C2.8,39.051,7.186,47.035,13.935,51.984z" fill="url(#SVGID_11_)"/>
<linearGradient gradientTransform="matrix(1 0 0 -1 123.4648 234.2559)" gradientUnits="userSpaceOnUse" id="SVGID_12_" x1="-113.7761" x2="-113.7761" y1="225.1182" y2="183.4004">
<stop offset="0" style="stop-color:#98B060"/>
<stop offset="0.8121" style="stop-color:#326644"/>
<stop offset="1" style="stop-color:#4E8146"/>
</linearGradient>
<path d="M13.769,50.855C7.387,45.869,3.601,38.148,3.601,30.041c0-8.164,3.83-15.917,10.282-20.903  l1.895,2.592C10.142,16.119,6.8,22.903,6.8,30.041c0,7.08,3.3,13.834,8.863,18.223L13.769,50.855z" fill="url(#SVGID_12_)"/>
<linearGradient gradientTransform="matrix(1 0 0 -1 123.4648 234.2559)" gradientUnits="userSpaceOnUse" id="SVGID_13_" x1="-93.4651" x2="-93.4651" y1="212.9941" y2="195.577">
<stop offset="0" style="stop-color:#98B060"/>
<stop offset="0.8121" style="stop-color:#326644"/>
<stop offset="1" style="stop-color:#4E8146"/>
</linearGradient>
<path d="M29.999,38.799c-4.852,0-8.799-3.947-8.799-8.799c0-4.854,3.948-8.801,8.799-8.801  c4.854,0,8.801,3.947,8.801,8.801C38.8,34.852,34.853,38.799,29.999,38.799L29.999,38.799z" fill="url(#SVGID_13_)"/>
<linearGradient gradientTransform="matrix(1 0 0 -1 123.4648 234.2559)" gradientUnits="userSpaceOnUse" id="SVGID_14_" x1="-93.4651" x2="-93.4651" y1="212.2002" y2="196.3666">
<stop offset="0" style="stop-color:#E2E5C2"/>
<stop offset="0.7455" style="stop-color:#49794A"/>
<stop offset="1" style="stop-color:#ACB991"/>
</linearGradient>
<path d="M29.999,37.998c-4.411,0-8-3.588-8-7.998c0-4.414,3.588-8.001,8-8.001s8.002,3.587,8.002,8.001  C38.001,34.41,34.411,37.998,29.999,37.998L29.999,37.998z" fill="url(#SVGID_14_)"/>
<linearGradient gradientTransform="matrix(1 0 0 -1 123.4648 234.2559)" gradientUnits="userSpaceOnUse" id="SVGID_15_" x1="-93.4656" x2="-93.4656" y1="211.4072" y2="197.1546">
<stop offset="0" style="stop-color:#98B060"/>
<stop offset="0.8121" style="stop-color:#326644"/>
<stop offset="1" style="stop-color:#4E8146"/>
</linearGradient>
<path d="M29.999,37.199c-3.969,0-7.2-3.23-7.2-7.199c0-3.971,3.23-7.203,7.2-7.203  c3.972,0,7.201,3.232,7.201,7.203C37.2,33.969,33.97,37.199,29.999,37.199L29.999,37.199z" fill="url(#SVGID_15_)"/>
<rect fill="none" height="60" width="60" x="0"/>
</g>
</svg>
