<?xml version="1.0" encoding="UTF-8"?>
<!DOCTYPE svg PUBLIC "-//W3C//DTD SVG 1.1 Tiny//EN" "http://www.w3.org/Graphics/SVG/1.1/DTD/svg11-tiny.dtd">
<svg baseProfile="tiny" height="30px" version="1.1" viewBox="0 0 30 30" width="30px" x="0px" xmlns="http://www.w3.org/2000/svg" xmlns:xlink="http://www.w3.org/1999/xlink" y="0px">
<rect fill="none" height="30" width="30"/>
<rect height="1" width="11.999" x="9.5" y="11.025"/>
<path d="M4.477,8.459L2.001,7.223C1.45,6.945,1,7.225,1,7.841v8.961c0,0.614,0.45,0.893,1.002,0.617l2.476-1.237  c0.552-0.275,1.002-1.006,1.002-1.621v-4.479C5.48,9.465,5.03,8.735,4.477,8.459z M28.068,8.461L26.76,9.333V7.841  c0-1.237-1.005-2.24-2.24-2.24H8.839c-1.236,0-2.239,1.003-2.239,2.24v12.318c0,1.238,1.003,2.24,2.239,2.24h6.669  c0.023-0.692,0.278-1.356,0.737-1.878l3.496-3.996C20.314,15.872,21.137,15.5,22,15.5c0.866,0,1.688,0.373,2.258,1.024l2.502,2.856  v-4.073l1.309,0.872C28.582,16.52,29,16.296,29,15.682V8.961C29,8.345,28.582,8.12,28.068,8.461z M16.12,19.042  c-0.928,0-1.68-0.754-1.68-1.682s0.752-1.679,1.68-1.679s1.679,0.751,1.679,1.679S17.048,19.042,16.12,19.042z"/>
<path d="M21.247,17.842l-3.499,4C17.585,22.027,17.5,22.263,17.5,22.5c0,0.14,0.029,0.281,0.09,0.414  c0.162,0.356,0.519,0.586,0.911,0.586L20,23.499V28c0,0.552,0.448,1,1,1h2c0.552,0,1-0.448,1-1v-4.504h1.501  c0.392-0.001,0.748-0.23,0.91-0.588c0.06-0.132,0.089-0.272,0.089-0.412c0-0.238-0.085-0.474-0.248-0.659l-3.5-3.996  C22.563,17.624,22.288,17.5,22,17.5C21.711,17.5,21.438,17.625,21.247,17.842z"/>
</svg>
