<?xml version="1.0" encoding="UTF-8"?>
<!DOCTYPE svg PUBLIC "-//W3C//DTD SVG 1.1 Tiny//EN" "http://www.w3.org/Graphics/SVG/1.1/DTD/svg11-tiny.dtd">
<svg baseProfile="tiny" height="60" viewBox="0 0 60 60" width="60" xmlns="http://www.w3.org/2000/svg" xmlns:xlink="http://www.w3.org/1999/xlink">
<g>
<linearGradient gradientTransform="matrix(1 0 0 -1 -392.52 -216.7607)" gradientUnits="userSpaceOnUse" id="SVGID_1_" x1="427.5981" x2="427.5981" y1="-268.5454" y2="-222.4763">
<stop offset="0" style="stop-color:#2A3662"/>
<stop offset="1" style="stop-color:#546F9F"/>
</linearGradient>
<path d="M58.277,28.853c0,12.811-10.387,23.197-23.199,23.197s-23.2-10.387-23.2-23.197  c0-12.814,10.388-23.202,23.2-23.202S58.277,16.039,58.277,28.853z" fill="url(#SVGID_1_)"/>
<radialGradient cx="426.4771" cy="-231.2646" gradientTransform="matrix(0.9953 0 0 -0.9952 -389.7242 -209.3287)" gradientUnits="userSpaceOnUse" id="SVGID_2_" r="28.06">
<stop offset="0" style="stop-color:#B4DFC6"/>
<stop offset="0.5" style="stop-color:#72B9C3"/>
<stop offset="1" style="stop-color:#546F9F"/>
</radialGradient>
<path d="M35.078,6.248c12.482,0,22.604,10.119,22.604,22.605c0,12.482-10.121,22.6-22.604,22.6  c-12.484,0-22.604-10.117-22.604-22.6C12.473,16.367,22.593,6.248,35.078,6.248z" fill="url(#SVGID_2_)"/>
<linearGradient gradientTransform="matrix(1 0 0 -1 -392.52 -216.7607)" gradientUnits="userSpaceOnUse" id="SVGID_3_" x1="427.5962" x2="427.5962" y1="-222.8101" y2="-268.3284">
<stop offset="0" style="stop-color:#6DACBC"/>
<stop offset="0.497" style="stop-color:#5778A3"/>
<stop offset="1" style="stop-color:#A6CDC2"/>
</linearGradient>
<path d="M35.078,6.248c-12.483,0-22.604,10.119-22.604,22.605  c0,12.482,10.121,22.6,22.604,22.6c12.486,0,22.604-10.117,22.604-22.6C57.681,16.369,47.564,6.248,35.078,6.248z M35.078,49.476  c-11.736,0-21.287-9.548-21.287-21.282c0-11.739,9.551-21.288,21.287-21.288c11.739,0,21.285,9.549,21.285,21.288  C56.363,39.928,46.817,49.476,35.078,49.476z" fill="url(#SVGID_3_)" fill-opacity="0.3" stroke-opacity="0.3"/>
<linearGradient gradientTransform="matrix(1 0 0 -1 -392.52 -216.7607)" gradientUnits="userSpaceOnUse" id="SVGID_4_" x1="405.3618" x2="408.9536" y1="-248.6851" y2="-248.6851">
<stop offset="0" style="stop-color:#59595A"/>
<stop offset="1" style="stop-color:#000000"/>
</linearGradient>
<path d="M14.593,28.484c-0.239-0.324-0.782-0.324-1.023-0.324  c-0.473,0-0.723,0.339-0.728,0.671v0.022v0.033c0,0.581,0.032,1.232,0.101,2.026c0.017,0.148,0.033,0.298,0.052,0.445l0.025,0.221  c0.06,0.466,0.133,0.931,0.215,1.38l0.033,0.195c0.037,0.176,0.07,0.351,0.107,0.525c0.097,0.439,0.216,0.893,0.36,1.393  c0.019,0.078,0.04,0.148,0.057,0.221c0.032,0.118,0.064,0.23,0.103,0.345l0.002,0.017l0.016,0.035  c-0.005-0.006-0.011-0.025-0.014-0.038l1.298-0.092c0.02-0.196,0.026-0.409,0.02-0.616c-0.009-0.329-0.023-0.734-0.116-1.075  l1.206-1.615l0.128-0.176v-0.219v-1.263V30.32l-0.192-0.19L14.593,28.484z" fill="url(#SVGID_4_)" fill-opacity="0.3" stroke-opacity="0.3"/>
<linearGradient gradientTransform="matrix(1 0 0 -1 -392.52 -216.7607)" gradientUnits="userSpaceOnUse" id="SVGID_5_" x1="412.2925" x2="449.8911" y1="-242.105" y2="-242.105">
<stop offset="0" style="stop-color:#59595A"/>
<stop offset="1" style="stop-color:#000000"/>
</linearGradient>
<path d="M57.364,24.42c-0.019-0.086-0.034-0.146-0.05-0.207  c-0.014-0.044-0.02-0.092-0.027-0.134c-0.119-0.534-0.264-1.089-0.428-1.653l-0.02-0.06c-0.033-0.129-0.071-0.254-0.113-0.38  c-0.203-0.634-0.424-1.242-0.66-1.805c-0.029-0.068-0.061-0.135-0.087-0.203l-0.051-0.108c-0.224-0.514-0.472-1.025-0.731-1.518  l-0.036-0.063c-0.049-0.097-0.097-0.198-0.149-0.295c-0.321-0.572-0.655-1.123-0.994-1.633c-0.037-0.056-0.077-0.113-0.117-0.169  c-0.026-0.036-0.05-0.067-0.071-0.101c-0.327-0.476-0.668-0.933-1.024-1.372l-0.071-0.088c-0.049-0.058-0.095-0.121-0.145-0.181  c-0.411-0.494-0.848-0.973-1.299-1.424c-0.057-0.063-0.124-0.125-0.188-0.187l-0.052-0.053c-0.407-0.397-0.836-0.793-1.283-1.161  l-0.087-0.077c-0.046-0.039-0.088-0.078-0.135-0.113c-0.484-0.398-1.008-0.792-1.554-1.166c-0.064-0.046-0.136-0.089-0.206-0.134  l-0.082-0.053c-0.495-0.327-1.005-0.638-1.521-0.926l-0.081-0.043c-0.042-0.025-0.084-0.049-0.126-0.075  c-0.572-0.306-1.174-0.596-1.778-0.858l-0.154-0.061l-0.166-0.067c-0.159-0.066-0.32-0.121-0.479-0.178  c-0.082-0.029-0.163-0.058-0.247-0.087l-0.307-0.113L42.57,7.852c-0.186,0.115-0.909,0.53-1.336,0.774  c-0.477-0.065-1.625-0.208-2.783-0.32c0.357-0.033,0.85-0.074,1.548-0.123l0.097-1.302l-0.052-0.011  c-0.041-0.014-0.083-0.024-0.126-0.031L39.82,6.818l-0.08-0.014c-0.712-0.145-1.381-0.246-2.041-0.317h-0.002l-0.092-0.008  c-0.756-0.076-1.527-0.117-2.288-0.117c-0.67,0-1.365,0.037-2.123,0.109c-0.123,0.01-0.234,0.025-0.351,0.037  c-0.751,0.083-1.406,0.182-2.029,0.308L30.793,6.82l-0.015,0.002c-0.651,0.136-1.31,0.304-2.013,0.518  c-0.059,0.019-0.122,0.039-0.187,0.058l-0.141,0.049c-0.591,0.188-1.17,0.402-1.729,0.631c-0.043,0.019-0.076,0.03-0.106,0.042  l-0.084,0.035c-0.612,0.257-1.222,0.553-1.828,0.876c-0.064,0.034-0.128,0.071-0.191,0.106L24.42,9.183  c-0.169,0.095-0.339,0.201-0.51,0.308l-0.218,0.138l-1.211,0.739l1.344,0.448c0.202,0.067,0.419,0.103,0.642,0.103  c0.724,0,1.425-0.355,1.991-0.643c0.224-0.115,0.561-0.285,0.702-0.314c0.165,0.052,0.326,0.076,0.491,0.076  c0.619,0,1.124-0.331,1.569-0.625l0.121-0.076c0.143-0.047,0.392-0.14,0.886-0.322c0.504-0.192,1.422-0.537,1.665-0.595  c0.477-0.007,1.047-0.072,1.453-0.327c0.382,0.063,1.053,0.173,1.751,0.261c-0.051,0.032-0.103,0.066-0.145,0.108  c-0.225,0.206-1.442,0.576-1.816,0.625c-0.704,0.087-0.986,0.439-1.098,0.721c-0.146,0.364-0.056,0.728,0.088,1.023  c-0.266,0.176-0.593,0.371-0.869,0.516c0-0.003,0.002-0.012,0.005-0.018c0.099-0.559,0.172-0.963-0.101-1.291  c-0.139-0.164-0.344-0.258-0.561-0.258c-0.32,0-0.57,0.198-0.771,0.392c-0.564,0.542-0.903,1.22-1.032,1.476l-0.021,0.05  l-0.021,0.038c-0.245,0.465-0.346,0.796-0.21,1.827c-0.06,0.043-0.237,0.11-0.481,0.11c-0.032,0-0.063-0.002-0.086-0.006  c-0.158-0.169-0.375-0.266-0.623-0.266l0,0c-0.567,0-1.341,0.638-2.299,1.899l-0.306,0.407l0.313,0.4l0.293,0.37  c-4.566,3.527-4.6,3.729-4.648,4.022c-0.007,0.027-0.046,0.151-0.103,0.317c-0.68,2.114-1.057,3.696-0.69,4.542  c0.85,1.961,1.81,3.794,3.049,3.896c0.111,0.01,0.23,0.014,0.361,0.014c1.137,0,2.984-0.342,3.866-0.524  c0.164,0.305,0.362,0.666,0.47,0.86l0.199,0.35l0.403-0.011c0,0,0.213-0.012,0.481-0.012c0.312,0,0.517,0.012,0.651,0.02  c0.484,1.414,1.407,4.677,1.236,5.354h-0.002c-1.564,2.338,0.33,5.385,1.238,6.854c0.071,0.114,0.138,0.223,0.192,0.309  c0.348,0.999,0.772,1.661,1.672,1.661c0.065,0,0.134-0.008,0.203-0.008c0.052-0.006,0.103-0.008,0.158-0.008  c0.099,0,0.168,0.012,0.241,0.036l0.083,0.03l0.087,0.008c0.168,0.016,0.333,0.038,0.488,0.059c0.277,0.038,0.565,0.08,0.855,0.08  c0.779,0,1.4-0.295,1.937-0.929c0.017-0.003,0.037-0.003,0.057-0.007c0.562-0.078,0.772-0.358,0.842-0.607  c0.044-0.046,0.098-0.093,0.145-0.139c0.222-0.198,0.482-0.441,0.666-0.729c0.081-0.048,0.176-0.104,0.279-0.164  c0.182-0.11,0.383-0.234,0.546-0.319c0.142-0.042,0.267-0.124,0.361-0.242c0.226-0.277,0.178-0.594,0.143-0.847  c-0.04-0.265-0.078-0.53,0.066-0.821c0.798-0.385,2.217-1.33,2.448-1.486v0.019c-0.018,0.126-0.054,0.465-0.111,0.68  c-0.301,0.303-0.556,0.763-0.637,0.917l-0.051,0.101l-0.016,0.112c-0.02,0.148-0.101,0.919,0.332,1.42  c0.219,0.249,0.532,0.386,0.881,0.386c0.107,0,0.224-0.015,0.343-0.042c1.113-0.253,3.086-2.922,3.246-4.396  c0.079-0.714-0.2-1.273-0.761-1.54l-0.42-0.195l-0.33,0.327l-1.218,1.218c-0.411,0.042-0.733,0.159-0.95,0.354  c0.011-0.521-0.038-1.054-0.096-1.571c-0.163-1.568-0.195-2.57,0.766-3.242l0.047-0.038l0.044-0.04  c0.346-0.354,0.729-0.664,1.137-0.991c0.952-0.765,1.939-1.553,2.524-2.984l0.027-0.059c0.187-0.492,0.469-1.229,0.084-1.792  c-0.096-0.137-0.297-0.353-0.673-0.427c0.498-0.203,0.882-0.363,0.919-0.375l0.119-0.051l0.091-0.086l2.052-1.972l0.301-0.289  l-0.133-0.397c-0.016-0.051-0.13-0.364-0.444-0.812c0.601,0.084,1.115,0.228,1.282,0.354c0.063,0.136,0.184,0.43,0.317,0.739  c2.262,5.33,2.579,5.608,3.166,5.612c0.021,0,0.042,0.004,0.056,0.008c0.045,0,0.089,0.004,0.129,0.004  c0.334,0,0.525-0.171,0.61-0.276c0.245-0.294,0.177-0.659,0.15-0.792l-0.012-0.046c-0.026-0.319-0.006-1.752,0.042-2.929  c0.002,0.002,0.003,0.005,0.003,0.01l1.215-0.481L57.364,24.42z M39.543,17.902c-0.095,0.002-0.196,0.009-0.303,0.011  c-0.352,0.017-0.749,0.035-1.141,0.035c-1.036,0-1.271-0.129-1.299-0.142c-0.118-0.089-0.245-0.159-0.377-0.205  c0.236-0.052,0.504-0.232,0.778-0.766c0.275,0.527,0.641,0.993,1.206,0.993c0.154,0,0.303-0.037,0.443-0.108  C39.04,17.722,39.356,17.831,39.543,17.902z M39.138,15.015c-0.077,0-0.143-0.004-0.189-0.006c0.052-0.14,0.114-0.22,0.164-0.267  c0.065,0.103,0.153,0.19,0.251,0.267C39.287,15.013,39.209,15.015,39.138,15.015z M35.023,16.4c0.354,0.693,0.614,0.992,0.821,1.123  c-0.514,0.041-0.898,0.367-1.218,0.677c-0.226-0.073-0.612-0.31-0.727-0.476c-0.069-0.095-0.15-0.179-0.238-0.252  C34.223,17.315,34.718,16.793,35.023,16.4z M33.065,15.886l-0.735-0.035l-2.467-0.119c0.299-0.248,0.586-0.48,0.754-0.62  c0.045-0.015,0.225-0.065,0.656-0.065c0.261,0,0.51,0.019,0.671,0.033L33.065,15.886z" fill="url(#SVGID_5_)" fill-opacity="0.3" stroke-opacity="0.3"/>
<radialGradient cx="427.188" cy="-223.311" gradientTransform="matrix(0.9953 0 0 -0.9952 -389.7242 -209.3287)" gradientUnits="userSpaceOnUse" id="SVGID_6_" r="25.6253">
<stop offset="0" style="stop-color:#71A949"/>
<stop offset="0.3152" style="stop-color:#71A949"/>
<stop offset="0.7273" style="stop-color:#3E7E53"/>
<stop offset="1" style="stop-color:#254F55"/>
</radialGradient>
<path d="M13.5,28.837L13.5,28.837c0,0.012,0.002,0.016,0.002,0.02c0,0.673,0.042,1.34,0.1,1.995  c0.018,0.217,0.053,0.433,0.074,0.648c0.06,0.451,0.126,0.896,0.206,1.338c0.046,0.237,0.09,0.468,0.138,0.698  c0.103,0.458,0.22,0.909,0.35,1.353c0.054,0.183,0.096,0.373,0.152,0.55c0.008,0.021,0.016,0.038,0.02,0.058  c0.019-0.176,0.023-0.351,0.019-0.537c-0.045-1.299-0.251-1.132-0.251-1.132l1.465-1.97v-1.263l-1.721-1.721  C14.052,28.875,13.501,28.789,13.5,28.837z" fill="url(#SVGID_6_)"/>
<radialGradient cx="427.1948" cy="-223.3115" gradientTransform="matrix(0.9953 0 0 -0.9952 -389.7242 -209.3287)" gradientUnits="userSpaceOnUse" id="SVGID_7_" r="25.6344">
<stop offset="0" style="stop-color:#71A949"/>
<stop offset="0.3152" style="stop-color:#71A949"/>
<stop offset="0.7273" style="stop-color:#3E7E53"/>
<stop offset="1" style="stop-color:#254F55"/>
</radialGradient>
<path d="M27.315,9.321c0.635,0.212,1.156-0.212,1.748-0.594c0.208-0.04,2.531-0.966,2.782-0.966  c0.249,0,1.093-0.035,1.301-0.369c0,0,3.636,0.633,4.184,0.42c0.299-0.115,1.548-0.213,2.627-0.286  c-0.062-0.013-0.116-0.031-0.178-0.043c-0.058-0.014-0.116-0.021-0.177-0.033c-0.671-0.134-1.355-0.241-2.047-0.313  c-0.007,0-0.013,0-0.017-0.003c-0.731-0.071-1.471-0.111-2.222-0.111c-0.698,0-1.384,0.04-2.067,0.108  c-0.116,0.01-0.236,0.022-0.357,0.034c-0.657,0.073-1.311,0.17-1.947,0.297c-0.01,0.005-0.021,0.005-0.033,0.007  c-0.663,0.136-1.312,0.308-1.949,0.499c-0.111,0.035-0.217,0.072-0.327,0.106c-0.565,0.182-1.123,0.388-1.673,0.609  c-0.062,0.029-0.13,0.055-0.193,0.079c-0.604,0.257-1.191,0.542-1.763,0.849c-0.087,0.047-0.173,0.096-0.257,0.144  c-0.247,0.139-0.477,0.292-0.714,0.437C25.216,10.587,26.69,9.111,27.315,9.321z" fill="url(#SVGID_7_)"/>
<radialGradient cx="427.1929" cy="-223.3115" gradientTransform="matrix(0.9953 0 0 -0.9952 -389.7242 -209.3287)" gradientUnits="userSpaceOnUse" id="SVGID_8_" r="25.6303">
<stop offset="0" style="stop-color:#B7CC97"/>
<stop offset="0.3152" style="stop-color:#B7CC97"/>
<stop offset="0.7273" style="stop-color:#568E4C"/>
<stop offset="1" style="stop-color:#255541"/>
</radialGradient>
<path d="M56.712,24.531c-0.023-0.11-0.055-0.213-0.075-0.322c-0.118-0.539-0.255-1.069-0.408-1.594  c-0.044-0.143-0.086-0.287-0.129-0.428c-0.19-0.594-0.401-1.179-0.641-1.75c-0.042-0.099-0.091-0.197-0.133-0.296  c-0.219-0.503-0.459-0.996-0.714-1.479c-0.059-0.113-0.118-0.232-0.18-0.345c-0.303-0.543-0.622-1.074-0.967-1.588  c-0.055-0.089-0.122-0.175-0.182-0.264c-0.316-0.457-0.646-0.9-0.992-1.328c-0.071-0.086-0.137-0.174-0.21-0.261  c-0.398-0.479-0.816-0.94-1.257-1.384c-0.075-0.076-0.156-0.15-0.235-0.224c-0.397-0.393-0.813-0.772-1.248-1.136  c-0.07-0.059-0.14-0.125-0.213-0.184c-0.484-0.395-0.992-0.773-1.511-1.128c-0.091-0.063-0.184-0.122-0.277-0.183  c-0.479-0.317-0.974-0.619-1.478-0.898c-0.071-0.037-0.135-0.078-0.204-0.115c-0.562-0.306-1.135-0.577-1.724-0.832  c-0.103-0.045-0.211-0.086-0.314-0.129c-0.229-0.095-0.464-0.169-0.698-0.255c-0.276,0.175-1.559,0.901-1.559,0.901  s-5.566-0.76-5.945-0.384c-0.377,0.384-1.862,0.769-2.2,0.813C32.883,9.787,32.184,9.965,33.022,11  c-0.124,0.126-2.518,1.793-2.518,1.033c0-0.758,0.535-2.115-0.215-1.388c-0.541,0.521-0.861,1.228-0.934,1.361  c-0.174,0.337-0.283,0.5-0.155,1.468c0.128,0.972-1.549,0.966-1.66,0.713c-0.302-0.672-1.958,1.51-1.958,1.51l0.698,0.898  c0,0-4.882,3.761-4.923,4.012c-0.043,0.256-1.261,3.521-0.841,4.489c0.425,0.973,1.489,3.421,2.497,3.502  c1.325,0.108,4.533-0.603,4.533-0.603c0.088,0.212,0.69,1.284,0.69,1.284s1.572-0.049,1.661,0.12  c0.028,0.055,1.895,5.548,1.277,6.274c-1.469,2.199,0.841,5.427,1.483,6.517c0.641,1.872,1.056,1.035,1.902,1.346  c1.044,0.085,1.921,0.468,2.807-0.668c0.255-0.211,0.692-0.044,0.692-0.339c0-0.16,0.755-0.644,0.948-1.098  c0.206-0.098,0.73-0.451,1.088-0.622c0.324-0.023-0.309-0.887,0.334-1.803c0.689-0.277,2.559-1.533,2.559-1.533  c0.086-1.846-0.908-4.125,0.944-5.435c1.197-1.218,2.764-1.911,3.526-3.766c0.208-0.547,0.677-1.667-0.673-1.332  c-1.27,0.318-2.684,0.392-2.016-0.165c-0.077-0.689-0.921-1.01-1.676-1.681c-0.394-0.927-1.004-2.575-1.004-2.575l-1.348-2.037  l0.169-0.424l1.596,2.35l1.597,1.927c0.585,1.932,1.088,2.101,1.088,2.101c0.886-0.313,2.98-1.175,2.98-1.175l2.058-1.972  c0,0-0.211-0.631-1.047-1.429l-0.633-0.376c-0.137,0.388-0.87,0.531-0.87,0.531l-1.777-2.124l0.664-0.135l0.509,0.973l1.22,0.42  c0,0,0.34-0.245,0.964,0.401c0.513-0.044,2.511,0.096,2.98,0.69c0.09,0.117,2.475,6.068,2.943,6.076  c0.207,0.004,0.357,0.082,0.29-0.274c-0.085-0.173,0-3.91,0.127-4.711c0.318-0.679,0.368,0,1.124,1.286  C56.72,24.591,56.718,24.562,56.712,24.531z M35.738,10.107c0.167-0.498,1.133-0.665,1.133-0.665s-0.278,0.51-0.216,0.774  c0.069,0.267-0.44,0.436-0.495,1.063c-0.054,0.625-1.209,0.259-1.306,0.037C34.761,11.099,35.568,10.604,35.738,10.107z   M39.877,18.549c-0.718,0-2.864,0.216-3.455-0.206c-0.589-0.422-1.048,0.041-1.475,0.467c-0.277,0.271-1.291-0.285-1.59-0.706  c-0.293-0.421-1.284-0.389-1.284-0.389l0.224-1.206l-2.854-0.135l-1.623,0.475l-1.526,0.041l0.854-0.404l1.066-0.255  c0,0,1.546-1.271,2.014-1.649c0.393-0.321,1.96-0.141,1.96-0.141l1.718,1.241c0,0-0.382,0.972-0.55,1.182  c0.631-0.042,1.375-1.189,1.375-1.189c-1.344-1.233-1.288-1.651-1.288-1.651l1.767,1.239l0.017,0.012c0,0,0.718,1.687,1.015,1.687  c0.29,0,0.671-1.159,0.671-1.159l0.505-0.127c0.224,0.529,0.64,1.733,1.145,1.453c0.291-0.161,0.768-0.014,1.316,0.194  c0.55,0.213,0.922-0.114,1.368,0.279C41.192,19.339,40.172,18.637,39.877,18.549z M41,15.653c-0.737-0.284-3.231,0.632-2.674-0.867  c0.297-0.806,1.06-0.974,1.322-0.438c0.069,0.22,0.9,0.564,0.892,0.095c-0.004-0.463,0.836-0.706,0.957-0.364  C41.049,14.402,43.25,16.082,41,15.653z M45.696,17.067c-0.407-0.328,0.186-0.61-0.419-1.125c-0.862-0.74-1.537-1.06-0.362-1.658  c1.453-0.183,0.237,0.465,0.479,0.851c0.129,0.206,0.86,0.892,1.433,1.742C47.303,17.579,46.103,17.392,45.696,17.067z" fill="url(#SVGID_8_)"/>
<radialGradient cx="427.1919" cy="-223.3184" gradientTransform="matrix(0.9953 0 0 -0.9952 -389.7242 -209.3287)" gradientUnits="userSpaceOnUse" id="SVGID_9_" r="25.6246">
<stop offset="0" style="stop-color:#71A949"/>
<stop offset="0.3152" style="stop-color:#71A949"/>
<stop offset="0.7273" style="stop-color:#3E7E53"/>
<stop offset="1" style="stop-color:#254F55"/>
</radialGradient>
<path d="M46.283,36.29l-1.399,1.4c0,0-0.845,0-0.882,0.335c-0.02,0.141-0.069,0.769-0.209,1.089  c-0.279,0.195-0.616,0.839-0.616,0.839S43,41.197,43.932,40.986C44.862,40.779,47.717,36.969,46.283,36.29z" fill="url(#SVGID_9_)"/>
<linearGradient gradientTransform="matrix(1 0 0 -1 -392.52 -216.7607)" gradientUnits="userSpaceOnUse" id="SVGID_10_" x1="417.5278" x2="417.5278" y1="-237.2793" y2="-271.1136">
<stop offset="0" style="stop-color:#C39072"/>
<stop offset="0.7939" style="stop-color:#88444B"/>
<stop offset="1" style="stop-color:#AF7563"/>
</linearGradient>
<path d="M48.292,53.058c0,0.712-0.58,1.292-1.295,1.292H3.017c-0.718,0-1.294-0.58-1.294-1.292V22.01  c0-0.713,0.576-1.292,1.294-1.292h43.979c0.715,0,1.297,0.578,1.297,1.292v31.048H48.292z" fill="url(#SVGID_10_)"/>
<path d="M46.997,20.72H3.017c-0.718,0-1.294,0.577-1.294,1.29v10.027  l46.568-5.12v-4.905C48.292,21.297,47.711,20.72,46.997,20.72z" fill="#FFFFFF" fill-opacity="0.1" stroke-opacity="0.1"/>
<path d="M46.997,21.367c0.357,0,0.646,0.29,0.646,0.644v31.048c0,0.354-0.29,0.649-0.646,0.649H3.017  c-0.36,0-0.648-0.295-0.648-0.649V22.01c0-0.355,0.29-0.644,0.648-0.644H46.997 M46.997,20.72H3.017  c-0.718,0-1.294,0.577-1.294,1.29v31.048c0,0.712,0.576,1.292,1.294,1.292h43.979c0.715,0,1.297-0.58,1.297-1.292V22.01  C48.292,21.297,47.711,20.72,46.997,20.72L46.997,20.72z" fill="#995145"/>
<path d="M46.997,53.708H3.017c-0.718,0-1.294-0.582-1.294-1.296v0.646c0,0.712,0.576,1.292,1.294,1.292h43.979  c0.715,0,1.297-0.58,1.297-1.292v-0.646C48.292,53.125,47.711,53.708,46.997,53.708z" fill="#46232D"/>
<path d="M46.997,20.72H3.017c-0.718,0-1.294,0.577-1.294,1.29v0.648  c0-0.715,0.576-1.294,1.294-1.294h43.979c0.715,0,1.297,0.577,1.297,1.294V22.01C48.292,21.297,47.711,20.72,46.997,20.72z" fill="#FFFFFF" fill-opacity="0.6" stroke-opacity="0.6"/>
<linearGradient gradientTransform="matrix(1 0 0 -1 -392.52 -216.7607)" gradientUnits="userSpaceOnUse" id="SVGID_11_" x1="430.7856" x2="430.7856" y1="-254.7334" y2="-244.9819">
<stop offset="0" style="stop-color:#434343"/>
<stop offset="1" style="stop-color:#222021"/>
</linearGradient>
<circle cx="38.263" cy="32.96" fill="url(#SVGID_11_)" r="5.775"/>
<linearGradient gradientTransform="matrix(1 0 0 -1 -392.52 -216.7607)" gradientUnits="userSpaceOnUse" id="SVGID_12_" x1="430.7837" x2="430.7837" y1="-255.8442" y2="-251.407">
<stop offset="0" style="stop-color:#D9D9D9"/>
<stop offset="1" style="stop-color:#404040"/>
</linearGradient>
<path d="M38.265,38.739c-3.122,0-5.657-2.476-5.767-5.569c-0.003,0.07-0.011,0.133-0.011,0.207  c0,3.189,2.584,5.777,5.775,5.777c3.189,0,5.775-2.588,5.775-5.777c0-0.074-0.008-0.137-0.008-0.207  C43.92,36.263,41.384,38.739,38.265,38.739z" fill="url(#SVGID_12_)"/>
<linearGradient gradientTransform="matrix(1 0 0 -1 -392.52 -216.7607)" gradientUnits="userSpaceOnUse" id="SVGID_13_" x1="430.7856" x2="430.7856" y1="-256.9697" y2="-242.0957">
<stop offset="0" style="stop-color:#B36B4D"/>
<stop offset="1" style="stop-color:#733A43"/>
</linearGradient>
<path d="M38.265,40.446c-4.103,0-7.438-3.338-7.438-7.437c0-4.104,3.338-7.438,7.438-7.438  s7.438,3.333,7.438,7.438C45.704,37.108,42.368,40.446,38.265,40.446L38.265,40.446z M38.265,26.539  c-3.569,0-6.468,2.902-6.468,6.471c0,3.564,2.898,6.464,6.468,6.464c3.563,0,6.47-2.899,6.47-6.464  C44.735,29.441,41.829,26.539,38.265,26.539L38.265,26.539z" fill="url(#SVGID_13_)"/>
<linearGradient gradientTransform="matrix(1 0 0 -1 -392.52 -216.7607)" gradientUnits="userSpaceOnUse" id="SVGID_14_" x1="430.7837" x2="430.7837" y1="-244.6743" y2="-254.8257">
<stop offset="0" style="stop-color:#CBCBCB"/>
<stop offset="1" style="stop-color:#4F4F4F"/>
</linearGradient>
<circle cx="38.265" cy="32.989" fill="url(#SVGID_14_)" r="5.076"/>
<linearGradient gradientTransform="matrix(1 0 0 -1 -392.52 -216.7607)" gradientUnits="userSpaceOnUse" id="SVGID_15_" x1="430.7837" x2="430.7837" y1="-245.0317" y2="-254.4663">
<stop offset="0" style="stop-color:#FFFFFF"/>
<stop offset="0.2848" style="stop-color:#FFFFFF"/>
<stop offset="0.7212" style="stop-color:#7B7B7B"/>
<stop offset="1" style="stop-color:#A7A7A7"/>
</linearGradient>
<circle cx="38.265" cy="32.988" fill="url(#SVGID_15_)" r="4.717"/>
<linearGradient gradientTransform="matrix(1 0 0 -1 -392.52 -216.7607)" gradientUnits="userSpaceOnUse" id="SVGID_16_" x1="430.7856" x2="430.7856" y1="-245.4502" y2="-254.1543">
<stop offset="0" style="stop-color:#D9D9D9"/>
<stop offset="0.8242" style="stop-color:#636363"/>
<stop offset="1" style="stop-color:#636363"/>
</linearGradient>
<path d="M42.224,31.18c0.251,0.551,0.394,1.157,0.394,1.807c0,2.407-1.95,4.354-4.353,4.354  c-2.4,0-4.35-1.952-4.35-4.354c0-2.402,1.949-4.351,4.35-4.351C40.026,28.636,41.539,29.679,42.224,31.18z" fill="url(#SVGID_16_)"/>
<linearGradient gradientTransform="matrix(1 0 0 -1 -392.52 -216.7607)" gradientUnits="userSpaceOnUse" id="SVGID_17_" x1="430.7847" x2="430.7847" y1="-248.7944" y2="-246.6669">
<stop offset="0" style="stop-color:#636363"/>
<stop offset="1" style="stop-color:#323232"/>
</linearGradient>
<polygon fill="url(#SVGID_17_)" points="37.177,31.952 38.265,29.78 39.351,31.952 "/>
<linearGradient gradientTransform="matrix(1 0 0 -1 -392.52 -216.7607)" gradientUnits="userSpaceOnUse" id="SVGID_18_" x1="409.4419" x2="409.4419" y1="-253.1108" y2="-244.7814">
<stop offset="0" style="stop-color:#636363"/>
<stop offset="0.6667" style="stop-color:#515151"/>
<stop offset="1" style="stop-color:#323232"/>
</linearGradient>
<rect fill="url(#SVGID_18_)" height="9.054" width="23.284" x="5.28" y="27.512"/>
<rect fill="#D9D9D9" height="0.643" width="23.284" x="5.28" y="36.566"/>
<polygon fill="#A8A9AA" points="26.625,32.038 26.625,33.978 24.682,33.978 24.682,32.684 24.036,32.684 24.036,33.978   22.094,33.978 22.094,32.684 21.451,32.684 21.451,33.978 19.507,33.978 19.507,32.684 18.862,32.684 18.862,33.978 16.922,33.978   16.922,32.038 16.275,32.038 16.275,33.978 14.333,33.978 14.333,32.684 13.688,32.684 13.688,33.978 11.75,33.978 11.75,32.684   11.099,32.684 11.099,33.978 9.161,33.978 9.161,32.684 8.512,32.684 8.512,33.978 7.219,33.978 7.219,32.038 6.574,32.038   6.574,34.621 7.219,34.621 8.512,34.621 9.161,34.621 11.099,34.621 11.75,34.621 13.688,34.621 14.333,34.621 16.275,34.621   16.922,34.621 18.862,34.621 19.507,34.621 21.451,34.621 22.094,34.621 24.036,34.621 24.682,34.621 26.625,34.621 27.269,34.621   27.269,33.978 27.269,32.038 "/>
<rect fill="#9D4349" height="9.054" width="1.295" x="16.941" y="27.512"/>
<linearGradient gradientTransform="matrix(1 0 0 -1 -392.52 -216.7607)" gradientUnits="userSpaceOnUse" id="SVGID_19_" x1="400.1694" x2="400.1694" y1="-261.0601" y2="-263.6479">
<stop offset="0" style="stop-color:#88444B"/>
<stop offset="1" style="stop-color:#C39072"/>
</linearGradient>
<path d="M7.649,44.327c0.716,0,1.296,0.581,1.296,1.292c0,0.714-0.58,1.296-1.296,1.296  c-0.714,0-1.294-0.582-1.294-1.296C6.355,44.908,6.935,44.327,7.649,44.327z" fill="url(#SVGID_19_)"/>
<linearGradient gradientTransform="matrix(1 0 0 -1 -392.52 -216.7607)" gradientUnits="userSpaceOnUse" id="SVGID_20_" x1="400.1675" x2="400.1675" y1="-261.499" y2="-263.2253">
<stop offset="0" style="stop-color:#000000"/>
<stop offset="1" style="stop-color:#383838"/>
</linearGradient>
<path d="M7.649,44.755c0.477,0,0.863,0.386,0.863,0.863c0,0.481-0.387,0.866-0.863,0.866  c-0.478,0-0.865-0.385-0.865-0.866C6.784,45.141,7.171,44.755,7.649,44.755z" fill="url(#SVGID_20_)"/>
<linearGradient gradientTransform="matrix(1 0 0 -1 -392.52 -216.7607)" gradientUnits="userSpaceOnUse" id="SVGID_21_" x1="403.9966" x2="403.9966" y1="-261.0601" y2="-263.6479">
<stop offset="0" style="stop-color:#88444B"/>
<stop offset="1" style="stop-color:#C39072"/>
</linearGradient>
<path d="M12.771,45.619c0,0.714-0.576,1.296-1.295,1.296c-0.712,0-1.293-0.582-1.293-1.296  c0-0.715,0.581-1.292,1.293-1.292C12.195,44.327,12.771,44.904,12.771,45.619z" fill="url(#SVGID_21_)"/>
<linearGradient gradientTransform="matrix(1 0 0 -1 -392.52 -216.7607)" gradientUnits="userSpaceOnUse" id="SVGID_22_" x1="403.9966" x2="403.9966" y1="-261.498" y2="-263.2256">
<stop offset="0" style="stop-color:#000000"/>
<stop offset="1" style="stop-color:#383838"/>
</linearGradient>
<path d="M11.479,44.755c0.475,0,0.861,0.386,0.861,0.863c0,0.481-0.387,0.864-0.861,0.864  c-0.479,0-0.865-0.383-0.865-0.864C10.614,45.141,11,44.755,11.479,44.755z" fill="url(#SVGID_22_)"/>
<linearGradient gradientTransform="matrix(1 0 0 -1 -392.52 -216.7607)" gradientUnits="userSpaceOnUse" id="SVGID_23_" x1="407.8774" x2="407.8774" y1="-261.0596" y2="-263.6436">
<stop offset="0" style="stop-color:#88444B"/>
<stop offset="1" style="stop-color:#C39072"/>
</linearGradient>
<circle cx="15.357" cy="45.619" fill="url(#SVGID_23_)" r="1.292"/>
<linearGradient gradientTransform="matrix(1 0 0 -1 -392.52 -216.7607)" gradientUnits="userSpaceOnUse" id="SVGID_24_" x1="407.8755" x2="407.8755" y1="-261.498" y2="-263.2256">
<stop offset="0" style="stop-color:#000000"/>
<stop offset="1" style="stop-color:#383838"/>
</linearGradient>
<path d="M15.357,44.755c0.478,0,0.863,0.386,0.863,0.863c0,0.481-0.386,0.864-0.863,0.864  c-0.477,0-0.864-0.383-0.864-0.864C14.493,45.141,14.88,44.755,15.357,44.755z" fill="url(#SVGID_24_)"/>
<linearGradient gradientTransform="matrix(1 0 0 -1 -392.52 -216.7607)" gradientUnits="userSpaceOnUse" id="SVGID_25_" x1="411.7573" x2="411.7573" y1="-261.0601" y2="-263.6479">
<stop offset="0" style="stop-color:#88444B"/>
<stop offset="1" style="stop-color:#C39072"/>
</linearGradient>
<path d="M19.238,44.327c0.715,0,1.294,0.581,1.294,1.292c0,0.714-0.579,1.296-1.294,1.296  c-0.713,0-1.294-0.582-1.294-1.296C17.944,44.908,18.525,44.327,19.238,44.327z" fill="url(#SVGID_25_)"/>
<linearGradient gradientTransform="matrix(1 0 0 -1 -392.52 -216.7607)" gradientUnits="userSpaceOnUse" id="SVGID_26_" x1="411.7583" x2="411.7583" y1="-261.498" y2="-263.2256">
<stop offset="0" style="stop-color:#000000"/>
<stop offset="1" style="stop-color:#383838"/>
</linearGradient>
<path d="M19.238,44.755c0.479,0,0.865,0.386,0.865,0.863c0,0.481-0.387,0.864-0.865,0.864  c-0.474,0-0.862-0.383-0.862-0.864C18.375,45.141,18.764,44.755,19.238,44.755z" fill="url(#SVGID_26_)"/>
<linearGradient gradientTransform="matrix(1 0 0 -1 -392.52 -216.7607)" gradientUnits="userSpaceOnUse" id="SVGID_27_" x1="415.6382" x2="415.6382" y1="-261.0601" y2="-263.6479">
<stop offset="0" style="stop-color:#88444B"/>
<stop offset="1" style="stop-color:#C39072"/>
</linearGradient>
<path d="M23.119,44.327c0.713,0,1.294,0.581,1.294,1.292c0,0.714-0.581,1.296-1.294,1.296  c-0.716,0-1.294-0.582-1.294-1.296C21.825,44.908,22.403,44.327,23.119,44.327z" fill="url(#SVGID_27_)"/>
<linearGradient gradientTransform="matrix(1 0 0 -1 -392.52 -216.7607)" gradientUnits="userSpaceOnUse" id="SVGID_28_" x1="415.6372" x2="415.6372" y1="-261.4976" y2="-263.2251">
<stop offset="0" style="stop-color:#000000"/>
<stop offset="1" style="stop-color:#383838"/>
</linearGradient>
<circle cx="23.119" cy="45.619" fill="url(#SVGID_28_)" r="0.864"/>
<linearGradient gradientTransform="matrix(1 0 0 -1 -392.52 -216.7607)" gradientUnits="userSpaceOnUse" id="SVGID_29_" x1="419.5181" x2="419.5181" y1="-261.0601" y2="-263.6479">
<stop offset="0" style="stop-color:#88444B"/>
<stop offset="1" style="stop-color:#C39072"/>
</linearGradient>
<path d="M27,44.327c0.716,0,1.294,0.581,1.294,1.292c0,0.714-0.578,1.296-1.294,1.296  c-0.714,0-1.295-0.582-1.295-1.296C25.705,44.908,26.286,44.327,27,44.327z" fill="url(#SVGID_29_)"/>
<linearGradient gradientTransform="matrix(1 0 0 -1 -392.52 -216.7607)" gradientUnits="userSpaceOnUse" id="SVGID_30_" x1="419.5181" x2="419.5181" y1="-261.4976" y2="-263.2251">
<stop offset="0" style="stop-color:#000000"/>
<stop offset="1" style="stop-color:#383838"/>
</linearGradient>
<circle cx="27" cy="45.619" fill="url(#SVGID_30_)" r="0.864"/>
<linearGradient gradientTransform="matrix(1 0 0 -1 -392.52 -216.7607)" gradientUnits="userSpaceOnUse" id="SVGID_31_" x1="400.1694" x2="400.1694" y1="-264.9399" y2="-267.5278">
<stop offset="0" style="stop-color:#88444B"/>
<stop offset="1" style="stop-color:#C39072"/>
</linearGradient>
<circle cx="7.649" cy="49.5" fill="url(#SVGID_31_)" r="1.294"/>
<linearGradient gradientTransform="matrix(1 0 0 -1 -392.52 -216.7607)" gradientUnits="userSpaceOnUse" id="SVGID_32_" x1="400.1675" x2="400.1675" y1="-265.3818" y2="-267.1052">
<stop offset="0" style="stop-color:#000000"/>
<stop offset="1" style="stop-color:#383838"/>
</linearGradient>
<path d="M7.649,48.638c0.477,0,0.863,0.383,0.863,0.864c0,0.476-0.387,0.862-0.863,0.862  c-0.478,0-0.865-0.387-0.865-0.862C6.784,49.021,7.171,48.638,7.649,48.638z" fill="url(#SVGID_32_)"/>
<linearGradient gradientTransform="matrix(1 0 0 -1 -392.52 -216.7607)" gradientUnits="userSpaceOnUse" id="SVGID_33_" x1="403.9966" x2="403.9966" y1="-264.9399" y2="-267.5278">
<stop offset="0" style="stop-color:#88444B"/>
<stop offset="1" style="stop-color:#C39072"/>
</linearGradient>
<path d="M12.771,49.502c0,0.712-0.576,1.292-1.295,1.292c-0.712,0-1.293-0.58-1.293-1.292  c0-0.72,0.581-1.296,1.293-1.296C12.195,48.207,12.771,48.783,12.771,49.502z" fill="url(#SVGID_33_)"/>
<linearGradient gradientTransform="matrix(1 0 0 -1 -392.52 -216.7607)" gradientUnits="userSpaceOnUse" id="SVGID_34_" x1="403.9966" x2="403.9966" y1="-265.3809" y2="-267.1074">
<stop offset="0" style="stop-color:#000000"/>
<stop offset="1" style="stop-color:#383838"/>
</linearGradient>
<path d="M11.479,48.638c0.475,0,0.861,0.383,0.861,0.864c0,0.476-0.387,0.862-0.861,0.862  c-0.479,0-0.865-0.387-0.865-0.862C10.614,49.021,11,48.638,11.479,48.638z" fill="url(#SVGID_34_)"/>
<linearGradient gradientTransform="matrix(1 0 0 -1 -392.52 -216.7607)" gradientUnits="userSpaceOnUse" id="SVGID_35_" x1="407.8774" x2="407.8774" y1="-264.9395" y2="-267.5273">
<stop offset="0" style="stop-color:#88444B"/>
<stop offset="1" style="stop-color:#C39072"/>
</linearGradient>
<circle cx="15.357" cy="49.5" fill="url(#SVGID_35_)" r="1.294"/>
<linearGradient gradientTransform="matrix(1 0 0 -1 -392.52 -216.7607)" gradientUnits="userSpaceOnUse" id="SVGID_36_" x1="407.8755" x2="407.8755" y1="-265.3809" y2="-267.1074">
<stop offset="0" style="stop-color:#000000"/>
<stop offset="1" style="stop-color:#383838"/>
</linearGradient>
<path d="M15.357,48.638c0.478,0,0.863,0.383,0.863,0.864c0,0.476-0.386,0.862-0.863,0.862  c-0.477,0-0.864-0.387-0.864-0.862C14.493,49.021,14.88,48.638,15.357,48.638z" fill="url(#SVGID_36_)"/>
<linearGradient gradientTransform="matrix(1 0 0 -1 -392.52 -216.7607)" gradientUnits="userSpaceOnUse" id="SVGID_37_" x1="411.7573" x2="411.7573" y1="-264.9399" y2="-267.5278">
<stop offset="0" style="stop-color:#88444B"/>
<stop offset="1" style="stop-color:#C39072"/>
</linearGradient>
<circle cx="19.238" cy="49.5" fill="url(#SVGID_37_)" r="1.294"/>
<linearGradient gradientTransform="matrix(1 0 0 -1 -392.52 -216.7607)" gradientUnits="userSpaceOnUse" id="SVGID_38_" x1="411.7583" x2="411.7583" y1="-265.3809" y2="-267.1074">
<stop offset="0" style="stop-color:#000000"/>
<stop offset="1" style="stop-color:#383838"/>
</linearGradient>
<path d="M19.238,48.638c0.479,0,0.865,0.383,0.865,0.864c0,0.476-0.387,0.862-0.865,0.862  c-0.474,0-0.862-0.387-0.862-0.862C18.375,49.021,18.764,48.638,19.238,48.638z" fill="url(#SVGID_38_)"/>
<linearGradient gradientTransform="matrix(1 0 0 -1 -392.52 -216.7607)" gradientUnits="userSpaceOnUse" id="SVGID_39_" x1="415.6382" x2="415.6382" y1="-264.9399" y2="-267.5278">
<stop offset="0" style="stop-color:#88444B"/>
<stop offset="1" style="stop-color:#C39072"/>
</linearGradient>
<circle cx="23.119" cy="49.5" fill="url(#SVGID_39_)" r="1.294"/>
<linearGradient gradientTransform="matrix(1 0 0 -1 -392.52 -216.7607)" gradientUnits="userSpaceOnUse" id="SVGID_40_" x1="415.6372" x2="415.6372" y1="-265.3804" y2="-267.1069">
<stop offset="0" style="stop-color:#000000"/>
<stop offset="1" style="stop-color:#383838"/>
</linearGradient>
<path d="M23.119,48.638c0.477,0,0.861,0.383,0.861,0.864c0,0.476-0.385,0.862-0.861,0.862  s-0.862-0.387-0.862-0.862C22.256,49.021,22.642,48.638,23.119,48.638z" fill="url(#SVGID_40_)"/>
<linearGradient gradientTransform="matrix(1 0 0 -1 -392.52 -216.7607)" gradientUnits="userSpaceOnUse" id="SVGID_41_" x1="419.5181" x2="419.5181" y1="-264.9399" y2="-267.5278">
<stop offset="0" style="stop-color:#88444B"/>
<stop offset="1" style="stop-color:#C39072"/>
</linearGradient>
<circle cx="27" cy="49.5" fill="url(#SVGID_41_)" r="1.294"/>
<linearGradient gradientTransform="matrix(1 0 0 -1 -392.52 -216.7607)" gradientUnits="userSpaceOnUse" id="SVGID_42_" x1="419.5181" x2="419.5181" y1="-265.3804" y2="-267.1069">
<stop offset="0" style="stop-color:#000000"/>
<stop offset="1" style="stop-color:#383838"/>
</linearGradient>
<path d="M27,48.638c0.477,0,0.861,0.383,0.861,0.864c0,0.476-0.385,0.862-0.861,0.862  s-0.862-0.387-0.862-0.862C26.137,49.021,26.523,48.638,27,48.638z" fill="url(#SVGID_42_)"/>
<linearGradient gradientTransform="matrix(1 0 0 -1 -392.52 -216.7607)" gradientUnits="userSpaceOnUse" id="SVGID_43_" x1="423.3481" x2="423.3481" y1="-261.0601" y2="-263.6479">
<stop offset="0" style="stop-color:#88444B"/>
<stop offset="1" style="stop-color:#C39072"/>
</linearGradient>
<path d="M30.827,44.327c0.715,0,1.295,0.581,1.295,1.292c0,0.714-0.58,1.296-1.295,1.296  c-0.716,0-1.292-0.582-1.292-1.296C29.535,44.908,30.111,44.327,30.827,44.327z" fill="url(#SVGID_43_)"/>
<linearGradient gradientTransform="matrix(1 0 0 -1 -392.52 -216.7607)" gradientUnits="userSpaceOnUse" id="SVGID_44_" x1="423.3462" x2="423.3462" y1="-261.4976" y2="-263.2251">
<stop offset="0" style="stop-color:#000000"/>
<stop offset="1" style="stop-color:#383838"/>
</linearGradient>
<circle cx="30.827" cy="45.619" fill="url(#SVGID_44_)" r="0.864"/>
<linearGradient gradientTransform="matrix(1 0 0 -1 -392.52 -216.7607)" gradientUnits="userSpaceOnUse" id="SVGID_45_" x1="427.2271" x2="427.2271" y1="-261.0601" y2="-263.6479">
<stop offset="0" style="stop-color:#88444B"/>
<stop offset="1" style="stop-color:#C39072"/>
</linearGradient>
<path d="M34.708,44.327c0.717,0,1.295,0.581,1.295,1.292c0,0.714-0.578,1.296-1.295,1.296  c-0.714,0-1.295-0.582-1.295-1.296C33.413,44.908,33.994,44.327,34.708,44.327z" fill="url(#SVGID_45_)"/>
<linearGradient gradientTransform="matrix(1 0 0 -1 -392.52 -216.7607)" gradientUnits="userSpaceOnUse" id="SVGID_46_" x1="427.228" x2="427.228" y1="-261.4976" y2="-263.2251">
<stop offset="0" style="stop-color:#000000"/>
<stop offset="1" style="stop-color:#383838"/>
</linearGradient>
<circle cx="34.708" cy="45.619" fill="url(#SVGID_46_)" r="0.864"/>
<linearGradient gradientTransform="matrix(1 0 0 -1 -392.52 -216.7607)" gradientUnits="userSpaceOnUse" id="SVGID_47_" x1="431.1079" x2="431.1079" y1="-261.0601" y2="-263.6479">
<stop offset="0" style="stop-color:#88444B"/>
<stop offset="1" style="stop-color:#C39072"/>
</linearGradient>
<path d="M38.588,44.327c0.716,0,1.293,0.581,1.293,1.292c0,0.714-0.577,1.296-1.293,1.296  c-0.714,0-1.293-0.582-1.293-1.296C37.295,44.908,37.875,44.327,38.588,44.327z" fill="url(#SVGID_47_)"/>
<linearGradient gradientTransform="matrix(1 0 0 -1 -392.52 -216.7607)" gradientUnits="userSpaceOnUse" id="SVGID_48_" x1="431.1079" x2="431.1079" y1="-261.4976" y2="-263.2251">
<stop offset="0" style="stop-color:#000000"/>
<stop offset="1" style="stop-color:#383838"/>
</linearGradient>
<path d="M38.588,44.755c0.477,0,0.863,0.386,0.863,0.863c0,0.476-0.387,0.864-0.863,0.864  c-0.474,0-0.862-0.389-0.862-0.864C37.726,45.141,38.115,44.755,38.588,44.755z" fill="url(#SVGID_48_)"/>
<linearGradient gradientTransform="matrix(1 0 0 -1 -392.52 -216.7607)" gradientUnits="userSpaceOnUse" id="SVGID_49_" x1="434.9888" x2="434.9888" y1="-261.0601" y2="-263.6479">
<stop offset="0" style="stop-color:#88444B"/>
<stop offset="1" style="stop-color:#C39072"/>
</linearGradient>
<path d="M43.762,45.619c0,0.714-0.575,1.296-1.291,1.296s-1.295-0.582-1.295-1.296  c0-0.715,0.579-1.292,1.295-1.292S43.762,44.904,43.762,45.619z" fill="url(#SVGID_49_)"/>
<linearGradient gradientTransform="matrix(1 0 0 -1 -392.52 -216.7607)" gradientUnits="userSpaceOnUse" id="SVGID_50_" x1="434.9888" x2="434.9888" y1="-261.4976" y2="-263.2251">
<stop offset="0" style="stop-color:#000000"/>
<stop offset="1" style="stop-color:#383838"/>
</linearGradient>
<path d="M43.333,45.619c0,0.476-0.389,0.864-0.861,0.864c-0.476,0-0.866-0.389-0.866-0.864  c0-0.478,0.391-0.863,0.866-0.863C42.944,44.755,43.333,45.141,43.333,45.619z" fill="url(#SVGID_50_)"/>
<linearGradient gradientTransform="matrix(1 0 0 -1 -392.52 -216.7607)" gradientUnits="userSpaceOnUse" id="SVGID_51_" x1="423.3481" x2="423.3481" y1="-264.9399" y2="-267.5278">
<stop offset="0" style="stop-color:#88444B"/>
<stop offset="1" style="stop-color:#C39072"/>
</linearGradient>
<circle cx="30.827" cy="49.5" fill="url(#SVGID_51_)" r="1.294"/>
<linearGradient gradientTransform="matrix(1 0 0 -1 -392.52 -216.7607)" gradientUnits="userSpaceOnUse" id="SVGID_52_" x1="423.3462" x2="423.3462" y1="-265.3804" y2="-267.1069">
<stop offset="0" style="stop-color:#000000"/>
<stop offset="1" style="stop-color:#383838"/>
</linearGradient>
<path d="M30.827,48.638c0.477,0,0.863,0.383,0.863,0.864c0,0.476-0.387,0.862-0.863,0.862  c-0.476,0-0.862-0.387-0.862-0.862C29.964,49.021,30.351,48.638,30.827,48.638z" fill="url(#SVGID_52_)"/>
<linearGradient gradientTransform="matrix(1 0 0 -1 -392.52 -216.7607)" gradientUnits="userSpaceOnUse" id="SVGID_53_" x1="427.2271" x2="427.2271" y1="-264.9399" y2="-267.5278">
<stop offset="0" style="stop-color:#88444B"/>
<stop offset="1" style="stop-color:#C39072"/>
</linearGradient>
<circle cx="34.708" cy="49.5" fill="url(#SVGID_53_)" r="1.294"/>
<linearGradient gradientTransform="matrix(1 0 0 -1 -392.52 -216.7607)" gradientUnits="userSpaceOnUse" id="SVGID_54_" x1="427.228" x2="427.228" y1="-265.3804" y2="-267.1069">
<stop offset="0" style="stop-color:#000000"/>
<stop offset="1" style="stop-color:#383838"/>
</linearGradient>
<path d="M34.708,48.638c0.477,0,0.864,0.383,0.864,0.864c0,0.476-0.388,0.862-0.864,0.862  c-0.476,0-0.862-0.387-0.862-0.862C33.845,49.021,34.232,48.638,34.708,48.638z" fill="url(#SVGID_54_)"/>
<linearGradient gradientTransform="matrix(1 0 0 -1 -392.52 -216.7607)" gradientUnits="userSpaceOnUse" id="SVGID_55_" x1="431.1079" x2="431.1079" y1="-264.9399" y2="-267.5278">
<stop offset="0" style="stop-color:#88444B"/>
<stop offset="1" style="stop-color:#C39072"/>
</linearGradient>
<circle cx="38.588" cy="49.5" fill="url(#SVGID_55_)" r="1.294"/>
<linearGradient gradientTransform="matrix(1 0 0 -1 -392.52 -216.7607)" gradientUnits="userSpaceOnUse" id="SVGID_56_" x1="431.1079" x2="431.1079" y1="-265.3804" y2="-267.1069">
<stop offset="0" style="stop-color:#000000"/>
<stop offset="1" style="stop-color:#383838"/>
</linearGradient>
<path d="M38.588,48.638c0.477,0,0.863,0.383,0.863,0.864c0,0.476-0.387,0.862-0.863,0.862  c-0.474,0-0.862-0.387-0.862-0.862C37.726,49.021,38.115,48.638,38.588,48.638z" fill="url(#SVGID_56_)"/>
<linearGradient gradientTransform="matrix(1 0 0 -1 -392.52 -216.7607)" gradientUnits="userSpaceOnUse" id="SVGID_57_" x1="434.9888" x2="434.9888" y1="-264.9399" y2="-267.5278">
<stop offset="0" style="stop-color:#88444B"/>
<stop offset="1" style="stop-color:#C39072"/>
</linearGradient>
<path d="M43.762,49.502c0,0.712-0.575,1.292-1.291,1.292s-1.295-0.58-1.295-1.292  c0-0.72,0.579-1.296,1.295-1.296S43.762,48.783,43.762,49.502z" fill="url(#SVGID_57_)"/>
<linearGradient gradientTransform="matrix(1 0 0 -1 -392.52 -216.7607)" gradientUnits="userSpaceOnUse" id="SVGID_58_" x1="434.9888" x2="434.9888" y1="-265.3804" y2="-267.1069">
<stop offset="0" style="stop-color:#000000"/>
<stop offset="1" style="stop-color:#383838"/>
</linearGradient>
<path d="M43.333,49.502c0,0.476-0.389,0.862-0.861,0.862c-0.476,0-0.866-0.387-0.866-0.862  c0-0.481,0.391-0.864,0.866-0.864C42.944,48.638,43.333,49.021,43.333,49.502z" fill="url(#SVGID_58_)"/>
<linearGradient gradientTransform="matrix(1 0 0 -1 -392.52 -216.7607)" gradientUnits="userSpaceOnUse" id="SVGID_59_" x1="434.02" x2="434.02" y1="-237.2271" y2="-232.8196">
<stop offset="0" style="stop-color:#CBCBCB"/>
<stop offset="0.1576" style="stop-color:#808080"/>
<stop offset="0.6545" style="stop-color:#E5E5E5"/>
<stop offset="1" style="stop-color:#4F4F4F"/>
</linearGradient>
<rect fill="url(#SVGID_59_)" height="4.526" width="5.822" x="38.588" y="16.192"/>
<linearGradient gradientTransform="matrix(1 0 0 -1 -392.52 -216.7607)" gradientUnits="userSpaceOnUse" id="SVGID_60_" x1="423.6704" x2="423.6704" y1="-236.0405" y2="-233.5215">
<stop offset="0" style="stop-color:#CBCBCB"/>
<stop offset="0.1576" style="stop-color:#808080"/>
<stop offset="0.6545" style="stop-color:#E5E5E5"/>
<stop offset="1" style="stop-color:#4F4F4F"/>
</linearGradient>
<rect fill="url(#SVGID_60_)" height="2.587" width="14.876" x="23.712" y="16.837"/>
<linearGradient gradientTransform="matrix(1 0 0 -1 -392.52 -216.7607)" gradientUnits="userSpaceOnUse" id="SVGID_61_" x1="408.4722" x2="408.4722" y1="-235.4663" y2="-234.2082">
<stop offset="0" style="stop-color:#CBCBCB"/>
<stop offset="0.1576" style="stop-color:#808080"/>
<stop offset="0.6545" style="stop-color:#E5E5E5"/>
<stop offset="1" style="stop-color:#4F4F4F"/>
</linearGradient>
<rect fill="url(#SVGID_61_)" height="1.292" width="15.521" x="8.191" y="17.486"/>
<linearGradient gradientTransform="matrix(1 0 0 -1 -392.52 -216.7607)" gradientUnits="userSpaceOnUse" id="SVGID_62_" x1="399.7407" x2="399.7407" y1="-236.0405" y2="-233.5215">
<stop offset="0" style="stop-color:#CBCBCB"/>
<stop offset="0.1576" style="stop-color:#808080"/>
<stop offset="0.6545" style="stop-color:#E5E5E5"/>
<stop offset="1" style="stop-color:#4F4F4F"/>
</linearGradient>
<rect fill="url(#SVGID_62_)" height="2.587" width="1.941" x="6.25" y="16.837"/>
<path d="M41.5,20.395c-1.071,0-1.94-0.872-1.94-1.938c0-1.072,0.869-1.942,1.94-1.942  c1.067,0,1.939,0.87,1.939,1.942C43.44,19.523,42.568,20.395,41.5,20.395L41.5,20.395z" fill-opacity="0.2" stroke-opacity="0.2"/>
<circle cx="41.5" cy="18.456" fill-opacity="0.2" r="1.617" stroke-opacity="0.2"/>
<linearGradient gradientTransform="matrix(1 0 0 -1 -392.52 -216.7607)" gradientUnits="userSpaceOnUse" id="SVGID_63_" x1="434.0171" x2="434.0171" y1="-234.2729" y2="-236.1582">
<stop offset="0" style="stop-color:#E5E5E5"/>
<stop offset="0.7576" style="stop-color:#A7A7A7"/>
<stop offset="1" style="stop-color:#CBCBCB"/>
</linearGradient>
<circle cx="41.499" cy="18.456" fill="url(#SVGID_63_)" r="1.293"/>
<linearGradient gradientTransform="matrix(1 0 0 -1 -392.52 -216.7607)" gradientUnits="userSpaceOnUse" id="SVGID_64_" x1="434.0171" x2="434.0171" y1="-233.9639" y2="-236.4695">
<stop offset="0" style="stop-color:#FFFFFF"/>
<stop offset="0.2848" style="stop-color:#FFFFFF"/>
<stop offset="0.7212" style="stop-color:#7B7B7B"/>
<stop offset="1" style="stop-color:#A7A7A7"/>
</linearGradient>
<path d="M41.5,17.486c0.531,0,0.971,0.432,0.971,0.971c0,0.534-0.439,0.968-0.971,0.968  c-0.538,0-0.973-0.434-0.973-0.968C40.528,17.917,40.962,17.486,41.5,17.486 M41.5,17.163c-0.716,0-1.297,0.576-1.297,1.294  c0,0.713,0.581,1.293,1.297,1.293c0.712,0,1.291-0.58,1.291-1.293C42.792,17.739,42.212,17.163,41.5,17.163L41.5,17.163z" fill="url(#SVGID_64_)"/>
<rect fill="none" height="60" width="60"/>
</g>
</svg>
