<?xml version="1.0" encoding="utf-8"?>
<!-- Generator: Adobe Illustrator 14.0.0, SVG Export Plug-In  -->
<!DOCTYPE svg PUBLIC "-//W3C//DTD SVG 1.1//EN" "http://www.w3.org/Graphics/SVG/1.1/DTD/svg11.dtd" [
	<!ENTITY ns_flows "http://ns.adobe.com/Flows/1.0/">
]>
<svg version="1.1"
	 xmlns="http://www.w3.org/2000/svg" xmlns:xlink="http://www.w3.org/1999/xlink" xmlns:a="http://ns.adobe.com/AdobeSVGViewerExtensions/3.0/"
	 x="0px" y="0px" width="30px" height="30px" viewBox="0 0 30 30" enable-background="new 0 0 30 30" xml:space="preserve">
<defs>
</defs>
<g opacity="0.5">
	<rect fill="none" width="30" height="30"/>
</g>
<path d="M15,2C8.158,2,2.563,7.289,2.051,14h3C5.554,8.954,9.824,5,15,5c5.514,0,10,4.486,10,10c0,5.515-4.486,10-10,10
	c-3.523,0-6.621-1.836-8.402-4.598L10,17H2v8l2.445-2.445C6.8,25.848,10.642,28,15,28c7.18,0,13-5.82,13-13S22.18,2,15,2z"/>
</svg>
