<?xml version="1.0" ?>
<!DOCTYPE svg  PUBLIC '-//W3C//DTD SVG 1.1 Tiny//EN'  'http://www.w3.org/Graphics/SVG/1.1/DTD/svg11-tiny.dtd'>
<svg baseProfile="tiny" height="30px" version="1.1" viewBox="0 0 30 30" width="30px" x="0px" xmlns="http://www.w3.org/2000/svg" xmlns:xlink="http://www.w3.org/1999/xlink" y="0px">

<g fill-opacity="0.5" stroke-opacity="0.5">

<rect fill="none" height="30" width="30"/>

</g>

<polygon points="4,10,4,5,11,5,11,2,1,2,1,10"/>

<polygon points="4,20,1,20,1,28,11,28,11,25,4,25"/>

<polygon points="26,10,29,10,29,2,19,2,19,5,26,5"/>

<polygon points="26,20,26,25,19,25,19,28,29,28,29,20"/>

<path d="M8.006,22.35l-0.006,1.2h14l-0.006-1.205s-4.371-2.604-4.81-4.053c-0.019-0.061-0.04-0.121-0.044-0.178v-0.738c0.001-0.023,0.001-0.059,0.001-0.072,0.819-0.553,1.394-1.201,1.824-2.049,0.8-1.568,0.372-5.262,0.372-5.262,0-1.635-2.173-3.549-3.827-3.549h-1.049c-1.654,0-3.831,1.914-3.831,3.549,0,0-0.38,3.676,0.368,5.256,0.411,0.865,1.002,1.504,1.841,2.055,0.003,0.113,0.009,0.699,0.002,0.811-0.005,0.076-0.032,0.156-0.061,0.238h0.018c-0.53,1.46-4.784,4-4.784,4z"/>

</svg>