<?xml version="1.0" encoding="utf-8"?>
<!-- Generator: Adobe Illustrator 14.0.0, SVG Export Plug-In . SVG Version: 6.00 Build 43363)  -->
<!DOCTYPE svg PUBLIC "-//W3C//DTD SVG 1.1//EN" "http://www.w3.org/Graphics/SVG/1.1/DTD/svg11.dtd">
<svg version="1.1" id="Layer_1" xmlns="http://www.w3.org/2000/svg" xmlns:xlink="http://www.w3.org/1999/xlink" x="0px" y="0px"
	 width="31px" height="31px" viewBox="0 0 31 31" enable-background="new 0 0 31 31" xml:space="preserve">
<path d="M15.87,7.11c1.071,1.078,2.212,2.219,2.839,2.845c-0.524,0.52-1.54,1.536-2.521,2.519l1.735,1.73
	c1.587-1.591,4.252-4.249,4.252-4.249L13.348,1.12v8.52l2.522,2.516V7.11z"/>
<path d="M15.862,22.891v-4.349l-2.874-2.867c-1.762,1.756-5.163,5.162-5.163,5.162l1.732,1.731l3.79-3.781V28.88l6.427-6.434
	l-1.735-1.731C17.417,21.337,16.628,22.127,15.862,22.891z"/>
<rect x="-2.414" y="14.566" transform="matrix(-0.7079 -0.7063 0.7063 -0.7079 15.5243 37.4201)" width="35.827" height="1.867"/>
</svg>
