<?xml version="1.0" encoding="UTF-8"?>
<!DOCTYPE svg PUBLIC "-//W3C//DTD SVG 1.1 Tiny//EN" "http://www.w3.org/Graphics/SVG/1.1/DTD/svg11-tiny.dtd">
<svg baseProfile="tiny" height="30" viewBox="0 0 30 30" width="30" xmlns="http://www.w3.org/2000/svg" xmlns:xlink="http://www.w3.org/1999/xlink">
<rect fill="none" height="30" width="30"/>
<rect fill="none" height="30" width="30"/>
<path d="M2.251,5.625v18.75H27.75V5.625H2.251z M25.5,22.125H4.501V7.875H25.5V22.125z"/>
<path d="M7.495,18.805c-0.67-0.171-1.175-0.57-1.517-1.197s-0.513-1.537-0.513-2.731c0-1.298,0.233-2.256,0.701-2.874 c0.466-0.617,1.161-0.925,2.083-0.925c0.926,0,1.624,0.309,2.092,0.928c0.468,0.619,0.703,1.576,0.703,2.871 c0,1.197-0.18,2.124-0.541,2.785c-0.361,0.659-0.902,1.05-1.623,1.173c0.062,0.287,0.159,0.504,0.292,0.652 c0.133,0.146,0.41,0.219,0.83,0.219v0.811H9.664c-0.632,0-1.112-0.127-1.44-0.381S7.652,19.438,7.495,18.805z M8.249,18.004 c0.427,0,0.753-0.223,0.977-0.668c0.224-0.447,0.336-1.266,0.336-2.459c0-1.079-0.111-1.835-0.333-2.268 C9.006,12.176,8.68,11.96,8.249,11.96c-0.427,0-0.753,0.209-0.977,0.628c-0.224,0.417-0.336,1.181-0.336,2.288 c0,1.043,0.109,1.826,0.329,2.347C7.483,17.744,7.811,18.004,8.249,18.004z"/>
<path d="M14.949,18.887c-0.974,0-1.706-0.309-2.197-0.93c-0.49-0.62-0.735-1.641-0.735-3.059c0-1.271,0.247-2.225,0.741-2.863 c0.494-0.638,1.234-0.956,2.221-0.956c0.404,0,0.809,0.055,1.216,0.164v0.897c-0.404-0.119-0.765-0.179-1.082-0.179 c-0.544,0-0.95,0.242-1.22,0.725c-0.27,0.484-0.405,1.208-0.405,2.171c0,1.122,0.14,1.926,0.418,2.416 c0.277,0.487,0.695,0.732,1.253,0.732c0.324,0,0.669-0.051,1.036-0.154v0.872C15.788,18.832,15.374,18.887,14.949,18.887z"/>
<path d="M16.811,18.805v-0.883h0.63v-5.88h-0.63V11.16h2.676v0.882h-0.631v5.88h0.631v0.883H16.811z"/>
<path d="M20.609,18.805V11.16h3.927v0.882H22.02v2.414h1.963v0.892H22.02v3.455h-1.41V18.805z"/>
</svg>
