<?xml version="1.0" encoding="UTF-8" standalone="no"?>
<!DOCTYPE svg PUBLIC "-//W3C//DTD SVG 1.1 Tiny//EN" "http://www.w3.org/Graphics/SVG/1.1/DTD/svg11-tiny.dtd">
<svg xmlns="http://www.w3.org/2000/svg" xmlns:xlink="http://www.w3.org/1999/xlink" baseProfile="tiny" height="30px" version="1.1" viewBox="0 0 30 30" width="30px" x="0px" y="0px">
<g fill-opacity="0.5" stroke-opacity="0.5">
<rect fill="none" height="30" width="30"/>
</g>
<path d="M29,7v-4h-28v4h1v16h-1v4h28v-4h-1v-16h1zm-3,16h-22v-16h22v16z"/>
<polygon points="5,22,25,22,25,21,24,21,24,10,21,10,21,21,19,21,19,13,16,13,16,21,14,21,14,17,11,17,11,21,9,21,9,15,6,15,6,21,5,21"/>
</svg>
