<?xml version="1.0" encoding="UTF-8"?>
<!DOCTYPE svg PUBLIC "-//W3C//DTD SVG 1.1 Tiny//EN" "http://www.w3.org/Graphics/SVG/1.1/DTD/svg11-tiny.dtd">
<svg baseProfile="tiny" height="30" viewBox="0 0 30 30" width="30" xmlns="http://www.w3.org/2000/svg" xmlns:xlink="http://www.w3.org/1999/xlink">
<rect fill="none" height="30" width="30"/>
<path d="M16.625,4.707C16.625,2.538,13.383,0,11.189,0H9.799C7.605,0,4.375,2.538,4.375,4.707c0,0-0.332,5.294,0.658,7.392 c0.544,1.145,1.503,2.076,2.615,2.806c0.002,0.148,0.014,0.419,0.004,0.566c-0.007,0.102-0.043,0.209-0.08,0.317h5.857 c-0.037-0.108-0.072-0.216-0.079-0.317c-0.011-0.157,0-0.437,0.003-0.596c1.086-0.732,2.027-1.654,2.6-2.776 C17.014,10.019,16.625,4.707,16.625,4.707z"/>
<path d="M13.903,16.591L10.5,24.286l-3.401-7.694C5.402,18.725,0.295,21.482,0,21.87V28h15.303C14.482,26.693,14,25.153,14,23.5 c0-1.947,0.665-3.738,1.771-5.174C15.016,17.74,14.344,17.145,13.903,16.591z"/>
<path d="M22.5,17c-3.59,0-6.5,2.91-6.5,6.5s2.91,6.5,6.5,6.5s6.5-2.91,6.5-6.5S26.09,17,22.5,17z M27,25h-4h-2v-2v-4h2v4h4V25z"/>
</svg>
