<?xml version="1.0" encoding="UTF-8"?>
<!DOCTYPE svg PUBLIC "-//W3C//DTD SVG 1.1 Tiny//EN" "http://www.w3.org/Graphics/SVG/1.1/DTD/svg11-tiny.dtd">
<svg baseProfile="tiny" height="30px" style="enable-background:new 0 0 30 30;" version="1.1" viewBox="0 0 30 30" width="30px" x="0px" xmlns="http://www.w3.org/2000/svg" xmlns:xlink="http://www.w3.org/1999/xlink" y="0px">
<rect fill="none" height="29.03" width="29.03" x="0.846" y="0.016"/>
<polygon points="5.954,6.974,7.889,6.974,8.003,10.69,9.785,6.974,11.33,6.974,11.33,10.69,12.99,6.974,15.04,6.974,11.95,12.78,10.13,12.78,10.09,9.168,8.47,12.78,6.614,12.78"/>
<path d="M18.07,6.174c0-0.616-0.674-1.113-1.508-1.113-0.832,0-1.508,0.498-1.508,1.113,0,0.33,0.194,0.625,0.503,0.829v5.772h2.009v-5.777c0.32-0.204,0.51-0.499,0.51-0.829z"/>
<path d="M12.66,6.763s1.064-2.185,3.905-2.185,3.888,2.146,3.888,2.146-0.522-2.784-3.944-2.784c-3.42-0.001-3.85,2.823-3.85,2.823z"/>
<path d="M11.5,6.144s1.238-2.978,5.065-2.978c3.826,0,4.814,2.938,4.814,2.938s-0.89-3.712-4.871-3.712c-3.97,0-5,3.752-5,3.752z"/>
<polygon points="24.77,20.12,24.77,22.48,20.51,22.48,20.51,22.48,14.73,22.48,16.69,20.12"/>
<polygon points="5.954,20.12,11.08,20.12,9.094,22.48,5.954,22.48"/>
<polygon points="24.77,15.27,24.77,17.63,18.78,17.63,20.75,15.27"/>
<polygon points="5.954,17.62,5.954,15.27,15.17,15.27,13.19,17.63"/>
<polygon points="21.58,12.64,21.65,12.7,21.6,12.75,10.89,25.52,9.926,26.67,8.122,25.15,9.495,23.51,19.84,11.18"/>
<rect fill="none" height="29.03" width="29.03" x="0.846" y="0.016"/>
</svg>
