<?xml version="1.0" encoding="UTF-8"?>
<!DOCTYPE svg PUBLIC "-//W3C//DTD SVG 1.1 Tiny//EN" "http://www.w3.org/Graphics/SVG/1.1/DTD/svg11-tiny.dtd">
<svg baseProfile="tiny" height="30" viewBox="0 0 30 30" width="30" xmlns="http://www.w3.org/2000/svg" xmlns:xlink="http://www.w3.org/1999/xlink">
<g>
<rect fill-opacity="0.6" height="30" stroke-opacity="0.6" width="30"/>
<rect fill="url(#SVGID_1_)" height="28" width="28" x="1" y="1"/>
<polygon fill-opacity="0.2" points="24,13.879 17.99,13.879 17.99,8 13.99,8 13.99,13.879 8,13.879 8,17.879 13.99,17.879 13.99,24   17.99,24 17.99,17.879 24,17.879 " stroke-opacity="0.2"/>
<rect fill="#FFFFFF" fill-opacity="0.4" height="1" stroke-opacity="0.4" width="28" x="1" y="1"/>
<rect fill-opacity="0.2" height="1" stroke-opacity="0.2" width="28" x="1" y="28"/>
<polygon fill="#FFFFFF" points="23,12.879 16.99,12.879 16.99,7 12.99,7 12.99,12.879 7,12.879 7,16.879 12.99,16.879 12.99,23   16.99,23 16.99,16.879 23,16.879 "/>
<defs>
<linearGradient gradientUnits="userSpaceOnUse" id="SVGID_1_" x1="14.9995" x2="14.9995" y1="1.1748" y2="29.1753">
<stop offset="0" style="stop-color:#4EDEFF"/>
<stop offset="1" style="stop-color:#048CC6"/>
</linearGradient>
</defs>
</g>
</svg>
