<?xml version="1.0" encoding="UTF-8"?>
<!DOCTYPE svg PUBLIC "-//W3C//DTD SVG 1.1 Tiny//EN" "http://www.w3.org/Graphics/SVG/1.1/DTD/svg11-tiny.dtd">
<svg baseProfile="tiny" height="30" viewBox="0 0 30 30" width="30" xmlns="http://www.w3.org/2000/svg" xmlns:xlink="http://www.w3.org/1999/xlink">
<g>
<polygon fill-opacity="0.6" points="21,3 21,1 9,1 9,3 4,3 4,29 19.414,29 26,22.414 26,3 " stroke-opacity="0.6"/>
<linearGradient gradientUnits="userSpaceOnUse" id="SVGID_1_" x1="14.9995" x2="14.9995" y1="2.1206" y2="28.8787">
<stop offset="0" style="stop-color:#FFFFFF"/>
<stop offset="1" style="stop-color:#B1B1B1"/>
</linearGradient>
<polygon fill="url(#SVGID_1_)" points="25,22 25,4 5,4 5,28 19,28 "/>
<path d="M10.5,10v2h-2v-2H10.5 M11.5,9h-4v4h4V9L11.5,9z" fill-opacity="0.5" stroke-opacity="0.5"/>
<rect fill-opacity="0.5" height="1.5" stroke-opacity="0.5" width="9" x="13" y="10.25"/>
<path d="M10.5,16v2h-2v-2H10.5 M11.5,15h-4v4h4V15L11.5,15z" fill-opacity="0.5" stroke-opacity="0.5"/>
<rect fill-opacity="0.5" height="1.5" stroke-opacity="0.5" width="9" x="13" y="16.25"/>
<linearGradient gradientUnits="userSpaceOnUse" id="SVGID_2_" x1="14.9995" x2="14.9995" y1="1.6084" y2="7.4429">
<stop offset="0" style="stop-color:#D07100"/>
<stop offset="1" style="stop-color:#A23600"/>
</linearGradient>
<rect fill="url(#SVGID_2_)" height="5" width="10" x="10" y="2"/>
<rect fill="#FFFFFF" fill-opacity="0.3" height="1" stroke-opacity="0.3" width="10" x="10" y="2"/>
<polygon fill="#FFFFFF" points="19,28 25,22 19,22 "/>
<rect fill="none" height="30" width="30"/>
</g>
<g transform="matrix(0.5 0 0 0.5 15 15)">
<rect fill="none" height="30" width="30"/>
<polygon fill-opacity="0.6" points="0,15.346 5.688,9.658 11.586,15.558 24.311,2.83 30,8.518 11.516,27 "/>
<linearGradient gradientUnits="userSpaceOnUse" id="SVGID_1" x1="15" x2="15" y1="3.75" y2="26.94">
<stop offset="0" stop-color="#A0F800"/>
<stop offset="1" stop-color="#319E00"/>
</linearGradient>
<polygon fill="url(#SVGID_1)" points="28.032,8.518 24.311,4.797 11.586,17.523 5.688,11.625 1.966,15.346 11.579,24.955 11.586,24.943 11.595,24.955 "/>
<polygon fill="#FFFFFF" fill-opacity="0.4" points="5.688,13.016 11.586,18.914 24.311,6.188 27.337,9.213 28.032,8.518 24.311,4.797 11.586,17.523 5.688,11.625 1.966,15.346 2.662,16.041 "/>
</g>
</svg>
