<?xml version="1.0" encoding="UTF-8"?>
<!DOCTYPE svg PUBLIC "-//W3C//DTD SVG 1.1 Tiny//EN" "http://www.w3.org/Graphics/SVG/1.1/DTD/svg11-tiny.dtd">
<svg baseProfile="tiny" height="30px" version="1.1" viewBox="0 0 30 30" width="30px" x="0px" xmlns="http://www.w3.org/2000/svg" xmlns:xlink="http://www.w3.org/1999/xlink" y="0px">
<g fill-opacity="0.5" stroke-opacity="0.5">
<rect fill="none" height="30" width="30"/>
</g>
<path d="M15,25v-1.232c-5.504-0.278-8.264-3.418-8.264-9.434c0-2.825,0.818-5.033,2.454-6.624s3.762-2.386,6.378-2.386  c2.479,0,4.391,0.754,5.735,2.263s2.017,3.648,2.017,6.419c0,0.165-0.014,0.313-0.019,0.471l2.437,1.827  c0.158-0.74,0.262-1.54,0.262-2.448c0-3.427-0.909-6.093-2.728-7.998S18.863,3,15.5,3c-3.372,0-6.157,1.019-8.354,3.056  s-3.295,4.842-3.295,8.415c0,3.746,1.068,6.629,3.206,8.647c2.072,1.957,4.843,2.957,8.298,3.017C15.133,25.813,15,25.422,15,25z"/>
<path d="M11.275,10.232c-1.321,1.386-1.982,3.295-1.982,5.729c0,1.567,0.374,2.805,1.121,3.712s1.668,1.36,2.762,1.36  c0.696,0,1.301-0.146,1.824-0.423V19c0-0.205,0.04-0.398,0.097-0.584c-0.274,0.314-0.593,0.484-0.964,0.484  c-0.61,0-1.03-0.246-1.258-0.738s-0.342-1.271-0.342-2.338c0-1.695,0.333-3.04,0.998-4.033s1.472-1.49,2.42-1.49h0.848l-0.506,4.006  c-0.195,1.513-0.44,2.6-0.729,3.307C15.927,17.236,16.435,17,17,17h2.416c-0.013-0.217-0.02-0.451-0.02-0.711  c0-1.668,0.319-4.38,0.957-8.135h-3.787C14.36,8.154,12.597,8.847,11.275,10.232z"/>
<polygon points="30,22 22,16 22,19 17,19 17,25 22,25 22,28 "/>
</svg>
