<?xml version="1.0" encoding="UTF-8"?>
<!DOCTYPE svg PUBLIC "-//W3C//DTD SVG 1.1 Tiny//EN" "http://www.w3.org/Graphics/SVG/1.1/DTD/svg11-tiny.dtd">
<svg baseProfile="tiny" height="30px" version="1.1" viewBox="0 0 30 30" width="30px" x="0px" xmlns="http://www.w3.org/2000/svg" xmlns:xlink="http://www.w3.org/1999/xlink" y="0px">
<rect fill="none" height="30" width="30"/>
<path d="M19,4.5C19,5.328,18.328,6,17.5,6h-10C6.672,6,6,5.328,6,4.5l0,0C6,3.672,6.672,3,7.5,3h10C18.328,3,19,3.672,19,4.5L19,4.5  z"/>
<circle cx="2.5" cy="4.5" r="1.5"/>
<path d="M19,9.5c0,0.828-0.672,1.5-1.5,1.5h-10C6.672,11,6,10.328,6,9.5l0,0C6,8.672,6.672,8,7.5,8h10C18.328,8,19,8.672,19,9.5  L19,9.5z"/>
<circle cx="2.5" cy="9.5" r="1.5"/>
<path d="M19,14.5c0,0.828-0.672,1.5-1.5,1.5h-10C6.672,16,6,15.328,6,14.5l0,0C6,13.672,6.672,13,7.5,13h10  C18.328,13,19,13.672,19,14.5L19,14.5z"/>
<circle cx="2.5" cy="14.5" r="1.5"/>
<path d="M19,24.5c0,0.828-0.672,1.5-1.5,1.5h-10C6.672,26,6,25.328,6,24.5l0,0C6,23.672,6.672,23,7.5,23h10  C18.328,23,19,23.672,19,24.5L19,24.5z"/>
<circle cx="2.5" cy="24.5" r="1.5"/>
<path d="M27.5,3h-5C21.673,3,21,3.674,21,4.5S21.673,6,22.5,6H26v12h-3.238v-2.25c0-0.281-0.156-0.539-0.407-0.666  C22.247,15.029,22.128,15,22.012,15c-0.154,0-0.307,0.047-0.437,0.141l-5.25,3.75c-0.197,0.141-0.313,0.369-0.313,0.609  c0,0.242,0.116,0.471,0.313,0.611l5.25,3.75C21.705,23.953,21.857,24,22.012,24c0.116,0,0.235-0.029,0.343-0.084  c0.251-0.127,0.407-0.385,0.407-0.666V21H27.5c0.826,0,1.5-0.672,1.5-1.5v-15C29,3.674,28.328,3,27.5,3z"/>
</svg>
