<?xml version="1.0" encoding="UTF-8" standalone="no"?>
<!DOCTYPE svg PUBLIC "-//W3C//DTD SVG 1.1 Tiny//EN" "http://www.w3.org/Graphics/SVG/1.1/DTD/svg11-tiny.dtd">
<svg xmlns="http://www.w3.org/2000/svg" xmlns:xlink="http://www.w3.org/1999/xlink" baseProfile="tiny" height="30px" version="1.1" viewBox="0 0 30 30" width="30px" x="0px" y="0px">
<rect fill="none" height="30" width="30"/>
<path d="M17.852,16.471c-0.013-0.158,0-0.438,0.002-0.596c1.086-0.732,2.026-1.654,2.6-2.777c1.061-2.08,0.672-7.391,0.672-7.391  c0-2.17-3.242-4.707-5.436-4.707h-1.392c-2.193,0-5.424,2.537-5.424,4.707c0,0-0.331,5.293,0.658,7.391  c0.545,1.145,1.504,2.076,2.615,2.807c0.002,0.147,0.014,0.418,0.004,0.565c-0.137,2.127-7.302,5.938-7.651,6.398V29h3v-2h1.999v2  h11v-2h2v2h3v-6.125C25.148,22.412,17.984,18.598,17.852,16.471z"/>
</svg>
