<?xml version="1.0" encoding="UTF-8"?>
<!DOCTYPE svg PUBLIC "-//W3C//DTD SVG 1.1 Tiny//EN" "http://www.w3.org/Graphics/SVG/1.1/DTD/svg11-tiny.dtd">
<svg baseProfile="tiny" height="30px" version="1.1" viewBox="0 0 30 30" width="30px" x="0px" xmlns="http://www.w3.org/2000/svg" xmlns:xlink="http://www.w3.org/1999/xlink" y="0px">
<g fill-opacity="0.5" stroke-opacity="0.5">
<rect fill="none" height="30" width="30"/>
</g>
<path d="M14.54,22.262c-0.276,0-0.479,0.133-0.639,0.418c-0.175,0.316-0.265,0.792-0.265,1.413c0,1.836,0.68,1.836,0.903,1.836  c0.278,0,0.479-0.134,0.635-0.421c0.171-0.316,0.257-0.792,0.257-1.415c0-0.622-0.086-1.099-0.257-1.415  C15.021,22.394,14.818,22.262,14.54,22.262z"/>
<path d="M23.822,22.263c-0.183,0-0.339,0.11-0.479,0.336c-0.13,0.212-0.207,0.476-0.229,0.786h1.362  c-0.021-0.313-0.094-0.578-0.215-0.793C24.074,22.263,23.885,22.263,23.822,22.263z"/>
<path d="M8.616,10.402c-1.563,0-1.686,1.897-1.686,3.354c0,1.493,0.069,3.776,1.686,3.776c1.614,0,1.703-2.038,1.703-3.776  C10.319,12.404,10.109,10.402,8.616,10.402z"/>
<path d="M21.452,4C20.397,1.653,17.91,0,15,0S9.603,1.653,8.548,4H2v25h26V4H21.452z M24.5,5.399c0.836,0,1.5,0.475,1.5,1.3  C26,7.543,25.37,8,24.5,8S23,7.543,23,6.7C23,5.856,23.613,5.399,24.5,5.399z M22.574,9.173c0.154-0.211,0.377-0.218,0.647-0.218  c0.09,0,0.188,0,0.188,0L26,9v8.711c0,0.255,0,0.728-0.397,1.008C25.396,18.867,25.079,19,24.598,19c-0.463,0-0.612-0.18-0.82-0.326  c-0.395-0.279-0.395-0.753-0.395-1.008v-7.098c0,0-0.071,0-0.161,0c-0.271,0-0.493-0.001-0.647-0.212  c-0.073-0.098-0.174-0.262-0.174-0.592C22.4,9.448,22.501,9.271,22.574,9.173z M15,1.625c1.813,0,3.377,0.96,4.249,2.375h-8.498  C11.623,2.585,13.188,1.625,15,1.625z M7.36,26.744c-0.371,0.301-0.935,0.455-1.676,0.455c-0.413,0-0.758-0.029-1.026-0.084  c-0.26-0.055-0.486-0.123-0.67-0.203l-0.12-0.053v-1.4l0.298,0.166c0.167,0.094,0.378,0.177,0.625,0.246  c0.25,0.07,0.521,0.105,0.806,0.105c0.223,0,0.389-0.045,0.492-0.137c0.098-0.086,0.145-0.219,0.145-0.409  c0-0.089-0.016-0.168-0.048-0.243c-0.03-0.066-0.087-0.139-0.168-0.209c-0.06-0.051-0.21-0.152-0.574-0.337  c-0.469-0.23-0.788-0.43-0.972-0.608c-0.188-0.183-0.319-0.379-0.387-0.585c-0.067-0.194-0.101-0.429-0.101-0.696  c0-0.555,0.201-0.996,0.598-1.309c0.379-0.305,0.872-0.459,1.466-0.459c0.356,0,0.667,0.029,0.926,0.085  c0.263,0.058,0.482,0.126,0.668,0.208l0.12,0.053v1.392l-0.296-0.161c-0.174-0.094-0.384-0.178-0.625-0.249  c-0.238-0.073-0.454-0.108-0.645-0.108c-0.184,0-0.319,0.041-0.411,0.129c-0.092,0.086-0.134,0.193-0.134,0.338  c0,0.078,0.015,0.143,0.044,0.188c0.042,0.061,0.095,0.119,0.159,0.172c0.072,0.055,0.248,0.154,0.524,0.295  c0.438,0.219,0.747,0.4,0.942,0.557c0.212,0.17,0.371,0.371,0.471,0.6c0.1,0.226,0.148,0.504,0.148,0.851  C7.94,25.957,7.745,26.432,7.36,26.744z M11.795,26.958l-0.129,0.05c-0.117,0.044-0.268,0.088-0.453,0.128  c-0.178,0.042-0.403,0.062-0.703,0.062c-0.598,0-1.053-0.18-1.351-0.537c-0.289-0.347-0.436-0.843-0.436-1.475v-2.827H7.969v-1.291  h0.754v-0.675l1.71-0.893v1.567h1.277v1.291h-1.276v2.705c0,0.438,0.06,0.636,0.11,0.724c0.033,0.059,0.103,0.137,0.319,0.137  c0.114,0,0.228-0.017,0.338-0.049c0.119-0.032,0.22-0.07,0.304-0.113l0.289-0.143V26.958z M8.491,19C5.147,19,4,16.729,4,13.847  C4,11,5.559,9,8.525,9C11.594,9,13,11.017,13,13.916C12.998,16.95,11.576,19,8.491,19z M16.461,26.398  c-0.473,0.531-1.119,0.801-1.921,0.801c-0.8,0-1.448-0.27-1.927-0.801c-0.471-0.526-0.71-1.302-0.71-2.305  c0-0.995,0.234-1.768,0.695-2.297c0.469-0.538,1.122-0.812,1.942-0.812c0.813,0,1.465,0.278,1.934,0.825  c0.461,0.536,0.694,1.305,0.694,2.283C17.168,25.097,16.93,25.872,16.461,26.398z M15.383,17.523L12.859,9h2.934l1.793,7.375  L19.484,9h2.477l-2.652,8.523C19.016,18.4,18.578,19,17.346,19C16.112,19,15.656,18.4,15.383,17.523z M21.17,22.447l-0.25-0.063  c-0.121-0.029-0.238-0.045-0.359-0.045c-0.383,0-0.629,0.097-0.752,0.295c-0.098,0.156-0.213,0.488-0.213,1.179v3.309h-1.71v-4.786  c0-0.252-0.011-0.607-0.028-1.061l-0.008-0.208h1.64c0,0,0.038,0.28,0.045,0.332c0.05-0.054,0.104-0.103,0.161-0.147  c0.227-0.176,0.49-0.267,0.785-0.267c0.189,0,0.373,0.026,0.545,0.076l0.145,0.042V22.447z M26.203,24.67h-3.102  c0.022,0.383,0.115,0.683,0.275,0.893c0.179,0.232,0.434,0.346,0.779,0.346c0.344,0,0.644-0.024,0.893-0.072  c0.245-0.051,0.463-0.117,0.645-0.201l0.283-0.129v1.35l-0.116,0.053c-0.216,0.099-0.47,0.172-0.756,0.219  c-0.284,0.049-0.688,0.073-1.2,0.073c-0.833,0-1.477-0.271-1.911-0.803c-0.425-0.521-0.64-1.284-0.64-2.267  c0-0.972,0.207-1.742,0.617-2.292c0.423-0.566,1.046-0.854,1.852-0.854c0.821,0,1.434,0.271,1.818,0.802  c0.373,0.509,0.563,1.277,0.563,2.281V24.67z"/>
</svg>
