<?xml version="1.0" encoding="UTF-8"?>
<!DOCTYPE svg PUBLIC "-//W3C//DTD SVG 1.1 Tiny//EN" "http://www.w3.org/Graphics/SVG/1.1/DTD/svg11-tiny.dtd">
<svg baseProfile="tiny" height="55px" version="1.1" viewBox="0 0 55 55" width="55px" x="0px" xmlns="http://www.w3.org/2000/svg" xmlns:xlink="http://www.w3.org/1999/xlink" y="0px">
<rect fill="none" height="55" width="55"/>
<g>
<path d="M55,55c-4.418,0-8-3.582-8-8V8c0-4.4-3.6-8-8-8H0v55H55z" fill="url(#SVGID_1_)"/>
<defs>
<linearGradient gradientUnits="userSpaceOnUse" id="SVGID_1_" x1="27.5" x2="27.5" y1="0" y2="55.0005">
<stop offset="0" style="stop-color:#F0F0F0"/>
<stop offset="0.85" style="stop-color:#C8C8D2"/>
<stop offset="1" style="stop-color:#AAAAB4"/>
</linearGradient>
</defs>
</g>
<path d="M47,47V8c0-4.4-3.6-8-8-8H0v1h39c3.859,0,7,3.141,7,7v39c0,6.195,5.384,7.588,7.818,7.903  C49.962,54.331,47,51.016,47,47z" fill-opacity="0.2" stroke-opacity="0.2"/>
<g fill-opacity="0.2" stroke-opacity="0.2">
<path d="M46,47V8c0-3.859-3.141-7-7-7H0v1h39c3.309,0,6,2.691,6,6v39c0,6.816,7.256,7.824,9.404,7.974   C51.89,54.792,46,53.426,46,47z" fill="#FFFFFF"/>
</g>
<rect fill="none" height="55" width="55"/>
</svg>
