<?xml version="1.0" encoding="UTF-8"?>
<!DOCTYPE svg PUBLIC "-//W3C//DTD SVG 1.1 Tiny//EN" "http://www.w3.org/Graphics/SVG/1.1/DTD/svg11-tiny.dtd">
<svg baseProfile="tiny" height="60" viewBox="0 0 60 60" width="60" xmlns="http://www.w3.org/2000/svg" xmlns:xlink="http://www.w3.org/1999/xlink">
<rect fill="none" height="60" width="60"/>
<linearGradient gradientUnits="userSpaceOnUse" id="SVGID_1" x1="29.99" x2="29.99" y1="13.86" y2="51.71">
<stop offset="0" stop-color="#36B5FF"/>
<stop offset="1" stop-color="#1B66D8"/>
</linearGradient>
<polygon fill="url(#SVGID_1)" points="45.611,31.25 46.105,14.183 13.884,14.183 14.811,31.17 9.433,51.707 50.557,51.707 "/>
<linearGradient gradientUnits="userSpaceOnUse" id="SVGID_2" x1="29.99" x2="29.99" y1="55.73" y2="44.11">
<stop offset="0" stop-color="#36B5FF"/>
<stop offset="1" stop-color="#1B66D8"/>
</linearGradient>
<polygon fill="url(#SVGID_2)" points="9.433,51.707 14.944,47.783 45.361,47.783 50.557,51.707 "/>
<linearGradient gradientUnits="userSpaceOnUse" id="SVGID_3" x1="6.67" x2="22.21" y1="15.99" y2="58.35">
<stop offset="0" stop-color="#5ED2FF"/>
<stop offset="1" stop-color="#277ADF"/>
</linearGradient>
<polygon fill="url(#SVGID_3)" points="13.884,14.183 17.839,18.266 16.34,44.039 9.433,51.707 "/>
<linearGradient gradientUnits="userSpaceOnUse" id="SVGID_4" x1="53.32" x2="37.78" y1="15.99" y2="58.35">
<stop offset="0" stop-color="#5ED2FF"/>
<stop offset="1" stop-color="#277ADF"/>
</linearGradient>
<polygon fill="url(#SVGID_4)" points="46.105,14.183 42.142,18.266 43.641,44.039 50.557,51.707 "/>
<polygon fill="#FFFFFF" fill-opacity="0.15" points="46.551,23.341 45.541,14.819 14.449,14.819 13,27.03 " stroke-opacity="0.15"/>
<linearGradient gradientUnits="userSpaceOnUse" id="SVGID_5" x1="29.99" x2="29.99" y1="14.61" y2="51.28">
<stop offset="0" stop-color="#8AD4FF"/>
<stop offset="0.77" stop-color="#2078FF"/>
<stop offset="1" stop-color="#369EFF"/>
</linearGradient>
<path d="M44.975,15.455l4.149,34.981H10.865l4.149-34.981H44.975 M45.541,14.819H14.449l-4.3,36.251 H49.84L45.541,14.819L45.541,14.819z" fill="url(#SVGID_5)"/>
<polygon fill="#FFFFFF" fill-opacity="0.15" points="10.148,51.07 49.84,51.07 48.746,41.845 10.748,46.023 " stroke-opacity="0.15"/>
<path d="M40.111,41.578c-0.726,0-1.212-0.234-1.494-0.43 c-0.721-0.512-0.721-1.317-0.721-1.662v-7.686c-0.217-0.037-0.443-0.119-0.643-0.304l-2.41,7.921c-0.352,1.072-0.961,2.16-2.83,2.16 c-1.926,0-2.525-1.154-2.831-2.16l-0.976-3.366c-0.342,3.529-2.418,5.526-5.815,5.526c-3.769,0-5.846-2.372-5.846-6.68 c0-3.9,2.255-6.325,5.885-6.325c1.668,0,3.028,0.479,4.017,1.403l-0.36-1.243h4.668l1.547,6.505l1.637-6.505h4.156l-0.004,0.009 c0.093-0.006,0.18-0.006,0.257-0.006c0.097,0,0.198-0.002,0.198-0.002h0.905c-1.037-0.229-1.695-0.99-1.695-2.034 c0-1.26,0.958-2.106,2.384-2.106c1.403,0,2.383,0.866,2.383,2.106c0,1.044-0.656,1.805-1.693,2.034h1.504v10.753 c0,0.345,0,1.15-0.715,1.659C41.207,41.434,40.7,41.578,40.111,41.578L40.111,41.578z M22.393,31.673 c-0.906,0-1.276,0.917-1.276,3.167c0,2.518,0.393,3.642,1.276,3.642c0.944,0,1.295-0.987,1.295-3.642 C23.688,33.395,23.463,31.673,22.393,31.673L22.393,31.673z" fill-opacity="0.05" stroke-opacity="0.05"/>
<path d="M40.111,41.262c-0.642,0-1.068-0.203-1.313-0.373 c-0.586-0.416-0.586-1.083-0.586-1.402V31.51c-0.289-0.006-0.617-0.05-0.853-0.368c-0.067-0.09-0.15-0.22-0.204-0.414l-2.615,8.598 c-0.332,1.009-0.865,1.937-2.528,1.937c-1.708,0-2.236-0.979-2.527-1.937l-1.622-5.599c0.051,0.396,0.077,0.813,0.077,1.25 c0,3.993-2.022,6.285-5.548,6.285c-3.618,0-5.528-2.201-5.528-6.363c0-3.706,2.134-6.008,5.567-6.008 c2.292,0,3.943,0.951,4.812,2.692l-0.733-2.532h3.995l1.788,7.52l1.894-7.52h3.48l-0.041,0.136c0.232-0.134,0.498-0.134,0.723-0.134 c0.1,0,0.208-0.001,0.208-0.001h3.46v10.436c0,0.318,0,0.985-0.582,1.399C41.079,41.136,40.635,41.262,40.111,41.262L40.111,41.262z M22.393,31.356c-1.4,0-1.593,1.674-1.593,3.483c0,1.957,0.189,3.959,1.593,3.959c1.343,0,1.613-1.516,1.613-3.959 C24.005,32.527,23.462,31.356,22.393,31.356L22.393,31.356z M40.141,28.489c-1.256,0-2.067-0.703-2.067-1.791 c0-1.087,0.812-1.79,2.067-1.79c1.217,0,2.066,0.736,2.066,1.79C42.207,27.787,41.396,28.489,40.141,28.489L40.141,28.489z" fill-opacity="0.1" stroke-opacity="0.1"/>
<path d="M22.393,40.627c-3.878,0-5.212-2.663-5.212-6.045c0-3.346,1.81-5.692,5.251-5.692 c3.562,0,5.192,2.368,5.192,5.77C27.624,38.223,25.972,40.627,22.393,40.627z M22.393,30.723c-1.77,0-1.91,2.148-1.91,3.8 c0,1.688,0.082,4.276,1.91,4.276c1.829,0,1.93-2.309,1.93-4.276C24.322,32.988,24.084,30.723,22.393,30.723z M26.932,29.051h3.324 l2.03,8.537l2.147-8.537h2.807l-3.002,9.865c-0.334,1.017-0.828,1.711-2.225,1.711s-1.916-0.694-2.224-1.711L26.932,29.051z M40.141,27.855c-1.016,0-1.75-0.519-1.75-1.474c0-0.954,0.715-1.472,1.75-1.472c0.976,0,1.748,0.538,1.748,1.472 C41.89,27.336,41.155,27.855,40.141,27.855z M38.531,39.169c0,0.288,0,0.823,0.449,1.142c0.236,0.165,0.607,0.316,1.133,0.316 c0.545,0,0.9-0.149,1.137-0.316c0.451-0.319,0.451-0.854,0.451-1.142V29.051h-3.139c0,0-0.11,0.002-0.214,0.002 c-0.307,0-0.558,0.008-0.733,0.245c-0.084,0.111-0.196,0.312-0.196,0.668c0,0.375,0.113,0.56,0.196,0.671 c0.176,0.238,0.427,0.24,0.733,0.24c0.104,0,0.182,0,0.182,0L38.531,39.169L38.531,39.169z" fill="#FFFFFF"/>
<path d="M17.204,21.681c3.578,0,4.897-3.346,6.174-6.582 c0.121-0.308,0.243-0.613,0.365-0.917h-2.025c-0.035,0.086-0.071,0.174-0.104,0.259c-1.326,3.361-2.283,5.402-4.409,5.402 c-0.522,0-0.945,0.412-0.945,0.918S16.681,21.681,17.204,21.681z" fill-opacity="0.2" stroke-opacity="0.2"/>
<path d="M36.379,15.099c1.277,3.236,2.596,6.582,6.174,6.582 c0.522,0,0.945-0.412,0.945-0.918s-0.423-0.918-0.945-0.918c-2.125,0-3.083-2.041-4.408-5.402c-0.033-0.085-0.069-0.173-0.104-0.259 h-2.025C36.137,14.486,36.258,14.792,36.379,15.099z" fill-opacity="0.2" stroke-opacity="0.2"/>
<linearGradient gradientUnits="userSpaceOnUse" id="SVGID_6" x1="16.64" x2="43.12" y1="13.45" y2="13.45">
<stop offset="0" stop-color="#F4F4F4"/>
<stop offset="0.5" stop-color="#E1E2E3"/>
<stop offset="1" stop-color="#F4F4F4"/>
</linearGradient>
<path d="M42.197,19.231c-2.066,0-2.998-2.041-4.285-5.402c-1.365-3.558-3.418-7.99-8.036-7.99 c-4.617,0-6.668,4.432-8.032,7.99c-1.288,3.361-2.22,5.402-4.286,5.402c-0.507,0-0.918,0.412-0.918,0.918s0.412,0.918,0.918,0.918 c3.478,0,4.76-3.346,6.001-6.581c1.342-3.502,2.611-6.81,6.318-6.811c3.708,0.001,4.976,3.309,6.318,6.811 c1.24,3.235,2.522,6.581,6.001,6.581c0.507,0,0.918-0.412,0.918-0.918S42.704,19.231,42.197,19.231z" fill="url(#SVGID_6)"/>
<rect fill="none" height="59.996" width="59.996"/>
</svg>
