<?xml version="1.0" encoding="UTF-8"?>
<!DOCTYPE svg PUBLIC "-//W3C//DTD SVG 1.1 Tiny//EN" "http://www.w3.org/Graphics/SVG/1.1/DTD/svg11-tiny.dtd">
<svg baseProfile="tiny" height="15px" version="1.1" viewBox="2.5 2.5 15 15" width="15px" x="0px" xmlns="http://www.w3.org/2000/svg" xmlns:xlink="http://www.w3.org/1999/xlink" y="0px">
<g>
<path d="M16.002,8.501c0-3.31-2.693-6.001-6.001-6.001   c-3.308,0-6,2.691-6,6.001V17.5h12.001V8.501z" fill-opacity="0.1" fill-rule="evenodd" stroke-opacity="0.1"/>
<path d="M15.25,8.501c0-2.9-2.35-5.25-5.25-5.25   c-2.9,0-5.249,2.35-5.249,5.25V17.5H15.25V8.501z" fill="url(#SVGID_1_)" fill-rule="evenodd"/>
<path d="M5.499,8.501C5.499,6.02,7.52,4,10,4c2.482,0,4.501,2.02,4.501,4.501V17.5h0.748V8.501   c0-2.9-2.35-5.25-5.25-5.25c-2.9,0-5.249,2.35-5.249,5.25V17.5h0.748V8.501z" fill-opacity="0.2" stroke-opacity="0.2"/>
<rect fill="#FFFFFF" fill-opacity="0.9" fill-rule="evenodd" height="0.751" stroke-opacity="0.9" width="4.501" x="7.75" y="11.5"/>
<rect fill-opacity="0.1" fill-rule="evenodd" height="0.749" stroke-opacity="0.1" width="4.501" x="7.75" y="10.751"/>
<rect fill="none" fill-rule="evenodd" height="15" width="15" x="2.5" y="2.5"/>
<path d="M6.25,8.501c0-2.068,1.682-3.75,3.75-3.75   c2.068,0,3.75,1.682,3.75,3.75V17.5h0.752V8.501C14.502,6.02,12.482,4,10,4C7.52,4,5.499,6.02,5.499,8.501V17.5H6.25V8.501z" fill="#FFFFFF" fill-opacity="0.4" fill-rule="evenodd" stroke-opacity="0.4"/>
<defs>
<linearGradient gradientUnits="userSpaceOnUse" id="SVGID_1_" x1="10.0002" x2="10.0002" y1="3.1182" y2="46.8697">
<stop offset="0" style="stop-color:#E6E6F0"/>
<stop offset="0.3" style="stop-color:#FAFAFA"/>
<stop offset="0.7" style="stop-color:#FAFAFA"/>
<stop offset="1" style="stop-color:#E6E6F0"/>
</linearGradient>
</defs>
</g>
</svg>
