<?xml version="1.0" ?>
<!DOCTYPE svg  PUBLIC '-//W3C//DTD SVG 1.1//EN'  'http://www.w3.org/Graphics/SVG/1.1/DTD/svg11.dtd'>
<svg height="60" viewBox="0 0 60 60" width="60" xmlns="http://www.w3.org/2000/svg" xmlns:xlink="http://www.w3.org/1999/xlink">
<g>
<defs>
</defs>
<rect fill="none" height="60" width="60"/>
<linearGradient gradientUnits="userSpaceOnUse" id="SVGID_1_" x1="30" x2="30" y1="2" y2="58.0739">
	<stop offset="0" style="stop-color:#F2F2F2"/>
	<stop offset="0.2545" style="stop-color:#4F88BD"/>
	<stop offset="0.7333" style="stop-color:#0055A3"/>
	<stop offset="1" style="stop-color:#64AEFB"/>
</linearGradient>
<path d="M30,2C18.142,2,9.945,7.973,9.945,30.001C9.945,52.03,18.145,58,30,58  c11.857,0,20.054-5.97,20.054-27.999C50.054,7.973,41.857,2,30,2z" fill="url(#SVGID_1_)"/>
<linearGradient gradientUnits="userSpaceOnUse" id="SVGID_2_" x1="30" x2="30" y1="3.2363" y2="56.7637">
	<stop offset="0.1576" style="stop-color:#36B5FF"/>
	<stop offset="0.8242" style="stop-color:#1B66D8"/>
	<stop offset="1" style="stop-color:#2183E0"/>
</linearGradient>
<path d="M30,56.764c-9.305,0-18.818-3.179-18.818-26.763C11.182,6.415,20.695,3.236,30,3.236  c9.306,0,18.817,3.179,18.817,26.765C48.817,53.585,39.306,56.764,30,56.764L30,56.764z" fill="url(#SVGID_2_)"/>
<linearGradient gradientUnits="userSpaceOnUse" id="SVGID_3_" x1="17.6924" x2="42.3066" y1="30.2065" y2="30.2065">
	<stop offset="0" style="stop-color:#0B81FA"/>
	<stop offset="1" style="stop-color:#47DAFA"/>
</linearGradient>
<path d="M42.307,20.702L28.242,6.305v18.972l-7.728-7.912l-2.822,2.881l9.712,9.961l-9.712,9.96l2.815,2.879  l7.734-7.91v18.974l14.064-14.396l-9.287-9.506L42.307,20.702z M36.689,20.734l-4.49,4.59l-0.006-9.188L36.689,20.734z   M36.689,39.686l-4.496,4.584l0.006-9.185L36.689,39.686z" fill="url(#SVGID_3_)"/>
<path d="M29.479,32.103l-8.971,9.175l-1.087-1.112l9.71-9.959l-9.71-9.96l1.091-1.113l8.967,9.179V9.339l11.1,11.363  l-9.287,9.504l9.287,9.506l-11.1,11.362V32.103z M30.955,47.297l7.464-7.61l-7.454-7.636L30.955,47.297z M30.965,28.353l7.454-7.618  l-7.464-7.632L30.965,28.353z" fill="#FFFFFF"/>
<rect fill="none" height="60" width="60"/>
</g>
<g transform="matrix(1 0 0 1 30 30)">
<defs>
</defs>
<rect fill="none" height="30" width="30" x="0.002"/>
<path d="M29.587,12.96l-9.934-9.744C19.32,2.889,18.979,2.82,18.75,2.82c-0.561,0-1.156,0.443-1.156,1.266  l-0.002,3.91l-4.872-4.78c-0.333-0.327-0.675-0.396-0.903-0.396c-0.561,0-1.156,0.443-1.156,1.266l-0.002,4.1h-3.16  c-0.824,0-1.496,0.677-1.496,1.508v3.826c0,0.7,0.48,1.285,1.125,1.453H1.256c-0.549,0-0.986,0.271-1.172,0.724  c-0.185,0.455-0.061,0.956,0.333,1.342l9.934,9.744c0.334,0.327,0.676,0.396,0.904,0.396c0.56,0,1.155-0.443,1.155-1.266l0.002-3.91  l4.872,4.78c0.334,0.327,0.676,0.396,0.904,0.396c0.56,0,1.155-0.443,1.155-1.266l0.002-4.1h3.16c0.824,0,1.496-0.677,1.496-1.508  v-3.826c0-0.7-0.48-1.285-1.125-1.453h5.871c0.549,0,0.986-0.271,1.172-0.724C30.104,13.847,29.98,13.346,29.587,12.96z" opacity="0.35"/>
<linearGradient gradientUnits="userSpaceOnUse" id="SVGID_1__" x1="18.002" x2="18.002" y1="3.8481" y2="14.1812">
	<stop offset="0.4909" style="stop-color:#CDEDBD"/>
	<stop offset="0.9879" style="stop-color:#139900"/>
</linearGradient>
<path d="M28.887,13.674L18.953,3.93c-0.197-0.193-0.359-0.123-0.359,0.156l-0.002,4.592  c0,0.279-0.223,0.508-0.494,0.508h-0.721L12.02,3.93c-0.197-0.193-0.359-0.123-0.359,0.156l-0.002,4.592  c0,0.279-0.223,0.508-0.494,0.508h-0.6H7.498c-0.273,0-0.496,0.229-0.496,0.508v3.826c0,0.277,0.224,0.506,0.496,0.506h3.066h11.031  h7.152C29.021,14.025,29.084,13.867,28.887,13.674z" fill="url(#SVGID_1__)"/>
<linearGradient gradientUnits="userSpaceOnUse" id="SVGID_2__" x1="17.3994" x2="17.3994" y1="5.978" y2="13.133">
	<stop offset="0" style="stop-color:#B2F56E"/>
	<stop offset="0.703" style="stop-color:#439020"/>
	<stop offset="0.9879" style="stop-color:#0D4D07"/>
</linearGradient>
<path d="M8.002,13.025v-2.84h3.162c0.824,0,1.494-0.676,1.494-1.508l0.002-2.719l4.309,4.227h1.129  c0.824,0,1.494-0.676,1.494-1.508l0.002-2.719l7.203,7.066H8.002z" fill="url(#SVGID_2__)"/>
<linearGradient gradientUnits="userSpaceOnUse" id="SVGID_3__" x1="12.002" x2="12.002" y1="16.0352" y2="26.3801">
	<stop offset="0" style="stop-color:#CDEDBD"/>
	<stop offset="0.9879" style="stop-color:#139900"/>
</linearGradient>
<path d="M1.117,16.324l9.934,9.744c0.197,0.193,0.359,0.125,0.359-0.156l0.002-4.592  c0-0.279,0.223-0.508,0.494-0.508h0.721l5.357,5.256c0.197,0.193,0.359,0.125,0.359-0.156l0.002-4.592  c0-0.279,0.223-0.508,0.494-0.508h0.6h3.066c0.273,0,0.496-0.229,0.496-0.508v-3.826c0-0.277-0.224-0.506-0.496-0.506h-3.066H8.408  H1.256C0.982,15.973,0.92,16.131,1.117,16.324z" fill="url(#SVGID_3__)"/>
<linearGradient gradientUnits="userSpaceOnUse" id="SVGID_4_" x1="12.6045" x2="12.6045" y1="16.9727" y2="24.1645">
	<stop offset="0" style="stop-color:#82C94C"/>
	<stop offset="0.2545" style="stop-color:#439020"/>
	<stop offset="0.5091" style="stop-color:#0D4D07"/>
</linearGradient>
<path d="M22.002,16.973v2.84H18.84c-0.824,0-1.494,0.678-1.494,1.508l-0.002,2.719l-4.309-4.227h-1.129  c-0.824,0-1.494,0.678-1.494,1.508l-0.002,2.719l-7.203-7.066H22.002z" fill="url(#SVGID_4_)"/>
<rect fill="none" height="30" width="30" x="0.002"/>
</g>
</svg>