<?xml version="1.0" encoding="UTF-8"?>
<!DOCTYPE svg PUBLIC "-//W3C//DTD SVG 1.1 Tiny//EN" "http://www.w3.org/Graphics/SVG/1.1/DTD/svg11-tiny.dtd">
<svg baseProfile="tiny" height="60" viewBox="0 0 60 60" width="60" xmlns="http://www.w3.org/2000/svg" xmlns:xlink="http://www.w3.org/1999/xlink">
<g>
<linearGradient gradientTransform="matrix(0.6122 0 0 -0.6122 -280.8977 -334.1658)" gradientUnits="userSpaceOnUse" id="SVGID_1_" x1="491.833" x2="491.833" y1="-561.7188" y2="-600.2201">
<stop offset="0" style="stop-color:#73E3FF"/>
<stop offset="1" style="stop-color:#1347BA"/>
</linearGradient>
<path d="M11.326,27.243H29.08V9.489C19.273,9.489,11.326,17.438,11.326,27.243z" style="fill:url(#SVGID_1_);"/>
<linearGradient gradientTransform="matrix(0.6122 0 0 -0.6122 -280.8977 -334.1658)" gradientUnits="userSpaceOnUse" id="SVGID_2_" x1="491.8672" x2="491.8672" y1="-563.0117" y2="-624.3455">
<stop offset="0" style="stop-color:#36B5FF"/>
<stop offset="1" style="stop-color:#1B66D8"/>
</linearGradient>
<path d="M11.979,26.631c0.603-8.815,7.672-15.884,16.488-16.488v16.488H11.979z" style="fill:url(#SVGID_2_);"/>
<linearGradient gradientTransform="matrix(0.6122 0 0 -0.6122 -280.8977 -334.1658)" gradientUnits="userSpaceOnUse" id="SVGID_3_" x1="489.833" x2="489.833" y1="-597.1865" y2="-628.6572">
<stop offset="0" style="stop-color:#F2F2F2"/>
<stop offset="1" style="stop-color:#ADB2B5"/>
</linearGradient>
<path d="M27.893,50.506c-10.148,0-18.403-8.255-18.403-18.402v-0.575h18.978v18.978H27.893z" style="fill:url(#SVGID_3_);"/>
<linearGradient gradientTransform="matrix(0.6122 0 0 -0.6122 -280.8977 -334.1658)" gradientUnits="userSpaceOnUse" id="SVGID_4_" x1="489.8398" x2="489.8398" y1="-598.1973" y2="-627.6213">
<stop offset="0" style="stop-color:#DBDFE0"/>
<stop offset="1" style="stop-color:#7D8588"/>
</linearGradient>
<path d="M27.855,49.884c-9.642-0.316-17.427-8.101-17.744-17.743h17.744V49.884z" style="fill:url(#SVGID_4_);"/>
<linearGradient gradientTransform="matrix(0.6122 0 0 -0.6122 -280.8977 -334.1658)" gradientUnits="userSpaceOnUse" id="SVGID_5_" x1="526.832" x2="526.832" y1="-561.7188" y2="-600.2201">
<stop offset="0" style="stop-color:#73E3FF"/>
<stop offset="1" style="stop-color:#1347BA"/>
</linearGradient>
<path d="M32.753,9.489v17.753h17.753C50.506,17.438,42.558,9.489,32.753,9.489z" style="fill:url(#SVGID_5_);"/>
<linearGradient gradientTransform="matrix(0.6122 0 0 -0.6122 -280.8977 -334.1658)" gradientUnits="userSpaceOnUse" id="SVGID_6_" x1="526.7988" x2="526.7988" y1="-563.0117" y2="-624.3455">
<stop offset="0" style="stop-color:#36B5FF"/>
<stop offset="1" style="stop-color:#1B66D8"/>
</linearGradient>
<path d="M33.365,26.631V10.143c8.814,0.604,15.883,7.672,16.487,16.488H33.365z" style="fill:url(#SVGID_6_);"/>
<linearGradient gradientTransform="matrix(0.6122 0 0 -0.6122 -280.8977 -334.1658)" gradientUnits="userSpaceOnUse" id="SVGID_7_" x1="526.832" x2="526.832" y1="-596.5005" y2="-625.0408">
<stop offset="0" style="stop-color:#3BC8EB"/>
<stop offset="1" style="stop-color:#1347BA"/>
</linearGradient>
<path d="M32.753,48.67c9.805,0,17.753-7.948,17.753-17.754H32.753V48.67z" style="fill:url(#SVGID_7_);"/>
<linearGradient gradientTransform="matrix(0.6122 0 0 -0.6122 -280.8977 -334.1658)" gradientUnits="userSpaceOnUse" id="SVGID_8_" x1="526.7988" x2="526.7988" y1="-563.0137" y2="-624.3464">
<stop offset="0" style="stop-color:#36B5FF"/>
<stop offset="1" style="stop-color:#1B66D8"/>
</linearGradient>
<path d="M33.365,31.528h16.487c-0.604,8.815-7.673,15.884-16.487,16.487V31.528z" style="fill:url(#SVGID_8_);"/>
<linearGradient gradientTransform="matrix(0.6122 0 0 -0.6122 -280.8977 -334.1658)" gradientUnits="userSpaceOnUse" id="SVGID_9_" x1="491.832" x2="491.832" y1="-561.0947" y2="-610.2247">
<stop offset="0" style="stop-color:#2277CC"/>
<stop offset="1" style="stop-color:#092259"/>
</linearGradient>
<path d="M29.08,9.5v17.743H11.335C11.652,17.601,19.438,9.816,29.08,9.5 M29.692,8.877  c-10.481,0-18.979,8.497-18.979,18.978h18.979V8.877L29.692,8.877z" style="fill:url(#SVGID_9_);"/>
<linearGradient gradientTransform="matrix(0.6122 0 0 -0.6122 -280.8977 -334.1658)" gradientUnits="userSpaceOnUse" id="SVGID_10_" x1="489.833" x2="489.833" y1="-596.1782" y2="-629.1787">
<stop offset="0" style="stop-color:#DBE1E3"/>
<stop offset="1" style="stop-color:#505657"/>
</linearGradient>
<path d="M28.467,31.528v18.978c-10.465,0-18.978-8.513-18.978-18.978H28.467 M29.08,30.916H8.877  v0.612c0,10.802,8.788,19.591,19.59,19.591h0.612V30.916L29.08,30.916z" style="fill:url(#SVGID_10_);"/>
<linearGradient gradientTransform="matrix(0.6122 0 0 -0.6122 -280.8977 -334.1658)" gradientUnits="userSpaceOnUse" id="SVGID_11_" x1="526.833" x2="526.833" y1="-561.0947" y2="-610.2247">
<stop offset="0" style="stop-color:#2277CC"/>
<stop offset="1" style="stop-color:#092259"/>
</linearGradient>
<path d="M32.753,9.5c9.642,0.316,17.427,8.101,17.743,17.743H32.753V9.5 M32.141,8.877v18.978h18.979  C51.119,17.374,42.622,8.877,32.141,8.877L32.141,8.877z" style="fill:url(#SVGID_11_);"/>
<linearGradient gradientTransform="matrix(0.6122 0 0 -0.6122 -280.8977 -334.1658)" gradientUnits="userSpaceOnUse" id="SVGID_12_" x1="526.833" x2="526.833" y1="-595.0107" y2="-626.533">
<stop offset="0" style="stop-color:#2277CC"/>
<stop offset="1" style="stop-color:#092259"/>
</linearGradient>
<path d="M50.496,30.916c-0.316,9.643-8.102,17.427-17.743,17.744V30.916H50.496 M51.119,30.304  H32.141v18.979C42.622,49.282,51.119,40.785,51.119,30.304L51.119,30.304z" style="fill:url(#SVGID_12_);"/>
<rect height="59.996" style="fill:none;" width="59.996"/>
</g>
<g transform="matrix(0.5 0 0 0.5 30 30)">
<linearGradient gradientTransform="matrix(0.6122 0 0 -0.6122 -280.8977 -334.1658)" gradientUnits="userSpaceOnUse" id="SVGID_1__" x1="504.7793" x2="504.7793" y1="-565.9258" y2="-629.5759">
<stop offset="0" style="stop-color:#8CFF24"/>
<stop offset="1" style="stop-color:#15570B"/>
</linearGradient>
<path d="M48.631,13.079l-3.08-7.497L27.85,13.46l0.028,23.917c-2.712-1.771-6.708-2.354-10.768-1.254  c-6.405,1.725-10.542,6.951-9.247,11.665c1.3,4.718,7.543,7.142,13.944,5.415c5.412-1.461,9.159-5.324,9.138-9.451  c-0.018-4.129,0.033-15.338,0-23.445L48.631,13.079z" style="fill:url(#SVGID_1__);"/>
<linearGradient gradientTransform="matrix(0.3061 0 0 0.3061 -405.6334 -533.8956)" gradientUnits="userSpaceOnUse" id="SVGID_2__" x1="1416.1973" x2="1416.1973" y1="1773.6455" y2="1805.4539">
<stop offset="0" style="stop-color:#36B5FF"/>
<stop offset="1" style="stop-color:#1B66D8"/>
</linearGradient>
<polygon points="27.878,33.26 27.857,13.46 27.85,13.46 27.872,33.258 " style="fill:url(#SVGID_2__);"/>
<linearGradient gradientTransform="matrix(0.3061 0 0 0.3061 -405.6334 -533.8956)" gradientUnits="userSpaceOnUse" id="SVGID_3__" x1="1455.1514" x2="1455.1514" y1="1773.6406" y2="1805.4514">
<stop offset="0" style="stop-color:#9EFF47"/>
<stop offset="1" style="stop-color:#11470A"/>
</linearGradient>
<path d="M30.945,19.08c0.007,1.306,0.01-0.201,0.012,1.223l17.674-7.225l-0.436-1.108L30.945,19.08z" style="fill:url(#SVGID_3__);"/>
<linearGradient gradientTransform="matrix(0.3061 -0.0016 0.0016 0.3061 -407.624 -533.0549)" gradientUnits="userSpaceOnUse" id="SVGID_4__" x1="1442.0078" x2="1442.0078" y1="1788.7646" y2="1868.2584">
<stop offset="0" style="stop-color:#B3FF6E"/>
<stop offset="1" style="stop-color:#11470A"/>
</linearGradient>
<polygon points="28.142,38.062 28.142,14.143 45.891,6.413 45.551,5.582 27.454,13.46 27.454,37.378   " style="fill:url(#SVGID_4__);"/>
<linearGradient gradientTransform="matrix(0.6122 0 0 -0.6122 -280.8977 -334.1658)" gradientUnits="userSpaceOnUse" id="SVGID_5__" x1="490.3359" x2="490.3359" y1="-607.7705" y2="-630.9368">
<stop offset="0" style="stop-color:#B2F56E"/>
<stop offset="0.4667" style="stop-color:#40AD00"/>
<stop offset="1" style="stop-color:#074D00"/>
</linearGradient>
<path d="M17.625,52.389c-4.258,0.021-7.653-1.941-8.447-4.885c-0.484-1.785,0.028-3.761,1.444-5.555  c1.55-1.964,3.944-3.454,6.747-4.191c1.187-0.317,2.386-0.477,3.573-0.484c4.258-0.021,7.651,1.943,8.45,4.885  c1.058,3.9-2.618,8.272-8.196,9.748C20.012,52.221,18.808,52.381,17.625,52.389L17.625,52.389z" style="fill:url(#SVGID_5__);"/>
<rect height="59.996" style="fill:none;" width="59.996"/>
</g>
</svg>
