<?xml version="1.0" encoding="UTF-8" standalone="no"?>
<!DOCTYPE svg PUBLIC "-//W3C//DTD SVG 1.1 Tiny//EN" "http://www.w3.org/Graphics/SVG/1.1/DTD/svg11-tiny.dtd">
<svg xmlns="http://www.w3.org/2000/svg" xmlns:xlink="http://www.w3.org/1999/xlink" baseProfile="tiny" height="60" viewBox="0 0 60 60" width="60">
<g>
<rect fill="none" height="60" width="60"/>
<linearGradient gradientUnits="userSpaceOnUse" id="SVGID_1_" x1="29.999" x2="29.999" y1="2.0776" y2="57.6216">
<stop offset="0" style="stop-color:#FFFFFF"/>
<stop offset="0.4667" style="stop-color:#E6E6E6"/>
<stop offset="0.9576" style="stop-color:#C2C2C2"/>
<stop offset="1" style="stop-color:#C2C2C2"/>
</linearGradient>
<path d="M53.428,41.199c0,1.027-0.582,2.461-1.297,3.188L40.027,56.681C39.314,57.407,37.904,58,36.891,58  H6.57V2h46.857V41.199z" fill="url(#SVGID_1_)"/>
<linearGradient gradientTransform="matrix(-1 0 0 -1 5045.8477 1885.916)" gradientUnits="userSpaceOnUse" id="SVGID_2_" x1="5015.8486" x2="5015.8486" y1="1883.5537" y2="1827.7893">
<stop offset="0" style="stop-color:#F0F0F2"/>
<stop offset="1" style="stop-color:#B3B5B8"/>
</linearGradient>
<path d="M7.49,2.932h45.02v38.268c0,0.775-0.49,1.979-1.031,2.527l-12.1,12.293  c-0.541,0.549-1.725,1.047-2.488,1.047H7.49V2.932 M6.57,2v56h30.32c1.014,0,2.424-0.593,3.137-1.319l12.104-12.294  c0.715-0.727,1.297-2.16,1.297-3.188V2H6.57L6.57,2z" fill="url(#SVGID_2_)"/>
<linearGradient gradientTransform="matrix(-1 0 0 -1 5045.8477 1885.916)" gradientUnits="userSpaceOnUse" id="SVGID_3_" x1="5006.7441" x2="4999.812" y1="1841.873" y2="1834.9412">
<stop offset="0" style="stop-color:#FFFFFF"/>
<stop offset="0.297" style="stop-color:#FFFFFF"/>
<stop offset="0.5576" style="stop-color:#E6E6E6"/>
<stop offset="0.7515" style="stop-color:#BCBCBC"/>
<stop offset="1" style="stop-color:#8E8E8E"/>
</linearGradient>
<path d="M51.736,44.787c0.379-0.43,1.09-0.859,1.576-2.705c0,0-0.803,3.783-11.83,0.052  C41.482,58,36.891,58,36.891,58c1.014,0,2.424-0.593,3.137-1.319L51.736,44.787z" fill="url(#SVGID_3_)"/>
<ellipse cx="30" cy="28.558" fill-opacity="0.2" rx="15.107" ry="15.347" stroke-opacity="0.2"/>
<linearGradient gradientUnits="userSpaceOnUse" id="SVGID_4_" x1="30" x2="30" y1="42.5859" y2="12.1111">
<stop offset="0" style="stop-color:#004E8C"/>
<stop offset="1" style="stop-color:#1B66D8"/>
</linearGradient>
<ellipse cx="30" cy="27.416" fill="url(#SVGID_4_)" rx="15.107" ry="15.346"/>
<radialGradient cx="-11.9336" cy="13.8384" gradientTransform="matrix(0.9797 0 0 0.9952 41.476 8.3351)" gradientUnits="userSpaceOnUse" id="SVGID_5_" r="18.5643">
<stop offset="0" style="stop-color:#94FFFF"/>
<stop offset="0.5" style="stop-color:#36B5FF"/>
<stop offset="1" style="stop-color:#1B66D8"/>
</radialGradient>
<ellipse cx="30" cy="27.416" fill="url(#SVGID_5_)" rx="14.721" ry="14.953"/>
<linearGradient gradientUnits="userSpaceOnUse" id="SVGID_6_" x1="30" x2="30" y1="12.3306" y2="42.445">
<stop offset="0" style="stop-color:#31A7F8"/>
<stop offset="0.497" style="stop-color:#1E74DC"/>
<stop offset="1" style="stop-color:#88D6EB"/>
</linearGradient>
<path d="M30,12.462c-8.129,0-14.721,6.696-14.721,14.954c0,8.26,6.592,14.953,14.721,14.953  c8.131,0,14.721-6.693,14.721-14.953C44.721,19.158,38.131,12.462,30,12.462z M30,41.061c-7.645,0-13.863-6.316-13.863-14.08  c0-7.766,6.219-14.081,13.863-14.081s13.861,6.315,13.861,14.081C43.861,34.744,37.645,41.061,30,41.061z" fill="url(#SVGID_6_)" fill-opacity="0.3" stroke-opacity="0.3"/>
<linearGradient gradientUnits="userSpaceOnUse" id="SVGID_7_" x1="15.5195" x2="17.8594" y1="29.4512" y2="29.4512">
<stop offset="0" style="stop-color:#58595B"/>
<stop offset="1" style="stop-color:#000000"/>
</linearGradient>
<path d="M16.66,27.172c-0.156-0.211-0.51-0.211-0.666-0.211c-0.307,0-0.473,0.223-0.475,0.441  v0.016v0.021c0,0.385,0.021,0.816,0.066,1.34c0.01,0.098,0.02,0.198,0.033,0.297l0.018,0.144c0.039,0.312,0.086,0.617,0.139,0.913  l0.023,0.129c0.023,0.119,0.045,0.232,0.068,0.348c0.064,0.291,0.141,0.592,0.236,0.924c0.012,0.049,0.025,0.098,0.035,0.143  c0.021,0.078,0.039,0.156,0.064,0.231l0.004,0.011l0.008,0.023c0-0.006-0.006-0.018-0.006-0.026l0.844-0.058  c0.014-0.135,0.02-0.273,0.014-0.414c-0.006-0.216-0.016-0.482-0.076-0.709l0.785-1.069l0.084-0.116v-0.145v-0.833v-0.183  l-0.127-0.127L16.66,27.172z" fill="url(#SVGID_7_)" fill-opacity="0.3" stroke-opacity="0.3"/>
<linearGradient gradientUnits="userSpaceOnUse" id="SVGID_8_" x1="20.0322" x2="44.5176" y1="25.0957" y2="25.0957">
<stop offset="0" style="stop-color:#58595B"/>
<stop offset="1" style="stop-color:#000000"/>
</linearGradient>
<path d="M44.512,24.485c-0.01-0.056-0.021-0.099-0.031-0.138  c-0.008-0.029-0.014-0.061-0.021-0.088c-0.072-0.355-0.166-0.72-0.273-1.094l-0.014-0.04c-0.021-0.083-0.047-0.169-0.072-0.251  c-0.133-0.42-0.277-0.822-0.43-1.193c-0.02-0.045-0.041-0.09-0.061-0.134l-0.029-0.071c-0.148-0.34-0.309-0.679-0.477-1.004  l-0.023-0.042c-0.033-0.065-0.066-0.13-0.1-0.194c-0.211-0.381-0.424-0.746-0.648-1.082c-0.021-0.035-0.047-0.072-0.072-0.111  c-0.02-0.021-0.031-0.042-0.047-0.065c-0.213-0.313-0.438-0.618-0.668-0.907l-0.047-0.059c-0.031-0.039-0.061-0.08-0.094-0.12  c-0.268-0.325-0.551-0.644-0.844-0.942c-0.041-0.039-0.084-0.081-0.125-0.125L40.4,16.791c-0.264-0.264-0.545-0.521-0.834-0.768  l-0.057-0.051c-0.027-0.026-0.059-0.051-0.088-0.074c-0.314-0.264-0.656-0.522-1.014-0.771c-0.041-0.029-0.086-0.061-0.131-0.088  l-0.055-0.037c-0.32-0.215-0.656-0.422-0.99-0.611l-0.051-0.029c-0.029-0.017-0.059-0.031-0.084-0.049  c-0.375-0.202-0.764-0.395-1.158-0.566l-0.1-0.041L35.73,13.66c-0.105-0.045-0.209-0.081-0.313-0.119  c-0.055-0.02-0.107-0.037-0.158-0.057l-0.201-0.076l-0.182,0.116c-0.117,0.075-0.59,0.351-0.869,0.511  c-0.309-0.041-1.057-0.137-1.811-0.211c0.23-0.023,0.555-0.05,1.006-0.08l0.064-0.861l-0.033-0.01  c-0.027-0.006-0.055-0.013-0.082-0.02l-0.064-0.012l-0.053-0.012c-0.461-0.094-0.896-0.162-1.326-0.209h-0.004l-0.061-0.006  c-0.492-0.051-0.992-0.076-1.488-0.076c-0.438,0-0.891,0.024-1.385,0.072c-0.078,0.007-0.148,0.015-0.227,0.023  c-0.488,0.055-0.916,0.121-1.32,0.205l-0.016,0.002h-0.008c-0.426,0.092-0.854,0.203-1.311,0.344  c-0.039,0.014-0.08,0.026-0.121,0.039l-0.092,0.031c-0.387,0.125-0.766,0.266-1.125,0.416c-0.027,0.014-0.051,0.021-0.07,0.027  l-0.055,0.023c-0.398,0.172-0.797,0.367-1.191,0.582c-0.041,0.021-0.082,0.047-0.125,0.071l-0.051,0.028  c-0.109,0.064-0.221,0.135-0.33,0.203l-0.143,0.092l-0.791,0.49l0.875,0.297c0.131,0.045,0.271,0.066,0.42,0.066  c0.471,0,0.928-0.236,1.295-0.424c0.146-0.076,0.365-0.189,0.457-0.207c0.107,0.032,0.215,0.049,0.322,0.049  c0.4,0,0.729-0.221,1.02-0.415l0.076-0.05c0.098-0.031,0.258-0.092,0.578-0.213c0.33-0.127,0.928-0.354,1.088-0.393  c0.311-0.004,0.68-0.049,0.943-0.215c0.248,0.041,0.688,0.111,1.143,0.172c-0.033,0.021-0.066,0.041-0.096,0.07  c-0.146,0.137-0.939,0.381-1.184,0.414c-0.457,0.057-0.639,0.291-0.713,0.475c-0.094,0.242-0.039,0.484,0.057,0.68  c-0.174,0.114-0.385,0.244-0.566,0.342c0-0.004,0.002-0.009,0.002-0.014c0.064-0.371,0.113-0.639-0.064-0.852  c-0.09-0.111-0.225-0.172-0.365-0.172c-0.209,0-0.371,0.13-0.502,0.258c-0.365,0.359-0.588,0.809-0.672,0.977l-0.016,0.031  l-0.014,0.025c-0.156,0.311-0.223,0.527-0.135,1.211c-0.039,0.027-0.154,0.072-0.314,0.072c-0.02,0-0.039-0.002-0.055-0.002  c-0.104-0.114-0.246-0.18-0.406-0.18l0,0c-0.369,0-0.873,0.424-1.496,1.258l-0.199,0.268l0.203,0.266l0.188,0.246  c-2.973,2.334-2.994,2.467-3.023,2.66c-0.008,0.02-0.033,0.1-0.068,0.211c-0.443,1.398-0.688,2.445-0.449,3.004  c0.553,1.299,1.178,2.512,1.986,2.578c0.07,0.006,0.148,0.008,0.234,0.008c0.738,0,1.939-0.229,2.518-0.348  c0.105,0.204,0.236,0.441,0.307,0.57l0.129,0.23l0.26-0.008c0,0,0.141-0.006,0.316-0.006c0.203,0,0.338,0.008,0.424,0.014  c0.314,0.938,0.918,3.094,0.805,3.539l-0.002,0.002c-1.014,1.549,0.215,3.563,0.807,4.533c0.049,0.076,0.09,0.145,0.125,0.205  c0.229,0.66,0.506,1.098,1.09,1.098c0.043,0,0.09-0.004,0.131-0.005c0.033-0.003,0.07-0.005,0.104-0.005  c0.066,0,0.111,0.01,0.16,0.027l0.055,0.02l0.055,0.004c0.109,0.009,0.215,0.023,0.32,0.039c0.178,0.025,0.365,0.051,0.557,0.051  c0.508,0,0.908-0.195,1.258-0.613c0.014,0,0.025-0.002,0.037-0.004c0.367-0.051,0.504-0.238,0.549-0.404  c0.029-0.028,0.064-0.063,0.094-0.09c0.146-0.134,0.316-0.293,0.436-0.482c0.051-0.031,0.113-0.068,0.182-0.109  c0.117-0.073,0.25-0.154,0.354-0.209c0.092-0.028,0.174-0.084,0.234-0.161c0.148-0.183,0.119-0.394,0.094-0.562  c-0.025-0.173-0.051-0.35,0.043-0.541c0.52-0.256,1.445-0.882,1.594-0.984v0.012c-0.008,0.083-0.033,0.309-0.07,0.45  c-0.197,0.2-0.359,0.503-0.414,0.606l-0.031,0.066l-0.012,0.074c-0.012,0.098-0.066,0.607,0.215,0.938  c0.143,0.166,0.346,0.258,0.574,0.258c0.07,0,0.146-0.01,0.223-0.027c0.727-0.168,2.01-1.936,2.113-2.91  c0.053-0.473-0.129-0.842-0.494-1.018l-0.273-0.131l-0.217,0.217l-0.791,0.805c-0.268,0.025-0.479,0.107-0.619,0.234  c0.008-0.344-0.025-0.695-0.061-1.039c-0.109-1.037-0.129-1.695,0.496-2.146l0.031-0.023l0.029-0.027  c0.223-0.234,0.475-0.438,0.74-0.654c0.619-0.506,1.26-1.029,1.643-1.975l0.016-0.041c0.123-0.323,0.309-0.811,0.059-1.183  c-0.063-0.091-0.193-0.233-0.441-0.286c0.326-0.131,0.576-0.236,0.6-0.245l0.076-0.032l0.059-0.059l1.34-1.303l0.195-0.192  l-0.086-0.263c-0.012-0.034-0.086-0.24-0.291-0.535c0.391,0.053,0.729,0.148,0.834,0.234c0.043,0.088,0.121,0.283,0.209,0.488  c1.471,3.527,1.678,3.708,2.063,3.715c0.014,0,0.025,0.001,0.035,0.004c0.029,0,0.059,0.002,0.082,0.002  c0.221,0,0.344-0.114,0.398-0.182c0.16-0.195,0.117-0.436,0.1-0.525l-0.006-0.029c-0.018-0.213-0.006-1.162,0.023-1.94  c0.002,0.003,0.004,0.005,0.004,0.007l0.791-0.319L44.512,24.485z M32.908,20.172c-0.061,0.001-0.129,0.006-0.199,0.006  c-0.227,0.014-0.486,0.023-0.742,0.023c-0.672,0-0.826-0.083-0.842-0.094c-0.082-0.057-0.162-0.102-0.248-0.133  c0.154-0.035,0.328-0.156,0.508-0.508c0.176,0.348,0.416,0.656,0.785,0.656c0.1,0,0.195-0.023,0.287-0.07  C32.582,20.055,32.785,20.125,32.908,20.172z M32.645,18.264c-0.053,0-0.094-0.002-0.125-0.005c0.033-0.091,0.076-0.146,0.107-0.175  c0.043,0.066,0.104,0.125,0.166,0.175C32.74,18.262,32.691,18.264,32.645,18.264z M29.963,19.178  c0.23,0.461,0.402,0.658,0.539,0.745c-0.334,0.026-0.586,0.242-0.797,0.448c-0.145-0.053-0.396-0.206-0.473-0.314  c-0.043-0.064-0.096-0.119-0.156-0.168C29.443,19.783,29.766,19.438,29.963,19.178z M28.689,18.842l-0.48-0.025l-1.605-0.078  c0.197-0.164,0.385-0.318,0.492-0.409c0.031-0.013,0.145-0.044,0.428-0.044c0.17,0,0.332,0.013,0.438,0.021L28.689,18.842z" fill="url(#SVGID_8_)" fill-opacity="0.3" stroke-opacity="0.3"/>
<radialGradient cx="-11.4893" cy="8.5776" gradientTransform="matrix(0.9797 0 0 0.9952 41.476 8.3351)" gradientUnits="userSpaceOnUse" id="SVGID_9_" r="16.9394">
<stop offset="0" style="stop-color:#7AF200"/>
<stop offset="0.3152" style="stop-color:#7AF200"/>
<stop offset="0.7273" style="stop-color:#1CAD0F"/>
<stop offset="1" style="stop-color:#007A3A"/>
</radialGradient>
<path d="M15.949,27.407c0,0,0,0,0,0.003c0,0.002,0,0.006,0,0.01c0,0.445,0.029,0.886,0.064,1.32  c0.014,0.144,0.033,0.285,0.049,0.43c0.037,0.297,0.084,0.594,0.135,0.886c0.031,0.153,0.059,0.31,0.09,0.464  c0.066,0.301,0.145,0.6,0.229,0.893c0.035,0.121,0.061,0.245,0.096,0.363c0.008,0.012,0.012,0.025,0.014,0.038  c0.012-0.116,0.016-0.234,0.012-0.354c-0.027-0.861-0.164-0.75-0.164-0.75l0.955-1.305v-0.833l-1.119-1.138  C16.309,27.434,15.949,27.376,15.949,27.407z" fill="url(#SVGID_9_)"/>
<radialGradient cx="-11.459" cy="8.5776" gradientTransform="matrix(0.9797 0 0 0.9952 41.476 8.3351)" gradientUnits="userSpaceOnUse" id="SVGID_10_" r="16.9575">
<stop offset="0" style="stop-color:#7AF200"/>
<stop offset="0.3152" style="stop-color:#7AF200"/>
<stop offset="0.7273" style="stop-color:#1CAD0F"/>
<stop offset="1" style="stop-color:#007A3A"/>
</radialGradient>
<path d="M24.947,14.498c0.412,0.139,0.75-0.143,1.135-0.395c0.137-0.027,1.648-0.641,1.813-0.641  s0.713-0.021,0.85-0.243c0,0,2.365,0.419,2.723,0.278c0.193-0.076,1.01-0.143,1.709-0.189c-0.037-0.008-0.076-0.02-0.113-0.029  c-0.039-0.008-0.074-0.013-0.113-0.021c-0.439-0.091-0.885-0.161-1.336-0.208c0,0-0.006,0-0.01-0.002  c-0.477-0.048-0.957-0.074-1.447-0.074c-0.453,0-0.902,0.027-1.346,0.07c-0.076,0.008-0.152,0.016-0.232,0.026  c-0.428,0.047-0.854,0.11-1.27,0.195c-0.008,0.003-0.016,0.003-0.021,0.005c-0.432,0.09-0.855,0.203-1.271,0.33  c-0.072,0.023-0.141,0.047-0.209,0.068c-0.371,0.123-0.734,0.258-1.092,0.406c-0.041,0.019-0.084,0.034-0.125,0.051  c-0.393,0.171-0.775,0.359-1.15,0.563c-0.055,0.03-0.109,0.064-0.164,0.096c-0.162,0.09-0.311,0.189-0.467,0.287  C23.58,15.334,24.537,14.357,24.947,14.498z" fill="url(#SVGID_10_)"/>
<radialGradient cx="-11.458" cy="8.5742" gradientTransform="matrix(0.9797 0 0 0.9952 41.476 8.3351)" gradientUnits="userSpaceOnUse" id="SVGID_11_" r="16.9562">
<stop offset="0" style="stop-color:#B2F56E"/>
<stop offset="0.3152" style="stop-color:#B2F56E"/>
<stop offset="0.7273" style="stop-color:#5CBF1B"/>
<stop offset="1" style="stop-color:#227A00"/>
</radialGradient>
<path d="M44.09,24.559c-0.016-0.073-0.037-0.143-0.053-0.214c-0.07-0.356-0.164-0.708-0.266-1.054  c-0.025-0.094-0.051-0.189-0.08-0.282c-0.125-0.394-0.264-0.781-0.416-1.159c-0.029-0.064-0.061-0.131-0.09-0.195  c-0.143-0.334-0.297-0.658-0.463-0.977c-0.037-0.078-0.078-0.156-0.117-0.23c-0.197-0.359-0.406-0.709-0.627-1.051  c-0.041-0.06-0.084-0.114-0.121-0.174c-0.205-0.303-0.42-0.596-0.648-0.881c-0.043-0.055-0.088-0.113-0.135-0.172  c-0.262-0.314-0.533-0.619-0.82-0.914c-0.047-0.051-0.098-0.099-0.15-0.148c-0.26-0.26-0.535-0.512-0.813-0.75  c-0.047-0.041-0.092-0.083-0.141-0.123c-0.316-0.262-0.645-0.512-0.982-0.746c-0.061-0.041-0.119-0.081-0.182-0.12  c-0.311-0.211-0.631-0.411-0.961-0.595c-0.047-0.025-0.088-0.053-0.133-0.077c-0.365-0.198-0.74-0.383-1.123-0.55  c-0.07-0.029-0.139-0.055-0.205-0.086c-0.15-0.063-0.303-0.111-0.455-0.17c-0.182,0.118-1.016,0.598-1.016,0.598  s-3.623-0.503-3.869-0.252c-0.25,0.252-1.213,0.508-1.434,0.537c-0.219,0.029-0.674,0.148-0.129,0.832  c-0.082,0.084-1.643,1.186-1.643,0.686c0-0.502,0.352-1.4-0.139-0.92c-0.35,0.346-0.563,0.813-0.605,0.902  c-0.115,0.223-0.186,0.328-0.104,0.97c0.084,0.642-1.006,0.64-1.08,0.474c-0.197-0.445-1.275,0.998-1.275,0.998l0.455,0.594  c0,0-3.18,2.486-3.205,2.654c-0.029,0.168-0.822,2.328-0.547,2.971c0.273,0.643,0.969,2.262,1.625,2.313  c0.861,0.072,2.951-0.398,2.951-0.398c0.055,0.143,0.451,0.854,0.451,0.854s1.021-0.035,1.08,0.078  c0.018,0.037,1.234,3.668,0.832,4.148c-0.957,1.457,0.547,3.59,0.965,4.313c0.42,1.238,0.688,0.684,1.24,0.889  c0.678,0.057,1.25,0.313,1.826-0.44c0.166-0.14,0.451-0.028,0.451-0.224c0-0.107,0.494-0.428,0.619-0.729  c0.133-0.063,0.475-0.296,0.707-0.409c0.211-0.014-0.201-0.586,0.217-1.192c0.451-0.181,1.666-1.013,1.666-1.013  c0.057-1.223-0.592-2.729,0.617-3.596c0.777-0.806,1.799-1.266,2.295-2.492c0.139-0.361,0.441-1.104-0.438-0.881  c-0.826,0.211-1.75,0.26-1.313-0.109c-0.051-0.456-0.6-0.668-1.092-1.111c-0.254-0.613-0.654-1.704-0.654-1.704l-0.875-1.349  l0.107-0.279l1.041,1.555l1.037,1.275c0.383,1.277,0.711,1.389,0.711,1.389c0.574-0.205,1.939-0.775,1.939-0.775l1.342-1.307  c0,0-0.139-0.418-0.684-0.943l-0.41-0.25c-0.09,0.258-0.566,0.352-0.566,0.352l-1.156-1.406l0.43-0.088l0.332,0.641l0.795,0.279  c0,0,0.219-0.163,0.629,0.267c0.334-0.028,1.635,0.065,1.938,0.456c0.061,0.078,1.611,4.016,1.918,4.021  c0.137,0.001,0.232,0.055,0.189-0.185c-0.055-0.109,0-2.584,0.08-3.115c0.209-0.447,0.242,0,0.734,0.854  C44.094,24.6,44.094,24.579,44.09,24.559z M30.432,15.017c0.105-0.329,0.738-0.44,0.738-0.44s-0.184,0.339-0.141,0.514  c0.041,0.177-0.289,0.286-0.324,0.701c-0.037,0.416-0.789,0.171-0.85,0.025C29.793,15.672,30.318,15.344,30.432,15.017z   M33.125,20.603c-0.467,0-1.863,0.141-2.248-0.138c-0.385-0.279-0.686,0.028-0.961,0.309c-0.182,0.18-0.842-0.187-1.035-0.467  c-0.191-0.279-0.838-0.259-0.838-0.259l0.146-0.796l-1.859-0.09l-1.057,0.314l-0.992,0.027l0.557-0.269l0.693-0.167  c0,0,1.008-0.841,1.309-1.092c0.258-0.213,1.277-0.094,1.277-0.094l1.121,0.821c0,0-0.25,0.644-0.359,0.78  c0.412-0.027,0.896-0.785,0.896-0.785c-0.873-0.816-0.84-1.094-0.84-1.094l1.152,0.822l0.01,0.006c0,0,0.467,1.117,0.662,1.117  c0.189,0,0.436-0.769,0.436-0.769l0.326-0.083c0.146,0.352,0.42,1.146,0.748,0.961c0.189-0.105,0.5-0.011,0.855,0.129  c0.359,0.139,0.602-0.074,0.895,0.186C33.982,21.123,33.318,20.66,33.125,20.603z M33.855,18.684  c-0.479-0.188-2.102,0.418-1.74-0.57c0.193-0.535,0.691-0.646,0.863-0.292c0.043,0.147,0.586,0.374,0.582,0.065  s0.543-0.471,0.621-0.242C33.889,17.857,35.322,18.967,33.855,18.684z M36.918,19.621c-0.268-0.219,0.117-0.404-0.275-0.745  c-0.563-0.491-1.002-0.702-0.234-1.097c0.945-0.122,0.152,0.307,0.309,0.563c0.084,0.136,0.563,0.592,0.938,1.152  C37.963,19.959,37.182,19.84,36.918,19.621z" fill="url(#SVGID_11_)"/>
<radialGradient cx="-11.4609" cy="8.5801" gradientTransform="matrix(0.9797 0 0 0.9952 41.476 8.3351)" gradientUnits="userSpaceOnUse" id="SVGID_12_" r="16.9527">
<stop offset="0" style="stop-color:#7AF200"/>
<stop offset="0.3152" style="stop-color:#7AF200"/>
<stop offset="0.7273" style="stop-color:#1CAD0F"/>
<stop offset="1" style="stop-color:#007A3A"/>
</radialGradient>
<path d="M37.297,32.337l-0.91,0.925c0,0-0.549,0-0.576,0.224c-0.012,0.095-0.045,0.508-0.135,0.72  c-0.182,0.129-0.402,0.557-0.402,0.557s-0.113,0.822,0.492,0.682C36.373,35.306,38.232,32.785,37.297,32.337z" fill="url(#SVGID_12_)"/>
<rect fill="none" height="60" width="60"/>
</g>
</svg>
