<?xml version="1.0" encoding="UTF-8" standalone="no"?>
<!DOCTYPE svg PUBLIC "-//W3C//DTD SVG 1.1 Tiny//EN" "http://www.w3.org/Graphics/SVG/1.1/DTD/svg11-tiny.dtd">
<svg xmlns="http://www.w3.org/2000/svg" xmlns:xlink="http://www.w3.org/1999/xlink" baseProfile="tiny" height="30" viewBox="0 0 30 30" width="30">
<g>
<rect fill="none" height="30" width="30"/>
<path d="M15.591,29c-0.845,0-1.65-0.228-2.338-0.659c-0.373-0.132-0.747-0.308-1.116-0.522H9.091  c-2.506,0-4.545-2.039-4.545-4.545v-0.378c-0.774-0.247-1.49-0.751-2.076-1.476l-0.092-0.13c-0.146-0.187-0.309-0.417-0.453-0.671  c-0.041-0.07-0.077-0.148-0.112-0.227l-0.063-0.129c-0.091-0.18-0.181-0.359-0.256-0.555c-0.049-0.127-0.089-0.266-0.128-0.404  L1.29,19.057c-0.037-0.113-0.073-0.227-0.101-0.347c-0.081-0.358-0.136-0.723-0.165-1.085c-0.028-0.353-0.031-0.715-0.008-1.074  c0.007-0.119,0.024-0.234,0.042-0.35l0.029-0.221c0.018-0.15,0.036-0.3,0.067-0.443c0.038-0.178,0.089-0.346,0.143-0.515l0.05-0.167  c0.024-0.086,0.049-0.17,0.079-0.251c0.091-0.243,0.202-0.466,0.319-0.687c0.026-0.057,0.051-0.107,0.079-0.154  c0.136-0.238,0.298-0.471,0.492-0.703c0.34-0.403,0.707-0.719,1.103-0.949C3.928,5.832,8.905,1,15,1s11.072,4.832,11.581,11.111  c0.394,0.229,0.757,0.537,1.083,0.925c0.213,0.257,0.375,0.489,0.516,0.733l0.072,0.143c0.119,0.227,0.23,0.449,0.322,0.693  c0.029,0.08,0.055,0.164,0.078,0.25l0.051,0.167c0.053,0.169,0.104,0.337,0.143,0.517c0.03,0.142,0.049,0.291,0.066,0.441  l0.029,0.221c0.019,0.115,0.035,0.23,0.043,0.352c0.021,0.357,0.02,0.72-0.009,1.074c-0.028,0.36-0.084,0.725-0.164,1.08  c-0.028,0.124-0.065,0.242-0.104,0.359l-0.068,0.229c-0.04,0.143-0.081,0.283-0.133,0.416c-0.074,0.196-0.165,0.377-0.257,0.557  l-0.062,0.127c-0.035,0.077-0.07,0.154-0.111,0.227c-0.145,0.252-0.307,0.482-0.477,0.701l-0.073,0.103  c-0.839,1.038-1.933,1.623-3.083,1.65c0,0-0.172,0.011-0.217,0.011c-0.734-0.039-1.35-0.281-1.834-0.713  c-0.498,1.055-1.043,2.051-1.623,2.969l-0.047,0.106l-0.08,0.118c-0.185,0.246-0.39,0.49-0.605,0.729  c-0.201,0.218-0.339,0.359-0.484,0.496l-0.104,0.094c-0.133,0.119-0.241,0.213-0.348,0.301C18.429,28.295,17.078,29,15.591,29  L15.591,29z" fill-opacity="0.6" stroke-opacity="0.6"/>
<radialGradient cx="-109.0669" cy="28.1328" gradientTransform="matrix(0.9352 0 0 0.9448 112.9225 -13.3229)" gradientUnits="userSpaceOnUse" id="SVGID_1_" r="18.8576">
<stop offset="0" style="stop-color:#FFE2D9"/>
<stop offset="0.5091" style="stop-color:#FFC6B3"/>
<stop offset="0.7636" style="stop-color:#FFA98E"/>
<stop offset="1" style="stop-color:#E88160"/>
</radialGradient>
<path d="M23.583,16.562c-0.045-0.021-0.093-0.025-0.139-0.039V16.52c-0.009-0.001-0.016-0.003-0.026-0.004  c-0.067-0.018-0.135-0.033-0.207-0.038c-8.628-1.522-12.587-6.368-12.886-5.084c-0.237,1.021-2.656,3.228-3.923,4.33  c0.01,0.048,0.017,0.094,0.026,0.142c0,0,0.046,0.228,0.142,0.612c-0.101,0.011-0.2,0.03-0.295,0.073  c-0.806,0.344-1.059,1.686-0.564,2.992c0.495,1.31,1.548,2.092,2.353,1.749c0.051-0.021,0.094-0.059,0.138-0.087  c0.47,1.066,1.044,2.212,1.749,3.359c1.18,1.422,2.988,3.091,4.984,3.091c2.415,0,3.894-1.341,4.909-2.69  c0.025-0.057,0.053-0.111,0.08-0.157c0.754-1.192,1.363-2.389,1.859-3.504c0.788,0.278,1.801-0.464,2.303-1.724  C24.607,18.277,24.381,16.926,23.583,16.562z" fill="url(#SVGID_1_)"/>
<path d="M19.673,25.178c-0.265-1.736-1.984-3.087-4.082-3.087c-1.524,0-2.844,0.718-3.561,1.772H9.556  c0.133,0.234,0.25,0.466,0.394,0.701c1.18,1.422,2.988,3.091,4.984,3.091C17.221,27.655,18.663,26.452,19.673,25.178z" fill-opacity="0.2" stroke-opacity="0.2"/>
<linearGradient gradientUnits="userSpaceOnUse" id="SVGID_2_" x1="14.8647" x2="14.8647" y1="4.5264" y2="15.6558">
<stop offset="0" style="stop-color:#8A5D3B"/>
<stop offset="0.3758" style="stop-color:#632F00"/>
<stop offset="1" style="stop-color:#361700"/>
</linearGradient>
<path d="M14.691,4.363c-2.99,0-4.43,1.381-5.541,2.821C7.344,7.467,4.48,9.146,6.503,16.5  c1.267-1.102,3.585-4.086,3.822-5.106c0.302-1.296,4.328,3.652,13.12,5.126c0.103-0.41,0.15-0.654,0.15-0.654  C24.976,9.587,21.972,4.609,14.691,4.363z" fill="url(#SVGID_2_)"/>
<linearGradient gradientUnits="userSpaceOnUse" id="SVGID_3_" x1="15.0005" x2="15.0005" y1="13.9004" y2="2.2864">
<stop offset="0" style="stop-color:#838487"/>
<stop offset="0.4727" style="stop-color:#BDBEC3"/>
<stop offset="1" style="stop-color:#E4E6EB"/>
</linearGradient>
<path d="M6.389,13.818c-0.015-0.219-0.031-0.434-0.031-0.656c0-5.068,3.876-9.191,8.642-9.191  s8.643,4.123,8.643,9.191c0,0.223-0.018,0.438-0.031,0.656h1.993c0.013-0.219,0.032-0.434,0.032-0.656C25.637,6.996,20.875,2,15,2  S4.364,6.996,4.364,13.162c0,0.223,0.02,0.438,0.032,0.656H6.389z" fill="url(#SVGID_3_)"/>
<linearGradient gradientUnits="userSpaceOnUse" id="SVGID_4_" x1="9.6821" x2="9.6821" y1="26.708" y2="20.8698">
<stop offset="0" style="stop-color:#969696"/>
<stop offset="1" style="stop-color:#464646"/>
</linearGradient>
<path d="M13.818,25.045H9.091c-0.978,0-1.772-0.795-1.772-1.771v-2.364H5.545v2.364  c0,1.949,1.596,3.545,3.545,3.545h4.728V25.045z" fill="url(#SVGID_4_)"/>
<linearGradient gradientUnits="userSpaceOnUse" id="SVGID_5_" x1="9.6821" x2="9.6821" y1="21.2051" y2="25.5689">
<stop offset="0" style="stop-color:#838487"/>
<stop offset="0.4727" style="stop-color:#BDBEC3"/>
<stop offset="1" style="stop-color:#E4E6EB"/>
</linearGradient>
<path d="M7.318,23.273v-1.183v-1.182H5.545v1.182c0,1.95,1.596,3.546,3.545,3.546h4.728v-0.592H9.091  C8.113,25.045,7.318,24.25,7.318,23.273z" fill="url(#SVGID_5_)"/>
<path d="M25.604,13.816C25.278,7.959,20.663,3.313,15,3.313S4.722,7.959,4.396,13.816c0,0,0,0,0,0.002h1.994  c-0.015-0.219-0.031-0.434-0.031-0.656c0-5.068,3.876-9.191,8.642-9.191s8.643,4.123,8.643,9.191c0,0.223-0.018,0.438-0.031,0.656  h1.993C25.604,13.816,25.604,13.816,25.604,13.816z" fill-opacity="0.2" stroke-opacity="0.2"/>
<linearGradient gradientUnits="userSpaceOnUse" id="SVGID_6_" x1="15.5903" x2="15.5903" y1="23.2168" y2="27.3616">
<stop offset="0" style="stop-color:#4EDEFF"/>
<stop offset="0.7636" style="stop-color:#0487BF"/>
<stop offset="1" style="stop-color:#059FE0"/>
</linearGradient>
<ellipse cx="15.591" cy="25.635" fill="url(#SVGID_6_)" rx="2.954" ry="2.365"/>
<path d="M15.591,24.455c1.376,0,2.521,0.754,2.851,1.771c0.062-0.189,0.104-0.386,0.104-0.592  c0-1.305-1.321-2.361-2.954-2.361c-1.632,0-2.955,1.057-2.955,2.361c0,0.206,0.043,0.402,0.104,0.592  C13.07,25.209,14.215,24.455,15.591,24.455z" fill="#FFFFFF" fill-opacity="0.3" stroke-opacity="0.3"/>
<linearGradient gradientUnits="userSpaceOnUse" id="SVGID_7_" x1="4.9546" x2="4.9546" y1="12.833" y2="22.1473">
<stop offset="0" style="stop-color:#7A7A7A"/>
<stop offset="1" style="stop-color:#212121"/>
</linearGradient>
<path d="M2.021,17.547c0.207,2.609,1.889,4.644,3.758,4.539c1.867-0.102,2.29-2.248,2.082-4.857  c-0.207-2.608-0.968-4.69-2.837-4.589C3.156,12.742,1.813,14.939,2.021,17.547z" fill="url(#SVGID_7_)"/>
<linearGradient gradientUnits="userSpaceOnUse" id="SVGID_8_" x1="4.2163" x2="4.2163" y1="12.8813" y2="22.1374">
<stop offset="0" style="stop-color:#4EDEFF"/>
<stop offset="0.7636" style="stop-color:#0487BF"/>
<stop offset="1" style="stop-color:#059FE0"/>
</linearGradient>
<path d="M6.432,18.152c0-2.214-0.646-4.167-1.641-5.467c-1.742,0.27-2.969,2.365-2.77,4.861  c0.204,2.566,1.834,4.564,3.666,4.533C6.156,20.954,6.432,19.605,6.432,18.152z" fill="url(#SVGID_8_)"/>
<path d="M2.064,17.828c0.238-1.885,1.303-3.335,2.727-3.555c0.897,1.174,1.484,2.893,1.595,4.842  c0.026-0.316,0.045-0.636,0.045-0.963c0-2.214-0.646-4.167-1.641-5.467c-1.742,0.27-2.969,2.365-2.77,4.861  C2.029,17.645,2.052,17.732,2.064,17.828z" fill="#FFFFFF" fill-opacity="0.3" stroke-opacity="0.3"/>
<linearGradient gradientTransform="matrix(-1 0 0 1 -911 0)" gradientUnits="userSpaceOnUse" id="SVGID_9_" x1="-936.0454" x2="-936.0454" y1="12.833" y2="22.1473">
<stop offset="0" style="stop-color:#7A7A7A"/>
<stop offset="1" style="stop-color:#212121"/>
</linearGradient>
<path d="M27.979,17.547c-0.207,2.609-1.889,4.644-3.758,4.539c-1.867-0.102-2.289-2.248-2.082-4.857  c0.207-2.608,0.969-4.69,2.837-4.589C26.844,12.742,28.188,14.939,27.979,17.547z" fill="url(#SVGID_9_)"/>
<linearGradient gradientTransform="matrix(-1 0 0 1 -911 0)" gradientUnits="userSpaceOnUse" id="SVGID_10_" x1="-936.7837" x2="-936.7837" y1="12.8813" y2="22.1374">
<stop offset="0" style="stop-color:#4EDEFF"/>
<stop offset="0.7636" style="stop-color:#0487BF"/>
<stop offset="1" style="stop-color:#059FE0"/>
</linearGradient>
<path d="M23.568,18.152c0-2.214,0.646-4.167,1.641-5.467c1.742,0.27,2.969,2.365,2.77,4.861  c-0.203,2.566-1.834,4.564-3.666,4.533C23.844,20.954,23.568,19.605,23.568,18.152z" fill="url(#SVGID_10_)"/>
<path d="M27.936,17.828c-0.237-1.885-1.303-3.335-2.727-3.555c-0.896,1.174-1.484,2.893-1.596,4.842  c-0.025-0.316-0.045-0.636-0.045-0.963c0-2.214,0.646-4.167,1.641-5.467c1.742,0.27,2.969,2.365,2.77,4.861  C27.971,17.645,27.948,17.732,27.936,17.828z" fill="#FFFFFF" fill-opacity="0.3" stroke-opacity="0.3"/>
</g>
</svg>
