<?xml version="1.0" encoding="UTF-8"?>
<!DOCTYPE svg PUBLIC "-//W3C//DTD SVG 1.1 Tiny//EN" "http://www.w3.org/Graphics/SVG/1.1/DTD/svg11-tiny.dtd">
<svg baseProfile="tiny" height="30px" version="1.1" viewBox="0 0 30 30" width="30px" x="0px" xmlns="http://www.w3.org/2000/svg" xmlns:xlink="http://www.w3.org/1999/xlink" y="0px">
<path d="M26.831,15.586h-1.164v-1.172h1.164V15.586L26.831,15.586z M24.503,15.586h-1.164v-1.172h1.164V15.586  L24.503,15.586z M22.173,15.586h-1.164v-1.172h1.164V15.586L22.173,15.586z M11.318,15.586h-1.165v-1.172h1.165V15.586  L11.318,15.586z M8.989,15.586H7.826v-1.172h1.163V15.586L8.989,15.586z M6.662,15.586H5.497v-1.172h1.165V15.586L6.662,15.586z   M4.333,15.586H3.169v-1.172h1.164V15.586L4.333,15.586z" fill="#231F20"/>
<path d="M26.326,18.707c-0.496-0.275-1.027-0.414-1.559-0.449c-0.033-0.01-0.254-0.008-0.282-0.02  c-0.808,0.067-1.919-0.308-3.271-1.046c-0.072-0.037-0.146-0.067-0.219-0.106c-0.427-0.238-0.808-0.5-1.146-0.77  c-0.467-0.354-0.85-0.709-1.129-1.045c-0.092-0.104-0.189-0.203-0.289-0.302c0.101-0.098,0.199-0.197,0.293-0.299  c0.289-0.334,0.673-0.687,1.139-1.035c0.344-0.268,0.729-0.524,1.152-0.759c0.078-0.039,0.146-0.067,0.221-0.104  c1.361-0.729,2.479-1.092,3.282-1.016c0.03-0.011,0.252-0.007,0.282-0.016c0.531-0.029,1.063-0.162,1.563-0.436  c1.731-0.94,2.402-3.052,1.499-4.704c-0.902-1.658-3.038-2.232-4.771-1.291c-1.729,0.942-2.4,3.055-1.5,4.706  c0.104,0.19,0.229,0.361,0.363,0.525c-0.232,0.37-1.236,0.675-1.236,0.675c-1.932,0.804-3.446,1.511-4.493,2.03l-0.061-0.033  l-4.075-2.272v0.001L7.88,8.593L7.708,8.495C6.952,8.092,3.862,6.64,1.793,8.655l11.279,6.288l-11.337,6.18  c2.051,2.035,5.156,0.613,5.914,0.217l0.175-0.094l4.234-2.309l4.096-2.237l0.059-0.028c1.042,0.528,2.548,1.249,4.47,2.067  c0,0,1,0.319,1.23,0.689c-0.137,0.16-0.26,0.332-0.365,0.52c-0.918,1.646-0.268,3.761,1.455,4.722  c1.721,0.963,3.862,0.404,4.78-1.24C28.7,21.782,28.049,19.668,26.326,18.707z M23.719,6.582c0.957-0.521,2.158-0.17,2.682,0.789  c0.521,0.957,0.17,2.159-0.789,2.682c-0.961,0.523-2.158,0.168-2.682-0.788C22.406,8.303,22.76,7.106,23.719,6.582z M26.322,22.641  c-0.529,0.955-1.734,1.296-2.688,0.764c-0.953-0.529-1.295-1.732-0.764-2.688c0.528-0.955,1.733-1.297,2.688-0.767  C26.514,20.483,26.855,21.688,26.322,22.641z" fill="#231F20"/>
<rect fill="none" height="30" width="30"/>
</svg>
