<?xml version="1.0" encoding="UTF-8" standalone="no"?>
<!DOCTYPE svg PUBLIC "-//W3C//DTD SVG 1.1 Tiny//EN" "http://www.w3.org/Graphics/SVG/1.1/DTD/svg11-tiny.dtd">
<svg xmlns="http://www.w3.org/2000/svg" xmlns:xlink="http://www.w3.org/1999/xlink" baseProfile="tiny" height="30px" style="enable-background:new 0 0 30 30;" version="1.1" viewBox="0 0 30 30" width="30px" x="0px" y="0px">
<path d="M16.46,11.48v-3.576h-3.577v2.608h-1.194v-2.606h-3.58v3.581h2.609l-0.01,1.205-2.613,0.016,0.015,3.553,3.556-0.013,0.007-2.597h1.21v2.609h3.578v-3.581h-2.61v-1.192h2.605zm-3.56,1.2h-0.014v0.018h-1.21v-1.209h0.017v-0.014h1.194v0.014h0.014v1.187z"/>
<polygon points="12.3,3.709,18.01,9.396,18.68,8.726,12.27,2.296,5.854,8.708,6.596,9.432"/>
<polygon points="24.67,22.35,7.215,22.35,10.99,28.39,12.84,27.24,11.16,24.54,11.17,24.54,11.17,24.54,24.67,24.54"/>
<polygon points="20.9,14,19.04,15.16,20.72,17.85,7.215,17.85,7.215,20.04,24.67,20.03"/>
<rect fill="none" height="29.03" width="29.03" x="0.746" y="0.83"/>
<rect fill="none" height="29.03" width="29.03" x="0.746" y="0.83"/>
</svg>
