<?xml version="1.0" encoding="UTF-8"?>
<!DOCTYPE svg PUBLIC "-//W3C//DTD SVG 1.1 Tiny//EN" "http://www.w3.org/Graphics/SVG/1.1/DTD/svg11-tiny.dtd">
<svg baseProfile="tiny" height="72px" version="1.1" viewBox="0 0 72 72" width="72px" x="0px" xmlns="http://www.w3.org/2000/svg" xmlns:xlink="http://www.w3.org/1999/xlink" y="0px">
<path d="M13.8,35.3c0.2-5.6,2.4-10.7,6-14.5L10,11.1C4,17.4,0.2,25.9,0,35.3H13.8z" fill="#424242"/>
<path d="M20.8,19.8c3.801-3.6,8.9-5.8,14.5-6V0c-9.4,0.2-17.9,4-24.3,10L20.8,19.8z" fill="#424242"/>
<path d="M36.701,0v13.8c5.6,0.2,10.699,2.4,14.5,6L61,10C54.701,4,46.099,0.2,36.701,0z" fill="#0067B1"/>
<path d="M19.8,51.2c-3.6-3.8-5.8-8.9-6-14.5H0C0.2,46.1,4,54.7,10,61L19.8,51.2z" fill="#82C341"/>
<path d="M52.201,20.8c3.6,3.8,5.799,8.9,6,14.5H72C71.8,25.9,68,17.4,62,11L52.201,20.8z" fill="#0067B1"/>
<path d="M35.3,58.2c-5.6-0.2-10.699-2.4-14.5-6L11.101,62c6.299,6.1,14.799,9.9,24.299,10V58.2H35.3z" fill="#82C341"/>
<path d="M51.201,52.2c-3.801,3.6-8.9,5.8-14.5,6V72C46.099,71.8,54.599,68,61,62L51.201,52.2z" fill="#0067B1"/>
<path d="M58.3,36.7L58.3,36.7c-0.201,5.6-2.5,10.7-6.1,14.5L62,61c6.1-6.3,9.9-14.8,10-24.3H58.3z" fill="#0067B1"/>
<polygon fill="#0067B1" points="30.8,65.2 35.3,58.3 35.3,72 "/>
</svg>
