<?xml version="1.0" encoding="utf-8"?>
<!-- Generator: Adobe Illustrator 14.0.0, SVG Export Plug-In  -->
<!DOCTYPE svg PUBLIC "-//W3C//DTD SVG 1.1//EN" "http://www.w3.org/Graphics/SVG/1.1/DTD/svg11.dtd" [
	<!ENTITY ns_flows "http://ns.adobe.com/Flows/1.0/">
]>
<svg version="1.1"
	 xmlns="http://www.w3.org/2000/svg" xmlns:xlink="http://www.w3.org/1999/xlink" xmlns:a="http://ns.adobe.com/AdobeSVGViewerExtensions/3.0/"
	 x="0px" y="0px" width="30px" height="30px" viewBox="0 0 30 30" enable-background="new 0 0 30 30" xml:space="preserve">
<defs>
</defs>
<g opacity="0.5">
	<rect fill="none" width="30" height="30"/>
</g>
<path d="M29,13l-8.982-1.1l-3.212-6.315C16.934,6.204,17,6.844,17,7.5c0,5.238-4.262,9.5-9.5,9.5c-0.137,0-0.27-0.015-0.405-0.021
	L9.5,19.316L8,28l8-4.1l8,4.1l-1.5-8.684L29,13z"/>
<path d="M15,7.5C15,3.364,11.636,0,7.5,0S0,3.364,0,7.5S3.364,15,7.5,15S15,11.636,15,7.5z M13,7.5c0,2.857-2.191,5.212-4.982,5.474
	L12,7H8.973C8.787,4.948,7.568,3.19,5.838,2.258C6.363,2.092,6.921,2,7.5,2C10.533,2,13,4.468,13,7.5z M2,7.5
	c0-1.521,0.621-2.898,1.621-3.896C5.354,3.878,6.706,5.258,6.945,7H4l3.983,5.976C7.824,12.989,7.663,13,7.5,13
	C4.467,13,2,10.532,2,7.5z"/>
</svg>
