<?xml version="1.0" ?>
<!DOCTYPE svg  PUBLIC '-//W3C//DTD SVG 1.1//EN'  'http://www.w3.org/Graphics/SVG/1.1/DTD/svg11.dtd'>
<svg height="30" viewBox="0 0 30 30" width="30" xmlns="http://www.w3.org/2000/svg" xmlns:xlink="http://www.w3.org/1999/xlink">
<g>
<defs>
</defs>
<rect fill="none" height="30" width="30"/>
<rect fill-opacity="0.6" height="26" width="28" x="1" y="2"/>
<linearGradient gradientUnits="userSpaceOnUse" id="SVGID_1_" x1="15.0005" x2="15.0005" y1="27" y2="3.4999">
	<stop offset="0" style="stop-color:#000000"/>
	<stop offset="1" style="stop-color:#666666"/>
</linearGradient>
<rect fill="url(#SVGID_1_)" height="24" width="26" x="2" y="3"/>
<linearGradient gradientUnits="userSpaceOnUse" id="SVGID_2_" x1="15.0005" x2="15.0005" y1="21.125" y2="9.0729">
	<stop offset="0" style="stop-color:#36B5FF"/>
	<stop offset="1" style="stop-color:#1B66D8"/>
</linearGradient>
<rect fill="url(#SVGID_2_)" height="12" width="24" x="3" y="9"/>
<rect fill="#F1F1F2" height="2" width="3" x="3" y="5"/>
<rect fill="#F1F1F2" height="2" width="3" x="8" y="5"/>
<rect fill="#F1F1F2" height="2" width="4" x="13" y="5"/>
<rect fill="#F1F1F2" height="2" width="3" x="19" y="5"/>
<rect fill="#F1F1F2" height="2" width="3" x="24" y="5"/>
<rect fill="#F1F1F2" height="2" width="3" x="3" y="23"/>
<rect fill="#F1F1F2" height="2" width="3" x="8" y="23"/>
<rect fill="#F1F1F2" height="2" width="4" x="13" y="23"/>
<rect fill="#F1F1F2" height="2" width="3" x="19" y="23"/>
<rect fill="#F1F1F2" height="2" width="3" x="24" y="23"/>
<rect fill="#FFFFFF" height="1" opacity="0.3" width="26" x="2" y="3"/>
<rect fill="#FFFFFF" height="1" opacity="0.1" width="26" x="2" y="26"/>
<rect fill="#FFFFFF" height="1" opacity="0.3" width="24" x="3" y="20"/>
<rect fill="#00006B" height="1" opacity="0.2" width="24" x="3" y="9"/>
</g>
</svg>