<?xml version="1.0" encoding="UTF-8"?>
<!DOCTYPE svg PUBLIC "-//W3C//DTD SVG 1.1 Tiny//EN" "http://www.w3.org/Graphics/SVG/1.1/DTD/svg11-tiny.dtd">
<svg baseProfile="tiny" height="15px" version="1.1" viewBox="0 0 15 15" width="15px" x="0px" xmlns="http://www.w3.org/2000/svg" xmlns:xlink="http://www.w3.org/1999/xlink" y="0px">
<g>
<path d="M0.002,0v0.005c0,4.96,4.037,8.995,9,8.995H15V0   H0.002z" fill="#14141E" fill-opacity="0.1" fill-rule="evenodd" stroke-opacity="0.1"/>
<path d="M0.001,0C0.005,4.404,3.592,7.987,8,7.987h7V0H0.001z" fill="url(#SVGID_1_)" fill-rule="evenodd"/>
<path d="M8,6.988C4.143,6.988,1.005,3.854,1.001,0h-1   C0.005,4.405,3.592,7.987,8,7.987h7V6.988H8z" fill-opacity="0.2" fill-rule="evenodd" stroke-opacity="0.2"/>
<path d="M8,5.988C4.694,5.988,2.005,3.304,2.001,0h-1   C1.005,3.854,4.143,6.988,8,6.988h7v-1H8z" fill="#FFFFFF" fill-opacity="0.2" fill-rule="evenodd" stroke-opacity="0.2"/>
<rect fill="none" height="15" width="15"/>
<defs>
<linearGradient gradientUnits="userSpaceOnUse" id="SVGID_1_" x1="7.5586" x2="7.2052" y1="8.6934" y2="-44.6244">
<stop offset="0" style="stop-color:#65B8CC"/>
<stop offset="1" style="stop-color:#306D8C"/>
</linearGradient>
</defs>
</g>
</svg>
