<?xml version="1.0" encoding="UTF-8"?>
<!DOCTYPE svg PUBLIC "-//W3C//DTD SVG 1.1 Tiny//EN" "http://www.w3.org/Graphics/SVG/1.1/DTD/svg11-tiny.dtd">
<svg baseProfile="tiny" height="30" viewBox="0 0 30 30" width="30" xmlns="http://www.w3.org/2000/svg" xmlns:xlink="http://www.w3.org/1999/xlink">
<rect fill="none" height="30" width="30"/>
<rect fill="none" height="30" width="30"/>
<rect height="1.5" transform="matrix(0.7071 0.7072 -0.7072 0.7071 19.6001 4.8865)" width="4.501" x="1.652" y="25.35"/>
<path d="M25.645,4.355c-3.809-3.807-9.981-3.807-13.789,0C8.41,7.802,8.093,13.18,10.885,16.994l-1.681,1.68l-0.53-0.531 l-4.773,4.773l3.182,3.183l4.773-4.772l-0.53-0.531l1.681-1.681c3.814,2.791,9.193,2.475,12.638-0.972 C29.453,14.336,29.451,8.162,25.645,4.355z M23.523,16.022c-2.633,2.631-6.916,2.632-9.546,0C12.703,14.748,12,13.052,12,11.25 c0-1.804,0.703-3.499,1.977-4.774c2.63-2.631,6.914-2.631,9.546,0C26.154,9.109,26.154,13.391,23.523,16.022z"/>
</svg>
