<?xml version="1.0" encoding="UTF-8" standalone="no"?>
<!DOCTYPE svg PUBLIC "-//W3C//DTD SVG 1.1 Tiny//EN" "http://www.w3.org/Graphics/SVG/1.1/DTD/svg11-tiny.dtd">
<svg xmlns="http://www.w3.org/2000/svg" xmlns:xlink="http://www.w3.org/1999/xlink" baseProfile="tiny" height="30px" version="1.1" viewBox="0 0 30 30" width="30px" x="0px" y="0px">
<g fill-opacity="0.5" stroke-opacity="0.5">
<rect fill="none" height="30" width="30"/>
</g>
<path d="M13.914,18.463c0.347-0.736,0.777-1.424,1.294-2.041l-2.747-2.537L18,9l-8-8v10.282L5.563,6.986L4,8.549l5.543,5.336  L4,19.286l1.563,1.562L10,16.554V27l3.113-3.113C13.046,23.433,13,22.973,13,22.5c0-0.79,0.107-1.554,0.29-2.288l-1.286,1.286  v-4.944L13.914,18.463z M12.004,6.336l2.473,2.473l-2.473,2.474V6.336z"/>
<path d="M22.5,15c-4.136,0-7.5,3.364-7.5,7.5s3.364,7.5,7.5,7.5s7.5-3.364,7.5-7.5S26.636,15,22.5,15z M22.5,28  c-3.033,0-5.5-2.468-5.5-5.5s2.467-5.5,5.5-5.5s5.5,2.468,5.5,5.5S25.533,28,22.5,28z"/>
<polygon points="24,21 24,18 21,18 21,21 18,21 18,24 21,24 21,27 24,27 24,24 27,24 27,21 "/>
</svg>
