<?xml version="1.0" encoding="utf-8"?>
<!-- Generator: Adobe Illustrator 13.0.2, SVG Export Plug-In  -->
<!DOCTYPE svg PUBLIC "-//W3C//DTD SVG 1.1//EN" "http://www.w3.org/Graphics/SVG/1.1/DTD/svg11.dtd" [
	<!ENTITY ns_flows "http://ns.adobe.com/Flows/1.0/">
]>
<svg version="1.1"
	 xmlns="http://www.w3.org/2000/svg" xmlns:xlink="http://www.w3.org/1999/xlink" xmlns:a="http://ns.adobe.com/AdobeSVGViewerExtensions/3.0/"
	 x="0px" y="0px" width="30px" height="30px" viewBox="0 0 30 30" enable-background="new 0 0 30 30" xml:space="preserve">
<defs>
</defs>
<rect fill="none" width="30" height="30"/>
<path fill="#000000" d="M28.5,25.5c0,1.655-1.342,3-3,3h-21c-1.656,0-3-1.345-3-3v-21c0-1.656,1.344-3,3-3h21c1.658,0,3,1.344,3,3
	V25.5z"/>
<polygon fill="#FFFFFF" points="24,12.75 17.25,12.75 17.25,6 12.75,6 12.75,12.75 6,12.75 6,17.25 12.75,17.25 12.75,24 17.25,24 
	17.25,17.25 24,17.25 "/>
</svg>
