<?xml version="1.0" encoding="UTF-8"?>
<!DOCTYPE svg PUBLIC "-//W3C//DTD SVG 1.1 Tiny//EN" "http://www.w3.org/Graphics/SVG/1.1/DTD/svg11-tiny.dtd">
<svg baseProfile="tiny" height="30px" version="1.1" viewBox="0 0 30 30" width="30px" x="0px" xmlns="http://www.w3.org/2000/svg" xmlns:xlink="http://www.w3.org/1999/xlink" y="0px">
<g fill-opacity="0.5" stroke-opacity="0.5">
<rect fill="none" height="30" width="30"/>
</g>
<path d="M15,2c-5.238,0-9.5,3.701-9.5,8.25,0,2.645,1.417,5.395,3.501,7.01l1.53,4.74h8.938l1.53-4.738c2.085-1.617,3.501-4.369,3.501-7.012,0-4.549-4.26-8.25-9.5-8.25zm3.47,13.33l-1.19,3.67h-4.57l-1.184-3.668c-1.819-0.93-3.03-3.21-3.03-5.08,0-2.9,2.91-5.25,6.5-5.25s6.5,2.35,6.5,5.25c0,1.87-1.21,4.15-3.03,5.08z"/>
<rect height="2" width="9" x="10.5" y="23"/>
<rect height="2" width="9" x="10.5" y="26"/>
</svg>
