<?xml version="1.0" encoding="UTF-8"?>
<!DOCTYPE svg PUBLIC "-//W3C//DTD SVG 1.1 Tiny//EN" "http://www.w3.org/Graphics/SVG/1.1/DTD/svg11-tiny.dtd">
<svg baseProfile="tiny" height="60" viewBox="0 0 60 60" width="60" xmlns="http://www.w3.org/2000/svg" xmlns:xlink="http://www.w3.org/1999/xlink">
<g>
<linearGradient gradientTransform="matrix(1 0 0 -1 91 146.5)" gradientUnits="userSpaceOnUse" id="SVGID_1_" x1="-54.0669" x2="-54.0669" y1="139.4531" y2="103.3668">
<stop offset="0" style="stop-color:#A8A9AA"/>
<stop offset="1" style="stop-color:#222021"/>
</linearGradient>
<path d="M36.943,42.277c-0.324,0-0.653-0.008-0.981-0.026  c-3.604-0.196-7.015-1.476-9.856-3.694l-1.355-1.061l5.695-8.912L19.82,29.211l-0.281-1.772c-0.199-1.239-0.264-2.498-0.194-3.748  c0.514-9.333,8.235-16.644,17.578-16.644c0.324,0,0.652,0.008,0.979,0.028c9.697,0.534,17.152,8.859,16.619,18.556  C54.007,34.966,46.286,42.277,36.943,42.277L36.943,42.277z" fill="url(#SVGID_1_)" fill-opacity="0.2" stroke-opacity="0.2"/>
<linearGradient gradientTransform="matrix(1 0 0 -1 91 146.5)" gradientUnits="userSpaceOnUse" id="SVGID_2_" x1="-54.0659" x2="-54.0659" y1="138.8398" y2="104.0079">
<stop offset="0" style="stop-color:#AAABAC"/>
<stop offset="1" style="stop-color:#000000"/>
</linearGradient>
<path d="M36.943,41.666c-0.314,0-0.631-0.008-0.947-0.025  c-3.48-0.19-6.771-1.423-9.515-3.565l-0.917-0.718l6.045-9.455l-11.271,0.665l-0.195-1.223c-0.19-1.197-0.254-2.414-0.188-3.62  c0.497-9.008,7.949-16.064,16.968-16.064c0.312,0,0.629,0.008,0.945,0.026c9.36,0.516,16.558,8.551,16.043,17.911  C53.413,34.607,45.96,41.666,36.943,41.666L36.943,41.666z" fill="url(#SVGID_2_)" fill-opacity="0.4" stroke-opacity="0.4"/>
<linearGradient gradientTransform="matrix(1 0 0 -1 91 146.5)" gradientUnits="userSpaceOnUse" id="SVGID_3_" x1="-71.8188" x2="-71.8188" y1="118.75" y2="99.8281">
<stop offset="0" style="stop-color:#A8A9AA"/>
<stop offset="1" style="stop-color:#222021"/>
</linearGradient>
<path d="M22.434,44.562c-4.944-3.465-8.39-8.594-9.699-14.443  l-0.531-2.369l6.06,0.068l0.362,1.436c0.986,3.938,3.318,7.479,6.566,9.973l0.965,0.741l-1.35,6.255L22.434,44.562z" fill="url(#SVGID_3_)" fill-opacity="0.2" stroke-opacity="0.2"/>
<linearGradient gradientTransform="matrix(1 0 0 -1 91 146.5)" gradientUnits="userSpaceOnUse" id="SVGID_4_" x1="-71.7769" x2="-71.7769" y1="118.1309" y2="100.9005">
<stop offset="0" style="stop-color:#AAABAC"/>
<stop offset="1" style="stop-color:#000000"/>
</linearGradient>
<path d="M22.784,44.059c-4.817-3.375-8.175-8.373-9.453-14.075  l-0.36-1.614l4.814,0.053l0.246,0.979c1.02,4.073,3.43,7.733,6.786,10.309l0.657,0.504l-1.073,4.977L22.784,44.059z" fill="url(#SVGID_4_)" fill-opacity="0.4" stroke-opacity="0.4"/>
<linearGradient gradientTransform="matrix(1 0 0 -1 91 146.5)" gradientUnits="userSpaceOnUse" id="SVGID_5_" x1="-75.9438" x2="-75.9438" y1="118.8262" y2="92.9324">
<stop offset="0" style="stop-color:#A8A9AA"/>
<stop offset="1" style="stop-color:#222021"/>
</linearGradient>
<path d="M21.076,51.664C12.924,47.046,7.365,39.128,5.831,29.939  l-0.379-2.265l6.01,0.068l0.286,1.559c1.277,7.041,5.551,13.198,11.727,16.895l1.184,0.709l-1.307,6.048L21.076,51.664z" fill="url(#SVGID_5_)" fill-opacity="0.2" stroke-opacity="0.2"/>
<linearGradient gradientTransform="matrix(1 0 0 -1 91 146.5)" gradientUnits="userSpaceOnUse" id="SVGID_6_" x1="-75.9272" x2="-75.9272" y1="118.207" y2="93.9141">
<stop offset="0" style="stop-color:#AAABAC"/>
<stop offset="1" style="stop-color:#000000"/>
</linearGradient>
<path d="M21.378,51.131C13.387,46.604,7.939,38.845,6.436,29.838  l-0.258-1.544l4.773,0.055l0.193,1.062c1.311,7.214,5.688,13.522,12.016,17.312l0.807,0.481l-1.038,4.805L21.378,51.131z" fill="url(#SVGID_6_)" fill-opacity="0.4" stroke-opacity="0.4"/>
<path d="M36.029,40.417c9.023,0.498,16.771-6.44,17.27-15.464c0.497-9.023-6.439-16.77-15.464-17.267  c-9.024-0.497-16.771,6.438-17.269,15.461c-0.062,1.161-0.004,2.335,0.18,3.489l0.107,0.677l11.918-0.704l-6.392,9.999l0.478,0.373  C29.502,39.044,32.674,40.232,36.029,40.417L36.029,40.417z" fill="#B1964C"/>
<linearGradient gradientTransform="matrix(-1 0 0 -1 93.6113 146.5)" gradientUnits="userSpaceOnUse" id="SVGID_7_" x1="56.6777" x2="56.6777" y1="138.1436" y2="106.9247">
<stop offset="0" style="stop-color:#D6CEA2"/>
<stop offset="0.0061" style="stop-color:#D6CEA2"/>
<stop offset="0.362" style="stop-color:#B39C4D"/>
<stop offset="0.7485" style="stop-color:#AC8A4A"/>
<stop offset="0.9877" style="stop-color:#B1964C"/>
<stop offset="1" style="stop-color:#B1964C"/>
</linearGradient>
<path d="M34.092,25.718l-12.656,0.808c-0.172-1.083-0.235-2.201-0.172-3.341  c0.477-8.654,7.879-15.281,16.533-14.804c8.654,0.478,15.283,7.878,14.805,16.534c-0.478,8.658-7.879,15.284-16.533,14.806  c-3.321-0.183-6.343-1.389-8.778-3.291L34.092,25.718z" fill="url(#SVGID_7_)"/>
<path d="M36.754,8.628c8.369-0.037,15.184,6.713,15.219,15.083  c0.006,1.467-0.199,2.882-0.582,4.225l-28.736-9.535C24.814,12.711,30.303,8.655,36.754,8.628z" fill="#FFFFFF" fill-opacity="0.2" stroke-opacity="0.2"/>
<path d="M37.758,9.078c8.258,0.456,14.604,7.542,14.146,15.798c-0.454,8.258-7.543,14.604-15.799,14.147  c-2.867-0.157-5.586-1.115-7.902-2.78l6.492-10.175l0.719-1.24l-1.419,0.201l-11.963,0.709c-0.094-0.835-0.119-1.678-0.073-2.514  C22.415,14.968,29.502,8.623,37.758,9.078 M37.797,8.381c-8.654-0.477-16.057,6.15-16.533,14.804c-0.063,1.14,0,2.258,0.172,3.341  l12.656-0.808L27.289,36.43c2.436,1.902,5.457,3.108,8.777,3.291c8.656,0.479,16.058-6.146,16.535-14.806  C53.08,16.26,46.451,8.859,37.797,8.381L37.797,8.381z" fill="#AC8A4A"/>
<linearGradient gradientTransform="matrix(-0.9985 -0.0551 0.0551 -0.9985 125.3945 147.2798)" gradientUnits="userSpaceOnUse" id="SVGID_8_" x1="100.0469" x2="100.0469" y1="121.1357" y2="125.0737">
<stop offset="0" style="stop-color:#B6905F"/>
<stop offset="1" style="stop-color:#4B4C4D"/>
</linearGradient>
<circle cx="32.293" cy="18.602" fill="url(#SVGID_8_)" r="2.093"/>
<path d="M24.795,39.854l-0.35-0.269c-3.467-2.661-5.954-6.442-7.008-10.645l-0.131-0.521l-3.57-0.04l0.193,0.859  c1.243,5.554,4.514,10.42,9.207,13.708l0.859,0.604L24.795,39.854z" fill="#4A8256"/>
<radialGradient cx="38.8857" cy="111.9141" gradientTransform="matrix(-0.9987 0.0501 -0.0501 -0.9987 63.8128 145.5348)" gradientUnits="userSpaceOnUse" id="SVGID_9_" r="5.7712">
<stop offset="0" style="stop-color:#71A949"/>
<stop offset="0.0307" style="stop-color:#71A949"/>
<stop offset="0.5644" style="stop-color:#4A8256"/>
<stop offset="0.9632" style="stop-color:#254F55"/>
<stop offset="1" style="stop-color:#254F55"/>
</radialGradient>
<path d="M16.762,29.109c1.118,4.471,3.734,8.323,7.258,11.027l-0.482,2.237  c-4.434-3.104-7.698-7.794-8.928-13.289L16.762,29.109z" fill="url(#SVGID_9_)"/>
<path d="M23.275,46.895l-0.43-0.259c-6.479-3.878-10.963-10.339-12.303-17.727l-0.104-0.565l-3.537-0.041  l0.137,0.822c1.475,8.824,6.811,16.426,14.642,20.861l0.825,0.469L23.275,46.895z" fill="#4A8256"/>
<radialGradient cx="43.2637" cy="108.6621" gradientTransform="matrix(-0.9987 0.0501 -0.0501 -0.9987 63.8128 145.5348)" gradientUnits="userSpaceOnUse" id="SVGID_10_" r="8.9084">
<stop offset="0" style="stop-color:#71A949"/>
<stop offset="0.0307" style="stop-color:#71A949"/>
<stop offset="0.5644" style="stop-color:#4A8256"/>
<stop offset="0.9632" style="stop-color:#254F55"/>
<stop offset="1" style="stop-color:#254F55"/>
</radialGradient>
<path d="M7.727,29.011l2.13,0.023c1.409,7.769,6.149,14.321,12.632,18.2l-0.464,2.146  C14.616,45.186,9.195,37.805,7.727,29.011z" fill="url(#SVGID_10_)"/>
<rect fill="none" height="60" width="60"/>
</g>
</svg>
