<?xml version="1.0" encoding="UTF-8"?>
<!DOCTYPE svg PUBLIC "-//W3C//DTD SVG 1.1 Tiny//EN" "http://www.w3.org/Graphics/SVG/1.1/DTD/svg11-tiny.dtd">
<svg baseProfile="tiny" height="30px" version="1.1" viewBox="0 0 30 30" width="30px" x="0px" xmlns="http://www.w3.org/2000/svg" xmlns:xlink="http://www.w3.org/1999/xlink" y="0px">
<g fill-opacity="0.5" stroke-opacity="0.5">
<rect fill="none" height="30" width="30"/>
</g>
<path d="M25.924,4.191c-4.1-4.102-10.748-4.102-14.849,0c-3.739,3.738-4.057,9.591-0.977,13.703L8.6,19.394l-0.707-0.707  l-4.949,4.95l3.535,3.535l4.95-4.95l-0.707-0.707l1.499-1.498c4.112,3.081,9.965,2.763,13.703-0.977  C30.025,14.939,30.025,8.291,25.924,4.191z M23.803,16.918c-2.924,2.925-7.683,2.924-10.605,0c-2.924-2.923-2.926-7.682,0-10.605  c2.924-2.925,7.682-2.924,10.605,0S26.728,13.994,23.803,16.918z"/>
<rect height="2" transform="matrix(-0.7071 -0.7071 0.7071 -0.7071 -15.0422 48.8201)" width="4.999" x="0.09" y="26.525"/>
<rect height="3" width="9" x="14" y="10"/>
</svg>
