<?xml version="1.0" encoding="UTF-8"?>
<!DOCTYPE svg PUBLIC "-//W3C//DTD SVG 1.1 Tiny//EN" "http://www.w3.org/Graphics/SVG/1.1/DTD/svg11-tiny.dtd">
<svg baseProfile="tiny" height="60px" version="1.1" viewBox="45 45 60 60" width="60px" x="0px" xmlns="http://www.w3.org/2000/svg" xmlns:xlink="http://www.w3.org/1999/xlink" y="0px">
<g>
<rect fill="none" height="52" width="52" x="49" y="49"/>
<path d="M98.079,67.5c-0.01-0.03-0.021-0.062-0.03-0.091l-5.431,1.765c0.01,0.029,0.021,0.062,0.029,0.091   c3.163,9.733-2.183,20.222-11.912,23.384c-9.734,3.162-20.221-2.183-23.384-11.916c-3.123-9.61,2.049-19.96,11.553-23.263   l-1.765-5.432c-12.498,4.275-19.315,17.854-15.22,30.46c4.135,12.725,17.852,19.717,30.58,15.582   C95.225,93.945,102.214,80.225,98.079,67.5z" fill="url(#SVGID_1_)"/>
<defs>
<linearGradient gradientTransform="matrix(0.309 0.9511 0.9511 -0.309 317.874 -442.879)" gradientUnits="userSpaceOnUse" id="SVGID_1_" x1="419.2471" x2="413.2627" y1="-400.54" y2="-368.3195">
<stop offset="0" style="stop-color:#3B87C0"/>
<stop offset="1" style="stop-color:#0069B2;stop-opacity:0"/>
</linearGradient>
</defs>
</g>
</svg>
