<?xml version="1.0" encoding="UTF-8"?>
<!DOCTYPE svg PUBLIC "-//W3C//DTD SVG 1.1 Tiny//EN" "http://www.w3.org/Graphics/SVG/1.1/DTD/svg11-tiny.dtd">
<svg baseProfile="tiny" height="30" viewBox="0 0 30 30" width="30" xmlns="http://www.w3.org/2000/svg" xmlns:xlink="http://www.w3.org/1999/xlink">
<g>
<path d="M14.963,24C13.328,24,12,22.671,12,21.038V3.962C12,2.328,13.328,1,14.963,1h10.074  C26.672,1,28,2.328,28,3.962v17.076C28,22.671,26.672,24,25.037,24H14.963z" fill-opacity="0.6" stroke-opacity="0.6"/>
<linearGradient gradientUnits="userSpaceOnUse" id="SVGID_1_" x1="20" x2="20" y1="-2.9512" y2="22.9533">
<stop offset="0" style="stop-color:#FFFFFF"/>
<stop offset="1" style="stop-color:#9C9D9D"/>
</linearGradient>
<path d="M27,21.038C27,22.121,26.121,23,25.037,23H14.963C13.879,23,13,22.121,13,21.038V3.962  C13,2.878,13.879,2,14.963,2h10.074C26.121,2,27,2.878,27,3.962V21.038z" fill="url(#SVGID_1_)"/>
<rect fill-opacity="0.6" height="14" stroke-opacity="0.6" width="12" x="14" y="3.5"/>
<linearGradient gradientUnits="userSpaceOnUse" id="SVGID_2_" x1="20" x2="20" y1="15.7803" y2="22.0757">
<stop offset="0" style="stop-color:#A8A9AA"/>
<stop offset="0.703" style="stop-color:#59595A"/>
<stop offset="1" style="stop-color:#818283"/>
</linearGradient>
<rect fill="url(#SVGID_2_)" height="4" width="4" x="18" y="18"/>
<linearGradient gradientUnits="userSpaceOnUse" id="SVGID_3_" x1="20" x2="20" y1="17.8896" y2="21.0373">
<stop offset="0" style="stop-color:#F0F0F0"/>
<stop offset="1" style="stop-color:#9C9D9D"/>
</linearGradient>
<rect fill="url(#SVGID_3_)" height="2" width="2" x="19" y="19"/>
<path d="M25.037,2H14.963C13.879,2,13,2.878,13,3.962v1C13,3.878,13.879,3,14.963,3h10.074  C26.121,3,27,3.878,27,4.962v-1C27,2.878,26.121,2,25.037,2z" fill="#FFFFFF" fill-opacity="0.2" stroke-opacity="0.2"/>
<linearGradient gradientUnits="userSpaceOnUse" id="SVGID_4_" x1="20" x2="20" y1="4" y2="16.9785">
<stop offset="0" style="stop-color:#70B4B6"/>
<stop offset="1" style="stop-color:#455188"/>
</linearGradient>
<rect fill="url(#SVGID_4_)" height="13" width="11" x="14.5" y="4"/>
<path d="M22.754,14.915h-5.508v-0.768c0-0.629,0.156-1.239,0.469-1.831s0.912-1.257,1.799-1.995  c0.469-0.395,0.79-0.72,0.964-0.976s0.261-0.544,0.261-0.864c0-0.832-0.449-1.248-1.348-1.248c-0.5,0-1.115,0.133-1.846,0.398V6.442  c0.801-0.238,1.58-0.357,2.338-0.357c0.93,0,1.635,0.196,2.115,0.589s0.721,0.972,0.721,1.737c0,0.367-0.06,0.703-0.179,1.008  s-0.295,0.591-0.527,0.858s-0.577,0.593-1.034,0.976c-0.504,0.422-0.871,0.753-1.102,0.993s-0.411,0.484-0.542,0.732  s-0.208,0.505-0.231,0.771h3.65V14.915z" fill="#FFFFFF"/>
<linearGradient gradientUnits="userSpaceOnUse" id="SVGID_5_" x1="14.9995" x2="14.9995" y1="19" y2="20.9844">
<stop offset="0" style="stop-color:#33784C"/>
<stop offset="1" style="stop-color:#1E4539"/>
</linearGradient>
<rect fill="url(#SVGID_5_)" height="2" width="2" x="14" y="19"/>
<linearGradient gradientUnits="userSpaceOnUse" id="SVGID_6_" x1="25" x2="25" y1="19" y2="21">
<stop offset="0" style="stop-color:#A15745"/>
<stop offset="1" style="stop-color:#622A37"/>
</linearGradient>
<rect fill="url(#SVGID_6_)" height="2" width="2" x="24" y="19"/>
<polygon fill="#FFFFFF" fill-opacity="0.2" points="25.5,10.13 25.5,4 14.5,4 14.5,11.269 " stroke-opacity="0.2"/>
<path d="M4.963,29C3.328,29,2,27.671,2,26.038V8.962C2,7.328,3.328,6,4.963,6h10.074C16.672,6,18,7.328,18,8.962  v17.076C18,27.671,16.672,29,15.037,29H4.963z" fill-opacity="0.6" stroke-opacity="0.6"/>
<linearGradient gradientUnits="userSpaceOnUse" id="SVGID_7_" x1="9.9995" x2="9.9995" y1="2.0488" y2="27.9533">
<stop offset="0" style="stop-color:#FFFFFF"/>
<stop offset="1" style="stop-color:#9C9D9D"/>
</linearGradient>
<path d="M17,26.038C17,27.121,16.121,28,15.037,28H4.963C3.879,28,3,27.121,3,26.038V8.962  C3,7.878,3.879,7,4.963,7h10.074C16.121,7,17,7.878,17,8.962V26.038z" fill="url(#SVGID_7_)"/>
<rect fill-opacity="0.6" height="14" stroke-opacity="0.6" width="12" x="4" y="8.5"/>
<linearGradient gradientUnits="userSpaceOnUse" id="SVGID_8_" x1="10" x2="10" y1="20.7803" y2="27.0757">
<stop offset="0" style="stop-color:#A8A9AA"/>
<stop offset="0.703" style="stop-color:#59595A"/>
<stop offset="1" style="stop-color:#818283"/>
</linearGradient>
<rect fill="url(#SVGID_8_)" height="4" width="4" x="8" y="23"/>
<linearGradient gradientUnits="userSpaceOnUse" id="SVGID_9_" x1="10" x2="10" y1="22.8896" y2="26.0373">
<stop offset="0" style="stop-color:#F0F0F0"/>
<stop offset="1" style="stop-color:#9C9D9D"/>
</linearGradient>
<rect fill="url(#SVGID_9_)" height="2" width="2" x="9" y="24"/>
<path d="M15.037,7H4.963C3.879,7,3,7.878,3,8.962v1C3,8.878,3.879,8,4.963,8h10.074  C16.121,8,17,8.878,17,9.962v-1C17,7.878,16.121,7,15.037,7z" fill="#FFFFFF" fill-opacity="0.2" stroke-opacity="0.2"/>
<linearGradient gradientUnits="userSpaceOnUse" id="SVGID_10_" x1="10" x2="10" y1="9" y2="21.9785">
<stop offset="0" style="stop-color:#70B4B6"/>
<stop offset="1" style="stop-color:#455188"/>
</linearGradient>
<rect fill="url(#SVGID_10_)" height="13" width="11" x="4.5" y="9"/>
<path d="M12.411,19.903H7.729v-1.031h1.43v-6.287l-1.57,0.334v-1.031l2.461-0.791h1.043v7.775h1.318V19.903z" fill="#FFFFFF"/>
<linearGradient gradientUnits="userSpaceOnUse" id="SVGID_11_" x1="5" x2="5" y1="24" y2="25.9844">
<stop offset="0" style="stop-color:#33784C"/>
<stop offset="1" style="stop-color:#1E4539"/>
</linearGradient>
<rect fill="url(#SVGID_11_)" height="2" width="2" x="4" y="24"/>
<linearGradient gradientUnits="userSpaceOnUse" id="SVGID_12_" x1="14.9995" x2="14.9995" y1="24" y2="26">
<stop offset="0" style="stop-color:#A15745"/>
<stop offset="1" style="stop-color:#622A37"/>
</linearGradient>
<rect fill="url(#SVGID_12_)" height="2" width="2" x="14" y="24"/>
<polygon fill="#FFFFFF" fill-opacity="0.2" points="15.5,15.13 15.5,9 4.5,9 4.5,16.269 " stroke-opacity="0.2"/>
<polygon fill-opacity="0.6" points="16,30 16,14 26.414,14 30,17.586 30,30 "/>
<linearGradient gradientUnits="userSpaceOnUse" id="SVGID_13_" x1="23" x2="23" y1="15" y2="29.0005">
<stop offset="0" style="stop-color:#FFFFFF"/>
<stop offset="1" style="stop-color:#B1B1B1"/>
</linearGradient>
<polygon fill="url(#SVGID_13_)" points="17,15 17,29 29,29 29,18 26,15 "/>
<polygon fill="#FFFFFF" fill-opacity="0.9" points="26,15 17,15 17,16 26,16 29,19 29,18 " stroke-opacity="0.9"/>
<linearGradient gradientUnits="userSpaceOnUse" id="SVGID_14_" x1="23" x2="23" y1="27.5" y2="20.5">
<stop offset="0" style="stop-color:#666666"/>
<stop offset="1" style="stop-color:#282828"/>
</linearGradient>
<rect fill="url(#SVGID_14_)" height="7" width="9" x="18.5" y="20.5"/>
<linearGradient gradientUnits="userSpaceOnUse" id="SVGID_15_" x1="23" x2="23" y1="21" y2="27">
<stop offset="0" style="stop-color:#D2C896"/>
<stop offset="1" style="stop-color:#B3964D"/>
</linearGradient>
<rect fill="url(#SVGID_15_)" height="6" width="8" x="19" y="21"/>
<linearGradient gradientUnits="userSpaceOnUse" id="SVGID_16_" x1="23" x2="23" y1="27" y2="21">
<stop offset="0" style="stop-color:#666666"/>
<stop offset="1" style="stop-color:#282828"/>
</linearGradient>
<path d="M19,23.75v0.5h2.25V27h0.5v-2.75h2.5V27h0.5v-2.75H27v-0.5H19z M24.75,21h-0.5v2h0.5V21z M21.75,21  h-0.5v2h0.5V21z" fill="url(#SVGID_16_)"/>
<rect fill="#FFFFFF" fill-opacity="0.3" height="1" stroke-opacity="0.3" width="8" x="19" y="21"/>
<rect fill="none" height="30" width="30"/>
</g>
</svg>
