<?xml version="1.0" encoding="UTF-8" standalone="no"?>
<!DOCTYPE svg PUBLIC "-//W3C//DTD SVG 1.1 Tiny//EN" "http://www.w3.org/Graphics/SVG/1.1/DTD/svg11-tiny.dtd">
<svg xmlns="http://www.w3.org/2000/svg" xmlns:xlink="http://www.w3.org/1999/xlink" baseProfile="tiny" height="60" viewBox="0 0 60 60" width="60">
<g fill-opacity="0.5" stroke-opacity="0.5">
<linearGradient gradientUnits="userSpaceOnUse" id="SVGID_1_" x1="29.5405" x2="29.5405" y1="8.1108" y2="49.8955">
<stop offset="0" style="stop-color:#666666"/>
<stop offset="1" style="stop-color:#000000"/>
</linearGradient>
<path d="M22.913,9.039c0.511-0.425,1.472-0.771,2.136-0.771h20.479c0.664,0,1.207,0.542,1.207,1.206v39.214  c0,0.663-0.543,1.206-1.207,1.206H13.554c-0.663,0-1.207-0.543-1.207-1.206V19.003c0-0.663,0.418-1.553,0.929-1.977L22.913,9.039z" fill="url(#SVGID_1_)"/>
<linearGradient gradientUnits="userSpaceOnUse" id="SVGID_2_" x1="29.5405" x2="29.5405" y1="7.959" y2="50.5109">
<stop offset="0" style="stop-color:#999999"/>
<stop offset="1" style="stop-color:#333333"/>
</linearGradient>
<path d="M45.766,8.571c0.338,0,0.611,0.274,0.611,0.612v39.796c0,0.338-0.273,0.612-0.611,0.612H13.316  c-0.338,0-0.612-0.274-0.612-0.612V18.854c0-0.49,0.344-1.222,0.721-1.535l9.78-8.105c0.412-0.342,1.242-0.642,1.777-0.642H45.766   M45.766,7.959H24.982c-0.674,0-1.648,0.352-2.167,0.781l-9.78,8.107c-0.519,0.43-0.943,1.332-0.943,2.006v30.126  c0,0.673,0.551,1.225,1.225,1.225h32.449c0.673,0,1.225-0.552,1.225-1.225V9.184C46.99,8.51,46.438,7.959,45.766,7.959L45.766,7.959  z" fill="url(#SVGID_2_)"/>
<linearGradient gradientUnits="userSpaceOnUse" id="SVGID_3_" x1="29.5405" x2="29.5405" y1="9.6499" y2="48.3682">
<stop offset="0" style="stop-color:#A0A3A6"/>
<stop offset="0.2606" style="stop-color:#7B7E80"/>
<stop offset="0.8182" style="stop-color:#474B4D"/>
<stop offset="1" style="stop-color:#707577"/>
</linearGradient>
<path d="M15.153,48.367c-0.673,0-1.224-0.551-1.224-1.225V19.787c0-0.673,0.423-1.577,0.94-2.009l8.629-7.198  c0.517-0.432,1.491-0.784,2.165-0.784h18.265c0.673,0,1.224,0.552,1.224,1.225v36.122c0,0.674-0.551,1.225-1.224,1.225H15.153z" fill="url(#SVGID_3_)"/>
<path d="M43.929,47.755H15.153c-0.673,0-1.224-0.552-1.224-1.224v0.611c0,0.674,0.551,1.225,1.224,1.225h28.776  c0.673,0,1.224-0.551,1.224-1.225v-0.611C45.152,47.203,44.602,47.755,43.929,47.755z" fill="#808080"/>
<linearGradient gradientUnits="userSpaceOnUse" id="SVGID_4_" x1="29.5405" x2="29.5405" y1="39.7959" y2="45.4597">
<stop offset="0" style="stop-color:#242626"/>
<stop offset="1" style="stop-color:#585C5E"/>
</linearGradient>
<rect fill="url(#SVGID_4_)" height="5.511" width="27.551" x="15.765" y="39.796"/>
<linearGradient gradientUnits="userSpaceOnUse" id="SVGID_5_" x1="42.0918" x2="42.0918" y1="19.5918" y2="11.0205">
<stop offset="0" style="stop-color:#666666"/>
<stop offset="1" style="stop-color:#282828"/>
</linearGradient>
<rect fill="url(#SVGID_5_)" height="8.571" width="3.674" x="40.255" y="11.021"/>
<linearGradient gradientUnits="userSpaceOnUse" id="SVGID_6_" x1="42.0918" x2="42.0918" y1="11.4927" y2="19.8569">
<stop offset="0" style="stop-color:#FFF173"/>
<stop offset="0.33" style="stop-color:#F1BC35"/>
<stop offset="0.66" style="stop-color:#E5B029"/>
<stop offset="1" style="stop-color:#FFA102"/>
</linearGradient>
<rect fill="url(#SVGID_6_)" height="7.959" width="2.449" x="40.867" y="11.633"/>
<rect fill="#CBCBCB" height="0.612" width="3.674" x="40.255" y="18.979"/>
<linearGradient gradientUnits="userSpaceOnUse" id="SVGID_7_" x1="36.582" x2="36.582" y1="19.5918" y2="11.0205">
<stop offset="0" style="stop-color:#666666"/>
<stop offset="1" style="stop-color:#282828"/>
</linearGradient>
<rect fill="url(#SVGID_7_)" height="8.571" width="3.673" x="34.745" y="11.021"/>
<linearGradient gradientUnits="userSpaceOnUse" id="SVGID_8_" x1="36.582" x2="36.582" y1="11.4927" y2="19.8569">
<stop offset="0" style="stop-color:#FFF173"/>
<stop offset="0.33" style="stop-color:#F1BC35"/>
<stop offset="0.66" style="stop-color:#E5B029"/>
<stop offset="1" style="stop-color:#FFA102"/>
</linearGradient>
<rect fill="url(#SVGID_8_)" height="7.959" width="2.449" x="35.357" y="11.633"/>
<rect fill="#CBCBCB" height="0.612" width="3.673" x="34.745" y="18.979"/>
<linearGradient gradientUnits="userSpaceOnUse" id="SVGID_9_" x1="31.0713" x2="31.0713" y1="19.5918" y2="11.0205">
<stop offset="0" style="stop-color:#666666"/>
<stop offset="1" style="stop-color:#282828"/>
</linearGradient>
<rect fill="url(#SVGID_9_)" height="8.571" width="3.673" x="29.235" y="11.021"/>
<linearGradient gradientUnits="userSpaceOnUse" id="SVGID_10_" x1="31.0723" x2="31.0723" y1="11.4927" y2="19.8569">
<stop offset="0" style="stop-color:#FFF173"/>
<stop offset="0.33" style="stop-color:#F1BC35"/>
<stop offset="0.66" style="stop-color:#E5B029"/>
<stop offset="1" style="stop-color:#FFA102"/>
</linearGradient>
<rect fill="url(#SVGID_10_)" height="7.959" width="2.449" x="29.847" y="11.633"/>
<rect fill="#CBCBCB" height="0.612" width="3.673" x="29.235" y="18.979"/>
<linearGradient gradientUnits="userSpaceOnUse" id="SVGID_11_" x1="25.561" x2="25.561" y1="19.5918" y2="11.0205">
<stop offset="0" style="stop-color:#666666"/>
<stop offset="1" style="stop-color:#282828"/>
</linearGradient>
<rect fill="url(#SVGID_11_)" height="8.571" width="3.673" x="23.725" y="11.021"/>
<linearGradient gradientUnits="userSpaceOnUse" id="SVGID_12_" x1="25.561" x2="25.561" y1="11.4927" y2="19.8569">
<stop offset="0" style="stop-color:#FFF173"/>
<stop offset="0.33" style="stop-color:#F1BC35"/>
<stop offset="0.66" style="stop-color:#E5B029"/>
<stop offset="1" style="stop-color:#FFA102"/>
</linearGradient>
<rect fill="url(#SVGID_12_)" height="7.959" width="2.449" x="24.337" y="11.633"/>
<rect fill="#CBCBCB" height="0.612" width="3.673" x="23.725" y="18.979"/>
<rect fill="#8C8C8C" height="0.613" width="27.551" x="15.765" y="44.693"/>
<path d="M45.766,7.959H24.982c-0.674,0-1.648,0.352-2.167,0.781l-9.78,8.107c-0.4,0.332-0.743,0.947-0.878,1.52  c0,0,1.004-0.828,1.269-1.049l9.78-8.105c0.412-0.342,1.242-0.642,1.777-0.642h20.784c0.611,0,1.225,0.612,1.225,0.612  C46.99,8.51,46.438,7.959,45.766,7.959z" fill="#CCCCCC"/>
<rect fill="none" height="60" width="60"/>
</g>
</svg>
