<?xml version="1.0" encoding="utf-8"?>
<!-- Generator: Adobe Illustrator 14.0.0, SVG Export Plug-In  -->
<!DOCTYPE svg PUBLIC "-//W3C//DTD SVG 1.1//EN" "http://www.w3.org/Graphics/SVG/1.1/DTD/svg11.dtd" [
	<!ENTITY ns_flows "http://ns.adobe.com/Flows/1.0/">
]>
<svg version="1.1"
	 xmlns="http://www.w3.org/2000/svg" xmlns:xlink="http://www.w3.org/1999/xlink" xmlns:a="http://ns.adobe.com/AdobeSVGViewerExtensions/3.0/"
	 x="0px" y="0px" width="30px" height="30px" viewBox="0 0 30 30" enable-background="new 0 0 30 30" xml:space="preserve">
<defs>
</defs>
<g opacity="0.5">
	<rect fill="none" width="30" height="30"/>
</g>
<polygon points="2,20 5,18 5,9 2,7 "/>
<polygon points="11.174,7.025 13.148,9 24.026,9 24.026,19.876 26,21.85 26,11.75 29,14 29,8 26,10.25 26,7.025 "/>
<polygon points="15.854,20 8,20 8,12.147 6.027,10.175 6.027,21.975 17.828,21.975 "/>
<polygon points="17.149,13 21.999,13 21.999,12 16.149,12 "/>
<rect x="13.74" y="-3.242" transform="matrix(0.7063 -0.7079 0.7079 0.7063 -6.0767 14.6963)" width="1.868" height="35.827"/>
</svg>
