<?xml version="1.0" encoding="UTF-8"?>
<!DOCTYPE svg PUBLIC "-//W3C//DTD SVG 1.1 Tiny//EN" "http://www.w3.org/Graphics/SVG/1.1/DTD/svg11-tiny.dtd">
<svg baseProfile="tiny" height="30" viewBox="0 0 30 30" width="30" xmlns="http://www.w3.org/2000/svg" xmlns:xlink="http://www.w3.org/1999/xlink">
<rect fill="none" height="30" width="30"/>
<polygon points="0.938,12.188 1.406,14.063 4.688,14.063 4.688,12.188 "/>
<polygon points="1.875,15.938 2.344,17.813 4.688,17.813 4.688,15.938 "/>
<polygon points="0,8.438 0.469,10.313 4.688,10.313 4.688,8.438 "/>
<path d="M29.063,6.563h-22.5c-0.517,0-0.938,0.422-0.938,0.938v15.938c0,0.516,0.421,0.938,0.938,0.938h22.5 c0.515,0,0.938-0.422,0.938-0.938V7.5C30,6.984,29.577,6.563,29.063,6.563z M17.813,17.949l3.231-1.866l6.419,6.417h-19.3 l6.418-6.418L17.813,17.949z M21.885,15.598l6.24-3.604v9.844L21.885,15.598z M7.5,8.438h20.625v1.391l-10.313,5.955L7.5,9.829 V8.438z M13.74,15.598l-6.24,6.24v-9.844L13.74,15.598z"/>
</svg>
