<?xml version="1.0" encoding="UTF-8"?>
<!DOCTYPE svg PUBLIC "-//W3C//DTD SVG 1.1 Tiny//EN" "http://www.w3.org/Graphics/SVG/1.1/DTD/svg11-tiny.dtd">
<svg baseProfile="tiny" height="60" viewBox="0 0 60 60" width="60" xmlns="http://www.w3.org/2000/svg" xmlns:xlink="http://www.w3.org/1999/xlink">
<g>
<linearGradient gradientTransform="matrix(0.2118 0.9773 -0.9773 0.2118 -634.5609 -270.4865)" gradientUnits="userSpaceOnUse" id="SVGID_1_" x1="423.0967" x2="429.6524" y1="-578.646" y2="-582.9078">
<stop offset="0" style="stop-color:#A7E722"/>
<stop offset="0.1333" style="stop-color:#A7E722"/>
<stop offset="0.6303" style="stop-color:#428C0F"/>
<stop offset="1" style="stop-color:#5CA617"/>
</linearGradient>
<path d="M19.081,33.91c2.089-3.595,4.591-6.496,7.281-9.188c2.593-2.591,6.72-5.3,8.562-6.256l9.604-10.282  c-0.845-0.3-3.693-0.464-7.279,0.616c-3.586,1.083-11.736,6.303-16.979,11.547c-5.242,5.246-9.727,12.347-10.581,14.595  c-1.343,3.541-1.221,7.445-0.929,8.58c0,0,0.34,1.035,1.144,2.377C10.248,46.475,19.081,33.91,19.081,33.91z" fill="url(#SVGID_1_)"/>
<path d="M31.184,20.8c1.488-1.036,2.87-1.882,3.74-2.334L44.271,8.46  c-0.132-0.058-0.209-0.088-0.209-0.088c-0.247-0.088-0.642-0.162-1.124-0.219c-0.793,0.006-1.596,0.093-2.401,0.27  C34.843,9.673,31.019,14.958,31.184,20.8z" fill="#020202" fill-opacity="0.05" stroke-opacity="0.05"/>
<path d="M31.906,20.306c1.205-0.809,2.291-1.462,3.018-1.84l9.377-10.04  c-0.146-0.063-0.233-0.098-0.233-0.098c-0.231-0.08-0.604-0.152-1.06-0.203c-0.751,0.006-1.51,0.087-2.27,0.253  C35.275,9.576,31.636,14.695,31.906,20.306z" fill="#020202" fill-opacity="0.1" stroke-opacity="0.1"/>
<path d="M44.079,8.263c-0.21-0.073-0.55-0.137-0.962-0.186c-0.681,0.006-1.369,0.08-2.06,0.231  c-5.087,1.116-8.426,5.984-7.978,11.233c0.725-0.455,1.363-0.826,1.844-1.076l9.424-10.088C44.178,8.302,44.079,8.263,44.079,8.263z  " fill="#020202" fill-opacity="0.1" stroke-opacity="0.1"/>
<radialGradient cx="40.9697" cy="9.21" gradientUnits="userSpaceOnUse" id="SVGID_2_" r="12.2872">
<stop offset="0" style="stop-color:#A7E722"/>
<stop offset="0.6242" style="stop-color:#428C0F"/>
<stop offset="1" style="stop-color:#5CA617"/>
</radialGradient>
<path d="M34.924,18.466l0.929,1.55c0,0,15.101-6.784,14.084-8.038c-0.513-0.631-0.577-0.656-1.237-1.263  c-1.985-1.815-4.172-2.531-4.172-2.531c-0.186-0.063-0.481-0.12-0.845-0.161c-0.596,0.004-1.2,0.068-1.806,0.201  c-4.591,1.009-7.57,5.501-6.963,10.257C34.916,18.477,34.921,18.47,34.924,18.466z" fill="url(#SVGID_2_)"/>
<path d="M17.483,34.105c-0.988-0.139-2.007-0.119-3.027,0.105c-2.418,0.531-4.376,2.066-5.646,4.131  c-0.367,2.35-0.25,4.408-0.05,5.18c0,0,0.34,1.035,1.144,2.377c0.29,0.482,6.54-8.264,8.556-11.107L17.483,34.105z" fill="#020202" fill-opacity="0.1" stroke-opacity="0.1"/>
<path d="M18.366,34.135c-0.989-0.139-2.008-0.117-3.029,0.105c-3.313,0.727-5.775,3.332-6.76,6.623  c-0.026,1.025,0.034,1.873,0.127,2.398c0.003,0.012,0.005,0.033,0.01,0.047c0,0,0.34,1.033,1.144,2.379  c0.3,0.498,6.981-8.887,8.75-11.383L18.366,34.135z" fill="#020202" fill-opacity="0.1" stroke-opacity="0.1"/>
<radialGradient cx="437.4258" cy="-571.231" gradientTransform="matrix(0.2095 0.9787 -0.9682 0.2124 -629.4526 -270.6148)" gradientUnits="userSpaceOnUse" id="SVGID_3_" r="14.6187">
<stop offset="0" style="stop-color:#A7E722"/>
<stop offset="0.6242" style="stop-color:#428C0F"/>
<stop offset="1" style="stop-color:#5CA617"/>
</radialGradient>
<path d="M11.202,47.738c0.616,0.74,0.646,0.953,1.295,1.523c1.194,1.055,9.301-13.611,9.301-13.611  l-2.683-1.719c-0.941-0.111-1.914-0.08-2.89,0.135c-4.777,1.049-7.806,5.869-6.87,10.832C9.749,45.686,10.349,46.709,11.202,47.738z  " fill="url(#SVGID_3_)"/>
<path d="M49.937,11.978c-0.179-0.22-0.381-0.446-0.578-0.67l-13.944,7.959l0.438,0.749  C35.853,20.016,50.953,13.231,49.937,11.978z" fill="#020202" fill-opacity="0.4" stroke-opacity="0.4"/>
<linearGradient gradientTransform="matrix(0.2118 0.9773 -0.9773 0.2118 -634.5599 -270.4865)" gradientUnits="userSpaceOnUse" id="SVGID_4_" x1="422.2881" x2="427.4786" y1="-610.9287" y2="-594.4409">
<stop offset="0" style="stop-color:#C6FF45"/>
<stop offset="0.6788" style="stop-color:#387300"/>
<stop offset="1" style="stop-color:#66A00E"/>
</linearGradient>
<path d="M35.853,20.016l1.178,1.981c0.302,0.515,0.972,0.674,1.569,0.422l4.09-2.334l8.043-4.668  c0.632-0.363,0.878-1.119,0.549-1.686c0,0-0.333-0.501-1.349-1.751L35.853,20.016z" fill="url(#SVGID_4_)"/>
<path d="M21.798,35.65l-0.725-0.473l-9.215,13.486c0.216,0.205,0.43,0.414,0.639,0.598  C13.691,50.316,21.798,35.65,21.798,35.65z" fill="#020202" fill-opacity="0.4" stroke-opacity="0.4"/>
<linearGradient gradientTransform="matrix(0.2118 0.9773 -0.9773 0.2118 -634.5599 -270.4865)" gradientUnits="userSpaceOnUse" id="SVGID_5_" x1="439.6982" x2="451.5232" y1="-577.7549" y2="-564.7323">
<stop offset="0" style="stop-color:#C6FF45"/>
<stop offset="0.6788" style="stop-color:#387300"/>
<stop offset="1" style="stop-color:#66A00E"/>
</linearGradient>
<path d="M12.498,49.262c1.193,1.049,1.686,1.369,1.686,1.369c0.567,0.367,1.363,0.17,1.781-0.441l7.9-11.605  c0.419-0.615,0.307-1.412-0.26-1.777l-1.808-1.156L12.498,49.262z" fill="url(#SVGID_5_)"/>
<rect fill="none" height="60" width="60"/>
</g>
<g transform="matrix(0.5 0 0 0.5 30 30)">
<radialGradient cx="12.6943" cy="-163.1411" gradientTransform="matrix(1.8702 0 0 -1.8638 18.6454 -261.7752)" gradientUnits="userSpaceOnUse" id="SVGID_1__" r="5.9351">
<stop offset="0" style="stop-color:#FFA98E"/>
<stop offset="0.2" style="stop-color:#FFA98E"/>
<stop offset="0.9628" style="stop-color:#D45D36"/>
<stop offset="1" style="stop-color:#D45D36"/>
</radialGradient>
<path d="M46.91,37.354c-1.044-0.453-1.012-2.678-0.582-3.35c0.076-0.118,0.145-0.234,0.216-0.352  h-8.731c0.069,0.117,0.138,0.233,0.213,0.352c0.431,0.672,0.463,2.896-0.58,3.35C36.4,37.809,42.3,41.758,42.3,41.758  S47.954,37.807,46.91,37.354z" style="fill:url(#SVGID_1__);"/>
<linearGradient gradientTransform="matrix(2 0 0 -2 -292 -262)" gradientUnits="userSpaceOnUse" id="SVGID_2__" x1="167.0898" x2="167.0898" y1="-149.4712" y2="-154.0435">
<stop offset="0" style="stop-color:#3BC8EB"/>
<stop offset="0.3879" style="stop-color:#2D9BD2"/>
<stop offset="0.8909" style="stop-color:#1347BA"/>
<stop offset="1" style="stop-color:#1347BA"/>
</linearGradient>
<path d="M53.188,39.672c-1.098-0.572-6.541-2.477-6.644-2.598l-4.157,3.458l-4.467-3.591  c-0.126,0.185-5.504,2.07-6.748,2.73c-1.426,0.756-3.754,2.494-3.754,6.414h29.521C56.939,42.166,54.286,40.242,53.188,39.672z" style="fill:url(#SVGID_2__);"/>
<polygon points="36.9,37.386 42.384,41.758 47.536,37.475   46.542,37.074 42.384,40.532 37.918,36.941 " style="opacity:0.3;fill:#020202;enable-background:new    ;"/>
<linearGradient gradientTransform="matrix(2 0 0 -2 -292 -262)" gradientUnits="userSpaceOnUse" id="SVGID_3__" x1="167.1094" x2="167.1094" y1="-152.0737" y2="-149.5491">
<stop offset="0" style="stop-color:#3BC8EB"/>
<stop offset="1" style="stop-color:#2D9BD2"/>
</linearGradient>
<polygon points="42.384,41.758 36.9,37.386 36.582,37.525 42.384,42.148 47.857,37.6 47.54,37.473 " style="fill:url(#SVGID_3__);"/>
<radialGradient cx="12.9829" cy="-152.1655" gradientTransform="matrix(1.8702 0 0 -1.8638 18.6454 -261.7752)" gradientUnits="userSpaceOnUse" id="SVGID_4__" r="7.9669">
<stop offset="0" style="stop-color:#FFE2D9"/>
<stop offset="0.5091" style="stop-color:#FFC6B3"/>
<stop offset="0.7636" style="stop-color:#FFA98E"/>
<stop offset="1" style="stop-color:#E88160"/>
</radialGradient>
<path d="M49.42,27.128c-0.038-0.016-0.08-0.018-0.118-0.03c0-0.002,0-0.002,0-0.002  c-0.008-0.002-0.014-0.004-0.014-0.004c-0.065-0.016-0.124-0.028-0.185-0.032c-7.289-1.27-10.636-5.308-10.886-4.238  c-0.202,0.85-2.245,2.692-3.315,3.61c0.008,0.042,0.016,0.078,0.023,0.12c0,0,0.04,0.188,0.12,0.508  c-0.084,0.01-0.168,0.028-0.248,0.06c-0.682,0.29-0.896,1.404-0.478,2.496c0.418,1.09,1.306,1.741,1.99,1.456  c0.041-0.018,0.078-0.047,0.115-0.072c0.396,0.891,0.881,1.844,1.477,2.8c0.998,1.187,2.525,2.576,4.211,2.576  c2.041,0,3.291-1.118,4.146-2.242c0.022-0.048,0.045-0.094,0.068-0.13c0.636-0.994,1.152-1.992,1.57-2.92  c0.666,0.23,1.521-0.389,1.947-1.438C50.286,28.562,50.094,27.434,49.42,27.128z" style="fill:url(#SVGID_4__);"/>
<linearGradient gradientTransform="matrix(2 0 0 -2 -292 -262)" gradientUnits="userSpaceOnUse" id="SVGID_5__" x1="165.7725" x2="168.922" y1="-149.5288" y2="-146.4038">
<stop offset="0" style="stop-color:#FFC6B3"/>
<stop offset="1" style="stop-color:#FFA98E"/>
</linearGradient>
<path d="M41.813,35.805c-1.242,0-2.494-0.578-3.416-1.453c0.974,1.026,2.287,2.024,3.715,2.024  c2.041,0,3.291-1.118,4.146-2.242c0.021-0.048,0.044-0.094,0.068-0.13c0.636-0.994,1.152-1.992,1.57-2.92  C45.578,35.141,43.854,35.805,41.813,35.805z" style="fill:url(#SVGID_5__);"/>
<linearGradient gradientTransform="matrix(2 0 0 -2 -292 -262)" gradientUnits="userSpaceOnUse" id="SVGID_6_" x1="167.0273" x2="167.0273" y1="-139.5527" y2="-144.1897">
<stop offset="0" style="stop-color:#8A5D3B"/>
<stop offset="0.3758" style="stop-color:#632F00"/>
<stop offset="1" style="stop-color:#361700"/>
</linearGradient>
<path d="M41.908,16.966c-2.53,0-3.744,1.148-4.682,2.35c-1.528,0.234-3.947,1.634-2.238,7.764  c1.07-0.918,3.029-3.406,3.229-4.256c0.255-1.08,3.656,3.042,11.084,4.274c0.089-0.344,0.126-0.544,0.126-0.544  C50.596,21.318,48.059,17.172,41.908,16.966z" style="fill:url(#SVGID_6_);"/>
<linearGradient gradientTransform="matrix(2 0 0 -2 -292 -262)" gradientUnits="userSpaceOnUse" id="SVGID_7_" x1="168.6123" x2="164.4106" y1="-143.9883" y2="-141.4939">
<stop offset="0" style="stop-color:#8A5D3B"/>
<stop offset="0.3636" style="stop-color:#632F00"/>
<stop offset="1" style="stop-color:#361700"/>
</linearGradient>
<path d="M38.227,22.322c0,0,3.635,4.778,11.023,4.768C49.25,27.09,45.773,26.544,38.227,22.322z" style="fill:url(#SVGID_7_);"/>
<linearGradient gradientTransform="matrix(2 0 0 -2 -292 -262)" gradientUnits="userSpaceOnUse" id="SVGID_8_" x1="164.0332" x2="164.0701" y1="-141.0078" y2="-143.6764">
<stop offset="0" style="stop-color:#8A5D3B"/>
<stop offset="0.3758" style="stop-color:#632F00"/>
<stop offset="1" style="stop-color:#361700"/>
</linearGradient>
<path d="M37.354,19.672c0,0-3.56,0.212-2.24,6.246C35.113,25.918,34.678,21.786,37.354,19.672z" style="fill:url(#SVGID_8_);"/>
<linearGradient gradientTransform="matrix(2 0 0 -2 -292 -262)" gradientUnits="userSpaceOnUse" id="SVGID_9_" x1="167.6152" x2="167.4844" y1="-139.9482" y2="-141.1576">
<stop offset="0" style="stop-color:#A87C4F"/>
<stop offset="1" style="stop-color:#632F00"/>
</linearGradient>
<path d="M43.632,20.508c-1.655-0.236-4.46-1.706-5.558-1.18c0,0,3.598-4.106,9.943,0.568  C48.018,19.896,46.506,20.916,43.632,20.508z" style="fill:url(#SVGID_9_);"/>
<radialGradient cx="-0.3296" cy="-163.1411" gradientTransform="matrix(1.8702 0 0 -1.8638 18.6454 -261.7752)" gradientUnits="userSpaceOnUse" id="SVGID_10_" r="5.9342">
<stop offset="0" style="stop-color:#FFA98E"/>
<stop offset="0.2" style="stop-color:#FFA98E"/>
<stop offset="0.9628" style="stop-color:#D45D36"/>
<stop offset="1" style="stop-color:#D45D36"/>
</radialGradient>
<path d="M22.552,37.354c-1.042-0.453-1.01-2.678-0.58-3.35c0.074-0.118,0.144-0.234,0.216-0.352  h-8.73c0.07,0.117,0.138,0.233,0.214,0.352c0.43,0.672,0.46,2.896-0.58,3.35c-1.046,0.455,4.854,4.404,4.854,4.404  S23.6,37.807,22.552,37.354z" style="fill:url(#SVGID_10_);"/>
<linearGradient gradientTransform="matrix(2 0 0 -2 -292 -262)" gradientUnits="userSpaceOnUse" id="SVGID_11_" x1="154.9111" x2="154.9111" y1="-149.4712" y2="-154.0435">
<stop offset="0" style="stop-color:#3BC8EB"/>
<stop offset="0.3879" style="stop-color:#2D9BD2"/>
<stop offset="0.8909" style="stop-color:#1347BA"/>
<stop offset="1" style="stop-color:#1347BA"/>
</linearGradient>
<path d="M28.832,39.672c-1.098-0.572-6.542-2.477-6.644-2.598l-4.158,3.458l-4.466-3.591  c-0.126,0.185-5.504,2.07-6.75,2.73c-1.424,0.756-3.752,2.494-3.752,6.414h29.522C32.582,42.166,29.93,40.242,28.832,39.672z" style="fill:url(#SVGID_11_);"/>
<polygon points="12.544,37.386 18.03,41.758 23.182,37.475   22.188,37.074 18.03,40.532 13.562,36.941 " style="opacity:0.3;fill:#020202;enable-background:new    ;"/>
<linearGradient gradientTransform="matrix(2 0 0 -2 -292 -262)" gradientUnits="userSpaceOnUse" id="SVGID_12_" x1="154.9316" x2="154.9316" y1="-152.0737" y2="-149.5491">
<stop offset="0" style="stop-color:#3BC8EB"/>
<stop offset="1" style="stop-color:#2D9BD2"/>
</linearGradient>
<polygon points="18.03,41.758 12.542,37.386 12.226,37.525 18.03,42.148 23.502,37.6 23.184,37.473   " style="fill:url(#SVGID_12_);"/>
<radialGradient cx="-0.0405" cy="-152.1655" gradientTransform="matrix(1.8702 0 0 -1.8638 18.6454 -261.7752)" gradientUnits="userSpaceOnUse" id="SVGID_13_" r="7.9677">
<stop offset="0" style="stop-color:#FFE2D9"/>
<stop offset="0.5091" style="stop-color:#FFC6B3"/>
<stop offset="0.7636" style="stop-color:#FFA98E"/>
<stop offset="1" style="stop-color:#E88160"/>
</radialGradient>
<path d="M25.064,27.128c-0.038-0.016-0.08-0.018-0.118-0.03c0-0.002,0-0.002,0-0.002  c-0.008-0.002-0.014-0.004-0.024-0.004c-0.056-0.016-0.114-0.028-0.174-0.032c-7.29-1.27-10.634-5.308-10.886-4.238  c-0.204,0.85-2.246,2.692-3.316,3.61c0.008,0.042,0.016,0.078,0.024,0.12c0,0,0.04,0.188,0.12,0.508  c-0.086,0.01-0.17,0.028-0.248,0.06c-0.682,0.29-0.894,1.404-0.478,2.496c0.418,1.09,1.306,1.741,1.99,1.456  c0.042-0.018,0.078-0.047,0.116-0.072c0.396,0.891,0.88,1.844,1.476,2.8c0.998,1.187,2.526,2.576,4.212,2.576  c2.04,0,3.29-1.118,4.146-2.242c0.022-0.048,0.044-0.094,0.068-0.13c0.636-0.994,1.152-1.992,1.57-2.92  c0.668,0.23,1.522-0.389,1.946-1.438C25.928,28.562,25.738,27.434,25.064,27.128z" style="fill:url(#SVGID_13_);"/>
<linearGradient gradientTransform="matrix(2 0 0 -2 -292 -262)" gradientUnits="userSpaceOnUse" id="SVGID_14_" x1="153.5947" x2="156.743" y1="-149.5293" y2="-146.4057">
<stop offset="0" style="stop-color:#FFC6B3"/>
<stop offset="1" style="stop-color:#FFA98E"/>
</linearGradient>
<path d="M17.458,35.805c-1.242,0-2.494-0.578-3.416-1.453c0.974,1.026,2.288,2.024,3.716,2.024  c2.04,0,3.29-1.118,4.146-2.242c0.022-0.048,0.044-0.094,0.068-0.13c0.636-0.994,1.152-1.992,1.57-2.92  C21.222,35.141,19.498,35.805,17.458,35.805z" style="fill:url(#SVGID_14_);"/>
<linearGradient gradientTransform="matrix(2 0 0 -2 -292 -262)" gradientUnits="userSpaceOnUse" id="SVGID_15_" x1="154.8477" x2="154.8477" y1="-139.5527" y2="-144.1897">
<stop offset="0" style="stop-color:#8A5D3B"/>
<stop offset="0.3758" style="stop-color:#632F00"/>
<stop offset="1" style="stop-color:#361700"/>
</linearGradient>
<path d="M17.552,16.966c-2.53,0-3.744,1.148-4.684,2.35c-1.526,0.234-3.946,1.634-2.236,7.764  c1.07-0.918,3.028-3.406,3.23-4.256c0.254-1.08,3.656,3.042,11.084,4.274c0.086-0.344,0.126-0.544,0.126-0.544  C26.24,21.318,23.704,17.172,17.552,16.966z" style="fill:url(#SVGID_15_);"/>
<linearGradient gradientTransform="matrix(2 0 0 -2 -292 -262)" gradientUnits="userSpaceOnUse" id="SVGID_16_" x1="156.4355" x2="152.2336" y1="-143.9878" y2="-141.4933">
<stop offset="0" style="stop-color:#8A5D3B"/>
<stop offset="0.3636" style="stop-color:#632F00"/>
<stop offset="1" style="stop-color:#361700"/>
</linearGradient>
<path d="M13.872,22.322c0,0,3.636,4.778,11.026,4.768C24.896,27.09,21.416,26.544,13.872,22.322z" style="fill:url(#SVGID_16_);"/>
<linearGradient gradientTransform="matrix(2 0 0 -2 -292 -262)" gradientUnits="userSpaceOnUse" id="SVGID_17_" x1="151.8545" x2="151.8914" y1="-141.0093" y2="-143.6763">
<stop offset="0" style="stop-color:#8A5D3B"/>
<stop offset="0.3758" style="stop-color:#632F00"/>
<stop offset="1" style="stop-color:#361700"/>
</linearGradient>
<path d="M12.996,19.672c0,0-3.558,0.212-2.238,6.246C10.758,25.918,10.322,21.786,12.996,19.672z" style="fill:url(#SVGID_17_);"/>
<linearGradient gradientTransform="matrix(2 0 0 -2 -292 -262)" gradientUnits="userSpaceOnUse" id="SVGID_18_" x1="155.4385" x2="155.3077" y1="-139.9482" y2="-141.1576">
<stop offset="0" style="stop-color:#A87C4F"/>
<stop offset="1" style="stop-color:#632F00"/>
</linearGradient>
<path d="M19.278,20.508c-1.656-0.236-4.46-1.706-5.56-1.18c0,0,3.6-4.106,9.946,0.568  C23.662,19.896,22.148,20.916,19.278,20.508z" style="fill:url(#SVGID_18_);"/>
<path d="M46.641,40.864c-1.013-0.528-4.162-1.698-6.695-2.636  l-1.422-0.53l-0.256-0.103l-0.332-0.128L37.3,37.212l-0.392,0.172c-0.002,0.002-0.006,0.002-0.008,0.005h-0.002  c-1.652,0.646-4.813,1.795-5.729,2.285c-0.357,0.19-0.772,0.442-1.192,0.774c-0.442-0.364-0.852-0.62-1.146-0.774  c-0.79-0.41-3.808-1.506-5.492-2.136l-0.156-0.062l-0.004,0.002l-0.698-0.283l-0.634,0.279c-0.622,0.243-1.386,0.535-2.206,0.846  l-0.076,0.029c-2.42,0.92-5.164,1.963-6.214,2.522C10.996,42.122,9.3,43.891,8.3,46.09h19.118h5.166h19.04  C50.055,42.818,47.355,41.234,46.641,40.864z" style="opacity:0.15;fill:#231F20;enable-background:new    ;"/>
<path d="M18.104,22.872c-1.122,0.954-1.424,2.864-0.698,4.76  c0.684,1.788,2.096,2.988,3.516,2.988h0.004c0.212,0.442,0.434,0.878,0.662,1.308h-0.066l0.542,0.896c0,0,0.142,0.23,0.308,0.506  c0.452-0.766,0.848-1.528,1.172-2.246c0.668,0.23,1.522-0.389,1.946-1.438c0.44-1.084,0.25-2.212-0.424-2.518  c-0.038-0.016-0.08-0.018-0.118-0.03c0-0.002,0-0.002,0-0.002c-0.008-0.002-0.014-0.004-0.024-0.004  c-0.056-0.016-0.114-0.028-0.174-0.032c-0.014-0.004-0.024-0.006-0.038-0.01c-0.03-0.006-0.064-0.014-0.1-0.022  c0.114,0.022,0.218,0.046,0.334,0.066c0.086-0.344,0.126-0.544,0.126-0.544c1.166-5.234-1.372-9.38-7.522-9.586  c-0.012,0-0.02,0.002-0.034,0.002C17.36,18.634,17.546,20.6,18.104,22.872z" style="opacity:0.15;fill:#231F20;enable-background:new    ;"/>
<path d="M37.227,19.316c-1.528,0.234-3.947,1.634-2.238,7.758  c-0.066,0.012-0.129,0.022-0.192,0.046c-0.683,0.29-0.896,1.404-0.478,2.496c0.418,1.09,1.306,1.741,1.99,1.456  c0.041-0.018,0.078-0.047,0.115-0.072c0.33,0.742,0.729,1.532,1.198,2.326c0.524-0.883,1.022-1.794,1.472-2.738  c1.293-0.154,2.557-1.278,3.211-2.888c0.743-1.838,0.506-3.746-0.545-4.74c0.471-2.124,0.545-4.146,0.234-5.986  c-0.03-0.002-0.057-0.006-0.086-0.006C39.378,16.966,38.164,18.116,37.227,19.316z M34.996,27.072  c0.014-0.012,0.029-0.026,0.042-0.038c0,0.01,0.004,0.016,0.006,0.026C35.029,27.062,35.012,27.07,34.996,27.072z M38.52,22.662  L38.52,22.662c-0.018-0.004-0.041-0.014-0.058-0.016C38.479,22.648,38.502,22.658,38.52,22.662z" style="opacity:0.15;fill:#231F20;enable-background:new    ;"/>
<path d="M46.37,41.386c-0.979-0.51-4.112-1.672-6.628-2.608  l-1.436-0.533l-0.248-0.1l-0.343-0.131l-0.968-0.39c-0.032-0.042-0.055-0.101-0.082-0.146c-1.7,0.655-4.62,1.726-5.494,2.193  c-0.357,0.189-0.772,0.442-1.192,0.773c-0.442-0.363-0.852-0.619-1.146-0.773c-0.79-0.41-3.808-1.506-5.492-2.136L23.256,37.5  l-1.192,0.521c-0.64,0.25-1.438,0.553-2.288,0.877c-2.404,0.914-5.13,1.951-6.148,2.49c-2.142,1.135-3.714,2.726-4.676,4.697h18.464  h5.166h18.38C49.464,43.156,47.027,41.729,46.37,41.386z" style="opacity:0.3;fill:#231F20;enable-background:new    ;"/>
<path d="M17.958,27.42c0.596,1.56,1.788,2.608,2.962,2.608  c0.124,0,0.244-0.01,0.362-0.034c0.404,0.865,0.838,1.71,1.302,2.523h-0.018l0.136,0.225c0.31-0.566,0.6-1.126,0.838-1.658  c0.668,0.23,1.522-0.389,1.946-1.438c0.44-1.084,0.25-2.212-0.424-2.518c-0.038-0.016-0.08-0.018-0.118-0.03  c0-0.002,0-0.002,0-0.002c-0.008-0.002-0.014-0.004-0.024-0.004c-0.056-0.016-0.114-0.028-0.174-0.032  c-0.014-0.004-0.024-0.006-0.038-0.01c-0.03-0.006-0.064-0.014-0.1-0.022c0.114,0.022,0.218,0.046,0.334,0.066  c0.086-0.344,0.126-0.544,0.126-0.544c1.128-5.07-1.226-9.112-6.966-9.544c-0.16,1.694,0.052,3.728,0.672,6.114  C17.626,23.778,17.264,25.606,17.958,27.42z" style="opacity:0.3;fill:#231F20;enable-background:new    ;"/>
<path d="M37.227,19.316c-1.528,0.234-3.947,1.634-2.238,7.758  c-0.066,0.012-0.129,0.022-0.192,0.046c-0.683,0.29-0.896,1.404-0.478,2.496c0.418,1.09,1.306,1.741,1.99,1.456  c0.041-0.018,0.078-0.047,0.115-0.072c0.248,0.557,0.536,1.139,0.858,1.729c0.51-0.879,0.993-1.783,1.43-2.714  c0.026,0.002,0.05,0.002,0.078,0.002c1.16,0,2.353-1.022,2.966-2.54c0.717-1.768,0.42-3.57-0.65-4.288  c0.049-0.212,0.072-0.332,0.072-0.332c0.467-2.086,0.534-4.07,0.221-5.862C39.221,17.144,38.098,18.202,37.227,19.316z   M34.996,27.072c0.014-0.012,0.029-0.026,0.042-0.038c0,0.01,0.004,0.016,0.006,0.026C35.029,27.062,35.012,27.07,34.996,27.072z   M38.52,22.662L38.52,22.662c-0.018-0.004-0.041-0.014-0.058-0.016C38.479,22.648,38.502,22.658,38.52,22.662z" style="opacity:0.3;fill:#231F20;enable-background:new    ;"/>
<radialGradient cx="6.2334" cy="-164.9893" gradientTransform="matrix(1.8702 0 0 -1.8638 18.6454 -261.7752)" gradientUnits="userSpaceOnUse" id="SVGID_19_" r="8.6765">
<stop offset="0" style="stop-color:#FFA98E"/>
<stop offset="0.2" style="stop-color:#FFA98E"/>
<stop offset="0.9628" style="stop-color:#D45D36"/>
<stop offset="1" style="stop-color:#D45D36"/>
</radialGradient>
<path d="M36.918,38.521c-1.527-0.664-1.477-3.914-0.848-4.897c0.109-0.17,0.207-0.342,0.313-0.515  h-12.77c0.106,0.173,0.206,0.345,0.314,0.515c0.63,0.983,0.68,4.233-0.848,4.897c-1.528,0.662,7.098,6.438,7.098,6.438  S38.445,39.184,36.918,38.521z" style="fill:url(#SVGID_19_);"/>
<linearGradient gradientTransform="matrix(2 0 0 -2 -292 -262)" gradientUnits="userSpaceOnUse" id="SVGID_20_" x1="161" x2="161" y1="-149.9604" y2="-156.6436">
<stop offset="0" style="stop-color:#FF7236"/>
<stop offset="1" style="stop-color:#BA1212"/>
</linearGradient>
<path d="M46.098,41.91c-1.605-0.836-9.563-3.622-9.714-3.794l-6.08,5.05l-6.532-5.246  c-0.18,0.268-8.046,3.023-9.868,3.99c-2.084,1.105-5.486,3.646-5.486,9.376H51.58C51.58,45.557,47.7,42.746,46.098,41.91z" style="fill:url(#SVGID_20_);"/>
<linearGradient gradientTransform="matrix(2 0 0 -2 -292 -262)" gradientUnits="userSpaceOnUse" id="SVGID_21_" x1="161.0293" x2="161.0293" y1="-149.522" y2="-153.4313">
<stop offset="0" style="stop-color:#BC1C24"/>
<stop offset="1" style="stop-color:#6B1C24"/>
</linearGradient>
<polygon points="22.284,38.568 30.302,44.958 37.836,38.7 36.382,38.116 30.302,43.166 23.772,37.92   " style="fill:url(#SVGID_21_);"/>
<path d="M22.66,39.58c0,0-11.44,2.986-11.44,11.004c0,0-1.634,0-1.646,0  C9.574,45.654,13.418,41.82,22.66,39.58z" style="fill:#FF7B56;"/>
<path d="M37.189,39.395c0,0,11.44,2.987,11.44,11.004c0,0,1.636,0,1.647,0  C50.277,45.468,46.432,41.636,37.189,39.395z" style="fill:#FF7B56;"/>
<linearGradient gradientTransform="matrix(2 0 0 -2 -292 -262)" gradientUnits="userSpaceOnUse" id="SVGID_22_" x1="161.0293" x2="161.0293" y1="-153.7666" y2="-150.0747">
<stop offset="0" style="stop-color:#FFA98E"/>
<stop offset="0.9628" style="stop-color:#D45D36"/>
<stop offset="1" style="stop-color:#D45D36"/>
</linearGradient>
<polygon points="30.302,44.958 22.282,38.568 21.816,38.773 30.302,45.534 38.302,38.88   37.838,38.693 " style="fill:url(#SVGID_22_);"/>
<radialGradient cx="6.6563" cy="-148.9424" gradientTransform="matrix(1.8702 0 0 -1.8638 18.6454 -261.7752)" gradientUnits="userSpaceOnUse" id="SVGID_23_" r="11.6472">
<stop offset="0" style="stop-color:#FFE2D9"/>
<stop offset="0.5091" style="stop-color:#FFC6B3"/>
<stop offset="0.7636" style="stop-color:#FFA98E"/>
<stop offset="1" style="stop-color:#E88160"/>
</radialGradient>
<path d="M40.588,23.574c-0.054-0.026-0.115-0.03-0.172-0.044c0-0.002,0-0.004,0-0.004  c-0.01-0.002-0.02-0.004-0.032-0.006c-0.084-0.022-0.17-0.042-0.256-0.044c-10.66-1.856-15.55-7.76-15.918-6.198  c-0.294,1.244-3.282,3.936-4.848,5.278c0.014,0.06,0.02,0.114,0.036,0.174c0,0,0.054,0.276,0.172,0.744  c-0.124,0.014-0.246,0.04-0.364,0.09c-0.996,0.42-1.308,2.052-0.698,3.646c0.61,1.596,1.912,2.548,2.908,2.13  c0.06-0.028,0.114-0.07,0.17-0.108c0.578,1.3,1.29,2.696,2.158,4.094c1.458,1.732,3.692,3.766,6.158,3.766  c2.982,0,4.808-1.632,6.064-3.279c0.032-0.068,0.062-0.133,0.103-0.19c0.93-1.454,1.684-2.91,2.291-4.268  c0.975,0.336,2.227-0.568,2.847-2.102C41.852,25.668,41.574,24.02,40.588,23.574z" style="fill:url(#SVGID_23_);"/>
<linearGradient gradientTransform="matrix(2 0 0 -2 -292 -262)" gradientUnits="userSpaceOnUse" id="SVGID_24_" x1="159.0752" x2="163.6788" y1="-150.0449" y2="-145.4773">
<stop offset="0" style="stop-color:#FFC6B3"/>
<stop offset="1" style="stop-color:#FFA98E"/>
</linearGradient>
<path d="M29.464,36.256c-1.816,0-3.644-0.846-4.992-2.12c1.426,1.498,3.344,2.956,5.432,2.956  c2.983,0,4.808-1.632,6.064-3.279c0.032-0.068,0.062-0.133,0.103-0.19c0.93-1.454,1.684-2.91,2.291-4.268  C34.968,35.286,32.45,36.256,29.464,36.256z" style="fill:url(#SVGID_24_);"/>
<linearGradient gradientTransform="matrix(2 0 0 -2 -292 -262)" gradientUnits="userSpaceOnUse" id="SVGID_25_" x1="160.9082" x2="160.9082" y1="-135.458" y2="-142.2371">
<stop offset="0" style="stop-color:#8A5D3B"/>
<stop offset="0.3758" style="stop-color:#632F00"/>
<stop offset="1" style="stop-color:#361700"/>
</linearGradient>
<path d="M29.604,8.714c-3.694,0-5.472,1.68-6.846,3.436c-2.228,0.344-5.766,2.39-3.27,11.35  c1.566-1.34,4.428-4.978,4.722-6.222c0.372-1.576,5.344,4.452,16.206,6.248c0.126-0.502,0.186-0.796,0.186-0.796  C42.307,15.078,38.598,9.014,29.604,8.714z" style="fill:url(#SVGID_25_);"/>
<linearGradient gradientTransform="matrix(2 0 0 -2 -292 -262)" gradientUnits="userSpaceOnUse" id="SVGID_26_" x1="163.2275" x2="157.0844" y1="-141.9429" y2="-138.296">
<stop offset="0" style="stop-color:#8A5D3B"/>
<stop offset="0.3636" style="stop-color:#632F00"/>
<stop offset="1" style="stop-color:#361700"/>
</linearGradient>
<path d="M24.222,16.544c0,0,5.316,6.984,16.118,6.97C40.34,23.516,35.254,22.716,24.222,16.544z" style="fill:url(#SVGID_26_);"/>
<linearGradient gradientTransform="matrix(2 0 0 -2 -292 -262)" gradientUnits="userSpaceOnUse" id="SVGID_27_" x1="156.5313" x2="156.5852" y1="-137.5854" y2="-141.4876">
<stop offset="0" style="stop-color:#8A5D3B"/>
<stop offset="0.3758" style="stop-color:#632F00"/>
<stop offset="1" style="stop-color:#361700"/>
</linearGradient>
<path d="M22.946,12.67c0,0-5.206,0.31-3.274,9.132C19.672,21.802,19.036,15.762,22.946,12.67z" style="fill:url(#SVGID_27_);"/>
<linearGradient gradientTransform="matrix(2 0 0 -2 -292 -262)" gradientUnits="userSpaceOnUse" id="SVGID_28_" x1="161.7695" x2="161.5782" y1="-136.0381" y2="-137.8074">
<stop offset="0" style="stop-color:#A87C4F"/>
<stop offset="1" style="stop-color:#632F00"/>
</linearGradient>
<path d="M32.128,13.892c-2.424-0.346-6.524-2.494-8.13-1.726c0,0,5.26-6,14.542,0.83  C38.54,12.996,36.328,14.49,32.128,13.892z" style="fill:url(#SVGID_28_);"/>
<rect height="60" style="fill:none;" width="60"/>
</g>
</svg>
