<?xml version="1.0" encoding="UTF-8" standalone="no"?>
<!DOCTYPE svg PUBLIC "-//W3C//DTD SVG 1.1 Tiny//EN" "http://www.w3.org/Graphics/SVG/1.1/DTD/svg11-tiny.dtd">
<svg xmlns="http://www.w3.org/2000/svg" xmlns:xlink="http://www.w3.org/1999/xlink" baseProfile="tiny" height="30px" version="1.1" viewBox="0 0 30 30" width="30px" x="0px" y="0px">
<g fill-opacity="0.5" stroke-opacity="0.5">
<rect fill="none" height="30" width="30"/>
</g>
<path d="M30,12h-9.704L17.008,2l-0.856,2.596C16.691,5.789,17,7.107,17,8.5c0,4.222-2.77,7.805-6.586,9.038l1.266,0.945L8,29  l9.006-6.633L26,29l-3.672-10.517L30,12z"/>
<path d="M15,8.5C15,4.364,11.636,1,7.5,1S0,4.364,0,8.5S3.364,16,7.5,16S15,12.636,15,8.5z M2,8.5c0-1.521,0.62-2.898,1.621-3.896  C5.353,4.878,6.706,6.257,6.945,8H4l3.983,5.976C7.824,13.989,7.663,14,7.5,14C4.467,14,2,11.532,2,8.5z M8.018,13.974L12,8H8.973  C8.788,5.948,7.568,4.19,5.838,3.258C6.363,3.091,6.921,3,7.5,3C10.533,3,13,5.468,13,8.5C13,11.357,10.809,13.712,8.018,13.974z"/>
</svg>
