<?xml version="1.0" encoding="UTF-8"?>
<!DOCTYPE svg PUBLIC "-//W3C//DTD SVG 1.1 Tiny//EN" "http://www.w3.org/Graphics/SVG/1.1/DTD/svg11-tiny.dtd">
<svg baseProfile="tiny" height="218px" version="1.1" viewBox="0 0 218 218" width="218px" x="0px" xmlns="http://www.w3.org/2000/svg" xmlns:xlink="http://www.w3.org/1999/xlink" y="0px">
<path d="M103.553,58V38.333h-2.27l-4.297,2.299l0.516,2.027l3.418-1.846h0.061V58H103.553z M112.207,55.73  l1.543-1.452c4.145-3.994,6.777-6.929,6.777-10.56c0-2.814-1.785-5.719-6.021-5.719c-2.238,0-4.205,0.877-5.537,1.997l0.848,1.875  c0.906-0.756,2.391-1.664,4.176-1.664c2.934,0,3.873,1.845,3.873,3.842c0,2.966-2.301,5.507-7.322,10.288l-2.088,2.027V58h12.557  v-2.209h-8.805V55.73z M174.686,108.256v-0.06c2.35-0.863,3.57-2.56,3.57-4.583c0-2.352-1.727-4.613-5.535-4.613  c-2.084,0-4.049,0.744-5.09,1.488l0.715,1.905c0.834-0.596,2.32-1.28,3.869-1.28c2.41,0,3.393,1.369,3.393,2.917  c0,2.292-2.41,3.274-4.316,3.274h-1.457v1.964h1.457c2.531,0,4.971,1.161,5,3.869c0.031,1.637-1.041,3.75-4.375,3.75  c-1.844,0-3.541-0.744-4.285-1.19l-0.715,1.995c0.953,0.624,2.857,1.309,5.029,1.309c4.613,0,7.055-2.709,7.055-5.803  C178.971,110.488,177.066,108.702,174.686,108.256z M109.803,166.885c-2.145,0-3.785,1.014-4.709,2.266h-0.059  c0.447-3.219,2.592-6.199,6.736-6.855c0.744-0.119,1.43-0.179,1.967-0.148V160c-0.477,0-1.133,0.029-1.908,0.148  c-2.443,0.299-4.59,1.282-6.199,2.861c-1.938,1.908-3.279,4.918-3.279,8.734c0,5.037,2.713,8.256,6.826,8.256  c4.055,0,6.469-3.279,6.469-6.855C115.646,169.389,113.232,166.885,109.803,166.885z M109.238,177.973  c-2.773,0-4.264-2.385-4.293-5.574c0-0.477,0.119-0.834,0.268-1.132c0.717-1.431,2.207-2.384,3.785-2.384  c2.416,0,3.994,1.668,3.994,4.44S111.473,177.973,109.238,177.973z M46.66,98.93c-3.99,0-6.66,3.24-6.66,6.93  c0,3.33,2.25,5.97,5.729,5.97c1.98,0,3.541-0.75,4.621-2.07h0.09c-0.359,2.279-1.291,3.99-2.58,5.16  c-1.109,1.08-2.551,1.68-4.08,1.89c-0.9,0.09-1.561,0.149-2.129,0.09v2.159c0.629,0.031,1.469,0,2.43-0.149  c2.1-0.239,4.17-1.14,5.67-2.61c1.92-1.859,3.359-4.859,3.359-9.119C53.109,102.14,50.648,98.93,46.66,98.93z M50.199,107.81  c-0.689,1.17-2.07,2.04-3.84,2.04c-2.279,0-3.75-1.71-3.75-4.14c0-2.79,1.59-4.77,3.811-4.77c2.789,0,4.02,2.55,4.02,5.88  C50.439,107.27,50.35,107.54,50.199,107.81z" fill="#231F20"/>
<path d="M149.5,38.852c-1.436-0.828-3.27-0.336-4.098,1.098c-0.828,1.435-0.338,3.27,1.098,4.098  c1.434,0.829,3.27,0.337,4.098-1.098C151.426,41.516,150.934,39.681,149.5,38.852z M175.049,67.402  c-1.434,0.829-1.926,2.663-1.098,4.098s2.664,1.926,4.098,1.098c1.436-0.828,1.928-2.663,1.1-4.098  C178.318,67.065,176.484,66.574,175.049,67.402z M187,106c-1.658,0-3,1.343-3,3c-0.002,1.657,1.342,3,3,3c1.656,0.001,3-1.343,3-3  S188.656,106.001,187,106z M178.049,145.402c-1.436-0.828-3.27-0.337-4.098,1.098c-0.828,1.436-0.338,3.27,1.098,4.099  c1.434,0.829,3.27,0.337,4.098-1.099C179.975,148.065,179.484,146.231,178.049,145.402z M146.498,173.952  c-1.434,0.828-1.926,2.663-1.098,4.099c0.828,1.434,2.664,1.926,4.098,1.098c1.436-0.828,1.928-2.663,1.1-4.098  C149.768,173.615,147.934,173.124,146.498,173.952z M108.998,184c-1.656,0-3,1.344-3,3s1.344,3,3,3c1.658,0,3-1.343,3-3  C111.998,185.344,110.656,184,108.998,184z M71.498,173.951c-1.434-0.828-3.27-0.336-4.098,1.099s-0.336,3.27,1.098,4.099  c1.436,0.828,3.27,0.336,4.1-1.099C73.426,176.615,72.934,174.78,71.498,173.951z M39.949,145.401  c-1.436,0.827-1.926,2.663-1.098,4.099c0.828,1.435,2.662,1.926,4.098,1.098c1.434-0.828,1.926-2.663,1.098-4.098  C43.219,145.064,41.385,144.573,39.949,145.401z M31,106c-1.656,0-3,1.343-3,3s1.342,3,3,3c1.656-0.001,2.998-1.344,3-3  C34,107.343,32.656,106,31,106z M42.949,67.401c-1.434-0.828-3.27-0.336-4.098,1.098c-0.828,1.435-0.338,3.269,1.098,4.098  c1.436,0.828,3.27,0.336,4.098-1.098C44.877,70.065,44.385,68.23,42.949,67.401z M68.5,38.852c-1.436,0.829-1.926,2.663-1.098,4.098  c0.828,1.435,2.662,1.926,4.098,1.098s1.926-2.663,1.098-4.098C71.77,38.516,69.934,38.023,68.5,38.852z M109,28  c-1.656,0-3,1.343-3,3s1.344,3,3,3s3-1.343,3-3S110.656,28,109,28z" fill="#231F20"/>
<path d="M22.424,117.596l-5.969,0.627l0.107,0.994l5.967-0.626L22.424,117.596z M20.666,113.881v-2.93h1.602v-1.319  h-1.602v-0.752h-0.84v0.752h-4.879v1.241l1.172,0.717l3.746,2.291H20.666z M19.826,112.859l-3.209-1.908h3.209V112.859z   M23.797,126.599l-5.869,1.247l0.209,0.979l5.867-1.247L23.797,126.599z M22.527,99.408l-5.967-0.627l-0.104,0.995l5.967,0.627  L22.527,99.408z M199.521,110.967c0,0.515-0.121,0.9-0.365,1.158c-0.242,0.257-0.604,0.385-1.086,0.385  c-0.547,0-0.945-0.116-1.199-0.349c-0.252-0.233-0.377-0.593-0.377-1.081c0-0.326,0.078-0.79,0.238-1.392v-0.01h-0.859  c-0.146,0.57-0.219,1.103-0.219,1.601c0,0.876,0.201,1.526,0.607,1.951c0.404,0.425,1.023,0.637,1.857,0.637  c0.732,0,1.291-0.193,1.676-0.583c0.383-0.39,0.576-0.946,0.576-1.673c0-0.228-0.004-0.385-0.01-0.473h1.811v2.52h0.84v-3.76h-3.539  C199.504,110.256,199.521,110.612,199.521,110.967z M26.104,135.408l-5.707,1.854l0.309,0.95l5.707-1.854L26.104,135.408z   M24.004,90.422l-5.869-1.248l-0.207,0.979l5.869,1.248L24.004,90.422z M26.412,81.639l-5.707-1.854l-0.309,0.951l5.707,1.854  L26.412,81.639z M18.479,107.032c0-0.514,0.121-0.9,0.363-1.157s0.604-0.386,1.086-0.386c0.547,0,0.947,0.116,1.199,0.349  s0.379,0.593,0.379,1.082c0,0.326-0.08,0.79-0.24,1.392v0.01h0.859c0.146-0.57,0.221-1.104,0.221-1.602  c0-0.875-0.203-1.526-0.609-1.951c-0.404-0.425-1.023-0.637-1.857-0.637c-0.732,0-1.291,0.194-1.674,0.583  c-0.385,0.389-0.576,0.946-0.576,1.672c0,0.228,0.002,0.386,0.01,0.474h-1.813v-2.52h-0.84v3.76h3.541  C18.494,107.743,18.479,107.387,18.479,107.032z M34.945,157.404l-1.465-2.537l1.387-0.801l-0.658-1.143l-1.387,0.801l-0.377-0.65  l-0.727,0.42l0.375,0.65l-4.225,2.439l0.621,1.074l1.373,0.035l4.389,0.111L34.945,157.404z M29.975,156.891l2.779-1.604  l0.955,1.652L29.975,156.891z M33.467,54.74l4.854,3.526l0.588-0.81l-4.854-3.526L33.467,54.74z M33.467,163.26l0.588,0.808  l4.854-3.526l-0.588-0.809L33.467,163.26z M39.553,170.857l0.668,0.742l4.459-4.014l-0.668-0.744L39.553,170.857z M187.107,154.637  c-0.658-0.381-1.248-0.662-1.764-0.842s-1.012-0.211-1.484-0.093c-0.475,0.117-0.877,0.464-1.209,1.038  c-0.379,0.657-0.438,1.287-0.174,1.888c0.264,0.602,1.037,1.272,2.32,2.013c1.17,0.676,2.08,0.98,2.736,0.915  c0.652-0.066,1.168-0.425,1.545-1.075c0.387-0.672,0.441-1.314,0.166-1.929C188.967,155.938,188.256,155.299,187.107,154.637z   M188.393,158.045c-0.16,0.279-0.428,0.403-0.799,0.373c-0.371-0.029-1.078-0.346-2.121-0.948c-1.086-0.627-1.752-1.101-1.996-1.421  c-0.246-0.32-0.285-0.623-0.119-0.911s0.439-0.409,0.824-0.364c0.383,0.045,1.133,0.39,2.25,1.034  c0.566,0.327,1.004,0.601,1.314,0.818c0.311,0.219,0.531,0.446,0.666,0.683C188.547,157.546,188.539,157.791,188.393,158.045z   M195.471,118.59l5.967,0.628l0.105-0.993l-5.969-0.629L195.471,118.59z M39.553,47.142l4.459,4.015l0.668-0.744l-4.457-4.015  L39.553,47.142z M29.316,143.929l-5.48,2.44l0.406,0.913l5.482-2.439L29.316,143.929z M193.994,127.576l5.869,1.248l0.209-0.977  l-5.869-1.25L193.994,127.576z M183.369,62.783l-0.768-1.328l-0.676,0.391l2.156,3.734l0.676-0.391l-0.725-1.256l5.68-3.279  l-0.355-0.613l-1.664-1.525l-0.676,0.391l1.07,1.152L183.369,62.783z M185.967,65.281c-0.414,0.357-0.688,0.771-0.824,1.239  c-0.135,0.469-0.035,0.991,0.297,1.566c0.379,0.656,0.895,1.021,1.547,1.094c0.652,0.072,1.621-0.262,2.902-1.002  c1.17-0.676,1.891-1.313,2.16-1.913c0.271-0.6,0.219-1.225-0.158-1.876c-0.387-0.671-0.916-1.04-1.586-1.108  c-0.672-0.067-1.58,0.229-2.727,0.893C186.918,64.555,186.381,64.924,185.967,65.281z M189.619,64.615  c0.344-0.159,0.652-0.237,0.924-0.234c0.273,0.002,0.482,0.131,0.629,0.385c0.162,0.278,0.135,0.571-0.076,0.878  c-0.213,0.307-0.84,0.762-1.883,1.363c-1.086,0.627-1.828,0.967-2.229,1.019c-0.4,0.053-0.684-0.064-0.85-0.353  c-0.166-0.287-0.133-0.586,0.098-0.896c0.23-0.31,0.904-0.787,2.021-1.432C188.82,65.018,189.275,64.774,189.619,64.615z   M188.68,74.07l5.482-2.441l-0.404-0.912l-5.484,2.438L188.68,74.07z M171.6,40.221l-0.74-0.669l-4.018,4.459l0.742,0.67  L171.6,40.221z M195.574,100.402l5.969-0.627l-0.104-0.993l-5.969,0.625L195.574,100.402z M154.094,34.274  c0.57-0.139,1.064-0.569,1.48-1.29c0.367-0.635,0.479-1.215,0.332-1.743c-0.145-0.526-0.531-0.972-1.16-1.335  c-0.197-0.113-0.334-0.189-0.414-0.229l0.906-1.568l2.182,1.26l0.42-0.728l-3.256-1.88l-1.771,3.066  c0.328,0.15,0.645,0.314,0.951,0.492c0.445,0.257,0.719,0.555,0.82,0.894s0.033,0.716-0.209,1.134  c-0.273,0.474-0.574,0.762-0.902,0.863s-0.703,0.031-1.125-0.213c-0.283-0.163-0.645-0.464-1.086-0.903l-0.008-0.005l-0.43,0.744  c0.42,0.412,0.846,0.742,1.277,0.991C152.859,34.262,153.523,34.413,154.094,34.274z M194.201,91.4l5.871-1.248l-0.207-0.977  l-5.871,1.245L194.201,91.4z M191.895,82.59l5.707-1.854l-0.307-0.95l-5.709,1.852L191.895,82.59z M65.443,29.622  c0.445-0.257,0.84-0.345,1.184-0.263s0.635,0.331,0.877,0.748c0.273,0.474,0.373,0.877,0.297,1.212s-0.324,0.625-0.748,0.869  c-0.281,0.163-0.723,0.326-1.324,0.488l-0.008,0.005l0.43,0.745c0.566-0.158,1.064-0.362,1.496-0.611  c0.758-0.438,1.221-0.938,1.385-1.501c0.166-0.563,0.041-1.206-0.377-1.928c-0.365-0.634-0.813-1.021-1.342-1.159  c-0.529-0.138-1.107-0.025-1.736,0.338c-0.197,0.114-0.332,0.196-0.406,0.245l-0.904-1.569l2.182-1.26l-0.42-0.728l-3.256,1.88  l1.77,3.066C64.834,29.992,65.135,29.8,65.443,29.622z M202.393,104.636h-0.781l0.352,1.533h-5.449v-1.533h-0.781v4.312h0.781v-1.45  h6.557v-0.708L202.393,104.636z M58.268,38.32l-3.527-4.854l-0.809,0.588l3.525,4.854L58.268,38.32z M119.217,16.561l-0.992-0.106  l-0.629,5.97l0.996,0.104L119.217,16.561z M29.043,66.444c0.258-0.445,0.555-0.719,0.895-0.82c0.338-0.102,0.717-0.032,1.133,0.209  c0.475,0.273,0.762,0.574,0.863,0.902c0.104,0.328,0.031,0.703-0.213,1.125c-0.162,0.282-0.463,0.644-0.902,1.086l-0.006,0.008  l0.746,0.43c0.41-0.42,0.74-0.846,0.99-1.276c0.438-0.759,0.588-1.423,0.449-1.994c-0.139-0.57-0.568-1.064-1.291-1.481  c-0.635-0.366-1.215-0.477-1.742-0.332c-0.527,0.145-0.973,0.531-1.334,1.16c-0.115,0.197-0.191,0.336-0.229,0.415l-1.57-0.905  l1.26-2.183l-0.727-0.42l-1.881,3.257l3.066,1.77C28.701,67.068,28.865,66.752,29.043,66.444z M30.891,63.363  c0.658,0.381,1.246,0.661,1.764,0.841c0.516,0.18,1.012,0.211,1.484,0.093c0.475-0.117,0.877-0.463,1.209-1.038  c0.379-0.657,0.438-1.286,0.174-1.888s-1.037-1.272-2.32-2.013c-1.17-0.676-2.082-0.98-2.736-0.915  c-0.654,0.066-1.168,0.425-1.545,1.076c-0.387,0.671-0.443,1.313-0.166,1.928C29.031,62.063,29.742,62.701,30.891,63.363z   M29.605,59.954c0.16-0.279,0.426-0.403,0.799-0.373c0.371,0.03,1.078,0.346,2.121,0.948c1.086,0.627,1.752,1.101,1.996,1.421  c0.246,0.32,0.285,0.624,0.119,0.911c-0.166,0.288-0.441,0.41-0.824,0.364c-0.385-0.045-1.133-0.39-2.25-1.034  c-0.566-0.327-1.006-0.6-1.314-0.819c-0.311-0.218-0.531-0.446-0.666-0.682C29.451,60.453,29.459,60.208,29.605,59.954z   M61.043,32.163c0.445-0.257,0.84-0.345,1.184-0.263c0.344,0.081,0.637,0.331,0.877,0.748c0.273,0.474,0.373,0.877,0.297,1.213  c-0.076,0.334-0.324,0.624-0.748,0.868c-0.281,0.163-0.723,0.326-1.324,0.488l-0.008,0.005l0.43,0.745  c0.566-0.159,1.064-0.362,1.496-0.611c0.758-0.438,1.221-0.938,1.385-1.502c0.166-0.563,0.041-1.206-0.377-1.927  c-0.365-0.634-0.813-1.021-1.342-1.159s-1.107-0.025-1.736,0.337c-0.197,0.114-0.332,0.196-0.406,0.245l-0.904-1.569l2.182-1.26  l-0.42-0.728l-3.256,1.88l1.77,3.066C60.434,32.532,60.734,32.34,61.043,32.163z M100.402,22.424l-0.627-5.967l-0.994,0.104  l0.627,5.967L100.402,22.424z M29.725,73.156l-5.48-2.44l-0.408,0.914l5.482,2.44L29.725,73.156z M32.033,152.72  c0.414-0.357,0.688-0.771,0.822-1.239c0.137-0.469,0.037-0.991-0.295-1.566c-0.379-0.656-0.895-1.021-1.547-1.094  s-1.621,0.262-2.904,1.002c-1.17,0.676-1.889,1.313-2.16,1.912c-0.27,0.601-0.217,1.226,0.16,1.877  c0.387,0.671,0.916,1.04,1.586,1.107c0.672,0.068,1.58-0.229,2.727-0.892C31.082,153.446,31.619,153.077,32.033,152.72z   M28.381,153.385c-0.344,0.159-0.652,0.238-0.926,0.235c-0.271-0.003-0.48-0.131-0.627-0.385c-0.162-0.278-0.137-0.571,0.076-0.878  c0.211-0.308,0.84-0.762,1.883-1.363c1.084-0.627,1.828-0.967,2.229-1.019c0.398-0.053,0.682,0.064,0.848,0.353  c0.166,0.287,0.135,0.586-0.096,0.896c-0.232,0.31-0.904,0.787-2.021,1.432C29.18,152.982,28.725,153.226,28.381,153.385z   M135.408,26.104l0.951,0.309l1.854-5.707l-0.947-0.311L135.408,26.104z M135.408,191.896l1.855,5.706l0.949-0.309l-1.854-5.706  L135.408,191.896z M143.93,188.682l2.439,5.481l0.914-0.406l-2.439-5.481L143.93,188.682z M143.928,29.318l0.914,0.407l2.441-5.482  l-0.912-0.408L143.928,29.318z M152.557,188.379c-0.445,0.257-0.84,0.345-1.184,0.263c-0.346-0.081-0.637-0.331-0.877-0.748  c-0.273-0.474-0.373-0.878-0.299-1.213c0.076-0.335,0.326-0.624,0.748-0.868c0.283-0.163,0.723-0.326,1.324-0.488l0.01-0.005  l-0.43-0.745c-0.566,0.159-1.066,0.362-1.498,0.611c-0.758,0.438-1.219,0.938-1.385,1.502s-0.039,1.205,0.377,1.928  c0.367,0.634,0.814,1.02,1.344,1.158c0.527,0.139,1.107,0.025,1.736-0.338c0.197-0.113,0.332-0.195,0.404-0.244l0.906,1.568  l-2.182,1.26l0.42,0.728l3.256-1.88l-1.77-3.066C153.164,188.009,152.863,188.201,152.557,188.379z M117.596,195.576l0.627,5.967  l0.996-0.104l-0.627-5.968L117.596,195.576z M126.6,194.203l1.246,5.869l0.979-0.209l-1.246-5.868L126.6,194.203z M126.598,23.797  l0.979,0.208l1.248-5.87l-0.977-0.21L126.598,23.797z M159.732,179.678l3.527,4.854l0.809-0.587l-3.525-4.855L159.732,179.678z   M173.316,50.413l0.67,0.744l4.461-4.016l-0.668-0.743L173.316,50.413z M184.531,54.739l-0.584-0.808l-4.859,3.525l0.59,0.81  L184.531,54.739z M179.09,160.541l4.855,3.527l0.588-0.809l-4.855-3.528L179.09,160.541z M159.203,187.314  c-0.414,0.49-0.803,0.842-1.17,1.053c-0.346,0.201-0.654,0.269-0.922,0.203c-0.27-0.064-0.498-0.261-0.686-0.588  c-0.107-0.186-0.162-0.404-0.164-0.654c-0.004-0.251,0.102-0.667,0.313-1.246c0.174-0.485,0.303-0.912,0.387-1.281  c0.084-0.37,0.104-0.77,0.059-1.198s-0.193-0.863-0.447-1.304l-0.268-0.461l-3.771,2.178l0.426,0.736l2.672-1.543  c0.133,0.258,0.201,0.525,0.203,0.805s-0.035,0.557-0.109,0.832c-0.074,0.276-0.189,0.635-0.35,1.076  c-0.285,0.785-0.418,1.37-0.396,1.754c0.023,0.384,0.123,0.729,0.301,1.037c0.314,0.546,0.721,0.864,1.215,0.952  c0.494,0.089,1.063-0.052,1.701-0.421c0.52-0.3,1.002-0.693,1.451-1.182l-0.436-0.752L159.203,187.314z M173.318,167.585  l4.459,4.016l0.67-0.743l-4.459-4.016L173.318,167.585z M166.842,173.987l4.016,4.46l0.744-0.669l-4.016-4.46L166.842,173.987z   M111.811,14.909c-0.775,0-1.359,0.273-1.752,0.82c-0.395,0.547-0.592,1.483-0.592,2.808c0,0.762,0.051,1.411,0.154,1.948  c0.102,0.537,0.322,0.981,0.662,1.333c0.338,0.352,0.84,0.527,1.504,0.527c0.758,0,1.332-0.265,1.721-0.793s0.584-1.534,0.584-3.015  c0-1.351-0.193-2.293-0.576-2.827C113.131,15.176,112.563,14.909,111.811,14.909z M112.506,20.976  c-0.154,0.373-0.396,0.559-0.729,0.559s-0.576-0.177-0.729-0.532s-0.229-1.177-0.229-2.466c0-0.654,0.016-1.17,0.051-1.548  c0.033-0.377,0.121-0.684,0.258-0.918c0.139-0.234,0.355-0.352,0.648-0.352c0.322,0,0.563,0.168,0.723,0.505  c0.158,0.337,0.238,1.107,0.238,2.312C112.738,19.791,112.662,20.604,112.506,20.976z M159.73,38.321l0.811,0.588l3.527-4.855  l-0.807-0.588L159.73,38.321z M46.398,177.777l0.744,0.668l4.014-4.457l-0.742-0.67L46.398,177.777z M70.717,24.243l2.439,5.481  l0.914-0.407l-2.439-5.481L70.717,24.243z M70.717,193.757l0.912,0.405l2.441-5.48l-0.914-0.407L70.717,193.757z M79.785,20.706  l1.854,5.707l0.953-0.309l-1.855-5.706L79.785,20.706z M79.785,197.294l0.951,0.308l1.855-5.706l-0.953-0.309L79.785,197.294z   M66.201,184.996c-0.563,0.105-1.031,0.48-1.404,1.127c-0.225,0.392-0.309,0.778-0.25,1.16c0.061,0.383,0.268,0.723,0.621,1.021  c-0.426-0.103-0.811-0.081-1.154,0.064c-0.342,0.146-0.617,0.397-0.824,0.755c-0.299,0.52-0.363,1.002-0.188,1.448  c0.174,0.446,0.584,0.856,1.23,1.229c0.428,0.247,0.945,0.457,1.551,0.631l0.43-0.744l-0.008-0.005  c-0.604-0.157-1.051-0.319-1.338-0.485c-0.326-0.188-0.527-0.408-0.604-0.658c-0.076-0.251-0.023-0.529,0.152-0.836  c0.203-0.35,0.455-0.55,0.758-0.6c0.305-0.051,0.871,0.163,1.699,0.642l0.408-0.706c-0.838-0.483-1.32-0.882-1.447-1.196  c-0.127-0.313-0.07-0.678,0.168-1.093c0.225-0.386,0.486-0.619,0.793-0.701c0.305-0.082,0.646-0.012,1.031,0.209  c0.318,0.185,0.715,0.505,1.188,0.963l0.008,0.004l0.424-0.735c-0.396-0.405-0.82-0.739-1.271-0.999  C67.422,185.055,66.764,184.891,66.201,184.996z M46.398,40.222l4.016,4.459l0.742-0.67l-4.014-4.458L46.398,40.222z M62.035,186.41  c-0.445-0.257-0.719-0.555-0.82-0.894s-0.031-0.716,0.209-1.134c0.273-0.474,0.574-0.762,0.902-0.863  c0.326-0.102,0.701-0.031,1.125,0.213c0.281,0.163,0.645,0.464,1.086,0.903l0.008,0.005l0.43-0.744  c-0.42-0.412-0.846-0.742-1.277-0.991c-0.758-0.438-1.422-0.588-1.992-0.449s-1.064,0.569-1.482,1.29  c-0.365,0.635-0.477,1.215-0.332,1.743c0.146,0.526,0.531,0.972,1.16,1.335c0.199,0.113,0.336,0.189,0.416,0.229l-0.906,1.568  l-2.182-1.26l-0.42,0.728l3.256,1.88l1.77-3.066C62.658,186.752,62.342,186.588,62.035,186.41z M57.457,179.09l-3.527,4.855  l0.811,0.586l3.527-4.854L57.457,179.09z M89.176,18.136l1.246,5.869l0.979-0.208l-1.248-5.869L89.176,18.136z M89.176,199.863  l0.977,0.207l1.248-5.869l-0.979-0.207L89.176,199.863z M107.717,196.182c-0.338-0.352-0.84-0.527-1.504-0.527  c-0.758,0-1.332,0.266-1.721,0.794c-0.391,0.528-0.584,1.534-0.584,3.015c0,1.352,0.191,2.294,0.576,2.828  c0.385,0.533,0.951,0.801,1.703,0.801c0.775,0,1.359-0.273,1.754-0.82s0.59-1.483,0.59-2.809c0-0.762-0.051-1.41-0.152-1.947  C108.275,196.979,108.055,196.533,107.717,196.182z M107.129,201.012c-0.035,0.377-0.121,0.684-0.26,0.918s-0.354,0.352-0.646,0.352  c-0.322,0-0.563-0.169-0.723-0.506s-0.24-1.107-0.24-2.313c0-1.253,0.078-2.066,0.232-2.438s0.398-0.56,0.73-0.56  s0.574,0.178,0.727,0.533c0.154,0.354,0.23,1.176,0.23,2.465C107.18,200.117,107.162,200.634,107.129,201.012z M188.273,144.842  l5.482,2.441l0.406-0.913l-5.48-2.442L188.273,144.842z M109.943,196.214c-0.434,0.372-0.652,0.932-0.652,1.677  c0,0.453,0.121,0.83,0.365,1.131c0.242,0.301,0.592,0.492,1.047,0.574c-0.42,0.123-0.742,0.334-0.967,0.632  s-0.338,0.653-0.338,1.067c0,0.599,0.188,1.048,0.563,1.348c0.375,0.299,0.934,0.449,1.68,0.449c0.494,0,1.049-0.077,1.66-0.23  v-0.859h-0.01c-0.602,0.166-1.07,0.25-1.402,0.25c-0.377,0-0.66-0.09-0.852-0.27c-0.189-0.179-0.285-0.445-0.285-0.801  c0-0.403,0.119-0.703,0.355-0.898c0.238-0.195,0.836-0.293,1.793-0.293v-0.814c-0.967,0-1.584-0.104-1.852-0.313  c-0.266-0.209-0.4-0.553-0.4-1.031c0-0.445,0.111-0.779,0.336-1.003c0.223-0.224,0.555-0.335,0.998-0.335  c0.367,0,0.871,0.08,1.508,0.24h0.01v-0.85c-0.547-0.153-1.08-0.23-1.602-0.23C111.029,195.654,110.379,195.842,109.943,196.214z   M106.73,14.909c-0.775,0-1.359,0.273-1.754,0.82s-0.59,1.483-0.59,2.808c0,0.762,0.051,1.411,0.152,1.948  c0.104,0.537,0.324,0.981,0.662,1.333s0.84,0.527,1.504,0.527c0.758,0,1.332-0.265,1.721-0.793c0.391-0.529,0.584-1.534,0.584-3.015  c0-1.351-0.191-2.293-0.576-2.827S107.482,14.909,106.73,14.909z M107.426,20.976c-0.154,0.373-0.398,0.559-0.73,0.559  s-0.574-0.177-0.727-0.532c-0.154-0.355-0.23-1.177-0.23-2.466c0-0.654,0.018-1.17,0.051-1.548c0.035-0.377,0.121-0.684,0.26-0.918  s0.354-0.352,0.646-0.352c0.322,0,0.563,0.168,0.723,0.505s0.24,1.107,0.24,2.312C107.658,19.791,107.58,20.604,107.426,20.976z   M191.639,151.712c-0.113,0.631-0.275,1.129-0.486,1.495c-0.199,0.348-0.434,0.56-0.697,0.638c-0.266,0.078-0.563,0.022-0.889-0.166  c-0.186-0.107-0.342-0.27-0.469-0.485c-0.129-0.216-0.246-0.628-0.354-1.235c-0.09-0.507-0.191-0.941-0.305-1.304  c-0.111-0.361-0.295-0.717-0.549-1.066c-0.252-0.349-0.6-0.65-1.039-0.904l-0.461-0.266l-2.178,3.771l0.736,0.425l1.543-2.673  c0.244,0.156,0.438,0.355,0.578,0.596c0.141,0.241,0.248,0.5,0.322,0.775c0.072,0.275,0.152,0.645,0.234,1.105  c0.145,0.824,0.322,1.396,0.533,1.718s0.471,0.57,0.779,0.748c0.545,0.315,1.055,0.388,1.527,0.218  c0.473-0.172,0.895-0.576,1.264-1.217c0.299-0.519,0.521-1.101,0.666-1.747l-0.754-0.435L191.639,151.712z M98.781,201.438  l0.994,0.103l0.629-5.967l-0.996-0.104L98.781,201.438z M191.586,136.359l5.707,1.854l0.311-0.949l-5.707-1.856L191.586,136.359z" fill="#231F20"/>
<rect fill="none" height="218" width="218"/>
</svg>
