<?xml version="1.0" encoding="UTF-8"?>
<!DOCTYPE svg PUBLIC "-//W3C//DTD SVG 1.1 Tiny//EN" "http://www.w3.org/Graphics/SVG/1.1/DTD/svg11-tiny.dtd">
<svg baseProfile="tiny" height="30" viewBox="0 0 30 30" width="30" xmlns="http://www.w3.org/2000/svg" xmlns:xlink="http://www.w3.org/1999/xlink">
<rect fill="none" height="30" width="30"/>
<rect height="10" width="2" x="13.88" y="9.25"/>
<rect height="2" width="9.999" x="12.126" y="16"/>
<path d="M13.059,4.015c0.604-0.082,1.214-0.138,1.833-0.138c0.621,0,1.231,0.057,1.837,0.139V2.835h1.836V1.917 c0-0.508-0.41-0.917-0.918-0.917H12.14c-0.507,0-0.916,0.409-0.916,0.917v0.918h1.835V4.015z"/>
<path d="M15.001,5C8.373,5,3,10.372,3,17c0,6.627,5.373,12,12,12C21.627,29,27,23.627,27,17C27,10.372,21.627,5,15.001,5z M15.001,26c-4.971,0-9-4.029-9-9s4.03-9,9-9C19.971,8,24,12.029,24,17S19.971,26,15.001,26z"/>
<path d="M26.355,9.728C26.762,9.139,27,8.427,27,7.658C27,5.638,25.361,4,23.342,4c-0.916,0-1.742,0.348-2.385,0.903 C23.166,5.996,25.031,7.667,26.355,9.728z"/>
<path d="M9.043,4.904C8.401,4.348,7.574,4,6.659,4C4.638,4,3,5.638,3,7.658c0,0.769,0.239,1.48,0.644,2.069 C4.969,7.668,6.835,5.996,9.043,4.904z"/>
</svg>
