<?xml version="1.0" encoding="UTF-8" standalone="no"?>
<!DOCTYPE svg PUBLIC "-//W3C//DTD SVG 1.1 Tiny//EN" "http://www.w3.org/Graphics/SVG/1.1/DTD/svg11-tiny.dtd">
<svg xmlns="http://www.w3.org/2000/svg" xmlns:xlink="http://www.w3.org/1999/xlink" baseProfile="tiny" height="60" viewBox="0 0 60 60" width="60">
<g>
<rect fill="none" height="60" width="60"/>
<linearGradient gradientUnits="userSpaceOnUse" id="SVGID_1_" x1="30" x2="30" y1="2.001" y2="57.8555">
<stop offset="0" style="stop-color:#D1D7D9"/>
<stop offset="0.0667" style="stop-color:#D1D7D9"/>
<stop offset="0.2606" style="stop-color:#BDC2C4"/>
<stop offset="0.6606" style="stop-color:#949DA1"/>
<stop offset="0.9636" style="stop-color:#ADB3B5"/>
<stop offset="1" style="stop-color:#595C5E"/>
</linearGradient>
<path d="M48.027,54.932c0,1.693-1.375,3.069-3.068,3.069h-29.92c-1.693,0-3.066-1.376-3.066-3.069V5.07  c0-1.696,1.373-3.069,3.066-3.069h29.92c1.693,0,3.068,1.373,3.068,3.069V54.932z" fill="url(#SVGID_1_)"/>
<linearGradient gradientUnits="userSpaceOnUse" id="SVGID_2_" x1="30" x2="30" y1="2.001" y2="56.899">
<stop offset="0" style="stop-color:#E4EBED"/>
<stop offset="0.0667" style="stop-color:#E4EBED"/>
<stop offset="0.2606" style="stop-color:#D6DCDE"/>
<stop offset="0.6606" style="stop-color:#B2BEC2"/>
<stop offset="1" style="stop-color:#ADB3B5"/>
</linearGradient>
<path d="M44.959,2.001h-29.92c-1.693,0-3.066,1.373-3.066,3.069v49.861c0,0.82,0.324,1.56,0.848,2.11  c-0.047-0.187-0.08-0.377-0.08-0.575v-1.535V6.602V5.07c0-1.271,1.031-2.304,2.299-2.304h29.92c1.268,0,2.301,1.033,2.301,2.304  v1.531v48.33v1.535c0,0.198-0.033,0.389-0.08,0.575c0.521-0.551,0.848-1.29,0.848-2.11V5.07C48.027,3.374,46.652,2.001,44.959,2.001  z" fill="url(#SVGID_2_)"/>
<linearGradient gradientUnits="userSpaceOnUse" id="SVGID_3_" x1="30" x2="30" y1="5.8916" y2="43.4283">
<stop offset="0" style="stop-color:#B6BBBD"/>
<stop offset="1" style="stop-color:#F0FBFF"/>
</linearGradient>
<rect fill="url(#SVGID_3_)" fill-opacity="0.6" height="37.589" stroke-opacity="0.6" width="31.453" x="14.273" y="5.836"/>
<linearGradient gradientUnits="userSpaceOnUse" id="SVGID_4_" x1="29.999" x2="29.999" y1="6.6548" y2="42.6624">
<stop offset="0" style="stop-color:#6E6E6E"/>
<stop offset="1" style="stop-color:#333333"/>
</linearGradient>
<rect fill="url(#SVGID_4_)" height="36.058" width="29.92" x="15.039" y="6.602"/>
<linearGradient gradientUnits="userSpaceOnUse" id="SVGID_5_" x1="30" x2="30" y1="7.4214" y2="41.894">
<stop offset="0" style="stop-color:#3BC8EB"/>
<stop offset="0.3879" style="stop-color:#2D9BD2"/>
<stop offset="0.8909" style="stop-color:#1347BA"/>
<stop offset="1" style="stop-color:#1347BA"/>
</linearGradient>
<rect fill="url(#SVGID_5_)" height="34.521" width="28.383" x="15.809" y="7.37"/>
<linearGradient gradientUnits="userSpaceOnUse" id="SVGID_6_" x1="30" x2="30" y1="7.9712" y2="21.69">
<stop offset="0" style="stop-color:#85EFFF"/>
<stop offset="1" style="stop-color:#3BA1D9"/>
</linearGradient>
<polygon fill="url(#SVGID_6_)" points="44.191,19.644 15.809,22.712 15.809,8.137 44.191,8.137 "/>
<rect fill="#9FE4FF" height="0.767" width="28.383" x="15.809" y="7.37"/>
<linearGradient gradientUnits="userSpaceOnUse" id="SVGID_7_" x1="30.2236" x2="30.2236" y1="5.8726" y2="2.8032">
<stop offset="0" style="stop-color:#FFFFFF"/>
<stop offset="1" style="stop-color:#D1D7D9"/>
</linearGradient>
<path d="M26.832,5.836c-0.861,0-1.535-0.563-1.535-1.279v-0.51c0-0.718,0.674-1.28,1.535-1.28h6.785  c0.859,0,1.533,0.563,1.533,1.28v0.51c0,0.716-0.674,1.279-1.533,1.279H26.832z" fill="url(#SVGID_7_)"/>
<linearGradient gradientUnits="userSpaceOnUse" id="SVGID_8_" x1="30.2236" x2="30.2236" y1="3.2158" y2="5.1992">
<stop offset="0" style="stop-color:#6C7375"/>
<stop offset="1" style="stop-color:#BDC2C4"/>
</linearGradient>
<path d="M34.383,4.557c0,0.283-0.342,0.514-0.766,0.514h-6.785c-0.424,0-0.768-0.23-0.768-0.514v-0.51  c0-0.283,0.344-0.512,0.768-0.512h6.785c0.424,0,0.766,0.229,0.766,0.512V4.557z" fill="url(#SVGID_8_)"/>
<linearGradient gradientUnits="userSpaceOnUse" id="SVGID_9_" x1="29.8818" x2="29.8818" y1="44.2236" y2="55.628">
<stop offset="0" style="stop-color:#B6BBBD"/>
<stop offset="1" style="stop-color:#FFFFFF"/>
</linearGradient>
<path d="M27.109,55.7c-1.645,0-2.98-1.323-2.98-2.951v-5.606c0-1.627,1.336-2.951,2.98-2.951  h5.545c1.645,0,2.98,1.324,2.98,2.951v5.606c0,1.628-1.336,2.951-2.98,2.951H27.109z" fill="url(#SVGID_9_)" fill-opacity="0.6" stroke-opacity="0.6"/>
<path d="M27.105,54.932c-1.219,0-2.211-0.979-2.211-2.183v-5.606c0-1.204,0.992-2.183,2.211-2.183  h5.553c1.219,0,2.209,0.979,2.209,2.183v5.606c0,1.204-0.99,2.183-2.209,2.183H27.105z" fill="#020202" fill-opacity="0.5" stroke-opacity="0.5"/>
<linearGradient gradientUnits="userSpaceOnUse" id="SVGID_10_" x1="29.8818" x2="29.8818" y1="45.6865" y2="54.1806">
<stop offset="0" style="stop-color:#A6A8AB"/>
<stop offset="0.703" style="stop-color:#58595B"/>
<stop offset="1" style="stop-color:#808184"/>
</linearGradient>
<path d="M34.102,52.749c0,0.783-0.645,1.417-1.438,1.417h-5.566c-0.793,0-1.436-0.634-1.436-1.417v-5.606  c0-0.783,0.643-1.417,1.436-1.417h5.566c0.793,0,1.438,0.634,1.438,1.417V52.749z" fill="url(#SVGID_10_)"/>
<path d="M28.73,52.632c-0.846,0-1.533-0.688-1.533-1.534v-2.303c0-0.847,0.688-1.534,1.533-1.534  h2.303c0.846,0,1.533,0.688,1.533,1.534v2.303c0,0.847-0.688,1.534-1.533,1.534H28.73z" fill="#020202" fill-opacity="0.2" stroke-opacity="0.2"/>
<linearGradient gradientUnits="userSpaceOnUse" id="SVGID_11_" x1="29.8809" x2="29.8809" y1="48.0103" y2="51.8696">
<stop offset="0" style="stop-color:#D1D7D9"/>
<stop offset="0.0667" style="stop-color:#D1D7D9"/>
<stop offset="0.2606" style="stop-color:#BDC2C4"/>
<stop offset="0.6606" style="stop-color:#949DA1"/>
<stop offset="0.9636" style="stop-color:#ADB3B5"/>
<stop offset="1" style="stop-color:#595C5E"/>
</linearGradient>
<path d="M28.73,51.863c-0.422,0-0.768-0.345-0.768-0.766v-2.303c0-0.422,0.346-0.767,0.768-0.767h2.303  c0.42,0,0.766,0.345,0.766,0.767v2.303c0,0.421-0.346,0.766-0.766,0.766H28.73z" fill="url(#SVGID_11_)"/>
<linearGradient gradientUnits="userSpaceOnUse" id="SVGID_12_" x1="17.667" x2="17.667" y1="44.917" y2="54.1816">
<stop offset="0" style="stop-color:#B6BBBD"/>
<stop offset="1" style="stop-color:#F0FBFF"/>
</linearGradient>
<path d="M17.223,54.166c-1.625,0-2.949-1.323-2.949-2.951v-3.307  c0-1.624,1.324-2.948,2.949-2.948h0.887c1.627,0,2.951,1.324,2.951,2.948v3.307c0,1.628-1.324,2.951-2.951,2.951H17.223z" fill="url(#SVGID_12_)" fill-opacity="0.4" stroke-opacity="0.4"/>
<linearGradient gradientUnits="userSpaceOnUse" id="SVGID_13_" x1="17.665" x2="17.665" y1="45.6899" y2="53.4106">
<stop offset="0" style="stop-color:#231F20"/>
<stop offset="1" style="stop-color:#6D6E70"/>
</linearGradient>
<path d="M17.223,53.397c-1.203,0-2.184-0.979-2.184-2.183v-3.307  c0-1.201,0.98-2.183,2.184-2.183h0.887c1.205,0,2.182,0.981,2.182,2.183v3.307c0,1.204-0.977,2.183-2.182,2.183H17.223z" fill="url(#SVGID_13_)" fill-opacity="0.7" stroke-opacity="0.7"/>
<linearGradient gradientUnits="userSpaceOnUse" id="SVGID_14_" x1="17.667" x2="17.667" y1="46.4658" y2="52.6426">
<stop offset="0" style="stop-color:#C6FF45"/>
<stop offset="0.7273" style="stop-color:#66A00E"/>
<stop offset="1" style="stop-color:#387300"/>
</linearGradient>
<path d="M19.525,51.215c0,0.783-0.635,1.417-1.416,1.417h-0.887c-0.779,0-1.414-0.634-1.414-1.417v-3.307  c0-0.78,0.635-1.414,1.414-1.414h0.887c0.781,0,1.416,0.634,1.416,1.414V51.215z" fill="url(#SVGID_14_)"/>
<linearGradient gradientUnits="userSpaceOnUse" id="SVGID_15_" x1="41.6719" x2="41.6719" y1="44.917" y2="54.1816">
<stop offset="0" style="stop-color:#B6BBBD"/>
<stop offset="1" style="stop-color:#F0FBFF"/>
</linearGradient>
<path d="M41.229,54.166c-1.625,0-2.949-1.323-2.949-2.951v-3.307  c0-1.624,1.324-2.948,2.949-2.948h0.885c1.627,0,2.951,1.324,2.951,2.948v3.307c0,1.628-1.324,2.951-2.951,2.951H41.229z" fill="url(#SVGID_15_)" fill-opacity="0.4" stroke-opacity="0.4"/>
<linearGradient gradientUnits="userSpaceOnUse" id="SVGID_16_" x1="41.6709" x2="41.6709" y1="45.6899" y2="53.4106">
<stop offset="0" style="stop-color:#231F20"/>
<stop offset="1" style="stop-color:#6D6E70"/>
</linearGradient>
<path d="M41.229,53.397c-1.203,0-2.184-0.979-2.184-2.183v-3.307  c0-1.201,0.98-2.183,2.184-2.183h0.885c1.205,0,2.184,0.981,2.184,2.183v3.307c0,1.204-0.979,2.183-2.184,2.183H41.229z" fill="url(#SVGID_16_)" fill-opacity="0.7" stroke-opacity="0.7"/>
<linearGradient gradientUnits="userSpaceOnUse" id="SVGID_17_" x1="41.6719" x2="41.6719" y1="46.4658" y2="52.6426">
<stop offset="0" style="stop-color:#FFC142"/>
<stop offset="0.7455" style="stop-color:#CF4E18"/>
<stop offset="1" style="stop-color:#B52100"/>
</linearGradient>
<path d="M43.531,51.215c0,0.783-0.637,1.417-1.418,1.417h-0.885c-0.781,0-1.416-0.634-1.416-1.417v-3.307  c0-0.78,0.635-1.414,1.416-1.414h0.885c0.781,0,1.418,0.634,1.418,1.414V51.215z" fill="url(#SVGID_17_)"/>
<rect fill="none" height="60" width="60"/>
</g>
<g transform="matrix(1 0 0 1 30 30)">
<path d="M0,30v-30h30v30h-30zm23.6-3.75l-8.732-8.732-8.736,8.73h17.46zm2.65-2.65v-17.47l-8.732,8.732,8.73,8.73zm-22.5-0.27l8.465-8.465-8.47-8.459v16.93zm11.12-11.11l8.46-8.47h-16.93l8.468,8.47z" fill-opacity="0.6" stroke-opacity="0.6"/>
<linearGradient gradientUnits="userSpaceOnUse" id="SVGID_1__" x1="15" x2="15" y1="0.9941" y2="29.19">
<stop offset="0" stop-color="#E6E6E6"/>
<stop offset="0.6182" stop-color="#A8A8A8"/>
<stop offset="1" stop-color="#CCCCCC"/>
</linearGradient>
<path d="M0.938,0.938v28.12h28.12v-28.12h-28.12zm12.6,13.93l-10.73,10.73v-21.46l10.73,10.73zm-9.401-12.06h21.46l-10.72,10.73-10.73-10.73zm10.73,13.38l11,11h-22l11-11zm1.32-1.32l11-11v21.99l-11-10.99z" fill="url(#SVGID_1__)"/>
<polygon fill-opacity="0.6" points="8.547,25.31,7.61,17.81,5.625,17.81,5.625,12.2,24.38,12.2,24.38,17.81,22.39,17.81,21.45,25.31" stroke-opacity="0.6"/>
<linearGradient gradientUnits="userSpaceOnUse" id="SVGID_2__" x1="15" x2="15" y1="12.1" y2="23.99">
<stop offset="0" stop-color="#A0F800"/>
<stop offset="1" stop-color="#319E00"/>
</linearGradient>
<polygon fill="url(#SVGID_2__)" points="6.563,13.14,6.563,16.88,8.438,16.88,9.375,24.38,20.62,24.38,21.56,16.88,23.44,16.88,23.44,13.14"/>
<path d="M13.12,14.06v-2.886c-0.348,0.048-0.692,0.073-1.03,0.073-0.804,0-1.568-0.139-2.272-0.414-3.952-1.536-3.863-4.501-3.858-4.626l0.019-0.408,0.312-0.265c0.103-0.088,1.06-0.855,2.881-0.855,0.958,0,1.99,0.212,3.066,0.632,1.3,0.506,2.174,1.126,2.762,1.716,0.588-0.589,1.462-1.209,2.762-1.716,1.076-0.42,2.108-0.632,3.066-0.632,1.82,0,2.777,0.767,2.881,0.855l0.313,0.265,0.019,0.408c0.005,0.125,0.094,3.091-3.862,4.632-0.704,0.275-1.469,0.414-2.272,0.414-0.338,0-0.683-0.025-1.03-0.073v2.886h-3.755z" fill-opacity="0.6" stroke-opacity="0.6"/>
<path d="M10.16,9.963c1.436,0.559,2.896,0.346,3.899,0.057v3.105h1.875v-3.1c1.003,0.289,2.464,0.502,3.899-0.057,3.375-1.316,3.267-3.717,3.267-3.717s-1.627-1.379-5.002-0.064c-1.87,0.725-2.72,1.667-3.11,2.369-0.392-0.702-1.242-1.644-3.102-2.369-3.377-1.316-5.004,0.064-5.004,0.064s-0.108,2.401,3.264,3.717z" fill="url(#SVGID_3__)"/>
<defs>
<linearGradient gradientUnits="userSpaceOnUse" id="SVGID_3__" x1="15" x2="15" y1="4.922" y2="12.87">
<stop offset="0" stop-color="#A0F800"/>
<stop offset="1" stop-color="#319E00"/>
</linearGradient>
</defs>
<linearGradient gradientUnits="userSpaceOnUse" id="SVGID_4__" x1="15" x2="15" y1="12.55" y2="17.37">
<stop offset="0" stop-color="#D07100"/>
<stop offset="1" stop-color="#A23600"/>
</linearGradient>
<rect fill="url(#SVGID_4__)" height="3.738" width="16.88" x="6.563" y="13.14"/>
<linearGradient gradientUnits="userSpaceOnUse" id="SVGID_5__" x1="15" x2="15" y1="16.84" y2="24.56">
<stop offset="0" stop-color="#D07100"/>
<stop offset="1" stop-color="#A23600"/>
</linearGradient>
<polygon fill="url(#SVGID_5__)" points="20.62,24.38,9.375,24.38,8.438,16.88,21.56,16.88"/>
<path d="M23.1,6.246s-1.627-1.379-5.002-0.064c-1.86,0.725-2.71,1.667-3.1,2.369-0.392-0.702-1.242-1.644-3.102-2.369-3.377-1.316-5.004,0.064-5.004,0.064s-0.109,2.401,3.267,3.717c1.436,0.559,2.896,0.346,3.899,0.057v3.105h1.875v-3.1c1.003,0.289,2.464,0.502,3.899-0.057,3.37-1.316,3.26-3.717,3.26-3.717z" fill="url(#SVGID_3__)"/>
<g fill-opacity="0.2" stroke-opacity="0.2">
<path d="M14.06,9.082c-1.003,0.289-2.464,0.502-3.899-0.057-2.1-0.82-2.85-2.062-3.118-2.881-0.094,0.06-0.146,0.102-0.146,0.102s-0.109,2.401,3.267,3.717c1.436,0.559,2.896,0.346,3.899,0.057v-0.938z"/>
<path d="M22.96,6.144c-0.268,0.819-1.018,2.061-3.121,2.881-1.436,0.559-2.896,0.346-3.899,0.057v0.938c1.003,0.289,2.464,0.502,3.899-0.057,3.375-1.316,3.267-3.717,3.267-3.717s-0.06-0.042-0.15-0.102z"/>
<rect height="0.938" width="1.875" x="14.06" y="12.19"/>
</g>
<rect fill="#FFFFFF" fill-opacity="0.3" height="0.926" stroke-opacity="0.3" width="16.88" x="6.563" y="13.14"/>
<polygon fill-opacity="0.2" points="21.44,17.81,21.56,16.88,8.438,16.88,8.555,17.81" stroke-opacity="0.2"/>
</g>
</svg>
