<?xml version="1.0" encoding="UTF-8" standalone="no"?>
<!DOCTYPE svg PUBLIC "-//W3C//DTD SVG 1.1 Tiny//EN" "http://www.w3.org/Graphics/SVG/1.1/DTD/svg11-tiny.dtd">
<svg xmlns="http://www.w3.org/2000/svg" xmlns:xlink="http://www.w3.org/1999/xlink" baseProfile="tiny" height="30px" version="1.1" viewBox="0 0 30 30" width="30px" x="0px" y="0px">
<g>
<g fill-opacity="0.5" stroke-opacity="0.5">
<rect fill="none" height="30" width="30" x="0" y="0.006"/>
</g>
<g>
<rect height="2" transform="matrix(-0.7071 -0.7071 0.7071 -0.7071 -13.8982 48.1905)" width="4.998" x="0.532" y="25.973"/>
<path d="M11.802,8.788c0.351-1.107,0.959-2.15,1.836-3.026c2.924-2.925,7.682-2.924,10.605,0c2.923,2.924,2.925,7.682,0,10.604    c-0.876,0.877-1.919,1.484-3.026,1.836l2.303,2.303c1.026-0.498,1.992-1.164,2.846-2.017c4.102-4.101,4.102-10.749,0-14.849    c-4.101-4.102-10.748-4.102-14.85,0c-0.853,0.853-1.519,1.818-2.016,2.846L11.802,8.788z"/>
<path d="M15.777,21.058l-6.829-6.83c0.349,1.1,0.874,2.156,1.593,3.115l-1.499,1.498l-0.707-0.707l-4.949,4.951l3.535,3.535    l4.95-4.951l-0.707-0.707l1.499-1.498C13.622,20.184,14.677,20.71,15.777,21.058z"/>
<rect height="35.827" transform="matrix(-0.7062 0.708 -0.708 -0.7062 34.8635 16.0136)" width="1.868" x="13.175" y="-2.673"/>
</g>
</g>
</svg>
