<?xml version="1.0" encoding="UTF-8"?>
<!DOCTYPE svg PUBLIC "-//W3C//DTD SVG 1.1 Tiny//EN" "http://www.w3.org/Graphics/SVG/1.1/DTD/svg11-tiny.dtd">
<svg baseProfile="tiny" height="31px" version="1.1" viewBox="-0.558 -0.209 31 31" width="31px" x="0px" xmlns="http://www.w3.org/2000/svg" xmlns:xlink="http://www.w3.org/1999/xlink" y="0px">
<rect fill="none" height="30" width="30"/>
<path d="M17.881,25.666c0,1.77-1.438,3.214-3.217,3.214c-1.777,0-3.219-1.444-3.219-3.214c0-1.774,1.441-3.219,3.219-3.219  C16.443,22.447,17.881,23.892,17.881,25.666z"/>
<g>
<path d="M15.234,1.119c-2.402,0-4.121,0.74-5.256,2.264C8.904,4.825,8.234,6.739,7.996,9.076l3.965,0.684   c0.166-1.252,0.459-2.168,0.891-2.779c0.584-0.822,1.375-1.254,2.297-1.254c1.088,0,1.691,0.492,2.006,0.906   c0.408,0.532,0.617,1.258,0.617,2.153c0,0.916-0.451,1.893-1.338,2.899c-1.395,1.62-2.301,2.756-2.684,3.371   c-0.371,0.595-0.652,1.258-0.832,1.969c-0.191,0.721-0.289,1.693-0.291,2.887h3.85c0.049-0.78,0.184-1.439,0.4-2.001   c0.295-0.745,0.932-1.647,1.953-2.776c1.297-1.428,2.166-2.637,2.572-3.592c0.4-0.939,0.604-1.93,0.604-2.933   c0-2.497-0.764-4.43-2.33-5.911C18.553,1.635,17.1,1.119,15.234,1.119z"/>
</g>
<rect fill="none" height="30" width="30"/>
</svg>
