<?xml version="1.0" encoding="UTF-8"?>
<!DOCTYPE svg PUBLIC "-//W3C//DTD SVG 1.1 Tiny//EN" "http://www.w3.org/Graphics/SVG/1.1/DTD/svg11-tiny.dtd">
<svg baseProfile="tiny" height="30" viewBox="0 0 30 30" width="30" xmlns="http://www.w3.org/2000/svg" xmlns:xlink="http://www.w3.org/1999/xlink">
<g>
<rect fill="none" height="30" width="30"/>
<path d="M6,1C4.346,1,3,2.346,3,4v22c0,1.654,1.346,3,3,3h21V1H6z" fill-opacity="0.6"/>
<linearGradient gradientTransform="matrix(1 0 0 -1 -276 -336)" gradientUnits="userSpaceOnUse" id="SVGID_1_" x1="293" x2="293" y1="-338" y2="-364">
<stop offset="0" style="stop-color:#4EDEFF"/>
<stop offset="1" style="stop-color:#048CC6"/>
</linearGradient>
<rect fill="url(#SVGID_1_)" height="26" width="18" x="8" y="2"/>
<rect fill="#FFFFFF" fill-opacity="0.4" height="1" stroke-opacity="0.4" width="18" x="8" y="2"/>
<linearGradient gradientTransform="matrix(1 0 0 -1 -276 -336)" gradientUnits="userSpaceOnUse" id="SVGID_2_" x1="282" x2="282" y1="-338" y2="-364">
<stop offset="0" style="stop-color:#FFFFFF"/>
<stop offset="1" style="stop-color:#A5A5A5"/>
</linearGradient>
<path d="M8,2H6C4.9,2,4,2.9,4,4v22c0,1.1,0.9,2,2,2h2V2z" fill="url(#SVGID_2_)"/>
<path d="M10.822,12.006h5.533V8.873h1.235v3.133h5.589v6.551h-1.178v-0.775H17.59v5.346h-1.235v-5.346H12v0.775  h-1.178V12.006z M12,16.718h4.354v-3.649H12V16.718z M22.001,13.068H17.59v3.649h4.411V13.068z" fill-opacity="0.2"/>
<g>
<path d="M10.822,11.006h5.533V7.873h1.235v3.133h5.589v6.551h-1.178v-0.775H17.59v5.346h-1.235v-5.346H12v0.775   h-1.178V11.006z M12,15.718h4.354v-3.649H12V15.718z M22.001,12.068H17.59v3.649h4.411V12.068z" fill="#FFFFFF"/>
</g>
</g>
</svg>
