<?xml version="1.0" encoding="UTF-8"?>
<!DOCTYPE svg PUBLIC "-//W3C//DTD SVG 1.1 Tiny//EN" "http://www.w3.org/Graphics/SVG/1.1/DTD/svg11-tiny.dtd">
<svg baseProfile="tiny" height="60" viewBox="0 0 60 60" width="60" xmlns="http://www.w3.org/2000/svg" xmlns:xlink="http://www.w3.org/1999/xlink">
<rect fill="none" height="60" width="60"/>
<path d="M51.316,47.294c0,2.219-1.801,4.02-4.023,4.02H12.708c-2.223,0-4.021-1.801-4.021-4.02V12.708 c0-2.222,1.799-4.022,4.021-4.022h34.585c2.223,0,4.023,1.801,4.023,4.022V47.294z" fill="#F7B388"/>
<linearGradient gradientUnits="userSpaceOnUse" id="SVGID_1" x1="10.55" x2="48.98" y1="10.55" y2="48.97">
<stop offset="0" stop-color="#DF4F20"/>
<stop offset="0.5" stop-color="#F48228"/>
<stop offset="1" stop-color="#CF3A21"/>
</linearGradient>
<path d="M12.708,50.091c-1.542,0-2.797-1.256-2.797-2.797V12.708c0-1.544,1.255-2.799,2.797-2.799h34.585 c1.543,0,2.799,1.255,2.799,2.799v34.586c0,1.541-1.256,2.797-2.799,2.797H12.708z" fill="url(#SVGID_1)"/>
<linearGradient gradientUnits="userSpaceOnUse" id="SVGID_2" x1="30" x2="30" y1="8.36" y2="51.47">
<stop offset="0" stop-color="#C5422B"/>
<stop offset="0.5" stop-color="#F48228"/>
<stop offset="1" stop-color="#AD1B00"/>
</linearGradient>
<path d="M47.385,9.252c1.855,0,3.363,1.509,3.363,3.362v34.772c0,1.854-1.508,3.361-3.363,3.361H12.614 c-1.854,0-3.362-1.508-3.362-3.361V12.614c0-1.854,1.509-3.362,3.362-3.362H47.385 M47.385,8.571H12.614 c-2.232,0-4.041,1.811-4.041,4.043v34.772c0,2.23,1.809,4.043,4.041,4.043h34.771c2.234,0,4.045-1.813,4.045-4.043V12.614 C51.43,10.382,49.619,8.571,47.385,8.571L47.385,8.571z" fill="url(#SVGID_2)"/>
<circle cx="19.478" cy="40.523" fill="#FFFFFF" r="4.133"/>
<path d="M39.146,44.197h5.51c0-15.91-12.943-28.852-28.853-28.852v5.51C28.675,20.854,39.146,31.326,39.146,44.197z" fill="#FFFFFF"/>
<path d="M29.121,44.197h5.51c0-10.383-8.446-18.826-18.827-18.826v5.51C23.146,30.88,29.121,36.853,29.121,44.197z" fill="#FFFFFF"/>
</svg>
