<?xml version="1.0" encoding="UTF-8"?>
<!DOCTYPE svg PUBLIC "-//W3C//DTD SVG 1.1 Tiny//EN" "http://www.w3.org/Graphics/SVG/1.1/DTD/svg11-tiny.dtd">
<svg baseProfile="tiny" height="60" viewBox="0 0 60 60" width="60" xmlns="http://www.w3.org/2000/svg" xmlns:xlink="http://www.w3.org/1999/xlink">
<g>
<rect fill="none" height="60" width="60"/>
<linearGradient gradientTransform="matrix(1 0 0 1 2136.5195 1393.9805)" gradientUnits="userSpaceOnUse" id="SVGID_1_" x1="-2114.7842" x2="-2114.7842" y1="-1380.3838" y2="-1334.48">
<stop offset="0" style="stop-color:#C6957B"/>
<stop offset="1" style="stop-color:#73414B"/>
</linearGradient>
<path d="M27.663,38.703V29.91h9.248L19.558,11.879L2.046,29.908h9.438v8.795  C11.483,53.568,23.851,58,35.753,58h5.67V44.909h-5.67C32.085,44.909,27.663,43.101,27.663,38.703z" fill="url(#SVGID_1_)"/>
<linearGradient gradientTransform="matrix(1 0 0 -1 -57.48 -6084.1465)" gradientUnits="userSpaceOnUse" id="SVGID_2_" x1="76.9551" x2="76.9551" y1="-6096.3281" y2="-6131.1172">
<stop offset="0" style="stop-color:#C8A885"/>
<stop offset="1" style="stop-color:#73414B"/>
</linearGradient>
<polygon fill="url(#SVGID_2_)" points="19.558,13.92 34.94,29.908 36.905,29.908 19.558,11.879 2.046,29.908 4.022,29.908 "/>
<linearGradient gradientTransform="matrix(1 0 0 -1 -57.48 -6084.1465)" gradientUnits="userSpaceOnUse" id="SVGID_3_" x1="96.417" x2="92.177" y1="-6087.1563" y2="-6103.5273">
<stop offset="0" style="stop-color:#CDB18B"/>
<stop offset="0.703" style="stop-color:#985954"/>
<stop offset="1" style="stop-color:#BE997B"/>
</linearGradient>
<polygon fill="url(#SVGID_3_)" points="30.015,18.383 34.405,2 43.507,4.441 39.124,20.822 "/>
<linearGradient gradientTransform="matrix(1 0 0 -1 -57.48 -6084.1465)" gradientUnits="userSpaceOnUse" id="SVGID_4_" x1="96.123" x2="92.3531" y1="-6088.2676" y2="-6102.8755">
<stop offset="0" style="stop-color:#C39072"/>
<stop offset="0.7939" style="stop-color:#88444B"/>
<stop offset="1" style="stop-color:#AF7563"/>
</linearGradient>
<polygon fill="url(#SVGID_4_)" points="38.456,19.67 31.171,17.715 35.073,3.152 42.354,5.105 "/>
<linearGradient gradientTransform="matrix(1 0 0 -1 -57.48 -6084.1465)" gradientUnits="userSpaceOnUse" id="SVGID_5_" x1="111.9482" x2="97.459" y1="-6097.3105" y2="-6112.1533">
<stop offset="0" style="stop-color:#CDB18B"/>
<stop offset="0.703" style="stop-color:#985954"/>
<stop offset="1" style="stop-color:#BE997B"/>
</linearGradient>
<polygon fill="url(#SVGID_5_)" points="36.628,24.514 51.288,9.855 57.954,16.519 43.292,31.178 "/>
<linearGradient gradientTransform="matrix(1 0 0 -1 -57.48 -6084.1465)" gradientUnits="userSpaceOnUse" id="SVGID_6_" x1="111.4424" x2="98.2473" y1="-6097.9321" y2="-6111.2446">
<stop offset="0" style="stop-color:#C39072"/>
<stop offset="0.7939" style="stop-color:#88444B"/>
<stop offset="1" style="stop-color:#AF7563"/>
</linearGradient>
<polygon fill="url(#SVGID_6_)" points="43.292,29.848 37.96,24.514 51.288,11.188 56.622,16.519 "/>
<linearGradient gradientUnits="userSpaceOnUse" id="SVGID_7_" x1="34.543" x2="34.543" y1="12.1699" y2="46.9707">
<stop offset="0" style="stop-color:#C8A885"/>
<stop offset="1" style="stop-color:#73414B"/>
</linearGradient>
<path d="M35.753,44.909L35.753,44.909c-3.668-0.002-8.09-1.809-8.09-6.206v2.041  c0,4.393,4.422,6.209,8.09,6.209h5.67v-2.044H35.753z" fill="url(#SVGID_7_)"/>
<linearGradient gradientTransform="matrix(1 0 0 1 2136.5195 1393.9805)" gradientUnits="userSpaceOnUse" id="SVGID_8_" x1="-2114.7988" x2="-2114.7988" y1="-1380.3838" y2="-1334.48">
<stop offset="0" style="stop-color:#C6957B"/>
<stop offset="1" style="stop-color:#73414B"/>
</linearGradient>
<path d="M27.648,38.703V29.91h9.248L19.543,11.879L2.031,29.908h9.438v8.795  C11.469,53.568,23.836,58,35.738,58h5.67V44.909h-5.67C32.07,44.909,27.648,43.101,27.648,38.703z" fill="url(#SVGID_8_)"/>
<linearGradient gradientTransform="matrix(1 0 0 -1 -57.48 -6084.1465)" gradientUnits="userSpaceOnUse" id="SVGID_9_" x1="76.9404" x2="76.9404" y1="-6096.3281" y2="-6131.1172">
<stop offset="0" style="stop-color:#C8A885"/>
<stop offset="1" style="stop-color:#73414B"/>
</linearGradient>
<polygon fill="url(#SVGID_9_)" points="19.543,13.92 34.926,29.908 36.891,29.908 19.543,11.879 2.031,29.908 4.008,29.908 "/>
<linearGradient gradientTransform="matrix(1 0 0 -1 -57.48 -6084.1465)" gradientUnits="userSpaceOnUse" id="SVGID_10_" x1="96.4023" x2="92.1624" y1="-6087.1567" y2="-6103.5278">
<stop offset="0" style="stop-color:#CDB18B"/>
<stop offset="0.703" style="stop-color:#985954"/>
<stop offset="1" style="stop-color:#BE997B"/>
</linearGradient>
<polygon fill="url(#SVGID_10_)" points="30,18.383 34.391,2 43.492,4.441 39.109,20.822 "/>
<linearGradient gradientTransform="matrix(1 0 0 -1 -57.48 -6084.1465)" gradientUnits="userSpaceOnUse" id="SVGID_11_" x1="96.1094" x2="92.3392" y1="-6088.2671" y2="-6102.876">
<stop offset="0" style="stop-color:#C39072"/>
<stop offset="0.7939" style="stop-color:#88444B"/>
<stop offset="1" style="stop-color:#AF7563"/>
</linearGradient>
<polygon fill="url(#SVGID_11_)" points="38.441,19.67 31.156,17.715 35.059,3.152 42.34,5.105 "/>
<linearGradient gradientTransform="matrix(1 0 0 -1 -57.48 -6084.1465)" gradientUnits="userSpaceOnUse" id="SVGID_12_" x1="111.9336" x2="97.4443" y1="-6097.3105" y2="-6112.1533">
<stop offset="0" style="stop-color:#CDB18B"/>
<stop offset="0.703" style="stop-color:#985954"/>
<stop offset="1" style="stop-color:#BE997B"/>
</linearGradient>
<polygon fill="url(#SVGID_12_)" points="36.613,24.514 51.273,9.855 57.939,16.519 43.277,31.178 "/>
<linearGradient gradientTransform="matrix(1 0 0 -1 -57.48 -6084.1465)" gradientUnits="userSpaceOnUse" id="SVGID_13_" x1="111.4277" x2="98.2326" y1="-6097.9326" y2="-6111.2451">
<stop offset="0" style="stop-color:#C39072"/>
<stop offset="0.7939" style="stop-color:#88444B"/>
<stop offset="1" style="stop-color:#AF7563"/>
</linearGradient>
<polygon fill="url(#SVGID_13_)" points="43.277,29.848 37.945,24.514 51.273,11.188 56.607,16.519 "/>
<linearGradient gradientUnits="userSpaceOnUse" id="SVGID_14_" x1="34.5283" x2="34.5283" y1="12.1699" y2="46.9707">
<stop offset="0" style="stop-color:#C8A885"/>
<stop offset="1" style="stop-color:#73414B"/>
</linearGradient>
<path d="M35.738,44.909L35.738,44.909c-3.668-0.002-8.09-1.809-8.09-6.206v2.041  c0,4.393,4.422,6.209,8.09,6.209h5.67v-2.044H35.738z" fill="url(#SVGID_14_)"/>
</g>
</svg>
