<?xml version="1.0" encoding="UTF-8"?>
<!DOCTYPE svg PUBLIC "-//W3C//DTD SVG 1.1 Tiny//EN" "http://www.w3.org/Graphics/SVG/1.1/DTD/svg11-tiny.dtd">
<svg baseProfile="tiny" height="60" viewBox="0 0 60 60" width="60" xmlns="http://www.w3.org/2000/svg" xmlns:xlink="http://www.w3.org/1999/xlink">
<g>
<linearGradient gradientTransform="matrix(1 0 0 1 2136.5195 1393.9805)" gradientUnits="userSpaceOnUse" id="SVGID_1_" x1="-2109.7646" x2="-2109.7646" y1="-1385.3232" y2="-1339.4194">
<stop offset="0" style="stop-color:#C6957B"/>
<stop offset="1" style="stop-color:#73414B"/>
</linearGradient>
<path d="M32.684,33.764v-8.793h9.246L24.578,6.939L7.066,24.969h9.438v8.795  c0,14.865,12.367,19.297,24.27,19.297h5.67V39.97h-5.67C37.105,39.97,32.684,38.161,32.684,33.764z" fill="url(#SVGID_1_)"/>
<linearGradient gradientTransform="matrix(1 0 0 -1 -57.48 -5687.4375)" gradientUnits="userSpaceOnUse" id="SVGID_2_" x1="81.9756" x2="81.9756" y1="-5694.6797" y2="-5729.4688">
<stop offset="0" style="stop-color:#C8A885"/>
<stop offset="1" style="stop-color:#73414B"/>
</linearGradient>
<polygon fill="url(#SVGID_2_)" points="24.578,8.98 39.961,24.969 41.926,24.969 24.578,6.939 7.066,24.969 9.043,24.969 "/>
<linearGradient gradientUnits="userSpaceOnUse" id="SVGID_3_" x1="39.5635" x2="39.5635" y1="7.2305" y2="42.0313">
<stop offset="0" style="stop-color:#C8A885"/>
<stop offset="1" style="stop-color:#73414B"/>
</linearGradient>
<path d="M40.773,39.97L40.773,39.97c-3.668-0.002-8.09-1.809-8.09-6.206v2.041  c0,4.393,4.422,6.209,8.09,6.209h5.67V39.97H40.773z" fill="url(#SVGID_3_)"/>
<rect fill="none" height="60" width="60"/>
</g>
</svg>
