<?xml version="1.0" ?>
<!DOCTYPE svg  PUBLIC '-//W3C//DTD SVG 1.1//EN'  'http://www.w3.org/Graphics/SVG/1.1/DTD/svg11.dtd'>
<svg height="30" viewBox="0 0 30 30" width="30" xmlns="http://www.w3.org/2000/svg" xmlns:xlink="http://www.w3.org/1999/xlink">
<g>
<defs>
</defs>
<rect fill="none" height="30" width="30"/>
<path d="M15,29C7.28,29,1,22.72,1,15S7.28,1,15,1s14,6.28,14,14S22.72,29,15,29L15,29z" opacity="0.6"/>
<linearGradient gradientUnits="userSpaceOnUse" id="SVGID_1_" x1="14.9995" x2="14.9995" y1="1.9409" y2="28.3052">
	<stop offset="0" style="stop-color:#4EDEFF"/>
	<stop offset="1" style="stop-color:#048CC6"/>
</linearGradient>
<circle cx="15" cy="15" fill="url(#SVGID_1_)" r="13"/>
<path d="M15,3c7.012,0,12.71,5.555,12.975,12.5C27.98,15.333,28,15.169,28,15c0-7.179-5.82-13-13-13  S2,7.821,2,15c0,0.169,0.02,0.333,0.025,0.5C2.29,8.555,7.988,3,15,3z" fill="#FFFFFF" opacity="0.4"/>
<path d="M24.75,16.235c0,1.563-0.315,2.916-0.943,4.059c-0.762,1.408-1.864,2.115-3.307,2.115  c-1.401,0-2.413-0.707-3.045-2.115c-0.762,0.824-1.744,1.237-2.948,1.237c-1.415,0-2.546-0.542-3.401-1.621  c-0.792-1.001-1.189-2.217-1.189-3.66c0-1.451,0.397-2.662,1.189-3.638c0.844-1.053,1.979-1.574,3.401-1.574  c1.06,0,1.894,0.286,2.503,0.863v-0.635h2.055v7.098c0,1.377,0.477,2.068,1.436,2.068c0.782,0,1.385-0.541,1.807-1.62  c0.311-0.804,0.467-1.659,0.467-2.577c0-2.12-0.766-3.93-2.289-5.438c-1.523-1.509-3.352-2.26-5.484-2.26  c-2.144,0-3.965,0.748-5.463,2.244c-1.498,1.498-2.248,3.313-2.248,5.453c0,2.139,0.75,3.963,2.258,5.467  c1.503,1.512,3.32,2.263,5.453,2.263V26c-2.688,0-4.987-0.956-6.891-2.865C6.204,21.22,5.25,18.918,5.25,16.235  c0-2.673,0.955-4.964,2.865-6.873C10.027,7.456,12.319,6.5,15,6.5c2.688,0,4.986,0.95,6.892,2.856  C23.796,11.257,24.75,13.552,24.75,16.235z M16.885,16.157c0-2.074-0.793-3.113-2.378-3.113c-0.794,0-1.409,0.354-1.839,1.061  c-0.374,0.599-0.557,1.312-0.557,2.146c0,2.182,0.797,3.271,2.394,3.271C16.092,19.521,16.885,18.401,16.885,16.157z" opacity="0.2"/>
<path d="M24.75,14.985c0,1.563-0.315,2.916-0.943,4.059c-0.762,1.408-1.864,2.115-3.307,2.115  c-1.401,0-2.413-0.707-3.045-2.115c-0.762,0.824-1.744,1.237-2.948,1.237c-1.415,0-2.546-0.542-3.401-1.621  c-0.792-1.001-1.189-2.217-1.189-3.66c0-1.451,0.397-2.662,1.189-3.638c0.844-1.053,1.979-1.574,3.401-1.574  c1.06,0,1.894,0.286,2.503,0.863v-0.635h2.055v7.098c0,1.377,0.477,2.068,1.436,2.068c0.782,0,1.385-0.541,1.807-1.62  c0.311-0.804,0.467-1.659,0.467-2.577c0-2.12-0.766-3.93-2.289-5.438c-1.523-1.509-3.352-2.26-5.484-2.26  c-2.144,0-3.965,0.748-5.463,2.244c-1.498,1.498-2.248,3.313-2.248,5.453c0,2.139,0.75,3.963,2.258,5.467  c1.503,1.512,3.32,2.263,5.453,2.263v2.035c-2.688,0-4.987-0.956-6.891-2.865C6.204,19.97,5.25,17.668,5.25,14.985  c0-2.673,0.955-4.964,2.865-6.873C10.027,6.206,12.319,5.25,15,5.25c2.688,0,4.986,0.95,6.892,2.856  C23.796,10.007,24.75,12.302,24.75,14.985z M16.885,14.907c0-2.074-0.793-3.113-2.378-3.113c-0.794,0-1.409,0.354-1.839,1.061  c-0.374,0.599-0.557,1.312-0.557,2.146c0,2.182,0.797,3.271,2.394,3.271C16.092,18.271,16.885,17.151,16.885,14.907z" fill="#FFFFFF"/>
<rect fill="none" height="30" width="30"/>
</g>
<g>
<defs>
</defs>
<g>
	<rect fill="none" height="30" width="30"/>
</g>
<path d="M21,30c-4.411,0-8-3.589-8-8s3.589-8,8-8s8,3.589,8,8S25.411,30,21,30L21,30z" opacity="0.6"/>
<linearGradient gradientUnits="userSpaceOnUse" id="SVGID_1__" x1="21" x2="21" y1="14.9683" y2="29.1646">
	<stop offset="0" style="stop-color:#4EDEFF"/>
	<stop offset="1" style="stop-color:#048CC6"/>
</linearGradient>
<circle cx="21" cy="22" fill="url(#SVGID_1__)" r="7"/>
<path d="M22,21v-2h-5v8h4h1h3v-6H22z M21,25h-3v-1h3V25z M21,23h-3v-1h3V23z M18,21v-1h3v1H18z M24,25h-2v-1h2V25z   M24,23h-2v-1h2V23z" opacity="0.2"/>
<path d="M21,16c3.697,0,6.717,2.869,6.975,6.5C27.986,22.334,28,22.169,28,22c0-3.865-3.134-7-7-7  s-7,3.135-7,7c0,0.169,0.014,0.334,0.025,0.5C14.283,18.869,17.303,16,21,16z" fill="#FFFFFF" opacity="0.4"/>
<path d="M22,20v-2h-5v8h4h1h3v-6H22z M21,24h-3v-1h3V24z M21,22h-3v-1h3V22z M18,20v-1h3v1H18z M24,24h-2v-1h2V24z   M24,22h-2v-1h2V22z" fill="#FFFFFF"/>
<rect height="6" opacity="0.3" width="1" x="22" y="20"/>
</g>
</svg>