<?xml version="1.0" encoding="utf-8"?>
<!-- Generator: Adobe Illustrator 14.0.0, SVG Export Plug-In  -->
<!DOCTYPE svg PUBLIC "-//W3C//DTD SVG 1.1//EN" "http://www.w3.org/Graphics/SVG/1.1/DTD/svg11.dtd" [
	<!ENTITY ns_flows "http://ns.adobe.com/Flows/1.0/">
]>
<svg version="1.1"
	 xmlns="http://www.w3.org/2000/svg" xmlns:xlink="http://www.w3.org/1999/xlink" xmlns:a="http://ns.adobe.com/AdobeSVGViewerExtensions/3.0/"
	 x="0px" y="0px" width="30px" height="30px" viewBox="0 0 30 30" enable-background="new 0 0 30 30" xml:space="preserve">
<defs>
</defs>
<g opacity="0.5">
	<rect fill="none" width="30" height="30"/>
</g>
<path d="M18.881,18.278c-1.127,0.918-1.888,1.747-2.285,2.485C16.199,21.499,16,22.26,16,23.042V24h7v-1.035h-4.652
	c0.029-0.588,0.141-1.068,0.308-1.378c0.165-0.308,0.396-0.613,0.687-0.911c0.295-0.3,0.761-0.712,1.4-1.237
	c0.582-0.478,1.019-0.882,1.314-1.215c0.296-0.335,0.519-0.69,0.672-1.07c0.15-0.38,0.226-0.798,0.226-1.256
	c0-0.953-0.306-1.673-0.915-2.164C21.428,13.245,20.531,13,19.35,13c-0.963,0-1.953,0.149-2.971,0.445v1.481
	c0.928-0.329,1.71-0.496,2.346-0.496c1.142,0,1.714,0.52,1.714,1.555c0,0.399-0.111,0.759-0.332,1.076
	C19.885,17.381,19.477,17.786,18.881,18.278z"/>
<path d="M23,3V1h-3v2h-4.137c0.496,0.919,0.836,1.932,1.006,3H26v3h-9.131c-0.11,0.694-0.293,1.364-0.546,2H26v16H6V16.87
	c-1.068-0.171-2.081-0.51-3-1.007V30h26V3H23z"/>
<path d="M11,16.323V23H9v1h6v-1h-1.563v-8.096C12.706,15.492,11.885,15.971,11,16.323z"/>
<path d="M15,7.5C15,3.364,11.636,0,7.5,0S0,3.364,0,7.5S3.364,15,7.5,15S15,11.636,15,7.5z M13,7.5c0,2.857-2.192,5.212-4.982,5.474
	L12,7H8.973C8.788,4.948,7.568,3.19,5.838,2.258C6.363,2.091,6.921,2,7.5,2C10.533,2,13,4.468,13,7.5z M2,7.5
	c0-1.521,0.621-2.898,1.622-3.896C5.353,3.878,6.706,5.257,6.945,7H4l3.983,5.976C7.824,12.989,7.663,13,7.5,13
	C4.467,13,2,10.532,2,7.5z"/>
</svg>
