<?xml version="1.0" encoding="UTF-8"?>
<!DOCTYPE svg PUBLIC "-//W3C//DTD SVG 1.1 Tiny//EN" "http://www.w3.org/Graphics/SVG/1.1/DTD/svg11-tiny.dtd">
<svg baseProfile="tiny" height="30" viewBox="0 0 30 30" width="30" xmlns="http://www.w3.org/2000/svg" xmlns:xlink="http://www.w3.org/1999/xlink">
<rect fill="none" height="30" width="30"/>
<rect fill="none" height="30" width="30"/>
<path d="M16.832,10.037c-0.672,0-1.192,0.299-1.556,0.897c-0.315,0.506-0.47,1.109-0.47,1.815c0,0.251,0.015,0.482,0.041,0.7 l1.191-0.17l-0.279,1.95c0.293,0.186,0.645,0.289,1.074,0.289c1.343,0,2.014-0.948,2.014-2.846 C18.845,10.916,18.174,10.037,16.832,10.037z"/>
<path d="M12.949,12.75c0-1.228,0.336-2.253,1.006-3.078c0.714-0.89,1.675-1.332,2.878-1.332c0.896,0,1.603,0.242,2.117,0.73V8.534 h1.739v6.006c0,1.165,0.402,1.75,1.215,1.75c0.662,0,1.171-0.457,1.529-1.371c0.262-0.68,0.393-1.404,0.393-2.181 c0-1.794-0.646-3.326-1.936-4.601c-1.289-1.277-2.836-1.912-4.641-1.912c-1.813,0-3.354,0.632-4.622,1.898 c-1.268,1.268-1.903,2.804-1.903,4.615c0,0.444,0.039,0.872,0.116,1.284l2.188-0.313C12.979,13.402,12.949,13.085,12.949,12.75z"/>
<path d="M17.25,1.5C11.036,1.5,6,6.538,6,12.75c0,0.662,0.068,1.307,0.179,1.938l2.956-0.422C9.048,13.773,9,13.265,9,12.738 c0-2.263,0.809-4.201,2.425-5.816C13.042,5.309,14.982,4.5,17.25,4.5c2.273,0,4.219,0.804,5.831,2.417 c1.612,1.608,2.419,3.55,2.419,5.821c0,1.323-0.266,2.468-0.798,3.434c-0.645,1.191-1.578,1.791-2.798,1.791 c-1.185,0-2.042-0.6-2.576-1.791c-0.645,0.697-1.477,1.047-2.495,1.047c-0.482,0-0.922-0.078-1.327-0.227l-0.282,1.979 c0.634,0.203,1.308,0.307,2.026,0.307V21c-0.799,0-1.555-0.105-2.272-0.305l-0.423,2.967C15.419,23.874,16.318,24,17.25,24 c6.214,0,11.25-5.037,11.25-11.25C28.5,6.538,23.464,1.5,17.25,1.5z"/>
<polygon points="8.681,15.848 3.112,16.643 4.703,20.355 8.947,24.598 12.659,26.188 13.454,20.621 "/>
<polygon points="13.587,19.691 14.25,15.052 9.61,15.715 "/>
<polygon points="10.349,28.5 11.599,27.25 9.478,26.188 7.166,28.5 "/>
<polygon points="3.643,21.416 0.75,24.309 0.75,28.5 5.045,28.5 7.886,25.658 "/>
<polygon points="0.75,22.188 3.112,19.826 2.052,17.703 0.75,19.006 "/>
</svg>
