<?xml version="1.0" encoding="UTF-8"?>
<!DOCTYPE svg PUBLIC "-//W3C//DTD SVG 1.1 Tiny//EN" "http://www.w3.org/Graphics/SVG/1.1/DTD/svg11-tiny.dtd">
<svg baseProfile="tiny" height="30" viewBox="0 0 30 30" width="30" xmlns="http://www.w3.org/2000/svg" xmlns:xlink="http://www.w3.org/1999/xlink">
<rect fill="none" height="30" width="30"/>
<path d="M10.372,17.177c-0.731-0.662-1.288-1.417-1.714-2.314c-1.002-2.12-0.705-5.979-0.611-6.944 c0.072-2.494,2.42-4.848,4.768-5.638C11.827,1.015,10.188,0,8.936,0H7.722C5.807,0,3.38,2.367,3.38,4.388 c0,0-0.29,4.066,0.575,6.022c0.475,1.067,0.918,1.963,1.889,2.645c0.003,0.14,0.012,0.733,0.003,0.87 C5.729,15.909,0,18.276,0,18.276V24h4v-1.927l0.407-0.536c0.296-0.391,0.623-0.597,1.704-1.277 C8.354,18.849,9.781,17.814,10.372,17.177z"/>
<path d="M10.046,8.034c0,0-0.431,4.175,0.419,5.972c0.467,0.982,1.139,1.708,2.092,2.334c0.003,0.128,0.01,0.794,0.002,0.921 c-0.006,0.087-0.037,0.179-0.068,0.271h5.021c-0.031-0.093-0.063-0.185-0.068-0.271c-0.009-0.135-0.001-0.784,0.001-0.921 c0.931-0.628,1.583-1.365,2.073-2.328c0.908-1.782,0.423-5.978,0.423-5.978c0-1.858-2.47-4.034-4.35-4.034h-1.191 C12.52,4,10.046,6.176,10.046,8.034z"/>
<path d="M15,24.816l-2.916-6.596C10.631,20.049,6.253,22.413,6,22.746V28h10.303c-0.631-1.004-1.055-2.146-1.219-3.373L15,24.816z"/>
<path d="M21.938,7.903c0.108,0.996,0.446,4.888-0.639,7.017c-0.082,0.161-0.19,0.299-0.28,0.451C21.805,15.131,22.637,15,23.5,15 c0.438,0,0.863,0.044,1.282,0.107c-0.364-0.396-0.604-0.796-0.627-1.183c-0.009-0.146,0-0.75,0.003-0.896 c0.947-0.685,1.361-1.57,1.861-2.618c0.926-1.938,0.587-6.022,0.587-6.022C26.606,2.367,24.183,0,22.269,0h-1.214 c-1.253,0-2.889,1.016-3.874,2.282C19.521,3.073,21.859,5.417,21.938,7.903z"/>
<path d="M23.5,17c-3.59,0-6.5,2.91-6.5,6.5s2.91,6.5,6.5,6.5s6.5-2.91,6.5-6.5S27.09,17,23.5,17z M28,25h-3v3h-3v-3h-3v-3h3v-3h3v3 h3V25z"/>
</svg>
