<?xml version="1.0" ?>
<!DOCTYPE svg  PUBLIC '-//W3C//DTD SVG 1.1 Tiny//EN'  'http://www.w3.org/Graphics/SVG/1.1/DTD/svg11-tiny.dtd'>
<svg baseProfile="tiny" height="30px" version="1.1" viewBox="0 0 30 30" width="30px" x="0px" xmlns="http://www.w3.org/2000/svg" xmlns:xlink="http://www.w3.org/1999/xlink" y="0px">

<rect fill="none" height="30" width="30"/>

<rect height="3.375" width="3.375" x="24.38" y="13.31"/>

<rect height="3.375" width="3.375" x="19.69" y="7.781"/>

<rect height="3.375" width="3.375" x="19.69" y="18.84"/>

<rect height="3.375" width="3.375" x="19.69" y="13.31"/>

<polygon points="18.38,5.625,18.38,2.25,15,2.25,2.25,15,15,27.75,18.38,27.75,18.38,24.38,15,24.38,15,22.22,18.38,22.22,18.38,18.84,15,18.84,15,16.69,18.38,16.69,18.38,13.31,15,13.31,15,11.16,18.38,11.16,18.38,7.781,15,7.781,15,5.625"/>

</svg>