<?xml version="1.0" encoding="UTF-8"?>
<!DOCTYPE svg PUBLIC "-//W3C//DTD SVG 1.1 Tiny//EN" "http://www.w3.org/Graphics/SVG/1.1/DTD/svg11-tiny.dtd">
<svg baseProfile="tiny" height="30px" style="enable-background:new 0 0 30 30;" version="1.1" viewBox="0 0 30 30" width="30px" x="0px" xmlns="http://www.w3.org/2000/svg" xmlns:xlink="http://www.w3.org/1999/xlink" y="0px">
<path d="M10.25,14.79c1.246-0.87,1.945-2.136,1.945-3.633,0-2.197-1.599-4.414-5.167-4.414-1.955,0-3.651,0.719-4.516,1.333l-0.428,0.301,1.068,2.846,0.708-0.509c0.592-0.421,1.666-0.912,2.751-0.912,1.34,0,2.079,0.604,2.079,1.695,0,1.457-1.691,1.986-2.83,1.986h-1.854v2.935h1.855c0.561,0,3.36,0.118,3.386,2.477,0.01,0.607-0.211,1.189-0.608,1.598-0.504,0.5-1.262,0.76-2.269,0.76-1.327,0-2.6-0.544-3.134-0.868l-0.702-0.42-1.032,2.883,0.44,0.293c0.828,0.54,2.483,1.169,4.449,1.169,4.396,0,6.397-2.788,6.397-5.377,0-1.81-0.98-3.33-2.54-4.14z"/>
<path d="M21.91,14.16v3.031h3.286v3.71c-0.373,0.11-1.022,0.236-2.133,0.236-3.517,0-5.608-2.206-5.608-5.897,0-3.621,2.248-5.872,5.869-5.872,1.342,0,2.396,0.202,3.313,0.635l0.697,0.33,0.932-3.003-0.518-0.25c-0.775-0.376-2.391-0.815-4.371-0.815-2.813,0-5.209,0.891-6.922,2.573-1.656,1.624-2.561,3.932-2.561,6.5,0,2.64,0.901,5.023,2.473,6.544,1.65,1.572,3.788,2.337,6.551,2.337,2.625,0,4.689-0.718,5.266-0.938l0.424-0.167v-8.953h-6.7z"/>
<rect fill="none" height="29.03" width="29.03" x="0.54" y="0.775"/>
<rect fill="none" height="29.03" width="29.03" x="0.54" y="0.775"/>
</svg>
