<?xml version="1.0" encoding="utf-8"?>
<!-- Generator: Adobe Illustrator 14.0.0, SVG Export Plug-In  -->
<!DOCTYPE svg PUBLIC "-//W3C//DTD SVG 1.1//EN" "http://www.w3.org/Graphics/SVG/1.1/DTD/svg11.dtd" [
	<!ENTITY ns_flows "http://ns.adobe.com/Flows/1.0/">
]>
<svg version="1.1"
	 xmlns="http://www.w3.org/2000/svg" xmlns:xlink="http://www.w3.org/1999/xlink" xmlns:a="http://ns.adobe.com/AdobeSVGViewerExtensions/3.0/"
	 x="0px" y="0px" width="30px" height="30px" viewBox="0 0 30 30" enable-background="new 0 0 30 30" xml:space="preserve">
<defs>
</defs>
<g opacity="0.5">
	<rect fill="none" width="30" height="30"/>
</g>
<path d="M8.649,14.904c0.002,0.148,0.013,0.419,0.003,0.566C8.646,15.572,8.609,15.68,8.572,16h5.857
	c-0.037-0.32-0.073-0.428-0.079-0.529c-0.01-0.157,0-0.437,0.002-0.596c1.086-0.732,2.028-1.654,2.6-2.776
	c1.061-2.08,0.672-7.392,0.672-7.392C17.625,2.538,14.382,0,12.19,0h-1.391C8.606,0,5.375,2.538,5.375,4.707
	c0,0-0.333,5.294,0.659,7.392C6.577,13.243,7.536,14.175,8.649,14.904z"/>
<path d="M13.274,20.275L11.5,24.286l-3.401-7.694C6.402,18.725,1.294,21.482,1,21.87V28h13.769C13.66,26.446,13,24.551,13,22.5
	C13,21.732,13.102,20.99,13.274,20.275z"/>
<path d="M22.5,15c-4.136,0-7.5,3.364-7.5,7.5s3.364,7.5,7.5,7.5s7.5-3.364,7.5-7.5S26.636,15,22.5,15z M22.5,28
	c-3.033,0-5.5-2.468-5.5-5.5s2.467-5.5,5.5-5.5s5.5,2.468,5.5,5.5S25.533,28,22.5,28z"/>
<polygon points="23,22 23,18 21,18 21,24 27,24 27,22 "/>
</svg>
