<?xml version="1.0" encoding="UTF-8"?>
<!DOCTYPE svg PUBLIC "-//W3C//DTD SVG 1.1 Tiny//EN" "http://www.w3.org/Graphics/SVG/1.1/DTD/svg11-tiny.dtd">
<svg baseProfile="tiny" height="30" viewBox="0 0 30 30" width="30" xmlns="http://www.w3.org/2000/svg" xmlns:xlink="http://www.w3.org/1999/xlink">
<g transform="matrix(1 0 0 1 0 2)">
<path d="M8.655,19.771c-0.487-0.313-1.012-0.624-1.55-0.943  C3.923,16.941-0.036,14.594,0,9.517C0.044,3.269,4.054,0,7.994,0C10.794,0,13.315,1.515,15,4.136  c1.67-2.523,4.237-4.027,7.024-4.027c3.809,0,7.932,2.926,7.977,9.35c0.035,4.889-3.723,7.188-6.742,9.035  c-0.674,0.412-1.309,0.802-1.883,1.201C18.383,21.781,15.08,26,15.08,26S11.71,21.742,8.655,19.771z" fill-opacity="0.6" fill-rule="evenodd" stroke-opacity="0.6"/>
<radialGradient cx="15" cy="13.8979" gradientTransform="matrix(1 0 0 0.984 0 -6.2057)" gradientUnits="userSpaceOnUse" id="SVGID_1_" r="13.8351">
<stop offset="0" style="stop-color:#FF6855"/>
<stop offset="1" style="stop-color:#CC0E06"/>
</radialGradient>
<path d="M14.994,6.245C11.37-2.077,1.068-0.136,1,9.523  c-0.037,5.305,4.906,7.288,8.197,9.408c3.191,2.057,5.462,4.87,5.818,6.068c0.305-1.174,2.834-4.066,5.788-6.125  c3.23-2.252,8.234-4.104,8.197-9.409C28.932-0.217,18.451-1.745,14.994,6.245z" fill="url(#SVGID_1_)" fill-rule="evenodd"/>
<path d="M14.994,7.245  c3.389-7.832,13.518-6.514,13.983,2.659C28.984,9.758,29,9.618,29,9.466C28.932-0.217,18.451-1.745,14.994,6.245  C11.37-2.077,1.068-0.136,1,9.523C0.999,9.676,1.016,9.815,1.023,9.962C1.482,0.796,11.441-0.912,14.994,7.245z" fill="#FFFFFF" fill-opacity="0.3" fill-rule="evenodd" stroke-opacity="0.3"/>
</g>
</svg>
