<?xml version="1.0" encoding="UTF-8"?>
<!DOCTYPE svg PUBLIC "-//W3C//DTD SVG 1.1 Tiny//EN" "http://www.w3.org/Graphics/SVG/1.1/DTD/svg11-tiny.dtd">
<svg baseProfile="tiny" height="60" viewBox="0 0 60 60" width="60" xmlns="http://www.w3.org/2000/svg" xmlns:xlink="http://www.w3.org/1999/xlink">
<rect fill="none" height="60" width="60"/>
<linearGradient gradientUnits="userSpaceOnUse" id="SVGID_1" x1="30" x2="30" y1="9.28" y2="52.75">
<stop offset="0" stop-color="#D49757"/>
<stop offset="0.72" stop-color="#702200"/>
<stop offset="1" stop-color="#8A4117"/>
</linearGradient>
<path d="M12.55,52.748c-1.013,0-1.837-0.824-1.837-1.836V11.119c0-1.012,0.824-1.836,1.837-1.836 h34.895c1.014,0,1.837,0.824,1.837,1.836v39.793c0,1.012-0.823,1.836-1.837,1.836H12.55z" fill="url(#SVGID_1)"/>
<path d="M47.445,9.282H12.55c-1.013,0-1.837,0.824-1.837,1.836v0.612 c0-1.013,0.824-1.836,1.837-1.836h34.895c1.014,0,1.837,0.824,1.837,1.836v-0.612C49.282,10.106,48.459,9.282,47.445,9.282z" fill="#FFFFFF" fill-opacity="0.6" stroke-opacity="0.6"/>
<path d="M47.445,52.137H12.55c-1.013,0-1.837-0.824-1.837-1.837v0.612 c0,1.012,0.824,1.836,1.837,1.836h34.895c1.014,0,1.837-0.824,1.837-1.836V50.3C49.282,51.313,48.459,52.137,47.445,52.137z" fill="#FFFFFF" fill-opacity="0.3" stroke-opacity="0.3"/>
<linearGradient gradientUnits="userSpaceOnUse" id="SVGID_2" x1="30" x2="30" y1="12.24" y2="50.43">
<stop offset="0" stop-color="#707173"/>
<stop offset="1" stop-color="#000000"/>
</linearGradient>
<rect fill="url(#SVGID_2)" fill-opacity="0.3" height="37.957" stroke-opacity="0.3" width="33.672" x="13.162" y="12.343"/>
<linearGradient gradientUnits="userSpaceOnUse" id="SVGID_3" x1="30" x2="30" y1="12.86" y2="49.81">
<stop offset="0" stop-color="#707173"/>
<stop offset="1" stop-color="#000000"/>
</linearGradient>
<rect fill="url(#SVGID_3)" fill-opacity="0.6" height="36.732" stroke-opacity="0.6" width="32.446" x="13.774" y="12.956"/>
<linearGradient gradientUnits="userSpaceOnUse" id="SVGID_4" x1="45.76" x2="14.3" y1="31.02" y2="31.02">
<stop offset="0" stop-color="#737373"/>
<stop offset="1" stop-color="#FFFFFF"/>
</linearGradient>
<rect fill="url(#SVGID_4)" height="34.896" width="31.223" x="14.387" y="13.567"/>
<linearGradient gradientUnits="userSpaceOnUse" id="SVGID_5" x1="45.65" x2="14.46" y1="30.4" y2="30.4">
<stop offset="0" stop-color="#8A8C8E"/>
<stop offset="1" stop-color="#4A4A4A"/>
</linearGradient>
<rect fill="url(#SVGID_5)" height="34.895" width="31.223" x="14.387" y="12.956"/>
<linearGradient gradientUnits="userSpaceOnUse" id="SVGID_6" x1="14.46" x2="45.76" y1="30.1" y2="30.1">
<stop offset="0" stop-color="#737373"/>
<stop offset="1" stop-color="#FFFFFF"/>
</linearGradient>
<rect fill="url(#SVGID_6)" height="34.283" width="31.223" x="14.387" y="12.956"/>
<linearGradient gradientUnits="userSpaceOnUse" id="SVGID_7" x1="21.88" x2="17.02" y1="37.91" y2="42.77">
<stop offset="0" stop-color="#737373"/>
<stop offset="1" stop-color="#FFFFFF"/>
</linearGradient>
<rect fill="url(#SVGID_7)" height="33.671" width="31.223" x="14.387" y="12.956"/>
<linearGradient gradientUnits="userSpaceOnUse" id="SVGID_8" x1="30" x2="30" y1="26.05" y2="39.75">
<stop offset="0" stop-color="#FFFFFF"/>
<stop offset="0.25" stop-color="#FFFFFF"/>
<stop offset="1" stop-color="#E1E1E1"/>
</linearGradient>
<path d="M14.387,34.994c0,0.674,0.389,1.615,0.866,2.09l8.064,8.064 c0.476,0.476,1.416,0.865,2.09,0.865h20.203V12.956H14.387V34.994z" fill="url(#SVGID_8)"/>
<linearGradient gradientUnits="userSpaceOnUse" id="SVGID_9" x1="30" x2="30" y1="13.17" y2="46.09">
<stop offset="0" stop-color="#F0F0F2"/>
<stop offset="1" stop-color="#B3B5B8"/>
</linearGradient>
<path d="M44.996,13.567v31.835h-19.59c-0.508,0-1.298-0.326-1.657-0.687l-8.064-8.063 c-0.36-0.359-0.686-1.149-0.686-1.658V13.567H44.996 M45.609,12.956H14.387v22.039c0,0.674,0.389,1.615,0.866,2.09l8.064,8.064 c0.476,0.476,1.416,0.865,2.09,0.865h20.203V12.956L45.609,12.956z" fill="url(#SVGID_9)"/>
<polygon fill="#929497" points="26.631,24.333 43.16,24.333 43.16,23.109 26.631,23.109 "/>
<polygon fill="#929497" points="26.631,31.564 43.16,31.564 43.16,30.341 26.631,30.341 "/>
<polygon fill="#929497" points="19.284,38.57 43.16,38.57 43.16,37.957 43.16,37.346 19.284,37.346 "/>
<linearGradient gradientUnits="userSpaceOnUse" id="SVGID_10" x1="23.89" x2="19.35" y1="36.84" y2="41.38">
<stop offset="0" stop-color="#FFFFFF"/>
<stop offset="0.3" stop-color="#FFFFFF"/>
<stop offset="0.56" stop-color="#E6E6E6"/>
<stop offset="0.75" stop-color="#BCBCBC"/>
<stop offset="1" stop-color="#8E8E8E"/>
</linearGradient>
<path d="M15.516,37.348c-0.253-0.282-0.728-0.564-1.052-1.773c0,0,0.536,2.482,7.882,0.033 c0,10.407,3.061,10.407,3.061,10.407c-0.675,0-1.614-0.39-2.09-0.866L15.516,37.348z" fill="url(#SVGID_10)"/>
<linearGradient gradientUnits="userSpaceOnUse" id="SVGID_11" x1="30" x2="30" y1="11.66" y2="14.65">
<stop offset="0" stop-color="#707173"/>
<stop offset="1" stop-color="#000000"/>
</linearGradient>
<path d="M40.775,11.347 c-0.088-0.285-0.416-0.518-0.731-0.518H35.38c-0.315,0-0.633-0.237-0.704-0.523l-0.153-0.608h-9.049l-0.153,0.608 c-0.071,0.289-0.389,0.523-0.704,0.523h-4.664c-0.316,0-0.646,0.233-0.731,0.518l-0.832,2.73c-0.088,0.285,0.101,0.518,0.417,0.518 h22.388c0.315,0,0.502-0.233,0.416-0.518L40.775,11.347z" fill="url(#SVGID_11)" fill-opacity="0.15" stroke-opacity="0.15"/>
<linearGradient gradientUnits="userSpaceOnUse" id="SVGID_12" x1="30" x2="30" y1="12.27" y2="15.26">
<stop offset="0" stop-color="#707173"/>
<stop offset="1" stop-color="#000000"/>
</linearGradient>
<path d="M40.775,11.959c-0.088-0.285-0.416-0.518-0.731-0.518 H35.38c-0.315,0-0.633-0.237-0.704-0.523l-0.153-0.608h-9.049l-0.153,0.608c-0.071,0.289-0.389,0.523-0.704,0.523h-4.664 c-0.316,0-0.646,0.233-0.731,0.518l-0.832,2.729c-0.088,0.285,0.101,0.518,0.417,0.518h22.388c0.315,0,0.502-0.233,0.416-0.518 L40.775,11.959z" fill="url(#SVGID_12)" fill-opacity="0.2" stroke-opacity="0.2"/>
<path d="M42.041,15.819H17.955l-0.179,0.635 c-0.092,0.324,0.105,0.589,0.438,0.589h23.567c0.332,0,0.529-0.266,0.438-0.589L42.041,15.819z" fill="#6D6E70" fill-opacity="0.5" stroke-opacity="0.5"/>
<linearGradient gradientUnits="userSpaceOnUse" id="SVGID_13" x1="30" x2="30" y1="7.66" y2="16.03">
<stop offset="0" stop-color="#747577"/>
<stop offset="1" stop-color="#D5D7D9"/>
</linearGradient>
<path d="M41.344,12.734c-0.092-0.324-0.439-0.588-0.771-0.588h-4.91 c-0.332,0-0.666-0.269-0.742-0.597l-1.731-3.706c-0.075-0.328-0.41-0.597-0.743-0.597h-4.897c-0.333,0-0.666,0.269-0.741,0.597 l-1.732,3.706c-0.077,0.327-0.411,0.597-0.743,0.597h-4.91c-0.332,0-0.679,0.265-0.771,0.588l-0.876,3.107 c-0.092,0.324,0.105,0.59,0.438,0.59h23.567c0.332,0,0.529-0.266,0.438-0.59L41.344,12.734z" fill="url(#SVGID_13)"/>
<path d="M27.383,7.861h5.226c0.256,0,0.596,0.146,0.746,0.353c0,0-0.23-0.966-0.913-0.966h-4.894 c-0.679,0-0.908,0.966-0.908,0.966C26.791,8.006,27.127,7.861,27.383,7.861z" fill="#FFFFFF"/>
<path d="M35.166,12.161c0.08,0.328,0.432,0.597,0.779,0.597h5.155c0.089,0,0.177,0.017,0.263,0.046 l-0.02-0.07c-0.092-0.324-0.439-0.588-0.771-0.588h-4.91c-0.217,0-0.424-0.119-0.57-0.287L35.166,12.161z" fill="#FFFFFF"/>
<path d="M18.895,12.758h5.154c0.349,0,0.7-0.269,0.779-0.597l0.073-0.302 c-0.146,0.167-0.354,0.287-0.57,0.287h-4.91c-0.333,0-0.678,0.265-0.771,0.588l-0.02,0.07 C18.717,12.775,18.806,12.758,18.895,12.758z" fill="#FFFFFF"/>
<rect fill="none" height="59.996" width="59.996"/>
<linearGradient gradientUnits="userSpaceOnUse" id="SVGID_14" x1="21" x2="21" y1="20.02" y2="25.94">
<stop offset="0" stop-color="#83C61D"/>
<stop offset="1" stop-color="#358C0C"/>
</linearGradient>
<polygon fill="url(#SVGID_14)" points="25.161,21.63 23.993,20.462 19.808,24.647 18.003,22.843 16.835,24.011 19.805,26.98 "/>
<linearGradient gradientUnits="userSpaceOnUse" id="SVGID_15" x1="21" x2="21" y1="27.25" y2="33.17">
<stop offset="0" stop-color="#83C61D"/>
<stop offset="1" stop-color="#358C0C"/>
</linearGradient>
<polygon fill="url(#SVGID_15)" points="25.161,28.862 23.993,27.693 19.808,31.879 18.003,30.075 16.835,31.242 19.805,34.213 "/>
</svg>
