<?xml version="1.0" encoding="UTF-8" standalone="no"?>
<!DOCTYPE svg PUBLIC "-//W3C//DTD SVG 1.1 Tiny//EN" "http://www.w3.org/Graphics/SVG/1.1/DTD/svg11-tiny.dtd">
<svg xmlns="http://www.w3.org/2000/svg" xmlns:xlink="http://www.w3.org/1999/xlink" baseProfile="tiny" height="30px" version="1.1" viewBox="0 0 30 30" width="30px" x="0px" y="0px">
<polygon points="1.538,18 2,21 4,21 4,18 "/>
<polygon points="0.77,13 1.23,16 4,16 4,13 "/>
<polygon points="0,8 0.462,11 4,11 4,8 "/>
<g fill-opacity="0.5" stroke-opacity="0.5">
<rect fill="none" height="30" width="30"/>
</g>
<path d="M5,6v18h24V6H5z M24.527,9L17,16.527L9.473,9H24.527z M8,10.355l4.822,4.822L8,20V10.355z M8.414,21l5.115-5.115L17,19.355  l3.471-3.471L25.586,21H8.414z M26,20l-4.822-4.822L26,10.355V20z"/>
</svg>
