<?xml version="1.0" encoding="UTF-8"?>
<!DOCTYPE svg PUBLIC "-//W3C//DTD SVG 1.1 Tiny//EN" "http://www.w3.org/Graphics/SVG/1.1/DTD/svg11-tiny.dtd">
<svg baseProfile="tiny" height="30" viewBox="0 0 30 30" width="30" xmlns="http://www.w3.org/2000/svg" xmlns:xlink="http://www.w3.org/1999/xlink">
<rect fill="none" height="30" width="30"/>
<path d="M22.5,2.813h-15c-0.517,0-0.938,0.422-0.938,0.938v22.5c0,0.516,0.421,0.938,0.938,0.938h15 c0.515,0,0.938-0.422,0.938-0.938V3.75C23.438,3.234,23.015,2.813,22.5,2.813z M10.313,24.375H9.375 c-0.517,0-0.938-0.422-0.938-0.938S8.858,22.5,9.375,22.5h0.938c0.515,0,0.938,0.422,0.938,0.938S10.827,24.375,10.313,24.375z M16.875,24.375c0,0.516-0.423,0.938-0.938,0.938h-1.875c-0.517,0-0.938-0.422-0.938-0.938V22.5c0-0.516,0.421-0.938,0.938-0.938 h1.875c0.515,0,0.938,0.422,0.938,0.938V24.375z M20.625,24.375h-0.938c-0.517,0-0.938-0.422-0.938-0.938s0.421-0.938,0.938-0.938 h0.938c0.515,0,0.938,0.422,0.938,0.938S21.14,24.375,20.625,24.375z M21.563,19.688H8.438v-15h13.125V19.688z"/>
</svg>
