<?xml version="1.0" encoding="UTF-8"?>
<!DOCTYPE svg PUBLIC "-//W3C//DTD SVG 1.1 Tiny//EN" "http://www.w3.org/Graphics/SVG/1.1/DTD/svg11-tiny.dtd">
<svg baseProfile="tiny" height="30px" version="1.1" viewBox="0 0 30 30" width="30px" x="0px" xmlns="http://www.w3.org/2000/svg" xmlns:xlink="http://www.w3.org/1999/xlink" y="0px">
<g fill-opacity="0.5" stroke-opacity="0.5">
<rect fill="none" height="30" width="30"/>
</g>
<path d="M9,26c-2.066,0-3.92-0.775-5.202-2H0v3h30v-3H14.179C12.899,25.22,11.061,26,9,26z"/>
<path d="M2.947,17H0v3h2C2,18.906,2.349,17.884,2.947,17z"/>
<rect height="3" width="2" x="28" y="17"/>
<path d="M21,12v-2h-5v3h1.147C18.254,12.371,19.576,12,21,12z"/>
<rect height="3" width="9" y="10"/>
<rect height="3" width="2" x="28" y="10"/>
<rect height="3" width="9" y="3"/>
<rect height="3" width="2" x="28" y="3"/>
<path d="M4,20c0,2.208,2.237,4,5,4s5-1.792,5-4V8h9v6.337C22.387,14.123,21.712,14,21,14c-2.763,0-5,1.79-5,4c0,2.208,2.237,4,5,4  s5-1.792,5-4V2H11v14.337C10.387,16.123,9.712,16,9,16C6.237,16,4,17.79,4,20z"/>
</svg>
