<?xml version="1.0" encoding="UTF-8"?>
<!DOCTYPE svg PUBLIC "-//W3C//DTD SVG 1.1 Tiny//EN" "http://www.w3.org/Graphics/SVG/1.1/DTD/svg11-tiny.dtd">
<svg baseProfile="tiny" height="30px" style="enable-background:new 0 0 30 30;" version="1.1" viewBox="0 0 30 30" width="30px" x="0px" xmlns="http://www.w3.org/2000/svg" xmlns:xlink="http://www.w3.org/1999/xlink" y="0px">
<path d="M11.7,6.565c0.646-0.499,1.016-1.192,1.016-2.011,0-0.699-0.272-1.336-0.762-1.803-0.537-0.512-1.314-0.779-2.239-0.779-1.125,0-2.098,0.414-2.593,0.768l-0.312,0.213,0.678,1.803,0.512-0.365c0.317-0.227,0.9-0.49,1.48-0.49,0.483,0,1.062,0.147,1.062,0.844,0,0.825-1.072,1.005-1.483,1.005h-1.151v1.857h1.148c0.294,0,1.778,0.062,1.79,1.284,0.003,0.148-0.022,0.523-0.31,0.816-0.261,0.26-0.664,0.397-1.196,0.397-0.721,0-1.409-0.299-1.698-0.472l-0.504-0.303-0.649,1.824,0.317,0.207c0.472,0.312,1.428,0.676,2.552,0.676,2.533,0,3.688-1.619,3.688-3.122,0-1.012-0.52-1.865-1.35-2.353z"/>
<path d="M18.85,6.18v1.914h1.838v1.876c-0.24,0.065-0.572,0.121-1.087,0.121-1.903,0-3.036-1.197-3.036-3.198,0-0.98,0.296-1.793,0.857-2.348,0.555-0.547,1.359-0.836,2.326-0.836,0.735,0,1.311,0.111,1.812,0.345l0.503,0.238,0.584-1.888-0.373-0.181c-0.445-0.217-1.365-0.467-2.498-0.467-3.244,0-5.421,2.087-5.421,5.19,0,1.51,0.517,2.874,1.418,3.745,0.945,0.901,2.168,1.339,3.745,1.339,1.487,0,2.661-0.407,2.99-0.532l0.309-0.121v-5.2h-3.968z"/>
<polygon points="20,13.4,17.99,14.64,19.81,17.55,16.85,17.55,14.26,13.4,12.26,14.64,14.06,17.55,5.247,17.55,5.247,19.91,24.06,19.9"/>
<polygon points="9.312,28.82,11.31,27.58,9.506,24.67,12.45,24.67,15.05,28.82,17.05,27.58,15.24,24.67,24.06,24.67,24.06,22.31,5.247,22.31"/>
<rect fill="none" height="29.03" width="29.03" x="0.14" y="0.775"/>
<rect fill="none" height="29.03" width="29.03" x="0.14" y="0.775"/>
</svg>
