<?xml version="1.0" encoding="UTF-8"?>
<!DOCTYPE svg PUBLIC "-//W3C//DTD SVG 1.1 Tiny//EN" "http://www.w3.org/Graphics/SVG/1.1/DTD/svg11-tiny.dtd">
<svg baseProfile="tiny" height="30px" version="1.1" viewBox="0 0 30 30" width="30px" x="0px" xmlns="http://www.w3.org/2000/svg" xmlns:xlink="http://www.w3.org/1999/xlink" y="0px">
<g fill-opacity="0.5" stroke-opacity="0.5">
<rect fill="none" height="30" width="30"/>
</g>
<rect height="2" width="2" x="7" y="6"/>
<rect height="2" width="2" x="7" y="11"/>
<rect height="2" width="2" x="7" y="16"/>
<rect height="2" width="2" x="7" y="21"/>
<rect height="2" width="9.942" x="10.06" y="6"/>
<rect height="2" width="9.942" x="10.06" y="11"/>
<rect height="2" width="4.941" x="10.06" y="21"/>
<path d="M15,17c0-0.357,0.103-0.699,0.277-1h-5.219v2h4.94v-1z"/>
<path d="M11.32,26h-6.32v-23h18v10.84c0.23-0.124,0.473-0.216,0.727-0.243,0.101-0.24,0.246-0.461,0.435-0.648l1.362-1.363c0.145-0.144,0.308-0.252,0.478-0.342v-11.25h-24v29h9.325c-0.18-0.469-0.296-0.963-0.296-1.486,0.01-0.53,0.12-1.04,0.3-1.51z"/>
<path d="M22.58,23.63l1.36,1.37c0.06-0.055,0.119-0.104,0.179-0.163,2.506-2.506,2.502-6.587-0.006-9.097-0.058-0.057-0.117-0.104-0.173-0.154l-1.362,1.361c0.058,0.053,0.114,0.101,0.172,0.156,1.757,1.756,1.759,4.613,0.004,6.367-0.05,0.05-0.11,0.1-0.17,0.15z"/>
<path d="M27.11,13.16c-0.055-0.056-0.112-0.101-0.17-0.155l-1.362,1.363c0.055,0.052,0.114,0.1,0.17,0.155,3.101,3.099,3.104,8.136,0.008,11.23-0.058,0.058-0.121,0.108-0.183,0.164l1.367,1.366c0.06-0.057,0.123-0.107,0.183-0.166,3.83-3.84,3.83-10.1-0.02-13.95z"/>
<path d="M22.03,19l-5.03-2v8.305c-0.254-0.152-0.666-0.244-1.107-0.244-1.583,0-2.864,1.098-2.864,2.453s1.28,2.49,2.86,2.49c1.59,0,3.11-1,3.11-2.49v-6.51l3.029,1v-3z"/>
</svg>
