<?xml version="1.0" encoding="UTF-8"?>
<!DOCTYPE svg PUBLIC "-//W3C//DTD SVG 1.1 Tiny//EN" "http://www.w3.org/Graphics/SVG/1.1/DTD/svg11-tiny.dtd">
<svg baseProfile="tiny" height="30px" version="1.1" viewBox="0 0 30 30" width="30px" x="0px" xmlns="http://www.w3.org/2000/svg" xmlns:xlink="http://www.w3.org/1999/xlink" y="0px">
<path d="M12.36,23.759c2.87,2.869,7.363,3.113,10.52,0.749l1.149,1.15L23.487,26.2l3.8,3.8L30,27.287l-3.799-3.8l-0.543,0.542  l-1.15-1.149c2.364-3.156,2.12-7.649-0.75-10.519c-3.147-3.148-8.251-3.148-11.397,0C9.213,15.508,9.213,20.61,12.36,23.759z   M13.989,13.989c2.244-2.244,5.896-2.244,8.141,0c2.246,2.244,2.243,5.898,0,8.141c-2.242,2.243-5.896,2.244-8.141,0  S11.745,16.233,13.989,13.989z"/>
<polygon points="16.909,16.909 16.909,13.838 19.211,13.838 19.211,16.909 22.281,16.909 22.281,19.211 19.211,19.211   19.211,22.281 16.909,22.281 16.909,19.211 13.838,19.211 13.838,16.909 "/>
<rect height="2" width="2" x="5" y="6"/>
<rect height="2" width="9.941" x="8.059" y="6"/>
<rect height="2" width="2" x="5" y="11"/>
<path d="M10.864,11H8.059v2h1.29C9.771,12.271,10.278,11.598,10.864,11z"/>
<rect height="2" width="2" x="5" y="16"/>
<path d="M11.896,26H3V3h18v5.436c1.077,0.327,2.085,0.846,3,1.52V0H0v29h17.031c-0.279-0.327-0.525-0.683-0.753-1.049  C14.679,27.668,13.184,27.002,11.896,26z"/>
<rect fill="none" height="30" width="30"/>
</svg>
