<?xml version="1.0" encoding="UTF-8"?>
<!DOCTYPE svg PUBLIC "-//W3C//DTD SVG 1.1 Tiny//EN" "http://www.w3.org/Graphics/SVG/1.1/DTD/svg11-tiny.dtd">
<svg baseProfile="tiny" height="30px" version="1.1" viewBox="-0.002 0 30 30" width="30px" x="0px" xmlns="http://www.w3.org/2000/svg" xmlns:xlink="http://www.w3.org/1999/xlink" y="0px">
<g fill-opacity="0.5" stroke-opacity="0.5">
<rect fill="none" height="30" width="29.998"/>
</g>
<path d="M28.994,28C28.996,27.929,29,27.86,29,27.789c0-6.719-2.422-12.164-5.41-12.164c-1.65,0-3.125,1.667-4.117,4.286  C17.91,12.875,14.576,8,10.703,8C5.469,8,1.215,16.881,1,28H28.994z"/>
<circle cx="23.5" cy="4.891" r="2.891"/>
<circle cx="23.5" cy="7.438" r="2.5"/>
<path d="M29,6.438c0,1.381-1.119,2.5-2.5,2.5h-6c-1.381,0-2.5-1.119-2.5-2.5l0,0c0-1.381,1.119-2.5,2.5-2.5h6  C27.881,3.938,29,5.057,29,6.438L29,6.438z"/>
</svg>
