<?xml version="1.0" encoding="UTF-8"?>
<!DOCTYPE svg PUBLIC "-//W3C//DTD SVG 1.1 Tiny//EN" "http://www.w3.org/Graphics/SVG/1.1/DTD/svg11-tiny.dtd">
<svg baseProfile="tiny" height="30" viewBox="0 0 30 30" width="30" xmlns="http://www.w3.org/2000/svg" xmlns:xlink="http://www.w3.org/1999/xlink">
<rect fill="none" height="30" width="30"/>
<path d="M13.5,22.69c0.035-0.788,0.244-1.511,0.625-2.169,0.381-0.659,0.85-1.264,1.406-1.813,0.556-0.548,1.326-1.234,2.314-2.057,1.766-1.46,2.887-2.656,3.362-3.59s0.714-1.883,0.714-2.847c0-1.717-0.53-3.015-1.588-3.895-1.05-0.875-2.59-1.315-4.63-1.315-1.65,0-3.345,0.27-5.085,0.81v2.362h0.027c1.658-0.593,3.071-0.89,4.237-0.89,1.103,0,1.931,0.259,2.481,0.776,0.553,0.519,0.828,1.289,0.828,2.316,0,0.584-0.171,1.172-0.512,1.765s-1.162,1.429-2.462,2.509c-1.085,0.902-1.982,1.732-2.69,2.488-0.709,0.756-1.305,1.671-1.789,2.741s-0.73,2.29-0.73,3.67v1.45h12v-2.31h-8.502z"/>
</svg>
