<?xml version="1.0" encoding="UTF-8"?>
<!DOCTYPE svg PUBLIC "-//W3C//DTD SVG 1.1 Tiny//EN" "http://www.w3.org/Graphics/SVG/1.1/DTD/svg11-tiny.dtd">
<svg baseProfile="tiny" height="15px" version="1.1" viewBox="2.5 2.5 15 15" width="15px" x="0px" xmlns="http://www.w3.org/2000/svg" xmlns:xlink="http://www.w3.org/1999/xlink" y="0px">
<g>
<path d="M8.502,3.999C5.191,3.999,2.5,6.692,2.5,10s2.691,6,6.002,6H17.5   V3.999H8.502z" fill-opacity="0.1" fill-rule="evenodd" stroke-opacity="0.1"/>
<path d="M8.502,4.75c-2.9,0-5.25,2.351-5.25,5.25   c0,2.9,2.35,5.249,5.25,5.249H17.5V4.75H8.502z" fill="url(#SVGID_1_)" fill-rule="evenodd"/>
<path d="M8.502,14.501C6.019,14.501,4,12.48,4,10c0-2.481,2.02-4.501,4.502-4.501H17.5V4.75H8.502   c-2.9,0-5.25,2.351-5.25,5.25c0,2.9,2.35,5.249,5.25,5.249H17.5v-0.748H8.502z" fill-opacity="0.2" stroke-opacity="0.2"/>
<rect fill="#FFFFFF" fill-opacity="0.9" fill-rule="evenodd" height="4.501" stroke-opacity="0.9" width="0.752" x="11.5" y="7.749"/>
<rect fill-opacity="0.1" fill-rule="evenodd" height="4.501" stroke-opacity="0.1" width="0.748" x="10.752" y="7.749"/>
<rect fill="none" fill-rule="evenodd" height="15" width="15" x="2.5" y="2.5"/>
<path d="M8.502,13.75c-2.068,0-3.75-1.682-3.75-3.75   s1.682-3.75,3.75-3.75H17.5V5.499H8.502C6.019,5.499,4,7.519,4,10c0,2.48,2.02,4.501,4.502,4.501H17.5V13.75H8.502z" fill="#FFFFFF" fill-opacity="0.4" fill-rule="evenodd" stroke-opacity="0.4"/>
<defs>
<linearGradient gradientTransform="matrix(4.489659e-011 -1 1 4.489659e-011 -704.5505 -388.9524)" gradientUnits="userSpaceOnUse" id="SVGID_1_" x1="-398.9524" x2="-398.9524" y1="707.6689" y2="751.416">
<stop offset="0" style="stop-color:#E6E6F0"/>
<stop offset="0.3" style="stop-color:#FAFAFA"/>
<stop offset="0.7" style="stop-color:#FAFAFA"/>
<stop offset="1" style="stop-color:#E6E6F0"/>
</linearGradient>
</defs>
</g>
</svg>
