<?xml version="1.0" encoding="UTF-8"?>
<!DOCTYPE svg PUBLIC "-//W3C//DTD SVG 1.1 Tiny//EN" "http://www.w3.org/Graphics/SVG/1.1/DTD/svg11-tiny.dtd">
<svg baseProfile="tiny" height="32" viewBox="0 0 32 32" width="32" xmlns="http://www.w3.org/2000/svg" xmlns:xlink="http://www.w3.org/1999/xlink">
<g transform="matrix(1 0 0 1 9 3)">
<path d="M5.5,26C3.57,26,2,24.43,2,22.5S3.57,19,5.5,19S9,20.57,9,22.5S7.43,26,5.5,26L5.5,26z" fill-opacity="0.6" stroke-opacity="0.6"/>
<linearGradient gradientUnits="userSpaceOnUse" id="SVGID_1_" x1="5.4995" x2="5.4995" y1="0.917" y2="24.9193">
<stop offset="0" style="stop-color:#4EDEFF"/>
<stop offset="1" style="stop-color:#048CC6"/>
</linearGradient>
<circle cx="5.5" cy="22.5" fill="url(#SVGID_1_)" r="2.5"/>
<path d="M2.511,18.719v-2.654c0-1.242,0.284-2.343,0.843-3.273c0.512-0.857,1.27-1.766,2.316-2.773  c1.214-1.193,1.579-1.766,1.688-2C7.538,7.626,7.63,7.247,7.63,6.895c0-0.758-0.18-1.287-0.551-1.619  C6.683,4.923,6.013,4.743,5.092,4.743c-1.044,0-2.324,0.224-3.806,0.667L0,5.793V0.98l0.733-0.203C2.598,0.262,4.299,0,5.791,0  c2.549,0,4.557,0.553,5.969,1.643C13.246,2.792,14,4.485,14,6.674c0,0.926-0.208,1.874-0.617,2.816  c-0.412,0.951-1.313,2.125-2.757,3.588c-0.938,0.947-1.56,1.644-1.85,2.072c-0.221,0.326-0.327,0.696-0.327,1.135v2.434H2.511z" fill-opacity="0.6" stroke-opacity="0.6"/>
<linearGradient gradientUnits="userSpaceOnUse" id="SVGID_2_" x1="6.9995" x2="6.9995" y1="0.9165" y2="24.9195">
<stop offset="0" style="stop-color:#4EDEFF"/>
<stop offset="1" style="stop-color:#048CC6"/>
</linearGradient>
<path d="M11.148,2.434C9.911,1.479,8.126,1,5.791,1C4.384,1,2.788,1.247,1,1.741v2.71  c1.581-0.472,2.945-0.708,4.092-0.708c1.18,0,2.063,0.262,2.654,0.788C8.334,5.057,8.63,5.843,8.63,6.895  c0,0.503-0.123,1.018-0.365,1.544c-0.243,0.524-0.876,1.292-1.901,2.3c-0.971,0.935-1.688,1.791-2.152,2.568  c-0.468,0.777-0.7,1.697-0.7,2.758v1.654h3.938v-1.434c0-0.641,0.167-1.205,0.498-1.693c0.33-0.489,0.986-1.227,1.967-2.215  c1.347-1.366,2.194-2.46,2.552-3.284C12.824,8.268,13,7.461,13,6.674C13,4.804,12.384,3.39,11.148,2.434z" fill="url(#SVGID_2_)"/>
<path d="M5.5,21c1.209,0,2.218,0.859,2.449,2C7.982,22.838,8,22.672,8,22.5C8,21.119,6.881,20,5.5,20  S3,21.119,3,22.5c0,0.172,0.018,0.338,0.05,0.5C3.282,21.859,4.291,21,5.5,21z" fill="#FFFFFF" fill-opacity="0.4" stroke-opacity="0.4"/>
<path d="M8.63,7.895c0-0.22-0.021-0.42-0.046-0.616c-0.047,0.381-0.138,0.767-0.319,1.16  c-0.243,0.524-0.876,1.292-1.901,2.3c-0.971,0.935-1.688,1.791-2.152,2.568c-0.468,0.777-0.7,1.697-0.7,2.758v1  c0-1.061,0.232-1.98,0.7-2.758c0.464-0.777,1.182-1.634,2.152-2.568c1.025-1.008,1.658-1.775,1.901-2.3  C8.507,8.912,8.63,8.397,8.63,7.895z" fill="#FFFFFF" fill-opacity="0.4" stroke-opacity="0.4"/>
<path d="M11.148,3.434c1.106,0.856,1.712,2.083,1.827,3.671C12.987,6.961,13,6.816,13,6.674  c0-1.87-0.616-3.284-1.852-4.24C9.911,1.479,8.126,1,5.791,1C4.384,1,2.788,1.247,1,1.741v1C2.788,2.247,4.384,2,5.791,2  C8.126,2,9.911,2.479,11.148,3.434z" fill="#FFFFFF" fill-opacity="0.4" stroke-opacity="0.4"/>
</g>
</svg>
