<?xml version="1.0" encoding="UTF-8"?>
<!DOCTYPE svg PUBLIC "-//W3C//DTD SVG 1.1 Tiny//EN" "http://www.w3.org/Graphics/SVG/1.1/DTD/svg11-tiny.dtd">
<svg baseProfile="tiny" height="30px" version="1.1" viewBox="0 0 30 30" width="30px" x="0px" xmlns="http://www.w3.org/2000/svg" xmlns:xlink="http://www.w3.org/1999/xlink" y="0px">
<rect fill="none" height="30" width="30"/>
<path d="M3.949,4v17h22.1V4H3.949z M23,18H7V7h16V18z"/>
<circle cx="9.001" cy="9.02" r="1"/>
<rect height="2" width="4" x="20.049" y="1"/>
<path d="M15.422,8c-2.48,0-4.5,2.018-4.5,4.5c0,2.48,2.02,4.5,4.5,4.5c2.482,0,4.5-2.02,4.5-4.5C19.922,10.018,17.904,8,15.422,8z   M15.422,14.5c-1.104,0-2-0.896-2-2c0-1.105,0.896-2,2-2c1.105,0,2,0.895,2,2C17.422,13.604,16.527,14.5,15.422,14.5z"/>
<polygon points="3,27 3,21 1,21 1,29 11,29 11,27 "/>
<polygon points="27,27 27,21 29,21 29,29 19,29 19,27 "/>
</svg>
