<?xml version="1.0" ?>
<!DOCTYPE svg  PUBLIC '-//W3C//DTD SVG 1.1 Tiny//EN'  'http://www.w3.org/Graphics/SVG/1.1/DTD/svg11-tiny.dtd'>
<svg baseProfile="tiny" height="30" viewBox="0 0 30 30" width="30" xmlns="http://www.w3.org/2000/svg" xmlns:xlink="http://www.w3.org/1999/xlink">

<rect fill="none" height="30" width="30"/>

<polygon points="8.05,11.37,5.545,12.97,5.708,10.01,4.124,10.01,4.279,12.97,1.773,11.37,1,12.73,3.625,14.08,1,15.44,1.773,16.8,4.279,15.18,4.124,18.16,5.708,18.16,5.545,15.18,8.05,16.8,8.824,15.44,6.199,14.08,8.824,12.73"/>

<path d="M21.88,14.41l-1.713-0.388c-0.247,1.096-0.565,1.96-0.955,2.591l-2.574-3.332c0.97-0.654,1.642-1.246,2.015-1.777,0.372-0.53,0.56-1.115,0.56-1.751,0-0.78-0.283-1.397-0.849-1.851-0.565-0.454-1.35-0.681-2.354-0.681-1.079,0-1.92,0.247-2.522,0.741-0.603,0.493-0.904,1.202-0.904,2.125,0,0.838,0.459,1.856,1.377,3.056-0.924,0.529-1.586,1.09-1.988,1.684-0.401,0.595-0.603,1.296-0.603,2.104,0,1.091,0.351,1.937,1.051,2.535,0.699,0.6,1.707,0.899,3.021,0.899,1.28,0,2.368-0.358,3.264-1.075l0.723,0.938h2.574l-1.765-2.272c0.75-0.88,1.3-2.06,1.64-3.54zm-6.82-5.474c0.216-0.218,0.539-0.327,0.969-0.327,0.362,0,0.651,0.106,0.869,0.319,0.218,0.212,0.327,0.482,0.327,0.809,0,0.879-0.505,1.655-1.515,2.333-0.373-0.488-0.628-0.882-0.766-1.184-0.138-0.301-0.207-0.624-0.207-0.969,0-0.441,0.1-0.768,0.32-0.985zm0.77,9.954c-0.567,0-1.063-0.188-1.484-0.563-0.422-0.376-0.633-0.917-0.633-1.623,0-0.94,0.396-1.728,1.188-2.358l2.927,3.822c-0.59,0.48-1.26,0.72-2.01,0.72z"/>

<polygon points="28.63,16.39,28.88,7.395,26.39,7.395,26.65,16.39"/>

<path d="M28.6,18.03c-0.264-0.264-0.586-0.395-0.965-0.395s-0.699,0.131-0.964,0.395c-0.264,0.265-0.395,0.585-0.395,0.964s0.132,0.702,0.399,0.97c0.267,0.266,0.587,0.399,0.959,0.399,0.379,0,0.701-0.134,0.965-0.399,0.27-0.27,0.4-0.59,0.4-0.97s-0.13-0.7-0.4-0.97z"/>

</svg>