<?xml version="1.0" encoding="UTF-8"?>
<!DOCTYPE svg PUBLIC "-//W3C//DTD SVG 1.1 Tiny//EN" "http://www.w3.org/Graphics/SVG/1.1/DTD/svg11-tiny.dtd">
<svg baseProfile="tiny" height="30px" version="1.1" viewBox="0 0 30 30" width="30px" x="0px" xmlns="http://www.w3.org/2000/svg" xmlns:xlink="http://www.w3.org/1999/xlink" y="0px">
<path d="M6.249,10.773H6.213l-2.035,1.098l-0.306-1.206l2.557-1.368H7.78V21H6.249V10.773z"/>
<path d="M19.811,21v-0.973l1.242-1.206c2.988-2.845,4.357-4.357,4.357-6.122c0-1.188-0.559-2.286-2.305-2.286  c-1.063,0-1.945,0.54-2.484,0.99l-0.505-1.116c0.792-0.666,1.963-1.188,3.295-1.188c2.521,0,3.583,1.729,3.583,3.403  c0,2.16-1.566,3.906-4.033,6.283l-0.918,0.864v0.036h5.239V21H19.811z"/>
<g fill-opacity="0.5" stroke-opacity="0.5">
<rect fill="none" height="30" width="30"/>
</g>
<polygon points="14,23 13,23 16,7 17,7 14,23 "/>
</svg>
