<?xml version="1.0" encoding="UTF-8"?>
<!DOCTYPE svg PUBLIC "-//W3C//DTD SVG 1.1 Tiny//EN" "http://www.w3.org/Graphics/SVG/1.1/DTD/svg11-tiny.dtd">
<svg baseProfile="tiny" height="30" viewBox="0 0 30 30" width="30" xmlns="http://www.w3.org/2000/svg" xmlns:xlink="http://www.w3.org/1999/xlink">
<g>
<path d="M15,27C8.383,27,3,21.617,3,15C3,8.383,8.383,3,15,3c6.617,0,12,5.383,12,12C27,21.617,21.617,27,15,27L15,27  z" fill-opacity="0.6" stroke-opacity="0.6"/>
<circle cx="15" cy="15" fill="url(#SVGID_1_)" r="11"/>
<path d="M15,5c5.906,0,10.712,4.659,10.975,10.5C25.982,15.333,26,15.169,26,15  c0-6.075-4.925-11-11-11S4,8.925,4,15c0,0.169,0.018,0.333,0.025,0.5C4.289,9.659,9.094,5,15,5z" fill="#FFFFFF" fill-opacity="0.4" stroke-opacity="0.4"/>
<rect fill="none" height="30" width="30"/>
<defs>
<linearGradient gradientUnits="userSpaceOnUse" id="SVGID_1_" x1="14.9995" x2="14.9995" y1="4" y2="26.0005">
<stop offset="0" style="stop-color:#DE5229"/>
<stop offset="1" style="stop-color:#D81A00"/>
</linearGradient>
</defs>
</g>
</svg>
