<?xml version="1.0" encoding="UTF-8"?>
<!DOCTYPE svg PUBLIC "-//W3C//DTD SVG 1.1 Tiny//EN" "http://www.w3.org/Graphics/SVG/1.1/DTD/svg11-tiny.dtd">
<svg baseProfile="tiny" height="30" viewBox="0 0 30 30" width="30" xmlns="http://www.w3.org/2000/svg" xmlns:xlink="http://www.w3.org/1999/xlink">
<rect fill="none" height="30" width="30"/>
<rect fill-opacity="0.6" height="17.647" stroke-opacity="0.6" width="24.708" x="2.647" y="6.177"/>
<linearGradient gradientUnits="userSpaceOnUse" id="SVGID_1" x1="15" x2="15" y1="7.09" y2="22.98">
<stop offset="0" stop-color="#FEAB0E"/>
<stop offset="0.31" stop-color="#FEAB0E"/>
<stop offset="0.79" stop-color="#FFDA33"/>
<stop offset="1" stop-color="#FFE377"/>
</linearGradient>
<rect fill="url(#SVGID_1)" height="15.883" width="22.943" x="3.53" y="7.059"/>
<polygon fill="#FFFFFF" fill-opacity="0.4" points="15.001,12.912 3.742,22.942 4.773,22.942 15.001,14.583 25.229,22.942 26.26,22.942 " stroke-opacity="0.4"/>
<linearGradient gradientUnits="userSpaceOnUse" id="SVGID_2" x1="15" x2="15" y1="7.06" y2="22.94">
<stop offset="0" stop-color="#C9700B"/>
<stop offset="0.27" stop-color="#C9700B"/>
<stop offset="0.72" stop-color="#E8AC22"/>
<stop offset="1" stop-color="#E8AC22"/>
</linearGradient>
<polygon fill="url(#SVGID_2)" fill-opacity="0.5" points="26.473,7.059 15.122,7.896 3.53,7.059 3.53,7.201 11.35,15.431 3.53,22.891 3.53,22.942 3.742,22.942 11.761,15.797 15.001,18.853 18.241,15.797 26.26,22.942 26.473,22.942 26.473,22.891 18.674,15.431 26.473,7.201 " stroke-opacity="0.5"/>
<linearGradient gradientUnits="userSpaceOnUse" id="SVGID_3" x1="15" x2="15" y1="7.14" y2="17.02">
<stop offset="0" stop-color="#FFF278"/>
<stop offset="1" stop-color="#FFFCDA"/>
</linearGradient>
<polygon fill="url(#SVGID_3)" points="3.642,7.059 15.001,17.18 26.359,7.059 "/>
<rect fill="none" height="30.002" width="30.002"/>
</svg>
