<?xml version="1.0" ?>
<!DOCTYPE svg  PUBLIC '-//W3C//DTD SVG 1.1 Tiny//EN'  'http://www.w3.org/Graphics/SVG/1.1/DTD/svg11-tiny.dtd'>
<svg baseProfile="tiny" height="30px" version="1.1" viewBox="0 0 30 30" width="30px" x="0px" xmlns="http://www.w3.org/2000/svg" xmlns:xlink="http://www.w3.org/1999/xlink" y="0px">

<g fill-opacity="0.5" stroke-opacity="0.5">

<rect fill="none" height="30" width="30"/>

</g>

<path d="M10.93,15.08c0.023,0.059,0.044,0.121,0.07,0.175,0.411,0.865,1.002,1.503,1.841,2.054,0.003,0.113,0.009,0.699,0.002,0.811-0.005,0.076-0.032,0.156-0.061,0.238h0.018c-0.539,1.459-4.793,3.992-4.793,3.992l-0.007,1.2h11.4l-8.47-8.47z"/>

<path d="M19.1,14.95c0.617-1.695,0.24-4.953,0.24-4.953,0-1.635-2.173-3.549-3.827-3.549h-1.049c-0.86,0-1.854,0.521-2.618,1.248l7.26,7.254z"/>

<polygon points="4,20,1,20,1,28,11,28,11,25,4,25"/>

<polygon points="26,10,29,10,29,2,19,2,19,5,26,5"/>

<polygon points="9.148,5,11,5,11,2,6.148,2"/>

<polygon points="1,5.148,1,10,4,10,4,8.148"/>

<polygon points="29,24.85,29,20,26,20,26,21.85"/>

<polygon points="20.85,25,19,25,19,28,23.85,28"/>

<rect height="35.83" transform="matrix(0.7061 -0.7082 0.7082 0.7061 -6.212 15.0307)" width="1.867" x="14.07" y="-2.915"/>

</svg>