<?xml version="1.0" encoding="UTF-8"?>
<!DOCTYPE svg PUBLIC "-//W3C//DTD SVG 1.1 Tiny//EN" "http://www.w3.org/Graphics/SVG/1.1/DTD/svg11-tiny.dtd">
<svg baseProfile="tiny" height="30" viewBox="0 0 30 30" width="30" xmlns="http://www.w3.org/2000/svg" xmlns:xlink="http://www.w3.org/1999/xlink">
<g>
<path d="M15,30C6.729,30,0,23.271,0,15S6.729,0,15,0c8.271,0,15,6.729,15,15S23.271,30,15,30L15,30z" fill-opacity="0.6" stroke-opacity="0.6"/>
<radialGradient cx="15" cy="2.8335" gradientUnits="userSpaceOnUse" id="SVGID_1_" r="24.8358">
<stop offset="0" style="stop-color:#FEE891"/>
<stop offset="0.7818" style="stop-color:#FFB701"/>
<stop offset="1" style="stop-color:#FFC501"/>
</radialGradient>
<circle cx="15" cy="15" fill="url(#SVGID_1_)" r="14"/>
<linearGradient gradientTransform="matrix(0.966 0.2584 -0.2584 0.966 -118.2363 192.4348)" gradientUnits="userSpaceOnUse" id="SVGID_2_" x1="82.7344" x2="82.7344" y1="-202.0483" y2="-192.8457">
<stop offset="0" style="stop-color:#D48D00"/>
<stop offset="1" style="stop-color:#FFF1B8"/>
</linearGradient>
<path d="M11.559,27.405c-4.1-1.097-7.131-5.184-8.119-8.915L3,16.834c0,0,7.074,0.857,10.939,1.892  c3.863,1.034,10.313,3.794,10.313,3.794l-1.206,1.216C20.326,26.475,15.66,28.502,11.559,27.405L11.559,27.405z" fill="url(#SVGID_2_)"/>
<linearGradient gradientTransform="matrix(0.966 0.2584 -0.2584 0.966 -118.2363 192.4348)" gradientUnits="userSpaceOnUse" id="SVGID_3_" x1="82.7344" x2="82.7344" y1="-201.0308" y2="-193.8726">
<stop offset="0" style="stop-color:#460800"/>
<stop offset="1" style="stop-color:#992323"/>
</linearGradient>
<path d="M11.817,26.439c-4.101-1.098-7.39-4.218-8.378-7.949L3,16.834l21.253,5.686l-1.206,1.216  C20.326,26.475,15.918,27.536,11.817,26.439L11.817,26.439z" fill="url(#SVGID_3_)"/>
<linearGradient gradientTransform="matrix(0.966 0.2584 -0.2584 0.966 -118.2363 192.4348)" gradientUnits="userSpaceOnUse" id="SVGID_4_" x1="82.7344" x2="82.7344" y1="-200.0122" y2="-194.9006">
<stop offset="0" style="stop-color:#E6E6E6"/>
<stop offset="1" style="stop-color:#FFFFFF"/>
</linearGradient>
<path d="M12.076,25.473c3.863,1.034,7.82-0.02,10.225-2.439L4.436,18.254  C5.31,21.551,8.212,24.439,12.076,25.473z" fill="url(#SVGID_4_)"/>
<path d="M11.039,25.138c0.32,0.118,0.646,0.228,0.982,0.319l1.291-4.828l-0.996-0.268L11.039,25.138z" fill-opacity="0.2" stroke-opacity="0.2"/>
<path d="M12.021,25.457c0.019,0.004,0.036,0.012,0.055,0.016c0.317,0.086,0.635,0.154,0.953,0.211  l1.28-4.789l-0.997-0.266L12.021,25.457z" fill="#FFFFFF" fill-opacity="0.5" stroke-opacity="0.5"/>
<path d="M17.311,25.645c0.393-0.08,0.775-0.187,1.15-0.307l0.832-3.109l-0.997-0.268L17.311,25.645z" fill-opacity="0.2" stroke-opacity="0.2"/>
<path d="M18.461,25.338c0.408-0.133,0.809-0.283,1.19-0.461l0.638-2.383l-0.996-0.266L18.461,25.338z" fill="#FFFFFF" fill-opacity="0.5" stroke-opacity="0.5"/>
<path d="M21.389,23.824c0.322-0.246,0.63-0.508,0.912-0.791L4.436,18.254c0.104,0.387,0.238,0.768,0.395,1.141  L21.389,23.824z" fill-opacity="0.2" stroke-opacity="0.2"/>
<path d="M5.941,21.104c0.231,0.352,0.486,0.689,0.765,1.014l0.813-3.039L6.553,18.82L5.941,21.104z" fill-opacity="0.2" stroke-opacity="0.2"/>
<path d="M6.521,22.067c0.262,0.296,0.541,0.581,0.84,0.852l0.969-3.624l-0.996-0.266L6.521,22.067z" fill="#FFFFFF" fill-opacity="0.5" stroke-opacity="0.5"/>
<path d="M15,2c7.563,0,13.71,6.002,13.975,13.5C28.98,15.333,29,15.169,29,15c0-7.732-6.268-14-14-14  C7.269,1,1,7.268,1,15c0,0.169,0.02,0.333,0.025,0.5C1.291,8.002,7.438,2,15,2z" fill="#FFFFFF" fill-opacity="0.3" stroke-opacity="0.3"/>
<linearGradient gradientUnits="userSpaceOnUse" id="SVGID_5_" x1="20.5" x2="20.5" y1="8.7856" y2="15.9438">
<stop offset="0" style="stop-color:#DB9D00"/>
<stop offset="1" style="stop-color:#FFEEA9"/>
</linearGradient>
<path d="M20.5,15.834c-1.425,0-2.5-1.505-2.5-3.5s1.075-3.5,2.5-3.5c1.426,0,2.5,1.505,2.5,3.5  S21.926,15.834,20.5,15.834L20.5,15.834z" fill="url(#SVGID_5_)"/>
<ellipse cx="20.5" cy="12.334" fill="#0C3554" rx="1.5" ry="2.5"/>
<linearGradient gradientUnits="userSpaceOnUse" id="SVGID_6_" x1="20.584" x2="20.584" y1="11.9248" y2="15.1028">
<stop offset="0" style="stop-color:#0C3554"/>
<stop offset="1" style="stop-color:#6D93B3"/>
</linearGradient>
<path d="M19.167,13.457c0.247,0.813,0.749,1.377,1.333,1.377c0.829,0,1.5-1.119,1.5-2.5  c0-0.155-0.011-0.305-0.027-0.452c-0.152-0.03-0.311-0.048-0.473-0.048C20.43,11.834,19.523,12.511,19.167,13.457z" fill="url(#SVGID_6_)"/>
<path d="M12,14.833c-0.209,0-0.403-0.132-0.474-0.34c-0.042-0.121-0.932-2.159-4.491-2.159  c-0.276,0-0.534-0.724-0.534-1s0.224-0.5,0.5-0.5c4.312,0,5.429,3.205,5.474,3.341c0.088,0.262-0.055,0.545-0.316,0.632  C12.105,14.825,12.053,14.833,12,14.833L12,14.833z" fill-opacity="0.4" stroke-opacity="0.4"/>
<path d="M12,14.021c-0.209,0-0.403-0.132-0.474-0.34c-0.042-0.121-0.993-3.066-4.552-3.066  c-0.277,0-0.474-0.503-0.474-0.78s0.224-0.5,0.5-0.5c4.312,0,5.429,3.892,5.474,4.028c0.088,0.262-0.055,0.545-0.316,0.632  c-0.053,0.018-0.105-0.661-0.158-0.661V14.021z" fill="#FFFFFF" fill-opacity="0.3" stroke-opacity="0.3"/>
<path d="M12,14.334c-0.209,0-0.403-0.132-0.474-0.34c-0.042-0.121-0.966-2.659-4.525-2.659  c-0.276,0-0.5-0.224-0.5-0.5s0.224-0.5,0.5-0.5c4.312,0,5.429,3.205,5.474,3.341c0.088,0.262-0.055,0.545-0.316,0.632  C12.105,14.326,12.053,14.334,12,14.334L12,14.334z" fill="#0C3554"/>
</g>
</svg>
