<?xml version="1.0" encoding="UTF-8"?>
<!DOCTYPE svg PUBLIC "-//W3C//DTD SVG 1.1 Tiny//EN" "http://www.w3.org/Graphics/SVG/1.1/DTD/svg11-tiny.dtd">
<svg baseProfile="tiny" height="30" viewBox="0 0 30 30" width="30" xmlns="http://www.w3.org/2000/svg" xmlns:xlink="http://www.w3.org/1999/xlink">
<g>
<path d="M15,30C6.729,30,0,23.271,0,15C0,6.729,6.729,0,15,0s15,6.729,15,15C30,23.271,23.271,30,15,30L15,30z" fill-opacity="0.6" stroke-opacity="0.6"/>
<radialGradient cx="15" cy="2.8335" gradientUnits="userSpaceOnUse" id="SVGID_1_" r="24.8358">
<stop offset="0" style="stop-color:#FEE891"/>
<stop offset="0.7818" style="stop-color:#FFB701"/>
<stop offset="1" style="stop-color:#FFC501"/>
</radialGradient>
<circle cx="15" cy="15" fill="url(#SVGID_1_)" r="14"/>
<path d="M15,2c7.563,0,13.709,6.002,13.975,13.5C28.98,15.332,29,15.169,29,15c0-7.732-6.268-14-14-14  S1,7.268,1,15c0,0.169,0.02,0.332,0.025,0.5C1.291,8.002,7.438,2,15,2z" fill="#FFFFFF" fill-opacity="0.3" stroke-opacity="0.3"/>
<path d="M20.797,24.961c-0.095,0.545-0.393,0.946-0.664,0.898l-10.835-1.9  c-0.272-0.048-0.415-0.527-0.319-1.072l0,0c0.096-0.544,0.393-0.945,0.664-0.898l10.836,1.901  C20.75,23.938,20.893,24.416,20.797,24.961L20.797,24.961z" fill="#FFFFFF" fill-opacity="0.4" stroke-opacity="0.4"/>
<path d="M20.971,23.977c-0.096,0.544-0.394,0.945-0.666,0.898L9.471,22.974c-0.272-0.048-0.416-0.526-0.32-1.071l0,0  c0.096-0.545,0.394-0.946,0.666-0.898l10.834,1.9C20.923,22.952,21.066,23.432,20.971,23.977L20.971,23.977z" fill-opacity="0.4" stroke-opacity="0.4"/>
<path d="M20.884,24.469c-0.048,0.271-0.307,0.453-0.579,0.406L9.471,22.974c-0.272-0.048-0.454-0.307-0.406-0.579  l0,0c0.048-0.271,0.307-0.453,0.578-0.406l10.836,1.901C20.75,23.938,20.932,24.196,20.884,24.469L20.884,24.469z" fill="#3B2314"/>
<path d="M27,13c0,0.553-0.205,1-0.459,1H15.459C15.205,14,15,13.553,15,13l0,0c0-0.553,0.205-1,0.459-1h11.082  C26.795,12,27,12.447,27,13L27,13z" fill-opacity="0.4" stroke-opacity="0.4"/>
<path d="M14,13c0,0.553-0.205,1-0.459,1H2.459C2.205,14,2,13.553,2,13l0,0c0-0.553,0.205-1,0.459-1h11.082  C13.795,12,14,12.447,14,13L14,13z" fill-opacity="0.4" stroke-opacity="0.4"/>
<linearGradient gradientUnits="userSpaceOnUse" id="SVGID_2_" x1="8.4746" x2="8.4746" y1="7.208" y2="17.834">
<stop offset="0" style="stop-color:#DB9D00"/>
<stop offset="1" style="stop-color:#FFEEA9"/>
</linearGradient>
<path d="M8.475,18c2.863,0,5.221-2.201,5.475-5H3C3.254,15.799,5.611,18,8.475,18z" fill="url(#SVGID_2_)"/>
<path d="M8.475,17c2.314,0,4.197-1.753,4.449-4H4.025C4.277,15.247,6.16,17,8.475,17z" fill="#FFFFFF"/>
<path d="M13.762,14c0.092-0.322,0.156-0.656,0.188-1H3c0.031,0.344,0.096,0.678,0.188,1H13.762z" fill-opacity="0.2" stroke-opacity="0.2"/>
<path d="M9.525,15c1.207,0,2.217-0.86,2.449-2H7.076C7.309,14.14,8.318,15,9.525,15z" fill="#0C3554"/>
<linearGradient gradientUnits="userSpaceOnUse" id="SVGID_3_" x1="21.4746" x2="21.4746" y1="7.208" y2="17.834">
<stop offset="0" style="stop-color:#DB9D00"/>
<stop offset="1" style="stop-color:#FFEEA9"/>
</linearGradient>
<path d="M21.475,18c2.863,0,5.221-2.201,5.475-5H16C16.254,15.799,18.611,18,21.475,18z" fill="url(#SVGID_3_)"/>
<path d="M21.475,17c2.314,0,4.197-1.753,4.449-4h-8.898C17.277,15.247,19.16,17,21.475,17z" fill="#FFFFFF"/>
<path d="M26.762,14c0.092-0.322,0.156-0.656,0.188-1H16c0.031,0.344,0.096,0.678,0.188,1H26.762z" fill-opacity="0.2" stroke-opacity="0.2"/>
<path d="M22.525,15c1.207,0,2.217-0.86,2.449-2h-4.898C20.309,14.14,21.318,15,22.525,15z" fill="#0C3554"/>
<path d="M27,12c0,0.553-0.205,1-0.459,1H15.459C15.205,13,15,12.553,15,12l0,0  c0-0.553,0.205-1,0.459-1h11.082C26.795,11,27,11.447,27,12L27,12z" fill="#FFFFFF" fill-opacity="0.3" stroke-opacity="0.3"/>
<path d="M27,12.5c0,0.276-0.205,0.5-0.459,0.5H15.459C15.205,13,15,12.776,15,12.5l0,0c0-0.276,0.205-0.5,0.459-0.5  h11.082C26.795,12,27,12.224,27,12.5L27,12.5z" fill="#3B2314"/>
<path d="M14,12c0,0.553-0.205,1-0.459,1H2.459C2.205,13,2,12.553,2,12l0,0c0-0.553,0.205-1,0.459-1  h11.082C13.795,11,14,11.447,14,12L14,12z" fill="#FFFFFF" fill-opacity="0.3" stroke-opacity="0.3"/>
<path d="M14,12.5c0,0.276-0.205,0.5-0.459,0.5H2.459C2.205,13,2,12.776,2,12.5l0,0C2,12.224,2.205,12,2.459,12  h11.082C13.795,12,14,12.224,14,12.5L14,12.5z" fill="#3B2314"/>
</g>
</svg>
