<?xml version="1.0" encoding="utf-8"?>
<!-- Generator: Adobe Illustrator 14.0.0, SVG Export Plug-In  -->
<!DOCTYPE svg PUBLIC "-//W3C//DTD SVG 1.1//EN" "http://www.w3.org/Graphics/SVG/1.1/DTD/svg11.dtd" [
	<!ENTITY ns_flows "http://ns.adobe.com/Flows/1.0/">
]>
<svg version="1.1"
	 xmlns="http://www.w3.org/2000/svg" xmlns:xlink="http://www.w3.org/1999/xlink" xmlns:a="http://ns.adobe.com/AdobeSVGViewerExtensions/3.0/"
	 x="0px" y="0px" width="30px" height="30px" viewBox="0 0 30 30" enable-background="new 0 0 30 30" xml:space="preserve">
<defs>
</defs>
<g opacity="0.5">
	<rect fill="none" width="30" height="30"/>
</g>
<path d="M11,5h6c0.553,0,1,0.447,1,1s-0.447,1-1,1h-5.851L19,14.851v-2.626c1.041-0.593,2.136-1.309,2.136-1.309
	c0.529-0.418,0.915-1.316,0.858-1.996c0,0-0.68-4.737-1.039-5.313c0,0-1.628-2.606-7.067-2.606C9.759,1,7.98,2.492,7.361,3.213
	l2.664,2.663C10.089,5.385,10.491,5,11,5z"/>
<polygon points="17.785,21.932 15.061,19.208 14.572,19.71 15.846,21.081 14.568,22.456 16,23.846 16,24.278 14,26.691 12,24.279 
	12,16.147 9,13.147 9,15.998 10,15.998 10,25 13.315,29 14.684,29 18,25 18,23 17.365,22.384 "/>
<rect x="13.741" y="-3.24" transform="matrix(0.7076 -0.7066 0.7066 0.7076 -6.0779 14.6588)" width="1.866" height="35.827"/>
</svg>
