<?xml version="1.0" encoding="UTF-8"?>
<!DOCTYPE svg PUBLIC "-//W3C//DTD SVG 1.1 Tiny//EN" "http://www.w3.org/Graphics/SVG/1.1/DTD/svg11-tiny.dtd">
<svg baseProfile="tiny" height="30px" version="1.1" viewBox="0 0 30 30" width="30px" x="0px" xmlns="http://www.w3.org/2000/svg" xmlns:xlink="http://www.w3.org/1999/xlink" y="0px">
<path d="M3.188,19.199c0.45,0.271,1.477,0.721,2.593,0.721c2.017,0,2.664-1.278,2.646-2.269c-0.018-1.639-1.494-2.341-3.025-2.341  H4.521v-1.188h0.882c1.152,0,2.611-0.595,2.611-1.98c0-0.937-0.594-1.765-2.053-1.765c-0.936,0-1.836,0.414-2.34,0.774L3.188,9.999  c0.63-0.45,1.818-0.9,3.079-0.9c2.305,0,3.349,1.368,3.349,2.791c0,1.224-0.738,2.25-2.161,2.772v0.036  c1.441,0.27,2.594,1.351,2.611,2.989c0,1.872-1.477,3.511-4.268,3.511c-1.314,0-2.467-0.414-3.043-0.792L3.188,19.199z"/>
<path d="M24.707,21v-3.205H19.27v-1.026l5.223-7.472h1.71v7.273h1.639v1.225h-1.639V21H24.707z M24.707,16.57v-3.907  c0-0.611,0.019-1.224,0.055-1.836h-0.055c-0.359,0.684-0.647,1.188-0.972,1.729l-2.862,3.979v0.035H24.707z"/>
<g fill-opacity="0.5" stroke-opacity="0.5">
<rect fill="none" height="30" width="30"/>
</g>
<polygon points="14,23 13,23 16,7 17,7 14,23 "/>
</svg>
