<?xml version="1.0" encoding="UTF-8" standalone="no"?>
<!DOCTYPE svg PUBLIC "-//W3C//DTD SVG 1.1 Tiny//EN" "http://www.w3.org/Graphics/SVG/1.1/DTD/svg11-tiny.dtd">
<svg xmlns="http://www.w3.org/2000/svg" xmlns:xlink="http://www.w3.org/1999/xlink" baseProfile="tiny" height="30px" version="1.1" viewBox="0 0 30 30" width="30px" x="0px" y="0px">
<g fill-opacity="0.5" stroke-opacity="0.5">
<rect fill="none" height="30" width="30"/>
</g>
<polygon points="9.49,8.148 17.801,10.801 19.199,8 13.601,6.601 "/>
<path d="M26.276,13.787c-0.674-1.237-1.272-2.938-1.272-2.938l-1.788-0.328L21.608,9.9l0.913,1.239l0.656-0.291  c0,0,0.804,0.767,0.766,1.021c-0.023,0.18-0.61,0.795-0.967,1.155C24.143,13.082,25.256,13.344,26.276,13.787z"/>
<path d="M11.898,20.631c0-0.656,0.365-1.461,0.365-1.461c0.072-0.948-0.95-3.501-0.95-3.501h-1.058l-0.367-0.806  c-3.43,0.729-3.575-0.146-4.088-1.096c-0.51-0.95,0.075-3.503,0.403-3.906c0.328-0.4,2.885-2.153,2.885-2.153L8.76,7.233  C8.538,6.758,9.964,6.102,9.964,6.102c0.548,0.367,0.912,0,0.912,0l0.146-0.366l-0.146-0.546l1.132-1.405l1.082-0.25  c0.624-0.103,1.259-0.171,1.911-0.171c1.384,0,2.705,0.255,3.936,0.7l-1.136,1.136l1.398,1.401l1.401-1.401l-0.772-0.771  c3.694,1.698,6.348,5.271,6.739,9.499c0.886,0.422,1.694,0.975,2.404,1.637C28.979,15.376,29,15.19,29,15c0-7.733-6.267-14-14-14  S1,7.267,1,15s6.267,14,14,14c0.19,0,0.376-0.021,0.564-0.028c-1.408-1.509-2.334-3.47-2.522-5.644  C12.803,22.758,11.898,21.202,11.898,20.631z M5.199,22l-1.398-4.199l1.986-0.393l1.401,2.801L5.199,22z"/>
<path d="M19.979,13.35c0.332-0.091,0.67-0.163,1.016-0.219l-0.736-0.605l-1.06-0.874l0.656,1.569L19.979,13.35z"/>
<path d="M22.5,15c-4.136,0-7.5,3.364-7.5,7.5s3.364,7.5,7.5,7.5s7.5-3.364,7.5-7.5S26.636,15,22.5,15z M22.5,28  c-3.033,0-5.5-2.468-5.5-5.5s2.467-5.5,5.5-5.5s5.5,2.468,5.5,5.5S25.533,28,22.5,28z"/>
<polygon points="24,21 24,18 21,18 21,21 18,21 18,24 21,24 21,27 24,27 24,24 27,24 27,21 "/>
</svg>
