<?xml version="1.0" encoding="UTF-8"?>
<!DOCTYPE svg PUBLIC "-//W3C//DTD SVG 1.1 Tiny//EN" "http://www.w3.org/Graphics/SVG/1.1/DTD/svg11-tiny.dtd">
<svg baseProfile="tiny" height="30" viewBox="0 0 30 30" width="30" xmlns="http://www.w3.org/2000/svg" xmlns:xlink="http://www.w3.org/1999/xlink">
<rect fill="none" height="30" width="30"/>
<rect height="2" width="2" x="5" y="6"/>
<rect height="2" width="9.941" x="8.059" y="6"/>
<rect height="2" width="2" x="5" y="11"/>
<rect height="2" width="9.941" x="8.059" y="11"/>
<rect height="2" width="2" x="5" y="16"/>
<rect height="2" width="2" x="5" y="21"/>
<path d="M3,26V3h18v12.376C21.791,15.133,22.63,15,23.5,15c0.169,0,0.334,0.016,0.5,0.025V0H0v29h17.031 c-0.74-0.868-1.311-1.884-1.654-3H3z"/>
<path d="M8.059,23h6.967c0.041-0.691,0.154-1.362,0.352-2H8.059V23z"/>
<path d="M18,17.031V16H8.059v2h8.973C17.328,17.651,17.651,17.327,18,17.031z"/>
<path d="M23.5,17c-3.59,0-6.5,2.91-6.5,6.5s2.91,6.5,6.5,6.5s6.5-2.91,6.5-6.5S27.09,17,23.5,17z M28,25h-4h-2v-2v-4h2v4h4V25z"/>
</svg>
