<?xml version="1.0" encoding="UTF-8"?>
<!DOCTYPE svg PUBLIC "-//W3C//DTD SVG 1.1 Tiny//EN" "http://www.w3.org/Graphics/SVG/1.1/DTD/svg11-tiny.dtd">
<svg baseProfile="tiny" height="60" viewBox="0 0 60 60" width="60" xmlns="http://www.w3.org/2000/svg" xmlns:xlink="http://www.w3.org/1999/xlink">
<g>
<linearGradient gradientUnits="userSpaceOnUse" id="SVGID_1_" x1="30" x2="30" y1="4.3896" y2="58.4526">
<stop offset="0" style="stop-color:#F2F2F2"/>
<stop offset="1" style="stop-color:#A8A8A8"/>
</linearGradient>
<path d="M17.365,1c0,0,6.154,1.286,10.782,5.642C14.534,7.592,3.785,18.927,3.785,32.783  C3.785,47.262,15.522,59,30,59c14.477,0,26.215-11.928,26.215-26.217C56.215,18.495,43.11,1,17.365,1z" fill="url(#SVGID_1_)"/>
<linearGradient gradientUnits="userSpaceOnUse" id="SVGID_2_" x1="36.7905" x2="36.7905" y1="5.0522" y2="31.4634">
<stop offset="0" style="stop-color:#FFFFFF"/>
<stop offset="1" style="stop-color:#CDD3D5"/>
</linearGradient>
<path d="M56.149,32.729l0.066,0.055C56.215,18.495,43.11,1,17.365,1C17.365,1,54.065,3.018,56.149,32.729z" fill="url(#SVGID_2_)"/>
<linearGradient gradientUnits="userSpaceOnUse" id="SVGID_3_" x1="30" x2="30" y1="9.0278" y2="57.8288">
<stop offset="0" style="stop-color:#F5F5F5"/>
<stop offset="0.05" style="stop-color:#F5F5F5"/>
<stop offset="0.7818" style="stop-color:#CCCCCC"/>
<stop offset="1" style="stop-color:#D1D1D1"/>
</linearGradient>
<path d="M54.524,33.182c0,13.545-10.98,24.525-24.523,24.525c-13.545,0-24.524-10.98-24.524-24.525  C5.477,19.64,16.456,8.659,30,8.659C43.543,8.659,54.524,19.64,54.524,33.182z" fill="url(#SVGID_3_)"/>
<linearGradient gradientUnits="userSpaceOnUse" id="SVGID_4_" x1="29.9985" x2="29.9985" y1="24.8247" y2="40.683">
<stop offset="0" style="stop-color:#FF7236"/>
<stop offset="1" style="stop-color:#D11414"/>
</linearGradient>
<path d="M40.383,24.825c-4.26,0-7.725,3.465-7.725,7.72c0,1.766,0.602,3.385,1.598,4.686h-8.513  c0.998-1.301,1.598-2.92,1.598-4.686c0-4.255-3.465-7.72-7.724-7.72c-4.26,0-7.726,3.465-7.726,7.72  c0,4.262,3.466,7.727,7.726,7.727h20.766c4.26,0,7.723-3.465,7.723-7.727C48.106,28.29,44.643,24.825,40.383,24.825z M14.933,32.545  c0-2.58,2.101-4.681,4.685-4.681c2.583,0,4.685,2.102,4.685,4.681c0,2.584-2.102,4.686-4.685,4.686  C17.034,37.23,14.933,35.129,14.933,32.545z M40.383,37.23c-2.584,0-4.686-2.102-4.686-4.686c0-2.58,2.102-4.681,4.686-4.681  c2.583,0,4.684,2.102,4.684,4.681C45.067,35.129,42.966,37.23,40.383,37.23z" fill="url(#SVGID_4_)"/>
<rect fill="none" height="60" width="60"/>
</g>
<g transform="matrix(1 0 0 1 30 0)">
<linearGradient gradientUnits="userSpaceOnUse" id="SVGID_1__" x1="10.8037" x2="6.8329" y1="2.2246" y2="17.5564">
<stop offset="0" style="stop-color:#FFA959"/>
<stop offset="0.703" style="stop-color:#CA3522"/>
<stop offset="1" style="stop-color:#F08849"/>
</linearGradient>
<polygon fill="url(#SVGID_1__)" points="2.449,16.623 6.56,1.28 15.083,3.564 10.971,18.906 "/>
<linearGradient gradientUnits="userSpaceOnUse" id="SVGID_2__" x1="10.5269" x2="6.9976" y1="3.2676" y2="16.9434">
<stop offset="0" style="stop-color:#FF7236"/>
<stop offset="0.7939" style="stop-color:#BA1212"/>
<stop offset="1" style="stop-color:#E8522A"/>
</linearGradient>
<polygon fill="url(#SVGID_2__)" points="10.347,17.824 3.529,15.998 7.183,2.361 14.001,4.188 "/>
<linearGradient gradientUnits="userSpaceOnUse" id="SVGID_3__" x1="25.3379" x2="11.7716" y1="11.7349" y2="25.632">
<stop offset="0" style="stop-color:#FFA959"/>
<stop offset="0.703" style="stop-color:#CA3522"/>
<stop offset="1" style="stop-color:#F08849"/>
</linearGradient>
<polygon fill="url(#SVGID_3__)" points="8.636,22.363 22.361,8.636 28.6,14.875 14.875,28.601 "/>
<linearGradient gradientUnits="userSpaceOnUse" id="SVGID_4__" x1="24.8652" x2="12.5126" y1="12.3154" y2="24.7784">
<stop offset="0" style="stop-color:#FF7236"/>
<stop offset="0.7939" style="stop-color:#BA1212"/>
<stop offset="1" style="stop-color:#E8522A"/>
</linearGradient>
<polygon fill="url(#SVGID_4__)" points="14.875,27.353 9.883,22.363 22.361,9.884 27.354,14.875 "/>
<rect fill="none" height="30" width="30"/>
</g>
</svg>
