<?xml version="1.0" encoding="UTF-8"?>
<!DOCTYPE svg PUBLIC "-//W3C//DTD SVG 1.1 Tiny//EN" "http://www.w3.org/Graphics/SVG/1.1/DTD/svg11-tiny.dtd">
<svg baseProfile="tiny" height="30" viewBox="0 0 30 30" width="30" xmlns="http://www.w3.org/2000/svg" xmlns:xlink="http://www.w3.org/1999/xlink">
<rect fill="none" height="30" width="30"/>
<path d="M15.001,27.188c-6.721,0-12.188-5.467-12.188-12.187 c0-6.721,5.467-12.188,12.188-12.188c6.72,0,12.187,5.467,12.187,12.188C27.188,21.721,21.721,27.188,15.001,27.188L15.001,27.188z" fill-opacity="0.6" stroke-opacity="0.6"/>
<radialGradient cx="14.83" cy="11" gradientUnits="userSpaceOnUse" id="SVGID_1" r="13.9">
<stop offset="0" stop-color="#94FFFF"/>
<stop offset="0.5" stop-color="#36B5FF"/>
<stop offset="1" stop-color="#1B66D8"/>
</radialGradient>
<circle cx="15" cy="15.001" fill="url(#SVGID_1)" r="11.25"/>
<linearGradient gradientUnits="userSpaceOnUse" id="SVGID_2" x1="3.75" x2="6.33" y1="16.28" y2="16.28">
<stop offset="0" stop-color="#58595B"/>
<stop offset="1" stop-color="#000000"/>
</linearGradient>
<path d="M4.318,18.518l2.013-1.711v-1.326L5.2,14.35 l-0.207-0.219l-0.312-0.044c0,0-0.266-0.037-0.385-0.037l-0.499,0.003c-0.026,0.313-0.048,0.628-0.048,0.948 C3.75,16.23,3.955,17.409,4.318,18.518z" fill="url(#SVGID_2)" fill-opacity="0.3" stroke-opacity="0.3"/>
<linearGradient gradientUnits="userSpaceOnUse" id="SVGID_3" x1="6.77" x2="26.1" y1="13.53" y2="13.53">
<stop offset="0" stop-color="#58595B"/>
<stop offset="1" stop-color="#000000"/>
</linearGradient>
<path d="M18.123,4.199C18.063,4.235,18,4.271,17.939,4.304 c-0.102-0.013-0.229-0.028-0.364-0.045l0.017-0.198c-0.037-0.008-1.751-0.311-2.591-0.311c-2.647,0-5.077,0.92-6.999,2.452 l1.206,0.401C9.37,6.658,9.542,6.686,9.72,6.686c0.506,0,0.946-0.223,1.266-0.387c0.045-0.021,0.088-0.045,0.127-0.064 c0.061,0.007,0.122,0.011,0.184,0.011c-0.076,0.155-0.134,0.299-0.161,0.456c-0.244,0.001-0.732,0.034-1.607,1.186L9.092,8.461 l0.213,0.273c-1.978,1.538-1.993,1.63-2.043,1.939l-0.047,0.15c-0.399,1.244-0.579,2.083-0.32,2.683 c0.467,1.073,1.047,2.222,2.026,2.302c0.069,0.006,0.146,0.009,0.229,0.009c0.463,0,1.111-0.099,1.604-0.188 c0.015,0.028,0.298,0.541,0.298,0.541l0.672-0.02c0.197,0.637,0.432,1.508,0.457,1.883c-0.819,1.457,0.241,3.164,0.702,3.909 l0.06,0.099c0.142,0.398,0.484,1.17,1.386,1.17c0,0,0.89,0.102,1.055,0.102c0.491,0,0.918-0.174,1.272-0.513 c0.328-0.094,0.531-0.288,0.646-0.508c0.094-0.087,0.209-0.196,0.314-0.331c0.01-0.006,0.384-0.116,0.384-0.116l0.259-0.319 c0.024-0.03,0.035-0.062,0.057-0.092c0.031,0.051,0.051,0.104,0.094,0.152c0.226,0.26,0.545,0.403,0.897,0.403 c0.1,0,0.204-0.013,0.306-0.034c0.869-0.197,1.984-1.789,2.087-2.721c0.067-0.609-0.212-1.138-0.725-1.381l-0.597-0.28l-0.578,0.579 c-0.043-0.514-0.01-0.69,0.147-0.801c0,0,0.465-0.411,0.642-0.553c0.484-0.389,1.086-0.873,1.453-1.77 c0.094-0.24,0.269-0.692,0.13-1.146l0.908-0.872c0.97,2.266,1.224,2.648,1.909,2.66l0.596-0.015l0.281-0.338 c0.139-0.166,0.285-0.453,0.209-0.882c-0.011-0.189,0-0.747,0.018-1.239C25.395,8.882,22.252,5.391,18.123,4.199z" fill="url(#SVGID_3)" fill-opacity="0.3" stroke-opacity="0.3"/>
<radialGradient cx="14.88" cy="11.02" gradientUnits="userSpaceOnUse" id="SVGID_4" r="10.52">
<stop offset="0" stop-color="#7AF200"/>
<stop offset="0.32" stop-color="#7AF200"/>
<stop offset="1" stop-color="#1CAD0F"/>
</radialGradient>
<path d="M4.262,14.994L4.262,14.994c0,0.005,0.001,0.007,0.001,0.01c0,0.334,0.021,0.666,0.05,0.994 c0.01,0.106,0.025,0.215,0.038,0.322c0.028,0.224,0.062,0.447,0.102,0.666c0.022,0.117,0.044,0.234,0.068,0.35 c0.051,0.227,0.143,0.143,0.143,0.143l0.73-0.982v-0.627l-0.856-0.856C4.539,15.013,4.263,14.97,4.262,14.994z" fill="url(#SVGID_4)"/>
<radialGradient cx="14.88" cy="9.73" gradientUnits="userSpaceOnUse" id="SVGID_5" r="11.72">
<stop offset="0" stop-color="#7AF200"/>
<stop offset="0.32" stop-color="#7AF200"/>
<stop offset="1" stop-color="#1CAD0F"/>
</radialGradient>
<path d="M11.138,5.282c0.316,0.103,0.575-0.108,0.869-0.295c0.104-0.021,1.261-0.482,1.386-0.482 c0.125,0,0.545-0.017,0.649-0.183c0,0,1.809,0.314,2.081,0.21c0.147-0.059,0.771-0.108,1.306-0.143 c-0.029-0.007-0.058-0.016-0.087-0.022c-0.028-0.005-0.058-0.01-0.087-0.016c-0.336-0.067-0.676-0.122-1.021-0.157 c-0.002,0-0.004,0-0.008-0.001c-0.363-0.037-0.731-0.056-1.105-0.056c-0.346,0-0.688,0.02-1.027,0.053 c-0.059,0.006-0.119,0.013-0.178,0.02c-0.328,0.036-0.652,0.083-0.97,0.147c-0.005,0.002-0.012,0.003-0.017,0.003 c-0.332,0.068-0.654,0.153-0.971,0.25c-0.055,0.016-0.107,0.034-0.161,0.051c-0.282,0.09-0.561,0.191-0.833,0.304 c-0.031,0.014-0.064,0.025-0.096,0.039c-0.3,0.128-0.593,0.27-0.878,0.423C9.944,5.448,9.903,5.473,9.861,5.498 C9.738,5.565,9.624,5.641,9.504,5.713C10.093,5.91,10.827,5.176,11.138,5.282z" fill="url(#SVGID_5)"/>
<path d="M21.547,10.445l0.615,0.263c0,0,0.113,0.102,0.426,0.425c0.254-0.021,0.723,0.283,0.953,0.577 c0.047,0.059,1.232,3.022,1.466,3.026c0.103,0,0.509-0.616,0.568-1.376c0.036-0.458-0.244-1.399-0.255-1.431 c-0.966-3.241-3.412-5.841-6.557-7.018c-0.234,0.138-0.637,0.365-0.637,0.365s-2.769-0.378-2.957-0.189 c-0.189,0.189-0.927,0.382-1.096,0.405c-0.167,0.021-0.515,0.111-0.098,0.625c-0.063,0.064-1.253,0.893-1.253,0.516 c0-0.378,0.266-1.052-0.107-0.691c-0.269,0.26-0.429,0.611-0.463,0.678c-0.088,0.169-0.141,0.25-0.079,0.731 c0.065,0.481-0.767,0.478-0.824,0.354c-0.149-0.336-0.974,0.751-0.974,0.751L10.623,8.9c0,0-2.43,1.873-2.451,1.998 c-0.021,0.126-0.626,1.751-0.417,2.235c0.211,0.484,0.742,1.701,1.243,1.742c0.657,0.054,2.255-0.301,2.255-0.301 c0.043,0.106,0.343,0.642,0.343,0.642s0.783-0.025,0.827,0.059c0.015,0.028,0.943,2.758,0.637,3.122 c-0.73,1.096,0.418,2.7,0.738,3.242c0.32,0.934,0.527,0.516,0.948,0.669c0.519,0.046,0.955,0.236,1.396-0.329 c0.127-0.105,0.344-0.022,0.344-0.17c0-0.082,0.375-0.322,0.473-0.548c0.102-0.048,0.363-0.224,0.541-0.309 c0.16-0.011-0.153-0.441,0.166-0.897c0.344-0.137,1.273-0.763,1.273-0.763c0.042-0.918-0.451-2.054,0.471-2.706 c0.596-0.605,1.375-0.95,1.753-1.873c0.104-0.272,0.337-0.831-0.333-0.664c-0.631,0.16-1.336,0.195-1.002-0.083 c-0.039-0.341-0.459-0.501-0.836-0.836c-0.194-0.459-0.501-1.281-0.501-1.281l-0.669-1.016l1.12-0.257l0.454,0.762l0.879,0.923 c0.293,0.96,0.461,1.27,0.461,1.27c0.439-0.155,0.784-0.318,0.784-0.318l1.022-0.981c0,0-0.105-0.313-0.521-0.709l-0.746,0.076 l-0.883-1.057l0.329-0.066L21.547,10.445z M15.33,5.672c0.083-0.249,0.564-0.332,0.564-0.332s0.305,0.276,0.336,0.408 c0.032,0.132-0.381,0.356-0.41,0.668c-0.027,0.312-0.883-0.032-0.93-0.141C14.843,6.165,15.245,5.918,15.33,5.672z M17.39,9.875 c-0.356,0-2.39,0.731-2.39,0.731l-1.495-1.148l-1.629,0.426l-0.762-0.391l-0.484-0.444l0.956-0.328c0,0,0.771-0.634,1-0.822 c0.196-0.16,0.976-0.069,0.976-0.069l0.625-0.209l1.418,0.056l-0.529,0.566l0.745,0.508l0.345-0.309 c0.111,0.264,1.225,0.821,1.225,0.821S17.85,9.205,18.073,9.4C18.043,10.266,17.537,9.917,17.39,9.875z M18.203,8.477L16.436,7.5 l0.186-0.507l0.996,0.234l1.133-0.02L18.203,8.477z M19.473,8.594c0,0-0.16-0.546,0.425-0.844c0.723-0.091,0.923,0.395,0.923,0.395 l0.938,0.938l-0.254,0.605L19.473,8.594z" fill="url(#SVGID_5)"/>
<path d="M20.577,18.703l-0.696,0.695c0,0-0.42,0-0.439,0.168c-0.01,0.071-0.033,0.382-0.104,0.542 c-0.139,0.098-0.307,0.417-0.307,0.417s-0.086,0.62,0.377,0.516C19.869,20.936,21.291,19.039,20.577,18.703z" fill="url(#SVGID_5)"/>
</svg>
