<?xml version="1.0" encoding="UTF-8"?>
<!DOCTYPE svg PUBLIC "-//W3C//DTD SVG 1.1 Tiny//EN" "http://www.w3.org/Graphics/SVG/1.1/DTD/svg11-tiny.dtd">
<svg baseProfile="tiny" height="52px" version="1.1" viewBox="0 0 52 52" width="52px" x="0px" xmlns="http://www.w3.org/2000/svg" xmlns:xlink="http://www.w3.org/1999/xlink" y="0px">
<rect fill="none" height="52" width="52"/>
<path d="M11.734,6.369c-0.025,0.018-0.051,0.039-0.076,0.057l3.355,4.619  c0.023-0.018,0.053-0.038,0.078-0.057c8.279-6.014,19.906-4.172,25.922,4.105c6.016,8.279,4.172,19.905-4.107,25.92  c-8.176,5.939-19.617,4.221-25.695-3.799L6.59,40.57c7.93,10.566,22.949,12.854,33.674,5.063  c10.824-7.864,13.234-23.071,5.369-33.897C37.768,0.911,22.561-1.496,11.734,6.369z" fill="url(#SVGID_1_)"/>
<defs>
<linearGradient gradientTransform="matrix(0.809 -0.5878 0.5878 0.809 -809.3743 -387.0681)" gradientUnits="userSpaceOnUse" id="SVGID_1_" x1="434.7861" x2="428.8017" y1="834.7246" y2="802.5044">
<stop offset="0" style="stop-color:#0067B1"/>
<stop offset="1" style="stop-color:#0069B1;stop-opacity:0.25"/>
</linearGradient>
</defs>
</svg>
