<?xml version="1.0" encoding="UTF-8"?>
<!DOCTYPE svg PUBLIC "-//W3C//DTD SVG 1.1 Tiny//EN" "http://www.w3.org/Graphics/SVG/1.1/DTD/svg11-tiny.dtd">
<svg baseProfile="tiny" height="31px" version="1.1" viewBox="-0.144 -0.857 31 31" width="31px" x="0px" xmlns="http://www.w3.org/2000/svg" xmlns:xlink="http://www.w3.org/1999/xlink" y="0px">
<path d="M16.243,11.011v-3.7h-3.696v2.695h-1.234V7.311H7.614v3.7h2.696L10.3,12.256l-2.7,0.016l0.015,3.672l3.674-0.014  l0.008-2.683h1.251v2.696h3.697v-3.7h-2.697v-1.232H16.243z M12.561,12.243h-0.014v0.018h-1.251v-1.25h0.017v-0.014h1.234v0.014  h0.014V12.243z"/>
<polygon points="11.942,2.976 17.837,8.853 18.528,8.16 11.904,1.516 5.279,8.142 6.046,8.89 "/>
<polygon points="24.721,22.242 6.685,22.243 10.585,28.483 12.499,27.29 10.759,24.503 10.772,24.503 10.77,24.503 24.721,24.503   "/>
<polygon points="20.821,13.606 18.908,14.804 20.64,17.588 6.685,17.59 6.685,19.848 24.721,19.846 "/>
<polygon points="10.556,28.477 12.474,27.279 10.739,24.49 13.57,24.49 16.057,28.477 17.97,27.279 16.238,24.49 24.694,24.49   24.694,22.232 6.659,22.232 "/>
<rect fill="none" height="30" width="30"/>
<rect fill="none" height="30" width="30"/>
</svg>
