<?xml version="1.0" encoding="UTF-8"?>
<!DOCTYPE svg PUBLIC "-//W3C//DTD SVG 1.1 Tiny//EN" "http://www.w3.org/Graphics/SVG/1.1/DTD/svg11-tiny.dtd">
<svg baseProfile="tiny" height="30px" version="1.1" viewBox="0 0 30 30" width="30px" x="0px" xmlns="http://www.w3.org/2000/svg" xmlns:xlink="http://www.w3.org/1999/xlink" y="0px">
<rect fill="none" height="30" width="30"/>
<path d="M20.492,28.605l0.003-0.503c0-0.041,0.021-4.084-0.545-5.75c-0.615-1.811-1.843-3.617-1.855-3.635l-0.296-0.433l2.297-1.416  l0.222,0.55c0.269,0.666,0.8,1.44,1.083,1.44c0.135,0,0.189-0.042,0.229-0.088c0.187-0.214,0.206-0.769,0.161-1.094l-0.079-0.569  l2.354-0.001l-0.069,0.563c-0.032,0.257-0.03,0.864,0.179,1.1c0.04,0.046,0.095,0.088,0.227,0.088c0.051,0,0.078-0.012,0.111-0.047  c0.19-0.204,0.244-0.817,0.22-1.168l-0.036-0.534l2.197-0.001l0.016,0.484c0.002,0.077,0.052,1.905-0.696,3.004  c-0.429,0.633-1.071,0.98-1.81,0.98l0,0c-0.453,0-0.923-0.136-1.337-0.382c-0.261,0.183-0.558,0.277-0.825,0.324  c0.147,0.433,0.344,1.08,0.546,1.961c0.41,1.773,0.277,4.534,0.271,4.651l-0.023,0.475H20.492z M11.643,28.605l0.012-0.512  c0.001-0.042,0.093-4.261-0.264-5.77c-0.441-1.862-2.071-3.623-2.087-3.641l-0.445-0.477l2.338-1.245l0.256,0.352  c0.011,0.016,1.159,1.564,2.507,1.564c0.834,0,1.143-0.755,1.245-1.13l0.168-0.641h2.405l-0.061,0.555  c-0.014,0.121-0.35,2.985-2.417,3.693c-0.46,0.158-0.91,0.238-1.335,0.238c-0.044,0-0.086-0.001-0.128-0.003  c0.063,0.241,0.133,0.539,0.208,0.908c0.284,1.422,0.18,5.449,0.176,5.62l-0.013,0.486H11.643z M4.829,28.605l0.011-0.511  c0.001-0.035,0.072-3.512-0.107-5.395c-0.172-1.794-1.55-3.974-1.564-3.996l-0.276-0.434l2.244-1.345l0.26,0.418  c0.064,0.103,1.574,2.554,1.859,5.125c0.277,2.494,0.155,5.529,0.149,5.657l-0.02,0.479H4.829z"/>
<g>
<path d="M7.378,2.618c-0.785-0.17-1.478-0.255-2.077-0.255c-0.522,0-0.93,0.117-1.225,0.353C3.783,2.95,3.635,3.276,3.635,3.695   c0,0.357,0.112,0.67,0.337,0.942C4.197,4.908,4.7,5.245,5.48,5.648c0.925,0.496,1.57,1.009,1.937,1.538   c0.367,0.53,0.55,1.161,0.55,1.895c0,1.173-0.367,2.06-1.1,2.662c-0.734,0.602-1.801,0.903-3.201,0.903   c-0.91,0-1.798-0.106-2.666-0.318v-1.565c0.977,0.243,1.808,0.364,2.496,0.364c0.604,0,1.066-0.133,1.387-0.399   s0.48-0.642,0.48-1.128c0-0.305-0.059-0.561-0.178-0.767C5.066,8.626,4.884,8.43,4.639,8.244c-0.246-0.186-0.707-0.47-1.383-0.853   c-0.827-0.46-1.407-0.951-1.74-1.472c-0.333-0.522-0.5-1.142-0.5-1.86c0-1.018,0.35-1.808,1.05-2.371   c0.7-0.563,1.663-0.845,2.887-0.845c0.812,0,1.62,0.078,2.426,0.232V2.618z"/>
<path d="M15.732,3.408l-2.635,9.129c-0.258,0.888-0.645,1.547-1.159,1.976c-0.514,0.43-1.197,0.643-2.05,0.643   c-0.568,0-1.139-0.064-1.712-0.193v-1.441c0.48,0.119,0.945,0.178,1.395,0.178c0.418,0,0.737-0.089,0.957-0.267   c0.219-0.178,0.404-0.482,0.554-0.911h-1.062L7.495,3.408h2.666l1.62,6.672l1.712-6.672H15.732z"/>
<path d="M18.321,4.78c0.677-0.997,1.597-1.496,2.759-1.496c1.199,0,2.02,0.398,2.465,1.193c0.641-0.795,1.496-1.193,2.564-1.193   C28.037,3.284,29,4.279,29,6.268v6.254h-2.557V6.376c0-0.651-0.088-1.086-0.264-1.306c-0.176-0.22-0.438-0.33-0.783-0.33   c-0.465,0-0.816,0.2-1.053,0.601c-0.238,0.4-0.357,0.967-0.357,1.701v5.479h-2.572V6.376c0-0.61-0.088-1.035-0.264-1.275   s-0.441-0.36-0.799-0.36c-0.459,0-0.809,0.198-1.043,0.593c-0.235,0.396-0.352,0.965-0.352,1.709v5.479h-2.559V3.408h1.543   L18.321,4.78z"/>
</g>
</svg>
