<?xml version="1.0" encoding="UTF-8"?>
<!DOCTYPE svg PUBLIC "-//W3C//DTD SVG 1.1 Tiny//EN" "http://www.w3.org/Graphics/SVG/1.1/DTD/svg11-tiny.dtd">
<svg baseProfile="tiny" height="15px" version="1.1" viewBox="0 0 15 15" width="15px" x="0px" xmlns="http://www.w3.org/2000/svg" xmlns:xlink="http://www.w3.org/1999/xlink" y="0px">
<g>
<path d="M11.002,6.024C5.699,6.028,3.458,4.258,1.74,1.627   C1.26,0.892,1.129,0.276,0.816,0.073C0.352-0.228-0.029,0.46,0.002,1.069v0.113V15H15V6.024H11.002z" fill="#14141E" fill-opacity="0.1" fill-rule="evenodd" stroke-opacity="0.1"/>
<path d="M10,7.01c-5,0-8.203-2.824-9.545-5.716   C0.161,0.661,0,1.294,0,1.294V15h15V7.01H10z" fill="url(#SVGID_1_)" fill-rule="evenodd"/>
<path d="M10,7.01c-5,0-8.203-2.824-9.545-5.716   C0.161,0.661,0,1.296,0,1.296V15h1V3.982C2.843,6.187,5.843,8.01,10,8.01h5v-1H10z" fill-opacity="0.2" fill-rule="evenodd" stroke-opacity="0.2"/>
<path d="M10,8.01c-4.157,0-7.157-1.823-9-4.027V15h1V6.345   c2.19,1.731,4.956,2.664,8,2.664h5V8.01H10z" fill="#FFFFFF" fill-opacity="0.2" fill-rule="evenodd" stroke-opacity="0.2"/>
<rect fill="none" height="15" width="15"/>
<defs>
<linearGradient gradientUnits="userSpaceOnUse" id="SVGID_1_" x1="7.7827" x2="7.4292" y1="53.6924" y2="0.3682">
<stop offset="0" style="stop-color:#65B8CC"/>
<stop offset="1" style="stop-color:#306D8C"/>
</linearGradient>
</defs>
</g>
</svg>
