<?xml version="1.0" encoding="UTF-8"?>
<!DOCTYPE svg PUBLIC "-//W3C//DTD SVG 1.1 Tiny//EN" "http://www.w3.org/Graphics/SVG/1.1/DTD/svg11-tiny.dtd">
<svg baseProfile="tiny" height="30" viewBox="0 0 30 30" width="30" xmlns="http://www.w3.org/2000/svg" xmlns:xlink="http://www.w3.org/1999/xlink">
<rect fill="none" height="30" width="30"/>
<path d="M15.001,27.354c-6.813,0-12.354-5.542-12.354-12.354 c0-6.813,5.541-12.354,12.354-12.354c6.812,0,12.354,5.541,12.354,12.354C27.354,21.813,21.813,27.354,15.001,27.354L15.001,27.354z " fill-opacity="0.6" stroke-opacity="0.6"/>
<linearGradient gradientUnits="userSpaceOnUse" id="SVGID_1" x1="15" x2="15" y1="3.77" y2="30.01">
<stop offset="0" stop-color="#4EDEFF"/>
<stop offset="1" stop-color="#048CC6"/>
</linearGradient>
<circle cx="15.001" cy="15.001" fill="url(#SVGID_1)" r="11.471"/>
<path d="M15.001,4.412c6.187,0,11.216,4.901,11.449,11.03 c0.006-0.148,0.022-0.293,0.022-0.441c0-6.336-5.137-11.471-11.472-11.471C8.665,3.53,3.53,8.665,3.53,15.001 c0,0.148,0.018,0.293,0.022,0.441C3.786,9.313,8.815,4.412,15.001,4.412z" fill="#FFFFFF" fill-opacity="0.4" stroke-opacity="0.4"/>
<path d="M21.196,18.977l1.337,1.15c1.35-1.55,2.174-3.57,2.174-5.788 c0-2.216-0.824-4.236-2.174-5.788l-1.337,1.152c1.085,1.24,1.746,2.859,1.746,4.636C22.942,16.118,22.281,17.736,21.196,18.977z" fill-opacity="0.2" stroke-opacity="0.2"/>
<path d="M10.57,18.977c-1.084-1.24-1.746-2.858-1.746-4.638 c0-1.777,0.662-3.396,1.746-4.636L9.232,8.551c-1.349,1.551-2.173,3.571-2.173,5.788c0,2.218,0.824,4.238,2.173,5.788L10.57,18.977z " fill-opacity="0.2" stroke-opacity="0.2"/>
<path d="M18.515,16.672l1.346,1.156c0.817-0.934,1.317-2.151,1.317-3.489 c0-1.337-0.5-2.555-1.316-3.486l-1.346,1.157c0.553,0.622,0.896,1.432,0.896,2.33C19.412,15.237,19.068,16.049,18.515,16.672z" fill-opacity="0.2" stroke-opacity="0.2"/>
<path d="M13.252,16.672c-0.552-0.623-0.898-1.435-0.898-2.333 c0-0.898,0.347-1.708,0.898-2.33l-1.344-1.157c-0.82,0.932-1.319,2.15-1.319,3.487c0,1.338,0.5,2.556,1.318,3.488L13.252,16.672z" fill-opacity="0.2" stroke-opacity="0.2"/>
<polygon fill-opacity="0.2" points="13.138,24.629 15.902,15.023 18.664,24.629 " stroke-opacity="0.2"/>
<path d="M20.313,18.095l1.338,1.149c1.349-1.549,2.173-3.569,2.173-5.788c0-2.216-0.824-4.236-2.173-5.788 L20.313,8.82c1.085,1.241,1.747,2.859,1.747,4.636C22.061,15.235,21.398,16.854,20.313,18.095z" fill="#FFFFFF"/>
<path d="M9.688,18.095c-1.084-1.241-1.747-2.859-1.747-4.638c0-1.777,0.662-3.396,1.747-4.636L8.35,7.669 C7.001,9.22,6.177,11.24,6.177,13.457c0,2.218,0.824,4.239,2.173,5.788L9.688,18.095z" fill="#FFFFFF"/>
<path d="M17.633,15.789l1.345,1.156c0.818-0.934,1.317-2.151,1.317-3.489s-0.499-2.555-1.316-3.486 l-1.346,1.157c0.553,0.621,0.897,1.431,0.897,2.33S18.186,15.167,17.633,15.789z" fill="#FFFFFF"/>
<path d="M12.37,15.789c-0.552-0.623-0.898-1.434-0.898-2.333s0.347-1.708,0.898-2.331l-1.344-1.157 c-0.819,0.932-1.319,2.15-1.319,3.487c0,1.338,0.5,2.555,1.318,3.489L12.37,15.789z" fill="#FFFFFF"/>
<polygon fill="#FFFFFF" points="12.256,23.747 15.02,14.141 17.782,23.747 "/>
<rect fill-opacity="0.6" height="34.268" stroke-opacity="0.6" transform="matrix(0.7073 -0.707 0.707 0.7073 -6.2126 14.9968)" width="3.169" x="13.418" y="-2.134"/>
<linearGradient gradientUnits="userSpaceOnUse" id="SVGID_1_" x1="15" x2="15" y1="2.23" y2="26.93">
<stop offset="0" stop-color="#DE8029"/>
<stop offset="0.26" stop-color="#DE4E29"/>
<stop offset="1" stop-color="#D82E09"/>
</linearGradient>
<polygon fill="url(#SVGID_1_)" points="25.996,26.987 3.015,4.005 4.006,3.014 26.987,25.996 "/>
<rect fill="none" height="30.002" width="30.002"/>
</svg>
