<?xml version="1.0" encoding="utf-8"?>
<!-- Generator: Adobe Illustrator 14.0.0, SVG Export Plug-In  -->
<!DOCTYPE svg PUBLIC "-//W3C//DTD SVG 1.1//EN" "http://www.w3.org/Graphics/SVG/1.1/DTD/svg11.dtd" [
	<!ENTITY ns_flows "http://ns.adobe.com/Flows/1.0/">
]>
<svg version="1.1"
	 xmlns="http://www.w3.org/2000/svg" xmlns:xlink="http://www.w3.org/1999/xlink" xmlns:a="http://ns.adobe.com/AdobeSVGViewerExtensions/3.0/"
	 x="0px" y="0px" width="30px" height="30px" viewBox="0 0 30 30" enable-background="new 0 0 30 30" xml:space="preserve">
<defs>
</defs>
<g opacity="0.5">
	<rect fill="none" width="30" height="30"/>
</g>
<path d="M24.155,14.925c-0.009-0.146,0-0.75,0.003-0.896c0.947-0.685,1.361-1.57,1.861-2.618c0.926-1.938,0.587-6.022,0.587-6.022
	C26.606,3.367,24.183,1,22.269,1h-1.214c-1.253,0-2.89,1.015-3.874,2.282c2.34,0.791,4.678,3.135,4.758,5.621
	c0.108,0.996,0.446,4.888-0.639,7.017c-0.438,0.86-0.994,1.603-1.683,2.243c0.582,0.637,2.014,1.676,4.27,3.099
	c1.084,0.683,1.411,0.889,1.707,1.28L26,23.078V25h4v-5.72C30,19.28,24.273,16.909,24.155,14.925z"/>
<path d="M4,23.073l0.407-0.536c0.296-0.391,0.622-0.597,1.704-1.277c2.242-1.411,3.67-2.445,4.261-3.083
	c-0.731-0.662-1.288-1.417-1.714-2.314c-1.002-2.12-0.705-5.979-0.611-6.944c0.071-2.494,2.42-4.848,4.768-5.638
	C11.827,2.014,10.188,1,8.936,1H7.722C5.807,1,3.38,3.367,3.38,5.388c0,0-0.29,4.066,0.575,6.022
	c0.475,1.067,0.918,1.963,1.889,2.645c0.003,0.14,0.012,0.733,0.004,0.87C5.729,16.909,0,19.276,0,19.276V25h4V23.073z"/>
<path d="M17.916,19.221L15,25.816l-2.915-6.596C10.631,21.049,6.253,23.413,6,23.746V29h18v-5.25
	C23.747,23.416,19.369,21.05,17.916,19.221z"/>
<path d="M12.557,17.34c0.003,0.128,0.01,0.794,0.002,0.921c-0.006,0.087-0.036,0.179-0.068,0.271h5.021
	c-0.031-0.093-0.062-0.185-0.067-0.271c-0.009-0.135-0.001-0.784,0.001-0.921c0.931-0.628,1.583-1.365,2.073-2.328
	c0.908-1.782,0.423-5.978,0.423-5.978c0-1.858-2.47-4.034-4.35-4.034h-1.191c-1.88,0-4.354,2.176-4.354,4.034
	c0,0-0.431,4.175,0.419,5.972C10.932,15.988,11.604,16.714,12.557,17.34z"/>
</svg>
