<?xml version="1.0" encoding="UTF-8"?>
<!DOCTYPE svg PUBLIC "-//W3C//DTD SVG 1.1 Tiny//EN" "http://www.w3.org/Graphics/SVG/1.1/DTD/svg11-tiny.dtd">
<svg baseProfile="tiny" height="30" viewBox="0 0 30 30" width="30" xmlns="http://www.w3.org/2000/svg" xmlns:xlink="http://www.w3.org/1999/xlink">
<g>
<polygon fill-opacity="0.6" points="3,29 3,1 27,1 27,22.414 20.414,29 " stroke-opacity="0.6"/>
<linearGradient gradientTransform="matrix(1 0 0 -1 214.52 -8.0195)" gradientUnits="userSpaceOnUse" id="SVGID_1_" x1="-199.52" x2="-199.52" y1="-10.0195" y2="-36.0195">
<stop offset="0" style="stop-color:#F9F9F9"/>
<stop offset="1" style="stop-color:#B5B5B5"/>
</linearGradient>
<polygon fill="url(#SVGID_1_)" points="4,2 4,28 20,28 26,22 26,2 "/>
<linearGradient gradientTransform="matrix(1 0 0 -1 214.52 -8.0195)" gradientUnits="userSpaceOnUse" id="SVGID_2_" x1="-194.6021" x2="-191.5005" y1="-29.936" y2="-33.0376">
<stop offset="0" style="stop-color:#F9F9F9"/>
<stop offset="1" style="stop-color:#DCDCDC"/>
</linearGradient>
<polygon fill="url(#SVGID_2_)" points="26,22 20,22 20,28 "/>
<linearGradient gradientTransform="matrix(1 0 0 -1 214.52 -8.0195)" gradientUnits="userSpaceOnUse" id="SVGID_3_" x1="-199.52" x2="-199.52" y1="-5.646" y2="-15.0209">
<stop offset="0" style="stop-color:#4EDEFF"/>
<stop offset="1" style="stop-color:#048CC6"/>
</linearGradient>
<rect fill="url(#SVGID_3_)" height="5.393" width="22" x="4" y="2"/>
<rect fill="#FFFFFF" fill-opacity="0.4" height="1" stroke-opacity="0.4" width="22" x="4" y="2"/>
<linearGradient gradientTransform="matrix(1 0 0 -1 214.52 -8.0195)" gradientUnits="userSpaceOnUse" id="SVGID_4_" x1="-207.52" x2="-207.52" y1="-19.0195" y2="-28.0879">
<stop offset="0" style="stop-color:#646464"/>
<stop offset="1" style="stop-color:#3C3C3C"/>
</linearGradient>
<polygon fill="url(#SVGID_4_)" points="9,18.502 6.332,15.5 9,12.498 9,11 5,15.5 9,20 "/>
<linearGradient gradientTransform="matrix(1 0 0 -1 214.52 -8.0195)" gradientUnits="userSpaceOnUse" id="SVGID_5_" x1="-191.52" x2="-191.52" y1="-19.0195" y2="-28.0879">
<stop offset="0" style="stop-color:#646464"/>
<stop offset="1" style="stop-color:#3C3C3C"/>
</linearGradient>
<polygon fill="url(#SVGID_5_)" points="21,18.502 23.668,15.5 21,12.498 21,11 25,15.5 21,20 "/>
<rect fill="none" height="30" width="30"/>
<linearGradient gradientUnits="userSpaceOnUse" id="SVGID_6_" x1="11.6978" x2="11.6978" y1="19.5166" y2="14.9374">
<stop offset="0" style="stop-color:#646464"/>
<stop offset="1" style="stop-color:#3C3C3C"/>
</linearGradient>
<rect fill="url(#SVGID_6_)" height="1.049" width="1.049" x="11.173" y="14.919"/>
<linearGradient gradientUnits="userSpaceOnUse" id="SVGID_7_" x1="14.9888" x2="14.9888" y1="19.5166" y2="14.9374">
<stop offset="0" style="stop-color:#646464"/>
<stop offset="1" style="stop-color:#3C3C3C"/>
</linearGradient>
<rect fill="url(#SVGID_7_)" height="1.049" width="1.049" x="14.464" y="14.919"/>
<linearGradient gradientUnits="userSpaceOnUse" id="SVGID_8_" x1="18.2793" x2="18.2793" y1="19.5166" y2="14.9374">
<stop offset="0" style="stop-color:#646464"/>
<stop offset="1" style="stop-color:#3C3C3C"/>
</linearGradient>
<rect fill="url(#SVGID_8_)" height="1.049" width="1.05" x="17.754" y="14.919"/>
</g>
</svg>
