<?xml version="1.0" encoding="UTF-8"?>
<!DOCTYPE svg PUBLIC "-//W3C//DTD SVG 1.1 Tiny//EN" "http://www.w3.org/Graphics/SVG/1.1/DTD/svg11-tiny.dtd">
<svg baseProfile="tiny" height="30px" version="1.1" viewBox="0 0 30 30" width="30px" x="0px" xmlns="http://www.w3.org/2000/svg" xmlns:xlink="http://www.w3.org/1999/xlink" y="0px">
<g fill-opacity="0.5" stroke-opacity="0.5">
<rect fill="none" height="30" width="30"/>
</g>
<polyline points="1,29,9,7,17,29,1,29"/>
<polygon points="22.36,7.977,23,6.391,23.63,7.977,25.68,7.977,23,1,20.31,7.977"/>
<polygon points="20.36,12.98,21.56,9.977,19.54,9.977,18.39,12.98"/>
<polygon points="27.61,12.98,26.45,9.977,24.43,9.977,25.63,12.98"/>
<path d="M27,16.4c0,0.002-0.002,0.006-0.002,0.008h-0.002c-0.002,0.758-0.227,1.461-0.596,2.066l1.447,1.445c0.682-0.934,1.102-2.072,1.146-3.303v-0.02l-0.621-1.615h-1.95l0.566,1.416z"/>
<path d="M19.59,18.47c-0.369-0.605-0.593-1.307-0.595-2.064h-0.002l0.002-0.002c0-0.002-0.002-0.006-0.002-0.008l0.566-1.416h-1.95l-0.62,1.61c0.04,1.24,0.461,2.385,1.146,3.324l1.44-1.44z"/>
<path d="M23,20.4c-0.719,0-1.384-0.205-1.967-0.537l-1.455,1.457c0.972,0.68,2.15,1.082,3.422,1.082s2.449-0.402,3.42-1.082l-1.455-1.455c-0.58,0.34-1.24,0.54-1.96,0.54z"/>
</svg>
