<?xml version="1.0" encoding="UTF-8"?>
<!DOCTYPE svg PUBLIC "-//W3C//DTD SVG 1.1 Tiny//EN" "http://www.w3.org/Graphics/SVG/1.1/DTD/svg11-tiny.dtd">
<svg baseProfile="tiny" height="30" viewBox="0 0 30 30" width="30" xmlns="http://www.w3.org/2000/svg" xmlns:xlink="http://www.w3.org/1999/xlink">
<rect fill="none" height="30" width="30"/>
<polygon fill-opacity="0.6" points="5,20 5,1 20.414,1 27,7.586 27,20 "/>
<linearGradient gradientUnits="userSpaceOnUse" id="SVGID_1" x1="16" x2="16" y1="1.95" y2="18.95">
<stop offset="0" stop-color="#EDEDED"/>
<stop offset="1" stop-color="#BDBDBD"/>
</linearGradient>
<polygon fill="url(#SVGID_1)" points="26,8 26,19 6,19 6,2 20,2 "/>
<rect height="1.5" width="2" x="9" y="5"/>
<rect height="1.5" width="11" x="12" y="5"/>
<path d="M26,11H10.857C10.41,9.279,8.858,8,7,8c-1.915,0-3.518,1.354-3.906,3.155C1.884,11.542,1,12.664,1,14v12 c0,1.654,1.346,3,3,3h22c1.654,0,3-1.346,3-3V14C29,12.346,27.654,11,26,11z" fill-opacity="0.6"/>
<rect height="1.5" width="2" x="9" y="8.5"/>
<rect height="1.5" width="11" x="12" y="8.5"/>
<polygon fill="#FFFFFF" points="20,8 26,8 20,2 "/>
<linearGradient gradientUnits="userSpaceOnUse" id="SVGID_2" x1="15" x2="15" y1="12.15" y2="28.01">
<stop offset="0" stop-color="#E6E6E6"/>
<stop offset="1" stop-color="#626262"/>
</linearGradient>
<path d="M28,26c0,1.1-0.9,2-2,2H4c-1.1,0-2-0.9-2-2V14c0-1.1,0.9-2,2-2h22c1.1,0,2,0.9,2,2V26z" fill="url(#SVGID_2)"/>
<path d="M26,12H4c-1.1,0-2,0.9-2,2v1c0-1.1,0.9-2,2-2h22c1.1,0,2,0.9,2,2v-1C28,12.9,27.1,12,26,12z" fill="#FFFFFF" fill-opacity="0.4"/>
<path d="M7,27c2.205,0,4-1.794,4-4V12H3v11C3,25.206,4.795,27,7,27z" fill-opacity="0.1"/>
<linearGradient gradientUnits="userSpaceOnUse" id="SVGID_3" x1="7" x2="7" y1="9.16" y2="26.01">
<stop offset="0" stop-color="#A0A7A8"/>
<stop offset="1" stop-color="#252629"/>
</linearGradient>
<path d="M10,23c0,1.65-1.35,3-3,3l0,0c-1.65,0-3-1.35-3-3V12c0-1.65,1.35-3,3-3l0,0c1.65,0,3,1.35,3,3V23z" fill="url(#SVGID_3)"/>
<path d="M7,9c-1.65,0-3,1.35-3,3v1c0-1.65,1.35-3,3-3s3,1.35,3,3v-1C10,10.35,8.65,9,7,9z" fill="#FFFFFF" fill-opacity="0.3"/>
<path d="M9,15v10.217c0.609-0.55,1-1.337,1-2.217V13L9,15z" fill-opacity="0.3"/>
<path d="M5,25.217V15l-1-2v10C4,23.88,4.391,24.667,5,25.217z" fill-opacity="0.3"/>
<linearGradient gradientUnits="userSpaceOnUse" id="SVGID_4" x1="15.5" x2="15.5" y1="18" y2="27.98">
<stop offset="0" stop-color="#696D6F"/>
<stop offset="1" stop-color="#252629"/>
</linearGradient>
<rect fill="url(#SVGID_4)" height="2" width="3" x="14" y="18"/>
<rect fill="url(#SVGID_4)" height="2" width="3" x="18" y="18"/>
<rect fill="url(#SVGID_4)" height="2" width="3" x="22" y="18"/>
<linearGradient gradientUnits="userSpaceOnUse" id="SVGID_7" x1="15.5" x2="15.5" y1="17" y2="26.98">
<stop offset="0" stop-color="#696D6F"/>
<stop offset="1" stop-color="#252629"/>
</linearGradient>
<rect fill="url(#SVGID_7)" height="2" width="3" x="14" y="21"/>
<rect fill="url(#SVGID_7)" height="2" width="3" x="18" y="21"/>
<rect fill="url(#SVGID_7)" height="2" width="3" x="22" y="21"/>
<linearGradient gradientUnits="userSpaceOnUse" id="SVGID_10" x1="15.5" x2="15.5" y1="16" y2="25.98">
<stop offset="0" stop-color="#696D6F"/>
<stop offset="1" stop-color="#252629"/>
</linearGradient>
<rect fill="url(#SVGID_10)" height="2" width="3" x="14" y="24"/>
<rect fill="url(#SVGID_10)" height="2" width="3" x="18" y="24"/>
<rect fill="url(#SVGID_10)" height="2" width="3" x="22" y="24"/>
<linearGradient gradientUnits="userSpaceOnUse" id="SVGID_13" x1="19.5" x2="19.5" y1="14.19" y2="17.06">
<stop offset="0" stop-color="#30BCE8"/>
<stop offset="1" stop-color="#048CC6"/>
</linearGradient>
<rect fill="url(#SVGID_13)" height="3" width="11" x="14" y="14"/>
<path d="M22,30c-4.411,0-8-3.589-8-8s3.589-8,8-8s8,3.589,8,8S26.411,30,22,30L22,30z" fill-opacity="0.6"/>
<linearGradient gradientUnits="userSpaceOnUse" id="SVGID_14" x1="22" x2="22" y1="14.97" y2="29.16">
<stop offset="0" stop-color="#4EDEFF"/>
<stop offset="1" stop-color="#048CC6"/>
</linearGradient>
<circle cx="22" cy="22" fill="url(#SVGID_14)" r="7"/>
<path d="M23,21v-2h-5v8h4h1h3v-6H23z M22,25h-3v-1h3V25z M22,23h-3v-1h3V23z M19,21v-1h3v1H19z M25,25h-2v-1h2V25z M25,23h-2v-1h2V23z" fill-opacity="0.2"/>
<path d="M22,16c3.697,0,6.717,2.869,6.975,6.5C28.986,22.334,29,22.169,29,22c0-3.865-3.134-7-7-7 s-7,3.135-7,7c0,0.169,0.014,0.334,0.025,0.5C15.283,18.869,18.303,16,22,16z" fill="#FFFFFF" fill-opacity="0.4"/>
<path d="M23,20v-2h-5v8h4h1h3v-6H23z M22,24h-3v-1h3V24z M22,22h-3v-1h3V22z M19,20v-1h3v1H19z M25,24h-2v-1h2V24z M25,22h-2v-1h2V22z" fill="#FFFFFF"/>
<rect fill-opacity="0.3" height="6" width="1" x="23" y="20"/>
</svg>
