<?xml version="1.0" encoding="UTF-8" standalone="no"?>
<!DOCTYPE svg PUBLIC "-//W3C//DTD SVG 1.1 Tiny//EN" "http://www.w3.org/Graphics/SVG/1.1/DTD/svg11-tiny.dtd">
<svg xmlns="http://www.w3.org/2000/svg" xmlns:xlink="http://www.w3.org/1999/xlink" baseProfile="tiny" height="30px" version="1.1" viewBox="0.006 0 30 30" width="30px" x="0px" y="0px">
<rect fill="none" height="30" width="30" x="0.006"/>
<path d="M20.11,3.436c-0.041,0-0.084,0-0.125,0.002c-0.39-1.125-1.472-1.936-2.739-1.936c-0.104,0-0.207,0.006-0.309,0.016  C16.451,0.615,15.488,0,14.381,0c-1.106,0-2.07,0.615-2.557,1.518c-0.102-0.01-0.205-0.016-0.309-0.016  c-1.597,0-2.896,1.283-2.896,2.861v3.412C8.568,7.76,8.516,7.746,8.464,7.732c-0.263-0.066-0.531-0.1-0.797-0.1  c-0.692,0-1.313,0.225-1.771,0.629c-0.886,0.756-1.137,2.027-0.64,3.234L9.169,21h11.929l1.906-6.926V6.295  C23.005,4.717,21.707,3.436,20.11,3.436z M19.574,19h-9.065c-1.928-4.682-3.398-8.258-3.401-8.264  c-0.12-0.293-0.18-0.725,0.089-0.955c0.199-0.176,0.529-0.172,0.777-0.109c0.506,0.127,0.894,0.438,1.167,0.838  c0.259,0.377,0.711,1.797,0.96,2.664l0.518-0.1V4.363c0-0.477,0.402-0.861,0.896-0.861c0.496,0,0.896,0.385,0.896,0.861v6.861h1.074  V2.857c0-0.475,0.4-0.857,0.895-0.857c0.496,0,0.895,0.383,0.895,0.857v8.367h1.076V4.363c0-0.477,0.4-0.861,0.895-0.861  c0.496,0,0.894,0.385,0.894,0.861v6.861h1.075v-4.93c0-0.475,0.402-0.859,0.895-0.859c0.496,0,0.895,0.385,0.895,0.859v7.508h0.002  L19.574,19z"/>
<path d="M12,28.01c-5.376-0.275-9.678-3.713-9.994-7.996H0c0.31,5.382,5.51,9.708,12,10V28.01z"/>
<path d="M12,24.001c-3.037-0.18-5.489-1.845-5.889-3.987H4c0.389,3.234,3.788,5.798,8,6V24.001z"/>
<path d="M18.012,28.01c5.376-0.275,9.678-3.713,9.994-7.996h2.006c-0.31,5.382-5.511,9.708-12,10V28.01z"/>
<path d="M18.012,24.001c3.036-0.18,5.489-1.845,5.89-3.987h2.11c-0.39,3.234-3.787,5.798-8,6V24.001z"/>
</svg>
