<?xml version="1.0" encoding="UTF-8"?>
<!DOCTYPE svg PUBLIC "-//W3C//DTD SVG 1.1 Tiny//EN" "http://www.w3.org/Graphics/SVG/1.1/DTD/svg11-tiny.dtd">
<svg baseProfile="tiny" height="30px" version="1.1" viewBox="0 0 30 30" width="30px" x="0px" xmlns="http://www.w3.org/2000/svg" xmlns:xlink="http://www.w3.org/1999/xlink" y="0px">
<polygon points="20.52,13.03,18.46,14.32,20.32,17.33,17.27,17.33,14.59,13.03,12.52,14.32,14.39,17.33,5.279,17.33,5.279,19.76,24.72,19.76"/>
<polygon points="9.48,29.07,11.55,27.78,9.68,24.78,12.73,24.78,15.41,29.07,17.48,27.78,15.6,24.78,24.72,24.78,24.72,22.34,5.279,22.34"/>
<polygon points="20.34,3.297,20.34,0.928,9.633,0.928,9.633,11.54,20.34,11.54,20.34,9.175,11.93,9.175,11.93,7.387,18.34,7.387,18.34,5.085,11.93,5.085,11.93,3.297"/>
<rect fill="none" height="30" width="30"/>
</svg>
