<?xml version="1.0" encoding="UTF-8"?>
<!DOCTYPE svg PUBLIC "-//W3C//DTD SVG 1.1 Tiny//EN" "http://www.w3.org/Graphics/SVG/1.1/DTD/svg11-tiny.dtd">
<svg baseProfile="tiny" height="30" viewBox="0 0 30 30" width="30" xmlns="http://www.w3.org/2000/svg" xmlns:xlink="http://www.w3.org/1999/xlink">
<g>
<path d="M15,30C6.729,30,0,23.271,0,15S6.729,0,15,0s15,6.729,15,15S23.271,30,15,30L15,30z" fill-opacity="0.6" stroke-opacity="0.6"/>
<radialGradient cx="15" cy="2.8335" gradientUnits="userSpaceOnUse" id="SVGID_1_" r="24.8358">
<stop offset="0" style="stop-color:#FEE891"/>
<stop offset="0.7818" style="stop-color:#FFB701"/>
<stop offset="1" style="stop-color:#FFC501"/>
</radialGradient>
<circle cx="15" cy="15" fill="url(#SVGID_1_)" r="14"/>
<path d="M15,2c7.563,0,13.709,6.002,13.975,13.5C28.98,15.332,29,15.169,29,15c0-7.732-6.268-14-14-14  S1,7.268,1,15c0,0.169,0.02,0.332,0.025,0.5C1.291,8.002,7.438,2,15,2z" fill="#FFFFFF" fill-opacity="0.3" stroke-opacity="0.3"/>
<path d="M27,19.626l-0.942-1.885c0.062-0.259-0.087-0.522-0.347-0.597  c-0.262-0.074-0.398,0.175-0.617,0.346C23,19.126,20.144,20.626,15,20.626s-8-1.5-10.094-3.136c-0.076-0.268-0.355-0.42-0.617-0.346  c-0.26,0.074-0.408,0.338-0.347,0.597L3,19.626c0.497,0,0.957-0.426,1.293-0.854C7,20.126,10,21.626,15,21.626s9-1.5,10.704-2.849  C25.994,19.1,26.407,19.429,27,19.626z" fill="#FFFFFF" fill-opacity="0.6" stroke-opacity="0.6"/>
<path d="M27,19.334l-0.942-1.885c0.062-0.258-0.087-0.522-0.347-0.596c-0.262-0.075-0.398,0.174-0.617,0.345  C23,18.834,20.144,19.376,15,19.376s-8-0.542-10.094-2.178c-0.076-0.267-0.355-0.42-0.617-0.345  c-0.26,0.073-0.408,0.338-0.347,0.596L3,19.334c0.497,0,0.957-0.426,1.293-0.854C7,19.834,10,20.834,15,20.834s9-1,10.704-2.348  C25.994,18.808,26.407,19.137,27,19.334z" fill-opacity="0.2" stroke-opacity="0.2"/>
<path d="M9.84,19.896c-1.49,1.831-2.932,6.933,1.082,7.394c4.174,0.479,4.881-5.217,8.221-6.91  C19.304,20.299,9.84,19.896,9.84,19.896z" fill-opacity="0.2" stroke-opacity="0.2"/>
<radialGradient cx="-109.6074" cy="-17.5278" gradientTransform="matrix(1.1747 0 0 1.1055 140.3261 39.9384)" gradientUnits="userSpaceOnUse" id="SVGID_2_" r="4.8868">
<stop offset="0" style="stop-color:#FF6855"/>
<stop offset="1" style="stop-color:#CC0E06"/>
</radialGradient>
<path d="M9.145,19.896c-1.489,1.831-1.379,6.046,1.777,6.287c4.191,0.322,4.186-4.11,7.525-5.804  C18.609,20.299,9.145,19.896,9.145,19.896z" fill="url(#SVGID_2_)"/>
<path d="M13.201,20.076c-0.479-0.021-0.943-0.043-1.385-0.063c-0.565,1.258-0.637,2.821-0.637,2.821  S11.781,21.287,13.201,20.076z" fill-opacity="0.2" stroke-opacity="0.2"/>
<linearGradient gradientUnits="userSpaceOnUse" id="SVGID_3_" x1="14.9995" x2="14.9995" y1="16.9053" y2="20.856">
<stop offset="0" style="stop-color:#460800"/>
<stop offset="1" style="stop-color:#992323"/>
</linearGradient>
<path d="M27,19.334l-0.942-1.885c0.062-0.258-0.087-0.522-0.347-0.596c-0.262-0.075-0.398,0.174-0.617,0.345  C23,18.834,20.144,19.834,15,19.834s-8-1-10.094-2.636c-0.076-0.267-0.355-0.42-0.617-0.345c-0.26,0.073-0.408,0.338-0.347,0.596  L3,19.334c0.497,0,0.957-0.426,1.293-0.854C7,19.834,10,20.834,15,20.834s9-1,10.704-2.348C25.994,18.808,26.407,19.137,27,19.334z" fill="url(#SVGID_3_)"/>
<linearGradient gradientUnits="userSpaceOnUse" id="SVGID_4_" x1="20.5" x2="20.5" y1="8.7856" y2="15.9438">
<stop offset="0" style="stop-color:#DB9D00"/>
<stop offset="1" style="stop-color:#FFEEA9"/>
</linearGradient>
<path d="M20.5,15.834c-1.426,0-2.5-1.505-2.5-3.5s1.074-3.5,2.5-3.5s2.5,1.505,2.5,3.5  S21.926,15.834,20.5,15.834L20.5,15.834z" fill="url(#SVGID_4_)"/>
<ellipse cx="20.5" cy="12.334" fill="#0C3554" rx="1.5" ry="2.5"/>
<linearGradient gradientUnits="userSpaceOnUse" id="SVGID_5_" x1="20.583" x2="20.583" y1="11.9248" y2="15.1028">
<stop offset="0" style="stop-color:#0C3554"/>
<stop offset="1" style="stop-color:#6D93B3"/>
</linearGradient>
<path d="M19.166,13.457c0.248,0.813,0.749,1.377,1.334,1.377c0.828,0,1.5-1.119,1.5-2.5  c0-0.155-0.012-0.305-0.027-0.452c-0.153-0.03-0.311-0.048-0.473-0.048C20.43,11.834,19.522,12.511,19.166,13.457z" fill="url(#SVGID_5_)"/>
<path d="M12,14.834c-0.209,0-0.404-0.133-0.475-0.341c-0.041-0.121-0.932-2.159-4.49-2.159  c-0.277,0-0.535-0.724-0.535-1s0.225-0.5,0.5-0.5c4.312,0,5.429,3.205,5.475,3.342c0.087,0.262-0.055,0.545-0.316,0.632  C12.105,14.825,12.053,14.834,12,14.834L12,14.834z" fill-opacity="0.4" stroke-opacity="0.4"/>
<path d="M12,14.021c-0.209,0-0.404-0.132-0.475-0.341c-0.041-0.121-0.992-3.065-4.552-3.065  c-0.276,0-0.474-0.503-0.474-0.78c0-0.275,0.225-0.5,0.5-0.5c4.312,0,5.429,3.893,5.475,4.028c0.087,0.263-0.055,0.546-0.316,0.632  c-0.053,0.018-0.105-0.66-0.158-0.66V14.021z" fill="#FFFFFF" fill-opacity="0.3" stroke-opacity="0.3"/>
<path d="M12,14.334c-0.209,0-0.404-0.132-0.475-0.34c-0.041-0.121-0.965-2.66-4.525-2.66c-0.275,0-0.5-0.223-0.5-0.5  c0-0.275,0.225-0.5,0.5-0.5c4.312,0,5.429,3.205,5.475,3.342c0.087,0.262-0.055,0.545-0.316,0.633  C12.105,14.326,12.053,14.334,12,14.334L12,14.334z" fill="#0C3554"/>
</g>
</svg>
