<?xml version="1.0" encoding="UTF-8"?>
<!DOCTYPE svg PUBLIC "-//W3C//DTD SVG 1.1 Tiny//EN" "http://www.w3.org/Graphics/SVG/1.1/DTD/svg11-tiny.dtd">
<svg baseProfile="tiny" height="30px" version="1.1" viewBox="0 0 30 30" width="30px" x="0px" xmlns="http://www.w3.org/2000/svg" xmlns:xlink="http://www.w3.org/1999/xlink" y="0px">
<g fill-opacity="0.5" stroke-opacity="0.5">
<rect fill="none" height="30" width="30"/>
</g>
<rect height="10" transform="matrix(-0.7071 -0.7071 0.7071 -0.7071 -4.2124 42.9407)" width="6.001" x="3.787" y="17.343"/>
<rect height="10" transform="matrix(0.7071 0.7071 -0.7071 0.7071 11.3431 -13.8113)" width="5.999" x="19.344" y="1.786"/>
<polygon points="20.176,16.025 20.93,15.271 13.858,8.201 12.539,8.39 "/>
<polygon points="23.004,18.854 24.465,17.394 21.251,17.102 "/>
<polygon points="17.101,21.248 17.394,24.464 18.855,23.002 "/>
<polygon points="8.39,12.537 8.201,13.857 15.272,20.929 16.027,20.174 "/>
<rect height="35.827" transform="matrix(0.7063 -0.7079 0.7079 0.7063 -6.0767 14.6963)" width="1.868" x="13.74" y="-3.242"/>
</svg>
