<?xml version="1.0" encoding="UTF-8"?>
<!DOCTYPE svg PUBLIC "-//W3C//DTD SVG 1.1 Tiny//EN" "http://www.w3.org/Graphics/SVG/1.1/DTD/svg11-tiny.dtd">
<svg baseProfile="tiny" height="30" viewBox="0 0 30 30" width="30" xmlns="http://www.w3.org/2000/svg" xmlns:xlink="http://www.w3.org/1999/xlink">
<g transform="matrix(1 0 0 1 1 1)">
<path d="M29,5.734c0,0-0.313-1-1.195-1.295c1.055-1.158,0.93-2.721,0.93-2.721S28,1,26.797,1  c-1.003,0-2.091,0.326-3.063,0.918c-0.463,0.283-0.876,0.617-1.24,0.979C20.136,1.088,17.195,0,14,0C6.28,0,0,6.28,0,14  s6.28,14,14,14s14-6.28,14-14c0-2.266-0.553-4.4-1.513-6.296C28.531,7.125,29,5.734,29,5.734z" fill-opacity="0.6" stroke-opacity="0.6"/>
<radialGradient cx="14" cy="10.1787" gradientUnits="userSpaceOnUse" id="SVGID_1_" r="17.7916">
<stop offset="0" style="stop-color:#FEE891"/>
<stop offset="0.7818" style="stop-color:#FFB701"/>
<stop offset="1" style="stop-color:#FFC501"/>
</radialGradient>
<path d="M2,9c-0.642,1.539-1,3.228-1,5c0,7.18,5.82,13,13,13s13-5.82,13-13c0-1.772-0.357-3.461-1-5H2z" fill="url(#SVGID_1_)"/>
<path d="M26.361,10C26.252,9.662,26.137,9.326,26,9H2c-0.136,0.326-0.252,0.662-0.361,1H26.361z" fill-opacity="0.2" stroke-opacity="0.2"/>
<linearGradient gradientUnits="userSpaceOnUse" id="SVGID_2_" x1="8.5" x2="8.5" y1="8.917" y2="16.1255">
<stop offset="0" style="stop-color:#DB9D00"/>
<stop offset="1" style="stop-color:#FFEEA9"/>
</linearGradient>
<path d="M8.5,16C7.075,16,6,14.495,6,12.5S7.075,9,8.5,9s2.5,1.505,2.5,3.5S9.925,16,8.5,16L8.5,16z" fill="url(#SVGID_2_)"/>
<ellipse cx="8.5" cy="12.5" fill="#0C3554" rx="1.5" ry="2.5"/>
<linearGradient gradientUnits="userSpaceOnUse" id="SVGID_3_" x1="8.5835" x2="8.5835" y1="11.9707" y2="15.1465">
<stop offset="0" style="stop-color:#0C3554"/>
<stop offset="1" style="stop-color:#6D93B3"/>
</linearGradient>
<path d="M7.167,13.623C7.414,14.437,7.915,15,8.5,15c0.829,0,1.5-1.119,1.5-2.5  c0-0.155-0.011-0.305-0.027-0.452C9.819,12.018,9.662,12,9.5,12C8.429,12,7.522,12.677,7.167,13.623z" fill="url(#SVGID_3_)"/>
<path d="M13.396,23.658c0.353,0.037,0.719,0.056,1.088,0.056c3.674,0,6.368-1.058,7.209-4.025  c0.053-0.19,0.252-0.302,0.439-0.246c0.189,0.054,0.301,0.251,0.246,0.44c-0.005,0.02-0.012,0.035-0.018,0.055L23,21.213  c-0.338,0-0.65-0.277-0.887-0.568c-1.15,2.831-3.992,4.876-7.684,4.876c-0.393,0-0.242-0.028-0.621-0.019  c-0.805,0.024-0.825-1.33-0.804-1.525C13.025,23.779,13.201,23.636,13.396,23.658z" fill="#FFFFFF" fill-opacity="0.6" stroke-opacity="0.6"/>
<path d="M13.396,22.943c0.353,0.037,0.719,0.056,1.088,0.056c3.674,0,6.368-1.771,7.209-4.738  c0.053-0.19,0.252-0.302,0.439-0.247c0.189,0.055,0.301,0.252,0.246,0.441c-0.005,0.018-0.012,0.035-0.018,0.055L23,20.499  c-0.338,0-0.65-0.991-0.887-1.282c-1.15,2.83-3.822,4.85-7.514,4.85c-0.393,0-0.784-0.02-1.162-0.06  c-0.196-0.021-0.434-0.03-0.434-0.745C13.004,23.064,13.201,22.922,13.396,22.943z" fill-opacity="0.2" stroke-opacity="0.2"/>
<linearGradient gradientTransform="matrix(-1 0 0 1 -470.001 0)" gradientUnits="userSpaceOnUse" id="SVGID_4_" x1="-493.001" x2="-483.0034" y1="21.5703" y2="21.5703">
<stop offset="0" style="stop-color:#460800"/>
<stop offset="1" style="stop-color:#992323"/>
</linearGradient>
<path d="M13.396,23.658c0.353,0.037,0.719,0.056,1.088,0.056c3.674,0,6.368-1.771,7.209-4.739  c0.053-0.189,0.252-0.302,0.439-0.246c0.189,0.054,0.301,0.251,0.246,0.44c-0.005,0.019-0.012,0.036-0.018,0.054L23,20.499  c-0.338,0-0.65-0.277-0.887-0.567c-1.15,2.829-3.939,4.496-7.629,4.496c-0.394,0-0.785-0.02-1.162-0.06  c-0.196-0.021-0.338-0.196-0.318-0.392C13.025,23.779,13.201,23.636,13.396,23.658z" fill="url(#SVGID_4_)"/>
<linearGradient gradientUnits="userSpaceOnUse" id="SVGID_5_" x1="24.9082" x2="24.9082" y1="2.167" y2="5.5838">
<stop offset="0" style="stop-color:#FF4D00"/>
<stop offset="1" style="stop-color:#800000"/>
</linearGradient>
<path d="M24.255,2.772C23.01,3.531,22.189,4.662,22,5.71c0.971,0.341,2.318,0.149,3.563-0.61  c1.244-0.758,2.065-1.889,2.254-2.938C26.848,1.821,25.5,2.014,24.255,2.772z" fill="url(#SVGID_5_)"/>
<linearGradient gradientUnits="userSpaceOnUse" id="SVGID_6_" x1="25.6973" x2="25.6973" y1="5.0835" y2="6.8041">
<stop offset="0" style="stop-color:#FF4D00"/>
<stop offset="1" style="stop-color:#800000"/>
</linearGradient>
<path d="M25.68,5.006c-0.986,0.055-1.837,0.467-2.285,1.032c0.471,0.514,1.336,0.83,2.321,0.774  C26.701,6.758,27.553,6.346,28,5.78C27.531,5.268,26.664,4.951,25.68,5.006z" fill="url(#SVGID_6_)"/>
<linearGradient gradientUnits="userSpaceOnUse" id="SVGID_7_" x1="1.9995" x2="26" y1="5" y2="5">
<stop offset="0" style="stop-color:#FF4D00"/>
<stop offset="1" style="stop-color:#800000"/>
</linearGradient>
<path d="M2,9h24c-1.959-4.697-6.593-8-12-8S3.959,4.303,2,9z" fill="url(#SVGID_7_)"/>
<path d="M14,2c5.014,0,9.358,2.842,11.527,7H26c-1.959-4.697-6.593-8-12-8S3.959,4.303,2,9h0.474  C4.642,4.842,8.986,2,14,2z" fill="#FFFFFF" fill-opacity="0.3" stroke-opacity="0.3"/>
<path d="M26.111,18.697l-3.076-3.076c0.473-0.657,0.758-1.457,0.758-2.328c0-2.209-1.791-4-4-4  c-0.871,0-1.671,0.285-2.328,0.758L9.303,1.889C8.64,2.146,8.005,2.456,7.4,2.814l8.783,8.782c-0.243,0.517-0.39,1.087-0.39,1.696  c0,2.209,1.791,4,4,4c0.609,0,1.18-0.146,1.696-0.39l3.696,3.696C25.544,19.995,25.854,19.36,26.111,18.697z" fill-opacity="0.2" stroke-opacity="0.2"/>
<path d="M26.379,17.965l-3.137-3.137C23.715,14.171,24,13.371,24,12.5c0-2.209-1.791-4-4-4  c-0.871,0-1.671,0.285-2.328,0.758l-7.637-7.637C9.342,1.843,8.678,2.125,8.041,2.455l8.349,8.349C16.146,11.32,16,11.891,16,12.5  c0,2.209,1.791,4,4,4c0.609,0,1.18-0.146,1.696-0.39l3.849,3.849C25.875,19.322,26.157,18.658,26.379,17.965z" fill="#3B2314"/>
<path d="M20,9c2.123,0,3.844,1.66,3.975,3.75C23.98,12.666,24,12.586,24,12.5c0-2.209-1.791-4-4-4  s-4,1.791-4,4c0,0.086,0.02,0.166,0.025,0.25C16.156,10.66,17.877,9,20,9z" fill="#FFFFFF" fill-opacity="0.3" stroke-opacity="0.3"/>
</g>
</svg>
