<?xml version="1.0" encoding="utf-8"?>
<!-- Generator: Adobe Illustrator 14.0.0, SVG Export Plug-In . SVG Version: 6.00 Build 43363)  -->
<!DOCTYPE svg PUBLIC "-//W3C//DTD SVG 1.1//EN" "http://www.w3.org/Graphics/SVG/1.1/DTD/svg11.dtd">
<svg version="1.1" id="Layer_1" xmlns="http://www.w3.org/2000/svg" xmlns:xlink="http://www.w3.org/1999/xlink" x="0px" y="0px"
	 width="30px" height="30px" viewBox="0 0 30 30" enable-background="new 0 0 30 30" xml:space="preserve">
<rect fill="none" width="30" height="30"/>
<path d="M0.998,3v24h28V3H0.998z M25.998,24h-22V6h22V24z"/>
<path d="M14.057,10.632v8.736H12.44V15.12H9.943v4.248H8.332v-8.736h1.611v3.492h2.496v-3.492H14.057z"/>
<path d="M15.785,10.632h2.484c1.141,0,1.991,0.338,2.555,1.014c0.563,0.676,0.844,1.742,0.844,3.199
	c0,1.594-0.296,2.746-0.889,3.457c-0.592,0.712-1.486,1.066-2.687,1.066h-2.309L15.785,10.632L15.785,10.632z M17.396,11.628v6.731
	h0.731c0.608,0,1.073-0.244,1.392-0.734c0.319-0.49,0.479-1.395,0.479-2.71c0-1.168-0.156-2.008-0.469-2.52
	c-0.313-0.512-0.787-0.768-1.424-0.768L17.396,11.628L17.396,11.628z"/>
</svg>
