<?xml version="1.0" encoding="UTF-8" standalone="no"?>
<!DOCTYPE svg PUBLIC "-//W3C//DTD SVG 1.1 Tiny//EN" "http://www.w3.org/Graphics/SVG/1.1/DTD/svg11-tiny.dtd">
<svg xmlns="http://www.w3.org/2000/svg" xmlns:xlink="http://www.w3.org/1999/xlink" baseProfile="tiny" height="30px" version="1.1" viewBox="0 0 30 30" width="30px" x="0px" y="0px">
<g fill-opacity="0.5" stroke-opacity="0.5">
<rect fill="none" height="30" width="30"/>
</g>
<path d="M10.372,17.177c-0.732-0.662-1.289-1.417-1.714-2.314c-1.002-2.12-0.705-5.979-0.611-6.944  c0.072-2.494,2.419-4.848,4.768-5.638C11.827,1.015,10.188,0,8.936,0H7.722C5.807,0,3.38,2.367,3.38,4.388  c0,0-0.29,4.066,0.575,6.022c0.475,1.067,0.918,1.963,1.889,2.645c0.003,0.14,0.012,0.733,0.003,0.87  C5.729,15.909,0,18.276,0,18.276V24h4v-1.927l0.407-0.536c0.296-0.391,0.623-0.597,1.705-1.277  C8.353,18.849,9.781,17.814,10.372,17.177z"/>
<path d="M13.179,20.696l-1.094-2.476C10.631,20.049,6.253,22.413,6,22.746V28h8.769C13.66,26.446,13,24.551,13,22.5  C13,21.883,13.065,21.281,13.179,20.696z"/>
<path d="M10.046,8.034c0,0-0.43,4.175,0.419,5.972c0.466,0.982,1.139,1.708,2.092,2.334c0.002,0.128,0.01,0.794,0.001,0.921  c-0.005,0.087-0.037,0.179-0.068,0.271h1.921c1.206-1.953,3.094-3.442,5.334-4.122c0.585-1.979,0.194-5.376,0.194-5.376  c0-1.858-2.47-4.034-4.35-4.034h-1.191C12.52,4,10.046,6.176,10.046,8.034z"/>
<path d="M21.938,7.903c0.081,0.743,0.289,3.097-0.061,5.128C22.084,13.018,22.29,13,22.5,13c0.566,0,1.117,0.059,1.656,0.154  c0-0.049,0.001-0.101,0.002-0.126c0.947-0.685,1.361-1.57,1.861-2.618c0.926-1.938,0.587-6.022,0.587-6.022  C26.606,2.367,24.183,0,22.269,0h-1.214c-1.253,0-2.889,1.016-3.874,2.282C19.521,3.073,21.859,5.417,21.938,7.903z"/>
<path d="M22.5,15c-4.136,0-7.5,3.364-7.5,7.5s3.364,7.5,7.5,7.5s7.5-3.364,7.5-7.5S26.636,15,22.5,15z M22.5,28  c-3.033,0-5.5-2.468-5.5-5.5s2.467-5.5,5.5-5.5s5.5,2.468,5.5,5.5S25.533,28,22.5,28z"/>
<polygon points="24,21 24,18 21,18 21,21 18,21 18,24 21,24 21,27 24,27 24,24 27,24 27,21 "/>
</svg>
