<?xml version="1.0" encoding="utf-8"?>
<!-- Generator: Adobe Illustrator 13.0.2, SVG Export Plug-In  -->
<!DOCTYPE svg PUBLIC "-//W3C//DTD SVG 1.1//EN" "http://www.w3.org/Graphics/SVG/1.1/DTD/svg11.dtd" [
	<!ENTITY ns_flows "http://ns.adobe.com/Flows/1.0/">
]>
<svg version="1.1"
	 xmlns="http://www.w3.org/2000/svg" xmlns:xlink="http://www.w3.org/1999/xlink" xmlns:a="http://ns.adobe.com/AdobeSVGViewerExtensions/3.0/"
	 x="0px" y="0px" width="640px" height="360px" viewBox="0 0 640 360" enable-background="new 0 0 640 360" xml:space="preserve">
<defs>
</defs>
<linearGradient id="SVGID_1_" gradientUnits="userSpaceOnUse" x1="7.9336" y1="54.3247" x2="413.5938" y2="217.4871" gradientTransform="matrix(1.192488e-008 -1 1 1.192488e-008 140.0001 500.0001)">
	<stop  offset="0" style="stop-color:#808080"/>
	<stop  offset="0.2099" style="stop-color:#848484"/>
	<stop  offset="0.4539" style="stop-color:#929292"/>
	<stop  offset="0.7148" style="stop-color:#AAAAAA"/>
	<stop  offset="0.9861" style="stop-color:#CACACA"/>
	<stop  offset="1" style="stop-color:#CCCCCC"/>
</linearGradient>
<rect x="0.001" fill="url(#SVGID_1_)" width="639.681" height="360"/>
<linearGradient id="SVGID_2_" gradientUnits="userSpaceOnUse" x1="320.0005" y1="267.5767" x2="320.0005" y2="-146.6588" gradientTransform="matrix(1.192488e-008 -1 1 1.192488e-008 140.0001 500.0001)">
	<stop  offset="0" style="stop-color:#B2B2B2"/>
	<stop  offset="1" style="stop-color:#4D4D4D"/>
</linearGradient>
<rect x="0.001" opacity="0.2" fill="url(#SVGID_2_)" width="639.681" height="360"/>
<linearGradient id="SVGID_3_" gradientUnits="userSpaceOnUse" x1="225.5308" y1="-155.0391" x2="460.4275" y2="407.7134" gradientTransform="matrix(1.192488e-008 -1 1 1.192488e-008 140.0001 500.0001)">
	<stop  offset="0.2582" style="stop-color:#666666"/>
	<stop  offset="0.5549" style="stop-color:#E6E6E6"/>
	<stop  offset="1" style="stop-color:#F2F2F2"/>
</linearGradient>
<path fill="url(#SVGID_3_)" d="M639.682,46.103c0,0-107.884,163.236-344.264,201.342c-105.176,16.956-175.938,27.247-245.712,8.282
	c-5.382-1.611-6.966-0.523-10.569,1.252c-4.108,2.023-11.862,5.446-22.293,5.446c-16.86,0-16.484-11.53-16.842-29.422
	c-0.003-0.179,0-84.64,0-84.64s46.765,18.523,124.848-25.984C202.932,77.871,337.741,0,362.707,0c24.965,0,114.192,0,114.192,0
	S489.361,75.774,639.682,46.103z"/>
<linearGradient id="SVGID_4_" gradientUnits="userSpaceOnUse" x1="234.873" y1="92.1318" x2="234.873" y2="499.9971" gradientTransform="matrix(1.192488e-008 -1 1 1.192488e-008 140.0001 500.0001)">
	<stop  offset="0" style="stop-color:#F2F2F2"/>
	<stop  offset="1" style="stop-color:#999999"/>
</linearGradient>
<path fill="url(#SVGID_4_)" d="M232.131,360c0,0,17.183-48.806,138.165-107.882c122.465-59.799,177.697-68.434,269.386-81.864
	c0.708-0.104,0,189.746,0,189.746h-72.725c0,0-51.762-17.395-151.777-18.663C339.522,340.377,273.486,346.889,232.131,360z"/>
<linearGradient id="SVGID_5_" gradientUnits="userSpaceOnUse" x1="144.3105" y1="-151.5811" x2="393.8274" y2="317.5103" gradientTransform="matrix(1.192488e-008 -1 1 1.192488e-008 140.0001 500.0001)">
	<stop  offset="0.5" style="stop-color:#808080"/>
	<stop  offset="0.6541" style="stop-color:#AAAAAA"/>
	<stop  offset="0.7981" style="stop-color:#CBCBCB"/>
	<stop  offset="0.9183" style="stop-color:#DEDEDE"/>
	<stop  offset="1" style="stop-color:#E6E6E6"/>
</linearGradient>
<path fill="url(#SVGID_5_)" d="M639.682,18.533c0,0-82.366,97.997-238.438,178.59C255.428,272.422,211.58,291.78,125.771,360H0.001
	v-74.706c0,0,2.675-19.95,18.165-21.237c12.229-1.017,18.023,4.499,23.83,19.945c4.586,12.202,4.486,33.735,4.486,33.735
	S248.035,233.808,367.076,156.9C477.179,85.77,579.709,0,579.709,0h59.973V18.533z"/>
<linearGradient id="SVGID_6_" gradientUnits="userSpaceOnUse" x1="184.4014" y1="-160.0723" x2="447.8064" y2="444.5632" gradientTransform="matrix(1.192488e-008 -1 1 1.192488e-008 140.0001 500.0001)">
	<stop  offset="0" style="stop-color:#999999"/>
	<stop  offset="0.0743" style="stop-color:#9E9E9E"/>
	<stop  offset="0.6736" style="stop-color:#BFBFBF"/>
	<stop  offset="1" style="stop-color:#CCCCCC"/>
</linearGradient>
<path opacity="0.9" fill="url(#SVGID_6_)" d="M0.001,312.161c0,0,128.36-22.646,197.894-36.892
	c74.435-15.25,155.405-53.995,155.405-53.995l1.08,2.553c0,0,28.398-17.135,43.356-27c13.813-9.109,82.109-41.138,82.109-41.138
	s-5.899-3.575-7.311-5.386c-0.476-0.61-0.919-1.596,0.454-2.467c0.45-0.286,4.911-2.856,5.578-3.281
	c2.37-1.501,64.616-39.624,75.907-50.242c11.29-10.619,16.496-21.933,12.036-31.209c-4.336-9.02-12.863-16.278-12.863-16.278
	s25.895-20.063,28.907-22.333c0.768-0.578,0.994-0.71,2.145-0.813c2.062-0.184,4.874,0.288,6.893,0.438
	c0.313,0.023,0.577,0.249,0.345,0.594c-0.549,0.813-1.795,2.326-2.428,3.844c-0.657,1.577-0.83,3.641,3.571,3.297
	c4.873-0.381,16.539-6.671,18.875-8.438c0.517-0.391,0.251-0.813-0.5-0.688c-0.822,0.137-8.013,0.992-9.822,1.141
	c-5.325,0.438-6.936,0.463-8.662,0.375c-0.611-0.031-0.878-0.188-0.533-0.688c0.421-0.611,4.184-5.109,7.128-8.141
	c1.437-1.479,5.284-5.611,7.08-7.688c0.297-0.344,0.058-0.689-0.549-0.281c-1.69,1.141-7.039,4.729-9.507,6.673
	c-4.096,3.221-6.756,5.191-9.666,7.296c-2.225,1.609-2.802,2.258-4.119,1.922c-13.319-3.396-17.831-4.729-29.609-11.979
	C546.389,7.168,547.682,0,547.682,0h-7.103c0,0,4.324,1.785,7.018,7.773c1.087,2.418-0.767,11.053-1.754,15.167
	c-3.787,15.779-17.361,31.299-33.918,48.582c-22.55,23.54-40.928,39.434-45.989,53.874c-3.354,9.567,0.376,16.509,2.808,20.28
	c1.499,2.325,2.914,3.114-0.958,5.688c-2.258,1.502-59.688,37.059-71.074,43.981c-11.388,6.922-40.976,24.367-40.976,24.367
	s-0.856-2.064-0.912-2.164c-2.512-4.439-7.469-3.722-16.097-2.391c-21.786,3.361-113.102,31.521-140.08,38.86
	c-30.325,8.25-74.685,17.25-103.506,13.5c-22.515-2.93-30.69-18.107-30.69-18.107s-27.674-6.757-64.45,3.541V312.161z"/>
<linearGradient id="SVGID_7_" gradientUnits="userSpaceOnUse" x1="485.1577" y1="-83.561" x2="342.2344" y2="123.7783" gradientTransform="matrix(1.192488e-008 -1 1 1.192488e-008 140.0001 500.0001)">
	<stop  offset="0" style="stop-color:#808080"/>
	<stop  offset="0.0278" style="stop-color:#898989"/>
	<stop  offset="0.1595" style="stop-color:#ADADAD"/>
	<stop  offset="0.2982" style="stop-color:#CBCBCB"/>
	<stop  offset="0.4441" style="stop-color:#E2E2E2"/>
	<stop  offset="0.6003" style="stop-color:#F2F2F2"/>
	<stop  offset="0.7739" style="stop-color:#FCFCFC"/>
	<stop  offset="1" style="stop-color:#FFFFFF"/>
</linearGradient>
<path opacity="0.8" fill="url(#SVGID_7_)" d="M163.56,117.521C104.542,151.045,0.001,204.52,0.001,204.52V0h59.202
	c225.218,8.525,224.729,15.506,333.425,18.006C392.628,18.006,271.83,56.023,163.56,117.521z"/>
<linearGradient id="SVGID_8_" gradientUnits="userSpaceOnUse" x1="259.9189" y1="184.8765" x2="259.9189" y2="499.6821" gradientTransform="matrix(1.192488e-008 -1 1 1.192488e-008 140.0001 500.0001)">
	<stop  offset="0" style="stop-color:#E6E6E6"/>
	<stop  offset="1" style="stop-color:#808080"/>
</linearGradient>
<path fill="url(#SVGID_8_)" d="M324.935,359.997c-1.604-13.431,29.173-89.858,155.482-160.53
	c125.61-70.28,159.265-79.305,159.265-79.305v210.095c0,0-57.319,7.674-130.733,2.559c-73.413-5.116-114.623-6.755-143.941-0.32
	C332.95,339.53,324.972,360.314,324.935,359.997z"/>
<path opacity="0.5" fill="#FFFFFF" d="M148.302,360l154.521-149.772c0,0,97.774-4.158,152.273-57.881
	c39.507-38.943,55.975-88.186,64.761-117.998C527.868,7.166,537.165,0,537.165,0h35.908c0,0-31.416,15.801-37.188,18.039
	s-9.159,2.527-11.223,14.71c-11.541,68.112-27.57,140.384-63.476,195.386c-43.353,66.413-109.184,100.457-109.184,100.457
	S312.119,329.301,199.274,360H148.302z"/>
<linearGradient id="SVGID_9_" gradientUnits="userSpaceOnUse" x1="442.6968" y1="508.5093" x2="370.0065" y2="189.7106" gradientTransform="matrix(1.192488e-008 -1 1 1.192488e-008 140.0001 500.0001)">
	<stop  offset="0" style="stop-color:#808080"/>
	<stop  offset="0.0334" style="stop-color:#909090"/>
	<stop  offset="0.1019" style="stop-color:#AAAAAA"/>
	<stop  offset="0.1807" style="stop-color:#C0C0C0"/>
	<stop  offset="0.2727" style="stop-color:#D1D1D1"/>
	<stop  offset="0.3864" style="stop-color:#DDDDDD"/>
	<stop  offset="0.546" style="stop-color:#E4E4E4"/>
	<stop  offset="0.989" style="stop-color:#E6E6E6"/>
</linearGradient>
<path opacity="0.54" fill="url(#SVGID_9_)" d="M639.682,0H476.899c0.167,0.953,5.422,30.197,45.845,44.811
	c-9.213,55.194-25.56,113.773-41.608,147.09c123.947-69.208,158.547-78.724,158.547-78.724V0z"/>
<linearGradient id="SVGID_10_" gradientUnits="userSpaceOnUse" x1="108.7754" y1="379.9116" x2="237.9194" y2="163.0476" gradientTransform="matrix(1.192488e-008 -1 1 1.192488e-008 140.0001 500.0001)">
	<stop  offset="0" style="stop-color:#666666"/>
	<stop  offset="0.0471" style="stop-color:#747474"/>
	<stop  offset="0.1426" style="stop-color:#8B8B8B"/>
	<stop  offset="0.2533" style="stop-color:#9D9D9D"/>
	<stop  offset="0.3868" style="stop-color:#A9A9A9"/>
	<stop  offset="0.5663" style="stop-color:#B0B0B0"/>
	<stop  offset="0.989" style="stop-color:#B2B2B2"/>
</linearGradient>
<path opacity="0.2" fill="url(#SVGID_10_)" d="M426.017,226.544c-16.949,7.313-35.405,15.748-55.537,25.573
	C249.438,311.194,232.246,360,232.246,360c23.962-7.594,56.379-12.968,93.979-15.965
	C331.73,323.864,357.538,276.584,426.017,226.544z M639.682,322.469c0,0-57.031,7.674-130.481,2.559
	c-73.449-5.117-114.68-6.755-144.013-0.32c-18.28,4.01-28.728,12.482-34.345,18.972c26.088-1.923,54.472-2.724,84.542-2.343
	C515.451,342.605,566.958,360,566.958,360h72.725V322.469z"/>
<linearGradient id="SVGID_11_" gradientUnits="userSpaceOnUse" x1="317.665" y1="229.7788" x2="306.9257" y2="270.784" gradientTransform="matrix(1.192488e-008 -1 1 1.192488e-008 140.0001 500.0001)">
	<stop  offset="0" style="stop-color:#FFFFFF"/>
	<stop  offset="1" style="stop-color:#4D4D4D"/>
</linearGradient>
<path opacity="0.04" fill="url(#SVGID_11_)" d="M148.375,360l154.597-149.772c0,0,97.823-4.158,152.35-57.881
	c39.526-38.943,56.002-88.186,64.792-117.998C528.128,7.166,537.43,0,537.43,0h35.926c0,0-31.432,15.801-37.206,18.039
	c-5.773,2.238-9.163,2.527-11.228,14.71c-11.547,68.112-27.584,140.384-63.507,195.386
	c-43.374,66.413-109.238,100.457-109.238,100.457S312.273,329.301,199.373,360H148.375z"/>
<linearGradient id="SVGID_12_" gradientUnits="userSpaceOnUse" x1="140" y1="342.3599" x2="379.8394" y2="342.3599" gradientTransform="matrix(1.192488e-008 -1 1 1.192488e-008 140.0001 500.0001)">
	<stop  offset="0" style="stop-color:#666666"/>
	<stop  offset="0.0334" style="stop-color:#767676"/>
	<stop  offset="0.1019" style="stop-color:#919191"/>
	<stop  offset="0.1807" style="stop-color:#A7A7A7"/>
	<stop  offset="0.2727" style="stop-color:#B8B8B8"/>
	<stop  offset="0.3864" style="stop-color:#C3C3C3"/>
	<stop  offset="0.546" style="stop-color:#CACACA"/>
	<stop  offset="0.989" style="stop-color:#CCCCCC"/>
</linearGradient>
<path opacity="0.25" fill="url(#SVGID_12_)" d="M325.096,359.997c-1.604-13.431,29.187-89.858,155.558-160.53
	c125.674-70.28,159.028-79.305,159.028-79.305v210.095c0,0-57.031,7.674-130.481,2.559c-73.449-5.116-114.68-6.755-144.013-0.32
	C333.115,339.53,325.133,360.314,325.096,359.997z"/>
<path opacity="0.19" fill="#FFFFFF" d="M0.001,312.161c0,0,128.424-22.646,197.992-36.892
	c74.472-15.25,155.482-53.995,155.482-53.995l1.08,2.553c0,0,28.413-17.135,43.378-27c13.819-9.109,82.15-41.138,82.15-41.138
	s-5.902-3.575-7.314-5.386c-0.476-0.61-0.919-1.596,0.455-2.467c0.449-0.286,4.913-2.856,5.58-3.281
	c2.372-1.501,64.648-39.624,75.945-50.242c11.296-10.619,16.504-21.933,12.042-31.209c-4.338-9.02-12.87-16.278-12.87-16.278
	s25.908-20.063,28.922-22.333c0.768-0.578,0.995-0.71,2.146-0.813c2.063-0.184,4.877,0.288,6.896,0.438
	c0.313,0.023,0.577,0.249,0.345,0.594c-0.549,0.813-1.796,2.326-2.429,3.844c-0.658,1.577-0.831,3.641,3.572,3.297
	c4.875-0.381,16.548-6.671,18.885-8.438c0.517-0.391,0.251-0.813-0.5-0.688c-0.823,0.137-8.017,0.992-9.827,1.141
	c-5.328,0.438-6.939,0.463-8.667,0.375c-0.611-0.031-0.878-0.188-0.533-0.688c0.421-0.611,4.186-5.109,7.132-8.141
	c1.437-1.479,5.285-5.611,7.083-7.688c0.297-0.344,0.058-0.689-0.549-0.281c-1.691,1.141-7.043,4.729-9.512,6.673
	c-4.098,3.221-6.759,5.191-9.671,7.296c-2.226,1.609-2.804,2.258-4.121,1.922c-13.326-3.396-17.84-4.729-29.624-11.979
	C546.66,7.168,547.953,0,547.953,0h-7.105c0,0,4.326,1.785,7.021,7.773c1.088,2.418-0.767,11.053-1.755,15.167
	c-3.788,15.779-17.369,31.299-33.935,48.582c-22.561,23.54-40.947,39.434-46.012,53.874c-3.355,9.567,0.376,16.509,2.809,20.28
	c1.5,2.325,2.916,3.114-0.958,5.688c-2.259,1.502-59.718,37.059-71.109,43.981c-11.394,6.922-40.996,24.367-40.996,24.367
	s-0.856-2.064-0.912-2.164c-2.514-4.439-7.473-3.722-16.104-2.391c-21.796,3.361-113.158,31.521-140.149,38.86
	c-30.341,8.25-74.722,17.25-103.558,13.5c-22.526-2.93-30.705-18.107-30.705-18.107s-27.688-6.757-64.481,3.541V312.161z"/>
<linearGradient id="SVGID_13_" gradientUnits="userSpaceOnUse" x1="449.5337" y1="21.8091" x2="376.3511" y2="136.9056" gradientTransform="matrix(1.192488e-008 -1 1 1.192488e-008 140.0001 500.0001)">
	<stop  offset="0" style="stop-color:#808080"/>
	<stop  offset="1" style="stop-color:#CCCCCC"/>
</linearGradient>
<path opacity="0.37" fill="url(#SVGID_13_)" d="M639.682,46.103c0,0-108.506,163.236-344.264,201.342
	c-104.899,16.956-176.121,27.247-245.712,8.282c-5.368-1.611-6.976-0.523-10.569,1.252c-4.097,2.023-11.889,5.446-22.293,5.446
	c-16.816,0-16.485-11.53-16.842-29.422c-0.003-0.179,0-84.64,0-84.64s46.97,18.523,124.848-25.984
	C202.727,77.871,337.807,0,362.707,0c24.9,0,114.192,0,114.192,0S489.757,75.774,639.682,46.103z"/>
<linearGradient id="SVGID_14_" gradientUnits="userSpaceOnUse" x1="366.145" y1="229.1509" x2="640.6119" y2="678.278" gradientTransform="matrix(1.192488e-008 -1 1 1.192488e-008 140.0001 500.0001)">
	<stop  offset="0" style="stop-color:#FFFFFF"/>
	<stop  offset="1" style="stop-color:#666666"/>
</linearGradient>
<path opacity="0.97" fill="url(#SVGID_14_)" d="M639.682,18.533c0,0-81.52,97.997-237.181,178.59
	C257.07,272.422,211.354,291.78,125.771,360H0.001v-74.706c0,0,2.716-19.95,18.165-21.237c12.196-1.017,18.039,4.499,23.83,19.945
	c4.574,12.202,4.486,33.735,4.486,33.735S248.348,233.808,367.076,156.9C476.889,85.77,579.709,0,579.709,0h59.973V18.533z"/>
<path opacity="0.14" fill="#666666" d="M481.135,191.901c-20.622,11.568-38.974,23.872-54.766,35.447
	c85.935-37.186,136.891-45.067,213.313-56.292v-57.88C639.682,113.177,606.416,121.621,481.135,191.901z"/>
<linearGradient id="SVGID_15_" gradientUnits="userSpaceOnUse" x1="359.1479" y1="323.9536" x2="426.5731" y2="485.4869" gradientTransform="matrix(1.192488e-008 -1 1 1.192488e-008 140.0001 500.0001)">
	<stop  offset="0" style="stop-color:#666666"/>
	<stop  offset="0.1169" style="stop-color:#8D8D8D"/>
	<stop  offset="0.2947" style="stop-color:#C4C4C4"/>
	<stop  offset="0.4278" style="stop-color:#E5E5E5"/>
	<stop  offset="0.5" style="stop-color:#F2F2F2"/>
	<stop  offset="1" style="stop-color:#B2B2B2"/>
</linearGradient>
<path opacity="0.41" fill="url(#SVGID_15_)" d="M559.608,52.291c2.53,2.872,5.413,6.648,7.41,10.813
	c4.448,9.276-0.744,20.59-12.005,31.209c-6.62,6.242-30.802,21.987-50.091,34.213c-4.932,17.558-10.638,34.73-17.413,51.13
	C590.935,119.743,639.682,46.066,639.682,46.066C606.869,52.562,580.558,54,559.608,52.291z"/>
<linearGradient id="SVGID_16_" gradientUnits="userSpaceOnUse" x1="479.8423" y1="409.5708" x2="454.8545" y2="299.9815" gradientTransform="matrix(1.192488e-008 -1 1 1.192488e-008 140.0001 500.0001)">
	<stop  offset="0" style="stop-color:#999999"/>
	<stop  offset="0.0506" style="stop-color:#AAAAAA"/>
	<stop  offset="0.134" style="stop-color:#C0C0C0"/>
	<stop  offset="0.2325" style="stop-color:#D1D1D1"/>
	<stop  offset="0.3544" style="stop-color:#DDDDDD"/>
	<stop  offset="0.5254" style="stop-color:#E4E4E4"/>
	<stop  offset="1" style="stop-color:#E6E6E6"/>
</linearGradient>
<path opacity="0.24" fill="url(#SVGID_16_)" d="M546.404,22.94c0.985-4.114,2.834-12.749,1.75-15.167
	C545.467,1.785,541.155,0,541.155,0h-64.256c0.167,0.953,5.912,30.197,46.208,44.811c-0.933,6.307-1.977,12.582-3.117,18.821
	C533.038,49.439,543.209,36.283,546.404,22.94z"/>
<linearGradient id="SVGID_17_" gradientUnits="userSpaceOnUse" x1="280.8638" y1="109.4741" x2="185.0135" y2="-63.256" gradientTransform="matrix(1.192488e-008 -1 1 1.192488e-008 140.0001 500.0001)">
	<stop  offset="0" style="stop-color:#FFFFFF"/>
	<stop  offset="0.0693" style="stop-color:#EEEEEE"/>
	<stop  offset="0.2924" style="stop-color:#BEBEBE"/>
	<stop  offset="0.5041" style="stop-color:#989898"/>
	<stop  offset="0.6986" style="stop-color:#7C7C7C"/>
	<stop  offset="0.87" style="stop-color:#6C6C6C"/>
	<stop  offset="1" style="stop-color:#666666"/>
</linearGradient>
<polygon opacity="0.5" fill="url(#SVGID_17_)" points="0.318,0 639.999,0 639.682,360 0.001,360 "/>
<linearGradient id="SVGID_18_" gradientUnits="userSpaceOnUse" x1="500.9312" y1="-76.5669" x2="454.7408" y2="-3.9219" gradientTransform="matrix(1.192488e-008 -1 1 1.192488e-008 140.0001 500.0001)">
	<stop  offset="0.3901" style="stop-color:#808080"/>
	<stop  offset="0.7824" style="stop-color:#C4C4C4"/>
	<stop  offset="1" style="stop-color:#E6E6E6"/>
</linearGradient>
<path opacity="0.5" fill="url(#SVGID_18_)" d="M0.001,148.094c0,0,46.97,18.793,124.848-25.715C202.727,77.871,337.807,0,362.707,0
	H0.001V148.094z"/>
<linearGradient id="SVGID_19_" gradientUnits="userSpaceOnUse" x1="485.1577" y1="-83.561" x2="342.2344" y2="123.7783" gradientTransform="matrix(1.192488e-008 -1 1 1.192488e-008 140.0001 500.0001)">
	<stop  offset="0" style="stop-color:#B2B2B2"/>
	<stop  offset="1" style="stop-color:#4D4D4D"/>
</linearGradient>
<path opacity="0.31" fill="url(#SVGID_19_)" d="M163.56,117.521C104.542,151.045,0.001,204.52,0.001,204.52V0h59.202
	c225.218,8.525,224.729,15.506,333.425,18.006C392.628,18.006,271.83,56.023,163.56,117.521z"/>
<linearGradient id="SVGID_20_" gradientUnits="userSpaceOnUse" x1="319.5732" y1="140.2192" x2="296.7632" y2="154.1037" gradientTransform="matrix(1.192488e-008 -1 1 1.192488e-008 140.0001 500.0001)">
	<stop  offset="0" style="stop-color:#FFFFFF"/>
	<stop  offset="0.1743" style="stop-color:#FCFCFC"/>
	<stop  offset="0.3249" style="stop-color:#F1F1F1"/>
	<stop  offset="0.4668" style="stop-color:#DFDFDF"/>
	<stop  offset="0.6033" style="stop-color:#C6C6C6"/>
	<stop  offset="0.736" style="stop-color:#A6A6A6"/>
	<stop  offset="0.8659" style="stop-color:#7E7E7E"/>
	<stop  offset="0.9911" style="stop-color:#505050"/>
	<stop  offset="1" style="stop-color:#4D4D4D"/>
</linearGradient>
<path opacity="0.18" fill="url(#SVGID_20_)" d="M124.849,122.379C46.96,166.888,0.021,148.363,0.021,148.363s-0.003,84.461,0,84.64
	c0.357,17.892-1.271,29.701,15.547,29.701c10.405,0,18.447-3.702,22.545-5.726c3.594-1.775,5.188-2.863,10.557-1.253
	c36.93,10.063,74.229,11.888,116.779,8.853c64.441-30.231,142.157-69.339,200.059-106.838C424.789,119.347,481.94,76.462,522,45.115
	C480.307,30.354,475.298,0,475.298,0S387.61,0,362.707,0S202.738,77.872,124.849,122.379z"/>
<rect x="0.001" opacity="0.5" fill="#FFFFFF" width="639.998" height="360"/>
</svg>
