<?xml version="1.0" encoding="UTF-8"?>
<!DOCTYPE svg PUBLIC "-//W3C//DTD SVG 1.1 Tiny//EN" "http://www.w3.org/Graphics/SVG/1.1/DTD/svg11-tiny.dtd">
<svg baseProfile="tiny" height="30" viewBox="0 0 30 30" width="30" xmlns="http://www.w3.org/2000/svg" xmlns:xlink="http://www.w3.org/1999/xlink">
<g>
<path d="M15,30C6.729,30,0,23.271,0,15C0,6.729,6.729,0,15,0s15,6.729,15,15C30,23.271,23.271,30,15,30L15,30z" fill-opacity="0.6" stroke-opacity="0.6"/>
<radialGradient cx="14.8057" cy="9.2969" gradientUnits="userSpaceOnUse" id="SVGID_1_" r="19.5366">
<stop offset="0" style="stop-color:#FF6855"/>
<stop offset="1" style="stop-color:#CC0E06"/>
</radialGradient>
<circle cx="15" cy="15" fill="url(#SVGID_1_)" r="14"/>
<path d="M15,2c7.563,0,13.709,6.002,13.975,13.5C28.98,15.332,29,15.169,29,15c0-7.732-6.268-14-14-14  S1,7.268,1,15c0,0.169,0.02,0.332,0.025,0.5C1.291,8.002,7.438,2,15,2z" fill="#FFFFFF" fill-opacity="0.3" stroke-opacity="0.3"/>
<linearGradient gradientUnits="userSpaceOnUse" id="SVGID_2_" x1="8.5" x2="8.5" y1="10.3823" y2="16.7968">
<stop offset="0" style="stop-color:#D82E09"/>
<stop offset="1" style="stop-color:#FACCB9"/>
</linearGradient>
<path d="M8.5,17C7.074,17,6,15.495,6,13.5S7.074,10,8.5,10s2.5,1.505,2.5,3.5S9.926,17,8.5,17L8.5,17z" fill="url(#SVGID_2_)"/>
<ellipse cx="8.5" cy="13.5" fill="#0C3554" rx="1.5" ry="2.5"/>
<linearGradient gradientUnits="userSpaceOnUse" id="SVGID_3_" x1="8.583" x2="8.583" y1="12.9707" y2="16.1465">
<stop offset="0" style="stop-color:#0C3554"/>
<stop offset="1" style="stop-color:#6D93B3"/>
</linearGradient>
<path d="M7.166,14.623C7.414,15.437,7.915,16,8.5,16c0.828,0,1.5-1.119,1.5-2.5  c0-0.155-0.012-0.305-0.027-0.452C9.819,13.018,9.662,13,9.5,13C8.43,13,7.522,13.677,7.166,14.623z" fill="url(#SVGID_3_)"/>
<linearGradient gradientUnits="userSpaceOnUse" id="SVGID_4_" x1="21.5" x2="21.5" y1="9.9517" y2="17.1103">
<stop offset="0" style="stop-color:#D82E09"/>
<stop offset="1" style="stop-color:#FACCB9"/>
</linearGradient>
<path d="M21.5,17c-1.426,0-2.5-1.505-2.5-3.5s1.074-3.5,2.5-3.5s2.5,1.505,2.5,3.5S22.926,17,21.5,17L21.5,17  z" fill="url(#SVGID_4_)"/>
<ellipse cx="21.5" cy="13.5" fill="#0C3554" rx="1.5" ry="2.5"/>
<linearGradient gradientUnits="userSpaceOnUse" id="SVGID_5_" x1="21.583" x2="21.583" y1="13.0908" y2="16.2688">
<stop offset="0" style="stop-color:#0C3554"/>
<stop offset="1" style="stop-color:#6D93B3"/>
</linearGradient>
<path d="M20.166,14.623C20.414,15.437,20.915,16,21.5,16c0.828,0,1.5-1.119,1.5-2.5  c0-0.155-0.012-0.305-0.027-0.452C22.819,13.018,22.662,13,22.5,13C21.43,13,20.522,13.677,20.166,14.623z" fill="url(#SVGID_5_)"/>
<ellipse cx="8.258" cy="11.352" fill-opacity="0.2" rx="4.361" ry="1.542" stroke-opacity="0.2" transform="matrix(0.9259 0.3777 -0.3777 0.9259 4.8993 -2.2783)"/>
<ellipse cx="8.26" cy="10.89" fill="#3B2314" rx="4.361" ry="1" transform="matrix(0.9259 0.3777 -0.3777 0.9259 4.725 -2.3132)"/>
<ellipse cx="21.92" cy="11.352" fill-opacity="0.2" rx="4.36" ry="1.541" stroke-opacity="0.2" transform="matrix(-0.9259 0.3777 -0.3777 -0.9259 46.5039 13.5832)"/>
<ellipse cx="21.918" cy="10.89" fill="#3B2314" rx="4.36" ry="1" transform="matrix(-0.9259 0.3777 -0.3777 -0.9259 46.3257 12.6943)"/>
<linearGradient gradientUnits="userSpaceOnUse" id="SVGID_6_" x1="14.9995" x2="14.9995" y1="18.0986" y2="25.1188">
<stop offset="0" style="stop-color:#942006"/>
<stop offset="1" style="stop-color:#FFAA5C"/>
</linearGradient>
<path d="M24,22.9c0,1.933-4.029,2.1-9,2.1s-9-0.167-9-2.1c0-1.934,4.029-4.9,9-4.9S24,20.967,24,22.9z" fill="url(#SVGID_6_)"/>
<linearGradient gradientUnits="userSpaceOnUse" id="SVGID_7_" x1="14.9995" x2="14.9995" y1="19.1426" y2="23.9429">
<stop offset="0" style="stop-color:#E6E6E6"/>
<stop offset="1" style="stop-color:#FFFFFF"/>
</linearGradient>
<path d="M24,22.5c0,1.381-4.029,1.5-9,1.5s-9-0.119-9-1.5s4.029-3.5,9-3.5S24,21.119,24,22.5z" fill="url(#SVGID_7_)"/>
<path d="M14,19.03v4.968C14.328,23.999,14.662,24,15,24v-5C14.662,19,14.328,19.012,14,19.03z" fill-opacity="0.2" stroke-opacity="0.2"/>
<path d="M16,19.03C15.672,19.012,15.338,19,15,19v5c0.338,0,0.672-0.001,1-0.002V19.03z" fill="#FFFFFF" fill-opacity="0.5" stroke-opacity="0.5"/>
<path d="M9,23.807c0.316,0.033,0.646,0.062,1,0.084v-4.156c-0.354,0.109-0.684,0.229-1,0.353V23.807z" fill-opacity="0.2" stroke-opacity="0.2"/>
<path d="M10,23.891c0.318,0.021,0.654,0.037,1,0.051v-4.475c-0.346,0.082-0.682,0.17-1,0.268V23.891z" fill="#FFFFFF" fill-opacity="0.5" stroke-opacity="0.5"/>
<path d="M19,23.941c0.346-0.014,0.682-0.029,1-0.051v-4.156c-0.318-0.098-0.654-0.186-1-0.268V23.941z" fill-opacity="0.2" stroke-opacity="0.2"/>
<path d="M20,23.891c0.354-0.022,0.684-0.051,1-0.084v-3.72c-0.316-0.124-0.646-0.243-1-0.353V23.891z" fill="#FFFFFF" fill-opacity="0.5" stroke-opacity="0.5"/>
<path d="M15,20c4.664,0,8.498,1.426,8.954,2.742C23.984,22.666,24,22.586,24,22.5c0-1.381-4.029-3.5-9-3.5  s-9,2.119-9,3.5c0,0.086,0.016,0.166,0.046,0.242C6.502,21.426,10.336,20,15,20z" fill-opacity="0.2" stroke-opacity="0.2"/>
</g>
</svg>
