<?xml version="1.0" encoding="UTF-8"?>
<!DOCTYPE svg PUBLIC "-//W3C//DTD SVG 1.1 Tiny//EN" "http://www.w3.org/Graphics/SVG/1.1/DTD/svg11-tiny.dtd">
<svg baseProfile="tiny" height="60" viewBox="0 0 60 60" width="60" xmlns="http://www.w3.org/2000/svg" xmlns:xlink="http://www.w3.org/1999/xlink">
<g>
<rect fill="none" height="60" width="60"/>
<linearGradient gradientUnits="userSpaceOnUse" id="SVGID_1" x1="30.15" x2="30.15" y1="11.3" y2="21.22">
<stop offset="0" stop-color="#D49757"/>
<stop offset="0.62" stop-color="#8A4117"/>
<stop offset="1" stop-color="#702200"/>
</linearGradient>
<path d="M49.903,15.148c0,0-18.838,0-19.228,0c-0.39,0-0.844-0.17-1.121-0.85 c-0.175-0.594-0.644-1.933-0.644-1.933c-0.177-0.548-0.417-1.04-1.208-1.04h-17.32c-0.695,0-1.202,0.589-1.202,1.314v12.154h41.932 v-8.391C51.113,15.678,50.598,15.148,49.903,15.148z" fill="url(#SVGID_1)"/>
<path d="M49.903,15.148c0,0-18.838,0-19.228,0 c-0.39,0-0.844-0.17-1.121-0.85c-0.175-0.594-0.644-1.933-0.644-1.933c-0.177-0.548-0.417-1.04-1.208-1.04h-17.32 c-0.695,0-1.202,0.589-1.202,1.314v0.612c0-0.725,0.507-1.313,1.202-1.313h17.32c0.792,0,1.031,0.491,1.208,1.04 c0,0,0.468,1.339,0.644,1.933c0.277,0.679,0.731,0.85,1.121,0.85c0.391,0,19.228,0,19.228,0c0.694,0,1.211,0.53,1.211,1.254v-0.612 C51.113,15.678,50.598,15.148,49.903,15.148z" fill="#FFF7F5" fill-opacity="0.5" stroke-opacity="0.5"/>
<rect height="7.346" width="39.484" x="10.411" y="18.06"/>
<rect fill="#F2F2F2" height="6.122" width="38.26" x="11.022" y="18.672"/>
<polygon fill="#231F20" fill-opacity="0.4" points="51.113,23.57 9.181,23.57 9.181,22.958 51.113,22.958 " stroke-opacity="0.4"/>
<polygon fill="#231F20" fill-opacity="0.15" points="51.113,22.958 9.181,22.958 9.181,22.345 51.113,22.345 " stroke-opacity="0.15"/>
<polygon fill="#231F20" fill-opacity="0.05" points="51.113,22.345 9.181,22.345 9.181,21.733 51.113,21.733 " stroke-opacity="0.05"/>
<linearGradient gradientUnits="userSpaceOnUse" id="SVGID_2" x1="30" x2="30" y1="48.67" y2="23.57">
<stop offset="0" stop-color="#C79101"/>
<stop offset="0.03" stop-color="#C79101"/>
<stop offset="0.04" stop-color="#FEEFA7"/>
<stop offset="0.33" stop-color="#FEE570"/>
<stop offset="0.67" stop-color="#F0C12B"/>
<stop offset="1" stop-color="#E6A501"/>
</linearGradient>
<path d="M52.113,23.57H7.883c-1.294,0-1.455,1.434-1.455,1.434l2.146,21.831 c0.258,1.705,1.534,1.836,1.836,1.836c0.062,0,39.113,0,39.174,0c0.302,0,1.579-0.131,1.836-1.836l2.146-21.831 C53.567,25.003,53.407,23.57,52.113,23.57z" fill="url(#SVGID_2)"/>
<path d="M7.883,24.182h44.23c0.992,0,1.316,0.838,1.414,1.232l0.04-0.411c0,0-0.16-1.434-1.454-1.434H7.883 c-1.294,0-1.455,1.434-1.455,1.434l0.041,0.411C6.566,25.021,6.89,24.182,7.883,24.182z" fill="#FCF3D0"/>
<linearGradient gradientUnits="userSpaceOnUse" id="SVGID_3" x1="29.99" x2="29.99" y1="48.67" y2="45">
<stop offset="0" stop-color="#FCDA5E"/>
<stop offset="1" stop-color="#FFB418"/>
</linearGradient>
<path d="M8.394,44.996l0.18,1.838 c0.258,1.705,1.534,1.836,1.836,1.836c0.062,0,39.113,0,39.174,0c0.302,0,1.579-0.131,1.836-1.836l0.154-1.838H8.394z" fill="url(#SVGID_3)" fill-opacity="0.25" stroke-opacity="0.25"/>
<rect fill="none" height="59.996" width="59.996"/>
</g>
<g transform="matrix(1 0 0 1 30 30)">
<linearGradient gradientTransform="matrix(1 0 0 -1 -21.02 31.5195)" gradientUnits="userSpaceOnUse" id="SVGID_1_" x1="35.96" x2="35.96" y1="27.3496" y2="23.2196">
<stop offset="0" style="stop-color:#AFED23"/>
<stop offset="1" style="stop-color:#7DC51A"/>
</linearGradient>
<path d="M23.932,7.28l-1.104-2.304c0,0-0.25-0.657-1.032-0.782H8.085C7.304,4.319,7.054,4.977,7.054,4.977  L5.948,7.28C5.68,7.582,5.617,7.968,5.604,8.197h18.672C24.264,7.968,24.201,7.582,23.932,7.28z" fill="url(#SVGID_1_)"/>
<linearGradient gradientTransform="matrix(1 0 0 -1 -21.02 31.5195)" gradientUnits="userSpaceOnUse" id="SVGID_2_" x1="35.9648" x2="35.9648" y1="24.7539" y2="6.1694">
<stop offset="0" style="stop-color:#AFED23"/>
<stop offset="0.14" style="stop-color:#AFED23"/>
<stop offset="0.69" style="stop-color:#3E8A0D"/>
<stop offset="0.95" style="stop-color:#7EF524"/>
<stop offset="1" style="stop-color:#7EF524"/>
</linearGradient>
<path d="M24.287,23.544c0,0.736-0.598,1.334-1.334,1.334H6.939c-0.738,0-1.334-0.598-1.334-1.334V8.197  c0-0.737,0.597-1.334,1.334-1.334h16.013c0.737,0,1.334,0.597,1.334,1.334L24.287,23.544L24.287,23.544z" fill="url(#SVGID_2_)"/>
<linearGradient gradientTransform="matrix(1 0 0 -1 -21.02 31.5195)" gradientUnits="userSpaceOnUse" id="SVGID_3_" x1="35.9658" x2="35.9658" y1="24.7295" y2="10.965">
<stop offset="0" style="stop-color:#67AD1A"/>
<stop offset="1" style="stop-color:#358C0C"/>
</linearGradient>
<path d="M8.274,20.207h13.344c0.737,0,1.335-0.597,1.335-1.334V6.862H6.939v12.01  C6.939,19.61,7.536,20.207,8.274,20.207z" fill="url(#SVGID_3_)"/>
<linearGradient gradientTransform="matrix(1 0 0 -1 -21.02 31.5195)" gradientUnits="userSpaceOnUse" id="SVGID_4_" x1="35.9648" x2="35.9648" y1="12.5347" y2="6.3903">
<stop offset="0" style="stop-color:#358C0C"/>
<stop offset="0.78" style="stop-color:#67AD1A"/>
<stop offset="1" style="stop-color:#AFED23"/>
</linearGradient>
<path d="M22.307,20.011c-0.157,0.095-0.334,0.156-0.525,0.18c-0.044,0.011-0.095,0.017-0.164,0.017H8.274  c-0.07,0-0.122-0.006-0.166-0.017c-0.19-0.024-0.367-0.083-0.524-0.18l-1.792,4.205c0.232,0.394,0.657,0.661,1.147,0.661h16.013  c0.489,0,0.914-0.268,1.147-0.661L22.307,20.011z" fill="url(#SVGID_4_)"/>
<linearGradient gradientTransform="matrix(1 0 0 -1 -21.02 31.5195)" gradientUnits="userSpaceOnUse" id="SVGID_5_" x1="35.9648" x2="35.9648" y1="12.4448" y2="6.8392">
<stop offset="0" style="stop-color:#0C4A06"/>
<stop offset="0.32" style="stop-color:#0A5E1C"/>
<stop offset="0.74" style="stop-color:#41AD1A"/>
<stop offset="1" style="stop-color:#89D920"/>
</linearGradient>
<path d="M7.584,20.678c0.157,0.096,0.334,0.156,0.524,0.182  c0.044,0.009,0.096,0.016,0.166,0.016h13.344c0.069,0,0.12-0.008,0.163-0.016c0.191-0.025,0.368-0.086,0.526-0.182l1.608,3.775  c0.069-0.072,0.133-0.15,0.184-0.237l-1.791-4.205c-0.158,0.097-0.335,0.157-0.526,0.181c-0.044,0.01-0.095,0.017-0.164,0.017H8.274  c-0.07,0-0.122-0.007-0.166-0.017c-0.19-0.024-0.367-0.084-0.524-0.181l-1.792,4.205c0.051,0.087,0.115,0.164,0.184,0.237  L7.584,20.678z" fill="url(#SVGID_5_)" fill-opacity="0.3" stroke-opacity="0.3"/>
<linearGradient gradientTransform="matrix(1 0 0 -1 -21.02 31.5195)" gradientUnits="userSpaceOnUse" id="SVGID_6_" x1="35.9658" x2="35.9658" y1="24.7295" y2="10.9655">
<stop offset="0" style="stop-color:#87CC1F"/>
<stop offset="0.62" style="stop-color:#086311"/>
<stop offset="1" style="stop-color:#06421E"/>
</linearGradient>
<path d="M6.939,6.863v12.01c0,0.737,0.597,1.334,1.335,1.334  h13.344c0.737,0,1.335-0.597,1.335-1.334V6.863H6.939z M22.285,18.872c0,0.368-0.3,0.669-0.668,0.669H8.274  c-0.368,0-0.669-0.3-0.669-0.669V7.53h14.68V18.872L22.285,18.872z" fill="url(#SVGID_6_)" fill-opacity="0.3" stroke-opacity="0.3"/>
<linearGradient gradientTransform="matrix(1 0 0 -1 -21.02 31.5195)" gradientUnits="userSpaceOnUse" id="SVGID_7_" x1="35.9648" x2="35.9648" y1="27.3389" y2="24.5894">
<stop offset="0" style="stop-color:#AFED23"/>
<stop offset="1" style="stop-color:#358C0C"/>
</linearGradient>
<path d="M22.952,5.528c0-0.737-0.597-1.334-1.335-1.334H8.274c-0.738,0-1.335,0.597-1.335,1.334v1.334h16.013  V5.528z" fill="url(#SVGID_7_)"/>
<path d="M6.939,6.863h16.013c0.433,0,0.813,0.209,1.058,0.529  c-0.027-0.038-0.048-0.077-0.078-0.112l-1.105-2.303c0,0-0.25-0.657-1.031-0.783H8.085C7.304,4.319,7.054,4.977,7.054,4.977  L5.948,7.28C5.854,7.386,5.793,7.501,5.742,7.616C5.958,7.172,6.41,6.863,6.939,6.863z" fill="#C7FF5A" fill-opacity="0.5" stroke-opacity="0.5"/>
<path d="M24.088,7.504c0.006,0.01,0.01,0.021,0.017,0.031C24.1,7.523,24.094,7.516,24.088,7.504z" fill="#C7FF5A"/>
<path d="M5.686,7.754C5.683,7.763,5.68,7.772,5.677,7.782C5.68,7.773,5.683,7.763,5.686,7.754z" fill="#C7FF5A"/>
<linearGradient gradientTransform="matrix(1 0 0 -1 -21.02 31.5195)" gradientUnits="userSpaceOnUse" id="SVGID_8_" x1="35.9648" x2="35.9648" y1="24.7539" y2="6.1694">
<stop offset="0" style="stop-color:#D4FFA8"/>
<stop offset="0.68" style="stop-color:#75D911"/>
<stop offset="1" style="stop-color:#7EF524"/>
</linearGradient>
<path d="M22.952,6.863H6.939c-0.738,0-1.334,0.597-1.334,1.334v15.346c0,0.737,0.597,1.335,1.334,1.335  h16.013c0.737,0,1.334-0.598,1.334-1.335V8.197C24.287,7.46,23.689,6.863,22.952,6.863z M23.62,23.544  c0,0.368-0.301,0.668-0.668,0.668H6.939c-0.367,0-0.668-0.3-0.668-0.668V8.197c0-0.368,0.3-0.667,0.668-0.667h16.013  c0.367,0,0.668,0.299,0.668,0.667V23.544z" fill="url(#SVGID_8_)"/>
<rect fill="none" height="29.998" width="29.998"/>
</g>
</svg>
