<?xml version="1.0" encoding="utf-8"?>
<!-- Generator: Adobe Illustrator 13.0.2, SVG Export Plug-In  -->
<!DOCTYPE svg PUBLIC "-//W3C//DTD SVG 1.1//EN" "http://www.w3.org/Graphics/SVG/1.1/DTD/svg11.dtd" [
	<!ENTITY ns_flows "http://ns.adobe.com/Flows/1.0/">
]>
<svg version="1.1"
	 xmlns="http://www.w3.org/2000/svg" xmlns:xlink="http://www.w3.org/1999/xlink" xmlns:a="http://ns.adobe.com/AdobeSVGViewerExtensions/3.0/"
	 x="0px" y="0px" width="138px" height="21px" viewBox="0 0 138 21" enable-background="new 0 0 138 21" xml:space="preserve">
<defs>
</defs>
<linearGradient id="SVGID_1_" gradientUnits="userSpaceOnUse" x1="68.9995" y1="-0.0752" x2="68.9995" y2="20.9253">
	<stop  offset="0" style="stop-color:#8CE0FF"/>
	<stop  offset="1" style="stop-color:#29ABE2"/>
</linearGradient>
<path fill="url(#SVGID_1_)" d="M13.583,7.992L11,0L8.417,7.992H0l6.82,4.933l-2.619,7.999L11,15.961l6.799,4.963l-2.619-7.999
	L22,7.992H13.583z M42.583,7.992L40,0l-2.583,7.992H29l6.82,4.933l-2.619,7.999L40,15.961l6.799,4.963l-2.619-7.999L51,7.992H42.583
	z M71.583,7.992L69,0l-2.583,7.992H58l6.82,4.933l-2.619,7.999L69,15.961l6.799,4.963l-2.619-7.999L80,7.992H71.583z M100.583,7.992
	L98,0l-2.583,7.992H87l6.82,4.933l-2.619,7.999L98,15.961l6.799,4.963l-2.619-7.999L109,7.992H100.583z M138,7.992h-8.417L127,0
	l-2.583,7.992H116l6.82,4.933l-2.619,7.999L127,15.961l6.798,4.963l-2.617-7.999L138,7.992z"/>
<rect fill="none" width="138" height="21"/>
</svg>
