<?xml version="1.0" encoding="UTF-8" standalone="no"?>
<!-- Generator: Adobe Illustrator 13.0.2, SVG Export Plug-In  -->
<svg
   xmlns:dc="http://purl.org/dc/elements/1.1/"
   xmlns:cc="http://creativecommons.org/ns#"
   xmlns:rdf="http://www.w3.org/1999/02/22-rdf-syntax-ns#"
   xmlns:svg="http://www.w3.org/2000/svg"
   xmlns="http://www.w3.org/2000/svg"
   xmlns:sodipodi="http://sodipodi.sourceforge.net/DTD/sodipodi-0.dtd"
   xmlns:inkscape="http://www.inkscape.org/namespaces/inkscape"
   version="1.1"
   x="0px"
   y="0px"
   width="20px"
   height="20px"
   viewBox="0 0 20 20"
   enable-background="new 0 0 20 20"
   xml:space="preserve"
   id="svg12985"
   sodipodi:version="0.32"
   inkscape:version="0.46"
   sodipodi:docname="qtg_fr_progress_v_frame_second_b.svg"
   inkscape:output_extension="org.inkscape.output.svg.inkscape"><metadata
   id="metadata13006"><rdf:RDF><cc:Work
       rdf:about=""><dc:format>image/svg+xml</dc:format><dc:type
         rdf:resource="http://purl.org/dc/dcmitype/StillImage" /></cc:Work></rdf:RDF></metadata><sodipodi:namedview
   inkscape:window-height="1031"
   inkscape:window-width="1348"
   inkscape:pageshadow="2"
   inkscape:pageopacity="0.0"
   guidetolerance="10.0"
   gridtolerance="10.0"
   objecttolerance="10.0"
   borderopacity="1.0"
   bordercolor="#666666"
   pagecolor="#ffffff"
   id="base"
   showgrid="false"
   inkscape:zoom="23.1"
   inkscape:cx="10"
   inkscape:cy="10"
   inkscape:window-x="48"
   inkscape:window-y="-4"
   inkscape:current-layer="svg12985" />
<defs
   id="defs12987"><inkscape:perspective
   sodipodi:type="inkscape:persp3d"
   inkscape:vp_x="0 : 10 : 1"
   inkscape:vp_y="0 : 1000 : 0"
   inkscape:vp_z="20 : 10 : 1"
   inkscape:persp3d-origin="10 : 6.6666667 : 1"
   id="perspective13008" />
</defs>
<linearGradient
   id="SVGID_1_"
   gradientUnits="userSpaceOnUse"
   x1="-1902.52"
   y1="-741.0005"
   x2="-1902.52"
   y2="-752.9297"
   gradientTransform="matrix(1.192488e-008 -1 -1 -1.192488e-008 -737.0194 -1894.5195)">
	<stop
   offset="0"
   style="stop-color:#CCCCCC"
   id="stop12990" />
	<stop
   offset="1"
   style="stop-color:#808080"
   id="stop12992" />
</linearGradient>
<path
   fill="url(#SVGID_1_)"
   d="M16.001,10V0.002H4V10c0,3.309,2.691,6,6.002,6C13.309,16,16.001,13.309,16.001,10L16.001,10z"
   id="path12994" />
<linearGradient
   id="SVGID_2_"
   gradientUnits="userSpaceOnUse"
   x1="300.5"
   y1="2839.917"
   x2="300.5"
   y2="2851.917"
   gradientTransform="matrix(1.192488e-008 -1 1 1.192488e-008 -2835.9998 308.0001)">
	<stop
   offset="0"
   style="stop-color:#666666"
   id="stop12997" />
	<stop
   offset="1"
   style="stop-color:#A6A6A6"
   id="stop12999" />
</linearGradient>
<path
   fill="url(#SVGID_2_)"
   d="M15.002,10.001V0H5.001v10.001c0,2.757,2.243,4.999,5.001,4.999S15.002,12.758,15.002,10.001  L15.002,10.001z"
   id="path13001" />
<rect
   fill="none"
   width="20"
   height="20"
   id="rect13003" />
<path
   style="fill:#00ffff"
   d="M 9.5844156,14.955995 C 8.8892416,14.906716 8.1572333,14.687313 7.5732714,14.353199 L 7.2683983,14.178764 L 7.2794771,7.1023688 L 7.2905584,0.025974026 L 9.0651913,0.025974026 L 10.839827,0.025974026 L 10.839827,7.4687463 L 10.839827,14.911519 L 10.612554,14.934665 C 10.156719,14.981087 9.9878225,14.984591 9.5844156,14.955995 z"
   id="path13010" /><path
   style="fill:#00ffff"
   d="M 11.359307,15.321614 C 11.359307,14.868535 11.35242,14.824548 11.285506,14.850226 C 11.244918,14.865802 11.128035,14.890014 11.025766,14.904031 L 10.839827,14.929517 L 10.839827,7.4777459 L 10.839827,0.025974026 L 12.528139,0.025974026 L 14.21645,0.025974026 L 14.217411,6.3138528 C 14.218325,12.280242 14.222199,12.596761 14.293169,12.504516 C 14.364727,12.41151 14.367636,12.444328 14.360407,13.262091 L 14.352853,14.116883 L 13.984853,14.446024 C 13.291775,15.065929 12.511113,15.498674 11.651515,15.739469 L 11.359307,15.821323 L 11.359307,15.321614 z"
   id="path13012" /><path
   style="fill:#00ffff"
   d="M 11.359307,15.302542 L 11.359307,14.821532 L 11.19697,14.852658 C 10.986026,14.893101 10.845745,14.906188 10.262165,14.939865 C 9.3890173,14.990255 8.5407329,14.808235 7.7121212,14.392696 L 7.2900433,14.181028 L 7.2900433,7.1035026 L 7.2900433,0.025974026 L 10.753247,0.025974026 L 14.21645,0.025974026 L 14.21645,6.2129095 C 14.21645,9.6157242 14.228234,12.430547 14.242632,12.468072 C 14.257026,12.505597 14.286251,12.525521 14.307567,12.512348 C 14.329844,12.498578 14.34632,12.829967 14.34632,13.29193 L 14.34632,14.095463 L 14.183983,14.240885 C 13.573221,14.788004 13.063874,15.137281 12.494987,15.39909 C 12.169727,15.548775 11.501286,15.78355 11.400364,15.78355 C 11.376944,15.78355 11.359307,15.576899 11.359307,15.302542 L 11.359307,15.302542 z"
   id="path13014" /><path
   style="fill:#00ffff"
   d="M 14.380766,13.245951 L 14.367965,12.471861 L 14.503541,12.190476 C 14.674736,11.835162 14.83997,11.313398 14.927623,10.851325 C 14.987139,10.53757 14.995671,9.8365571 14.995671,5.259287 L 14.995671,0.025974026 L 15.495403,0.025974026 L 15.995134,0.025974026 L 15.980017,5.3831169 L 15.9649,10.74026 L 15.867078,11.17316 C 15.735688,11.754646 15.588074,12.173487 15.340719,12.666667 C 15.131857,13.083097 14.689519,13.741999 14.498091,13.921839 L 14.393563,14.020038 L 14.380766,13.245951 z"
   id="path13016" /><path
   style="fill:#00ffff"
   d="M 14.24526,8.1747013 C 14.229442,5.8000437 14.216489,2.9974017 14.216476,1.9466074 C 14.21645,0.16226364 14.221455,0.034968398 14.292208,0.019363203 C 14.333874,0.010173593 14.512359,0.0096238095 14.688835,0.018141991 L 15.00971,0.033628571 L 14.979398,5.2932896 C 14.954818,9.5596974 14.93739,10.619689 14.887108,10.906346 C 14.794433,11.43469 14.472165,12.327811 14.33232,12.443873 C 14.283545,12.484354 14.26932,11.786853 14.24526,8.1747004 L 14.24526,8.1747013 z"
   id="path13018" /><path
   style="fill:#00ffff"
   d="M 11.359307,15.302313 L 11.359307,14.821076 L 11.24026,14.848692 C 11.174784,14.863882 10.819264,14.897929 10.450216,14.924354 C 9.885013,14.964822 9.7073117,14.961707 9.3231385,14.904592 C 8.7717234,14.822612 8.1751771,14.633758 7.6796537,14.384294 L 7.3116883,14.199048 L 7.3007364,7.1125095 L 7.2897844,0.025974026 L 10.753113,0.025974026 L 14.21645,0.025974026 L 14.225554,0.70779221 L 14.234662,1.3896104 L 14.258022,0.71861472 L 14.281385,0.047619048 L 15.132303,0.036520346 L 15.983225,0.025421645 L 15.961134,5.4044844 L 15.939035,10.78355 L 15.811545,11.298124 C 15.74142,11.581139 15.616498,11.98049 15.533935,12.185569 C 15.299004,12.769135 14.785052,13.609803 14.499662,13.877311 L 14.385779,13.984059 L 14.399723,13.18467 L 14.413667,12.385281 L 14.572913,12.038961 C 14.660494,11.848485 14.785758,11.507576 14.851268,11.281385 L 14.970381,10.87013 L 14.976429,6.974026 L 14.982472,3.0779221 L 14.951835,6.7142857 C 14.934987,8.7142857 14.906476,10.496753 14.888476,10.675325 C 14.836887,11.187094 14.45626,12.363636 14.342281,12.363636 C 14.320671,12.363636 14.300242,12.047462 14.296831,11.660173 C 14.29342,11.273268 14.277805,9.1158009 14.26213,6.8658009 L 14.233632,2.7748918 L 14.225039,7.5878177 C 14.217494,11.815976 14.224338,12.408632 14.281385,12.465677 C 14.334346,12.51864 14.34632,12.675852 14.34632,13.31829 L 14.34632,14.105968 L 14.158316,14.271455 C 13.55932,14.798714 13.05674,15.14079 12.506078,15.396036 C 12.191623,15.541794 11.50181,15.78355 11.400364,15.78355 C 11.376944,15.78355 11.359307,15.576814 11.359307,15.302313 z"
   id="path13020" /><path
   style="fill:#00ffff"
   d="M 7.008658,13.978275 C 6.6580121,13.725966 6.1148675,13.148817 5.8558056,12.753247 C 5.3800498,12.026797 5.1186602,11.263723 5.0402186,10.372294 C 5.0138732,10.072898 4.9962641,7.9116407 4.9960411,4.9502165 L 4.995671,0.025974026 L 6.1323861,0.025974026 L 7.2691013,0.025974026 L 7.2564264,6.9632035 C 7.2494571,10.77868 7.2395593,13.95299 7.2344316,14.017227 L 7.2251082,14.13402 L 7.008658,13.978275 z"
   id="path13022" /><path
   style="fill:#00ffff"
   d="M 6.8571429,13.824786 C 6.0639134,13.14602 5.5310182,12.331697 5.2493931,11.367965 C 5.0510437,10.689204 5.045326,10.538732 5.0129636,5.1450216 L 4.9822485,0.025974026 L 6.1145009,0.025974026 L 7.2467532,0.025974026 L 7.2405944,5.4047619 C 7.2372074,8.3630952 7.222597,11.530338 7.2081273,12.44308 L 7.1818182,14.10261 L 6.8571429,13.824786 z"
   id="path13024" /><path
   style="fill:#00ffff"
   d="M 6.0877697,14.517316 C 4.8519416,13.431691 4.1735446,12.05773 4.041155,10.372294 C 4.0196476,10.098485 4.0015892,7.6585498 4.0010251,4.9502165 L 4,0.025974026 L 4.4692442,0.025974026 L 4.9384857,0.025974026 L 4.9669896,1.1623377 C 4.9826671,1.7873377 4.9955338,4.1321883 4.9955823,6.3731173 C 4.9956797,10.792485 4.9947883,10.773469 5.2378797,11.548526 C 5.4422727,12.200199 5.9647346,13.080631 6.3750312,13.464809 L 6.5108225,13.591957 L 6.5108225,14.211561 C 6.5108225,14.552346 6.4960225,14.831169 6.4779342,14.831169 C 6.4598446,14.831169 6.284271,14.689935 6.0877693,14.517316 L 6.0877697,14.517316 z"
   id="path13026" /><path
   style="fill:#00ffff"
   d="M 6.1395147,14.531941 C 5.2996052,13.837706 4.6064208,12.766058 4.3065948,11.698283 C 4.0524372,10.793148 4.0515433,10.772921 4.0178939,5.1666667 L 3.9870398,0.025974026 L 4.4480641,0.025974026 C 4.7016294,0.025974026 4.9126424,0.030844156 4.9169831,0.036796537 C 4.9213234,0.042748918 4.9366558,1.3041126 4.951055,2.8398268 L 4.9772338,5.6320346 L 4.9864524,2.8290043 L 4.995671,0.025974026 L 6.1212121,0.025974026 L 7.2467532,0.025974026 L 7.2467532,5.0405087 C 7.2467532,7.798503 7.2338481,10.96316 7.2180749,12.073081 L 7.1893961,14.091119 L 7.0773818,14.011097 C 7.0157745,13.967084 6.8338394,13.810409 6.6730823,13.662929 C 5.8699026,12.926087 5.3499983,11.98192 5.117432,10.837809 C 5.0916775,10.711109 5.0577485,9.7188701 5.0408225,8.5974026 L 5.0104411,6.5844156 L 5.0168459,8.7056277 L 5.0232502,10.82684 L 5.1377957,11.252694 C 5.3385649,11.999116 5.8280095,12.900941 6.3132528,13.418532 L 6.5108225,13.629273 L 6.506542,13.981303 C 6.5041866,14.174919 6.4895762,14.434998 6.4740736,14.559254 L 6.4458874,14.785176 L 6.1395147,14.531941 z"
   id="path13028" /><path
   style="fill:#00ffff"
   d="M 6.1637991,14.559433 C 5.3688905,13.902982 4.6538693,12.841807 4.3475922,11.863968 C 4.0901268,11.041968 4.0804411,10.928482 4.0429636,8.2943723 C 4.0238255,6.9491342 4.0063273,4.5384199 4.0040823,2.9372294 L 4,0.025974026 L 4.4545455,0.025974026 C 4.7045455,0.025974026 4.9126307,0.030844156 4.9169571,0.036796537 C 4.9212835,0.042748918 4.9366485,1.021645 4.9511022,2.2121212 L 4.9773814,4.3766234 L 4.9865264,2.2012987 L 4.995671,0.025974026 L 6.1212121,0.025974026 L 7.2467532,0.025974026 L 7.2467532,5.4950861 C 7.2467532,8.5030965 7.233871,11.66777 7.2181264,12.527694 L 7.1894991,14.09119 L 7.0600463,13.999014 C 6.5240459,13.617346 5.9099922,12.875052 5.5850671,12.215994 C 5.145674,11.324754 5.0763355,10.954916 5.0405606,9.3116883 L 5.0122853,8.012987 L 5.0050957,9.1168831 C 4.9943017,10.773874 5.0669437,11.254997 5.4556723,12.101163 C 5.6413628,12.505364 6.1012091,13.197034 6.3339481,13.422206 L 6.5108225,13.593328 L 6.5076147,14.006621 C 6.5058489,14.233932 6.4912385,14.503719 6.4751463,14.606149 L 6.4458874,14.792387 L 6.1637991,14.559433 z"
   id="path13030" /><path
   style="fill:#00ffff"
   d="M 6.1578307,14.557684 C 5.2853684,13.817523 4.6036299,12.76156 4.2839697,11.655213 C 4.0520593,10.852567 4.0455004,10.69436 4.0144355,5.1532074 L 3.9856896,0.025974026 L 4.4473905,0.025974026 C 4.701326,0.025974026 4.9127061,0.030844156 4.9171247,0.036796537 C 4.9215424,0.042748918 4.936913,0.79761905 4.9512792,1.7142857 L 4.9774,3.3809524 L 4.9865342,1.7034632 L 4.995671,0.025974026 L 6.1212121,0.025974026 L 7.2467532,0.025974026 L 7.2467532,5.8197957 C 7.2467532,9.0063996 7.2338996,12.171003 7.2181896,12.852249 C 7.1925104,13.965746 7.1826719,14.087153 7.120787,14.053998 C 6.9670307,13.971623 6.2899723,13.2983 6.0632615,13.002309 C 5.5856892,12.378794 5.2189671,11.512671 5.1054983,10.74026 C 5.0644455,10.460796 5.0469489,10.403179 5.0436126,10.536457 C 5.0369922,10.800962 5.1544359,11.331987 5.3088965,11.735931 C 5.5382844,12.335826 6.0331212,13.136423 6.3774883,13.464809 C 6.5095654,13.590758 6.5107991,13.596064 6.5083277,14.02758 C 6.506955,14.267174 6.4922948,14.539403 6.4757476,14.632537 L 6.4456628,14.801872 L 6.1578307,14.557684 z M 5.0278797,9.1060606 C 5.0198567,8.909632 5.0132939,9.0703463 5.0132939,9.4632035 C 5.0132935,9.8560606 5.0198567,10.016775 5.0278784,9.8203463 C 5.0358983,9.6239177 5.0358996,9.3024892 5.0278784,9.1060606 L 5.0278797,9.1060606 z"
   id="path13032" /><path
   style="fill:#00ffff"
   d="M 6.1814732,14.582161 C 5.1577455,13.729982 4.404584,12.441984 4.1500766,11.108225 C 4.0586442,10.629077 4.0082831,7.9776532 4.0035061,3.3917749 L 4,0.025974026 L 4.4545455,0.025974026 C 4.7045455,0.025974026 4.9126658,0.030844156 4.9170351,0.036796537 C 4.9214035,0.042748918 4.9368351,0.63203463 4.951326,1.3463203 L 4.9776723,2.6450216 L 4.9866714,1.3354978 L 4.995671,0.025974026 L 6.1212121,0.025974026 L 7.2467532,0.025974026 L 7.2467532,6.0146351 C 7.2467532,9.3083987 7.2339234,12.473015 7.2182429,13.047116 C 7.1914372,14.028489 7.1851381,14.088477 7.1129342,14.049835 C 6.9473619,13.961223 6.2785173,13.28641 6.0319892,12.959242 C 5.577197,12.355689 5.1887948,11.429212 5.1015502,10.73982 C 5.0835026,10.597204 5.0604965,10.504618 5.0504273,10.534072 C 5.0209264,10.620363 5.115387,11.149647 5.2147004,11.454545 C 5.4274476,12.107688 5.8897442,12.924132 6.3090957,13.387313 L 6.5108225,13.610125 L 6.5057017,14.079953 C 6.5028835,14.33836 6.4882732,14.606592 6.4732333,14.676025 L 6.4458874,14.802268 L 6.1814732,14.582161 z"
   id="path13034" /><path
   style="fill:#00ffff"
   d=""
   id="path13036" /><path
   style="fill:#00ffff"
   d="M 8.1265234,15.676709 C 7.6457965,15.514521 7.2052333,15.305258 6.7827182,15.038415 L 6.5108225,14.866699 L 6.5108225,14.238673 L 6.5108225,13.610651 L 6.6731602,13.745768 C 7.2037567,14.187397 7.8354039,14.558298 8.3831169,14.749847 L 8.6753247,14.85204 L 8.6753247,15.339441 C 8.6753247,15.700897 8.661342,15.826648 8.6212121,15.826096 C 8.5914502,15.825687 8.3688398,15.758463 8.1265225,15.676709 L 8.1265234,15.676709 z"
   id="path13038" /><path
   style="fill:#00ffff"
   d="M 11.359307,15.30231 C 11.359307,14.823808 11.358753,14.82123 11.261905,14.849081 C 11.208333,14.864487 10.861714,14.899132 10.491641,14.92607 C 9.9211688,14.967597 9.7466061,14.964618 9.3444545,14.906499 C 8.7753879,14.824256 8.1794398,14.637853 7.6796537,14.385777 L 7.3116883,14.200187 L 7.3007364,7.1130805 L 7.2897844,0.025974026 L 10.753113,0.025974026 L 14.21645,0.025974026 L 14.224835,0.46969697 L 14.233216,0.91341991 L 14.257303,0.48051948 L 14.281385,0.047619048 L 15.136558,0.035880952 L 15.991732,0.024142857 L 15.965156,5.403845 L 15.938589,10.78355 L 15.810208,11.30303 C 15.739602,11.588745 15.606732,12.005059 15.514944,12.228173 C 15.308165,12.730811 14.869714,13.464574 14.598056,13.762629 L 14.393541,13.987013 L 14.391576,13.226079 L 14.38961,12.465148 L 14.56013,12.071999 C 14.653913,11.855768 14.784264,11.496889 14.849801,11.27449 L 14.968957,10.87013 L 14.976424,7.8181818 L 14.983892,4.7662338 L 14.950481,7.6516429 C 14.930017,9.4183195 14.897961,10.660367 14.867797,10.855105 C 14.840701,11.030035 14.740455,11.406926 14.64503,11.692641 C 14.476983,12.195806 14.374255,12.406002 14.321965,12.35371 C 14.308078,12.339823 14.281424,10.549037 14.26274,8.3741866 L 14.228766,4.4199134 L 14.233429,8.4422913 C 14.237113,11.618387 14.249481,12.468462 14.292208,12.482696 C 14.332931,12.496263 14.34632,12.701494 14.34632,13.312213 L 14.34632,14.123705 L 13.93081,14.466615 C 13.460909,14.854405 13.070563,15.118352 12.65471,15.329489 C 12.364814,15.476675 11.530381,15.78355 11.420052,15.78355 C 11.371563,15.78355 11.359307,15.686467 11.359307,15.30231 L 11.359307,15.30231 z"
   id="path13040" /><path
   style="fill:#00ffff"
   d="M 9.7142857,15.969348 C 9.4681602,15.957806 8.884316,15.881091 8.7510823,15.842786 C 8.6845667,15.823662 8.6753247,15.760057 8.6753247,15.321394 L 8.6753247,14.821784 L 8.7943723,14.851858 C 9.4341385,15.013478 10.160649,15.0442 10.857844,14.939117 C 11.093939,14.903532 11.293602,14.880905 11.301532,14.888836 C 11.309468,14.896768 11.328532,15.108853 11.343909,15.360138 C 11.376065,15.885702 11.418004,15.83574 10.883117,15.909089 C 10.50074,15.961523 10.046667,15.984933 9.7142857,15.969347 L 9.7142857,15.969348 z"
   id="path13042" /><path
   style="fill:#00ffff"
   d="M 10.655844,14.932368 C 10.685606,14.92036 10.734307,14.92036 10.764069,14.932369 C 10.793831,14.944378 10.769481,14.954204 10.709957,14.954204 C 10.650433,14.954204 10.626082,14.944378 10.655844,14.932369 L 10.655844,14.932368 z"
   id="path13044" /><path
   style="fill:#00ffff"
   d="M 9.4329004,15.927635 C 9.3614719,15.918776 9.1715368,15.890714 9.0108225,15.865274 L 8.7186147,15.819016 L 8.7186147,15.625569 C 8.7186147,15.507626 8.7017177,15.442563 8.6753247,15.458874 C 8.6515152,15.47359 8.6320346,15.552661 8.6320346,15.63459 C 8.6320346,15.817061 8.6187113,15.817742 8.1531424,15.659039 C 7.6531801,15.488612 7.3353749,15.342813 6.8896104,15.079366 C 6.5517061,14.879664 6.5101861,14.841339 6.5049273,14.724287 C 6.5003429,14.622265 6.494858,14.614743 6.4802714,14.690476 C 6.4699537,14.744048 6.4433247,14.787879 6.421097,14.787879 C 6.3403221,14.787879 5.3524697,13.762619 5.1489225,13.467532 C 4.664461,12.765198 4.3026883,11.910354 4.1504576,11.108225 C 4.0555939,10.608378 4.0073861,8.1453082 4.003239,3.5865801 L 4,0.025974026 L 4.4545455,0.025974026 C 4.7045455,0.025974026 4.9130377,0.030844156 4.917861,0.036796537 C 4.9226853,0.042748918 4.9380143,0.495671 4.9519268,1.04329 L 4.9772229,2.038961 L 4.9864472,1.0324675 L 4.995671,0.025974026 L 6.1212121,0.025974026 L 7.2467532,0.025974026 L 7.2467532,6.2094879 C 7.2467532,9.6104221 7.233958,12.775057 7.218319,13.24201 C 7.1919268,14.030091 7.1844874,14.088129 7.1146706,14.050764 C 6.9693147,13.972972 6.3364238,13.34832 6.114039,13.063159 C 5.8388762,12.710321 5.7936143,12.661127 5.8561892,12.782899 C 5.9272805,12.921247 6.388616,13.4937 6.5745095,13.674237 C 6.7301823,13.825425 7.4524537,14.340561 7.3441558,14.223162 C 7.3013264,14.176732 7.2900433,12.690504 7.2900433,7.0952381 L 7.2900433,0.025974026 L 10.751351,0.025974026 L 14.212658,0.025974026 L 14.227593,0.33982684 L 14.242532,0.65367965 L 14.251139,0.33982684 L 14.25974,0.025974026 L 15.129801,0.025974026 L 15.999866,0.025974026 L 15.970048,5.4047619 L 15.940225,10.78355 L 15.831264,11.238095 C 15.771342,11.488095 15.666476,11.845929 15.598234,12.033281 C 15.379472,12.633863 14.833706,13.556097 14.51813,13.858438 L 14.385771,13.985245 L 14.398532,13.185265 C 14.405541,12.745274 14.428506,12.34632 14.449563,12.298701 C 14.487823,12.212159 14.48781,12.212159 14.420619,12.298633 C 14.383649,12.346216 14.341684,12.373429 14.327364,12.359109 C 14.313043,12.344789 14.284108,10.942222 14.263061,9.2422935 L 14.224792,6.1515152 L 14.234195,9.3089987 C 14.241312,11.6992 14.256078,12.470641 14.294961,12.483601 C 14.332152,12.496 14.34632,12.725264 14.34632,13.314741 L 14.34632,14.12876 L 13.924242,14.473854 C 13.45774,14.855267 13.032727,15.141038 12.633511,15.341718 C 12.315407,15.501624 11.499299,15.790224 11.405342,15.776033 C 11.368117,15.770411 11.298701,15.787352 11.251082,15.813682 C 11.076597,15.910158 9.8911342,15.984455 9.4329004,15.927634 L 9.4329004,15.927635 z M 11.328784,14.870831 C 11.309857,14.852415 11.19697,14.85693 11.077922,14.880867 C 10.958874,14.904803 10.520563,14.926953 10.103896,14.93009 C 9.1114649,14.937563 8.6511268,14.839694 7.7662338,14.433097 C 7.3362199,14.235512 7.3496541,14.276366 7.7878788,14.498921 C 8.1442511,14.679908 8.4978359,14.821709 8.6645675,14.850509 C 8.7300069,14.861811 8.9565563,14.901046 9.1680082,14.937695 C 9.6177143,15.015638 10.313104,15.023555 10.856446,14.956919 C 11.311589,14.901099 11.310502,14.900287 11.324065,15.307359 L 11.333442,15.588745 L 11.348316,15.24653 C 11.356498,15.058313 11.347706,14.889248 11.328784,14.870832 L 11.328784,14.870831 z M 5.7748918,12.580087 C 5.7494069,12.532468 5.7188152,12.493506 5.7069104,12.493506 C 5.6950056,12.493506 5.7061169,12.532468 5.7316017,12.580087 C 5.7570866,12.627706 5.7876784,12.666667 5.7995831,12.666667 C 5.8114879,12.666667 5.8003766,12.627706 5.7748918,12.580087 z M 5.5641303,12.201299 C 5.4025939,11.880727 5.2260926,11.378553 5.1495108,11.021645 C 5.1163035,10.866883 5.0875853,10.791652 5.0856926,10.854465 C 5.0779134,11.112565 5.5630896,12.450216 5.6644818,12.450216 C 5.678274,12.450216 5.6331152,12.338203 5.564129,12.201299 L 5.5641303,12.201299 z M 14.7649,11.509614 C 14.967385,10.90849 14.992641,10.519634 14.986377,8.0995671 L 14.981671,6.2813853 L 14.947242,8.4229134 C 14.928307,9.6007541 14.892048,10.698277 14.866667,10.861852 C 14.84129,11.025429 14.751472,11.366935 14.667074,11.620757 C 14.582675,11.874579 14.50429,12.111472 14.492887,12.147186 C 14.481485,12.1829 14.50268,12.15898 14.539987,12.094029 C 14.577294,12.029079 14.678506,11.766092 14.7649,11.509614 L 14.7649,11.509614 z M 5.0676316,10.577922 C 5.0556221,10.54816 5.0457961,10.572511 5.0457961,10.632035 C 5.0457957,10.691558 5.0556221,10.715909 5.0676312,10.686147 C 5.0796398,10.656385 5.0796403,10.607684 5.0676312,10.577922 L 5.0676316,10.577922 z"
   id="path13046" /><path
   style="fill:#00ffff"
   d="M 9.4329004,15.927635 C 9.3614719,15.918776 9.1715368,15.890714 9.0108225,15.865274 L 8.7186147,15.819016 L 8.7186147,15.647214 C 8.7186147,15.543701 8.7014069,15.486045 8.6753247,15.502165 C 8.6515152,15.51688 8.6320346,15.586211 8.6320346,15.656235 C 8.6320346,15.813511 8.6039104,15.814415 8.1765104,15.670865 C 7.710919,15.51449 7.3330827,15.340724 6.8896104,15.079027 C 6.5786385,14.895521 6.5099234,14.835885 6.5058009,14.745932 C 6.5024394,14.672556 6.4942394,14.661388 6.4809814,14.712121 C 6.4700931,14.753788 6.441413,14.787879 6.4172485,14.787879 C 6.393084,14.787879 6.1361199,14.549242 5.8462173,14.257576 C 5.0182597,13.424581 4.5921139,12.711522 4.2762896,11.63066 C 4.048742,10.851909 4.0428351,10.706403 4.0138658,5.1651359 L 3.9869818,0.022912987 L 4.4588602,0.035265368 L 4.9307359,0.047619048 L 4.9539714,0.78354978 L 4.97721,1.5194805 L 4.986439,0.77272727 L 4.995671,0.025974026 L 6.1212121,0.025974026 L 7.2467532,0.025974026 L 7.2416407,6.487013 C 7.2388264,10.040584 7.224216,13.208731 7.2091719,13.527339 L 7.1818182,14.106626 L 6.965368,13.933696 C 6.7433805,13.756343 6.2953658,13.299307 6.0416147,12.991342 L 5.8989385,12.818182 L 6.0061095,12.984731 C 6.2579909,13.376172 6.7592498,13.864441 7.2034632,14.151057 L 7.3116883,14.220886 L 7.3006095,7.1234299 L 7.2895307,0.025974026 L 10.750619,0.025974026 L 14.211706,0.025974026 L 14.227922,0.23160173 L 14.244134,0.43722944 L 14.251939,0.23160173 L 14.25974,0.025974026 L 15.125541,0.025974026 L 15.991342,0.025974026 L 15.986026,2.5909091 C 15.983104,4.0016234 15.967485,6.4707792 15.95132,8.0779221 L 15.921926,11 L 15.760104,11.539759 C 15.671104,11.836626 15.510723,12.264355 15.403706,12.490268 C 15.184619,12.952756 14.726939,13.661254 14.520784,13.857037 L 14.384147,13.986802 L 14.397701,13.159025 C 14.408203,12.517513 14.399281,12.335858 14.358035,12.351732 C 14.317221,12.367439 14.301866,12.16179 14.292173,11.469658 L 14.279532,10.5671 L 14.269636,11.5 C 14.263364,12.091399 14.275948,12.449107 14.304013,12.477174 C 14.331922,12.505081 14.343922,12.823162 14.336481,13.337679 L 14.324675,14.153911 L 13.95671,14.453588 C 13.065368,15.179516 12.327268,15.561908 11.356346,15.800773 C 10.836965,15.928549 9.9252381,15.988684 9.4329004,15.927634 L 9.4329004,15.927635 z M 11.343411,14.887422 C 11.33213,14.87614 11.025532,14.890589 10.662087,14.91953 C 9.522381,15.010284 8.7332281,14.883259 7.8203463,14.462114 C 7.4464476,14.289619 7.4024013,14.301244 7.7554113,14.479249 C 8.1536952,14.680083 8.5302779,14.829312 8.7065961,14.856174 C 8.7965407,14.869877 8.9480519,14.899046 9.04329,14.920993 C 9.3615931,14.994342 10.282104,15.0173 10.770762,14.964074 C 11.308706,14.905481 11.309229,14.905727 11.323541,15.220779 C 11.33132,15.39209 11.33429,15.384972 11.348156,15.161758 C 11.356827,15.022155 11.354693,14.898703 11.343411,14.887421 L 11.343411,14.887422 z M 5.7748918,12.580087 C 5.7494069,12.532468 5.7188152,12.493506 5.7069104,12.493506 C 5.6950056,12.493506 5.7061169,12.532468 5.7316017,12.580087 C 5.7570866,12.627706 5.7876784,12.666667 5.7995831,12.666667 C 5.8114879,12.666667 5.8003766,12.627706 5.7748918,12.580087 z M 5.5497143,12.16978 C 5.4979139,12.063161 5.4481069,11.983351 5.4390316,11.992426 C 5.4194476,12.012009 5.594368,12.363636 5.6236939,12.363636 C 5.6348056,12.363636 5.6015143,12.276401 5.5497143,12.169781 L 5.5497143,12.16978 z M 14.648026,11.822511 C 14.648026,11.798701 14.629143,11.808442 14.606061,11.844156 C 14.582978,11.87987 14.564095,11.928571 14.564095,11.952381 C 14.564095,11.97619 14.582978,11.96645 14.606061,11.930736 C 14.629143,11.895022 14.648026,11.84632 14.648026,11.822511 z M 5.3905658,11.814935 C 5.3395338,11.727177 5.3272104,11.755266 5.3689844,11.864127 C 5.3838303,11.902815 5.4050965,11.925351 5.4162424,11.914205 C 5.4273879,11.90306 5.4158338,11.858387 5.3905658,11.814935 L 5.3905658,11.814935 z M 14.823247,11.322004 C 14.938242,10.920114 14.992628,9.9385368 14.986199,8.3809524 L 14.981641,7.2770563 L 14.949883,8.7705628 C 14.910234,10.635239 14.892095,10.877931 14.75774,11.34157 C 14.698126,11.547283 14.649944,11.72991 14.650667,11.747407 C 14.653922,11.826113 14.739026,11.61634 14.823247,11.322004 L 14.823247,11.322004 z M 5.2590866,11.450009 C 5.2362736,11.39298 5.2163745,11.369078 5.2148654,11.396892 C 5.2111983,11.464452 5.2616286,11.592629 5.2833342,11.570923 C 5.2928091,11.561448 5.281897,11.507036 5.2590853,11.450008 L 5.2590866,11.450009 z M 5.1850649,11.156926 C 5.1698532,11.080868 5.1483835,11.027662 5.1373545,11.038691 C 5.126326,11.049719 5.1307498,11.119971 5.1471861,11.194805 C 5.1636225,11.269639 5.1850918,11.322845 5.1948965,11.31304 C 5.2047009,11.303237 5.2002766,11.232984 5.1850649,11.156926 z M 5.1118229,10.883658 C 5.0980039,10.849124 5.0877459,10.859382 5.0856688,10.909813 C 5.0837879,10.955446 5.0940208,10.981016 5.1084056,10.966631 C 5.1227896,10.952245 5.1243281,10.914908 5.1118229,10.883658 z M 14.248779,8.4350649 C 14.241238,8.155303 14.235069,8.3841991 14.235069,8.9437229 C 14.235069,9.5032468 14.241238,9.7321429 14.248779,9.452381 C 14.25632,9.172619 14.25632,8.7148268 14.248779,8.4350649 z"
   id="path13048" /><path
   style="fill:#00ffff"
   d="M 9.2813853,15.914596 C 8.7286823,15.843185 8.7186147,15.838824 8.7186147,15.670808 C 8.7186147,15.580425 8.7010472,15.529557 8.6753247,15.545455 C 8.6515152,15.56017 8.6320346,15.619761 8.6320346,15.67788 C 8.6320346,15.811013 8.5926896,15.810371 8.1715918,15.670372 C 7.4340134,15.425153 6.5113169,14.924456 6.5101597,14.7688 C 6.5096437,14.69939 6.5009026,14.693231 6.4706762,14.740984 C 6.4204476,14.820337 6.1310017,14.582417 5.6413048,14.059253 C 4.888397,13.254889 4.3420446,12.177936 4.1460896,11.111927 C 4.0495978,10.587008 4.0062545,8.375232 4.0028294,3.8015658 L 4,0.023045022 L 4.465368,0.035331602 L 4.9307359,0.047619048 L 4.9543654,0.61038961 L 4.9779944,1.1731602 L 4.9868329,0.5995671 L 4.995671,0.025974026 L 6.1212121,0.025974026 L 7.2467532,0.025974026 L 7.2466078,6.3787879 C 7.2464619,12.855846 7.2294186,14.115613 7.142639,14.06369 C 7.116568,14.048091 7.121974,14.068288 7.1546511,14.108573 C 7.1873286,14.148858 7.2311597,14.181818 7.2520537,14.181818 C 7.2736913,14.181818 7.2900433,11.135265 7.2900433,7.1038961 L 7.2900433,0.025974026 L 10.750502,0.025974026 L 14.210965,0.025974026 L 14.228424,0.16666667 L 14.245883,0.30735931 L 14.252814,0.16666667 L 14.25974,0.025974026 L 15.132247,0.025974026 L 16.004753,0.025974026 L 15.973307,5.4402732 L 15.941866,10.854572 L 15.835667,11.263154 C 15.619126,12.096304 15.363879,12.673145 14.916697,13.339969 C 14.773844,13.552987 14.59681,13.784489 14.523286,13.854419 L 14.38961,13.981568 L 14.38961,13.1726 C 14.38961,12.677377 14.373281,12.363636 14.347511,12.363636 C 14.322965,12.363636 14.29945,12.11537 14.291126,11.768398 C 14.282857,11.423831 14.282268,11.437504 14.289727,11.800866 C 14.296814,12.146104 14.313563,12.81123 14.326948,13.278924 L 14.351281,14.129278 L 13.973905,14.44029 C 13.091719,15.167343 12.446632,15.506241 11.412567,15.785902 C 10.852749,15.937304 9.901658,15.994736 9.2813853,15.914596 z M 11.342069,14.935272 C 11.327039,14.896103 11.260476,14.876768 11.155039,14.880945 C 11.00774,14.886781 11.004338,14.889341 11.121069,14.906496 C 11.272342,14.928727 11.31187,14.977712 11.322281,15.155844 C 11.329814,15.284665 11.330017,15.284543 11.347641,15.1409 C 11.357411,15.061254 11.354905,14.968721 11.342069,14.935273 L 11.342069,14.935272 z M 10.709957,14.960719 C 10.883632,14.94005 10.734494,14.935837 10.320346,14.949713 C 9.9512987,14.962078 9.6412338,14.979424 9.6313117,14.988261 C 9.5997229,15.0164 10.417563,14.995519 10.709957,14.96072 L 10.709957,14.960719 z M 9.4978355,14.938274 C 9.4621212,14.931276 9.2867965,14.901982 9.1082251,14.873175 C 8.7375394,14.813377 8.1036498,14.611779 7.7943251,14.455312 C 7.6788225,14.396888 7.59581,14.367674 7.6098511,14.390393 C 7.6238922,14.413114 7.8191359,14.51229 8.0437251,14.610787 C 8.4695991,14.79756 9.0926113,14.955875 9.3896104,14.952793 C 9.4848485,14.951804 9.5335498,14.945271 9.4978355,14.938273 L 9.4978355,14.938274 z M 7.0735931,14.035603 C 7.0735931,14.026614 7.0395022,13.992523 6.9978355,13.959846 C 6.9291749,13.905999 6.9276437,13.90753 6.9814909,13.97619 C 7.0380437,14.048301 7.0735931,14.071233 7.0735931,14.035603 z M 6.5097866,13.5 C 6.2861593,13.267857 6.074684,13.048701 6.0398411,13.012987 C 6.005,12.977273 6.0423823,13.035714 6.1229165,13.142857 C 6.2821939,13.354761 6.8381108,13.922078 6.8864792,13.922078 C 6.9029264,13.922078 6.7334147,13.732143 6.509787,13.5 L 6.5097866,13.5 z M 14.648026,11.822511 C 14.648026,11.798701 14.629143,11.808442 14.606061,11.844156 C 14.582978,11.87987 14.564095,11.928571 14.564095,11.952381 C 14.564095,11.97619 14.582978,11.96645 14.606061,11.930736 C 14.629143,11.895022 14.648026,11.84632 14.648026,11.822511 z M 5.3905658,11.814935 C 5.3395338,11.727177 5.3272104,11.755266 5.3689844,11.864127 C 5.3838303,11.902815 5.4050965,11.925351 5.4162424,11.914205 C 5.4273879,11.90306 5.4158338,11.858387 5.3905658,11.814935 L 5.3905658,11.814935 z M 14.886766,10.935733 L 14.906091,10.69697 L 14.86839,10.899097 C 14.847654,11.010267 14.799628,11.208071 14.761667,11.33866 C 14.667892,11.661229 14.680061,11.702636 14.783199,11.411924 C 14.829528,11.281339 14.87613,11.067054 14.886762,10.935733 L 14.886766,10.935733 z M 14.941143,9.8852814 C 14.932688,9.7364719 14.925775,9.8582251 14.925775,10.155844 C 14.925775,10.453463 14.932688,10.575216 14.941143,10.426407 C 14.949597,10.277597 14.949597,10.034091 14.941143,9.8852814 z M 14.984481,8.371826 C 14.976,8.2220835 14.968991,8.3333333 14.968909,8.6190476 C 14.968823,8.9047619 14.975758,9.0272784 14.98432,8.8913069 C 14.992883,8.7553355 14.992952,8.5215688 14.984476,8.3718264 L 14.984481,8.371826 z"
   id="path13050" /><path
   style="fill:#00ffff"
   d="M 9.2475584,15.912582 C 8.7221147,15.835991 8.7186147,15.834534 8.7186147,15.692453 C 8.7186147,15.6165 8.7005268,15.573169 8.6753247,15.588745 C 8.6515152,15.60346 8.6320346,15.653311 8.6320346,15.699525 C 8.6320346,15.809907 8.5624848,15.80594 8.166345,15.672961 C 7.5255853,15.457865 6.5108225,14.924169 6.5108225,14.802269 C 6.5108225,14.770716 6.4826082,14.758133 6.4445749,14.772728 C 6.3438615,14.811375 5.3689004,13.80579 5.0700104,13.354986 C 4.629832,12.691081 4.2845935,11.854974 4.1457658,11.116626 C 4.050816,10.611641 4.0056199,8.343168 4.0026398,3.9329004 L 4,0.025974026 L 4.4746766,0.025974026 L 4.9493528,0.025974026 L 4.9633831,0.46969697 L 4.9774108,0.91341991 L 4.986542,0.46969697 L 4.995671,0.025974026 L 6.1212121,0.025974026 L 7.2467532,0.025974026 L 7.2426498,6.5519481 C 7.2403952,10.141234 7.2257848,13.316584 7.2101835,13.608283 C 7.1916351,13.955116 7.1967983,14.133631 7.2251082,14.124157 C 7.2536714,14.114597 7.2721242,11.714098 7.2793506,7.0678216 L 7.2903022,0.025974026 L 10.750368,0.025974026 L 14.210424,0.025974026 L 14.22919,0.12337662 L 14.247944,0.22077922 L 14.253844,0.12337662 L 14.25974,0.025974026 L 15.125541,0.025974026 L 15.991342,0.025974026 L 15.986281,3.1969697 C 15.983489,4.9410173 15.967805,7.4199134 15.95142,8.7056277 L 15.921628,11.04329 L 15.758749,11.562771 C 15.669165,11.848485 15.511403,12.261092 15.408169,12.479675 C 15.180732,12.961224 14.753853,13.629526 14.543623,13.833168 L 14.38961,13.982352 L 14.38961,13.197194 C 14.38961,12.765357 14.375,12.402982 14.357143,12.391916 C 14.339286,12.380851 14.324675,12.77336 14.324675,13.264158 L 14.324675,14.156522 L 13.935065,14.474644 C 13.075182,15.176757 12.437069,15.508797 11.417818,15.784494 C 10.83984,15.940833 9.8444069,15.999582 9.2475584,15.912582 z M 11.342446,14.936245 C 11.328887,14.900919 11.267173,14.876984 11.198329,14.880354 C 11.093658,14.885479 11.090879,14.888731 11.177056,14.905237 C 11.246758,14.918586 11.284996,14.96503 11.305861,15.061679 C 11.331641,15.18111 11.337541,15.185948 11.350844,15.098583 C 11.359268,15.043281 11.355485,14.970228 11.342446,14.936245 L 11.342446,14.936245 z M 10.244589,14.97263 C 10.143398,14.963518 9.9778139,14.963518 9.8766234,14.972632 C 9.7754329,14.981747 9.8582251,14.989203 10.060606,14.989203 C 10.262987,14.989204 10.345779,14.981746 10.244589,14.972632 L 10.244589,14.97263 z M 9.4229004,14.932643 C 9.3935931,14.920785 9.3351515,14.920064 9.2930303,14.931039 C 9.2509134,14.942015 9.2748918,14.951717 9.3463203,14.9526 C 9.4177489,14.953482 9.4522121,14.944502 9.4229004,14.932643 z M 10.699134,14.931198 C 10.657468,14.92031 10.589286,14.92031 10.547619,14.931198 C 10.505952,14.942087 10.540043,14.950996 10.623377,14.950996 C 10.70671,14.950995 10.740801,14.942087 10.699134,14.931198 z M 8.9445532,14.849498 C 8.7950078,14.816743 8.5330333,14.741388 8.362387,14.682043 C 8.1917411,14.622698 8.045429,14.580834 8.0372511,14.589012 C 7.988713,14.637549 8.9101996,14.914611 9.1082251,14.911019 C 9.1677489,14.909939 9.0940961,14.882255 8.9445519,14.849499 L 8.9445532,14.849498 z M 7.9790775,14.55529 C 7.9348801,14.515743 7.6796537,14.398224 7.6796537,14.417419 C 7.6796537,14.444329 7.9040948,14.567366 7.9574316,14.569695 C 7.9792558,14.570648 7.988997,14.564166 7.9790766,14.555289 L 7.9790775,14.55529 z M 6.487119,13.478355 C 6.2749874,13.258117 6.0934987,13.068182 6.0838104,13.056277 C 6.0741203,13.044372 6.0864814,13.073593 6.1112762,13.121212 C 6.1652554,13.224882 6.794884,13.878788 6.8407247,13.878788 C 6.8583723,13.878788 6.6992494,13.698593 6.4871186,13.478355 L 6.487119,13.478355 z M 14.858602,11.08658 C 14.858303,11.038961 14.830957,11.097403 14.797831,11.21645 C 14.764706,11.335498 14.739268,11.452381 14.741303,11.47619 C 14.747571,11.549451 14.859182,11.178738 14.858602,11.08658 z M 14.894476,10.837662 C 14.882463,10.8079 14.872636,10.832251 14.872636,10.891775 C 14.872632,10.951299 14.882463,10.975649 14.894472,10.945887 C 14.906476,10.916126 14.906481,10.867424 14.894472,10.837662 L 14.894476,10.837662 z M 14.940407,10.058442 C 14.930805,9.9810606 14.922948,10.044372 14.922948,10.199134 C 14.922948,10.353896 14.930805,10.417208 14.940407,10.339827 C 14.950009,10.262446 14.950009,10.135823 14.940407,10.058442 z"
   id="path13052" /><path
   style="fill:#00ffff"
   d="M 9.2164502,15.910741 C 8.7132706,15.827546 8.7186147,15.829629 8.7186147,15.716653 C 8.7186147,15.658207 8.6991342,15.61039 8.6753247,15.61039 C 8.6515152,15.61039 8.6320346,15.649351 8.6320346,15.69697 C 8.6320346,15.810188 8.564816,15.806723 8.166345,15.672961 C 7.5255853,15.457865 6.5108225,14.924169 6.5108225,14.802269 C 6.5108225,14.770716 6.4826082,14.758133 6.4445749,14.772728 C 6.3436823,14.811444 5.3682372,13.805258 5.0743394,13.359307 C 4.6042701,12.646043 4.2856177,11.874737 4.147258,11.11529 C 4.0459165,10.559036 4.005203,8.5582918 4.0024221,3.9978355 L 4,0.025974026 L 4.4742935,0.025974026 L 4.9485866,0.025974026 L 4.9635286,0.33982684 L 4.9784675,0.65367965 L 4.987068,0.33982684 L 4.995671,0.025974026 L 6.1210667,0.025974026 L 7.2464628,0.025974026 L 7.2575758,6.2922078 L 7.2686913,12.558442 L 7.2793688,6.2922078 L 7.2900433,0.025974026 L 10.750078,0.025974026 C 14.008935,0.025974026 14.211251,0.030378355 14.2299,0.1017316 C 14.248753,0.17388182 14.249935,0.17388182 14.254719,0.1017316 C 14.259325,0.032274026 14.33174,0.025974026 15.125541,0.025974026 L 15.991342,0.025974026 L 15.986338,3.3917749 C 15.983584,5.2429654 15.968061,7.7316017 15.951848,8.9220779 L 15.922364,11.08658 L 15.72471,11.670996 C 15.616,11.992424 15.448481,12.411255 15.35245,12.601732 C 15.152502,12.998323 14.717303,13.666138 14.534948,13.856183 L 14.411255,13.985092 L 14.390494,13.228478 L 14.369732,12.471861 L 14.347203,13.314442 L 14.324675,14.157024 L 13.935065,14.474895 C 13.087935,15.166049 12.433472,15.512442 11.503394,15.761926 C 10.833195,15.941699 9.8074199,16.008448 9.2164502,15.910739 L 9.2164502,15.910741 z M 11.31429,14.937315 C 11.285602,14.902744 11.23042,14.876719 11.191671,14.879481 C 11.132195,14.883718 11.133017,14.887587 11.196939,14.904294 C 11.238589,14.915179 11.286398,14.976232 11.303177,15.039965 C 11.326359,15.128001 11.337628,15.137141 11.350074,15.078007 C 11.359087,15.035196 11.342983,14.971885 11.31429,14.937314 L 11.31429,14.937315 z M 10.114719,14.975658 C 10.084957,14.96365 10.036255,14.96365 10.006494,14.975659 C 9.9767316,14.987668 10.001082,14.997494 10.060606,14.997494 C 10.12013,14.997494 10.144481,14.987668 10.114719,14.975659 L 10.114719,14.975658 z M 9.3995325,14.934884 C 9.3851472,14.9205 9.3478095,14.918962 9.3165584,14.931467 C 9.282026,14.945286 9.2922814,14.955544 9.3427143,14.957621 C 9.3883463,14.959502 9.4139177,14.949269 9.3995325,14.934884 L 9.3995325,14.934884 z M 8.6320346,14.771978 C 8.4534632,14.718164 8.258658,14.658346 8.1991342,14.639049 C 8.1396104,14.619752 8.1038286,14.617679 8.119619,14.634443 C 8.1623056,14.679763 8.7699584,14.870645 8.8701299,14.870203 C 8.9177489,14.869993 8.8106061,14.825791 8.6320346,14.771977 L 8.6320346,14.771978 z M 7.2354286,13.523096 C 7.2266563,13.397298 7.2193866,13.489177 7.219274,13.727273 C 7.2191615,13.965368 7.2263385,14.068294 7.2352238,13.955997 C 7.2441104,13.8437 7.2442013,13.648894 7.2354286,13.523096 L 7.2354286,13.523096 z M 6.7705628,13.780226 C 6.7705628,13.773633 6.6302043,13.6324 6.458655,13.466371 C 6.1939113,13.210146 6.1791273,13.200504 6.3608866,13.402597 C 6.6036424,13.672512 6.7705628,13.826373 6.7705628,13.780224 L 6.7705628,13.780226 z M 14.808792,11.273268 C 14.794974,11.238735 14.784714,11.248992 14.782636,11.299423 C 14.780758,11.345057 14.790991,11.370626 14.805377,11.356241 C 14.819762,11.341855 14.821299,11.304518 14.808792,11.273268 z M 14.852082,11.100108 C 14.838264,11.065574 14.828004,11.075832 14.825926,11.126263 C 14.824048,11.171897 14.834281,11.197466 14.848667,11.183081 C 14.863052,11.168695 14.864589,11.131358 14.852082,11.100108 z"
   id="path13054" /><path
   style="fill:#00ffff"
   d="M 9.3030303,15.92699 C 8.8814623,15.872631 8.7186147,15.819743 8.7186147,15.73719 C 8.7186147,15.691261 8.6991342,15.65368 8.6753247,15.65368 C 8.6515152,15.65368 8.6320346,15.6829 8.6320346,15.718615 C 8.6320346,15.818991 8.4923935,15.79748 8.0349061,15.626627 C 7.4155519,15.395326 6.5639944,14.945619 6.5180377,14.825572 C 6.5101,14.80484 6.4731238,14.787879 6.4358658,14.787879 C 6.3197403,14.787879 5.3346225,13.754252 5.0743394,13.359307 C 4.5967398,12.634617 4.2879247,11.889809 4.1498805,11.129681 C 4.0446173,10.550052 4.005603,8.67791 4.0026143,4.0627706 L 4,0.025974026 L 4.4738177,0.025974026 L 4.9476381,0.025974026 L 4.9638506,0.23160173 L 4.9800662,0.43722944 L 4.9878684,0.23160173 L 4.995671,0.025974026 L 6.1210221,0.025974026 L 7.2463701,0.025974026 L 7.2575784,4.7554113 L 7.268784,9.4848485 L 7.2794139,4.7554113 L 7.2900433,0.025974026 L 10.749641,0.025974026 C 13.47681,0.025974026 14.213857,0.037430303 14.231069,0.08008658 C 14.248541,0.12337662 14.253589,0.12337662 14.256325,0.08008658 C 14.258935,0.038714286 14.463584,0.025974026 15.125541,0.025974026 L 15.991342,0.025974026 L 15.986602,3.5 C 15.983991,5.4107143 15.968528,7.8993506 15.952234,9.030303 L 15.922615,11.08658 L 15.741165,11.629537 C 15.524974,12.27646 15.255078,12.845302 14.94642,13.304555 C 14.69161,13.683693 14.469874,13.963425 14.423234,13.964587 C 14.406013,13.965016 14.38597,13.67803 14.378697,13.32684 L 14.365468,12.688312 L 14.355892,13.409137 L 14.34632,14.129962 L 14.097403,14.342584 C 12.994013,15.285081 11.944199,15.772392 10.713281,15.913451 C 10.35639,15.954349 9.5734892,15.961866 9.3030303,15.926991 L 9.3030303,15.92699 z M 8.7501814,14.805013 C 8.7357957,14.790629 8.6984576,14.789092 8.6672078,14.801597 C 8.632674,14.815416 8.6429316,14.825674 8.6933623,14.827751 C 8.7389961,14.829632 8.7645654,14.819399 8.7501805,14.805014 L 8.7501814,14.805013 z M 8.4588745,14.722944 C 8.2612251,14.646829 8.1834606,14.647953 8.3506494,14.724507 C 8.4220779,14.757213 8.5097403,14.78337 8.5454545,14.782633 C 8.5811688,14.781894 8.5422078,14.755035 8.4588745,14.722944 z M 6.7272727,13.736468 C 6.7272727,13.72962 6.625,13.627348 6.5,13.509195 L 6.2727273,13.294372 L 6.4875498,13.521645 C 6.6871675,13.732831 6.7272727,13.768771 6.7272727,13.736468 L 6.7272727,13.736468 z"
   id="path13056" /><path
   style="fill:#00ffff"
   d="M 9.1515152,15.911716 C 8.7490745,15.842626 8.7186147,15.830504 8.7186147,15.739435 C 8.7186147,15.692269 8.6991342,15.65368 8.6753247,15.65368 C 8.6515152,15.65368 8.6320346,15.6829 8.6320346,15.718615 C 8.6320346,15.755152 8.5933446,15.78355 8.5435641,15.78355 C 8.2866861,15.78355 6.8182693,15.117065 6.5717186,14.888569 C 6.5119636,14.83319 6.4417087,14.787879 6.4155978,14.787879 C 6.3158117,14.787879 5.3099714,13.71691 5.0704139,13.355592 C 4.7526009,12.876244 4.42461,12.185548 4.2807281,11.692641 C 4.0446823,10.883996 4.038755,10.739521 4.0130316,5.1666667 L 3.9893017,0.025974026 L 4.4681,0.025974026 L 4.9468957,0.025974026 L 4.9643554,0.16666667 L 4.9818152,0.30735931 L 4.9887433,0.16666667 L 4.995671,0.025974026 L 6.1209268,0.025974026 L 7.2461853,0.025974026 L 7.257581,3.1536797 L 7.2689771,6.2813853 L 7.2795087,3.1536797 L 7.2900433,0.025974026 L 10.749641,0.025974026 C 13.47681,0.025974026 14.213857,0.037430303 14.231069,0.08008658 C 14.248541,0.12337662 14.253589,0.12337662 14.256325,0.08008658 C 14.258935,0.038714286 14.463584,0.025974026 15.125541,0.025974026 L 15.991342,0.025974026 L 15.986576,3.6515152 C 15.983952,5.6455628 15.967983,8.1439394 15.951082,9.2034632 L 15.920355,11.12987 L 15.717394,11.705146 C 15.515641,12.276972 15.26468,12.821965 15.047182,13.160582 C 14.844693,13.475832 14.469567,13.965368 14.430485,13.965368 C 14.409563,13.965368 14.386234,13.746212 14.378636,13.478355 L 14.364827,12.991342 L 14.354662,13.575758 L 14.344494,14.160173 L 13.932273,14.484848 C 12.966437,15.245562 12.189571,15.630996 11.186147,15.847306 C 10.79955,15.930645 9.5011905,15.971748 9.1515152,15.911716 L 9.1515152,15.911716 z M 6.6839827,13.692081 C 6.6839827,13.684632 6.620671,13.62132 6.54329,13.551389 L 6.4025974,13.424242 L 6.5297433,13.564935 C 6.6482628,13.696081 6.6839827,13.725526 6.6839827,13.692082 L 6.6839827,13.692081 z"
   id="path13058" /><path
   style="fill:#00ffff"
   d="M 9.1515152,15.911716 C 8.7679909,15.845874 8.7186147,15.828692 8.7186147,15.76108 C 8.7186147,15.725819 8.6991342,15.69697 8.6753247,15.69697 C 8.6515152,15.69697 8.6320346,15.71645 8.6320346,15.74026 C 8.6320346,15.815929 8.4744403,15.787629 8.0596113,15.637468 C 7.5358641,15.44788 7.0102753,15.183756 6.5661229,14.886949 C 6.1598173,14.615434 5.4617667,13.914328 5.1226433,13.437154 C 4.6772351,12.810426 4.2590459,11.807503 4.1275056,11.050555 C 4.0454775,10.578521 4.0048437,8.3301688 4.0023926,4.1277056 L 4,0.025974026 L 4.4731784,0.025974026 C 4.9294658,0.025974026 4.947029,0.029451515 4.9651199,0.12337662 L 4.9838814,0.22077922 L 4.9897762,0.12337662 L 4.995671,0.025974026 L 6.1207628,0.025974026 L 7.2458524,0.025974026 L 7.2575861,1.9415584 L 7.2693229,3.8571429 L 7.2796831,1.9413961 L 7.2900433,0.025648918 L 11.640693,0.026393939 L 15.991342,0.027139394 L 15.986281,3.7603242 C 15.983494,5.8135736 15.968026,8.3116883 15.951905,9.3116883 L 15.922602,11.12987 L 15.760528,11.606061 C 15.534468,12.270253 15.094385,13.13799 14.756078,13.58658 C 14.598957,13.794913 14.453022,13.965368 14.431762,13.965368 C 14.410502,13.965368 14.38655,13.804654 14.378528,13.608225 C 14.364312,13.260148 14.363719,13.262642 14.35513,13.706501 L 14.34632,14.161919 L 13.918935,14.495761 C 13.683874,14.679372 13.386797,14.900251 13.258762,14.986602 C 12.710385,15.356449 11.847221,15.714541 11.170623,15.852886 C 10.794463,15.9298 9.4799437,15.968101 9.1515152,15.911716 L 9.1515152,15.911716 z"
   id="path13060" /><path
   style="fill:#00ffff"
   d="M 9.1515152,15.911716 C 8.7679909,15.845874 8.7186147,15.828692 8.7186147,15.76108 C 8.7186147,15.725819 8.6991342,15.69697 8.6753247,15.69697 C 8.6515152,15.69697 8.6320346,15.71645 8.6320346,15.74026 C 8.6320346,15.815929 8.4744403,15.787629 8.0596113,15.637468 C 7.5358641,15.44788 7.0102753,15.183756 6.5661229,14.886949 C 6.1598173,14.615434 5.4617667,13.914328 5.1226433,13.437154 C 4.6772351,12.810426 4.2590459,11.807503 4.1275056,11.050555 C 4.0454775,10.578521 4.0048437,8.3301688 4.0023926,4.1277056 L 4,0.025974026 L 4.4731784,0.025974026 C 4.9294658,0.025974026 4.947029,0.029451515 4.9651199,0.12337662 L 4.9838814,0.22077922 L 4.9897762,0.12337662 L 4.995671,0.025974026 L 6.1207628,0.025974026 L 7.2458524,0.025974026 L 7.2575861,1.9415584 L 7.2693229,3.8571429 L 7.2796831,1.9413961 L 7.2900433,0.025648918 L 11.640693,0.026393939 L 15.991342,0.027139394 L 15.986281,3.7603242 C 15.983494,5.8135736 15.968026,8.3116883 15.951905,9.3116883 L 15.922602,11.12987 L 15.760528,11.606061 C 15.534468,12.270253 15.094385,13.13799 14.756078,13.58658 C 14.598957,13.794913 14.453022,13.965368 14.431762,13.965368 C 14.410502,13.965368 14.38655,13.804654 14.378528,13.608225 C 14.364312,13.260148 14.363719,13.262642 14.35513,13.706501 L 14.34632,14.161919 L 13.918935,14.495761 C 13.683874,14.679372 13.386797,14.900251 13.258762,14.986602 C 12.710385,15.356449 11.847221,15.714541 11.170623,15.852886 C 10.794463,15.9298 9.4799437,15.968101 9.1515152,15.911716 L 9.1515152,15.911716 z"
   id="path13062" /><path
   style="fill:#00ffff"
   d="M 9.1515152,15.911716 C 8.7679909,15.845874 8.7186147,15.828692 8.7186147,15.76108 C 8.7186147,15.725819 8.6991342,15.69697 8.6753247,15.69697 C 8.6515152,15.69697 8.6320346,15.71645 8.6320346,15.74026 C 8.6320346,15.815929 8.4744403,15.787629 8.0596113,15.637468 C 7.5358641,15.44788 7.0102753,15.183756 6.5661229,14.886949 C 6.1598173,14.615434 5.4617667,13.914328 5.1226433,13.437154 C 4.6772351,12.810426 4.2590459,11.807503 4.1275056,11.050555 C 4.0454775,10.578521 4.0048437,8.3301688 4.0023926,4.1277056 L 4,0.025974026 L 4.4731784,0.025974026 C 4.9294658,0.025974026 4.947029,0.029451515 4.9651199,0.12337662 L 4.9838814,0.22077922 L 4.9897762,0.12337662 L 4.995671,0.025974026 L 6.1207628,0.025974026 L 7.2458524,0.025974026 L 7.2575861,1.9415584 L 7.2693229,3.8571429 L 7.2796831,1.9413961 L 7.2900433,0.025648918 L 11.640693,0.026393939 L 15.991342,0.027139394 L 15.986281,3.7603242 C 15.983494,5.8135736 15.968026,8.3116883 15.951905,9.3116883 L 15.922602,11.12987 L 15.760528,11.606061 C 15.534468,12.270253 15.094385,13.13799 14.756078,13.58658 C 14.598957,13.794913 14.453022,13.965368 14.431762,13.965368 C 14.410502,13.965368 14.38655,13.804654 14.378528,13.608225 C 14.364312,13.260148 14.363719,13.262642 14.35513,13.706501 L 14.34632,14.161919 L 13.918935,14.495761 C 13.683874,14.679372 13.386797,14.900251 13.258762,14.986602 C 12.710385,15.356449 11.847221,15.714541 11.170623,15.852886 C 10.794463,15.9298 9.4799437,15.968101 9.1515152,15.911716 L 9.1515152,15.911716 z"
   id="path13064" /><path
   style="fill:#ff8080"
   d="M 9.1515152,15.911716 C 8.7679909,15.845874 8.7186147,15.828692 8.7186147,15.76108 C 8.7186147,15.725819 8.6991342,15.69697 8.6753247,15.69697 C 8.6515152,15.69697 8.6320346,15.71645 8.6320346,15.74026 C 8.6320346,15.815929 8.4744403,15.787629 8.0596113,15.637468 C 7.5358641,15.44788 7.0102753,15.183756 6.5661229,14.886949 C 6.1598173,14.615434 5.4617667,13.914328 5.1226433,13.437154 C 4.6772351,12.810426 4.2590459,11.807503 4.1275056,11.050555 C 4.0454775,10.578521 4.0048437,8.3301688 4.0023926,4.1277056 L 4,0.025974026 L 4.4731784,0.025974026 C 4.9294658,0.025974026 4.947029,0.029451515 4.9651199,0.12337662 L 4.9838814,0.22077922 L 4.9897762,0.12337662 L 4.995671,0.025974026 L 6.1207628,0.025974026 L 7.2458524,0.025974026 L 7.2575861,1.9415584 L 7.2693229,3.8571429 L 7.2796831,1.9413961 L 7.2900433,0.025648918 L 11.640693,0.026393939 L 15.991342,0.027139394 L 15.986281,3.7603242 C 15.983494,5.8135736 15.968026,8.3116883 15.951905,9.3116883 L 15.922602,11.12987 L 15.760528,11.606061 C 15.534468,12.270253 15.094385,13.13799 14.756078,13.58658 C 14.598957,13.794913 14.453022,13.965368 14.431762,13.965368 C 14.410502,13.965368 14.38655,13.804654 14.378528,13.608225 C 14.364312,13.260148 14.363719,13.262642 14.35513,13.706501 L 14.34632,14.161919 L 13.918935,14.495761 C 13.683874,14.679372 13.386797,14.900251 13.258762,14.986602 C 12.710385,15.356449 11.847221,15.714541 11.170623,15.852886 C 10.794463,15.9298 9.4799437,15.968101 9.1515152,15.911716 L 9.1515152,15.911716 z"
   id="path13066" /><path
   style="fill:#ff8080"
   d="M 8.978355,15.865366 C 8.8712121,15.840623 8.7640693,15.797481 8.7402597,15.769497 C 8.7164502,15.741513 8.6093074,15.717555 8.5021645,15.716261 C 8.1119831,15.711545 6.9225918,15.146972 6.3549844,14.697051 C 5.9733671,14.394557 5.346668,13.724488 5.1040736,13.359574 C 4.7219563,12.784787 4.4017485,12.050417 4.2159606,11.322758 C 4.0870961,10.818047 4.0535641,9.6428792 4.019919,4.452381 L 3.9912251,0.025974026 L 4.1795965,0.026281818 C 4.6132848,0.026990476 4.9480074,0.080047619 4.9669996,0.15109437 C 4.9790771,0.19627662 4.9873931,0.18653117 4.9906494,0.12337662 L 4.995671,0.025974026 L 6.1207364,0.025974026 L 7.2458048,0.025974026 L 7.2575892,1.8333333 L 7.2693732,3.6406926 L 7.2797095,1.8333333 L 7.2900433,0.025974026 L 11.63897,0.025974026 L 15.987896,0.025974026 L 15.967853,3.1753247 C 15.956827,4.9074675 15.938957,7.4092381 15.928143,8.7348147 L 15.908489,11.144955 L 15.714922,11.6624 C 15.406723,12.486304 14.944835,13.338834 14.549398,13.813671 L 14.441398,13.943361 L 14.412749,13.72709 C 14.364511,13.362873 14.35655,13.367012 14.351342,13.759007 L 14.34632,14.137062 L 13.91026,14.473291 C 13.141476,15.066074 12.718762,15.310919 11.98471,15.588619 C 11.358931,15.825356 11.056823,15.873632 10.082251,15.892632 C 9.5392857,15.903218 9.0947052,15.892236 8.978355,15.865367 L 8.978355,15.865366 z"
   id="path13088" /><path
   style="fill:#ff8080"
   d="M 8.978355,15.864293 C 8.8712121,15.838959 8.7594758,15.798532 8.7300519,15.774455 C 8.7006273,15.750378 8.5934853,15.726537 8.4919567,15.721474 C 8.0825165,15.701059 6.9143286,15.141184 6.3549844,14.697295 C 5.9729831,14.394142 5.3464615,13.724178 5.1042368,13.35982 C 4.7128628,12.771109 4.3906134,12.022548 4.1959338,11.2499 C 4.0890597,10.825736 4.0509082,9.3709359 4.0186268,4.4887567 L 3.9890268,0.012145887 L 4.4573857,0.040802165 C 4.7564848,0.059102597 4.9381424,0.088979654 4.9600459,0.12347403 C 4.9844701,0.16193723 4.9945359,0.15567792 4.9950082,0.1017316 C 4.9956225,0.031541991 5.0783524,0.025974026 6.1206208,0.025974026 L 7.2455697,0.025974026 L 7.257597,1.4437229 L 7.2696242,2.8614719 L 7.2798338,1.4437229 L 7.2900433,0.025974026 L 11.640693,0.025974026 L 15.991342,0.025974026 L 15.989035,0.9025974 C 15.987762,1.3847403 15.970554,3.8831169 15.950792,6.4545455 L 15.914861,11.12987 L 15.718113,11.65486 C 15.411035,12.474216 14.99432,13.255449 14.592264,13.765532 C 14.474887,13.914445 14.456082,13.924341 14.427719,13.852112 C 14.410108,13.807259 14.390753,13.702381 14.384714,13.619048 C 14.37868,13.535714 14.362697,13.623377 14.349203,13.813853 L 14.324675,14.160173 L 13.82684,14.539553 C 12.977792,15.186575 12.270182,15.546241 11.407554,15.769236 C 11.044303,15.863138 10.875662,15.878963 10.082251,15.893592 C 9.5287706,15.903797 9.096958,15.892337 8.978355,15.864293 z"
   id="path13090" /><path
   style="fill:#ff8080"
   d="M 8.978355,15.864771 C 8.8712121,15.839702 8.7650433,15.80143 8.7424242,15.779725 C 8.7198056,15.75802 8.6404251,15.74026 8.5660238,15.74026 C 8.2590892,15.74026 7.2309589,15.297948 6.6406926,14.911963 C 6.2464013,14.654129 5.3632524,13.758813 5.0877857,13.337662 C 4.7040758,12.751023 4.4059887,12.068361 4.2186983,11.347334 C 4.0860952,10.836843 4.0523745,9.6909221 4.0175078,4.510432 L 3.9872329,0.012205628 L 4.4551745,0.038705628 C 4.7665342,0.056337229 4.9350346,0.083990909 4.9587312,0.12134675 C 4.9852147,0.16309394 4.9945152,0.15806537 4.9950082,0.1017316 C 4.9956225,0.031542424 5.0783433,0.025974026 6.1204286,0.025974026 L 7.2451866,0.025974026 L 7.2576126,1.0541126 L 7.2700416,2.0822511 L 7.2800424,1.0541126 L 7.2900433,0.025974026 L 11.640693,0.025974026 L 15.991342,0.025974026 L 15.988991,1.3354978 C 15.987701,2.0557359 15.970139,4.5541126 15.94997,6.8874459 L 15.913294,11.12987 L 15.776074,11.519481 C 15.508139,12.280257 14.992913,13.257261 14.590329,13.767977 L 14.45587,13.938552 L 14.404416,13.767976 L 14.352974,13.597403 L 14.34858,13.878788 L 14.34419,14.160173 L 13.819528,14.549784 C 13.147797,15.0486 12.702584,15.308955 12.153429,15.524094 C 11.392584,15.822166 11.109074,15.872613 10.082251,15.892632 C 9.5315758,15.903368 9.0963567,15.892384 8.978355,15.864772 L 8.978355,15.864771 z"
   id="path13092" /><path
   style="fill:#ffaaaa"
   d="M 8.9814597,15.869416 C 8.8760238,15.847032 8.769855,15.808816 8.7455286,15.78449 C 8.7212026,15.760162 8.6385654,15.74026 8.5618909,15.74026 C 8.2457017,15.74026 7.2525745,15.30922 6.6152359,14.895368 C 6.2281519,14.644016 5.358442,13.749596 5.064361,13.300426 C 4.6878359,12.725332 4.3914576,12.04489 4.2208255,11.363786 C 4.0844061,10.819246 4.0513844,9.7171935 4.016771,4.5536965 L 3.9863264,0.012154113 L 4.4547225,0.038679221 C 4.7664299,0.056331602 4.9350307,0.083985281 4.9587312,0.12134675 C 4.9852147,0.16309394 4.9945152,0.15806537 4.9950082,0.1017316 C 4.9956225,0.031542857 5.0783307,0.025974026 6.1201654,0.025974026 L 7.2446606,0.025974026 L 7.2576498,0.75108225 L 7.270639,1.4761905 L 7.2803411,0.75108225 L 7.2900433,0.025974026 L 11.640693,0.025974026 L 15.991342,0.025974026 L 15.98874,1.6385281 C 15.987316,2.5254329 15.969494,5.0335498 15.949143,7.2121212 L 15.912134,11.17316 L 15.719926,11.670996 C 15.514948,12.201925 15.256385,12.741829 15.00468,13.164502 C 14.811844,13.488312 14.474485,13.934802 14.444961,13.905277 C 14.432805,13.893126 14.407636,13.818881 14.389022,13.740292 C 14.360861,13.621401 14.354394,13.644659 14.350498,13.878788 L 14.345814,14.160173 L 13.795788,14.568662 C 13.123801,15.06773 12.727498,15.298169 12.153429,15.523649 C 11.393749,15.822036 11.109727,15.872617 10.082251,15.89251 C 9.5822511,15.902191 9.0868948,15.891798 8.9814593,15.869415 L 8.9814597,15.869416 z"
   id="path13094" /><path
   style="fill:#ffaaaa"
   d="M 8.7835498,15.808249 C 8.6883117,15.77482 8.4545455,15.70556 8.2640693,15.654339 C 7.886568,15.552824 7.3126268,15.295629 6.8148424,15.004907 C 6.4459026,14.789435 5.5998152,13.99058 5.2321749,13.510593 C 4.7554584,12.888199 4.2774325,11.76798 4.1739879,11.030813 C 4.1020152,10.517917 4.0494065,8.1410082 4.0172273,3.9481381 L 3.9870268,0.013159307 L 4.4137234,0.044481385 C 4.6484065,0.061707792 4.8737801,0.093656277 4.9145532,0.11547749 C 4.9650498,0.14250173 4.9943874,0.13800866 5.0065662,0.10138571 C 5.020029,0.060898268 5.2985234,0.044281818 6.1342026,0.034106061 L 7.2439576,0.020593074 L 7.2576922,0.53194113 L 7.2714264,1.04329 L 7.2807346,0.53463203 L 7.2900433,0.025974026 L 11.640693,0.025974026 L 15.991342,0.025974026 L 15.99084,0.85930736 C 15.988784,4.2671156 15.898485,11.188641 15.854589,11.30303 C 15.444312,12.372247 14.984372,13.251574 14.542944,13.810693 C 14.471905,13.900674 14.469632,13.900048 14.397312,13.770563 C 14.356957,13.698309 14.348662,13.72338 14.34719,13.922078 L 14.345429,14.160173 L 13.80545,14.549784 C 12.905247,15.199302 12.372268,15.476778 11.554113,15.721865 C 11.183338,15.832933 11.11113,15.839312 10.060606,15.853803 C 9.1930009,15.865771 8.9196446,15.85602 8.7835498,15.808249 z"
   id="path13096" /><path
   style="fill:#ffd5d5"
   d="M 8.7402597,15.800328 C 7.9759944,15.572728 7.7730139,15.499124 7.3811364,15.307487 C 7.1406035,15.189861 6.8329909,15.022735 6.6975532,14.936097 C 6.3718545,14.72775 5.528316,13.900538 5.2056779,13.473096 C 4.7481082,12.86689 4.2894848,11.797766 4.1779065,11.07719 C 4.098345,10.563374 4.0478991,8.3790857 4.0161061,4.0712043 L 3.9860571,-0.00044805195 L 4.3718177,0.035810823 C 4.583984,0.055752814 4.8160173,0.070458442 4.8874459,0.068490043 C 4.9588745,0.066522078 5.5180281,0.055218615 6.1300095,0.043372294 L 7.2427026,0.021832468 L 7.2578957,0.31611169 L 7.2730857,0.61038961 L 7.2815645,0.31818182 L 7.2900433,0.025974026 L 11.640693,0.025974026 L 15.991342,0.025974026 L 15.991052,1.4437229 C 15.990892,2.2234848 15.970684,4.7394225 15.946143,7.0346957 L 15.901528,11.207921 L 15.705545,11.688376 C 15.428035,12.3687 15.07132,13.058988 14.769368,13.5 C 14.626723,13.708333 14.499684,13.878788 14.487056,13.878788 C 14.474424,13.878788 14.438212,13.844697 14.40658,13.80303 C 14.356329,13.736832 14.3489,13.755007 14.347697,13.947056 L 14.34632,14.166839 L 13.924242,14.47052 C 13.6921,14.637546 13.385281,14.852575 13.242424,14.948363 C 12.620771,15.365192 11.661238,15.74842 11.0461,15.825552 C 10.494446,15.894724 9.0024264,15.878402 8.7402597,15.800328 L 8.7402597,15.800328 z"
   id="path13098" /></svg>