<?xml version="1.0" encoding="UTF-8"?>
<!DOCTYPE svg PUBLIC "-//W3C//DTD SVG 1.1 Tiny//EN" "http://www.w3.org/Graphics/SVG/1.1/DTD/svg11-tiny.dtd">
<svg baseProfile="tiny" height="60" viewBox="0 0 60 60" width="60" xmlns="http://www.w3.org/2000/svg" xmlns:xlink="http://www.w3.org/1999/xlink">
<rect fill="none" height="60" width="60"/>
<linearGradient gradientUnits="userSpaceOnUse" id="SVGID_1" x1="30" x2="30" y1="7.77" y2="51.95">
<stop offset="0" stop-color="#C6FF45"/>
<stop offset="0.73" stop-color="#66A00E"/>
<stop offset="1" stop-color="#387300"/>
</linearGradient>
<path d="M48.979,20.816h-4.285v-7.959c0-0.677-0.549-1.225-1.225-1.225h-0.612V8.571H17.144v3.062H16.53 c-0.676,0-1.225,0.548-1.225,1.225v7.959h-4.285c-1.353,0-2.449,1.097-2.449,2.449v17.143c0,1.353,1.097,2.449,2.449,2.449h4.898 v6.734h1.225v1.837h25.714v-1.837h1.224v-6.734h4.898c1.353,0,2.449-1.097,2.449-2.449V23.266 C51.429,21.913,50.332,20.816,48.979,20.816z" fill="url(#SVGID_1)"/>
<linearGradient gradientUnits="userSpaceOnUse" id="SVGID_2" x1="30" x2="30" y1="11.42" y2="28.56">
<stop offset="0" stop-color="#ADB3B5"/>
<stop offset="1" stop-color="#585B5C"/>
</linearGradient>
<path d="M44.694,27.551c0,0.677-0.549,1.225-1.225,1.225H16.53c-0.676,0-1.225-0.548-1.225-1.225V12.857 c0-0.677,0.549-1.225,1.225-1.225H43.47c0.676,0,1.225,0.548,1.225,1.225V27.551z" fill="url(#SVGID_2)"/>
<linearGradient gradientUnits="userSpaceOnUse" id="SVGID_3" x1="30" x2="30" y1="20.54" y2="42.58">
<stop offset="0" stop-color="#BDC3C4"/>
<stop offset="0.35" stop-color="#DDE3E6"/>
<stop offset="0.65" stop-color="#949DA1"/>
<stop offset="0.96" stop-color="#ADB3B5"/>
<stop offset="1" stop-color="#595C5E"/>
</linearGradient>
<path d="M51.429,40.408c0,1.353-1.097,2.449-2.449,2.449H11.021c-1.353,0-2.449-1.097-2.449-2.449V23.266 c0-1.353,1.097-2.449,2.449-2.449h37.959c1.353,0,2.449,1.097,2.449,2.449V40.408z" fill="url(#SVGID_3)"/>
<linearGradient gradientUnits="userSpaceOnUse" id="SVGID_4" x1="30" x2="30" y1="36.05" y2="41.56">
<stop offset="0" stop-color="#131414"/>
<stop offset="0.24" stop-color="#252629"/>
<stop offset="1" stop-color="#444747"/>
</linearGradient>
<rect fill="url(#SVGID_4)" height="5.511" width="29.389" x="15.306" y="36.122"/>
<rect fill="#6D6E70" height="0.612" width="28.162" x="15.919" y="48.979"/>
<linearGradient gradientUnits="userSpaceOnUse" id="SVGID_5" x1="30" x2="30" y1="39.68" y2="48.86">
<stop offset="0" stop-color="#585B5C"/>
<stop offset="0.79" stop-color="#949DA1"/>
<stop offset="1" stop-color="#ADB3B5"/>
</linearGradient>
<polygon fill="url(#SVGID_5)" points="44.694,39.796 44.081,39.796 15.919,39.796 15.306,39.796 15.306,40.408 15.919,40.408 15.919,48.979 44.081,48.979 44.081,40.408 44.694,40.408 "/>
<rect fill="#020202" fill-opacity="0.15" height="9.184" width="26.939" x="16.53" y="11.633"/>
<linearGradient gradientUnits="userSpaceOnUse" id="SVGID_6" x1="30" x2="30" y1="8.57" y2="21.39">
<stop offset="0" stop-color="#D9D9D9"/>
<stop offset="0.54" stop-color="#B3B3B3"/>
<stop offset="1" stop-color="#B3B3B3"/>
</linearGradient>
<rect fill="url(#SVGID_6)" height="12.245" width="25.714" x="17.144" y="8.571"/>
<path d="M23.622,8.572c0,0,11.111,1.683,15.244,7.346 c0,0,3.123-4.285,3.991-1.955C42.419,11.713,38.453,8.491,23.622,8.572z" fill="#050505" fill-opacity="0.05"/>
<path d="M23.622,8.572c0,0,11.111,0.458,15.244,6.122 c0,0,3.123-3.674,3.991-0.731C42.419,11.713,38.453,8.491,23.622,8.572z" fill="#050505" fill-opacity="0.1"/>
<linearGradient gradientUnits="userSpaceOnUse" id="SVGID_7" x1="33.82" x2="32.67" y1="9.1" y2="13.39">
<stop offset="0" stop-color="#FFFFFF"/>
<stop offset="0.01" stop-color="#FFFFFF"/>
<stop offset="1" stop-color="#D9D9D9"/>
</linearGradient>
<path d="M23.622,8.572c0,0,11.111,0.099,15.244,5.762 c0,0,2.959-3.648,3.991-0.371C42.419,11.713,38.453,8.491,23.622,8.572z" fill="url(#SVGID_7)"/>
<rect fill="#020202" fill-opacity="0.2" height="9.796" width="26.939" x="16.53" y="39.796"/>
<linearGradient gradientUnits="userSpaceOnUse" id="SVGID_8" x1="30" x2="30" y1="37.96" y2="51.79">
<stop offset="0" stop-color="#F5F5F5"/>
<stop offset="0.86" stop-color="#8F8F8F"/>
<stop offset="1" stop-color="#A6A6A6"/>
</linearGradient>
<rect fill="url(#SVGID_8)" height="13.47" width="25.714" x="17.144" y="37.959"/>
<linearGradient gradientUnits="userSpaceOnUse" id="SVGID_9" x1="30" x2="30" y1="37.35" y2="51.18">
<stop offset="0" stop-color="#F5F5F5"/>
<stop offset="0.78" stop-color="#CCCCCC"/>
<stop offset="1" stop-color="#D1D1D1"/>
</linearGradient>
<polygon fill="url(#SVGID_9)" points="42.857,50.816 36.378,50.816 33.53,50.749 22.96,49.181 18.014,46.817 17.481,46.296 17.144,45.479 17.144,37.347 42.857,37.347 "/>
<linearGradient gradientUnits="userSpaceOnUse" id="SVGID_10" x1="36.7" x2="24.11" y1="35.37" y2="50.02">
<stop offset="0" stop-color="#C2F3FF"/>
<stop offset="0.38" stop-color="#2D9BD2"/>
<stop offset="0.69" stop-color="#1347BA"/>
<stop offset="1" stop-color="#1347BA"/>
</linearGradient>
<polygon fill="url(#SVGID_10)" points="41.633,48.979 24.489,48.979 18.368,47.143 18.368,37.347 41.633,37.347 "/>
<linearGradient gradientUnits="userSpaceOnUse" id="SVGID_11" x1="26.67" x2="28.35" y1="41.29" y2="45.17">
<stop offset="0" stop-color="#A7FF00"/>
<stop offset="1" stop-color="#138F00"/>
</linearGradient>
<path d="M32.116,38.617c0,0-7.998,2.333-8.792,10.203C23.324,48.82,31.96,46.827,32.116,38.617z" fill="url(#SVGID_11)"/>
<linearGradient gradientUnits="userSpaceOnUse" id="SVGID_12" x1="25.81" x2="20.62" y1="41.18" y2="44.02">
<stop offset="0" stop-color="#A7FF00"/>
<stop offset="1" stop-color="#138F00"/>
</linearGradient>
<path d="M20.987,37.347c0,0,5.354,4.808,5.016,11.633h-1.514l-6.121-2.326v-9.307H20.987z" fill="url(#SVGID_12)"/>
<linearGradient gradientUnits="userSpaceOnUse" id="SVGID_13" x1="17.33" x2="20.84" y1="43.05" y2="42.45">
<stop offset="0" stop-color="#A7FF00"/>
<stop offset="1" stop-color="#138F00"/>
</linearGradient>
<path d="M18.368,37.347v9.796c0,0,3.092,1.052,3.081,0.674c-0.149-5.386-1.888-8.77-3.079-10.47H18.368z" fill="url(#SVGID_13)"/>
<linearGradient gradientUnits="userSpaceOnUse" id="SVGID_14" x1="29.75" x2="35.84" y1="42.72" y2="47.45">
<stop offset="0" stop-color="#A7FF00"/>
<stop offset="1" stop-color="#138F00"/>
</linearGradient>
<path d="M24.562,48.979c0,0,1.994-6.405,16.022-8.136c0,0-1.317,5.621-7.462,8.136H24.562z" fill="url(#SVGID_14)"/>
<linearGradient gradientUnits="userSpaceOnUse" id="SVGID_15" x1="36.3" x2="27.4" y1="40.26" y2="50.64">
<stop offset="0" stop-color="#A7FF00"/>
<stop offset="1" stop-color="#138F00"/>
</linearGradient>
<path d="M40.563,40.927c0.015-0.052,0.021-0.083,0.021-0.083c-14.34,1.533-16.022,8.137-16.022,8.136h0.366 C24.928,48.979,26.157,42.675,40.563,40.927z" fill="url(#SVGID_15)"/>
<linearGradient gradientUnits="userSpaceOnUse" id="SVGID_16" x1="37.21" x2="33.41" y1="47.84" y2="44.12">
<stop offset="0" stop-color="#A7FF00"/>
<stop offset="1" stop-color="#138F00"/>
</linearGradient>
<path d="M27.957,48.979c0,0,4.903-2.057,12.605-8.053c-0.171,2.08-2.283,6.422-7.44,8.053H27.957z" fill="url(#SVGID_16)"/>
<rect fill="#FFFFFF" fill-opacity="0.3" height="0.612" width="16.53" x="25.103" y="48.367"/>
<path d="M36.378,50.815c0,0-11.111-1.07-15.244-6.733 c0,0-2.959,4.62-3.99,1.343C17.582,47.675,21.547,50.896,36.378,50.815z" fill="#050505" fill-opacity="0.1"/>
<path d="M36.378,50.815c0,0-11.104-0.392-15.236-6.055 c0,0-2.967,3.941-3.998,0.664C17.582,47.675,21.547,50.896,36.378,50.815z" fill="#050505" fill-opacity="0.2"/>
<linearGradient gradientUnits="userSpaceOnUse" id="SVGID_17" x1="26.79" x2="25.76" y1="48.05" y2="50.77">
<stop offset="0" stop-color="#FEFEFE"/>
<stop offset="0.82" stop-color="#E3E3E3"/>
<stop offset="1" stop-color="#DEDEDE"/>
</linearGradient>
<path d="M36.378,50.815c0,0-11.111-0.099-15.244-5.762 c0,0-2.959,3.648-3.99,0.371C17.582,47.675,21.547,50.896,36.378,50.815z" fill="url(#SVGID_17)"/>
<rect fill="#020202" fill-opacity="0.1" height="0.612" width="25.714" x="17.144" y="39.184"/>
<rect fill="#020202" fill-opacity="0.2" height="0.612" width="25.714" x="17.144" y="38.571"/>
<rect fill="#020202" fill-opacity="0.3" height="0.612" width="25.714" x="17.144" y="37.959"/>
<rect fill="#020202" fill-opacity="0.5" height="0.612" width="25.714" x="17.144" y="37.347"/>
<rect fill="#020202" fill-opacity="0.3" height="0.612" width="29.389" x="15.306" y="20.204"/>
<rect fill="#020202" fill-opacity="0.1" height="0.612" width="29.389" x="15.306" y="19.592"/>
<rect fill="#FFFFFF" fill-opacity="0.2" height="0.612" width="29.389" x="15.306" y="35.51"/>
<linearGradient gradientUnits="userSpaceOnUse" id="SVGID_18" x1="30" x2="30" y1="20.54" y2="42.58">
<stop offset="0" stop-color="#DDE3E6"/>
<stop offset="0.69" stop-color="#C0CCD1"/>
<stop offset="1" stop-color="#9BA1A3"/>
</linearGradient>
<path d="M48.979,20.816H11.021c-1.353,0-2.449,1.097-2.449,2.449v17.143c0,1.353,1.097,2.449,2.449,2.449 c-1.013,0-1.837-0.824-1.837-1.837v-0.612v-16.53v-0.612c0-1.013,0.824-1.837,1.837-1.837h37.959c1.014,0,1.837,0.824,1.837,1.837 v0.612v16.53v0.612c0,1.013-0.823,1.837-1.837,1.837c1.353,0,2.449-1.097,2.449-2.449V23.266 C51.429,21.913,50.332,20.816,48.979,20.816z" fill="url(#SVGID_18)"/>
<path d="M13.47,20.816v2.449c0,1.688,1.373,3.061,3.061,3.061H43.47c1.688,0,3.061-1.373,3.061-3.061 v-2.449H13.47z" fill="#FFFFFF" fill-opacity="0.2"/>
<linearGradient gradientUnits="userSpaceOnUse" id="SVGID_19" x1="30" x2="30" y1="20.76" y2="25.65">
<stop offset="0" stop-color="#A0A7A8"/>
<stop offset="0.76" stop-color="#252629"/>
<stop offset="1" stop-color="#1F2021"/>
</linearGradient>
<path d="M14.081,20.816v2.449c0,1.353,1.098,2.448,2.449,2.448H43.47c1.352,0,2.449-1.096,2.449-2.448 v-2.449H14.081z" fill="url(#SVGID_19)"/>
<rect fill="#FFFFFF" fill-opacity="0.2" height="0.612" width="31.838" x="14.081" y="20.816"/>
<linearGradient gradientUnits="userSpaceOnUse" id="SVGID_20" x1="47.75" x2="47.75" y1="38.57" y2="41.05">
<stop offset="0" stop-color="#576266"/>
<stop offset="1" stop-color="#E3E3E3"/>
</linearGradient>
<path d="M48.979,40.405c0,0.338-0.275,0.612-0.611,0.612h-1.225c-0.339,0-0.613-0.274-0.613-0.612v-1.222 c0-0.338,0.274-0.612,0.613-0.612h1.225c0.336,0,0.611,0.274,0.611,0.612V40.405z" fill="url(#SVGID_20)"/>
<linearGradient gradientUnits="userSpaceOnUse" id="SVGID_21" x1="47.76" x2="47.76" y1="39.16" y2="40.42">
<stop offset="0" stop-color="#FFC142"/>
<stop offset="0.75" stop-color="#CF4E18"/>
<stop offset="1" stop-color="#B52100"/>
</linearGradient>
<rect fill="url(#SVGID_21)" height="1.222" width="1.225" x="47.144" y="39.184"/>
<linearGradient gradientUnits="userSpaceOnUse" id="SVGID_22" x1="47.75" x2="47.75" y1="34.9" y2="37.38">
<stop offset="0" stop-color="#576266"/>
<stop offset="1" stop-color="#C4C4C4"/>
</linearGradient>
<path d="M48.979,36.734c0,0.339-0.274,0.612-0.613,0.612h-1.223c-0.338,0-0.613-0.273-0.613-0.612V35.51 c0-0.338,0.275-0.611,0.613-0.611h1.223c0.339,0,0.613,0.273,0.613,0.611V36.734z" fill="url(#SVGID_22)"/>
<linearGradient gradientUnits="userSpaceOnUse" id="SVGID_23" x1="47.75" x2="47.75" y1="35.49" y2="36.75">
<stop offset="0" stop-color="#C6FF45"/>
<stop offset="0.73" stop-color="#66A00E"/>
<stop offset="1" stop-color="#387300"/>
</linearGradient>
<rect fill="url(#SVGID_23)" height="1.225" width="1.223" x="47.144" y="35.51"/>
</svg>
