<?xml version="1.0" encoding="UTF-8"?>
<!DOCTYPE svg PUBLIC "-//W3C//DTD SVG 1.1 Tiny//EN" "http://www.w3.org/Graphics/SVG/1.1/DTD/svg11-tiny.dtd">
<svg baseProfile="tiny" height="60" viewBox="0 0 60 60" width="60" xmlns="http://www.w3.org/2000/svg" xmlns:xlink="http://www.w3.org/1999/xlink">
<rect fill="none" height="60" width="60"/>
<linearGradient gradientUnits="userSpaceOnUse" id="SVGID_1" x1="29.8" x2="36.23" y1="20.8" y2="21.41">
<stop offset="0" stop-color="#333333"/>
<stop offset="1" stop-color="#A7A8A9"/>
</linearGradient>
<path d="M28.103,10.298l4.682,0.319l0.884,2.22l-1.863,0.785l2.394,1.228l0.088,4.188l-2.481-0.393 l2.481,1.811c0,0-4.461,7.178-1.326,9.055l-3.572,1.714c0,0-4.42-2.526-1.238-7.458C31.329,18.837,28.103,10.298,28.103,10.298z" fill="url(#SVGID_1)"/>
<polygon fill="#FFFFFF" fill-opacity="0.1" points="31.805,14.847 34.198,16.074 34.261,19.034 34.286,19.038 34.198,14.85 33.115,14.295 "/>
<path d="M32.784,11.841l0.467,1.172l0.417-0.176l-0.884-2.22l-4.682-0.319 c0,0,0.178,0.472,0.408,1.252L32.784,11.841z" fill="#FFFFFF" fill-opacity="0.1"/>
<path d="M31.805,19.87l1.987,1.449c0.289-0.533,0.494-0.863,0.494-0.863l-0.34-0.247L31.805,19.87z" fill="#FFFFFF" fill-opacity="0.1"/>
<path d="M31.885,27.761c-0.093,0.8-0.03,1.542,0.28,2.132l0.795-0.382 C32.308,29.12,31.987,28.497,31.885,27.761z" fill="#FFFFFF" fill-opacity="0.1"/>
<path d="M32.784,11.34l0.638,1.601l0.246-0.104l-0.884-2.22l-4.682-0.319c0,0,0.102,0.271,0.251,0.739 L32.784,11.34z" fill="#FFFFFF" fill-opacity="0.3"/>
<polygon fill="#FFFFFF" fill-opacity="0.3" points="31.805,14.345 34.198,15.572 34.271,19.036 34.286,19.038 34.198,14.85 32.578,14.019 "/>
<path d="M31.859,27.537c-0.062,0.874,0.08,1.663,0.56,2.233l0.541-0.26 C32.243,29.081,31.926,28.372,31.859,27.537z" fill="#FFFFFF" fill-opacity="0.3"/>
<path d="M31.805,19.368l2.185,1.595c0.181-0.319,0.297-0.507,0.297-0.507l-1.217-0.888L31.805,19.368z " fill="#FFFFFF" fill-opacity="0.3"/>
<path d="M32.331,16.224c0.111-0.828,0.102-1.608-0.02-2.342l-0.507-0.26l0.422-0.178 c-0.216-0.917-0.616-1.754-1.212-2.502c-0.133-0.166-0.274-0.323-0.42-0.475l-2.492-0.17c0,0,3.227,8.539,0.047,13.469 c-3.182,4.932,1.238,7.458,1.238,7.458l0.576-0.276c-2.031-2.58-1.068-4.87,0.284-8.058c0.545-1.28,1.134-2.679,1.57-4.235 l-0.014-0.01l0.016,0.002C32.035,17.88,32.216,17.076,32.331,16.224z" fill="#231F20" fill-opacity="0.3"/>
<linearGradient gradientUnits="userSpaceOnUse" id="SVGID_2" x1="23.28" x2="28.03" y1="23.19" y2="7.43">
<stop offset="0" stop-color="#2E3030"/>
<stop offset="0.65" stop-color="#6E6E6E"/>
<stop offset="1" stop-color="#4D5152"/>
</linearGradient>
<path d="M31.725,16.142c0.979-7.265-8.015-8.097-8.015-8.097l-3.75-0.698c0,0-0.385,1.037,1.621,2.103 c-3.52,2.37-10.22,7.102-10.551,9.011c-0.219,1.249,3.429,5.817,4.371,2.501c0.629-2.223,4.446-0.835,5.481-1.488 c0.845-0.535,1.768,0.233,1.768,0.233c-7.306,6.633-7.956,13.355-7.956,13.355v9.184h16.53v-9.184 C24.599,27.667,30.708,23.691,31.725,16.142z" fill="url(#SVGID_2)"/>
<path d="M20.229,14.418l2.827-1.928C23.056,12.49,22.92,16.576,20.229,14.418z" fill="#FCFCFC" fill-opacity="0.3"/>
<linearGradient gradientUnits="userSpaceOnUse" id="SVGID_3" x1="21.64" x2="21.64" y1="11.47" y2="14.75">
<stop offset="0" stop-color="#1A1A1A"/>
<stop offset="1" stop-color="#4E4E4E"/>
</linearGradient>
<path d="M20.229,14.13l2.827-1.814C23.056,12.315,22.451,15.457,20.229,14.13z" fill="url(#SVGID_3)"/>
<linearGradient gradientUnits="userSpaceOnUse" id="SVGID_4" x1="13.47" x2="32.45" y1="43.47" y2="43.47">
<stop offset="0" stop-color="#363636"/>
<stop offset="0.65" stop-color="#898C8C"/>
<stop offset="1" stop-color="#565C5C"/>
</linearGradient>
<path d="M32.449,43.468c0,0.679-0.544,1.227-1.225,1.227H14.6c-0.683,0-1.13-0.548-1.13-1.227l0,0 c0-0.676,0.447-1.223,1.13-1.223h16.625C31.905,42.245,32.449,42.792,32.449,43.468L32.449,43.468z" fill="url(#SVGID_4)"/>
<path d="M14.6,42.857h16.625c0.573,0,1.046,0.39,1.182,0.917c0.024-0.098,0.043-0.2,0.043-0.307 c0-0.676-0.544-1.223-1.225-1.223H14.6c-0.683,0-1.13,0.547-1.13,1.223c0,0.106,0.015,0.209,0.035,0.307 C13.62,43.247,14.024,42.857,14.6,42.857z" fill="#FFFFFF" fill-opacity="0.2"/>
<linearGradient gradientUnits="userSpaceOnUse" id="SVGID_5" x1="19.65" x2="33.4" y1="22.37" y2="10.56">
<stop offset="0" stop-color="#2E3030"/>
<stop offset="0.65" stop-color="#6E6E6E"/>
<stop offset="1" stop-color="#4D5152"/>
</linearGradient>
<path d="M29.243,10.091l-7.411,9.226c0.467,0.099,0.818,0.39,0.818,0.39 c-0.368,0.334-0.708,0.669-1.043,1.003l0.034,0.155l10.094-4.848C32.083,13.134,30.846,11.276,29.243,10.091z" fill="url(#SVGID_5)"/>
<linearGradient gradientUnits="userSpaceOnUse" id="SVGID_6" x1="17.51" x2="31.99" y1="22.03" y2="25.95">
<stop offset="0" stop-color="#2E3030"/>
<stop offset="0.65" stop-color="#6E6E6E"/>
<stop offset="1" stop-color="#4D5152"/>
</linearGradient>
<path d="M31.725,16.142c0.103-0.759,0.091-1.444-0.003-2.069c-3.725,1.433-8.715,5.364-9.161,5.72 c-7.216,6.605-7.866,13.27-7.866,13.27v0.007l16.53-0.007C24.599,27.667,30.708,23.691,31.725,16.142z" fill="url(#SVGID_6)"/>
<linearGradient gradientUnits="userSpaceOnUse" id="SVGID_7" x1="14.69" x2="31.22" y1="37.66" y2="37.66">
<stop offset="0" stop-color="#363636"/>
<stop offset="0.65" stop-color="#898C8C"/>
<stop offset="1" stop-color="#565C5C"/>
</linearGradient>
<rect fill="url(#SVGID_7)" height="9.177" width="16.53" x="14.694" y="33.068"/>
<linearGradient gradientUnits="userSpaceOnUse" id="SVGID_8" x1="13.71" x2="29.7" y1="32.85" y2="31.62">
<stop offset="0" stop-color="#2E3030"/>
<stop offset="0.05" stop-color="#2E3030"/>
<stop offset="0.73" stop-color="#8F8F8F"/>
<stop offset="1" stop-color="#4D5152"/>
</linearGradient>
<path d="M14.694,33.062h16.53c-2.007-1.625-3.017-2.433-8.056-2.433 C16.88,30.629,14.694,33.062,14.694,33.062z" fill="url(#SVGID_8)"/>
<rect fill="#231F20" fill-opacity="0.5" height="0.612" width="16.53" x="14.694" y="41.633"/>
<rect fill="#FFFFFF" fill-opacity="0.3" height="0.612" width="16.53" x="14.694" y="33.062"/>
<rect fill="#FFFFFF" fill-opacity="0.2" height="0.612" width="16.53" x="14.694" y="33.674"/>
<rect fill="#FFFFFF" fill-opacity="0.1" height="0.611" width="16.53" x="14.694" y="34.286"/>
<rect fill="#231F20" fill-opacity="0.3" height="0.612" width="16.53" x="14.694" y="41.021"/>
<rect fill="#231F20" fill-opacity="0.1" height="0.612" width="16.53" x="14.694" y="40.408"/>
<path d="M28.219,28.418c-0.201,1.935,0.462,3.797,3.006,5.868v-1.225 C29.22,31.431,28.386,29.929,28.219,28.418z" fill="#FFFFFF" fill-opacity="0.1"/>
<path d="M23.71,9.27c0,0,7.557,0.703,8.058,6.421c0.552-6.845-8.058-7.646-8.058-7.646l-3.75-0.698 c0,0-0.215,0.581,0.519,1.321L23.71,9.27z" fill="#FFFFFF" fill-opacity="0.1"/>
<path d="M14.694,33.062v1.225c0,0,0.65-6.723,7.956-13.355c0,0-0.379-0.312-0.872-0.398 C15.296,26.886,14.694,33.062,14.694,33.062z" fill="#FFFFFF" fill-opacity="0.1"/>
<path d="M21.581,10.674c-0.387-0.205-0.683-0.409-0.912-0.605c-3.65,2.498-9.334,6.637-9.639,8.392 c-0.034,0.196,0.027,0.475,0.158,0.791C12.271,17.135,18.304,12.881,21.581,10.674z" fill="#FFFFFF" fill-opacity="0.1"/>
<path d="M14.694,33.062v0.612c0,0,0.65-6.723,7.956-13.355c0,0-0.158-0.127-0.396-0.241 C15.326,26.587,14.694,33.062,14.694,33.062z" fill="#FFFFFF" fill-opacity="0.3"/>
<path d="M23.71,8.657c0,0,7.818,0.727,8.079,6.715c0.266-6.553-8.079-7.327-8.079-7.327l-3.75-0.698 c0,0-0.09,0.246,0.049,0.621L23.71,8.657z" fill="#FFFFFF" fill-opacity="0.3"/>
<path d="M28.194,28.13c-0.095,1.82,0.629,3.589,3.03,5.544v-0.612 C29.093,31.326,28.284,29.737,28.194,28.13z" fill="#FFFFFF" fill-opacity="0.3"/>
<path d="M21.581,10.062c-0.182-0.096-0.336-0.191-0.48-0.287c-3.614,2.454-9.754,6.86-10.07,8.686 c-0.021,0.123-0.005,0.277,0.041,0.453C11.718,16.912,18.155,12.368,21.581,10.062z" fill="#FFFFFF" fill-opacity="0.3"/>
<linearGradient gradientUnits="userSpaceOnUse" id="SVGID_9" x1="44.49" x2="50.93" y1="28.76" y2="29.37">
<stop offset="0" stop-color="#888F91"/>
<stop offset="1" stop-color="#C9C9C9"/>
</linearGradient>
<path d="M42.796,18.257l4.683,0.319l0.884,2.22l-1.863,0.785l2.393,1.228l0.088,4.188l-2.48-0.393l2.48,1.812 c0,0-4.461,7.178-1.325,9.054l-3.573,1.714c0,0-4.419-2.526-1.238-7.457C46.022,26.796,42.796,18.257,42.796,18.257z" fill="url(#SVGID_9)"/>
<polygon fill="#FFFFFF" fill-opacity="0.1" points="46.499,22.806 48.892,24.033 48.954,26.993 48.979,26.997 48.892,22.809 47.81,22.254 "/>
<path d="M47.479,19.801l0.466,1.171l0.418-0.176l-0.884-2.22l-4.683-0.319 c0,0,0.178,0.473,0.408,1.253L47.479,19.801z" fill="#FFFFFF" fill-opacity="0.1"/>
<path d="M46.499,27.829l1.986,1.45c0.29-0.534,0.494-0.863,0.494-0.863l-0.339-0.248L46.499,27.829z" fill="#FFFFFF" fill-opacity="0.1"/>
<path d="M46.579,35.72c-0.094,0.8-0.031,1.542,0.279,2.132l0.796-0.382 C47.001,37.079,46.681,36.457,46.579,35.72z" fill="#FFFFFF" fill-opacity="0.1"/>
<path d="M47.479,19.299l0.638,1.602l0.246-0.104l-0.884-2.22l-4.683-0.319 c0,0,0.103,0.271,0.252,0.739L47.479,19.299z" fill="#FFFFFF" fill-opacity="0.3"/>
<polygon fill="#FFFFFF" fill-opacity="0.3" points="46.499,22.304 48.892,23.531 48.964,26.995 48.979,26.997 48.892,22.809 47.272,21.978 "/>
<path d="M46.554,35.496c-0.063,0.874,0.08,1.664,0.559,2.233l0.542-0.26 C46.937,37.04,46.62,36.332,46.554,35.496z" fill="#FFFFFF" fill-opacity="0.3"/>
<path d="M46.499,27.327l2.184,1.595c0.182-0.319,0.297-0.506,0.297-0.506l-1.217-0.889L46.499,27.327z " fill="#FFFFFF" fill-opacity="0.3"/>
<path d="M47.632,24.265c0.098-0.729,0.104-1.422,0.035-2.085l-1.168-0.599l0.998-0.42 c-0.24-0.964-0.678-1.847-1.309-2.641c-0.01-0.012-0.021-0.022-0.031-0.035l-3.361-0.229c0,0,3.227,8.539,0.047,13.47 c-3.181,4.931,1.238,7.457,1.238,7.457l1.141-0.547c-1.918-2.335-1.078-4.34,0.284-7.547c0.526-1.24,1.097-2.588,1.536-4.089 l-0.543-0.396l0.623,0.099C47.336,25.932,47.517,25.124,47.632,24.265z" fill="#231F20" fill-opacity="0.1"/>
<path d="M47.025,24.183c0.112-0.828,0.101-1.607-0.021-2.342l-0.506-0.26l0.422-0.178 c-0.216-0.917-0.617-1.754-1.212-2.502c-0.134-0.166-0.274-0.323-0.421-0.475l-2.492-0.17c0,0,3.227,8.539,0.047,13.47 c-3.181,4.931,1.238,7.457,1.238,7.457l0.576-0.276c-2.031-2.58-1.068-4.87,0.285-8.057c0.545-1.281,1.133-2.68,1.57-4.236 l-0.014-0.01l0.016,0.002C46.729,25.839,46.91,25.035,47.025,24.183z" fill="#231F20" fill-opacity="0.2"/>
<path d="M28.942,31.33c0.128,0,0.303-0.014,0.5-0.06c-0.014-0.018-0.029-0.035-0.043-0.052 l1.065-0.511c0.319-0.31,0.613-0.77,0.808-1.454c0.032-0.112,0.109-0.351,0.985-0.421c-1.616-2.513,2.028-8.377,2.028-8.377 l-2.217-1.617c-6.36,4.578-7.381,6.39-7.552,7.37c-0.222,1.273,1.003,2.851,1.383,3.304C26.597,30.342,27.69,31.33,28.942,31.33z" fill="#231F20" fill-opacity="0.1"/>
<path d="M33.505,14.881c-0.052,0.142-0.419,1.273,0.67,2.476c-0.693,0.479-1.334,0.93-1.933,1.358 l2.044,0.323l-0.088-4.188l-0.572-0.293L33.505,14.881z" fill="#231F20" fill-opacity="0.1"/>
<path d="M32.449,43.468c0-0.676-0.544-1.223-1.225-1.223v-9.184c-0.002-0.002-0.003-0.003-0.005-0.005 c-2.693,4.346-3.037,7.729-3.057,7.964v3.674h3.062C31.905,44.694,32.449,44.146,32.449,43.468z" fill="#231F20" fill-opacity="0.1"/>
<path d="M34.229,16.38l-0.031-1.53l-0.023-0.013l-0.095,0.256 C34.046,15.185,33.882,15.707,34.229,16.38z" fill="#231F20" fill-opacity="0.3"/>
<path d="M28.942,30.718c0.477,0,1.339-0.212,1.741-1.631c0.137-0.483,0.532-0.745,1.306-0.843 c-0.842-2.734,2.297-7.788,2.297-7.788l-1.695-1.236c-4.727,3.391-7.241,5.774-7.471,7.094c-0.141,0.807,0.586,2.015,1.249,2.806 C26.87,29.716,27.872,30.718,28.942,30.718z" fill="#231F20" fill-opacity="0.3"/>
<path d="M32.449,43.468c0-0.676-0.544-1.223-1.225-1.223v-8.007c-2.126,3.748-2.43,6.563-2.449,6.782 v3.674h2.449C31.905,44.694,32.449,44.146,32.449,43.468z" fill="#231F20" fill-opacity="0.3"/>
<path d="M34.286,19.038l-0.021-0.997c-0.398,0.275-0.785,0.546-1.158,0.811L34.286,19.038z" fill="#231F20" fill-opacity="0.3"/>
<linearGradient gradientUnits="userSpaceOnUse" id="SVGID_10" x1="37.97" x2="42.72" y1="31.15" y2="15.39">
<stop offset="0" stop-color="#8B8E8F"/>
<stop offset="0.65" stop-color="#C2C2C2"/>
<stop offset="1" stop-color="#A0A9AB"/>
</linearGradient>
<path d="M46.419,24.102c0.979-7.266-8.016-8.097-8.016-8.097l-3.749-0.699c0,0-0.386,1.037,1.62,2.103 c-3.52,2.37-10.219,7.102-10.551,9.011c-0.218,1.249,3.43,5.817,4.371,2.501c0.629-2.223,4.447-0.834,5.482-1.488 c0.844-0.535,1.768,0.233,1.768,0.233c-7.306,6.633-7.957,13.355-7.957,13.355v9.184h16.531v-9.184 C39.292,35.626,45.402,31.65,46.419,24.102z" fill="url(#SVGID_10)"/>
<path d="M34.923,22.377l2.826-1.928C37.749,20.449,37.614,24.535,34.923,22.377z" fill="#FCFCFC" fill-opacity="0.5"/>
<linearGradient gradientUnits="userSpaceOnUse" id="SVGID_11" x1="36.34" x2="36.34" y1="19.43" y2="22.7">
<stop offset="0" stop-color="#292929"/>
<stop offset="1" stop-color="#868686"/>
</linearGradient>
<path d="M34.923,22.089l2.826-1.814C37.749,20.274,37.146,23.417,34.923,22.089z" fill="url(#SVGID_11)"/>
<linearGradient gradientUnits="userSpaceOnUse" id="SVGID_12" x1="28.16" x2="47.14" y1="51.43" y2="51.43">
<stop offset="0" stop-color="#8C8E8F"/>
<stop offset="0.65" stop-color="#D9D9D9"/>
<stop offset="1" stop-color="#AEB2B3"/>
</linearGradient>
<path d="M47.144,51.427c0,0.68-0.544,1.227-1.225,1.227H29.294c-0.683,0-1.131-0.547-1.131-1.227l0,0 c0-0.676,0.448-1.223,1.131-1.223h16.625C46.6,50.204,47.144,50.751,47.144,51.427L47.144,51.427z" fill="url(#SVGID_12)"/>
<path d="M29.294,50.816h16.625c0.574,0,1.046,0.391,1.182,0.917c0.024-0.098,0.043-0.199,0.043-0.307 c0-0.676-0.544-1.223-1.225-1.223H29.294c-0.683,0-1.131,0.547-1.131,1.223c0,0.107,0.016,0.209,0.036,0.307 C28.313,51.207,28.718,50.816,29.294,50.816z" fill="#FFFFFF" fill-opacity="0.3"/>
<linearGradient gradientUnits="userSpaceOnUse" id="SVGID_13" x1="34.34" x2="48.09" y1="30.32" y2="18.52">
<stop offset="0" stop-color="#8B8E8F"/>
<stop offset="0.65" stop-color="#C2C2C2"/>
<stop offset="1" stop-color="#A0A9AB"/>
</linearGradient>
<path d="M43.937,18.05l-7.41,9.227c0.467,0.099,0.818,0.389,0.818,0.389 c-0.369,0.334-0.709,0.669-1.043,1.004l0.034,0.154l10.094-4.847C46.776,21.093,45.54,19.235,43.937,18.05z" fill="url(#SVGID_13)"/>
<linearGradient gradientUnits="userSpaceOnUse" id="SVGID_14" x1="32.35" x2="46.82" y1="30.03" y2="33.94">
<stop offset="0" stop-color="#8B8E8F"/>
<stop offset="0.65" stop-color="#C2C2C2"/>
<stop offset="1" stop-color="#A0A9AB"/>
</linearGradient>
<path d="M46.419,24.102c0.102-0.76,0.09-1.445-0.004-2.069c-3.725,1.432-8.714,5.364-9.16,5.719 c-7.216,6.605-7.867,13.27-7.867,13.27v0.007l16.531-0.007C39.292,35.626,45.402,31.65,46.419,24.102z" fill="url(#SVGID_14)"/>
<linearGradient gradientUnits="userSpaceOnUse" id="SVGID_15" x1="29.39" x2="45.92" y1="45.62" y2="45.62">
<stop offset="0" stop-color="#8C8E8F"/>
<stop offset="0.65" stop-color="#D9D9D9"/>
<stop offset="1" stop-color="#AEB2B3"/>
</linearGradient>
<rect fill="url(#SVGID_15)" height="9.177" width="16.531" x="29.388" y="41.027"/>
<rect fill="#231F20" fill-opacity="0.3" height="0.612" width="16.531" x="29.388" y="49.592"/>
<rect fill="#FFFFFF" fill-opacity="0.5" height="0.612" width="16.531" x="29.388" y="41.021"/>
<rect fill="#FFFFFF" fill-opacity="0.3" height="0.612" width="16.531" x="29.388" y="41.633"/>
<rect fill="#FFFFFF" fill-opacity="0.1" height="0.612" width="16.531" x="29.388" y="42.245"/>
<rect fill="#231F20" fill-opacity="0.2" height="0.612" width="16.531" x="29.388" y="48.979"/>
<rect fill="#231F20" fill-opacity="0.1" height="0.612" width="16.531" x="29.388" y="48.367"/>
<path d="M42.913,36.377c-0.201,1.935,0.462,3.798,3.006,5.868v-1.225 C43.915,39.39,43.08,37.888,42.913,36.377z" fill="#FFFFFF" fill-opacity="0.1"/>
<path d="M38.403,17.229c0,0,7.558,0.703,8.059,6.421c0.551-6.845-8.059-7.645-8.059-7.645 l-3.749-0.699c0,0-0.216,0.582,0.519,1.322L38.403,17.229z" fill="#FFFFFF" fill-opacity="0.1"/>
<path d="M29.388,41.021v1.225c0,0,0.651-6.723,7.957-13.355c0,0-0.379-0.312-0.873-0.398 C29.989,34.845,29.388,41.021,29.388,41.021z" fill="#FFFFFF" fill-opacity="0.1"/>
<path d="M36.274,18.633c-0.387-0.205-0.682-0.409-0.911-0.605c-3.65,2.498-9.335,6.637-9.64,8.392 c-0.033,0.196,0.027,0.475,0.158,0.791C26.964,25.094,32.997,20.84,36.274,18.633z" fill="#FFFFFF" fill-opacity="0.1"/>
<path d="M29.388,41.021v0.612c0,0,0.651-6.723,7.957-13.355c0,0-0.158-0.127-0.396-0.241 C30.021,34.546,29.388,41.021,29.388,41.021z" fill="#FFFFFF" fill-opacity="0.3"/>
<path d="M38.403,16.616c0,0,7.818,0.727,8.08,6.716c0.266-6.554-8.08-7.327-8.08-7.327l-3.749-0.699 c0,0-0.09,0.247,0.048,0.622L38.403,16.616z" fill="#FFFFFF" fill-opacity="0.3"/>
<path d="M42.888,36.089c-0.094,1.82,0.629,3.589,3.031,5.544v-0.612 C43.787,39.285,42.978,37.696,42.888,36.089z" fill="#FFFFFF" fill-opacity="0.3"/>
<path d="M36.274,18.021c-0.181-0.096-0.336-0.191-0.48-0.287c-3.613,2.454-9.753,6.86-10.07,8.686 c-0.021,0.123-0.004,0.277,0.042,0.453C26.411,24.871,32.849,20.327,36.274,18.021z" fill="#FFFFFF" fill-opacity="0.3"/>
<linearGradient gradientUnits="userSpaceOnUse" id="SVGID_16" x1="29.97" x2="46.5" y1="40.5" y2="39.48">
<stop offset="0" stop-color="#8B8E8F"/>
<stop offset="0.65" stop-color="#DEDEDE"/>
<stop offset="1" stop-color="#A0A9AB"/>
</linearGradient>
<path d="M29.388,41.004h16.531c-2.007-1.625-3.018-2.433-8.057-2.433 C31.574,38.571,29.388,41.004,29.388,41.004z" fill="url(#SVGID_16)"/>
</svg>
