<?xml version="1.0" encoding="UTF-8"?>
<!DOCTYPE svg PUBLIC "-//W3C//DTD SVG 1.1 Tiny//EN" "http://www.w3.org/Graphics/SVG/1.1/DTD/svg11-tiny.dtd">
<svg baseProfile="tiny" height="60" viewBox="0 0 60 60" width="60" xmlns="http://www.w3.org/2000/svg" xmlns:xlink="http://www.w3.org/1999/xlink">
<g>
<rect fill="none" height="60" width="60"/>
<linearGradient gradientUnits="userSpaceOnUse" id="SVGID_1" x1="30" x2="30" y1="14.61" y2="45.15">
<stop offset="0" stop-color="#FEEFA7"/>
<stop offset="0.51" stop-color="#FFC501"/>
<stop offset="1" stop-color="#F6A800"/>
</linearGradient>
<polygon fill="url(#SVGID_1)" points="51.425,45.609 8.571,45.609 8.571,14.387 30.352,14.999 51.425,14.387 "/>
<linearGradient gradientUnits="userSpaceOnUse" id="SVGID_2" x1="30" x2="30" y1="14.46" y2="45.79">
<stop offset="0" stop-color="#F7AC00"/>
<stop offset="0.34" stop-color="#FFF8DB"/>
<stop offset="1" stop-color="#FFE066"/>
</linearGradient>
<path d="M50.953,14.861v30.272H9.042V14.861H50.953 M51.425,14.387l-21.58,0.257L8.571,14.387v31.223 h42.854V14.387L51.425,14.387z" fill="url(#SVGID_2)"/>
<polygon fill="#FBAB13" fill-opacity="0.3" points="8.571,45.08 51.425,45.08 51.425,44.473 29.997,25.657 8.571,44.473 " stroke-opacity="0.3"/>
<polygon fill="#F18800" fill-opacity="0.3" points="8.571,45.609 51.425,45.609 51.425,44.999 29.997,26.186 8.571,44.999 " stroke-opacity="0.3"/>
<linearGradient gradientUnits="userSpaceOnUse" id="SVGID_3" x1="30" x2="30" y1="26.6" y2="45.49">
<stop offset="0" stop-color="#F98A00"/>
<stop offset="0.73" stop-color="#FCBC3C"/>
<stop offset="1" stop-color="#FFE36A"/>
</linearGradient>
<polygon fill="url(#SVGID_3)" points="51.425,45.594 29.997,26.699 8.571,45.594 "/>
<linearGradient gradientUnits="userSpaceOnUse" id="SVGID_4" x1="30" x2="30" y1="26.55" y2="46.12">
<stop offset="0" stop-color="#FFF1B5"/>
<stop offset="1" stop-color="#FFE066"/>
</linearGradient>
<polygon fill="url(#SVGID_4)" points="51.425,45.594 29.997,26.699 8.571,45.594 29.997,27.368 "/>
<polygon fill="#F18800" fill-opacity="0.3" points="30.041,14.999 8.571,14.387 29.997,36.592 51.425,14.387 " stroke-opacity="0.3"/>
<polygon fill="#C26D00" fill-opacity="0.4" points="30.002,14.999 8.571,14.387 29.997,35.424 51.425,14.387 " stroke-opacity="0.4"/>
<polygon fill="#AB6100" fill-opacity="0.4" points="29.924,14.92 8.571,14.387 29.997,34.438 51.425,14.387 " stroke-opacity="0.4"/>
<linearGradient gradientUnits="userSpaceOnUse" id="SVGID_5" x1="30" x2="30" y1="32.26" y2="13.17">
<stop offset="0" stop-color="#FFDA33"/>
<stop offset="0.25" stop-color="#FFE692"/>
<stop offset="1" stop-color="#FFFBF8"/>
</linearGradient>
<polygon fill="url(#SVGID_5)" points="8.571,14.387 29.997,33.281 51.425,14.387 "/>
<rect fill="none" height="59.996" width="59.996"/>
</g>
<g transform="matrix(1 0 0 1 30 0)">
<linearGradient gradientUnits="userSpaceOnUse" id="SVGID_1_" x1="10.8037" x2="6.8329" y1="2.2246" y2="17.5564">
<stop offset="0" style="stop-color:#FFA959"/>
<stop offset="0.703" style="stop-color:#CA3522"/>
<stop offset="1" style="stop-color:#F08849"/>
</linearGradient>
<polygon fill="url(#SVGID_1_)" points="2.449,16.623 6.56,1.28 15.083,3.564 10.971,18.906 "/>
<linearGradient gradientUnits="userSpaceOnUse" id="SVGID_2_" x1="10.5269" x2="6.9976" y1="3.2676" y2="16.9434">
<stop offset="0" style="stop-color:#FF7236"/>
<stop offset="0.7939" style="stop-color:#BA1212"/>
<stop offset="1" style="stop-color:#E8522A"/>
</linearGradient>
<polygon fill="url(#SVGID_2_)" points="10.347,17.824 3.529,15.998 7.183,2.361 14.001,4.188 "/>
<linearGradient gradientUnits="userSpaceOnUse" id="SVGID_3_" x1="25.3379" x2="11.7716" y1="11.7349" y2="25.632">
<stop offset="0" style="stop-color:#FFA959"/>
<stop offset="0.703" style="stop-color:#CA3522"/>
<stop offset="1" style="stop-color:#F08849"/>
</linearGradient>
<polygon fill="url(#SVGID_3_)" points="8.636,22.363 22.361,8.636 28.6,14.875 14.875,28.601 "/>
<linearGradient gradientUnits="userSpaceOnUse" id="SVGID_4_" x1="24.8652" x2="12.5126" y1="12.3154" y2="24.7784">
<stop offset="0" style="stop-color:#FF7236"/>
<stop offset="0.7939" style="stop-color:#BA1212"/>
<stop offset="1" style="stop-color:#E8522A"/>
</linearGradient>
<polygon fill="url(#SVGID_4_)" points="14.875,27.353 9.883,22.363 22.361,9.884 27.354,14.875 "/>
<rect fill="none" height="30" width="30"/>
</g>
</svg>
