<?xml version="1.0" encoding="UTF-8" standalone="no"?>
<!DOCTYPE svg PUBLIC "-//W3C//DTD SVG 1.1 Tiny//EN" "http://www.w3.org/Graphics/SVG/1.1/DTD/svg11-tiny.dtd">
<svg xmlns="http://www.w3.org/2000/svg" xmlns:xlink="http://www.w3.org/1999/xlink" baseProfile="tiny" height="30px" version="1.1" viewBox="0 0 30 30" width="30px" x="0px" y="0px">
<path d="M7.707,21v-3.205H2.27v-1.026l5.223-7.472h1.71v7.273h1.639v1.225H9.202V21H7.707z M7.707,16.57v-3.907  c0-0.611,0.019-1.224,0.055-1.836H7.707c-0.359,0.684-0.647,1.188-0.972,1.729l-2.862,3.979v0.035H7.707z"/>
<path d="M24.707,21v-3.205H19.27v-1.026l5.223-7.472h1.71v7.273h1.639v1.225h-1.639V21H24.707z M24.707,16.57v-3.907  c0-0.611,0.019-1.224,0.055-1.836h-0.055c-0.359,0.684-0.647,1.188-0.972,1.729l-2.862,3.979v0.035H24.707z"/>
<g fill-opacity="0.5" stroke-opacity="0.5">
<rect fill="none" height="30" width="30"/>
</g>
<polygon points="14,23 13,23 16,7 17,7 14,23 "/>
</svg>
