<?xml version="1.0" encoding="UTF-8"?>
<!DOCTYPE svg PUBLIC "-//W3C//DTD SVG 1.1 Tiny//EN" "http://www.w3.org/Graphics/SVG/1.1/DTD/svg11-tiny.dtd">
<svg baseProfile="tiny" height="30px" style="enable-background:new 0 0 30 30;" version="1.1" viewBox="0 0 30 30" width="30px" x="0px" xmlns="http://www.w3.org/2000/svg" xmlns:xlink="http://www.w3.org/1999/xlink" y="0px">
<polygon points="24.67,22.36,5.854,22.36,9.92,28.87,11.92,27.62,10.1,24.72,10.12,24.72,10.12,24.72,24.67,24.72"/>
<polygon points="20.6,13.35,18.6,14.6,20.42,17.5,5.854,17.5,5.854,19.86,24.67,19.86"/>
<path d="M12.31,6.521c0.646-0.499,1.014-1.193,1.014-2.013,0-0.698-0.271-1.336-0.761-1.802-0.542-0.512-1.316-0.78-2.239-0.78-1.124,0-2.103,0.415-2.598,0.767l-0.295,0.215,0.674,1.803,0.51-0.365c0.321-0.227,0.9-0.491,1.479-0.491,0.485,0,1.061,0.146,1.061,0.844,0,0.825-1.068,1.005-1.481,1.005h-1.144v1.857h1.149c0.295,0,1.778,0.062,1.79,1.284,0.002,0.148-0.022,0.522-0.313,0.814-0.262,0.26-0.662,0.397-1.193,0.397-0.723,0-1.411-0.298-1.701-0.472l-0.506-0.307-0.65,1.819,0.317,0.208c0.473,0.312,1.429,0.676,2.553,0.676,2.534,0,3.688-1.619,3.688-3.123,0-1.006-0.52-1.861-1.35-2.346z"/>
<path d="M19.46,6.134v1.915h1.84v1.876c-0.244,0.065-0.572,0.12-1.084,0.12-1.902,0-3.035-1.196-3.035-3.197,0-0.982,0.294-1.794,0.856-2.348,0.554-0.547,1.358-0.835,2.325-0.835,0.736,0,1.312,0.109,1.812,0.344l0.501,0.238,0.587-1.887-0.378-0.181c-0.443-0.218-1.367-0.467-2.494-0.467-3.246,0-5.423,2.087-5.423,5.191,0,1.509,0.519,2.874,1.421,3.744,0.941,0.9,2.164,1.341,3.743,1.341,1.485,0,2.661-0.407,2.984-0.532l0.312-0.121v-5.196h-3.963z"/>
<rect fill="none" height="29.03" width="29.03" x="0.746" y="0.775"/>
<rect fill="none" height="29.03" width="29.03" x="0.746" y="0.775"/>
</svg>
