<?xml version="1.0" encoding="UTF-8"?>
<!DOCTYPE svg PUBLIC "-//W3C//DTD SVG 1.1 Tiny//EN" "http://www.w3.org/Graphics/SVG/1.1/DTD/svg11-tiny.dtd">
<svg baseProfile="tiny" height="60px" version="1.1" viewBox="0 0 30 60" width="30px" x="0px" xmlns="http://www.w3.org/2000/svg" xmlns:xlink="http://www.w3.org/1999/xlink" y="0px">
<rect fill="none" height="60" width="30"/>
<path d="M24,0H0v60h24c3.3,0,6-2.7,6-6V6C30,2.7,27.3,0,24,0z" fill="#14141E" fill-opacity="0.2" stroke-opacity="0.2"/>
<path d="M24,1H0v58h24c2.757,0,5-2.243,5-5V6C29,3.243,26.757,1,24,1z" fill="url(#SVGID_1_)"/>
<path d="M24,2H0v1h24c1.654,0,3,1.346,3,3v48c0,1.654-1.346,3-3,3H0v1h24c2.205,0,4-1.794,4-4V6  C28,3.794,26.205,2,24,2z" fill="#FFFFFF" fill-opacity="0.2" stroke-opacity="0.2"/>
<path d="M24,1H0v1h24c2.205,0,4,1.795,4,4v48c0,2.205-1.795,4-4,4H0v1h24c2.757,0,5-2.243,5-5V6  C29,3.243,26.757,1,24,1z" fill-opacity="0.2" stroke-opacity="0.2"/>
<defs>
<linearGradient gradientUnits="userSpaceOnUse" id="SVGID_1_" x1="14.5" x2="14.5" y1="59" y2="1.0005">
<stop offset="0" style="stop-color:#65B8CC"/>
<stop offset="1" style="stop-color:#306D8C"/>
</linearGradient>
</defs>
</svg>
