<?xml version="1.0" encoding="UTF-8"?>
<!DOCTYPE svg PUBLIC "-//W3C//DTD SVG 1.1 Tiny//EN" "http://www.w3.org/Graphics/SVG/1.1/DTD/svg11-tiny.dtd">
<svg baseProfile="tiny" height="30px" version="1.1" viewBox="0 0 30 30" width="30px" x="0px" xmlns="http://www.w3.org/2000/svg" xmlns:xlink="http://www.w3.org/1999/xlink" y="0px">
<rect fill="none" height="30" width="30" x="0"/>
<polygon points="0.629,9.256 5.91,16.402 11.191,9.256 "/>
<polygon points="30.001,11.607 18.531,11.607 15.008,0.645 12.876,7.256 15.156,7.256 7.764,17.26 9.299,18.377 5.717,29.354   15.006,22.539 24.282,29.355 20.708,18.377 "/>
<path d="M0,0.645v3.01c0.893,0.053,3.342,0.322,3.969,1.979C3.975,5.648,4.453,7.195,4.4,9.357h2.998  c0.055-2.725-0.578-4.66-0.613-4.76C5.467,1.115,1.324,0.686,0,0.645z"/>
</svg>
