<?xml version="1.0" ?>
<!DOCTYPE svg  PUBLIC '-//W3C//DTD SVG 1.1 Tiny//EN'  'http://www.w3.org/Graphics/SVG/1.1/DTD/svg11-tiny.dtd'>
<svg baseProfile="tiny" height="30" viewBox="0 0 30 30" width="30" xmlns="http://www.w3.org/2000/svg" xmlns:xlink="http://www.w3.org/1999/xlink">

<rect fill="none" height="30" width="30"/>

<path d="M10.21,8.109c0.054,0.038,0.102,0.08,0.158,0.117,0.002,0.085,0.007,0.529,0.002,0.614-0.004,0.053-0.023,0.109-0.042,0.166,0.089,1.067,0.151,3.104-0.483,4.349-0.273,0.539-0.615,1.011-1.033,1.424,0.305,0.294,0.856,0.707,1.623,1.221h6.824c-0.354-0.427-0.67-0.879-0.912-1.389-0.469-0.993-0.623-2.394-0.651-3.634-1.034-0.719-2.032-1.543-2.069-2.137-0.006-0.09,0-0.523,0-0.614,0.621-0.419,1.057-0.91,1.383-1.552,0.605-1.188,0.281-3.985,0.281-3.985,0-1.242-1.64-2.692-2.89-2.692h-0.8c-1.254,0-2.902,1.45-2.902,2.689,0,0-0.172,1.68,0.018,2.992,0.761,0.665,1.314,1.533,1.494,2.428z"/>

<path d="M19.99,15.8c0.003,0.112,0.009,0.695,0.001,0.807-0.005,0.076-0.032,0.158-0.061,0.24,0-0.001,0.002-0.002,0.002-0.003h4.393c-0.027-0.081-0.055-0.162-0.06-0.237-0.007-0.118-0.001-0.687,0.001-0.807,0.814-0.549,1.385-1.194,1.814-2.037,0.795-1.559,0.369-5.229,0.369-5.229,0-1.626-2.16-3.53-3.805-3.53h-1.04c-1.645,0-3.81,1.904-3.81,3.53,0,0-0.376,3.652,0.367,5.225,0.4,0.86,0.99,1.49,1.83,2.04z"/>

<path d="M24.68,17.44l-2.552,5.771-2.551-5.771c-0.549,0.688-1.57,1.464-2.574,2.146v6.41h13v-4.594c-0.23-0.3-4.06-2.37-5.33-3.97z"/>

<path d="M7.129,14.84c-0.006-0.09,0-0.523,0-0.614,0.621-0.419,1.057-0.91,1.383-1.552,0.605-1.188,0.281-3.985,0.281-3.985,0-1.245-1.647-2.695-2.898-2.695h-0.795c-1.254,0-2.903,1.45-2.903,2.689,0,0-0.287,2.783,0.279,3.981,0.311,0.654,0.76,1.139,1.395,1.556,0.002,0.085,0.007,0.529,0.002,0.614-0.062,0.98-2.734,2.58-3.873,3.31v3.85h1.454l7.665-5.078c-1.004-0.7-1.953-1.5-1.99-2.08z"/>

<polygon points="11,18.08,2,23.54,11,29,11,26,15,26,15,21,11,21"/>

</svg>