<?xml version="1.0" encoding="UTF-8"?>
<!DOCTYPE svg PUBLIC "-//W3C//DTD SVG 1.1 Tiny//EN" "http://www.w3.org/Graphics/SVG/1.1/DTD/svg11-tiny.dtd">
<svg baseProfile="tiny" height="72px" version="1.1" viewBox="0 0 72 72" width="72px" x="0px" xmlns="http://www.w3.org/2000/svg" xmlns:xlink="http://www.w3.org/1999/xlink" y="0px">
<path d="M13.799,35.3c0.201-5.6,2.4-10.7,6-14.5L10,11.1C4,17.4,0.199,25.9,0,35.3H13.799z" fill="#0067B1"/>
<path d="M20.799,19.8c3.801-3.6,8.9-5.8,14.5-6V0C25.899,0.2,17.399,4,11,10L20.799,19.8z" fill="#0067B1"/>
<path d="M36.699,0v13.8c5.6,0.2,10.701,2.4,14.5,6L61,10C54.699,4,46.1,0.2,36.699,0z" fill="#0067B1"/>
<path d="M19.799,51.2c-3.6-3.8-5.799-8.9-6-14.5H0C0.199,46.1,4,54.7,10,61L19.799,51.2z" fill="#424242"/>
<path d="M52.199,20.8c3.6,3.8,5.801,8.9,6,14.5H72C71.799,25.9,68,17.4,62,11L52.199,20.8z" fill="#0067B1"/>
<path d="M35.299,58.2c-5.6-0.2-10.699-2.4-14.5-6L11.1,62c6.3,6.1,14.8,9.9,24.3,10V58.2H35.299z" fill="#424242"/>
<path d="M51.199,52.2c-3.799,3.6-8.9,5.8-14.5,6V72C46.1,71.8,54.6,68,61,62L51.199,52.2z" fill="#82C341"/>
<path d="M58.299,36.7L58.299,36.7c-0.199,5.6-2.5,10.7-6.1,14.5L62,61c6.1-6.3,9.9-14.8,10-24.3H58.299z" fill="#82C341"/>
<polygon fill="#0067B1" points="65.199,41.3 58.299,36.7 72,36.7 "/>
</svg>
