<?xml version="1.0" encoding="UTF-8" standalone="no"?>
<!DOCTYPE svg PUBLIC "-//W3C//DTD SVG 1.1 Tiny//EN" "http://www.w3.org/Graphics/SVG/1.1/DTD/svg11-tiny.dtd">
<svg xmlns="http://www.w3.org/2000/svg" xmlns:xlink="http://www.w3.org/1999/xlink" baseProfile="tiny" height="30px" version="1.1" viewBox="0 0 30 30" width="30px" x="0px" y="0px">
<g fill-opacity="0.5" stroke-opacity="0.5">
<rect fill="none" height="30" width="30"/>
</g>
<rect height="2" width="2" x="7" y="6"/>
<rect height="2" width="10" x="10" y="6"/>
<path d="M5,3h18v8.557c0.785-0.716,1.999-0.7,2.758,0.059L26,11.857V0H2v29h9.128l0.333-3H5V3z"/>
<polygon points="26,29 26,25.515 22.515,29 "/>
<path d="M24.343,13.029L13.736,23.636L13.029,30l6.364-0.707L30,18.687L24.343,13.029z M18.687,27.171l-2.828-2.828l8.484-8.485  l2.829,2.829L18.687,27.171z"/>
</svg>
