<?xml version="1.0" encoding="UTF-8"?>
<!DOCTYPE svg PUBLIC "-//W3C//DTD SVG 1.1 Tiny//EN" "http://www.w3.org/Graphics/SVG/1.1/DTD/svg11-tiny.dtd">
<svg baseProfile="tiny" height="30px" version="1.1" viewBox="0 0 30 30" width="30px" x="0px" xmlns="http://www.w3.org/2000/svg" xmlns:xlink="http://www.w3.org/1999/xlink" y="0px">
<g fill-opacity="0.5" stroke-opacity="0.5">
<rect fill="none" height="30" width="30"/>
</g>
<path d="M6,1v10.282L1.563,6.986L0,8.549l5.543,5.336L0,19.286l1.563,1.562L6,16.554V27  l8-8l-5.539-5.115L14,9L6,1z M10.332,19.025l-2.473,2.473v-4.944L10.332,19.025z M7.859,11.282V6.336l2.473,2.473L7.859,11.282z" fill-rule="evenodd"/>
<path d="M16.477,19.025L12,23.828v0.2c2.021-1.99,4.326-3.278,6.747-3.775L20,19  l-5.539-5.115L20,9l-8-8v3.172l4.477,4.637l-4.961,5.049l0.028,0.027l-0.065,0.063L16.477,19.025z" fill-rule="evenodd"/>
<path d="M22.477,19.025l-0.941,1.01c0.983,0.048,1.953,0.225,2.903,0.526L26,19  l-5.539-5.115L26,9l-8-8v3.172l4.477,4.637l-4.961,5.049l0.027,0.027l-0.065,0.063L22.477,19.025z" fill-rule="evenodd"/>
<path d="M30,27c-2.454-3.123-5.586-5-9-5s-6.546,1.877-9,5h2.654  c0.695-0.709,1.521-1.386,2.463-1.921C17.047,25.376,17,25.682,17,26c0,2.21,1.792,4,4,4s4-1.79,4-4  c0-0.318-0.047-0.624-0.117-0.921c0.941,0.535,1.768,1.212,2.463,1.921H30z M21,28c-1.104,0-2-0.447-2-1s0.896-1,2-1s2,0.447,2,1  S22.104,28,21,28z" fill-rule="evenodd"/>
</svg>
