<?xml version="1.0" encoding="UTF-8"?>
<!DOCTYPE svg PUBLIC "-//W3C//DTD SVG 1.1 Tiny//EN" "http://www.w3.org/Graphics/SVG/1.1/DTD/svg11-tiny.dtd">
<svg baseProfile="tiny" height="30px" version="1.1" viewBox="0 0 30 30" width="30px" x="0px" xmlns="http://www.w3.org/2000/svg" xmlns:xlink="http://www.w3.org/1999/xlink" y="0px">
<rect fill="none" height="30" width="30"/>
<path d="M26,2H4C2.896,2,2,2.896,2,4v22c0,1.104,0.896,2,2,2h22c1.104,0,2-0.896,2-2V4C28,2.896,27.104,2,26,2z M21.5,14.5v1  c0,1.654-1.346,3-3,3h-7L5,25V5h20l-6.5,6.5C20.154,11.5,21.5,12.846,21.5,14.5z"/>
<path d="M11.5,16.5h7c0.553,0,1-0.447,1-1v-1c0-0.552-0.447-1-1-1h-7c-0.553,0-1,0.448-1,1v1C10.5,16.053,10.947,16.5,11.5,16.5z"/>
</svg>
