<?xml version="1.0" encoding="UTF-8"?>
<!DOCTYPE svg PUBLIC "-//W3C//DTD SVG 1.1 Tiny//EN" "http://www.w3.org/Graphics/SVG/1.1/DTD/svg11-tiny.dtd">
<svg baseProfile="tiny" height="30px" version="1.1" viewBox="0 0 30 30" width="30px" x="0px" xmlns="http://www.w3.org/2000/svg" xmlns:xlink="http://www.w3.org/1999/xlink" y="0px">
<path d="M25.34,17.21v2.332h1.691v2.277c-0.228,0.082-0.528,0.148-1.005,0.148-1.754,0-2.802-1.453-2.802-3.889,0-1.189,0.382-5.021,4.613-3.446l0.46,0.289,0.536-2.296s-0.991-0.788-2.648-0.788c-2.989,0-5.13,2.537-5.005,6.31,0.188,5.582,3.314,6.182,4.773,6.182,1.977,0,3.043-0.787,3.043-0.787v-6.332h-3.647z"/>
<path d="M12.68,5.949h6.298v3.392h-3.878v2.937s4.93-0.916,4.631,6.4c0,0,0.152,5.113-3.726,5.584-1.121,0.139-3.352-0.305-3.352-0.305l0.026-3.436s4.743,1.521,4.743-2.199c0-3.982-4.743-2.626-4.743-2.626v-9.741z"/>
<rect height="2.625" width="2.144" x="8.896" y="21.54"/>
<path d="M6.864,14.16c0.727-0.922,1.144-2.201,1.144-3.72,0-1.288-0.417-4.766-3.377-4.766-2.039,0-3.266,1.814-3.266,1.814l0.755,3.327s1.138-1.578,2.245-1.578c0.545,0,1.199,0.266,1.199,1.552,0,1.524-1.21,1.86-1.67,1.86h-1.291v3.435h1.295c0.33,0,2.188,0.4,2.015,2.369-0.331,3.822-3.281,1.695-3.613,1.373l-0.562-0.559-0.738,3.37s1.095,1.631,3.228,1.631c2.848,0,4.159-2.992,4.159-5.771,0-1.85-0.58-3.43-1.523-4.33z"/>
<rect fill="none" height="30" width="30"/>
</svg>
