<?xml version="1.0" encoding="UTF-8"?>
<!DOCTYPE svg PUBLIC "-//W3C//DTD SVG 1.1 Tiny//EN" "http://www.w3.org/Graphics/SVG/1.1/DTD/svg11-tiny.dtd">
<svg baseProfile="tiny" height="30px" version="1.1" viewBox="0 0 30 30" width="30px" x="0px" xmlns="http://www.w3.org/2000/svg" xmlns:xlink="http://www.w3.org/1999/xlink" y="0px">
<g fill-opacity="0.5" stroke-opacity="0.5">
<rect fill="none" height="30" width="30"/>
</g>
<path d="M15,8L7,0v10.282L2.563,5.986L1,7.549l5.543,5.336L1,18.286l1.563,1.562L7,15.554V26l6.489-6.489  c0.238-0.717,0.563-1.394,0.956-2.023l-4.984-4.603L15,8z M9.004,5.336l2.473,2.473l-2.473,2.474V5.336z M11.477,18.025  l-2.473,2.473v-4.944L11.477,18.025z"/>
<path d="M22.004,9.336l2.473,2.473l-1.229,1.229c0.99,0.077,1.939,0.305,2.822,0.664L28,12l-8-8v9.345  c0.644-0.176,1.313-0.284,2.004-0.319V9.336z"/>
<path d="M17.194,14.623c0.64-0.432,1.34-0.778,2.077-1.046l-3.709-3.591L14,11.549L17.194,14.623z"/>
<path d="M22.5,15c-4.136,0-7.5,3.364-7.5,7.5s3.364,7.5,7.5,7.5s7.5-3.364,7.5-7.5S26.636,15,22.5,15z M22.5,28  c-3.033,0-5.5-2.468-5.5-5.5s2.467-5.5,5.5-5.5s5.5,2.468,5.5,5.5S25.533,28,22.5,28z"/>
<polygon points="26.742,20.378 24.621,18.257 22.5,20.378 20.379,18.257 18.257,20.378 20.379,22.5 18.257,24.621 20.379,26.742   22.5,24.621 24.621,26.742 26.742,24.621 24.621,22.5 "/>
</svg>
