<?xml version="1.0" encoding="UTF-8" standalone="no"?>
<!DOCTYPE svg PUBLIC "-//W3C//DTD SVG 1.1 Tiny//EN" "http://www.w3.org/Graphics/SVG/1.1/DTD/svg11-tiny.dtd">
<svg xmlns="http://www.w3.org/2000/svg" xmlns:xlink="http://www.w3.org/1999/xlink" baseProfile="tiny" height="60" viewBox="0 0 60 60" width="60">
<g>
<rect fill="none" height="60" width="60"/>
<rect fill="none" height="60" width="60"/>
<linearGradient gradientTransform="matrix(1 0 0 -1 -257 2114.0029)" gradientUnits="userSpaceOnUse" id="SVGID_1_" x1="286.999" x2="286.999" y1="2109.4985" y2="2056.0034">
<stop offset="0" style="stop-color:#D49757"/>
<stop offset="1" style="stop-color:#702200"/>
</linearGradient>
<path d="M8.526,58c-1.246,0-2.261-1.013-2.261-2.26V6.765c0-1.248,1.015-2.261,2.261-2.261h42.947  c1.247,0,2.262,1.013,2.262,2.261V55.74c0,1.247-1.015,2.26-2.262,2.26H8.526z" fill="url(#SVGID_1_)"/>
<path d="M51.473,4.504H8.526c-1.246,0-2.261,1.013-2.261,2.261v0.753  c0-1.248,1.015-2.261,2.261-2.261h42.947c1.247,0,2.262,1.013,2.262,2.261V6.765C53.735,5.518,52.72,4.504,51.473,4.504z" fill="#FFFFFF" fill-opacity="0.6" stroke-opacity="0.6"/>
<path d="M51.473,57.246H8.526c-1.246,0-2.261-1.013-2.261-2.259v0.753  c0,1.247,1.015,2.26,2.261,2.26h42.947c1.247,0,2.262-1.013,2.262-2.26v-0.753C53.735,56.233,52.72,57.246,51.473,57.246z" fill="#FFFFFF" fill-opacity="0.3" stroke-opacity="0.3"/>
<linearGradient gradientTransform="matrix(1 0 0 -1 -257 2114.0029)" gradientUnits="userSpaceOnUse" id="SVGID_2_" x1="287" x2="287" y1="2105.8599" y2="2058.8542">
<stop offset="0" style="stop-color:#707173"/>
<stop offset="1" style="stop-color:#000000"/>
</linearGradient>
<rect fill="url(#SVGID_2_)" fill-opacity="0.3" height="46.716" stroke-opacity="0.3" width="41.441" x="9.279" y="8.271"/>
<linearGradient gradientTransform="matrix(1 0 0 -1 -257 2114.0029)" gradientUnits="userSpaceOnUse" id="SVGID_3_" x1="287" x2="287" y1="2105.1021" y2="2059.6138">
<stop offset="0" style="stop-color:#707173"/>
<stop offset="1" style="stop-color:#000000"/>
</linearGradient>
<rect fill="url(#SVGID_3_)" fill-opacity="0.6" height="45.209" stroke-opacity="0.6" width="39.934" x="10.033" y="9.024"/>
<linearGradient gradientTransform="matrix(1 0 0 -1 -257 2114.0029)" gradientUnits="userSpaceOnUse" id="SVGID_4_" x1="306.4023" x2="267.6852" y1="2082.7524" y2="2082.7524">
<stop offset="0" style="stop-color:#737373"/>
<stop offset="1" style="stop-color:#FFFFFF"/>
</linearGradient>
<rect fill="url(#SVGID_4_)" height="42.948" width="38.427" x="10.787" y="9.778"/>
<linearGradient gradientTransform="matrix(1 0 0 -1 -257 2114.0029)" gradientUnits="userSpaceOnUse" id="SVGID_5_" x1="306.2607" x2="267.8748" y1="2083.5054" y2="2083.5054">
<stop offset="0" style="stop-color:#8A8C8E"/>
<stop offset="1" style="stop-color:#4A4A4A"/>
</linearGradient>
<rect fill="url(#SVGID_5_)" height="42.948" width="38.427" x="10.787" y="9.024"/>
<linearGradient gradientTransform="matrix(1 0 0 -1 -257 2114.0029)" gradientUnits="userSpaceOnUse" id="SVGID_6_" x1="267.8789" x2="306.4008" y1="2083.8804" y2="2083.8804">
<stop offset="0" style="stop-color:#737373"/>
<stop offset="1" style="stop-color:#FFFFFF"/>
</linearGradient>
<rect fill="url(#SVGID_6_)" height="42.195" width="38.427" x="10.787" y="9.024"/>
<linearGradient gradientTransform="matrix(1 0 0 -1 -257 2114.0029)" gradientUnits="userSpaceOnUse" id="SVGID_7_" x1="277.0107" x2="271.0243" y1="2074.269" y2="2068.2825">
<stop offset="0" style="stop-color:#737373"/>
<stop offset="1" style="stop-color:#FFFFFF"/>
</linearGradient>
<rect fill="url(#SVGID_7_)" height="41.441" width="38.427" x="10.787" y="9.024"/>
<linearGradient gradientTransform="matrix(1 0 0 -1 -257 2114.0029)" gradientUnits="userSpaceOnUse" id="SVGID_8_" x1="286.999" x2="286.999" y1="2088.8618" y2="2072.0024">
<stop offset="0" style="stop-color:#FFFFFF"/>
<stop offset="0.25" style="stop-color:#FFFFFF"/>
<stop offset="1" style="stop-color:#E1E1E1"/>
</linearGradient>
<path d="M10.787,36.149c0,0.83,0.478,1.987,1.064,2.573l9.925,9.925c0.586,0.585,1.743,1.064,2.573,1.064  h24.864V9.024H10.787V36.149z" fill="url(#SVGID_8_)"/>
<linearGradient gradientTransform="matrix(1 0 0 -1 -257 2114.0029)" gradientUnits="userSpaceOnUse" id="SVGID_9_" x1="286.999" x2="286.999" y1="2104.7153" y2="2064.199">
<stop offset="0" style="stop-color:#F0F0F2"/>
<stop offset="1" style="stop-color:#B3B5B8"/>
</linearGradient>
<path d="M48.46,9.778v39.181H24.349c-0.626,0-1.599-0.401-2.04-0.845l-9.925-9.924  c-0.443-0.441-0.845-1.413-0.845-2.04V9.778H48.46 M49.213,9.024H10.787v27.125c0,0.83,0.478,1.987,1.064,2.573l9.925,9.925  c0.586,0.585,1.743,1.064,2.573,1.064h24.864V9.024L49.213,9.024z" fill="url(#SVGID_9_)"/>
<polygon fill="#929497" points="25.856,23.028 46.199,23.028 46.199,21.521 25.856,21.521 "/>
<polygon fill="#929497" points="25.856,31.929 46.199,31.929 46.199,30.422 25.856,30.422 "/>
<polygon fill="#929497" points="16.815,40.549 46.199,40.549 46.199,39.796 46.199,39.042 16.815,39.042 "/>
<linearGradient gradientTransform="matrix(1 0 0 -1 -257 2114.0029)" gradientUnits="userSpaceOnUse" id="SVGID_10_" x1="279.4805" x2="273.8942" y1="2075.5806" y2="2069.9941">
<stop offset="0" style="stop-color:#FFFFFF"/>
<stop offset="0.297" style="stop-color:#FFFFFF"/>
<stop offset="0.5576" style="stop-color:#E6E6E6"/>
<stop offset="0.7515" style="stop-color:#BCBCBC"/>
<stop offset="1" style="stop-color:#8E8E8E"/>
</linearGradient>
<path d="M12.177,39.046c-0.314-0.347-0.896-0.695-1.297-2.184c0,0,0.66,3.055,9.701,0.041  c0,12.809,3.768,12.809,3.768,12.809c-0.831,0-1.987-0.479-2.573-1.064L12.177,39.046z" fill="url(#SVGID_10_)"/>
<linearGradient gradientTransform="matrix(1 0 0 -1 -257 2114.0029)" gradientUnits="userSpaceOnUse" id="SVGID_11_" x1="287.001" x2="287.001" y1="2106.5767" y2="2102.8931">
<stop offset="0" style="stop-color:#707173"/>
<stop offset="1" style="stop-color:#000000"/>
</linearGradient>
<path d="M43.265,7.045c-0.107-0.35-0.512-0.637-0.9-0.637  h-5.741c-0.388,0-0.779-0.292-0.866-0.645l-0.189-0.749H24.433l-0.191,0.749c-0.088,0.355-0.477,0.645-0.865,0.645h-5.741  c-0.388,0-0.793,0.287-0.9,0.637l-1.024,3.36c-0.108,0.35,0.123,0.637,0.512,0.637h27.554c0.388,0,0.619-0.288,0.513-0.637  L43.265,7.045z" fill="url(#SVGID_11_)" fill-opacity="0.15" stroke-opacity="0.15"/>
<linearGradient gradientTransform="matrix(1 0 0 -1 -257 2114.0029)" gradientUnits="userSpaceOnUse" id="SVGID_12_" x1="287.001" x2="287.001" y1="2105.8237" y2="2102.1401">
<stop offset="0" style="stop-color:#707173"/>
<stop offset="1" style="stop-color:#000000"/>
</linearGradient>
<path d="M43.265,7.799c-0.107-0.35-0.512-0.637-0.9-0.637h-5.741  c-0.388,0-0.779-0.291-0.866-0.644l-0.189-0.749H24.433l-0.191,0.749c-0.088,0.354-0.477,0.644-0.865,0.644h-5.741  c-0.388,0-0.793,0.287-0.9,0.637l-1.024,3.36c-0.108,0.35,0.123,0.637,0.512,0.637h27.554c0.388,0,0.619-0.287,0.513-0.637  L43.265,7.799z" fill="url(#SVGID_12_)" fill-opacity="0.2" stroke-opacity="0.2"/>
<path d="M44.822,12.549H15.178l-0.218,0.781  c-0.114,0.399,0.128,0.726,0.538,0.726h29.005c0.409,0,0.651-0.327,0.539-0.726L44.822,12.549z" fill="#6D6E70" fill-opacity="0.5" stroke-opacity="0.5"/>
<linearGradient gradientTransform="matrix(1 0 0 -1 -257 2114.0029)" gradientUnits="userSpaceOnUse" id="SVGID_13_" x1="286.999" x2="286.999" y1="2111.5005" y2="2101.1914">
<stop offset="0" style="stop-color:#747577"/>
<stop offset="1" style="stop-color:#D5D7D9"/>
</linearGradient>
<path d="M43.964,8.753c-0.113-0.399-0.541-0.725-0.949-0.725h-6.043c-0.409,0-0.819-0.331-0.913-0.734  l-2.131-4.56C33.835,2.33,33.423,2,33.013,2h-6.027c-0.409,0-0.82,0.33-0.911,0.734l-2.133,4.56  c-0.094,0.404-0.504,0.734-0.913,0.734h-6.043c-0.41,0-0.836,0.326-0.949,0.725l-1.078,3.824c-0.113,0.399,0.128,0.726,0.539,0.726  h29.006c0.409,0,0.651-0.327,0.539-0.726L43.964,8.753z" fill="url(#SVGID_13_)"/>
<path d="M26.783,2.754h6.431c0.316,0,0.734,0.179,0.919,0.434c0,0-0.284-1.188-1.125-1.188h-6.022  c-0.835,0-1.118,1.188-1.118,1.188C26.053,2.934,26.467,2.754,26.783,2.754z" fill="#FFFFFF"/>
<path d="M36.361,8.047c0.099,0.404,0.53,0.734,0.959,0.734h6.346c0.108,0,0.216,0.021,0.322,0.058l-0.024-0.086  c-0.113-0.399-0.541-0.725-0.949-0.725h-6.043c-0.266,0-0.521-0.147-0.702-0.354L36.361,8.047z" fill="#FFFFFF"/>
<path d="M16.334,8.782h6.345c0.429,0,0.861-0.331,0.96-0.734l0.089-0.373c-0.179,0.207-0.435,0.354-0.702,0.354  h-6.043c-0.408,0-0.834,0.326-0.948,0.725l-0.024,0.086C16.117,8.802,16.227,8.782,16.334,8.782z" fill="#FFFFFF"/>
<linearGradient gradientUnits="userSpaceOnUse" id="SVGID_14_" x1="18.9233" x2="18.9233" y1="17.7236" y2="25.0068">
<stop offset="0" style="stop-color:#83C61D"/>
<stop offset="1" style="stop-color:#358C0C"/>
</linearGradient>
<polygon fill="url(#SVGID_14_)" points="24.046,19.701 22.61,18.264 17.46,23.414 15.238,21.194 13.801,22.631 17.454,26.286 "/>
<linearGradient gradientUnits="userSpaceOnUse" id="SVGID_15_" x1="18.9233" x2="18.9233" y1="26.6226" y2="33.9071">
<stop offset="0" style="stop-color:#83C61D"/>
<stop offset="1" style="stop-color:#358C0C"/>
</linearGradient>
<polygon fill="url(#SVGID_15_)" points="24.046,28.602 22.61,27.164 17.46,32.314 15.238,30.095 13.801,31.532 17.454,35.187 "/>
</g>
</svg>
