<?xml version="1.0" encoding="UTF-8"?>
<!DOCTYPE svg PUBLIC "-//W3C//DTD SVG 1.1 Tiny//EN" "http://www.w3.org/Graphics/SVG/1.1/DTD/svg11-tiny.dtd">
<svg baseProfile="tiny" height="10px" version="1.1" viewBox="0 0 10 10" width="10px" x="0px" xmlns="http://www.w3.org/2000/svg" xmlns:xlink="http://www.w3.org/1999/xlink" y="0px">
<rect fill="none" height="10" width="10"/>
<path d="M0,0v4c0,3.3,2.7,6,6,6h4V0H0z" fill="#14141E" fill-opacity="0.4" stroke-opacity="0.4"/>
<path d="M1,0v4c0,2.757,2.243,5,5,5h4V0H1z" fill="#14141E" fill-opacity="0.2" stroke-opacity="0.2"/>
<path d="M1,0v3c0,2.757,2.243,5,5,5h4V0H1z" fill="url(#SVGID_1_)"/>
<path d="M6,7C3.794,7,2,5.205,2,3V0H1v3c0,2.757,2.243,5,5,5h4V7H6z" fill-opacity="0.2" stroke-opacity="0.2"/>
<rect fill="none" height="10" width="10"/>
<defs>
<linearGradient gradientUnits="userSpaceOnUse" id="SVGID_1_" x1="5.5" x2="5.5" y1="8" y2="-38.7526">
<stop offset="0" style="stop-color:#D2D2D2"/>
<stop offset="1" style="stop-color:#AAAAAA"/>
</linearGradient>
</defs>
</svg>
