<?xml version="1.0" encoding="UTF-8" standalone="no"?>
<!DOCTYPE svg PUBLIC "-//W3C//DTD SVG 1.1 Tiny//EN" "http://www.w3.org/Graphics/SVG/1.1/DTD/svg11-tiny.dtd">
<svg xmlns="http://www.w3.org/2000/svg" xmlns:xlink="http://www.w3.org/1999/xlink" baseProfile="tiny" height="30px" version="1.1" viewBox="0 0 30 30" width="30px" x="0px" y="0px">
<path d="M3.188,19.199c0.45,0.271,1.477,0.721,2.593,0.721c2.017,0,2.664-1.278,2.646-2.269c-0.018-1.639-1.494-2.341-3.025-2.341  H4.521v-1.188h0.882c1.152,0,2.611-0.595,2.611-1.98c0-0.937-0.594-1.765-2.053-1.765c-0.936,0-1.836,0.414-2.34,0.774L3.188,9.999  c0.63-0.45,1.818-0.9,3.079-0.9c2.305,0,3.349,1.368,3.349,2.791c0,1.224-0.738,2.25-2.161,2.772v0.036  c1.441,0.27,2.594,1.351,2.611,2.989c0,1.872-1.477,3.511-4.268,3.511c-1.314,0-2.467-0.414-3.043-0.792L3.188,19.199z"/>
<path d="M26.797,10.629h-4.466l-0.45,3.007c0.27-0.036,0.521-0.054,0.954-0.054c0.919,0,1.801,0.18,2.521,0.63  c0.919,0.504,1.675,1.53,1.675,2.989c0,2.286-1.818,3.997-4.357,3.997c-1.278,0-2.341-0.36-2.917-0.721l0.396-1.206  c0.486,0.288,1.44,0.648,2.521,0.648c1.477,0,2.772-0.973,2.755-2.539c0-1.513-1.026-2.574-3.349-2.574  c-0.685,0-1.206,0.054-1.639,0.107l0.757-5.617h5.6V10.629z"/>
<g fill-opacity="0.5" stroke-opacity="0.5">
<rect fill="none" height="30" width="30"/>
</g>
<polygon points="14,23 13,23 16,7 17,7 14,23 "/>
</svg>
