<?xml version="1.0" encoding="UTF-8"?>
<!DOCTYPE svg PUBLIC "-//W3C//DTD SVG 1.1 Tiny//EN" "http://www.w3.org/Graphics/SVG/1.1/DTD/svg11-tiny.dtd">
<svg baseProfile="tiny" height="16px" version="1.1" viewBox="0 0 16 16" width="16px" x="0px" xmlns="http://www.w3.org/2000/svg" xmlns:xlink="http://www.w3.org/1999/xlink" y="0px">
<rect fill="none" height="16" width="16"/>
<path d="M3.363,5.413c1.206-2.139,3.811-3.208,6.259-2.412c2.448,0.795,3.931,3.192,3.649,5.63l1.703,0.554  c0.564-3.372-1.426-6.75-4.811-7.85C6.779,0.236,3.183,1.8,1.661,4.86L3.363,5.413z"/>
<path d="M14.34,11.139l-1.705-0.553c-1.203,2.141-3.81,3.208-6.257,2.412S2.447,9.807,2.729,7.366L1.026,6.813  c-0.565,3.371,1.427,6.752,4.811,7.85C9.223,15.764,12.817,14.199,14.34,11.139z"/>
</svg>
