<?xml version="1.0" encoding="UTF-8"?>
<!DOCTYPE svg PUBLIC "-//W3C//DTD SVG 1.1 Tiny//EN" "http://www.w3.org/Graphics/SVG/1.1/DTD/svg11-tiny.dtd">
<svg baseProfile="tiny" height="30" viewBox="0 0 30 30" width="30" xmlns="http://www.w3.org/2000/svg" xmlns:xlink="http://www.w3.org/1999/xlink">
<rect fill="none" height="30" width="30"/>
<polygon fill-opacity="0.6" points="4.412,27.354 4.412,2.647 18.896,2.647 25.59,9.341 25.59,27.354 " stroke-opacity="0.6"/>
<linearGradient gradientUnits="userSpaceOnUse" id="SVGID_1" x1="15" x2="15" y1="3.53" y2="26.47">
<stop offset="0" stop-color="#FFFFFF"/>
<stop offset="1" stop-color="#B1B1B1"/>
</linearGradient>
<polygon fill="url(#SVGID_1)" points="24.707,9.707 24.707,26.473 5.294,26.473 5.294,3.53 18.53,3.53 "/>
<polygon fill="#FFFFFF" points="18.53,3.53 5.294,3.53 5.294,4.412 18.165,4.412 24.707,11.016 24.707,9.707 "/>
<linearGradient gradientUnits="userSpaceOnUse" id="SVGID_2" x1="15" x2="15" y1="23.82" y2="12.35">
<stop offset="0" stop-color="#666666"/>
<stop offset="1" stop-color="#282828"/>
</linearGradient>
<rect fill="url(#SVGID_2)" height="11.471" width="14.119" x="7.941" y="12.354"/>
<linearGradient gradientUnits="userSpaceOnUse" id="SVGID_3" x1="15" x2="15" y1="13.24" y2="22.92">
<stop offset="0" stop-color="#FEE06A"/>
<stop offset="1" stop-color="#FFB701"/>
</linearGradient>
<polygon fill="url(#SVGID_3)" points="17.648,13.236 17.648,15.883 16.766,15.883 16.766,13.236 13.236,13.236 13.236,15.883 12.354,15.883 12.354,13.236 8.824,13.236 8.824,17.648 21.178,17.648 21.178,13.236 "/>
<rect fill="url(#SVGID_3)" height="4.412" width="3.529" x="8.824" y="18.53"/>
<rect fill="url(#SVGID_3)" height="4.412" width="3.53" x="13.236" y="18.53"/>
<rect fill="url(#SVGID_3)" height="4.412" width="3.529" x="17.648" y="18.53"/>
<rect fill="#FFFFFF" fill-opacity="0.3" height="0.882" stroke-opacity="0.3" width="12.354" x="8.824" y="13.236"/>
<rect fill="none" height="30.002" width="30.002"/>
</svg>
