<?xml version="1.0" encoding="UTF-8"?>
<!DOCTYPE svg PUBLIC "-//W3C//DTD SVG 1.1 Tiny//EN" "http://www.w3.org/Graphics/SVG/1.1/DTD/svg11-tiny.dtd">
<svg baseProfile="tiny" height="30" viewBox="0 0 30 30" width="30" xmlns="http://www.w3.org/2000/svg" xmlns:xlink="http://www.w3.org/1999/xlink">
<g>
<path d="M13.236,27.354v-1.917c-0.655-0.111-1.298-0.283-1.923-0.519l-0.96,1.663  l-3.058-1.765l0.96-1.663c-0.512-0.425-0.983-0.896-1.408-1.408l-1.663,0.96l-1.765-3.058l1.663-0.959  c-0.234-0.627-0.408-1.27-0.519-1.924H2.647v-3.53h1.917c0.111-0.654,0.284-1.297,0.518-1.923l-1.662-0.96l1.765-3.058l1.664,0.96  c0.424-0.513,0.896-0.983,1.407-1.407L7.296,5.184l3.057-1.765l0.959,1.663c0.625-0.235,1.269-0.408,1.923-0.518V2.647h3.53v1.917  c0.654,0.11,1.298,0.283,1.924,0.518l0.96-1.663l3.058,1.765l-0.961,1.664c0.513,0.424,0.983,0.896,1.409,1.408l1.663-0.96  l1.764,3.057l-1.663,0.959c0.235,0.626,0.407,1.269,0.519,1.923h1.917v3.53h-1.917c-0.111,0.654-0.283,1.297-0.519,1.924l1.663,0.96  l-1.765,3.058l-1.663-0.961c-0.425,0.514-0.896,0.983-1.408,1.409l0.96,1.663l-3.058,1.765l-0.959-1.664  c-0.626,0.235-1.27,0.407-1.924,0.519v1.917H13.236z" style="opacity:0.6;enable-background:new    ;"/>
<path d="M26.473,15.883v-1.765h-1.811c-0.102-1.128-0.401-2.198-0.857-3.182l1.57-0.906l-0.883-1.528  l-1.567,0.904c-0.64-0.902-1.427-1.69-2.331-2.33L21.5,5.507l-1.529-0.882l-0.906,1.57c-0.983-0.454-2.053-0.753-3.182-0.855V3.53  h-1.765v1.81C12.99,5.441,11.92,5.74,10.937,6.195l-0.906-1.57L8.502,5.508l0.904,1.569c-0.902,0.639-1.69,1.427-2.33,2.33  L5.508,8.501l-0.882,1.528l1.571,0.906C5.74,11.92,5.441,12.99,5.338,14.118H3.53v1.765h1.809c0.103,1.129,0.402,2.198,0.857,3.182  l-1.571,0.906L5.507,21.5l1.57-0.904c0.64,0.902,1.427,1.69,2.331,2.33l-0.905,1.568l1.528,0.883l0.906-1.57  c0.984,0.456,2.053,0.754,3.182,0.856v1.81h1.765v-1.811c1.129-0.102,2.198-0.4,3.182-0.855l0.906,1.569l1.529-0.882l-0.904-1.569  c0.902-0.64,1.69-1.427,2.33-2.331l1.568,0.906l0.882-1.529l-1.569-0.906c0.455-0.983,0.754-2.053,0.856-3.182H26.473z" style="fill:#FFFFFF;"/>
<radialGradient cx="482.8145" cy="-901.5898" gradientTransform="matrix(0.309 0 0 -0.309 -134.1975 -266.6604)" gradientUnits="userSpaceOnUse" id="SVGID_1_" r="37.6191">
<stop offset="0" style="stop-color:#94FFFF"/>
<stop offset="0.5" style="stop-color:#36B5FF"/>
<stop offset="1" style="stop-color:#1B66D8"/>
</radialGradient>
<circle cx="15.001" cy="15" r="8.824" style="fill:url(#SVGID_1_);"/>
<path d="M23.51,14.517c-0.195-3.446-2.427-6.415-5.688-7.56l-0.397,0.063  l-2.304-0.442l-2.875,1.714l-0.108,0.724h-1.668l0.658,1.121l-1.785,1.456l-0.417,1.799l1.476,2.613l1.505-0.308l0.55,0.472  l0.429,0.043l0.282,1.11l-0.374,0.972l1.369,3.494h1.393l1.381-1.114v-0.455l0.363-0.567l0.303-0.154  c-0.077,0.117-0.197,0.385-0.197,0.385c-0.012,0.092,0.197,1.87,0.81,1.732c0.465-0.105,2.128-3.195,2.159-3.488  c0.063-0.58-0.252-0.82-0.447-0.911l-0.216-0.102l-0.993,0.995c-0.105,0.008-0.201,0.025-0.289,0.051v-0.826l1.078-1.052  l0.549-1.767l0.836-0.68L20.707,13.5l0.631-0.606l-0.352-0.643l0.27,0.032l1.568,3.515l0.321-0.258  c-0.01-0.172-0.028-0.341-0.049-0.509L23.51,14.517z M15.106,10.565l-0.13-0.35h0.79l0.383,0.862h-0.57v-0.511L15.106,10.565  L15.106,10.565z M17.707,12.302l0.629,0.919l0.043,0.109l-0.645-0.39l-0.155-0.555L17.707,12.302z M18.652,13.907l0.191,0.19  l-0.246,0.056l-0.055-0.069L18.652,13.907z M13.729,7.729l0.4,0.62l-0.455,0.139l-0.177-0.101L13.729,7.729z" style="opacity:0.3;enable-background:new    ;"/>
<path d="M15.001,6.177c-4.872,0-8.824,3.951-8.824,8.824  c0,4.874,3.952,8.823,8.824,8.823c4.875,0,8.823-3.949,8.823-8.823C23.824,10.128,19.876,6.177,15.001,6.177z M15.001,23.146  c-4.492,0-8.145-3.654-8.145-8.146c0-4.492,3.653-8.146,8.145-8.146c4.491,0,8.145,3.654,8.145,8.146  C23.146,19.492,19.492,23.146,15.001,23.146z" style="opacity:0.3;fill:url(#SVGID_2_);enable-background:new    ;"/>
<radialGradient cx="340.3594" cy="-404.4678" gradientTransform="matrix(0.8824 0 0 -0.8824 -284.8232 -348.3516)" gradientUnits="userSpaceOnUse" id="SVGID_3_" r="11.8606">
<stop offset="0" style="stop-color:#94FF26"/>
<stop offset="0.3152" style="stop-color:#94FF26"/>
<stop offset="0.7273" style="stop-color:#1FC211"/>
<stop offset="1" style="stop-color:#0BA133"/>
</radialGradient>
<path d="M19.781,17.521l-0.918,0.921c0,0-0.555,0-0.581,0.219c-0.013,0.095-0.043,0.505-0.136,0.718  c-0.185,0.127-0.404,0.551-0.404,0.551s-0.114,0.818,0.497,0.68C18.85,20.471,20.725,17.965,19.781,17.521z" style="fill:url(#SVGID_3_);"/>
<radialGradient cx="340.3604" cy="-404.4697" gradientTransform="matrix(0.8824 0 0 -0.8824 -284.8232 -348.3516)" gradientUnits="userSpaceOnUse" id="SVGID_4_" r="13.7169">
<stop offset="0" style="stop-color:#94FF26"/>
<stop offset="0.3152" style="stop-color:#94FF26"/>
<stop offset="0.7273" style="stop-color:#1FC211"/>
<stop offset="1" style="stop-color:#0BA133"/>
</radialGradient>
<path d="M17.708,7.275c-0.149,0.057-0.253,0.095-0.253,0.095l-2.27-0.432l-1.113,0.696l0.586,0.906  l-1.024,0.313l-0.551-0.313l0.195-0.55L12.559,8.49l-0.13,0.865h-1.367l0.507,0.86l-1.922,1.567l-0.362,1.563l0.712,1.382  l0.428,0.274l1.506-0.307l0.548,0.472l0.5,0.048l0.544,2.126l-0.362,0.94l0.797,1.769l0.226,0.734h1.394l0.789-0.427l0.593-0.689  v-0.834l1.128-0.575v-1.237l0.447-0.849l0.996-0.896l0.238-1.039l-1.304,0.291l-0.341-0.419l0.242-0.389l-0.926-0.56l-0.393-1.417  l0.682-0.445l0.63,0.917l0.236,0.607l0.472,0.472l0.552,0.289l0.613-0.099l0.681-0.655l-0.479-0.875l-0.604,0.158l-0.544-0.648  l0.519-0.362l1.627,0.197v0.578l1.415,2.917l0.322-0.257C22.98,11.171,20.757,8.349,17.708,7.275z M16.971,11.22l-0.745,0.197  h-0.989v-0.513h-0.944l-0.75,0.199l-1.143-0.316l-0.313-0.589l1.575-0.355h1.575L15.001,9.21h0.788l0.438,0.986l0.744,0.259V11.22  L16.971,11.22z M18.664,9.92l-1.339-0.238V9.209l0.669-0.159l0.196-0.235l0.474,0.393V9.92z" style="fill:url(#SVGID_4_);"/>
<rect height="30.002" style="fill:none;" width="30.002"/>
<defs>
<linearGradient gradientTransform="matrix(0.8824 0 0 -0.8824 -284.8232 -348.3516)" gradientUnits="userSpaceOnUse" id="SVGID_2_" x1="339.7813" x2="339.7813" y1="-401.8247" y2="-421.8779">
<stop offset="0" style="stop-color:#31A7F8"/>
<stop offset="0.497" style="stop-color:#1E74DC"/>
<stop offset="1" style="stop-color:#C8E4EB"/>
</linearGradient>
</defs>
</g>
</svg>
