<?xml version="1.0" encoding="UTF-8"?>
<!DOCTYPE svg PUBLIC "-//W3C//DTD SVG 1.1 Tiny//EN" "http://www.w3.org/Graphics/SVG/1.1/DTD/svg11-tiny.dtd">
<svg baseProfile="tiny" height="30" viewBox="0 0 30 30" width="30" xmlns="http://www.w3.org/2000/svg" xmlns:xlink="http://www.w3.org/1999/xlink">
<rect fill="none" height="30" width="30"/>
<rect fill="none" height="30" width="30"/>
<path d="M23.234,20.628l3-9.749h-7.688l2.311-7.504h-4.504l-2.41,7.829c2.212,0.25,3.905,1.019,5.175,1.927h1.92l-0.404,1.314 c1.26,1.331,1.789,2.579,1.834,2.69l0.182,0.449l-0.631,1.377c-0.824,1.797-2.607,3.087-4.543,3.915l3.52,3.749l5.629-5.997H23.234z "/>
<path d="M12.4,12.235c-2.763,0-7.288,1.523-8.597,4.385l-0.428,0.937l0.428,0.936c1.309,2.861,5.834,4.387,8.599,4.387 c2.76,0,7.283-1.524,8.595-4.385l0.428-0.938C21.426,17.557,19.276,12.235,12.4,12.235z M12.401,20.629 c-2.324,0-5.777-1.379-6.552-3.072c0.775-1.694,4.229-3.071,6.551-3.071c2.32,0,5.775,1.377,6.551,3.071 C18.175,19.25,14.72,20.629,12.401,20.629z"/>
<circle cx="12.4" cy="17.557" r="3"/>
</svg>
