<?xml version="1.0" encoding="UTF-8"?>
<!DOCTYPE svg PUBLIC "-//W3C//DTD SVG 1.1 Tiny//EN" "http://www.w3.org/Graphics/SVG/1.1/DTD/svg11-tiny.dtd">
<svg baseProfile="tiny" height="30px" version="1.1" viewBox="0 0 30 30" width="30px" x="0px" xmlns="http://www.w3.org/2000/svg" xmlns:xlink="http://www.w3.org/1999/xlink" y="0px">
<g fill-opacity="0.5" stroke-opacity="0.5">
<rect fill="none" height="30" width="30"/>
</g>
<path d="M13.116,23.909c-0.544-0.116-1.07-0.276-1.574-0.483l1.558-2.225  c0.424-3.082,2.324-5.697,4.971-7.099l3.658-5.225c1.07,1.175,1.836,2.629,2.179,4.238c1.504,0.225,2.893,0.799,4.081,1.644  C27.857,7.702,22.087,2,15,2C7.832,2,2,7.831,2,15c0,7.088,5.703,12.857,12.76,12.988C13.915,26.8,13.342,25.412,13.116,23.909z   M5.889,15c0-5.024,4.088-9.111,9.111-9.111c1.225,0,2.391,0.246,3.458,0.686L8.271,21.122C6.797,19.503,5.889,17.358,5.889,15z" fill-rule="evenodd"/>
<path d="M22.5,15c-4.136,0-7.5,3.364-7.5,7.5s3.364,7.5,7.5,7.5s7.5-3.364,7.5-7.5S26.636,15,22.5,15z M22.5,28  c-3.033,0-5.5-2.468-5.5-5.5s2.467-5.5,5.5-5.5s5.5,2.468,5.5,5.5S25.533,28,22.5,28z"/>
<rect height="3" transform="matrix(0.7071 -0.7072 0.7072 0.7071 -9.3196 22.502)" width="9" x="18" y="20.999"/>
<rect height="3" transform="matrix(-0.7071 -0.7072 0.7072 -0.7071 22.4979 54.319)" width="9" x="18" y="21"/>
</svg>
