<?xml version="1.0" encoding="UTF-8" standalone="no"?>
<!DOCTYPE svg PUBLIC "-//W3C//DTD SVG 1.1 Tiny//EN" "http://www.w3.org/Graphics/SVG/1.1/DTD/svg11-tiny.dtd">
<svg xmlns="http://www.w3.org/2000/svg" xmlns:xlink="http://www.w3.org/1999/xlink" baseProfile="tiny" height="30" viewBox="0 0 30 30" width="30">
<rect fill="none" height="30" width="30"/>
<rect fill="none" height="30" width="30"/>
<rect fill="#44A51C" height="30" width="30"/>
<path d="M7.069,9.857c-3.87,0-5.903,2.655-5.903,6.435,0,3.829,1.497,6.84,5.863,6.84,4.022,0,5.882-2.724,5.882-6.754,0-3.85-1.83-6.523-5.841-6.523zm-0.042,11.2c-2.063,0-2.152-2.928-2.152-4.844,0-1.868,0.156-4.297,2.152-4.297,1.901,0,2.169,2.567,2.169,4.297,0.001,2.23-0.112,4.84-2.169,4.84z" fill="#FFFFFF"/>
<path d="M17.85,23.13c1.57,0,2.125-0.788,2.498-1.933l3.385-11.16h-3.158l-2.42,9.658-2.282-9.658h-3.739l3.212,11.16c0.35,1.14,0.93,1.93,2.5,1.93z" fill="#FFFFFF"/>
<path d="M26.99,5.348c-1.162,0-1.969,0.587-1.969,1.667,0,1.082,0.827,1.667,1.969,1.667,1.143,0,1.967-0.585,1.967-1.667,0-1.058-0.87-1.667-1.97-1.667z" fill="#FFFFFF"/>
<path d="M25.69,22.77c0.263,0.191,0.681,0.358,1.27,0.358,0.615,0,1.018-0.169,1.282-0.358,0.507-0.357,0.507-0.963,0.507-1.289v-11.44h-3.525-0.244c-0.341,0-0.626,0.007-0.818,0.275-0.098,0.124-0.229,0.351-0.229,0.759,0,0.424,0.132,0.628,0.229,0.756,0.192,0.272,0.478,0.273,0.818,0.273,0.115,0,0.209-0.001,0.209-0.001v9.385c-0.01,0.31-0.01,0.92,0.5,1.27z" fill="#FFFFFF"/>
</svg>
