<?xml version="1.0" encoding="UTF-8"?>
<!DOCTYPE svg PUBLIC "-//W3C//DTD SVG 1.1 Tiny//EN" "http://www.w3.org/Graphics/SVG/1.1/DTD/svg11-tiny.dtd">
<svg baseProfile="tiny" height="60" viewBox="0 0 60 60" width="60" xmlns="http://www.w3.org/2000/svg" xmlns:xlink="http://www.w3.org/1999/xlink">
<rect fill="none" height="60" width="60"/>
<radialGradient cx="42.4" cy="42.28" gradientUnits="userSpaceOnUse" id="SVGID_1" r="11.1">
<stop offset="0" stop-color="#FFA98E"/>
<stop offset="0.2" stop-color="#FFA98E"/>
<stop offset="0.96" stop-color="#D45D36"/>
<stop offset="1" stop-color="#D45D36"/>
</radialGradient>
<path d="M46.906,37.352c-1.044-0.453-1.01-2.678-0.58-3.351c0.074-0.117,0.143-0.234,0.215-0.353 h-8.732c0.071,0.118,0.14,0.235,0.217,0.353c0.43,0.673,0.462,2.896-0.58,3.351c-1.047,0.453,4.854,4.402,4.854,4.402 S47.95,37.805,46.906,37.352z" fill="url(#SVGID_1)"/>
<linearGradient gradientUnits="userSpaceOnUse" id="SVGID_2" x1="42.17" x2="42.17" y1="36.94" y2="46.08">
<stop offset="0" stop-color="#3BC8EB"/>
<stop offset="0.39" stop-color="#2D9BD2"/>
<stop offset="0.89" stop-color="#1347BA"/>
<stop offset="1" stop-color="#1347BA"/>
</linearGradient>
<path d="M53.184,39.668c-1.098-0.571-6.541-2.477-6.645-2.596l-4.157,3.455l-4.468-3.588 c-0.123,0.183-5.504,2.068-6.747,2.729c-1.425,0.757-3.753,2.496-3.753,6.414h29.521C56.935,42.164,54.281,40.24,53.184,39.668z" fill="url(#SVGID_2)"/>
<polygon fill="#020202" fill-opacity="0.3" points="36.898,37.383 42.382,41.754 47.533,37.473 46.54,37.072 42.382,40.527 37.916,36.939 " stroke-opacity="0.3"/>
<linearGradient gradientUnits="userSpaceOnUse" id="SVGID_3" x1="28.2" x2="37.16" y1="41.84" y2="41.84">
<stop offset="0" stop-color="#3BC8EB"/>
<stop offset="1" stop-color="#2D9BD2"/>
</linearGradient>
<path d="M37.156,38.075c0,0-7.826,2.043-7.826,7.524c0,0-1.119,0.001-1.128,0 C28.203,42.229,30.834,39.607,37.156,38.075z" fill="url(#SVGID_3)"/>
<linearGradient gradientUnits="userSpaceOnUse" id="SVGID_4" x1="47.09" x2="56.04" y1="41.71" y2="41.71">
<stop offset="0" stop-color="#3BC8EB"/>
<stop offset="1" stop-color="#2D9BD2"/>
</linearGradient>
<path d="M47.092,37.947c0,0,7.824,2.044,7.824,7.525c0,0,1.119,0,1.127,0 C56.043,42.102,53.413,39.481,47.092,37.947z" fill="url(#SVGID_4)"/>
<linearGradient gradientUnits="userSpaceOnUse" id="SVGID_5" x1="42.22" x2="42.22" y1="42.15" y2="37.1">
<stop offset="0" stop-color="#3BC8EB"/>
<stop offset="1" stop-color="#2D9BD2"/>
</linearGradient>
<polygon fill="url(#SVGID_5)" points="42.382,41.754 36.897,37.383 36.579,37.521 42.382,42.146 47.854,37.597 47.535,37.469 "/>
<radialGradient cx="42.94" cy="21.82" gradientUnits="userSpaceOnUse" id="SVGID_6" r="14.9">
<stop offset="0" stop-color="#FFE2D9"/>
<stop offset="0.51" stop-color="#FFC6B3"/>
<stop offset="0.76" stop-color="#FFA98E"/>
<stop offset="1" stop-color="#E88160"/>
</radialGradient>
<path d="M49.416,27.128c-0.037-0.017-0.08-0.019-0.116-0.031c0-0.001,0-0.002,0-0.002 c-0.008-0.002-0.013-0.003-0.022-0.004c-0.057-0.015-0.115-0.027-0.174-0.031c-7.29-1.269-10.636-5.307-10.887-4.238 c-0.201,0.851-2.245,2.691-3.316,3.609c0.01,0.041,0.015,0.078,0.022,0.119c0,0,0.039,0.188,0.12,0.509 c-0.085,0.009-0.168,0.027-0.248,0.061c-0.681,0.289-0.896,1.404-0.479,2.496c0.418,1.09,1.309,1.743,1.989,1.456 c0.043-0.018,0.079-0.047,0.115-0.072c0.396,0.89,0.882,1.844,1.478,2.8c0.998,1.186,2.525,2.577,4.213,2.577 c2.039,0,3.287-1.118,4.146-2.243c0.021-0.048,0.043-0.093,0.068-0.131c0.635-0.993,1.152-1.991,1.568-2.919 c0.666,0.23,1.521-0.389,1.947-1.438C50.281,28.56,50.09,27.433,49.416,27.128z" fill="url(#SVGID_6)"/>
<linearGradient gradientUnits="userSpaceOnUse" id="SVGID_7" x1="39.54" x2="45.84" y1="37.06" y2="30.81">
<stop offset="0" stop-color="#FFC6B3"/>
<stop offset="1" stop-color="#FFA98E"/>
</linearGradient>
<path d="M41.811,35.801c-1.244,0-2.494-0.578-3.417-1.449c0.976,1.025,2.288,2.023,3.717,2.023 c2.04,0,3.288-1.118,4.146-2.243c0.021-0.048,0.044-0.093,0.068-0.131c0.635-0.993,1.152-1.991,1.569-2.919 C45.574,35.138,43.85,35.801,41.811,35.801z" fill="url(#SVGID_7)"/>
<linearGradient gradientUnits="userSpaceOnUse" id="SVGID_8" x1="42.05" x2="42.05" y1="17.1" y2="26.37">
<stop offset="0" stop-color="#8A5D3B"/>
<stop offset="0.38" stop-color="#632F00"/>
<stop offset="1" stop-color="#361700"/>
</linearGradient>
<path d="M41.904,16.965c-2.527,0-3.744,1.149-4.681,2.35c-1.526,0.236-3.946,1.635-2.237,7.764 c1.07-0.917,3.028-3.406,3.229-4.256c0.253-1.08,3.655,3.044,11.083,4.272c0.088-0.343,0.128-0.545,0.128-0.545 C50.592,21.317,48.055,17.17,41.904,16.965z" fill="url(#SVGID_8)"/>
<linearGradient gradientUnits="userSpaceOnUse" id="SVGID_9" x1="45.22" x2="36.82" y1="25.97" y2="20.99">
<stop offset="0" stop-color="#8A5D3B"/>
<stop offset="0.36" stop-color="#632F00"/>
<stop offset="1" stop-color="#361700"/>
</linearGradient>
<path d="M38.225,22.32c0,0,3.635,4.777,11.023,4.768C49.247,27.088,45.77,26.542,38.225,22.32z" fill="url(#SVGID_9)"/>
<linearGradient gradientUnits="userSpaceOnUse" id="SVGID_10" x1="36.06" x2="36.14" y1="20.01" y2="25.35">
<stop offset="0" stop-color="#8A5D3B"/>
<stop offset="0.38" stop-color="#632F00"/>
<stop offset="1" stop-color="#361700"/>
</linearGradient>
<path d="M37.35,19.67c0,0-3.559,0.214-2.238,6.246C35.111,25.916,34.676,21.785,37.35,19.67z" fill="url(#SVGID_10)"/>
<linearGradient gradientUnits="userSpaceOnUse" id="SVGID_11" x1="43.23" x2="42.97" y1="17.9" y2="20.32">
<stop offset="0" stop-color="#A87C4F"/>
<stop offset="1" stop-color="#632F00"/>
</linearGradient>
<path d="M43.631,20.507c-1.658-0.237-4.461-1.706-5.561-1.181c0,0,3.598-4.105,9.943,0.568 C48.014,19.894,46.502,20.915,43.631,20.507z" fill="url(#SVGID_11)"/>
<radialGradient cx="18.04" cy="42.28" gradientUnits="userSpaceOnUse" id="SVGID_12" r="11.1">
<stop offset="0" stop-color="#FFA98E"/>
<stop offset="0.2" stop-color="#FFA98E"/>
<stop offset="0.96" stop-color="#D45D36"/>
<stop offset="1" stop-color="#D45D36"/>
</radialGradient>
<path d="M22.552,37.352c-1.043-0.453-1.01-2.678-0.58-3.351c0.075-0.117,0.143-0.234,0.217-0.353 h-8.733c0.071,0.118,0.14,0.235,0.215,0.353c0.431,0.673,0.462,2.896-0.58,3.351c-1.046,0.453,4.854,4.402,4.854,4.402 S23.597,37.805,22.552,37.352z" fill="url(#SVGID_12)"/>
<path d="M28.83,39.668c-1.098-0.571-6.541-2.477-6.643-2.596l-4.158,3.455l-4.467-3.588 c-0.124,0.183-5.504,2.068-6.748,2.729c-1.425,0.757-3.752,2.496-3.752,6.414H32.58C32.58,42.164,29.927,40.24,28.83,39.668z" fill="url(#SVGID_2)"/>
<polygon fill="#020202" fill-opacity="0.3" points="12.544,37.383 18.028,41.754 23.179,37.473 22.187,37.072 18.028,40.527 13.561,36.939 " stroke-opacity="0.3"/>
<linearGradient gradientUnits="userSpaceOnUse" id="SVGID_14" x1="3.85" x2="12.8" y1="41.84" y2="41.84">
<stop offset="0" stop-color="#3BC8EB"/>
<stop offset="1" stop-color="#2D9BD2"/>
</linearGradient>
<path d="M12.802,38.075c0,0-7.826,2.043-7.826,7.524c0,0-1.119,0.001-1.126,0 C3.85,42.229,6.481,39.607,12.802,38.075z" fill="url(#SVGID_14)"/>
<linearGradient gradientUnits="userSpaceOnUse" id="SVGID_15" x1="22.74" x2="31.69" y1="41.71" y2="41.71">
<stop offset="0" stop-color="#3BC8EB"/>
<stop offset="1" stop-color="#2D9BD2"/>
</linearGradient>
<path d="M22.738,37.947c0,0,7.825,2.044,7.825,7.525c0,0,1.119,0,1.127,0 C31.689,42.102,29.059,39.481,22.738,37.947z" fill="url(#SVGID_15)"/>
<polygon fill="url(#SVGID_5)" points="18.028,41.754 12.543,37.383 12.225,37.521 18.028,42.146 23.5,37.597 23.182,37.469 "/>
<radialGradient cx="18.58" cy="21.82" gradientUnits="userSpaceOnUse" id="SVGID_17" r="14.9">
<stop offset="0" stop-color="#FFE2D9"/>
<stop offset="0.51" stop-color="#FFC6B3"/>
<stop offset="0.76" stop-color="#FFA98E"/>
<stop offset="1" stop-color="#E88160"/>
</radialGradient>
<path d="M25.063,27.128c-0.037-0.017-0.079-0.019-0.116-0.031c0-0.001,0-0.002,0-0.002 c-0.008-0.002-0.013-0.003-0.023-0.004c-0.056-0.015-0.115-0.027-0.174-0.031c-7.29-1.269-10.635-5.307-10.887-4.238 c-0.202,0.851-2.245,2.691-3.316,3.609c0.009,0.041,0.015,0.078,0.023,0.119c0,0,0.039,0.188,0.119,0.509 c-0.085,0.009-0.168,0.027-0.249,0.061c-0.68,0.289-0.895,1.404-0.477,2.496c0.417,1.09,1.307,1.743,1.989,1.456 c0.042-0.018,0.078-0.047,0.116-0.072c0.396,0.89,0.881,1.844,1.477,2.8c0.999,1.186,2.525,2.577,4.212,2.577 c2.04,0,3.288-1.118,4.146-2.243c0.022-0.048,0.045-0.093,0.068-0.131c0.636-0.993,1.152-1.991,1.569-2.919 c0.667,0.23,1.521-0.389,1.947-1.438C25.927,28.56,25.737,27.433,25.063,27.128z" fill="url(#SVGID_17)"/>
<linearGradient gradientUnits="userSpaceOnUse" id="SVGID_18" x1="15.19" x2="21.49" y1="37.06" y2="30.81">
<stop offset="0" stop-color="#FFC6B3"/>
<stop offset="1" stop-color="#FFA98E"/>
</linearGradient>
<path d="M17.456,35.801c-1.242,0-2.494-0.578-3.416-1.449c0.976,1.025,2.287,2.023,3.716,2.023 c2.04,0,3.288-1.118,4.146-2.243c0.022-0.048,0.044-0.093,0.068-0.131c0.636-0.993,1.152-1.991,1.569-2.919 C21.22,35.138,19.497,35.801,17.456,35.801z" fill="url(#SVGID_18)"/>
<path d="M17.551,16.965c-2.528,0-3.744,1.149-4.682,2.35c-1.526,0.236-3.946,1.635-2.236,7.764 c1.07-0.917,3.028-3.406,3.229-4.256c0.254-1.08,3.656,3.044,11.084,4.272c0.086-0.343,0.127-0.545,0.127-0.545 C26.238,21.317,23.701,17.17,17.551,16.965z" fill="url(#SVGID_8)"/>
<linearGradient gradientUnits="userSpaceOnUse" id="SVGID_20" x1="20.87" x2="12.47" y1="25.97" y2="20.99">
<stop offset="0" stop-color="#8A5D3B"/>
<stop offset="0.36" stop-color="#632F00"/>
<stop offset="1" stop-color="#361700"/>
</linearGradient>
<path d="M13.87,22.32c0,0,3.635,4.777,11.024,4.768C24.894,27.088,21.415,26.542,13.87,22.32z" fill="url(#SVGID_20)"/>
<path d="M12.997,19.67c0,0-3.56,0.214-2.24,6.246C10.756,25.916,10.322,21.785,12.997,19.67z" fill="url(#SVGID_10)"/>
<linearGradient gradientUnits="userSpaceOnUse" id="SVGID_22" x1="18.87" x2="18.61" y1="17.9" y2="20.31">
<stop offset="0" stop-color="#A87C4F"/>
<stop offset="1" stop-color="#632F00"/>
</linearGradient>
<path d="M19.276,20.507c-1.657-0.237-4.46-1.706-5.56-1.181c0,0,3.598-4.105,9.943,0.568 C23.66,19.894,22.148,20.915,19.276,20.507z" fill="url(#SVGID_22)"/>
<path d="M46.639,40.859c-1.014-0.527-4.164-1.695-6.693-2.635 l-1.423-0.529l-0.255-0.103l-0.334-0.128l-0.636-0.256l-0.393,0.172c-0.003,0-0.007,0.002-0.009,0.002l-0.002,0.002 c-1.65,0.645-4.812,1.797-5.728,2.283c-0.358,0.189-0.772,0.442-1.191,0.773c-0.44-0.363-0.85-0.619-1.146-0.773 c-0.789-0.41-3.808-1.506-5.491-2.136l-0.157-0.063l-0.004,0.002l-0.698-0.28l-0.635,0.277c-0.621,0.243-1.387,0.534-2.205,0.846 l-0.076,0.029c-2.42,0.92-5.165,1.962-6.214,2.521c-2.356,1.25-4.052,3.019-5.053,5.218h19.117h5.166h19.035 C50.053,42.814,47.353,41.231,46.639,40.859z" fill="#231F20" fill-opacity="0.15" stroke-opacity="0.15"/>
<path d="M18.102,22.87c-1.12,0.952-1.423,2.862-0.696,4.758 c0.682,1.787,2.095,2.988,3.515,2.988c0.001,0,0.004,0,0.004,0c0.213,0.442,0.434,0.88,0.662,1.31H21.52l0.542,0.896 c0,0,0.141,0.23,0.307,0.505c0.452-0.767,0.85-1.528,1.172-2.245c0.667,0.23,1.521-0.389,1.947-1.438 c0.439-1.085,0.249-2.212-0.425-2.518c-0.037-0.016-0.079-0.018-0.116-0.03c0-0.001,0-0.002,0-0.002 c-0.008-0.002-0.013-0.003-0.023-0.004c-0.056-0.015-0.115-0.027-0.174-0.031c-0.014-0.002-0.025-0.006-0.038-0.008 c-0.028-0.006-0.065-0.014-0.099-0.021c0.114,0.02,0.217,0.045,0.333,0.064c0.086-0.344,0.127-0.545,0.127-0.545 c1.166-5.233-1.371-9.38-7.521-9.585c-0.012,0-0.02,0.002-0.032,0.002C17.359,18.634,17.544,20.598,18.102,22.87z" fill="#231F20" fill-opacity="0.15" stroke-opacity="0.15"/>
<path d="M37.224,19.314c-1.526,0.236-3.944,1.634-2.238,7.759 c-0.064,0.011-0.129,0.021-0.191,0.046c-0.681,0.289-0.896,1.404-0.478,2.496c0.418,1.09,1.308,1.743,1.988,1.456 c0.043-0.018,0.079-0.047,0.115-0.072c0.332,0.742,0.73,1.531,1.197,2.326c0.523-0.883,1.021-1.796,1.473-2.738 c1.295-0.154,2.558-1.277,3.21-2.89c0.745-1.836,0.507-3.746-0.544-4.739c0.471-2.123,0.544-4.146,0.234-5.986 c-0.029-0.001-0.057-0.005-0.086-0.006C39.377,16.965,38.16,18.114,37.224,19.314z M34.994,27.07 c0.014-0.011,0.029-0.026,0.041-0.038c0.002,0.009,0.005,0.016,0.008,0.026C35.026,27.061,35.011,27.068,34.994,27.07z M38.518,22.661L38.518,22.661c-0.018-0.003-0.042-0.014-0.061-0.015C38.476,22.646,38.499,22.657,38.518,22.661z" fill="#231F20" fill-opacity="0.15" stroke-opacity="0.15"/>
<path d="M46.365,41.383c-0.98-0.508-4.11-1.67-6.627-2.605 l-1.437-0.533l-0.247-0.102l-0.343-0.131l-0.97-0.39c-0.031-0.043-0.054-0.099-0.082-0.147c-1.697,0.658-4.617,1.729-5.494,2.193 c-0.357,0.19-0.771,0.443-1.191,0.774c-0.441-0.363-0.85-0.619-1.146-0.774c-0.789-0.409-3.808-1.505-5.491-2.135l-0.086-0.035 l-1.192,0.52c-0.641,0.252-1.438,0.555-2.286,0.878c-2.406,0.914-5.132,1.951-6.148,2.489c-2.143,1.139-3.715,2.727-4.677,4.697 h18.465h5.166h18.379C49.461,43.152,47.023,41.726,46.365,41.383z" fill="#231F20" fill-opacity="0.3" stroke-opacity="0.3"/>
<path d="M17.957,27.418c0.596,1.56,1.788,2.608,2.964,2.608 c0.122,0,0.244-0.012,0.362-0.035c0.403,0.866,0.838,1.711,1.301,2.524h-0.017l0.137,0.224c0.311-0.565,0.599-1.124,0.838-1.657 c0.667,0.23,1.521-0.389,1.947-1.438c0.439-1.085,0.249-2.212-0.425-2.518c-0.037-0.016-0.079-0.018-0.116-0.03 c0-0.001,0-0.002,0-0.002c-0.009-0.002-0.014-0.003-0.023-0.004c-0.056-0.015-0.114-0.027-0.174-0.031 c-0.014-0.002-0.025-0.006-0.038-0.008c-0.028-0.006-0.065-0.014-0.099-0.021c0.114,0.02,0.218,0.045,0.334,0.064 c0.086-0.344,0.126-0.545,0.126-0.545c1.129-5.069-1.228-9.109-6.966-9.543c-0.167,1.691,0.046,3.725,0.667,6.109 C17.626,23.776,17.262,25.604,17.957,27.418z" fill="#231F20" fill-opacity="0.3" stroke-opacity="0.3"/>
<path d="M37.224,19.314c-1.526,0.236-3.944,1.634-2.238,7.759 c-0.064,0.011-0.129,0.021-0.191,0.046c-0.681,0.289-0.896,1.404-0.478,2.496c0.418,1.09,1.308,1.743,1.988,1.456 c0.043-0.018,0.079-0.047,0.115-0.072c0.248,0.557,0.535,1.138,0.858,1.728c0.51-0.878,0.995-1.78,1.43-2.714 c0.025,0.001,0.051,0.002,0.077,0.002c1.161,0,2.354-1.021,2.967-2.54c0.719-1.767,0.422-3.569-0.65-4.287 c0.049-0.213,0.072-0.331,0.072-0.331c0.467-2.086,0.533-4.069,0.221-5.862C39.219,17.142,38.095,18.2,37.224,19.314z M34.994,27.07 c0.014-0.011,0.029-0.026,0.041-0.038c0.002,0.009,0.005,0.016,0.008,0.026C35.026,27.061,35.011,27.068,34.994,27.07z M38.518,22.661L38.518,22.661c-0.018-0.003-0.042-0.014-0.061-0.015C38.476,22.646,38.499,22.657,38.518,22.661z" fill="#231F20" fill-opacity="0.3" stroke-opacity="0.3"/>
<radialGradient cx="30.31" cy="45.72" gradientUnits="userSpaceOnUse" id="SVGID_23" r="16.23">
<stop offset="0" stop-color="#FFA98E"/>
<stop offset="0.2" stop-color="#FFA98E"/>
<stop offset="0.96" stop-color="#D45D36"/>
<stop offset="1" stop-color="#D45D36"/>
</radialGradient>
<path d="M36.914,38.519c-1.525-0.663-1.477-3.914-0.848-4.897c0.109-0.171,0.21-0.344,0.315-0.515 H23.614c0.105,0.171,0.204,0.344,0.314,0.515c0.63,0.983,0.679,4.234-0.848,4.897c-1.527,0.662,7.097,6.437,7.097,6.437 S38.441,39.181,36.914,38.519z" fill="url(#SVGID_23)"/>
<linearGradient gradientUnits="userSpaceOnUse" id="SVGID_24" x1="30" x2="30" y1="37.92" y2="51.28">
<stop offset="0" stop-color="#FF7236"/>
<stop offset="1" stop-color="#BA1212"/>
</linearGradient>
<path d="M46.094,41.906c-1.605-0.834-9.564-3.621-9.715-3.795L30.3,43.163l-6.531-5.247 c-0.18,0.269-8.046,3.024-9.866,3.992c-2.083,1.105-5.486,3.646-5.486,9.375h43.158C51.576,45.554,47.696,42.742,46.094,41.906z" fill="url(#SVGID_24)"/>
<linearGradient gradientUnits="userSpaceOnUse" id="SVGID_25" x1="30.06" x2="30.06" y1="37.04" y2="44.86">
<stop offset="0" stop-color="#BC1C24"/>
<stop offset="1" stop-color="#6B1C24"/>
</linearGradient>
<polygon fill="url(#SVGID_25)" points="22.282,38.565 30.3,44.955 37.832,38.695 36.379,38.111 30.3,43.163 23.77,37.916 "/>
<path d="M22.659,39.577c0,0-11.44,2.987-11.44,11.002c0,0-1.635,0.001-1.647,0 C9.572,45.65,13.418,41.818,22.659,39.577z" fill="#FF7B56"/>
<path d="M37.186,39.392c0,0,11.441,2.987,11.441,11.003c0,0,1.636,0,1.646,0 C50.273,45.465,46.428,41.633,37.186,39.392z" fill="#FF7B56"/>
<linearGradient gradientUnits="userSpaceOnUse" id="SVGID_26" x1="30.06" x2="30.06" y1="45.53" y2="38.15">
<stop offset="0" stop-color="#FFA98E"/>
<stop offset="0.96" stop-color="#D45D36"/>
<stop offset="1" stop-color="#D45D36"/>
</linearGradient>
<polygon fill="url(#SVGID_26)" points="30.3,44.955 22.281,38.565 21.815,38.77 30.3,45.531 38.3,38.879 37.834,38.691 "/>
<radialGradient cx="31.1" cy="15.82" gradientUnits="userSpaceOnUse" id="SVGID_27" r="21.78">
<stop offset="0" stop-color="#FFE2D9"/>
<stop offset="0.51" stop-color="#FFC6B3"/>
<stop offset="0.76" stop-color="#FFA98E"/>
<stop offset="1" stop-color="#E88160"/>
</radialGradient>
<path d="M40.584,23.573c-0.055-0.026-0.114-0.03-0.17-0.046c0-0.001,0-0.002,0-0.002 c-0.012-0.002-0.021-0.004-0.033-0.007c-0.084-0.021-0.168-0.041-0.256-0.045c-10.658-1.854-15.548-7.759-15.916-6.195 c-0.294,1.244-3.281,3.935-4.847,5.276c0.013,0.06,0.02,0.114,0.034,0.174c0,0,0.056,0.275,0.174,0.744 c-0.125,0.013-0.246,0.039-0.365,0.089c-0.995,0.42-1.308,2.053-0.698,3.647c0.61,1.594,1.913,2.548,2.909,2.13 c0.061-0.027,0.113-0.071,0.169-0.107c0.579,1.301,1.289,2.696,2.159,4.094c1.458,1.732,3.691,3.766,6.157,3.766 c2.983,0,4.808-1.633,6.063-3.279c0.031-0.068,0.064-0.133,0.102-0.189c0.931-1.453,1.684-2.911,2.294-4.268 c0.974,0.337,2.225-0.569,2.845-2.102C41.85,25.666,41.571,24.017,40.584,23.573z" fill="url(#SVGID_27)"/>
<linearGradient gradientUnits="userSpaceOnUse" id="SVGID_28" x1="26.15" x2="35.36" y1="38.09" y2="28.95">
<stop offset="0" stop-color="#FFC6B3"/>
<stop offset="1" stop-color="#FFA98E"/>
</linearGradient>
<path d="M29.463,36.254c-1.816,0-3.646-0.846-4.993-2.121c1.425,1.498,3.343,2.957,5.432,2.957 c2.982,0,4.809-1.633,6.064-3.279c0.031-0.068,0.063-0.133,0.1-0.189c0.932-1.453,1.684-2.911,2.295-4.268 C34.967,35.283,32.447,36.254,29.463,36.254z" fill="url(#SVGID_28)"/>
<linearGradient gradientUnits="userSpaceOnUse" id="SVGID_29" x1="29.82" x2="29.82" y1="8.91" y2="22.47">
<stop offset="0" stop-color="#8A5D3B"/>
<stop offset="0.38" stop-color="#632F00"/>
<stop offset="1" stop-color="#361700"/>
</linearGradient>
<path d="M29.603,8.713c-3.695,0-5.473,1.68-6.845,3.436c-2.23,0.345-5.768,2.39-3.27,11.35 c1.565-1.341,4.427-4.978,4.722-6.222c0.371-1.577,5.343,4.451,16.205,6.248c0.127-0.501,0.185-0.797,0.185-0.797 C42.305,15.077,38.594,9.014,29.603,8.713z" fill="url(#SVGID_29)"/>
<linearGradient gradientUnits="userSpaceOnUse" id="SVGID_30" x1="34.45" x2="22.17" y1="21.89" y2="14.59">
<stop offset="0" stop-color="#8A5D3B"/>
<stop offset="0.36" stop-color="#632F00"/>
<stop offset="1" stop-color="#361700"/>
</linearGradient>
<path d="M24.221,16.543c0,0,5.316,6.983,16.117,6.971C40.338,23.514,35.251,22.716,24.221,16.543z" fill="url(#SVGID_30)"/>
<linearGradient gradientUnits="userSpaceOnUse" id="SVGID_31" x1="21.06" x2="21.17" y1="13.17" y2="20.97">
<stop offset="0" stop-color="#8A5D3B"/>
<stop offset="0.38" stop-color="#632F00"/>
<stop offset="1" stop-color="#361700"/>
</linearGradient>
<path d="M22.943,12.668c0,0-5.204,0.312-3.273,9.132C19.67,21.8,19.034,15.76,22.943,12.668z" fill="url(#SVGID_31)"/>
<linearGradient gradientUnits="userSpaceOnUse" id="SVGID_32" x1="31.54" x2="31.15" y1="10.07" y2="13.61">
<stop offset="0" stop-color="#A87C4F"/>
<stop offset="1" stop-color="#632F00"/>
</linearGradient>
<path d="M32.126,13.891c-2.423-0.346-6.521-2.493-8.129-1.726c0,0,5.26-6,14.538,0.831 C38.535,12.997,36.326,14.489,32.126,13.891z" fill="url(#SVGID_32)"/>
<g transform="matrix(0.5 0 0 0.5 30 30)">
<rect fill="none" height="59.996" width="59.996"/>
<path d="M51.311,47.291c0,2.219-1.801,4.02-4.021,4.02H12.707c-2.222,0-4.021-1.801-4.021-4.02V12.707 c0-2.221,1.799-4.022,4.021-4.022h34.582c2.221,0,4.021,1.801,4.021,4.022V47.291z" fill="#F7B388"/>
<linearGradient gradientUnits="userSpaceOnUse" id="SVGID_1_" x1="10.55" x2="48.97" y1="10.55" y2="48.97">
<stop offset="0" stop-color="#DF4F20"/>
<stop offset="0.5" stop-color="#F48228"/>
<stop offset="1" stop-color="#CF3A21"/>
</linearGradient>
<path d="M12.707,50.086c-1.542,0-2.797-1.254-2.797-2.795V12.707c0-1.543,1.255-2.798,2.797-2.798 h34.582c1.543,0,2.797,1.255,2.797,2.798v34.584c0,1.541-1.254,2.795-2.797,2.795H12.707z" fill="url(#SVGID_1_)"/>
<linearGradient gradientUnits="userSpaceOnUse" id="SVGID_2_" x1="30" x2="30" y1="8.36" y2="51.47">
<stop offset="0" stop-color="#C5422B"/>
<stop offset="0.5" stop-color="#F48228"/>
<stop offset="1" stop-color="#AD1B00"/>
</linearGradient>
<path d="M47.381,9.251c1.854,0,3.363,1.509,3.363,3.363v34.769c0,1.853-1.509,3.361-3.363,3.361 H12.614c-1.853,0-3.362-1.509-3.362-3.361V12.614c0-1.854,1.509-3.363,3.362-3.363H47.381 M47.381,8.571H12.614 c-2.232,0-4.042,1.81-4.042,4.043v34.769c0,2.23,1.809,4.042,4.042,4.042h34.767c2.234,0,4.044-1.812,4.044-4.042V12.614 C51.425,10.381,49.615,8.571,47.381,8.571L47.381,8.571z" fill="url(#SVGID_2_)"/>
<circle cx="19.476" cy="40.52" fill="#FFFFFF" r="4.132"/>
<path d="M39.143,44.193h5.51c0-15.907-12.942-28.85-28.85-28.85v5.51 C28.672,20.854,39.143,31.323,39.143,44.193z" fill="#FFFFFF"/>
<path d="M29.118,44.193h5.51c0-10.381-8.445-18.825-18.825-18.825v5.51 C23.145,30.878,29.118,36.851,29.118,44.193z" fill="#FFFFFF"/>
</g>
</svg>
