<?xml version="1.0" encoding="utf-8"?>
<!-- Generator: Adobe Illustrator 14.0.0, SVG Export Plug-In  -->
<!DOCTYPE svg PUBLIC "-//W3C//DTD SVG 1.1//EN" "http://www.w3.org/Graphics/SVG/1.1/DTD/svg11.dtd" [
	<!ENTITY ns_flows "http://ns.adobe.com/Flows/1.0/">
]>
<svg version="1.1"
	 xmlns="http://www.w3.org/2000/svg" xmlns:xlink="http://www.w3.org/1999/xlink" xmlns:a="http://ns.adobe.com/AdobeSVGViewerExtensions/3.0/"
	 x="0px" y="0px" width="30px" height="30px" viewBox="0 0 30 30" enable-background="new 0 0 30 30" xml:space="preserve">
<defs>
</defs>
<rect fill="none" width="30" height="30"/>
<path d="M22.213,3.21l0.707-0.707c0.779-0.777,2.053-0.777,2.83,0c0.777,0.778,0.777,2.051,0,2.828l-0.707,0.708L22.213,3.21z"/>
<path d="M11.593,22.994c-1.675,0.431-3.569-0.033-4.935-1.397c-1.363-1.364-1.83-3.262-1.399-4.937L11.593,22.994z"/>
<path d="M22.5,13c1.539,0,2.989,0.376,4.276,1.028c1.092-3.451,0.283-7.387-2.44-10.111c-3.891-3.89-10.254-3.89-14.143,0L5.95,8.16
	C4.037,7.475,3.313,7.968,2.436,8.846L1,10.281l12.011,12.011C13.123,17.15,17.332,13,22.5,13z"/>
<path d="M22.5,15c-4.136,0-7.5,3.364-7.5,7.5s3.364,7.5,7.5,7.5s7.5-3.364,7.5-7.5S26.636,15,22.5,15z M22.5,28
	c-3.033,0-5.5-2.468-5.5-5.5s2.467-5.5,5.5-5.5s5.5,2.468,5.5,5.5S25.533,28,22.5,28z"/>
<rect x="18" y="20.999" transform="matrix(0.7071 0.7071 -0.7071 0.7071 22.4997 -9.3199)" width="8.999" height="3"/>
<rect x="18" y="21" transform="matrix(0.7071 -0.7071 0.7071 0.7071 -9.3199 22.4997)" width="8.999" height="3"/>
</svg>
