<?xml version="1.0" encoding="UTF-8"?>
<!DOCTYPE svg PUBLIC "-//W3C//DTD SVG 1.1 Tiny//EN" "http://www.w3.org/Graphics/SVG/1.1/DTD/svg11-tiny.dtd">
<svg baseProfile="tiny" height="30" viewBox="0 0 30 30" width="30" xmlns="http://www.w3.org/2000/svg" xmlns:xlink="http://www.w3.org/1999/xlink">
<rect fill="none" height="30" width="30"/>
<rect fill="none" height="30.001" width="30"/>
<path d="M2.25,5.624v18.751h25.5V5.624H2.25z M25.5,22.125h-21V7.874h21V22.125z"/>
<path d="M8.086,18.822l-2.03-7.646h1.471l1.482,6.163l1.522-6.163h1.256L9.67,18.822H8.086L8.086,18.822z"/>
<path d="M14.899,18.904c-0.855,0-1.499-0.31-1.933-0.926c-0.434-0.617-0.651-1.641-0.651-3.075c0-1.237,0.269-2.181,0.808-2.833 c0.538-0.65,1.333-0.977,2.386-0.977c0.541,0,1.047,0.067,1.523,0.2v0.872c-0.424-0.127-0.897-0.19-1.422-0.19 c-0.597,0-1.051,0.254-1.36,0.761c-0.31,0.509-0.464,1.22-0.464,2.136c0,1.205,0.113,2.036,0.338,2.485s0.554,0.673,0.985,0.673 c0.273,0,0.49-0.097,0.651-0.29c0.16-0.193,0.24-0.449,0.24-0.766v-1.432h-1.01v-0.86h2.394v4.14H16.59l-0.211-0.683 c-0.142,0.238-0.35,0.424-0.617,0.563C15.491,18.836,15.203,18.904,14.899,18.904z"/>
<path d="M22.452,18.822l-0.441-1.682h-2.312l-0.451,1.682h-1.281l2.203-7.645h1.662l2.11,7.645H22.452z M21.801,16.279l-0.939-3.8 l-0.963,3.8H21.801z"/>
</svg>
