<?xml version="1.0" encoding="UTF-8"?>
<!DOCTYPE svg PUBLIC "-//W3C//DTD SVG 1.1 Tiny//EN" "http://www.w3.org/Graphics/SVG/1.1/DTD/svg11-tiny.dtd">
<svg baseProfile="tiny" height="60" viewBox="0 0 60 60" width="60" xmlns="http://www.w3.org/2000/svg" xmlns:xlink="http://www.w3.org/1999/xlink">
<g>
<g>
<rect fill="#E6E6E6" height="60" width="60" x="0"/>
<linearGradient gradientTransform="matrix(1 0 0 -1 -208.8501 -238.8496)" gradientUnits="userSpaceOnUse" id="SVGID_1_" x1="238.8494" x2="238.8494" y1="-245.1958" y2="-289.6997">
<stop offset="0" style="stop-color:#949494"/>
<stop offset="1" style="stop-color:#393939"/>
</linearGradient>
<path d="M48.378,43.6c-1.834-0.954-10.918-4.137-11.093-4.333l0,0c-1.027-1.18-0.987-3.782-0.47-4.912l0,0   c0.037-0.079,0.073-0.155,0.112-0.218c0.128-0.196,0.241-0.391,0.363-0.588h-0.006c0.897-1.463,1.649-2.92,2.263-4.286   c1.113,0.385,2.54-0.648,3.25-2.4c0.736-1.81,0.418-3.693-0.71-4.202c-0.064-0.029-0.132-0.031-0.194-0.052v-0.001   c0.145-0.574,0.21-0.909,0.21-0.909c1.948-8.736-2.291-15.664-12.558-16.005c-4.219,0-6.25,1.917-7.816,3.924   c-2.548,0.393-6.585,2.727-3.737,12.954c-0.108,0.015-0.216,0.033-0.32,0.075c-1.137,0.481-1.494,2.344-0.795,4.167   c0.695,1.82,2.183,2.909,3.322,2.432c0.068-0.029,0.13-0.079,0.192-0.123c0.626,1.41,1.395,2.913,2.321,4.427h-0.004   c0.034,0.053,0.063,0.105,0.097,0.157c0.019,0.031,0.037,0.059,0.054,0.09c0.002,0.004,0.004,0.007,0.004,0.007   c0.069,0.11,0.134,0.224,0.207,0.334c0.584,0.917,0.728,3.554-0.184,4.907c-0.239,0.314-9.191,3.456-11.268,4.556   c-2.377,1.263-6.261,4.165-6.261,10.706h49.286C54.642,47.765,50.211,44.552,48.378,43.6z M18.012,22.567   c0.022-0.021,0.046-0.044,0.069-0.065c0.003,0.018,0.005,0.027,0.012,0.044C18.063,22.55,18.038,22.561,18.012,22.567z" fill="url(#SVGID_1_)"/>
<linearGradient gradientTransform="matrix(1 0 0 -1 -208.8501 -238.8496)" gradientUnits="userSpaceOnUse" id="SVGID_2_" x1="238.8494" x2="238.8494" y1="-246.0537" y2="-292.9995">
<stop offset="0" style="stop-color:#7A7A7A"/>
<stop offset="0.7515" style="stop-color:#0A0A0A"/>
<stop offset="1" style="stop-color:#5F5F5F"/>
</linearGradient>
<path d="M6.048,54.306c0.185-4.285,2.164-7.46,5.89-9.436c1.086-0.577,4.294-1.795,6.87-2.776   c4.27-1.624,4.425-1.712,4.618-1.972c1.005-1.481,0.94-3.926,0.436-5.226l-0.573-1.025c-0.835-1.366-1.601-2.829-2.277-4.349   l-0.322-0.718l-0.662,0.424l-0.079,0.057c-0.105,0.05-0.205,0.071-0.312,0.071c-0.642,0-1.602-0.74-2.126-2.111   c-0.608-1.585-0.261-3.012,0.429-3.302c0.027-0.013,0.105-0.025,0.161-0.034l0.208-0.033l0.624-0.059l-0.448-1.833   c0,0-1.57-6.312,0.211-9.042c0.896-1.373,2.197-1.84,3.14-1.986l0.263-0.042l0.166-0.207c1.385-1.774,3.204-3.667,7.284-3.667   c4.541,0.153,8.063,1.664,10.162,4.374c2.076,2.684,2.693,6.519,1.736,10.809c-0.004,0.024-0.226,1.554-0.226,1.554l0.477,0.149   c0.041,0.015,0.085,0.022,0.129,0.031c0.672,0.301,0.989,1.745,0.346,3.326c-0.546,1.354-1.491,2.06-2.139,2.06   c-0.092,0-0.18-0.015-0.264-0.044l-0.582-0.201l-0.253,0.562c-0.656,1.456-1.404,2.876-2.224,4.21l-0.573,1.025   c-0.533,1.364-0.558,4.115,0.641,5.487c0,0,2.002,0.885,3.896,1.588c2.681,0.996,6.352,2.358,7.393,2.898   c0.952,0.496,5.571,3.217,5.885,9.436H6.048V54.306z" fill="url(#SVGID_2_)"/>
</g>
</g>
</svg>
