<?xml version="1.0" ?>
<!DOCTYPE svg  PUBLIC '-//W3C//DTD SVG 1.1 Tiny//EN'  'http://www.w3.org/Graphics/SVG/1.1/DTD/svg11-tiny.dtd'>
<svg baseProfile="tiny" height="30px" version="1.1" viewBox="0 0 30 30" width="30px" x="0px" xmlns="http://www.w3.org/2000/svg" xmlns:xlink="http://www.w3.org/1999/xlink" y="0px">

<path d="M18.8,8.537l-1.735-1.735c-1.598-1.598-4.188-1.598-5.784,0l-4.05,4.05-1.155-1.157-1.735,1.737,1.157,1.157-2.313,2.31c-0.646,0.647-1.019,1.458-1.142,2.299l-0.015,0.015,0.013,0.014c-0.171,1.226,0.2,2.515,1.144,3.457l1.735,1.735c0.943,0.944,2.231,1.315,3.457,1.145l0.014,0.013,0.015-0.016c0.048-0.007,0.096-0.005,0.144-0.013v2.506h-4.092c-0.451,0-0.818,0.366-0.818,0.818v1.636h12.27v-1.636c0-0.452-0.366-0.818-0.818-0.818h-4.09v-3.933l2.016-2.016,1.156,1.156,1.735-1.734-1.157-1.157,4.05-4.049c1.59-1.6,1.59-4.18-0.01-5.783zm-9.026,8.113c-0.903,0-1.636-0.732-1.636-1.636s0.732-1.636,1.636-1.636,1.636,0.731,1.636,1.636c0,0.91-0.73,1.64-1.636,1.64zm7.866-3.48l-4.049,4.049-1.161-1.162c0.127-0.323,0.203-0.673,0.203-1.041,0-1.579-1.284-2.863-2.863-2.863-0.368,0-0.718,0.076-1.042,0.203l-0.335-0.35,4.049-4.05c0.957-0.957,2.514-0.957,3.471,0l1.735,1.734c0.96,0.956,0.96,2.516,0,3.476z"/>

<path d="M22.21,1.066l-1.09,1.739c4.889,3.068,6.369,9.545,3.302,14.44l1.738,1.09c3.67-5.85,1.9-13.59-3.95-17.26z"/>

<path d="M20.03,4.544l-1.091,1.738c2.972,1.867,3.874,5.803,2.007,8.773l1.739,1.094c2.46-3.93,1.27-9.138-2.66-11.61z"/>

<g fill-opacity="0.5" stroke-opacity="0.5">

<rect fill="none" height="30" width="30"/>

</g>

</svg>