<?xml version="1.0" encoding="UTF-8"?>
<!DOCTYPE svg PUBLIC "-//W3C//DTD SVG 1.1 Tiny//EN" "http://www.w3.org/Graphics/SVG/1.1/DTD/svg11-tiny.dtd">
<svg baseProfile="tiny" height="30px" version="1.1" viewBox="0 0 30 30" width="30px" x="0px" xmlns="http://www.w3.org/2000/svg" xmlns:xlink="http://www.w3.org/1999/xlink" y="0px">
<rect fill="none" height="30" width="30"/>
<path d="M8.334,10.255C7.431,10.059,6.635,9.96,5.945,9.96c-0.6,0-1.069,0.135-1.407,0.406c-0.339,0.27-0.508,0.646-0.508,1.127  c0,0.41,0.129,0.771,0.387,1.083c0.259,0.312,0.837,0.7,1.733,1.163c1.063,0.57,1.807,1.16,2.229,1.769  c0.422,0.609,0.633,1.335,0.633,2.179c0,1.349-0.422,2.369-1.266,3.062c-0.844,0.691-2.07,1.038-3.681,1.038  c-1.046,0-2.067-0.122-3.065-0.365V19.62c1.123,0.279,2.079,0.419,2.869,0.419c0.695,0,1.228-0.152,1.596-0.459  c0.368-0.306,0.552-0.738,0.552-1.296c0-0.351-0.067-0.645-0.204-0.883c-0.137-0.237-0.347-0.463-0.629-0.677  s-0.813-0.541-1.591-0.98c-0.95-0.528-1.617-1.093-2-1.693c-0.384-0.6-0.575-1.313-0.575-2.139c0-1.17,0.402-2.079,1.208-2.727  C3.03,8.538,4.137,8.214,5.545,8.214c0.933,0,1.862,0.089,2.789,0.268V10.255z"/>
<path d="M14.964,21.786c-1.705,0-2.989-0.567-3.854-1.702c-0.864-1.135-1.296-2.891-1.296-5.267c0-4.402,1.717-6.604,5.15-6.604  c3.417,0,5.125,2.201,5.125,6.604c0,2.4-0.428,4.161-1.283,5.284S16.67,21.786,14.964,21.786z M14.964,9.96  c-0.671,0-1.176,0.318-1.515,0.954s-0.508,1.937-0.508,3.903c0,1.919,0.168,3.269,0.503,4.05c0.336,0.781,0.843,1.172,1.52,1.172  c0.653,0,1.15-0.349,1.492-1.047c0.341-0.698,0.514-2.09,0.514-4.175c0-1.872-0.17-3.149-0.508-3.832  C16.123,10.302,15.623,9.96,14.964,9.96z"/>
<path d="M28.322,10.255c-0.902-0.196-1.699-0.294-2.388-0.294c-0.601,0-1.069,0.135-1.408,0.406  c-0.339,0.27-0.508,0.646-0.508,1.127c0,0.41,0.128,0.771,0.386,1.083c0.259,0.312,0.838,0.7,1.735,1.163  c1.063,0.57,1.806,1.16,2.228,1.769C28.789,16.117,29,16.843,29,17.687c0,1.349-0.422,2.369-1.266,3.062  c-0.844,0.691-2.07,1.038-3.681,1.038c-1.045,0-2.067-0.122-3.065-0.365V19.62c1.123,0.279,2.079,0.419,2.87,0.419  c0.694,0,1.227-0.152,1.595-0.459c0.368-0.306,0.553-0.738,0.553-1.296c0-0.351-0.068-0.645-0.205-0.883  c-0.137-0.237-0.348-0.463-0.63-0.677s-0.811-0.541-1.589-0.98c-0.951-0.528-1.619-1.093-2.002-1.693  c-0.384-0.6-0.574-1.313-0.574-2.139c0-1.17,0.401-2.079,1.206-2.727c0.806-0.648,1.913-0.972,3.321-0.972  c0.933,0,1.862,0.089,2.789,0.268V10.255z"/>
</svg>
