<?xml version="1.0" encoding="UTF-8" standalone="no"?>
<!DOCTYPE svg PUBLIC "-//W3C//DTD SVG 1.1 Tiny//EN" "http://www.w3.org/Graphics/SVG/1.1/DTD/svg11-tiny.dtd">
<svg xmlns="http://www.w3.org/2000/svg" xmlns:xlink="http://www.w3.org/1999/xlink" baseProfile="tiny" height="30px" version="1.1" viewBox="0 0 30 30" width="30px" x="0px" y="0px">
<polygon points="20.47,13.06,18.42,14.34,20.28,17.32,17.24,17.32,14.58,13.06,12.53,14.34,14.39,17.32,5.341,17.32,5.341,19.74,24.64,19.74"/>
<polygon points="9.512,28.89,11.56,27.61,9.71,24.63,12.74,24.63,15.4,28.89,17.45,27.61,15.59,24.63,24.64,24.63,24.64,22.21,5.341,22.21"/>
<path d="M22.18,7.645v1.318h1.179v1.291c-0.159,0.044-0.368,0.083-0.699,0.083-1.218,0-1.943-0.822-1.943-2.201,0-0.674,0.262-2.843,3.2-1.953l0.32,0.164,0.374-1.299s-0.691-0.447-1.841-0.447c-2.076,0-3.559,1.437-3.474,3.574,0.13,3.161,2.3,3.5,3.311,3.5,1.373,0,2.112-0.449,2.112-0.449v-3.575h-2.538z"/>
<path d="M13.39,1.271h4.371v1.917h-2.691v1.662s3.421-0.518,3.215,3.622c0,0,0.107,2.898-2.588,3.166-0.778,0.077-2.327-0.174-2.327-0.174l0.021-1.945s3.291,0.862,3.291-1.246c0-2.251-3.291-1.487-3.291-1.487v-5.521z"/>
<rect height="1.487" width="1.486" x="10.76" y="10.09"/>
<path d="M9.353,5.917c0.506-0.523,0.79-1.248,0.79-2.108,0-0.729-0.288-2.7-2.343-2.7-1.413,0-2.264,1.029-2.264,1.029l0.529,1.884s0.786-0.897,1.554-0.897c0.38,0,0.83,0.153,0.83,0.88,0,0.865-0.837,1.052-1.158,1.052h-0.894v1.945h0.897c0.232,0,1.52,0.224,1.402,1.342-0.231,2.167-2.28,0.964-2.51,0.777l-0.393-0.313-0.512,1.902s0.761,0.924,2.245,0.924c1.977,0,2.884-1.693,2.884-3.265,0-1.047-0.4-1.937-1.057-2.448z"/>
<rect fill="none" height="30" width="30"/>
</svg>
