<?xml version="1.0" encoding="UTF-8"?>
<!DOCTYPE svg PUBLIC "-//W3C//DTD SVG 1.1 Tiny//EN" "http://www.w3.org/Graphics/SVG/1.1/DTD/svg11-tiny.dtd">
<svg baseProfile="tiny" height="52px" version="1.1" viewBox="0 0 52 52" width="52px" x="0px" xmlns="http://www.w3.org/2000/svg" xmlns:xlink="http://www.w3.org/1999/xlink" y="0px">
<rect fill="none" height="52" width="52"/>
<path d="M40.265,45.632c0.025-0.019,0.053-0.039,0.078-0.057l-3.357-4.62  c-0.023,0.02-0.051,0.038-0.076,0.057c-8.279,6.016-19.908,4.174-25.921-4.104c-6.016-8.28-4.172-19.905,4.107-25.922  c8.176-5.939,19.617-4.219,25.695,3.8l4.619-3.356C37.482,0.863,22.463-1.424,11.738,6.367C0.914,14.232-1.496,29.438,6.369,40.266  C14.232,51.09,29.439,53.497,40.265,45.632z" fill="url(#SVGID_1_)"/>
<defs>
<linearGradient gradientTransform="matrix(-0.809 0.5878 -0.5878 -0.809 170.3323 -4.893)" gradientUnits="userSpaceOnUse" id="SVGID_1_" x1="136.6899" x2="130.7054" y1="69.3574" y2="37.1362">
<stop offset="0" style="stop-color:#0067B1"/>
<stop offset="1" style="stop-color:#0069B1;stop-opacity:0.25"/>
</linearGradient>
</defs>
</svg>
