<?xml version="1.0" encoding="UTF-8" standalone="no"?>
<!DOCTYPE svg PUBLIC "-//W3C//DTD SVG 1.1 Tiny//EN" "http://www.w3.org/Graphics/SVG/1.1/DTD/svg11-tiny.dtd">
<svg xmlns="http://www.w3.org/2000/svg" xmlns:xlink="http://www.w3.org/1999/xlink" baseProfile="tiny" height="30px" version="1.1" viewBox="0 0 30 30" width="30px" x="0px" y="0px">
<g fill-opacity="0.5" stroke-opacity="0.5">
<rect fill="none" height="30" width="30"/>
</g>
<path d="M8.648,14.904c0.002,0.148,0.014,0.419,0.004,0.566c-0.007,0.102-0.043,0.209-0.08,0.317h5.857  c-0.037-0.108-0.072-0.216-0.079-0.317c-0.011-0.157,0-0.437,0.003-0.596c1.086-0.732,2.027-1.654,2.6-2.776  c1.061-2.08,0.672-7.392,0.672-7.392C17.625,2.538,14.383,0,12.189,0h-1.391C8.605,0,5.375,2.538,5.375,4.707  c0,0-0.332,5.294,0.658,7.392C6.577,13.243,7.536,14.175,8.648,14.904z"/>
<path d="M13,22.5c0-0.768,0.102-1.51,0.273-2.225L11.5,24.286l-3.401-7.694C6.402,18.725,1.295,21.482,1,21.87V28h13.769  C13.66,26.446,13,24.551,13,22.5z"/>
<path d="M22.5,15c-4.136,0-7.5,3.364-7.5,7.5s3.364,7.5,7.5,7.5s7.5-3.364,7.5-7.5S26.636,15,22.5,15z M22.5,28  c-3.033,0-5.5-2.468-5.5-5.5s2.467-5.5,5.5-5.5s5.5,2.468,5.5,5.5S25.533,28,22.5,28z"/>
<polygon points="24,21 24,18 21,18 21,21 18,21 18,24 21,24 21,27 24,27 24,24 27,24 27,21 "/>
</svg>
