<?xml version="1.0" encoding="UTF-8"?>
<!DOCTYPE svg PUBLIC "-//W3C//DTD SVG 1.1 Tiny//EN" "http://www.w3.org/Graphics/SVG/1.1/DTD/svg11-tiny.dtd">
<svg baseProfile="tiny" height="30px" version="1.1" viewBox="0 0 30 30" width="30px" x="0px" xmlns="http://www.w3.org/2000/svg" xmlns:xlink="http://www.w3.org/1999/xlink" y="0px">
<polygon points="8.182,22.26,5.341,22.26,9.513,28.94,11.54,27.67"/>
<polygon points="10.52,22.26,12.02,24.68,16.12,24.68,14.61,22.26"/>
<polygon points="16.95,22.26,18.45,24.68,22.56,24.68,21.06,22.26"/>
<polygon points="23.4,22.26,24.64,24.26,24.64,22.26"/>
<polygon points="21.76,19.7,24.64,19.7,20.47,13.02,18.42,14.3"/>
<polygon points="19.42,19.7,17.92,17.28,13.86,17.28,15.36,19.7"/>
<polygon points="13.03,19.7,11.53,17.28,7.427,17.28,8.927,19.7"/>
<polygon points="5.341,17.68,5.341,19.7,6.594,19.7"/>
<path d="M22.18,7.594v1.319h1.179v1.291c-0.159,0.045-0.368,0.083-0.699,0.083-1.218,0-1.942-0.823-1.942-2.201,0-0.674,0.261-2.843,3.199-1.952l0.32,0.164,0.374-1.299s-0.691-0.447-1.841-0.447c-2.076,0-3.559,1.437-3.474,3.575,0.13,3.16,2.3,3.499,3.311,3.499,1.373,0,2.112-0.448,2.112-0.448v-3.576h-2.538z"/>
<path d="M13.39,1.219h4.371v1.917h-2.691v1.663s3.421-0.518,3.215,3.622c0,0,0.107,2.896-2.588,3.165-0.778,0.079-2.327-0.174-2.327-0.174l0.021-1.946s3.291,0.862,3.291-1.245c0-2.252-3.291-1.487-3.291-1.487v-5.523z"/>
<rect height="1.487" width="1.486" x="10.76" y="10.04"/>
<path d="M9.353,5.866c0.506-0.523,0.79-1.249,0.79-2.107,0-0.728-0.288-2.7-2.343-2.7-1.415,0-2.266,1.029-2.266,1.029l0.527,1.883s0.788-0.896,1.557-0.896c0.379,0,0.828,0.152,0.828,0.879,0,0.866-0.836,1.051-1.158,1.051h-0.891v1.946h0.897c0.232,0,1.52,0.223,1.402,1.342-0.231,2.167-2.279,0.961-2.51,0.777l-0.393-0.315-0.512,1.903s0.761,0.925,2.245,0.925c1.977,0,2.885-1.693,2.885-3.266,0-1.045-0.4-1.936-1.057-2.448z"/>
<rect fill="none" height="30" width="30"/>
</svg>
