<?xml version="1.0" encoding="UTF-8"?>
<!DOCTYPE svg PUBLIC "-//W3C//DTD SVG 1.1 Tiny//EN" "http://www.w3.org/Graphics/SVG/1.1/DTD/svg11-tiny.dtd">
<svg baseProfile="tiny" height="30" viewBox="0 0 30 30" width="30" xmlns="http://www.w3.org/2000/svg" xmlns:xlink="http://www.w3.org/1999/xlink">
<rect fill="none" height="30" width="30"/>
<rect fill="none" height="30" width="30"/>
<polygon points="6.75,2.25 6.75,4.5 25.5,4.5 25.5,23.25 27.75,23.25 27.75,2.25 "/>
<path d="M3,6v21h21V6H3z M21.75,24.75H5.25V8.25h16.5V24.75z"/>
<rect height="6" width="6" x="6.75" y="9.75"/>
<path d="M14.25,9.75v6h6v-6H14.25z M18.75,14.25h-3v-3h3V14.25z"/>
<path d="M14.25,17.25v6h6v-6H14.25z M18.75,21.75h-3v-3h3V21.75z"/>
<path d="M6.75,17.25v6h6v-6H6.75z M11.25,21.75h-3v-3h3V21.75z"/>
</svg>
