<?xml version="1.0" encoding="UTF-8"?>
<!DOCTYPE svg PUBLIC "-//W3C//DTD SVG 1.1 Tiny//EN" "http://www.w3.org/Graphics/SVG/1.1/DTD/svg11-tiny.dtd">
<svg baseProfile="tiny" height="34px" version="1.1" viewBox="0 0 34 34" width="34px" x="0px" xmlns="http://www.w3.org/2000/svg" xmlns:xlink="http://www.w3.org/1999/xlink" y="0px">
<path d="M17,34c-5.861,0-10.625-4.767-10.625-10.625C6.375,17.518,11.139,0,17,0  c5.859,0,10.625,17.518,10.625,23.375C27.625,29.233,22.859,34,17,34L17,34z" fill="url(#SVGID_1_)"/>
<path d="M17,4c5.375,0,9.82,15.601,10.516,20.794c0.061-0.465,0.109-0.938,0.109-1.419C27.625,17.518,22.859,0,17,0  C11.139,0,6.375,17.518,6.375,23.375c0,0.481,0.047,0.954,0.107,1.419C7.18,19.601,11.625,4,17,4z" fill-opacity="0.05" stroke-opacity="0.05"/>
<path d="M17,2.984c5.494,0,10.039,16.093,10.576,21.453c0.031-0.35,0.049-0.705,0.049-1.063  C27.625,17.518,22.859,0,17,0C11.139,0,6.375,17.518,6.375,23.375c0,0.357,0.016,0.713,0.049,1.063  C6.959,19.077,11.504,2.984,17,2.984z" fill-opacity="0.1" stroke-opacity="0.1"/>
<path d="M17,1.97c5.621,0,10.219,16.584,10.588,22.111c0.02-0.232,0.037-0.465,0.037-0.706  C27.625,17.518,22.859,0,17,0C11.139,0,6.375,17.518,6.375,23.375c0,0.241,0.016,0.474,0.037,0.706  C6.779,18.554,11.379,1.97,17,1.97z" fill-opacity="0.1" stroke-opacity="0.1"/>
<path d="M17,0C11.139,0,6.375,17.518,6.375,23.375C6.375,29.233,11.139,34,17,34c5.859,0,10.625-4.767,10.625-10.625  C27.625,17.518,22.859,0,17,0z M17,33c-5.309,0-9.625-4.317-9.625-9.625C7.375,17.451,12.162,1,17,1s9.625,16.451,9.625,22.375  C26.625,28.683,22.307,33,17,33z" fill-opacity="0.2" stroke-opacity="0.2"/>
<rect fill="none" height="34" width="34"/>
<defs>
<linearGradient gradientUnits="userSpaceOnUse" id="SVGID_1_" x1="17.0005" x2="17.0005" y1="34" y2="4.882813e-004">
<stop offset="0" style="stop-color:#F0F0F0"/>
<stop offset="1" style="stop-color:#B4B4B4"/>
</linearGradient>
</defs>
</svg>
