<?xml version="1.0" encoding="UTF-8"?>
<!DOCTYPE svg PUBLIC "-//W3C//DTD SVG 1.1 Tiny//EN" "http://www.w3.org/Graphics/SVG/1.1/DTD/svg11-tiny.dtd">
<svg baseProfile="tiny" height="30px" version="1.1" viewBox="0 0 30 30" width="30px" x="0px" xmlns="http://www.w3.org/2000/svg" xmlns:xlink="http://www.w3.org/1999/xlink" y="0px">
<rect fill="none" height="30" width="30"/>
<rect height="35.829" transform="matrix(-0.7061 0.7082 -0.7082 -0.7061 36.214 14.9658)" width="1.867" x="14.067" y="-2.916"/>
<rect height="2" width="4" x="20.049" y="1"/>
<polygon points="3,27 3,21 1,21 1,29 11,29 11,27 "/>
<polygon points="29,24.85 29,21 27,21 27,22.85 "/>
<polygon points="11.148,7 23,7 23,18 22.148,18 25.148,21 26.049,21 26.049,4 8.148,4 "/>
<polygon points="13.853,18 7,18 7,11.147 3.949,8.097 3.949,21 16.854,21 "/>
<polygon points="22.854,27 19,27 19,29 24.854,29 "/>
<path d="M14.768,10.619c0.206-0.072,0.424-0.119,0.654-0.119c1.105,0,2,0.896,2,2c0,0.23-0.047,0.448-0.117,0.654l1.853,1.853  c0.483-0.717,0.766-1.58,0.766-2.507c0-2.482-2.019-4.5-4.5-4.5c-0.928,0-1.79,0.283-2.507,0.766L14.768,10.619z"/>
</svg>
