<?xml version="1.0" encoding="UTF-8"?>
<!DOCTYPE svg PUBLIC "-//W3C//DTD SVG 1.1 Tiny//EN" "http://www.w3.org/Graphics/SVG/1.1/DTD/svg11-tiny.dtd">
<svg baseProfile="tiny" height="10px" version="1.1" viewBox="0 0 10 10" width="10px" x="0px" xmlns="http://www.w3.org/2000/svg" xmlns:xlink="http://www.w3.org/1999/xlink" y="0px">
<rect fill="none" height="10" width="10"/>
<path d="M6,0C2.7,0,0,2.7,0,6v4h10V0H6z" fill="#14141E" fill-opacity="0.2" stroke-opacity="0.2"/>
<path d="M6,1C3.243,1,1,3.243,1,6v4h9V1H6z" fill="url(#SVGID_1_)"/>
<path d="M6,2C3.795,2,2,3.795,2,6v4h1V6c0-1.654,1.346-3,3-3h4V2H6z" fill="#FFFFFF" fill-opacity="0.4" stroke-opacity="0.4"/>
<path d="M6,1C3.243,1,1,3.243,1,6v4h1V6c0-2.205,1.794-4,4-4h4V1H6z" fill-opacity="0.2" stroke-opacity="0.2"/>
<rect fill="none" height="10" width="10"/>
<defs>
<linearGradient gradientUnits="userSpaceOnUse" id="SVGID_1_" x1="5.5" x2="5.5" y1="1" y2="48.0191">
<stop offset="0" style="stop-color:#C8C8C8"/>
<stop offset="0.9" style="stop-color:#969696"/>
<stop offset="0.9" style="stop-color:#8C8C8C"/>
<stop offset="1" style="stop-color:#828282"/>
</linearGradient>
</defs>
</svg>
