<?xml version="1.0" encoding="UTF-8"?>
<!DOCTYPE svg PUBLIC "-//W3C//DTD SVG 1.1 Tiny//EN" "http://www.w3.org/Graphics/SVG/1.1/DTD/svg11-tiny.dtd">
<svg baseProfile="tiny" height="60" viewBox="0 0 60 60" width="60" xmlns="http://www.w3.org/2000/svg" xmlns:xlink="http://www.w3.org/1999/xlink">
<g>
<linearGradient gradientTransform="matrix(0.2118 0.9773 -0.9773 0.2118 -634.5609 -270.4865)" gradientUnits="userSpaceOnUse" id="SVGID_1_" x1="423.0967" x2="429.6524" y1="-578.646" y2="-582.9078">
<stop offset="0" style="stop-color:#A7E722"/>
<stop offset="0.1333" style="stop-color:#A7E722"/>
<stop offset="0.6303" style="stop-color:#428C0F"/>
<stop offset="1" style="stop-color:#5CA617"/>
</linearGradient>
<path d="M19.081,33.91c2.089-3.595,4.591-6.496,7.281-9.188c2.593-2.591,6.72-5.3,8.562-6.256l9.604-10.282  c-0.845-0.3-3.693-0.464-7.279,0.616c-3.586,1.083-11.736,6.303-16.979,11.547c-5.242,5.246-9.727,12.347-10.581,14.595  c-1.343,3.541-1.221,7.445-0.929,8.58c0,0,0.34,1.035,1.144,2.377C10.248,46.475,19.081,33.91,19.081,33.91z" fill="url(#SVGID_1_)"/>
<path d="M31.184,20.8c1.488-1.036,2.87-1.882,3.74-2.334L44.271,8.46  c-0.132-0.058-0.209-0.088-0.209-0.088c-0.247-0.088-0.642-0.162-1.124-0.219c-0.793,0.006-1.596,0.093-2.401,0.27  C34.843,9.673,31.019,14.958,31.184,20.8z" fill="#020202" fill-opacity="0.05" stroke-opacity="0.05"/>
<path d="M31.906,20.306c1.205-0.809,2.291-1.462,3.018-1.84l9.377-10.04  c-0.146-0.063-0.233-0.098-0.233-0.098c-0.231-0.08-0.604-0.152-1.06-0.203c-0.751,0.006-1.51,0.087-2.27,0.253  C35.275,9.576,31.636,14.695,31.906,20.306z" fill="#020202" fill-opacity="0.1" stroke-opacity="0.1"/>
<path d="M44.079,8.263c-0.21-0.073-0.55-0.137-0.962-0.186c-0.681,0.006-1.369,0.08-2.06,0.231  c-5.087,1.116-8.426,5.984-7.978,11.233c0.725-0.455,1.363-0.826,1.844-1.076l9.424-10.088C44.178,8.302,44.079,8.263,44.079,8.263z  " fill="#020202" fill-opacity="0.1" stroke-opacity="0.1"/>
<radialGradient cx="40.9697" cy="9.21" gradientUnits="userSpaceOnUse" id="SVGID_2_" r="12.2872">
<stop offset="0" style="stop-color:#A7E722"/>
<stop offset="0.6242" style="stop-color:#428C0F"/>
<stop offset="1" style="stop-color:#5CA617"/>
</radialGradient>
<path d="M34.924,18.466l0.929,1.55c0,0,15.101-6.784,14.084-8.038c-0.513-0.631-0.577-0.656-1.237-1.263  c-1.985-1.815-4.172-2.531-4.172-2.531c-0.186-0.063-0.481-0.12-0.845-0.161c-0.596,0.004-1.2,0.068-1.806,0.201  c-4.591,1.009-7.57,5.501-6.963,10.257C34.916,18.477,34.921,18.47,34.924,18.466z" fill="url(#SVGID_2_)"/>
<path d="M17.483,34.105c-0.988-0.139-2.007-0.119-3.027,0.105c-2.418,0.531-4.376,2.066-5.646,4.131  c-0.367,2.35-0.25,4.408-0.05,5.18c0,0,0.34,1.035,1.144,2.377c0.29,0.482,6.54-8.264,8.556-11.107L17.483,34.105z" fill="#020202" fill-opacity="0.1" stroke-opacity="0.1"/>
<path d="M18.366,34.135c-0.989-0.139-2.008-0.117-3.029,0.105c-3.313,0.727-5.775,3.332-6.76,6.623  c-0.026,1.025,0.034,1.873,0.127,2.398c0.003,0.012,0.005,0.033,0.01,0.047c0,0,0.34,1.033,1.144,2.379  c0.3,0.498,6.981-8.887,8.75-11.383L18.366,34.135z" fill="#020202" fill-opacity="0.1" stroke-opacity="0.1"/>
<radialGradient cx="437.4258" cy="-571.231" gradientTransform="matrix(0.2095 0.9787 -0.9682 0.2124 -629.4526 -270.6148)" gradientUnits="userSpaceOnUse" id="SVGID_3_" r="14.6187">
<stop offset="0" style="stop-color:#A7E722"/>
<stop offset="0.6242" style="stop-color:#428C0F"/>
<stop offset="1" style="stop-color:#5CA617"/>
</radialGradient>
<path d="M11.202,47.738c0.616,0.74,0.646,0.953,1.295,1.523c1.194,1.055,9.301-13.611,9.301-13.611  l-2.683-1.719c-0.941-0.111-1.914-0.08-2.89,0.135c-4.777,1.049-7.806,5.869-6.87,10.832C9.749,45.686,10.349,46.709,11.202,47.738z  " fill="url(#SVGID_3_)"/>
<path d="M49.937,11.978c-0.179-0.22-0.381-0.446-0.578-0.67l-13.944,7.959l0.438,0.749  C35.853,20.016,50.953,13.231,49.937,11.978z" fill="#020202" fill-opacity="0.4" stroke-opacity="0.4"/>
<linearGradient gradientTransform="matrix(0.2118 0.9773 -0.9773 0.2118 -634.5599 -270.4865)" gradientUnits="userSpaceOnUse" id="SVGID_4_" x1="422.2881" x2="427.4786" y1="-610.9287" y2="-594.4409">
<stop offset="0" style="stop-color:#C6FF45"/>
<stop offset="0.6788" style="stop-color:#387300"/>
<stop offset="1" style="stop-color:#66A00E"/>
</linearGradient>
<path d="M35.853,20.016l1.178,1.981c0.302,0.515,0.972,0.674,1.569,0.422l4.09-2.334l8.043-4.668  c0.632-0.363,0.878-1.119,0.549-1.686c0,0-0.333-0.501-1.349-1.751L35.853,20.016z" fill="url(#SVGID_4_)"/>
<path d="M21.798,35.65l-0.725-0.473l-9.215,13.486c0.216,0.205,0.43,0.414,0.639,0.598  C13.691,50.316,21.798,35.65,21.798,35.65z" fill="#020202" fill-opacity="0.4" stroke-opacity="0.4"/>
<linearGradient gradientTransform="matrix(0.2118 0.9773 -0.9773 0.2118 -634.5599 -270.4865)" gradientUnits="userSpaceOnUse" id="SVGID_5_" x1="439.6982" x2="451.5232" y1="-577.7549" y2="-564.7323">
<stop offset="0" style="stop-color:#C6FF45"/>
<stop offset="0.6788" style="stop-color:#387300"/>
<stop offset="1" style="stop-color:#66A00E"/>
</linearGradient>
<path d="M12.498,49.262c1.193,1.049,1.686,1.369,1.686,1.369c0.567,0.367,1.363,0.17,1.781-0.441l7.9-11.605  c0.419-0.615,0.307-1.412-0.26-1.777l-1.808-1.156L12.498,49.262z" fill="url(#SVGID_5_)"/>
<rect fill="none" height="60" width="60"/>
</g>
<g transform="matrix(0.5 0 0 0.5 30 30)">
<rect height="60" style="fill:none;" width="60"/>
<radialGradient cx="-3973.4507" cy="1721.54" gradientTransform="matrix(0.857 0 0 -0.8542 3435.7136 1489.142)" gradientUnits="userSpaceOnUse" id="SVGID_1__" r="38.9126">
<stop offset="0" style="stop-color:#FFE2D9"/>
<stop offset="0.5091" style="stop-color:#FFC6B3"/>
<stop offset="0.7636" style="stop-color:#FFA98E"/>
<stop offset="1" style="stop-color:#E88160"/>
</radialGradient>
<path d="M46.208,31.145c-0.08-0.039-0.172-0.047-0.258-0.072V31.07  c-0.019-0.004-0.032-0.006-0.05-0.008c-0.129-0.037-0.254-0.064-0.391-0.07c-16.32-2.84-23.806-11.882-24.372-9.488  c-0.45,1.902-5.024,6.028-7.422,8.08c0.022,0.094,0.032,0.174,0.054,0.266c0,0,0.082,0.422,0.264,1.138  c-0.19,0.021-0.376,0.062-0.556,0.136c-1.526,0.644-2.004,3.142-1.066,5.586c0.93,2.44,2.924,3.901,4.45,3.261  c0.096-0.043,0.176-0.109,0.26-0.162c0.884,1.991,1.976,4.125,3.306,6.268c2.232,2.652,5.652,5.764,9.428,5.764  c4.568,0,7.362-2.496,9.285-5.018c0.053-0.108,0.1-0.206,0.155-0.293c1.425-2.225,2.578-4.457,3.513-6.535  c1.491,0.516,3.405-0.872,4.355-3.219C48.148,34.35,47.718,31.826,46.208,31.145z" style="fill:url(#SVGID_1__);"/>
<linearGradient gradientTransform="matrix(2 0 0 -2 -292 -262)" gradientUnits="userSpaceOnUse" id="SVGID_2__" x1="157.7227" x2="164.7713" y1="-158.0142" y2="-151.0208">
<stop offset="0" style="stop-color:#FFC6B3"/>
<stop offset="1" style="stop-color:#FFA98E"/>
</linearGradient>
<path d="M29.184,50.563c-2.782,0-5.584-1.295-7.646-3.246c2.182,2.293,5.12,4.523,8.316,4.523  c4.568,0,7.362-2.496,9.285-5.018c0.053-0.108,0.1-0.206,0.155-0.293c1.424-2.225,2.578-4.457,3.513-6.535  C37.609,49.078,33.75,50.563,29.184,50.563z" style="fill:url(#SVGID_2__);"/>
<linearGradient gradientTransform="matrix(2 0 0 -2 -292 -262)" gradientUnits="userSpaceOnUse" id="SVGID_3__" x1="160.8613" x2="160.8613" y1="-135.3486" y2="-145.7298">
<stop offset="0" style="stop-color:#8A5D3B"/>
<stop offset="0.3758" style="stop-color:#632F00"/>
<stop offset="1" style="stop-color:#361700"/>
</linearGradient>
<path d="M29.396,8.392c-5.658,0-8.38,2.574-10.482,5.26c-3.414,0.53-8.832,3.658-5.008,17.38  c2.394-2.054,6.782-7.626,7.229-9.53c0.57-2.416,8.184,6.816,24.813,9.566c0.196-0.769,0.282-1.22,0.282-1.22  C48.844,18.134,43.164,8.85,29.396,8.392z" style="fill:url(#SVGID_3__);"/>
<linearGradient gradientTransform="matrix(2 0 0 -2 -292 -262)" gradientUnits="userSpaceOnUse" id="SVGID_4__" x1="164.4121" x2="155.0067" y1="-145.2808" y2="-139.6971">
<stop offset="0" style="stop-color:#8A5D3B"/>
<stop offset="0.3636" style="stop-color:#632F00"/>
<stop offset="1" style="stop-color:#361700"/>
</linearGradient>
<path d="M21.156,20.38c0,0,8.138,10.692,24.678,10.675C45.834,31.055,38.042,29.832,21.156,20.38z" style="fill:url(#SVGID_4__);"/>
<linearGradient gradientTransform="matrix(2 0 0 -2 -292 -262)" gradientUnits="userSpaceOnUse" id="SVGID_5__" x1="154.1572" x2="154.2398" y1="-138.6094" y2="-144.5831">
<stop offset="0" style="stop-color:#8A5D3B"/>
<stop offset="0.3758" style="stop-color:#632F00"/>
<stop offset="1" style="stop-color:#361700"/>
</linearGradient>
<path d="M19.198,14.448c0,0-7.966,0.478-5.01,13.984C14.188,28.432,13.21,19.182,19.198,14.448z" style="fill:url(#SVGID_5__);"/>
<linearGradient gradientTransform="matrix(2 0 0 -2 -292 -262)" gradientUnits="userSpaceOnUse" id="SVGID_6_" x1="162.1787" x2="161.886" y1="-136.2373" y2="-138.9433">
<stop offset="0" style="stop-color:#A87C4F"/>
<stop offset="1" style="stop-color:#632F00"/>
</linearGradient>
<path d="M33.258,16.318c-3.71-0.528-9.984-3.814-12.446-2.642c0,0,8.05-9.188,22.262,1.276  C43.074,14.952,39.688,17.234,33.258,16.318z" style="fill:url(#SVGID_6_);"/>
<path d="M29.854,51.84c1.572,0,2.928-0.298,4.121-0.792  c0.34-0.446,0.545-0.952,0.545-1.502c0-1.774-1.985-3.162-4.518-3.162c-1.522,0-2.904,0.521-3.724,1.36  c-4.036-1.006-6.59-3.542-8.11-5.734c0.298,0.602,0.618,1.211,0.956,1.824c0.01,0.016,0.018,0.032,0.026,0.046  c0.34,0.618,0.7,1.238,1.082,1.864H20.23c0.03,0.048,0.056,0.096,0.088,0.145c0.012,0.023,0.028,0.043,0.042,0.067  c0.024,0.042,0.044,0.078,0.068,0.12C22.658,48.729,26.078,51.84,29.854,51.84z" style="opacity:0.3;fill:#020202;enable-background:new    ;"/>
<path d="M12.898,37.732c0.078,0.123,0.152,0.24,0.226,0.357  c0.18,0.271,0.376,0.526,0.576,0.75l0,0c0.97,1.061,2.162,1.551,3.158,1.131c0.096-0.043,0.176-0.109,0.26-0.162  c0.048,0.109,0.108,0.224,0.154,0.336c0.332-0.979,0.484-2.248,0.45-3.91c-0.008-0.342-0.02-0.692-0.046-1.049  c-0.144-2.203-0.524-3.892-1.122-5.023l-0.062-0.906l0.012-0.308c0.132-10.178,5.52-17.014,13.406-17.014  c7.938,0,13.328,6.9,13.41,17.176l0.01,0.084l-0.092,1.4c-0.479,1.112-0.784,2.654-0.914,4.592  c-0.028,0.358-0.038,0.709-0.051,1.112c-0.031,1.599,0.127,2.876,0.459,3.864c0.023-0.055,0.052-0.11,0.074-0.164  c1.172,0.404,2.598-0.372,3.617-1.855l0,0c0.137-0.199,0.266-0.412,0.393-0.631c0.121-0.234,0.24-0.472,0.346-0.732  c0.988-2.428,0.559-4.951-0.954-5.631c-0.08-0.039-0.172-0.047-0.258-0.072v-0.002c0.196-0.768,0.282-1.22,0.282-1.22  c0.1-0.444,0.184-0.882,0.258-1.32c0.02-0.122,0.039-0.246,0.06-0.37c0.052-0.334,0.099-0.668,0.138-1  c0.013-0.108,0.024-0.216,0.037-0.324c0.092-0.874,0.131-1.73,0.121-2.566c0-0.074-0.004-0.15-0.008-0.224  c-0.004-0.378-0.021-0.75-0.054-1.118c0-0.042-0.005-0.086-0.009-0.128c-0.073-0.842-0.201-1.658-0.377-2.452  c-0.01-0.038-0.021-0.078-0.032-0.116c-0.089-0.38-0.188-0.756-0.304-1.126c-0.002-0.006-0.006-0.016-0.006-0.02  c-0.721-1.846-1.639-3.516-2.729-4.982c-0.008-0.004-0.008-0.004-0.008-0.004c-0.719-0.84-1.543-1.598-2.471-2.272  c-0.01-0.008-0.021-0.016-0.031-0.026c-0.448-0.316-0.916-0.614-1.408-0.892c-0.044-0.024-0.086-0.046-0.128-0.07  c-0.476-0.264-0.98-0.51-1.507-0.734c-0.063-0.026-0.127-0.054-0.195-0.084c-0.52-0.212-1.061-0.41-1.622-0.586  c-0.08-0.026-0.162-0.048-0.242-0.072c-0.563-0.168-1.151-0.32-1.766-0.446c-0.08-0.016-0.16-0.034-0.242-0.046  c-0.626-0.126-1.276-0.228-1.944-0.306c-0.06-0.008-0.121-0.012-0.184-0.02c-0.706-0.076-1.43-0.132-2.186-0.156  c-5.658,0-8.38,2.574-10.482,5.26c-0.226,0.034-0.462,0.08-0.706,0.142c-0.01,0-0.02,0.006-0.03,0.006  c-0.238,0.066-0.476,0.138-0.722,0.228c-0.008,0.004-0.018,0.004-0.028,0.01c-0.246,0.094-0.492,0.2-0.742,0.326  c-0.006,0.004-0.012,0.004-0.016,0.006c-0.254,0.13-0.504,0.28-0.75,0.448v0.004c-1.524,2.262-2.654,4.968-3.318,8.022  c0,0.542,0.022,1.122,0.076,1.726c0,0.01,0,0.018,0,0.024c0.028,0.292,0.054,0.6,0.094,0.91c0.004,0.03,0.01,0.058,0.012,0.088  c0.038,0.292,0.078,0.588,0.126,0.894c0.008,0.058,0.02,0.124,0.028,0.184c0.046,0.28,0.094,0.564,0.152,0.858  c0.016,0.1,0.04,0.204,0.058,0.304c0.05,0.264,0.102,0.522,0.16,0.792c0.036,0.158,0.08,0.324,0.114,0.484  c0.054,0.224,0.106,0.448,0.164,0.678c0.098,0.398,0.204,0.804,0.322,1.222c-0.148,0.022-0.292,0.055-0.428,0.114  c-1.526,0.644-2.004,3.142-1.066,5.586c0.098,0.263,0.214,0.506,0.34,0.744C12.796,37.55,12.848,37.643,12.898,37.732z   M14.02,30.932c0.004,0.021,0.01,0.039,0.014,0.057C14,30.992,13.968,31,13.938,31.004C13.96,30.98,13.992,30.956,14.02,30.932z" style="opacity:0.3;fill:#020202;enable-background:new    ;"/>
<linearGradient gradientTransform="matrix(2 0 0 -2 -292 -262)" gradientUnits="userSpaceOnUse" id="SVGID_7_" x1="152.8643" x2="161.4521" y1="-153.2881" y2="-153.2881">
<stop offset="0" style="stop-color:#454647"/>
<stop offset="0.4727" style="stop-color:#BDBEC3"/>
<stop offset="1" style="stop-color:#E4E6EB"/>
</linearGradient>
<path d="M30.002,50.902c-12.264,0-16.192-11.351-16.224-11.463c-0.164-0.472,0.094-0.985,0.57-1.142  c0.472-0.157,0.984,0.097,1.142,0.568c0.138,0.418,3.572,10.229,14.512,10.229c0.498,0,0.902,0.406,0.902,0.904  C30.904,50.5,30.5,50.902,30.002,50.902L30.002,50.902z" style="fill:url(#SVGID_7_);"/>
<linearGradient gradientTransform="matrix(2 0 0 -2 -292 -262)" gradientUnits="userSpaceOnUse" id="SVGID_8_" x1="152.8711" x2="161.4521" y1="-153.5132" y2="-153.5132">
<stop offset="0" style="stop-color:#A6A8AB"/>
<stop offset="0.7394" style="stop-color:#58595B"/>
<stop offset="1" style="stop-color:#808184"/>
</linearGradient>
<path d="M30.002,50c-11.756,0-15.37-10.85-15.37-10.85h-0.89c0,0.1,0,0.193,0.036,0.289  c0.034,0.115,3.96,11.463,16.224,11.463c0.498,0,0.902-0.402,0.902-0.902H30.002z" style="fill:url(#SVGID_8_);"/>
<linearGradient gradientTransform="matrix(2 0 0 -2 -292 -262)" gradientUnits="userSpaceOnUse" id="SVGID_9_" x1="160.957" x2="160.957" y1="-146.4697" y2="-136.6049">
<stop offset="0" style="stop-color:#39393B"/>
<stop offset="0.0424" style="stop-color:#808184"/>
<stop offset="0.3333" style="stop-color:#58595B"/>
<stop offset="1" style="stop-color:#A6A8AB"/>
</linearGradient>
<path d="M46.273,29.208L46.273,29.208L46.273,29.208C46.258,15.904,39.414,9.32,30.002,9.32  s-16.26,6.584-16.272,19.888l0,0l0,0c0,0.008,0-0.01,0,0l0,0l-0.3,9.33l2.758-0.181l-0.602-9.102  C15.622,17.602,22.03,11.03,29.91,11.03c7.878,0,14.285,6.57,14.322,18.22l-0.596,9.107l2.758,0.181L46.273,29.208L46.273,29.208  C46.273,29.198,46.273,29.214,46.273,29.208z" style="fill:url(#SVGID_9_);"/>
<linearGradient gradientTransform="matrix(2 0 0 -2 -292 -262)" gradientUnits="userSpaceOnUse" id="SVGID_10_" x1="160.9551" x2="160.9551" y1="-142.7939" y2="-135.3807">
<stop offset="0" style="stop-color:#9C9DA1"/>
<stop offset="0.0545" style="stop-color:#9C9DA1"/>
<stop offset="0.3333" style="stop-color:#88898C"/>
<stop offset="1" style="stop-color:#E3E6EB"/>
</linearGradient>
<path d="M46.996,29.302h-0.004C46.979,15.998,39.322,8.156,29.91,8.156  c-9.406,0-17.07,7.842-17.086,21.146v0.014c0,0.008,0,0.018,0,0.026h0.004l0.902,0.772C14.026,17.264,20.68,9.32,29.91,9.32  c9.238,0,16.074,7.932,16.363,20.794l0.719-0.772h0.004c0-0.008-0.004-0.018-0.004-0.026L46.996,29.302z" style="fill:url(#SVGID_10_);"/>
<path d="M13.828,28.304c-0.062,0-0.132,0-0.202,0.006  c-0.26,0.018-0.518,0.074-0.77,0.156c-0.01,0.282-0.034,0.546-0.034,0.836v0.014c0,0.008,0,0.018,0,0.026h0.004l0.134,2.08  l0.208-0.014l0.136-0.059c0.144-0.056,0.292-0.096,0.52-0.105c1.082,0,1.828,1.89,2.044,5.193c0.022,0.297,0.032,0.592,0.038,0.879  h0.208l-0.532-8.061c0-0.11,0.014-0.21,0.016-0.32C15.098,28.518,14.51,28.304,13.828,28.304z" style="opacity:0.2;fill:#020202;enable-background:new    ;"/>
<path d="M15.49,38.866c-0.158-0.472-0.67-0.726-1.142-0.568  c-0.476,0.156-0.734,0.67-0.57,1.142c0.012,0.039,0.45,1.297,1.466,2.971c0.58-0.174,1.064-0.514,1.444-1.036  C15.894,40.02,15.532,38.994,15.49,38.866z" style="opacity:0.2;fill:#020202;enable-background:new    ;"/>
<linearGradient gradientTransform="matrix(-2.3056 0.0176 0.0176 -2.0388 -855.3356 -226.559)" gradientUnits="userSpaceOnUse" id="SVGID_11_" x1="-377.894" x2="-377.894" y1="-127.5771" y2="-134.6783">
<stop offset="0" style="stop-color:#A6A8AB"/>
<stop offset="0.8303" style="stop-color:#58595B"/>
<stop offset="1" style="stop-color:#808184"/>
</linearGradient>
<path d="M10.422,35.664c0.228,3.432,2.058,6.104,4.088,5.968c2.03-0.136,2.49-2.956,2.266-6.386  s-1.054-6.17-3.084-6.034C11.66,29.348,10.196,32.234,10.422,35.664z" style="fill:url(#SVGID_11_);"/>
<linearGradient gradientTransform="matrix(-2 0 0 -2 -801.6758 -262)" gradientUnits="userSpaceOnUse" id="SVGID_12_" x1="-407.2915" x2="-407.2915" y1="-145.4619" y2="-151.8709">
<stop offset="0" style="stop-color:#7A7A7A"/>
<stop offset="0.7818" style="stop-color:#212121"/>
<stop offset="1" style="stop-color:#666666"/>
</linearGradient>
<path d="M10.136,35.693c0.222,3.367,1.828,6.002,3.59,5.885c1.764-0.118,2.14-2.883,1.918-6.248  c-0.222-3.37-0.96-6.06-2.722-5.944C11.164,29.504,9.916,32.324,10.136,35.693z" style="fill:url(#SVGID_12_);"/>
<linearGradient gradientTransform="matrix(-2 0 0 -2 -801.6758 -262)" gradientUnits="userSpaceOnUse" id="SVGID_13_" x1="-406.9038" x2="-406.9038" y1="-145.2993" y2="-151.566">
<stop offset="0" style="stop-color:#BDC3C4"/>
<stop offset="0.3515" style="stop-color:#DDE3E6"/>
<stop offset="0.6545" style="stop-color:#949DA1"/>
<stop offset="0.9636" style="stop-color:#ADB3B5"/>
<stop offset="1" style="stop-color:#595C5E"/>
</linearGradient>
<path d="M12.336,29.902c0.972,1.06,1.386,3.172,1.478,5.577c0.084,2.195-0.072,4.111-0.828,5.295  c-1.292-0.558-2.366-2.674-2.534-5.273C10.276,32.857,11.088,30.582,12.336,29.902z" style="fill:url(#SVGID_13_);"/>
<path d="M12.922,30.516c0.012,0,0.024,0.004,0.036,0.004  c0.234-0.098,0.48-0.158,0.734-0.176c2.03-0.132,2.86,2.604,3.084,6.034c0.022,0.31,0.032,0.614,0.042,0.914  c0.02-0.646,0.004-1.33-0.042-2.044c-0.224-3.43-1.054-6.17-3.084-6.034c-0.254,0.014-0.5,0.078-0.734,0.176  c-0.012,0-0.024-0.002-0.036-0.002c-1.724,0.112-2.946,2.82-2.792,6.088C10.27,32.734,11.406,30.618,12.922,30.516z" style="opacity:0.3;fill:#FFFFFF;enable-background:new    ;"/>
<path d="M46.172,28.304c-0.76,0-1.406,0.268-1.949,0.79  c0.004,0.052,0.01,0.104,0.01,0.156l-0.528,8.066h0.384c0.008-0.289,0.02-0.582,0.038-0.879c0.218-3.297,0.962-5.191,2.124-5.191  h0.004c0.145,0.008,0.294,0.046,0.441,0.104l0.133,0.059l0.031,0.002l0.133-2.068h0.004c0-0.008-0.004-0.018-0.004-0.026  l0.004-0.014h-0.004c0-0.306-0.024-0.588-0.032-0.888c-0.192-0.052-0.388-0.094-0.59-0.104  C46.305,28.304,46.236,28.304,46.172,28.304z" style="opacity:0.2;fill:#020202;enable-background:new    ;"/>
<linearGradient gradientTransform="matrix(2.3056 0.0176 -0.0176 -2.0388 626.1911 -226.559)" gradientUnits="userSpaceOnUse" id="SVGID_14_" x1="-252.4751" x2="-252.4751" y1="-126.4946" y2="-133.5958">
<stop offset="0" style="stop-color:#A6A8AB"/>
<stop offset="0.8303" style="stop-color:#58595B"/>
<stop offset="1" style="stop-color:#808184"/>
</linearGradient>
<path d="M49.578,35.664c-0.227,3.432-2.055,6.104-4.086,5.968c-2.032-0.136-2.49-2.956-2.266-6.386  c0.226-3.43,1.053-6.17,3.086-6.034C48.344,29.348,49.805,32.234,49.578,35.664z" style="fill:url(#SVGID_14_);"/>
<linearGradient gradientTransform="matrix(2 0 0 -2 572.5313 -262)" gradientUnits="userSpaceOnUse" id="SVGID_15_" x1="-262.7183" x2="-262.7183" y1="-145.4629" y2="-151.8709">
<stop offset="0" style="stop-color:#7A7A7A"/>
<stop offset="0.7818" style="stop-color:#212121"/>
<stop offset="1" style="stop-color:#666666"/>
</linearGradient>
<path d="M49.863,35.693c-0.221,3.367-1.827,6.002-3.59,5.885c-1.76-0.118-2.14-2.883-1.914-6.248  c0.219-3.37,0.959-6.06,2.719-5.944C48.838,29.502,50.084,32.324,49.863,35.693z" style="fill:url(#SVGID_15_);"/>
<linearGradient gradientTransform="matrix(2 0 0 -2 572.5313 -262)" gradientUnits="userSpaceOnUse" id="SVGID_16_" x1="-262.3306" x2="-262.3306" y1="-145.2988" y2="-151.5661">
<stop offset="0" style="stop-color:#BDC3C4"/>
<stop offset="0.3515" style="stop-color:#DDE3E6"/>
<stop offset="0.6545" style="stop-color:#949DA1"/>
<stop offset="0.9636" style="stop-color:#ADB3B5"/>
<stop offset="1" style="stop-color:#595C5E"/>
</linearGradient>
<path d="M47.664,29.902c-0.969,1.06-1.387,3.172-1.479,5.577c-0.08,2.195,0.076,4.111,0.828,5.295  c1.295-0.558,2.366-2.674,2.536-5.273C49.723,32.857,48.912,30.582,47.664,29.902z" style="fill:url(#SVGID_16_);"/>
<path d="M47.078,30.516c-0.014,0-0.023,0.004-0.034,0.004  c-0.235-0.098-0.478-0.158-0.731-0.176c-2.033-0.132-2.86,2.604-3.086,6.034c-0.024,0.31-0.037,0.614-0.043,0.914  c-0.021-0.646-0.006-1.33,0.043-2.044c0.226-3.43,1.053-6.17,3.086-6.034c0.254,0.014,0.496,0.078,0.731,0.176  c0.011,0,0.021-0.002,0.034-0.002c1.722,0.112,2.949,2.82,2.792,6.088C49.732,32.734,48.598,30.618,47.078,30.516z" style="opacity:0.3;fill:#FFFFFF;enable-background:new    ;"/>
<linearGradient gradientTransform="matrix(2 0 0 -2 -292 -262)" gradientUnits="userSpaceOnUse" id="SVGID_17_" x1="161" x2="161" y1="-154.5908" y2="-156.8966">
<stop offset="0" style="stop-color:#7A7A7A"/>
<stop offset="0.7818" style="stop-color:#212121"/>
<stop offset="1" style="stop-color:#666666"/>
</linearGradient>
<ellipse cx="30.002" cy="49.546" rx="3.616" ry="2.262" style="fill:url(#SVGID_17_);"/>
</g>
</svg>
