<?xml version="1.0" encoding="UTF-8" standalone="no"?>
<!DOCTYPE svg PUBLIC "-//W3C//DTD SVG 1.1 Tiny//EN" "http://www.w3.org/Graphics/SVG/1.1/DTD/svg11-tiny.dtd">
<svg xmlns="http://www.w3.org/2000/svg" xmlns:xlink="http://www.w3.org/1999/xlink" baseProfile="tiny" height="40px" version="1.1" viewBox="0 0 60 40" width="60px" x="0px" y="0px">
<rect fill="none" height="40" width="60"/>
<path d="M58,0v30c0,4.411-3.589,8-8,8H0v2h50c5.5,0,10-4.5,10-10V0H58z" fill="#FFFFFF" fill-opacity="0.1" stroke-opacity="0.1"/>
<linearGradient gradientTransform="matrix(-1 0 0 1 -1619 0)" gradientUnits="userSpaceOnUse" id="SVGID_1_" x1="-1648.5" x2="-1648.5" y1="39" y2="0">
<stop offset="0" style="stop-color:#009DD9"/>
<stop offset="1" style="stop-color:#004F80"/>
</linearGradient>
<path d="M0,0h59v30c0,4.963-4.037,9-9,9H0V0z" fill="url(#SVGID_1_)"/>
<linearGradient gradientTransform="matrix(-1 0 0 1 -1619 0)" gradientUnits="userSpaceOnUse" id="SVGID_2_" x1="-1677" x2="-1620" y1="33" y2="33">
<stop offset="0" style="stop-color:#3AB9E0"/>
<stop offset="0.5055" style="stop-color:#F8FBFF"/>
<stop offset="1" style="stop-color:#3AB9E0"/>
</linearGradient>
<path d="M58,28v2c0,4.411-3.589,8-8,8H1v-2h49C54.411,36,58,32.411,58,28z" fill="url(#SVGID_2_)" fill-opacity="0.7" stroke-opacity="0.7"/>
<path d="M0,0v39h50c4.963,0,9-4.037,9-9V0H0z M1,1h57v29c0,4.411-3.589,8-8,8H1V1z" fill-opacity="0.2" stroke-opacity="0.2"/>
<rect fill="#FFFFFF" fill-opacity="0.3" height="1" stroke-opacity="0.3" width="58" y="1"/>
</svg>
