<?xml version="1.0" encoding="UTF-8" standalone="no"?>
<!DOCTYPE svg PUBLIC "-//W3C//DTD SVG 1.1 Tiny//EN" "http://www.w3.org/Graphics/SVG/1.1/DTD/svg11-tiny.dtd">
<svg xmlns="http://www.w3.org/2000/svg" xmlns:xlink="http://www.w3.org/1999/xlink" baseProfile="tiny" height="30px" version="1.1" viewBox="0 0 30 30" width="30px" x="0px" y="0px">
<g fill-opacity="0.5" stroke-opacity="0.5">
<rect fill="none" height="30" width="30"/>
</g>
<path d="M8.648,14.904c0.002,0.148,0.014,0.419,0.004,0.566c-0.007,0.102-0.043,0.209-0.08,0.317h5.857l0.001,0.001  c-0.037-0.108-0.073-0.217-0.08-0.318c-0.011-0.157,0-0.437,0.003-0.596c1.086-0.732,2.027-1.654,2.6-2.776  c1.061-2.08,0.672-7.392,0.672-7.392C17.625,2.538,14.383,0,12.189,0h-1.391C8.605,0,5.375,2.538,5.375,4.707  c0,0-0.332,5.294,0.658,7.392C6.577,13.243,7.536,14.175,8.648,14.904z"/>
<path d="M21,22.021v-0.839c-1.642-1.041-4.826-2.992-6.097-4.591L11.5,24.286l-3.401-7.694C6.401,18.725,1.294,21.482,1,21.87V28  h15.111C16.038,27.677,16,27.343,16,27C16,24.396,18.2,22.251,21,22.021z"/>
<path d="M23,15v9.3c-0.456-0.187-0.961-0.3-1.5-0.3c-1.934,0-3.5,1.343-3.5,3c0,1.656,1.566,3,3.5,3s3.5-1.344,3.5-3v-7.333L29,21  v-4L23,15z"/>
</svg>
