<?xml version="1.0" encoding="UTF-8"?>
<!DOCTYPE svg PUBLIC "-//W3C//DTD SVG 1.1 Tiny//EN" "http://www.w3.org/Graphics/SVG/1.1/DTD/svg11-tiny.dtd">
<svg baseProfile="tiny" height="16px" version="1.1" viewBox="0 0 16 16" width="16px" x="0px" xmlns="http://www.w3.org/2000/svg" xmlns:xlink="http://www.w3.org/1999/xlink" y="0px">
<path d="M12.457,10.34V6.542H8.659v2.766H7.393V6.542H3.598v3.797h2.767l-0.008,1.275l-2.772,0.018L3.602,15.4l3.769-0.016  l0.007-2.752h1.282v2.766h3.796v-3.795H9.688V10.34h2.764H12.457z M8.675,11.607H8.659v0.014H7.378v-1.279h0.015v-0.018h1.267v0.016  h0.014v1.26L8.675,11.607z"/>
<polygon points="8.036,2.094 14.088,8.124 14.799,7.413 8.003,0.597 1.202,7.396 1.988,8.163 "/>
<rect fill="none" height="16" width="16"/>
<rect fill="none" height="16" width="16"/>
</svg>
