<?xml version="1.0" encoding="UTF-8" standalone="no"?>
<!DOCTYPE svg PUBLIC "-//W3C//DTD SVG 1.1 Tiny//EN" "http://www.w3.org/Graphics/SVG/1.1/DTD/svg11-tiny.dtd">
<svg xmlns="http://www.w3.org/2000/svg" xmlns:xlink="http://www.w3.org/1999/xlink" baseProfile="tiny" height="30" viewBox="0 0 30 30" width="30">
<rect fill="none" height="30" width="30"/>
<path d="M15.69,11.54c1.257-0.96,2.563-1.786,3.289-2.164,0.001,0.001,0,0.003,0.001,0.004,0.001-0.001,0.005-0.006,0.007-0.008l1.277,2.142c0.183,0.313,0.589,0.408,0.953,0.256l7.359-4.248c0.383-0.22,0.533-0.68,0.334-1.022,0,0-0.203-0.305-0.818-1.062,0.002,0.001,0.002,0.003,0.004,0.005-0.002-0.002,0-0.005-0.002-0.008-0.312-0.383-0.35-0.397-0.751-0.765-1.204-1.103-2.53-1.536-2.53-1.536-0.514-0.182-2.241-0.282-4.417,0.374-1.677,0.506-4.996,2.505-7.888,4.851l3.19,3.181z"/>
<path d="M9.396,18.76c-0.01-0.001-0.019-0.001-0.027-0.003,0.002-0.002,0.008-0.01,0.008-0.01,0.652-1.125,1.375-2.136,2.143-3.077l-3.205-3.205c-2.367,2.794-4.219,5.808-4.637,6.907-0.814,2.148-0.74,4.517-0.563,5.205,0,0,0.169,0.513,0.56,1.211,0.005,0.007,0.01,0.016,0.015,0.024,0.038,0.068,0.076,0.136,0.119,0.207,0.001,0.002,0.004,0.001,0.005,0.002,0.21,0.35,0.464,0.729,0.783,1.114,0.374,0.449,0.392,0.578,0.785,0.925h0.003c0.723,0.636,1.021,0.83,1.021,0.83,0.345,0.224,0.827,0.103,1.08-0.268l4.794-7.042c0.254-0.372,0.186-0.856-0.158-1.078l-2.724-1.74z"/>
<rect height="35.83" transform="matrix(0.7066 -0.7076 0.7076 0.7066 -6.0774 14.6889)" width="1.867" x="13.74" y="-3.24"/>
</svg>
