<?xml version="1.0" encoding="UTF-8"?>
<!DOCTYPE svg PUBLIC "-//W3C//DTD SVG 1.1 Tiny//EN" "http://www.w3.org/Graphics/SVG/1.1/DTD/svg11-tiny.dtd">
<svg baseProfile="tiny" height="30px" version="1.1" viewBox="0 0 30 30" width="30px" x="0px" xmlns="http://www.w3.org/2000/svg" xmlns:xlink="http://www.w3.org/1999/xlink" y="0px">
<rect fill="none" height="30" width="29.999"/>
<path d="M22.212,3.211l0.707-0.707c0.779-0.777,2.054-0.777,2.83,0c0.776,0.777,0.776,2.051,0,2.828l-0.707,0.707L22.212,3.211z"/>
<path d="M18.896,29v-1.805l6.233-9.879h-5.823V15.3h9.551v1.771l-6.271,9.914h6.41V29H18.896z"/>
<path d="M9.701,21.104L5.259,16.66c-0.431,1.676,0.036,3.572,1.399,4.938c0.865,0.863,1.943,1.365,3.043,1.508V21.104z"/>
<path d="M24.335,3.918c-3.892-3.891-10.253-3.891-14.142,0L5.95,8.16C4.037,7.475,3.313,7.969,2.436,8.846L1,10.281l8.729,8.729  H16.8h0.509v-5.709h9.664C27.743,10.035,26.869,6.451,24.335,3.918z"/>
<path d="M11.463,29v-1.053l3.637-5.762h-3.398V21.01h5.571v1.031l-3.657,5.783h3.739V29H11.463z"/>
</svg>
