<?xml version="1.0" encoding="UTF-8"?>
<!DOCTYPE svg PUBLIC "-//W3C//DTD SVG 1.1 Tiny//EN" "http://www.w3.org/Graphics/SVG/1.1/DTD/svg11-tiny.dtd">
<svg baseProfile="tiny" height="30px" version="1.1" viewBox="0 0 30 30" width="30px" x="0px" xmlns="http://www.w3.org/2000/svg" xmlns:xlink="http://www.w3.org/1999/xlink" y="0px">
<rect fill="none" height="30" width="30"/>
<path d="M17.984,20.859l-2.171-8.682c0.953-0.338,1.642-1.224,1.642-2.291c0-1.359-1.1-2.457-2.457-2.457s-2.456,1.097-2.456,2.457  c0,1.067,0.686,1.95,1.636,2.291l-2.169,8.682H8.852v2.456h12.282v-2.456H17.984z"/>
<path d="M6.674,9.887c0,2.745,1.505,4.772,1.55,4.841c0.247-0.167,0.667-0.457,0.916-0.624c-0.048-0.066-1.364-1.931-1.364-4.217  c0-2.475,1.316-4.15,1.364-4.219C8.891,5.497,8.473,5.207,8.229,5.04C8.181,5.108,6.674,7.222,6.674,9.887z"/>
<path d="M9.605,9.887c0,1.824,0.993,3.12,1.041,3.186c0.249-0.167,0.667-0.457,0.916-0.624c-0.053-0.072-0.852-1.272-0.852-2.562  c0-1.437,0.799-2.496,0.85-2.563c-0.247-0.167-0.67-0.454-0.914-0.629C10.599,6.77,9.605,8.026,9.605,9.887z"/>
<path d="M23.327,9.882c0-2.747-1.507-4.773-1.555-4.842c-0.244,0.167-0.667,0.457-0.911,0.623c0.043,0.066,1.362,1.932,1.362,4.219  c0,2.473-1.319,4.149-1.362,4.217c0.244,0.171,0.667,0.461,0.911,0.628C21.815,14.662,23.327,12.547,23.327,9.882z"/>
<path d="M20.391,9.882c0-1.826-0.993-3.121-1.041-3.187c-0.244,0.167-0.666,0.457-0.917,0.624c0.054,0.074,0.854,1.275,0.854,2.563  c0,1.437-0.801,2.495-0.852,2.562c0.248,0.167,0.665,0.456,0.912,0.628C19.397,13,20.391,11.741,20.391,9.882z"/>
</svg>
