<?xml version="1.0" encoding="UTF-8" standalone="no"?>
<!DOCTYPE svg PUBLIC "-//W3C//DTD SVG 1.1 Tiny//EN" "http://www.w3.org/Graphics/SVG/1.1/DTD/svg11-tiny.dtd">
<svg xmlns="http://www.w3.org/2000/svg" xmlns:xlink="http://www.w3.org/1999/xlink" baseProfile="tiny" height="60" viewBox="0 0 60 60" width="60">
<g>
<rect fill="none" height="60" width="60"/>
<linearGradient gradientUnits="userSpaceOnUse" id="SVGID_1_" x1="29.9971" x2="29.9971" y1="11.1475" y2="59">
<stop offset="0" style="stop-color:#36B5FF"/>
<stop offset="1" style="stop-color:#1B66D8"/>
</linearGradient>
<polygon fill="url(#SVGID_1_)" points="49.745,33.13 50.37,11.55 9.624,11.55 10.797,33.03 3.996,59 55.998,59 "/>
<linearGradient gradientUnits="userSpaceOnUse" id="SVGID_2_" x1="29.9971" x2="29.9971" y1="64.0889" y2="49.3909">
<stop offset="0" style="stop-color:#36B5FF"/>
<stop offset="1" style="stop-color:#1B66D8"/>
</linearGradient>
<polygon fill="url(#SVGID_2_)" points="3.996,59 10.967,54.038 49.429,54.038 55.998,59 "/>
<linearGradient gradientUnits="userSpaceOnUse" id="SVGID_3_" x1="9.3125" x2="9.3125" y1="11.248" y2="59.7255">
<stop offset="0" style="stop-color:#5ED2FF"/>
<stop offset="1" style="stop-color:#277ADF"/>
</linearGradient>
<polygon fill="url(#SVGID_3_)" points="9.624,11.55 14.628,16.712 12.73,49.303 3.996,59 "/>
<linearGradient gradientUnits="userSpaceOnUse" id="SVGID_4_" x1="50.6777" x2="50.6777" y1="12.5122" y2="59.2981">
<stop offset="0" style="stop-color:#5ED2FF"/>
<stop offset="1" style="stop-color:#277ADF"/>
</linearGradient>
<polygon fill="url(#SVGID_4_)" points="50.37,11.55 45.357,16.712 47.254,49.303 55.998,59 "/>
<polygon fill="#FFFFFF" fill-opacity="0.15" points="50.934,23.129 49.654,12.354 10.34,12.354 8.508,27.796 " stroke-opacity="0.15"/>
<linearGradient gradientUnits="userSpaceOnUse" id="SVGID_5_" x1="29.9971" x2="29.9971" y1="12.0908" y2="58.4598">
<stop offset="0" style="stop-color:#8AD4FF"/>
<stop offset="0.7697" style="stop-color:#2078FF"/>
<stop offset="1" style="stop-color:#369EFF"/>
</linearGradient>
<path d="M48.939,13.157l5.248,44.234H5.808l5.247-44.234H48.939 M49.654,12.354H10.34L4.902,58.195h50.189  L49.654,12.354L49.654,12.354z" fill="url(#SVGID_5_)"/>
<polygon fill="#FFFFFF" fill-opacity="0.15" points="4.902,58.195 55.092,58.195 53.709,46.528 5.659,51.811 " stroke-opacity="0.15"/>
<path d="M42.791,46.192c-0.918,0-1.534-0.296-1.89-0.545c-0.911-0.646-0.911-1.666-0.911-2.101v-9.719  c-0.273-0.046-0.563-0.15-0.813-0.383l-3.05,10.015c-0.444,1.356-1.214,2.733-3.579,2.733c-2.435,0-3.191-1.46-3.578-2.733  l-1.232-4.256c-0.434,4.462-3.059,6.989-7.354,6.989c-4.768,0-7.393-3-7.393-8.448c0-4.933,2.852-7.997,7.441-7.997  c2.109,0,3.829,0.606,5.08,1.773l-0.457-1.572h5.904l1.957,8.226l2.067-8.226h5.257l-0.005,0.011  c0.118-0.008,0.228-0.008,0.325-0.008c0.122,0,0.25-0.003,0.25-0.003h1.143c-1.311-0.291-2.142-1.252-2.142-2.572  c0-1.594,1.212-2.665,3.015-2.665c1.773,0,3.013,1.096,3.013,2.665c0,1.32-0.831,2.282-2.142,2.572h1.902v13.597  c0,0.436,0,1.455-0.904,2.099C44.176,46.008,43.535,46.192,42.791,46.192L42.791,46.192z M20.385,33.666  c-1.146,0-1.613,1.161-1.613,4.005c0,3.184,0.496,4.604,1.613,4.604c1.195,0,1.639-1.247,1.639-4.604  C22.023,35.843,21.738,33.666,20.385,33.666L20.385,33.666z" fill-opacity="0.05" stroke-opacity="0.05"/>
<path d="M42.791,45.791c-0.812,0-1.352-0.255-1.66-0.472c-0.74-0.525-0.74-1.368-0.74-1.773V33.46  c-0.365-0.008-0.781-0.063-1.078-0.466c-0.086-0.113-0.189-0.277-0.258-0.523l-3.307,10.872c-0.42,1.276-1.096,2.448-3.199,2.448  c-2.158,0-2.828-1.236-3.193-2.448l-2.051-7.079c0.064,0.5,0.096,1.027,0.096,1.582c0,5.049-2.557,7.946-7.016,7.946  c-4.574,0-6.992-2.783-6.992-8.046c0-4.685,2.699-7.597,7.041-7.597c2.898,0,4.986,1.202,6.086,3.404l-0.927-3.201h5.053l2.259,9.51  l2.395-9.51H39.7l-0.054,0.172c0.295-0.169,0.631-0.169,0.916-0.169c0.125,0,0.263-0.002,0.263-0.002h4.374v13.196  c0,0.405,0,1.248-0.734,1.771C44.014,45.632,43.453,45.791,42.791,45.791L42.791,45.791z M20.385,33.265  c-1.771,0-2.015,2.117-2.015,4.406c0,2.475,0.239,5.006,2.015,5.006c1.698,0,2.039-1.916,2.039-5.006  C22.424,34.747,21.738,33.265,20.385,33.265L20.385,33.265z M42.828,29.641c-1.588,0-2.615-0.889-2.615-2.264  c0-1.375,1.027-2.263,2.615-2.263c1.538,0,2.613,0.931,2.613,2.263C45.441,28.752,44.414,29.641,42.828,29.641L42.828,29.641z" fill-opacity="0.1" stroke-opacity="0.1"/>
<path d="M20.385,44.989c-4.905,0-6.592-3.367-6.592-7.645c0-4.229,2.289-7.196,6.641-7.196  c4.505,0,6.566,2.994,6.566,7.295C27,41.947,24.911,44.989,20.385,44.989z M20.385,32.464c-2.238,0-2.416,2.716-2.416,4.805  c0,2.135,0.104,5.408,2.416,5.408s2.439-2.918,2.439-5.408C22.824,35.329,22.523,32.464,20.385,32.464z M26.126,30.35h4.202  l2.567,10.796l2.716-10.796h3.548l-3.797,12.476c-0.421,1.285-1.046,2.163-2.813,2.163c-1.764,0-2.42-0.878-2.81-2.163L26.126,30.35  z M42.828,28.838c-1.285,0-2.213-0.656-2.213-1.864c0-1.206,0.904-1.861,2.213-1.861c1.232,0,2.21,0.68,2.21,1.861  C45.038,28.182,44.109,28.838,42.828,28.838z M40.791,43.146c0,0.364,0,1.041,0.57,1.443c0.299,0.209,0.767,0.4,1.43,0.4  c0.689,0,1.139-0.189,1.439-0.4c0.57-0.402,0.57-1.079,0.57-1.443V30.35h-3.969c0,0-0.14,0.002-0.27,0.002  c-0.389,0-0.705,0.01-0.928,0.311c-0.106,0.14-0.25,0.394-0.25,0.844c0,0.475,0.144,0.708,0.25,0.848  c0.223,0.3,0.539,0.304,0.928,0.304c0.13,0,0.229,0,0.229,0V43.146z" fill="#FFFFFF"/>
<path d="M13.822,21.03c4.524,0,6.193-4.23,7.807-8.321c0.154-0.39,0.308-0.776,0.462-1.159h-2.562  c-0.044,0.109-0.088,0.22-0.131,0.327c-1.678,4.25-2.889,6.831-5.576,6.831c-0.659,0-1.195,0.521-1.195,1.162  S13.163,21.03,13.822,21.03z" fill-opacity="0.2" stroke-opacity="0.2"/>
<path d="M38.071,12.709c1.612,4.091,3.282,8.321,7.806,8.321c0.66,0,1.195-0.52,1.195-1.161s-0.535-1.162-1.195-1.162  c-2.686,0-3.898-2.581-5.574-6.831c-0.043-0.107-0.088-0.218-0.133-0.327h-2.561C37.764,11.933,37.918,12.319,38.071,12.709z" fill-opacity="0.2" stroke-opacity="0.2"/>
<linearGradient gradientUnits="userSpaceOnUse" id="SVGID_6_" x1="13.1113" x2="46.5898" y1="10.6279" y2="10.6279">
<stop offset="0" style="stop-color:#F4F4F4"/>
<stop offset="0.5" style="stop-color:#E1E2E3"/>
<stop offset="1" style="stop-color:#F4F4F4"/>
</linearGradient>
<path d="M45.428,17.934c-2.612,0-3.791-2.581-5.419-6.831C38.283,6.604,35.686,1,29.848,1  s-8.432,5.604-10.158,10.103c-1.627,4.25-2.805,6.831-5.418,6.831c-0.641,0-1.16,0.521-1.16,1.162s0.52,1.161,1.16,1.161  c4.398,0,6.021-4.231,7.588-8.322c1.698-4.429,3.303-8.611,7.99-8.613c4.689,0.002,6.293,4.184,7.99,8.613  c1.568,4.091,3.189,8.322,7.588,8.322c0.641,0,1.162-0.52,1.162-1.161S46.068,17.934,45.428,17.934z" fill="url(#SVGID_6_)"/>
<rect fill="none" height="60" width="60"/>
</g>
</svg>
