<?xml version="1.0" encoding="UTF-8"?>
<!DOCTYPE svg PUBLIC "-//W3C//DTD SVG 1.1 Tiny//EN" "http://www.w3.org/Graphics/SVG/1.1/DTD/svg11-tiny.dtd">
<svg baseProfile="tiny" height="30px" version="1.1" viewBox="0 0 30 30" width="30px" x="0px" xmlns="http://www.w3.org/2000/svg" xmlns:xlink="http://www.w3.org/1999/xlink" y="0px">
<polygon points="9.647,24.813 9.653,24.813 8.141,22.379 5.279,22.379 9.481,29.105 11.523,27.824 10.817,26.684 "/>
<polygon points="10.492,22.377 12.008,24.813 16.133,24.813 14.618,22.377 "/>
<polygon points="16.971,22.377 18.484,24.813 22.627,24.813 21.115,22.377 "/>
<polygon points="23.467,22.377 24.721,24.395 24.721,22.377 "/>
<polygon points="23.467,22.377 24.721,24.395 24.721,22.377 "/>
<polygon points="20.299,17.359 21.813,19.795 24.719,19.795 20.518,13.068 18.453,14.359 20.322,17.359 "/>
<polygon points="19.461,19.795 17.949,17.359 13.86,17.363 15.373,19.795 "/>
<polygon points="13.021,19.795 11.512,17.363 7.38,17.363 8.891,19.797 "/>
<polygon points="5.279,17.764 5.279,19.797 6.541,19.797 "/>
<polygon points="5.279,17.764 5.279,19.797 6.541,19.797 "/>
<polygon points="20.334,3.264 20.334,0.895 9.633,0.895 9.633,11.509 20.334,11.509 20.334,9.141 11.93,9.141 11.93,7.354   18.338,7.354 18.338,5.051 11.93,5.051 11.93,3.264 "/>
<polygon points="20.334,3.264 20.334,0.895 9.633,0.895 9.633,11.509 20.334,11.509 20.334,9.141 11.93,9.141 11.93,7.354   18.338,7.354 18.338,5.051 11.93,5.051 11.93,3.264 "/>
<rect fill="none" height="30" width="30"/>
</svg>
