<?xml version="1.0" encoding="UTF-8"?>
<!DOCTYPE svg PUBLIC "-//W3C//DTD SVG 1.1 Tiny//EN" "http://www.w3.org/Graphics/SVG/1.1/DTD/svg11-tiny.dtd">
<svg baseProfile="tiny" height="30" viewBox="0 0 30 30" width="30" xmlns="http://www.w3.org/2000/svg" xmlns:xlink="http://www.w3.org/1999/xlink">
<rect fill="none" height="30" width="30"/>
<path d="M29.813,21.146c-0.169-0.236-0.379-0.377-1.244-0.93c-2.185-1.396-3.446-2.377-3.757-2.9 c0.68-0.59,1.246-1.32,1.624-2.104c0.813-1.688,0.663-5.425,0.645-5.798C27.081,7.225,24.279,5,22.265,5h-0.54 c-2.014,0-4.814,2.225-4.814,4.379c-0.015,0.417-0.122,4.122,0.633,5.807c0.357,0.799,0.924,1.545,1.627,2.145 c-0.295,0.471-1.26,1.248-2.865,2.314c-2.509-1.551-3.941-2.637-4.252-3.217c0.787-0.644,1.444-1.451,1.882-2.323 c0.923-1.842,0.751-5.937,0.729-6.349C14.664,5.396,11.545,3,9.303,3H8.686c-2.242,0-5.36,2.396-5.359,4.719 c-0.018,0.457-0.14,4.52,0.717,6.36c0.413,0.888,1.072,1.712,1.888,2.368c-0.353,0.611-1.813,1.707-4.353,3.268 c-0.967,0.594-1.201,0.742-1.38,0.982L0,20.963V27h30v-5.594L29.813,21.146z" fill-opacity="0.6"/>
<linearGradient gradientUnits="userSpaceOnUse" id="SVGID_1" x1="9" x2="9" y1="4.04" y2="26.26">
<stop offset="0" stop-color="#4EDEFF"/>
<stop offset="1" stop-color="#048CC6"/>
</linearGradient>
<path d="M10.998,16.348c-0.008-0.125,0-0.252,0.004-0.38c0.852-0.585,1.589-1.415,2.039-2.311 c0.831-1.661,0.623-5.901,0.623-5.901C13.664,6.026,11.023,4,9.303,4H8.686c-1.72,0-4.36,2.026-4.36,3.756 c0,0-0.155,4.226,0.624,5.901c0.425,0.912,1.178,1.752,2.049,2.335c0.003,0.117,0.011,0.238,0.004,0.355 C6.896,18.045,1.274,20.928,1,21.295V26h16v-4.701C16.725,20.93,11.104,18.045,10.998,16.348z" fill="url(#SVGID_1)"/>
<linearGradient gradientUnits="userSpaceOnUse" id="SVGID_2" x1="9" x2="9" y1="4.04" y2="26.18">
<stop offset="0" stop-color="#4EDEFF"/>
<stop offset="0.72" stop-color="#19A3D6"/>
<stop offset="1" stop-color="#57CDFF"/>
</linearGradient>
<path d="M10.998,16.348c-0.008-0.125,0-0.252,0.004-0.38c0.852-0.585,1.589-1.415,2.039-2.311 c0.831-1.661,0.623-5.901,0.623-5.901C13.664,6.026,11.023,4,9.303,4H8.686c-1.72,0-4.36,2.026-4.36,3.756 c0,0-0.155,4.226,0.624,5.901c0.425,0.912,1.178,1.752,2.049,2.335c0.003,0.117,0.011,0.238,0.004,0.355 C6.896,18.045,1.274,20.928,1,21.295V26h16v-4.701C16.725,20.93,11.104,18.045,10.998,16.348z M16.111,25.107H1.889V21.75 c0.188-0.121,0.441-0.275,0.676-0.42c2.75-1.689,5.225-3.336,5.324-4.926c0.007-0.119,0.005-0.234,0-0.35l-0.01-0.465L7.49,15.248 c-0.756-0.505-1.389-1.225-1.736-1.971c-0.563-1.21-0.58-4.371-0.54-5.487c0.001-1.157,2.109-2.897,3.472-2.897h0.617 c1.363,0,3.473,1.74,3.473,2.863c0.076,1.594-0.001,4.444-0.529,5.498c-0.377,0.753-1.014,1.474-1.746,1.976l-0.374,0.258 l-0.013,0.455c-0.007,0.206-0.01,0.335-0.002,0.462c0.1,1.59,2.574,3.238,5.324,4.928c0.234,0.146,0.488,0.299,0.676,0.42V25.107z" fill="url(#SVGID_2)"/>
<linearGradient gradientUnits="userSpaceOnUse" id="SVGID_3" x1="22" x2="22" y1="6.38" y2="25.93">
<stop offset="0" stop-color="#DE8029"/>
<stop offset="0.26" stop-color="#DE4E29"/>
<stop offset="1" stop-color="#D82E09"/>
</linearGradient>
<path d="M23.748,17.225c-0.007-0.115,0-0.23,0.004-0.346c0.744-0.531,1.391-1.286,1.783-2.102 c0.729-1.508,0.546-5.363,0.546-5.363C26.081,7.842,23.771,6,22.265,6h-0.54c-1.504,0-3.814,1.842-3.814,3.414 c0,0-0.137,3.842,0.545,5.363c0.371,0.83,1.031,1.594,1.793,2.125c0.003,0.107,0.01,0.217,0.004,0.322 c-0.094,1.543-5.012,4.162-5.252,4.498V26h14v-4.273C28.76,21.391,23.842,18.768,23.748,17.225z" fill="url(#SVGID_3)"/>
<linearGradient gradientUnits="userSpaceOnUse" id="SVGID_4" x1="22" x2="22" y1="6.04" y2="29.62">
<stop offset="0" stop-color="#DE8029"/>
<stop offset="0.26" stop-color="#DE4E29"/>
<stop offset="1" stop-color="#D86D56"/>
</linearGradient>
<path d="M23.748,17.225c-0.007-0.115,0-0.23,0.004-0.346c0.744-0.531,1.391-1.286,1.783-2.102 c0.729-1.508,0.546-5.363,0.546-5.363C26.081,7.842,23.771,6,22.265,6h-0.54c-1.504,0-3.814,1.842-3.814,3.414 c0,0-0.137,3.842,0.545,5.363c0.371,0.83,1.031,1.594,1.793,2.125c0.003,0.107,0.01,0.217,0.004,0.322 c-0.094,1.543-5.012,4.162-5.252,4.498V26h14v-4.273C28.76,21.391,23.842,18.768,23.748,17.225z M28.125,25.092h-12.25v-2.904 c0.158-0.104,0.361-0.234,0.551-0.355c2.984-1.904,4.617-3.193,4.699-4.551c0.006-0.115,0.004-0.223,0-0.332l-0.016-0.465 l-0.375-0.338c-0.647-0.451-1.189-1.091-1.484-1.753c-0.434-0.963-0.516-3.545-0.466-4.946c0.001-0.993,1.814-2.539,2.94-2.539h0.54 c1.127,0,2.941,1.546,2.941,2.506c0.066,1.443,0.001,4.016-0.453,4.955c-0.323,0.671-0.868,1.312-1.497,1.76l-0.365,0.262 l-0.014,0.461c-0.006,0.186-0.01,0.309-0.002,0.43c0.082,1.357,1.715,2.646,4.698,4.553c0.189,0.121,0.393,0.25,0.552,0.355V25.092z " fill="url(#SVGID_4)"/>
<path d="M7.972,27L8,25.973c0.074-2.631,1.977-3.814,3.234-4.596l0.156-0.098l1.674-0.842 c-0.006-0.008-0.012-0.018-0.018-0.025c-0.166-0.232-0.371-0.523-0.547-0.863c-0.744-1.441-0.995-2.395-0.995-3.776 c0-2.632,2.001-4.772,4.462-4.772h0.102c2.445,0.019,4.43,2.152,4.43,4.772c0,1.382-0.252,2.335-0.995,3.776 c-0.177,0.34-0.382,0.629-0.546,0.861c-0.015,0.02-0.029,0.041-0.045,0.063c0,0,1.6,0.973,1.746,1.059 c1.303,0.777,3.271,1.951,3.342,4.441L24.028,27H7.972z" fill-opacity="0.6"/>
<linearGradient gradientUnits="userSpaceOnUse" id="SVGID_5" x1="16" x2="16" y1="25.9" y2="4.01">
<stop offset="0" stop-color="#FFFFFF"/>
<stop offset="1" stop-color="#FCBA63"/>
</linearGradient>
<path d="M23,26c-0.062-2.188-2.088-3.121-3.289-3.873l-1.715-1.043c-0.707-0.488,0.129-1.049,0.618-1.994 c0.724-1.402,0.884-2.182,0.884-3.317c0-2.063-1.536-3.772-3.463-3.772c-0.012,0-0.021,0.003-0.035,0.005 C15.989,12.003,15.979,12,15.967,12c-1.928,0-3.462,1.71-3.462,3.772c0,1.136,0.159,1.915,0.884,3.317 c0.488,0.947,1.324,1.506,0.617,1.994l-2.085,1.043C10.72,22.879,9.062,23.813,9,26H23z" fill="url(#SVGID_5)"/>
</svg>
