<?xml version="1.0" encoding="UTF-8"?>
<!DOCTYPE svg PUBLIC "-//W3C//DTD SVG 1.1 Tiny//EN" "http://www.w3.org/Graphics/SVG/1.1/DTD/svg11-tiny.dtd">
<svg baseProfile="tiny" height="30" viewBox="0 0 30 30" width="30" xmlns="http://www.w3.org/2000/svg" xmlns:xlink="http://www.w3.org/1999/xlink">
<rect fill="none" height="30" width="30"/>
<rect fill="none" height="30" width="30"/>
<rect height="2.25" width="2.25" x="10.875" y="14.625"/>
<rect height="2.25" width="2.25" x="6.375" y="10.125"/>
<rect height="2.25" width="2.25" x="8.625" y="12.375"/>
<rect height="2.25" width="2.25" x="6.375" y="14.625"/>
<rect height="2.25" width="2.25" x="13.125" y="7.875"/>
<rect height="2.25" width="2.25" x="8.625" y="7.875"/>
<rect height="2.25" width="2.25" x="13.125" y="12.375"/>
<rect height="2.25" width="2.25" x="10.875" y="10.125"/>
<rect height="2.25" width="2.25" x="15.375" y="14.625"/>
<rect height="2.25" width="2.25" x="15.375" y="10.125"/>
<polygon points="8.635,18.432 10.875,17.727 10.875,16.875 8.625,16.875 "/>
<path d="M14.287,25.43v0.82H9.76v-0.82h1.609v-5.722L9.76,20.076v-0.82l2.261-0.711h0.743v6.885H14.287z"/>
<path d="M14.53,19.125v-1.113l0.788-0.247c0.019-0.007,0.039-0.011,0.057-0.017v-0.873h-2.25v0.545h0.764v1.705H14.53z"/>
<path d="M13.889,23.25h1.089c0.173-0.29,0.361-0.564,0.579-0.799c0.303-0.329,0.682-0.684,1.127-1.06 c0.563-0.474,0.682-0.659,0.687-0.669c0.034-0.059,0.047-0.102,0.047-0.123c0-0.023-0.001-0.045-0.003-0.063 c-0.031-0.003-0.074-0.006-0.133-0.006c-0.215,0-0.603,0.047-1.232,0.275l-0.187,0.067h-0.487v0.501h-1.486V23.25z"/>
<path d="M19.998,25.358v0.892h-4.574v-0.559c0-0.533,0.092-1.006,0.278-1.421c0.185-0.413,0.411-0.766,0.681-1.059 c0.271-0.292,0.612-0.612,1.025-0.961c0.496-0.416,0.809-0.739,0.939-0.968c0.13-0.23,0.195-0.457,0.195-0.684 c0-0.395-0.106-0.693-0.316-0.895c-0.21-0.199-0.525-0.298-0.945-0.298c-0.444,0-0.984,0.114-1.616,0.343h-0.011v-0.913 c0.664-0.208,1.311-0.312,1.938-0.312c0.776,0,1.367,0.17,1.77,0.51s0.605,0.842,0.605,1.504c0,0.374-0.091,0.74-0.272,1.101 c-0.181,0.36-0.608,0.823-1.282,1.388c-0.375,0.318-0.67,0.582-0.882,0.794c-0.21,0.212-0.39,0.446-0.534,0.7 c-0.146,0.256-0.227,0.535-0.238,0.838L19.998,25.358L19.998,25.358z"/>
<path d="M17.625,16.875V17.4c1.029,0.006,1.859,0.264,2.463,0.775c0.087,0.073,0.176,0.162,0.266,0.262v-0.955h1.396V3.75H2.25v19.5 h7.994v-1.875H9.133l-0.499,0.114v-0.114H8.625v-2.25h-2.25v2.25h-2.25v-2.25h2.25v-2.25h-2.25v-2.25h2.25v-2.25h-2.25v-2.25h2.25 v-2.25h-2.25v-2.25h2.25v2.25h2.25v-2.25h2.25v2.25h2.25v-2.25h2.25v2.25h2.25v-2.25h2.25v2.25h-2.25v2.25h2.25v2.25h-2.25v2.25 h2.25v2.25H17.625z"/>
<path d="M20.354,22.674c-0.144,0.184-0.318,0.375-0.521,0.576h0.521V22.674z"/>
<path d="M27.75,18.607v7.643h-1.395v-5.291l-1.441,2.748h-0.588l-1.447-2.748v5.291h-1.399v-7.643h1.179l1.965,3.736l1.963-3.736 H27.75z"/>
</svg>
