<?xml version="1.0" encoding="UTF-8"?>
<!DOCTYPE svg PUBLIC "-//W3C//DTD SVG 1.1 Tiny//EN" "http://www.w3.org/Graphics/SVG/1.1/DTD/svg11-tiny.dtd">
<svg baseProfile="tiny" height="30px" version="1.1" viewBox="0 0 30 30" width="30px" x="0px" xmlns="http://www.w3.org/2000/svg" xmlns:xlink="http://www.w3.org/1999/xlink" y="0px">
<rect fill="none" height="30" width="30" y="0"/>
<path d="M0.998,3v24h28v-24h-28zm25,21h-22v-18h22v18z"/>
<path d="M8.205,19.37l-1.881-8.736h1.699l1.271,6.867,1.682-6.867h1.705l1.547,6.867,1.406-6.867h1.412l-2.086,8.736h-1.752l-1.512-6.662-1.682,6.662h-1.815z"/>
<path d="M20.74,19.37h-2.713v-8.736h2.918c0.836,0,1.463,0.177,1.881,0.53s0.627,0.882,0.627,1.585c0,1-0.484,1.672-1.453,2.016,1.113,0.254,1.67,0.969,1.67,2.145,0,0.82-0.244,1.436-0.732,1.846-0.5,0.41-1.23,0.62-2.21,0.62zm-1.1-5.03h0.791c0.48,0,0.834-0.115,1.059-0.346s0.337-0.596,0.337-1.096c0-0.426-0.103-0.746-0.308-0.961s-0.512-0.322-0.918-0.322h-0.961v2.731zm0,4.04h0.885c0.521,0,0.896-0.12,1.129-0.36,0.232-0.239,0.349-0.635,0.349-1.187,0-0.517-0.12-0.896-0.36-1.144-0.24-0.247-0.615-0.368-1.127-0.368h-0.873v3.059h0.003z"/>
</svg>
