<?xml version="1.0" encoding="UTF-8"?>
<!DOCTYPE svg PUBLIC "-//W3C//DTD SVG 1.1 Tiny//EN" "http://www.w3.org/Graphics/SVG/1.1/DTD/svg11-tiny.dtd">
<svg baseProfile="tiny" height="30" viewBox="0 0 30 30" width="30" xmlns="http://www.w3.org/2000/svg" xmlns:xlink="http://www.w3.org/1999/xlink">
<rect fill="none" height="30" width="30"/>
<rect fill="none" height="30.001" width="30" y="-0.001"/>
<rect height="3.75" width="1.5" x="14.377" y="1.687"/>
<rect height="1.5" width="3.75" x="2.25" y="12.343"/>
<rect height="3.751" transform="matrix(-0.7073 0.7069 -0.7069 -0.7073 16.5283 4.8865)" width="1.5" x="6.502" y="3.99"/>
<rect height="1.5" width="3.75" x="24" y="12.343"/>
<rect height="3.75" transform="matrix(0.7071 0.7071 -0.7071 0.7071 10.8098 -14.3667)" width="1.5" x="21.997" y="3.99"/>
<path d="M15.122,7.312c-4.483,0-7.494,2.858-7.494,7.111c0,1.482,1.441,4.204,4.283,8.091l0.674,0.922h5.083l0.676-0.922 c2.842-3.888,4.283-6.609,4.283-8.091C22.627,10.17,19.615,7.312,15.122,7.312z M16.527,21.186h-2.8c0,0-3.85-5.265-3.85-6.763 c0-3.249,2.35-4.863,5.25-4.861c2.9-0.002,5.25,1.612,5.25,4.861C20.377,15.921,16.527,21.186,16.527,21.186z"/>
<rect height="3.75" width="5.25" x="12.502" y="24.561"/>
</svg>
