<?xml version="1.0" ?>
<!DOCTYPE svg  PUBLIC '-//W3C//DTD SVG 1.1 Tiny//EN'  'http://www.w3.org/Graphics/SVG/1.1/DTD/svg11-tiny.dtd'>
<svg baseProfile="tiny" height="30px" version="1.1" viewBox="0 0 30 30" width="30px" x="0px" xmlns="http://www.w3.org/2000/svg" xmlns:xlink="http://www.w3.org/1999/xlink" y="0px">

<rect fill="none" height="30" width="30"/>

<rect height="4" width="2" x="14" y="0"/>

<rect height="4" width="6" x="12" y="26"/>

<path d="M15,6.215c-5.001,0-8.495,3.297-8.495,8.019,0,0.694,0,2.538,4.627,8.769l0.898,1.213h5.951l0.898-1.213c4.625-6.23,4.625-8.074,4.625-8.769,0-4.718-3.49-8.015-8.5-8.015zm1.47,15h-2.931s-4.036-5.435-4.036-6.981c0-3.355,2.463-5.021,5.5-5.019,3.037-0.002,5.5,1.663,5.5,5.019,0,1.54-4.03,6.98-4.03,6.98z"/>

<rect height="4" transform="matrix(0.7071 -0.7071 0.7071 0.7071 -0.7621 5.2862)" width="2" x="5" y="1.563"/>

<rect height="4" transform="matrix(-0.7071 -0.7071 0.7071 -0.7071 38.4511 23.053)" width="2" x="23" y="1.563"/>

</svg>