<?xml version="1.0" encoding="UTF-8"?>
<!DOCTYPE svg PUBLIC "-//W3C//DTD SVG 1.1 Tiny//EN" "http://www.w3.org/Graphics/SVG/1.1/DTD/svg11-tiny.dtd">
<svg baseProfile="tiny" height="60" viewBox="0 0 60 60" width="60" xmlns="http://www.w3.org/2000/svg" xmlns:xlink="http://www.w3.org/1999/xlink">
<g>
<linearGradient gradientTransform="matrix(0.2118 0.9773 -0.9773 0.2118 -634.5609 -270.4865)" gradientUnits="userSpaceOnUse" id="SVGID_1_" x1="423.0967" x2="429.6527" y1="-578.646" y2="-582.908">
<stop offset="0" style="stop-color:#3BC8EB"/>
<stop offset="0.6061" style="stop-color:#154EBD"/>
<stop offset="1" style="stop-color:#2D9BD2"/>
</linearGradient>
<path d="M19.081,33.911c2.089-3.597,4.591-6.497,7.281-9.189c2.593-2.591,6.72-5.3,8.562-6.256l9.604-10.282  c-0.845-0.3-3.693-0.464-7.279,0.616c-3.586,1.083-11.736,6.303-16.979,11.547c-5.242,5.246-9.727,12.347-10.581,14.595  c-1.343,3.541-1.221,7.445-0.929,8.581c0,0,0.34,1.034,1.144,2.377C10.248,46.476,19.081,33.911,19.081,33.911z" fill="url(#SVGID_1_)"/>
<path d="M31.184,20.8c1.488-1.036,2.87-1.882,3.74-2.334L44.271,8.46  c-0.132-0.058-0.209-0.088-0.209-0.088c-0.247-0.088-0.642-0.162-1.124-0.219c-0.793,0.006-1.596,0.093-2.401,0.27  C34.843,9.673,31.019,14.958,31.184,20.8z" fill="#020202" fill-opacity="0.05" stroke-opacity="0.05"/>
<path d="M31.906,20.306c1.205-0.809,2.291-1.462,3.018-1.84l9.377-10.04  c-0.146-0.063-0.233-0.098-0.233-0.098c-0.231-0.08-0.604-0.152-1.06-0.203c-0.751,0.006-1.51,0.087-2.27,0.253  C35.275,9.576,31.636,14.695,31.906,20.306z" fill="#020202" fill-opacity="0.1" stroke-opacity="0.1"/>
<path d="M44.079,8.263c-0.21-0.073-0.55-0.137-0.962-0.186c-0.681,0.006-1.369,0.08-2.06,0.231  c-5.087,1.116-8.426,5.984-7.978,11.233c0.725-0.455,1.363-0.826,1.844-1.076l9.424-10.088C44.178,8.302,44.079,8.263,44.079,8.263z  " fill="#020202" fill-opacity="0.1" stroke-opacity="0.1"/>
<radialGradient cx="43.3906" cy="8.9175" gradientUnits="userSpaceOnUse" id="SVGID_2_" r="18.5073">
<stop offset="0" style="stop-color:#3BC8EB"/>
<stop offset="0.6061" style="stop-color:#154EBD"/>
<stop offset="1" style="stop-color:#2D9BD2"/>
</radialGradient>
<path d="M34.924,18.466l0.929,1.55c0,0,15.101-6.784,14.084-8.038c-0.513-0.631-0.577-0.656-1.237-1.263  c-1.985-1.815-4.172-2.531-4.172-2.531c-0.186-0.063-0.481-0.12-0.845-0.161c-0.596,0.004-1.2,0.068-1.806,0.201  c-4.591,1.009-7.57,5.501-6.963,10.257C34.916,18.477,34.921,18.47,34.924,18.466z" fill="url(#SVGID_2_)"/>
<path d="M17.483,34.106c-0.988-0.14-2.007-0.119-3.027,0.105c-2.418,0.53-4.376,2.066-5.646,4.131  c-0.367,2.35-0.25,4.407-0.05,5.18c0,0,0.34,1.034,1.144,2.377c0.29,0.482,6.54-8.264,8.556-11.107L17.483,34.106z" fill="#020202" fill-opacity="0.1" stroke-opacity="0.1"/>
<path d="M18.366,34.136c-0.989-0.14-2.008-0.118-3.029,0.105c-3.313,0.727-5.775,3.332-6.76,6.623  c-0.026,1.025,0.034,1.872,0.127,2.397c0.003,0.013,0.005,0.034,0.01,0.048c0,0,0.34,1.033,1.144,2.379  c0.3,0.498,6.981-8.888,8.75-11.384L18.366,34.136z" fill="#020202" fill-opacity="0.1" stroke-opacity="0.1"/>
<radialGradient cx="437.4258" cy="-571.231" gradientTransform="matrix(0.2095 0.9787 -0.9682 0.2124 -629.4526 -270.6148)" gradientUnits="userSpaceOnUse" id="SVGID_3_" r="14.6198">
<stop offset="0" style="stop-color:#3BC8EB"/>
<stop offset="0.6061" style="stop-color:#154EBD"/>
<stop offset="1" style="stop-color:#2D9BD2"/>
</radialGradient>
<path d="M11.202,47.738c0.616,0.74,0.646,0.954,1.295,1.524c1.194,1.055,9.301-13.612,9.301-13.612  l-2.683-1.719c-0.941-0.111-1.914-0.079-2.89,0.136c-4.777,1.048-7.806,5.868-6.87,10.832C9.749,45.686,10.349,46.71,11.202,47.738z  " fill="url(#SVGID_3_)"/>
<path d="M49.937,11.978c-0.179-0.22-0.381-0.446-0.578-0.67l-13.944,7.959l0.438,0.749  C35.853,20.016,50.953,13.231,49.937,11.978z" fill="#020202" fill-opacity="0.4" stroke-opacity="0.4"/>
<linearGradient gradientTransform="matrix(0.2118 0.9773 -0.9773 0.2118 -634.5599 -270.4865)" gradientUnits="userSpaceOnUse" id="SVGID_4_" x1="422.2881" x2="427.4786" y1="-610.9287" y2="-594.4409">
<stop offset="0" style="stop-color:#3BC8EB"/>
<stop offset="0.8121" style="stop-color:#1347BA"/>
<stop offset="1" style="stop-color:#2D9BD2"/>
</linearGradient>
<path d="M35.853,20.016l1.178,1.981c0.302,0.515,0.972,0.674,1.569,0.422l4.09-2.334l8.043-4.668  c0.632-0.363,0.878-1.119,0.549-1.686c0,0-0.333-0.501-1.349-1.751L35.853,20.016z" fill="url(#SVGID_4_)"/>
<path d="M21.798,35.65l-0.725-0.472l-9.215,13.486c0.216,0.204,0.43,0.414,0.639,0.598  C13.691,50.317,21.798,35.65,21.798,35.65z" fill="#020202" fill-opacity="0.4" stroke-opacity="0.4"/>
<linearGradient gradientTransform="matrix(0.2118 0.9773 -0.9773 0.2118 -634.5599 -270.4865)" gradientUnits="userSpaceOnUse" id="SVGID_5_" x1="439.6982" x2="451.5232" y1="-577.7549" y2="-564.7323">
<stop offset="0" style="stop-color:#3BC8EB"/>
<stop offset="0.8121" style="stop-color:#1347BA"/>
<stop offset="1" style="stop-color:#2D9BD2"/>
</linearGradient>
<path d="M12.498,49.262c1.193,1.05,1.686,1.37,1.686,1.37c0.567,0.367,1.363,0.169,1.781-0.442l7.9-11.605  c0.419-0.614,0.307-1.411-0.26-1.777l-1.808-1.156L12.498,49.262z" fill="url(#SVGID_5_)"/>
<rect fill="none" height="60" width="60"/>
</g>
<g transform="matrix(0.5 0 0 0.5 30 30)">
<rect fill="none" height="60" width="60"/>
<linearGradient gradientUnits="userSpaceOnUse" id="SVGID_1" x1="30" x2="30" y1="7.65" y2="51.22">
<stop offset="0" stop-color="#BDC2C4"/>
<stop offset="1" stop-color="#454B4D"/>
</linearGradient>
<path d="M29.998,51.425c-12.154,0-22.04-9.886-22.04-22.039c0-12.152,9.886-22.04,22.04-22.04 c12.153,0,22.039,9.887,22.039,22.04C52.037,41.539,42.151,51.425,29.998,51.425L29.998,51.425z" fill="url(#SVGID_1)"/>
<linearGradient gradientUnits="userSpaceOnUse" id="SVGID_2" x1="30" x2="30" y1="8.27" y2="50.72">
<stop offset="0" stop-color="#D1D7D9"/>
<stop offset="0.24" stop-color="#BDC2C4"/>
<stop offset="1" stop-color="#697173"/>
</linearGradient>
<circle cx="29.998" cy="29.385" fill="url(#SVGID_2)" r="21.427"/>
<path d="M30.745,30.133c7.176,0,14.106-0.448,20.667-1.272 c-0.281-11.59-9.756-20.902-21.414-20.902c-11.59,0-21.027,9.205-21.41,20.702C15.587,29.61,23.023,30.133,30.745,30.133z" fill="#F1F1F2" fill-opacity="0.35" stroke-opacity="0.35"/>
<linearGradient gradientUnits="userSpaceOnUse" id="SVGID_3" x1="8.78" x2="51.53" y1="18.83" y2="18.83">
<stop offset="0" stop-color="#C0C5C7"/>
<stop offset="0.2" stop-color="#F7FDFF"/>
<stop offset="0.8" stop-color="#F7FDFF"/>
<stop offset="1" stop-color="#CDD3D5"/>
</linearGradient>
<path d="M29.998,8.571c11.73,0,21.255,9.429,21.42,21.121c0-0.102,0.007-0.204,0.007-0.306 c0-11.834-9.593-21.427-21.427-21.427S8.571,17.552,8.571,29.386c0,0.103,0.006,0.204,0.007,0.306 C8.743,18,18.267,8.571,29.998,8.571z" fill="url(#SVGID_3)"/>
<linearGradient gradientUnits="userSpaceOnUse" id="SVGID_4" x1="30" x2="30" y1="48.67" y2="10.48">
<stop offset="0" stop-color="#BDC2C4"/>
<stop offset="1" stop-color="#454B4D"/>
</linearGradient>
<path d="M29.998,48.363c-10.465,0-18.979-8.513-18.979-18.978s8.513-18.979,18.979-18.979 c10.465,0,18.979,8.514,18.979,18.979S40.463,48.363,29.998,48.363L29.998,48.363z" fill="url(#SVGID_4)"/>
<radialGradient cx="30" cy="62.44" gradientUnits="userSpaceOnUse" id="SVGID_5" r="66.73">
<stop offset="0" stop-color="#FAF9F9"/>
<stop offset="0.4" stop-color="#FAF9F9"/>
<stop offset="1" stop-color="#808184"/>
</radialGradient>
<path d="M29.998,47.752c-10.126,0-18.366-8.238-18.366-18.366c0-10.126,8.24-18.366,18.366-18.366 c10.127,0,18.365,8.24,18.365,18.366C48.363,39.514,40.125,47.752,29.998,47.752L29.998,47.752z" fill="url(#SVGID_5)"/>
<path d="M29.998,30.697c6.058,0,11.84-0.509,17.139-1.427 c-0.063-9.398-7.725-17.026-17.139-17.026c-9.413,0-17.076,7.627-17.14,17.026C18.159,30.188,23.94,30.697,29.998,30.697z" fill="#FFFFFF" fill-opacity="0.7" stroke-opacity="0.7"/>
<rect fill="#404041" height="3.673" width="1.224" x="29.386" y="12.694"/>
<rect fill="#404041" height="3.673" width="1.224" x="29.386" y="43.305"/>
<rect fill="#404041" height="1.224" width="3.673" x="43.467" y="29.224"/>
<rect fill="#404041" height="1.224" width="3.673" x="12.856" y="29.224"/>
<rect fill="#404041" height="2.965" transform="matrix(-0.5007 -0.8656 0.8656 -0.5007 45.7079 70.7357)" width="0.989" x="42.76" y="20.703"/>
<rect fill="#404041" height="2.965" transform="matrix(-0.4998 -0.8661 0.8661 -0.4998 -7.3583 70.732)" width="0.988" x="16.251" y="36.008"/>
<rect fill="#404041" height="2.964" transform="matrix(-0.8659 -0.5002 0.5002 -0.8659 61.9565 49.7736)" width="0.988" x="37.155" y="15.101"/>
<rect fill="#404041" height="2.964" transform="matrix(-0.8658 -0.5004 0.5004 -0.8658 20.127 91.5796)" width="0.988" x="21.85" y="41.609"/>
<rect fill="#404041" height="2.965" transform="matrix(-0.8661 0.4998 -0.4998 -0.8661 49.9881 19.7728)" width="0.988" x="21.852" y="15.098"/>
<rect fill="#404041" height="2.964" transform="matrix(-0.8662 0.4998 -0.4998 -0.8662 91.7979 61.5927)" width="0.989" x="37.157" y="41.606"/>
<rect fill="#404041" height="2.964" transform="matrix(-0.5 0.866 -0.866 -0.5 44.3279 18.7772)" width="0.988" x="16.249" y="20.704"/>
<rect fill="#404041" height="2.964" transform="matrix(-0.499 0.8666 -0.8666 -0.499 97.3271 18.7183)" width="0.988" x="42.759" y="36.01"/>
<path d="M31.497,30.254c-0.06-0.294-0.207-0.555-0.409-0.761 l2.109-6.953l-1.758-0.533l-2.19,7.218c-0.381,0.216-0.661,0.586-0.751,1.029h-4.01v0.613h4.011c0.017,0.08,0.041,0.158,0.069,0.234 l-9.448,9.445l0.794,0.795l9.414-9.412c0.202,0.1,0.428,0.16,0.67,0.16c0.74,0,1.357-0.524,1.499-1.225h14.418v-0.611H31.497z" fill="#231F20" fill-opacity="0.2" stroke-opacity="0.2"/>
<linearGradient gradientUnits="userSpaceOnUse" id="SVGID_6" x1="32.4" x2="29.66" y1="21.15" y2="30.18">
<stop offset="0" stop-color="#58595B"/>
<stop offset="1" stop-color="#231F20"/>
</linearGradient>
<polygon fill="url(#SVGID_6)" points="33.197,21.673 31.439,21.14 28.773,29.927 30.531,30.46 "/>
<linearGradient gradientUnits="userSpaceOnUse" id="SVGID_7" x1="19.58" x2="30.34" y1="40.02" y2="29.25">
<stop offset="0" stop-color="#58595B"/>
<stop offset="1" stop-color="#231F20"/>
</linearGradient>
<polygon fill="url(#SVGID_7)" points="30.752,29.638 29.958,28.843 19.12,39.68 19.914,40.475 "/>
<linearGradient gradientUnits="userSpaceOnUse" id="SVGID_8" x1="35.2" x2="35.2" y1="29.3" y2="30.19">
<stop offset="0" stop-color="#FF0000"/>
<stop offset="1" stop-color="#A8000B"/>
</linearGradient>
<path d="M45.915,29.386H31.497c-0.142-0.699-0.759-1.225-1.499-1.225c-0.742,0-1.359,0.526-1.5,1.225 h-4.011v0.612h4.011c0.141,0.699,0.758,1.225,1.5,1.225c0.74,0,1.357-0.525,1.499-1.225h14.418V29.386z" fill="url(#SVGID_8)"/>
<linearGradient gradientUnits="userSpaceOnUse" id="SVGID_9" x1="30" x2="30" y1="28.72" y2="30.61">
<stop offset="0" stop-color="#FFE2D9"/>
<stop offset="1" stop-color="#F23D3D"/>
</linearGradient>
<circle cx="29.998" cy="29.691" fill="url(#SVGID_9)" r="0.918"/>
<rect fill="none" height="59.996" width="59.996"/>
</g>
</svg>
