<?xml version="1.0" encoding="UTF-8" standalone="no"?>
<!DOCTYPE svg PUBLIC "-//W3C//DTD SVG 1.1 Tiny//EN" "http://www.w3.org/Graphics/SVG/1.1/DTD/svg11-tiny.dtd">
<svg xmlns="http://www.w3.org/2000/svg" xmlns:xlink="http://www.w3.org/1999/xlink" baseProfile="tiny" height="16px" version="1.1" viewBox="0 0 16 16" width="16px" x="0px" y="0px">
<rect fill="none" height="16" width="16"/>
<path d="M2.729,8.637c-0.285-2.44,1.195-4.838,3.644-5.636s5.056,0.269,6.264,2.407l1.703-0.556c-1.527-3.059-5.125-4.62-8.509-3.517-3.385,1.103-5.374,4.486-4.806,7.856l1.704-0.554z"/>
<path d="M14.98,6.807l-1.705,0.555c0.285,2.44-1.195,4.838-3.643,5.637-2.448,0.798-5.057-0.267-6.264-2.408l-1.703,0.556c1.525,3.06,5.125,4.621,8.51,3.518,3.38-1.11,5.36-4.49,4.8-7.863z"/>
</svg>
