<?xml version="1.0" ?>
<!DOCTYPE svg  PUBLIC '-//W3C//DTD SVG 1.1 Tiny//EN'  'http://www.w3.org/Graphics/SVG/1.1/DTD/svg11-tiny.dtd'>
<svg baseProfile="tiny" height="30" viewBox="0 0 30 30" width="30" xmlns="http://www.w3.org/2000/svg" xmlns:xlink="http://www.w3.org/1999/xlink">

<polygon fill-opacity="0.6" points="3,29,3,1,27,1,27,22.41,20.41,29" stroke-opacity="0.6"/>

<linearGradient gradientTransform="matrix(1 0 0 -1 214.52 -8.0195)" gradientUnits="userSpaceOnUse" id="SVGID_1_" x1="-199.5" x2="-199.5" y1="-10.02" y2="-36.02">

<stop offset="0" stop-color="#F9F9F9"/>

<stop offset="1" stop-color="#B5B5B5"/>

</linearGradient>

<polygon fill="url(#SVGID_1_)" points="4,2,4,28,20,28,26,22,26,2"/>

<linearGradient gradientTransform="matrix(1 0 0 -1 214.52 -8.0195)" gradientUnits="userSpaceOnUse" id="SVGID_2_" x1="-194.6" x2="-191.5" y1="-29.94" y2="-33.04">

<stop offset="0" stop-color="#F9F9F9"/>

<stop offset="1" stop-color="#DCDCDC"/>

</linearGradient>

<polygon fill="url(#SVGID_2_)" points="26,22,20,22,20,28"/>

<linearGradient gradientTransform="matrix(1 0 0 -1 214.52 -8.0195)" gradientUnits="userSpaceOnUse" id="SVGID_3_" x1="-199.5" x2="-199.5" y1="-5.646" y2="-15.02">

<stop offset="0" stop-color="#4EDEFF"/>

<stop offset="1" stop-color="#048CC6"/>

</linearGradient>

<rect fill="url(#SVGID_3_)" height="5.393" width="22" x="4" y="2"/>

<rect fill="#FFFFFF" fill-opacity="0.4" height="1" stroke-opacity="0.4" width="22" x="4" y="2"/>

<linearGradient gradientTransform="matrix(1 0 0 -1 214.52 -8.0195)" gradientUnits="userSpaceOnUse" id="SVGID_4_" x1="-207.5" x2="-207.5" y1="-19.02" y2="-28.09">

<stop offset="0" stop-color="#646464"/>

<stop offset="1" stop-color="#3C3C3C"/>

</linearGradient>

<polygon fill="url(#SVGID_4_)" points="9,18.5,6.332,15.5,9,12.5,9,11,5,15.5,9,20"/>

<linearGradient gradientTransform="matrix(1 0 0 -1 214.52 -8.0195)" gradientUnits="userSpaceOnUse" id="SVGID_5_" x1="-191.5" x2="-191.5" y1="-19.02" y2="-28.09">

<stop offset="0" stop-color="#646464"/>

<stop offset="1" stop-color="#3C3C3C"/>

</linearGradient>

<polygon fill="url(#SVGID_5_)" points="21,18.5,23.67,15.5,21,12.5,21,11,25,15.5,21,20"/>

<rect fill="none" height="30" width="30"/>

<linearGradient gradientUnits="userSpaceOnUse" id="SVGID_6_" x1="11.7" x2="11.7" y1="19.52" y2="14.94">

<stop offset="0" stop-color="#646464"/>

<stop offset="1" stop-color="#3C3C3C"/>

</linearGradient>

<rect fill="url(#SVGID_6_)" height="1.049" width="1.049" x="11.17" y="14.92"/>

<linearGradient gradientUnits="userSpaceOnUse" id="SVGID_7_" x1="14.99" x2="14.99" y1="19.52" y2="14.94">

<stop offset="0" stop-color="#646464"/>

<stop offset="1" stop-color="#3C3C3C"/>

</linearGradient>

<rect fill="url(#SVGID_7_)" height="1.049" width="1.049" x="14.46" y="14.92"/>

<linearGradient gradientUnits="userSpaceOnUse" id="SVGID_8_" x1="18.28" x2="18.28" y1="19.52" y2="14.94">

<stop offset="0" stop-color="#646464"/>

<stop offset="1" stop-color="#3C3C3C"/>

</linearGradient>

<rect fill="url(#SVGID_8_)" height="1.049" width="1.05" x="17.75" y="14.92"/>

</svg>