<?xml version="1.0" encoding="UTF-8"?>
<!DOCTYPE svg PUBLIC "-//W3C//DTD SVG 1.1 Tiny//EN" "http://www.w3.org/Graphics/SVG/1.1/DTD/svg11-tiny.dtd">
<svg baseProfile="tiny" height="20px" version="1.1" viewBox="0 0 20 20" width="20px" x="0px" xmlns="http://www.w3.org/2000/svg" xmlns:xlink="http://www.w3.org/1999/xlink" y="0px">
<g>
<g fill-opacity="0.5" stroke-opacity="0.5">
<path d="M18,12c0,4.418-3.582,8-8,8s-8-3.582-8-8C2,7.58,5.582,0,10,0S18,7.58,18,12z" fill-opacity="0.2" stroke-opacity="0.2"/>
<path d="M10,19c-3.859,0-7-3.141-7-7C3,8.139,6.14,1,10,1s7,7.139,7,11C17,15.859,13.859,19,10,19L10,19z" fill="url(#SVGID_1_)"/>
<path d="M10,2C6.691,2,4,8.691,4,12s2.691,6,6,6s6-2.691,6-6S13.308,2,10,2z M10,17    c-2.756,0-5-2.244-5-5c0-2.758,2.244-9,5-9c2.758,0,5,6.242,5,9C15,14.756,12.758,17,10,17z" fill="#FFFFFF" fill-opacity="0.2" stroke-opacity="0.2"/>
<path d="M10,1C6.14,1,3,8.139,3,12c0,3.859,3.141,7,7,7s7-3.141,7-7C17,8.139,13.859,1,10,1z M10,18    c-3.309,0-6-2.691-6-6S6.691,2,10,2s6,6.691,6,10S13.308,18,10,18z" fill-opacity="0.2" stroke-opacity="0.2"/>
<defs>
<linearGradient gradientUnits="userSpaceOnUse" id="SVGID_1_" x1="9.9993" x2="9.9993" y1="1" y2="19.0005">
<stop offset="0" style="stop-color:#66B8CC"/>
<stop offset="1" style="stop-color:#3F89A9"/>
</linearGradient>
</defs>
</g>
<rect fill="none" height="20" width="20" x="0"/>
</g>
</svg>
