<?xml version="1.0" encoding="UTF-8"?>
<!DOCTYPE svg PUBLIC "-//W3C//DTD SVG 1.1 Tiny//EN" "http://www.w3.org/Graphics/SVG/1.1/DTD/svg11-tiny.dtd">
<svg baseProfile="tiny" height="60" viewBox="0 0 60 60" width="60" xmlns="http://www.w3.org/2000/svg" xmlns:xlink="http://www.w3.org/1999/xlink">
<g>
<radialGradient cx="256.7998" cy="-630.0972" gradientTransform="matrix(1 0 0 -1 -228 -618)" gradientUnits="userSpaceOnUse" id="SVGID_1_" r="35.2926">
<stop offset="0" style="stop-color:#94FFFF"/>
<stop offset="0.5" style="stop-color:#36B5FF"/>
<stop offset="1" style="stop-color:#1B66D8"/>
</radialGradient>
<path d="M14.523,49.098c-0.234,0-0.383-0.385-0.383-0.979V39.91l-0.137-0.09  c-5.27-3.59-8.293-8.838-8.293-14.396C5.71,15.049,16.148,6.61,28.976,6.61c12.829,0,23.266,8.44,23.266,18.814  c0,10.375-10.438,18.814-23.266,18.814c-2.895,0-5.729-0.43-8.422-1.277L20.365,42.9l-5.053,5.666  C15.016,48.898,14.721,49.098,14.523,49.098L14.523,49.098z" fill="url(#SVGID_1_)"/>
<rect fill="#FFFFFF" height="1.084" width="24.166" x="16.875" y="16.938"/>
<rect fill-opacity="0.1" height="0.541" stroke-opacity="0.1" width="24.166" x="16.875" y="18.568"/>
<rect fill-opacity="0.2" height="0.541" stroke-opacity="0.2" width="24.166" x="16.875" y="18.021"/>
<rect fill="#FFFFFF" height="1.084" width="24.166" x="16.875" y="23.938"/>
<rect fill-opacity="0.1" height="0.541" stroke-opacity="0.1" width="24.166" x="16.875" y="25.568"/>
<rect fill-opacity="0.2" height="0.541" stroke-opacity="0.2" width="24.166" x="16.875" y="25.021"/>
<rect fill="#FFFFFF" height="1.084" width="24.166" x="16.875" y="30.938"/>
<rect fill-opacity="0.1" height="0.541" stroke-opacity="0.1" width="24.166" x="16.875" y="32.568"/>
<rect fill-opacity="0.2" height="0.541" stroke-opacity="0.2" width="24.166" x="16.875" y="32.021"/>
<linearGradient gradientTransform="matrix(1 0 0 -1 -228 -618)" gradientUnits="userSpaceOnUse" id="SVGID_2_" x1="256.8457" x2="256.8457" y1="-624.0859" y2="-663.8373">
<stop offset="0" style="stop-color:#36B5FF"/>
<stop offset="1" style="stop-color:#113F85"/>
</linearGradient>
<path d="M28.846,6.303c-12.945,0-23.441,8.513-23.441,19.016c0,5.849,3.26,11.08,8.383,14.568v8  c0,1.405,0.766,1.697,1.701,0.648l4.893-5.485c2.627,0.826,5.479,1.284,8.465,1.284c12.945,0,23.441-8.514,23.441-19.015  C52.287,14.816,41.791,6.303,28.846,6.303z M28.846,43.334c-2.807,0-5.553-0.416-8.166-1.238l-0.615-0.193l-5.277,5.916v-8.459  l-0.438-0.299c-5.049-3.438-7.945-8.444-7.945-13.742c0-9.934,10.068-18.016,22.441-18.016c12.375,0,22.441,8.082,22.441,18.016  C51.287,35.252,41.221,43.334,28.846,43.334z" fill="url(#SVGID_2_)"/>
<path d="M51.91,28.699c-3.1-2.721-7.469-4.429-12.314-4.429  c-9.374,0-17,6.356-17,14.169c0,1.932,0.47,3.771,1.313,5.451c1.593,0.277,3.239,0.44,4.937,0.44  C40.368,44.334,49.943,37.588,51.91,28.699z" fill-opacity="0.15" stroke-opacity="0.15"/>
<path d="M51.63,29.789c-2.937-2.762-7.235-4.518-12.034-4.518  c-8.822,0-16,5.907-16,13.168c0,2.021,0.572,3.929,1.564,5.642c1.203,0.155,2.429,0.254,3.686,0.254  C39.893,44.334,49.15,38.133,51.63,29.789z" fill-opacity="0.15" stroke-opacity="0.15"/>
<linearGradient gradientTransform="matrix(1 0 0 -1 -228 -618)" gradientUnits="userSpaceOnUse" id="SVGID_3_" x1="267.5957" x2="267.5957" y1="-643.9727" y2="-671.4998">
<stop offset="0" style="stop-color:#FEE16E"/>
<stop offset="1" style="stop-color:#BD6500"/>
</linearGradient>
<path d="M24.596,38.439c0,6.719,6.716,12.166,15,12.166c1.912,0,3.736-0.293,5.418-0.821l3.131,3.51  c0.601,0.671,1.088,0.485,1.088-0.415V47.76c3.277-2.23,5.363-5.578,5.363-9.32c0-6.721-6.715-12.167-15-12.167  C31.313,26.271,24.596,31.719,24.596,38.439z" fill="url(#SVGID_3_)"/>
<radialGradient cx="267.8867" cy="-645.6387" gradientTransform="matrix(1 0 0 -1 -228 -618)" gradientUnits="userSpaceOnUse" id="SVGID_4_" r="22.6468">
<stop offset="0" style="stop-color:#FEE16E"/>
<stop offset="0.0667" style="stop-color:#FEE16E"/>
<stop offset="0.697" style="stop-color:#F09000"/>
<stop offset="1" style="stop-color:#FFC501"/>
</radialGradient>
<path d="M45.33,48.637l-0.615,0.193c-1.637,0.516-3.359,0.775-5.119,0.775c-7.719,0-14-5.01-14-11.166  c0-6.158,6.281-11.169,14-11.169c7.721,0,14,5.011,14,11.169c0,3.267-1.795,6.36-4.926,8.494l-0.438,0.297v4.66L45.33,48.637z" fill="url(#SVGID_4_)"/>
<rect fill="none" height="60" width="60"/>
<g>
<rect fill="#FFFFFF" height="1" width="16.209" x="31.491" y="41.313"/>
<rect fill-opacity="0.1" height="0.362" stroke-opacity="0.1" width="16.209" x="31.491" y="42.325"/>
</g>
<g>
<rect fill="#FFFFFF" height="1" width="16.209" x="31.491" y="37.313"/>
<rect fill-opacity="0.1" height="0.362" stroke-opacity="0.1" width="16.209" x="31.491" y="38.325"/>
</g>
<g>
<rect fill="#FFFFFF" height="1" width="16.209" x="31.491" y="33.313"/>
<rect fill-opacity="0.1" height="0.362" stroke-opacity="0.1" width="16.209" x="31.491" y="34.325"/>
</g>
</g>
</svg>
