<?xml version="1.0" encoding="UTF-8"?>
<!DOCTYPE svg PUBLIC "-//W3C//DTD SVG 1.1 Tiny//EN" "http://www.w3.org/Graphics/SVG/1.1/DTD/svg11-tiny.dtd">
<svg baseProfile="tiny" height="30" viewBox="0 0 30 30" width="30" xmlns="http://www.w3.org/2000/svg" xmlns:xlink="http://www.w3.org/1999/xlink">
<rect fill="none" height="30" width="30"/>
<path d="M18.574,15.615c0.667-0.795,1.278-1.984,1.278-3.39c0-1.405-0.659-3.788-2.976-3.788c-2.315,0-2.974,2.535-2.974,3.788 c0,1.253,0.428,2.505,1.278,3.39c1.673,1.749-2.697,2.335-3.272,3.42c-0.284,0.538-1.136,2.527-0.304,2.527 c1.127,0,9.412,0,10.543,0c0.82,0-0.019-1.989-0.302-2.526C21.273,17.95,17.07,17.414,18.574,15.615z"/>
<path d="M26.25,2.813H6.563c-0.516,0-0.938,0.422-0.938,0.938v2.813H4.688c-1.034,0-1.875,0.841-1.875,1.875 s0.841,1.875,1.875,1.875h0.938v2.813H4.688c-1.034,0-1.875,0.841-1.875,1.875s0.841,1.875,1.875,1.875h0.938v2.813H4.688 c-1.034,0-1.875,0.841-1.875,1.875s0.841,1.875,1.875,1.875h0.938v2.813c0,0.516,0.422,0.938,0.938,0.938H26.25 c0.515,0,0.938-0.422,0.938-0.938V3.75C27.188,3.234,26.765,2.813,26.25,2.813z M4.688,9.375c-0.516,0-0.938-0.422-0.938-0.938 S4.172,7.5,4.688,7.5H7.5c0.516,0,0.938,0.422,0.938,0.938S8.016,9.375,7.5,9.375H4.688z M4.688,15.938 c-0.516,0-0.938-0.422-0.938-0.938s0.422-0.938,0.938-0.938H7.5c0.516,0,0.938,0.422,0.938,0.938S8.016,15.938,7.5,15.938H4.688z M4.688,22.5c-0.516,0-0.938-0.422-0.938-0.938s0.422-0.938,0.938-0.938H7.5c0.516,0,0.938,0.422,0.938,0.938S8.016,22.5,7.5,22.5 H4.688z M25.313,25.313H7.5v-1.875c1.034,0,1.875-0.841,1.875-1.875S8.534,19.688,7.5,19.688v-2.813 c1.034,0,1.875-0.841,1.875-1.875S8.534,13.125,7.5,13.125v-2.813c1.034,0,1.875-0.841,1.875-1.875S8.534,6.563,7.5,6.563V4.688 h17.813V25.313z"/>
</svg>
