<?xml version="1.0" encoding="UTF-8"?>
<!DOCTYPE svg PUBLIC "-//W3C//DTD SVG 1.1 Tiny//EN" "http://www.w3.org/Graphics/SVG/1.1/DTD/svg11-tiny.dtd">
<svg baseProfile="tiny" height="30px" style="enable-background:new 0 0 30 30;" version="1.1" viewBox="0 0 30 30" width="30px" x="0px" xmlns="http://www.w3.org/2000/svg" xmlns:xlink="http://www.w3.org/1999/xlink" y="0px">
<g fill-opacity="0.5" stroke-opacity="0.5">
<rect fill="none" height="30" width="30" x="0.002"/>
</g>
<path d="M1,3v24h28v-24h-28zm25,21h-22v-18h22v18z"/>
<path d="M7.488,11.28c0.752,0,1.32,0.267,1.705,0.801,0.383,0.534,0.576,1.477,0.576,2.827,0,1.481-0.195,2.485-0.584,3.016-0.389,0.528-0.963,0.793-1.721,0.793-0.664,0-1.166-0.176-1.504-0.526-0.34-0.353-0.561-0.797-0.662-1.334-0.104-0.537-0.154-1.187-0.154-1.947,0-1.325,0.197-2.261,0.592-2.808,0.393-0.54,0.979-0.82,1.752-0.82zm-0.033,6.63c0.332,0,0.574-0.187,0.729-0.56,0.156-0.373,0.232-1.187,0.232-2.438,0-1.204-0.08-1.975-0.238-2.313-0.16-0.336-0.4-0.505-0.723-0.505-0.293,0-0.51,0.117-0.648,0.352-0.137,0.234-0.225,0.54-0.258,0.918-0.035,0.378-0.051,0.894-0.051,1.548,0,1.289,0.076,2.11,0.229,2.466,0.154,0.34,0.396,0.52,0.728,0.52z"/>
<path d="M11.42,18.72c-0.215,0-0.398-0.075-0.553-0.229-0.152-0.153-0.229-0.335-0.229-0.548,0-0.215,0.074-0.396,0.227-0.547,0.15-0.148,0.336-0.225,0.555-0.225,0.215,0,0.396,0.075,0.549,0.225,0.15,0.149,0.227,0.332,0.227,0.547,0,0.216-0.076,0.397-0.227,0.551-0.15,0.16-0.33,0.24-0.55,0.24z"/>
<path d="M13.78,14.38c0.957,0,1.555-0.098,1.793-0.293,0.236-0.195,0.354-0.495,0.354-0.898,0-0.354-0.096-0.622-0.284-0.801-0.191-0.179-0.476-0.269-0.853-0.269-0.332,0-0.799,0.083-1.402,0.249h-0.01v-0.859c0.613-0.153,1.166-0.229,1.66-0.229,0.746,0,1.307,0.149,1.68,0.449,0.375,0.3,0.563,0.749,0.563,1.348,0,0.413-0.113,0.769-0.338,1.067-0.226,0.297-0.547,0.508-0.967,0.632,0.457,0.081,0.805,0.272,1.047,0.573,0.244,0.301,0.365,0.678,0.365,1.131,0,0.744-0.22,1.305-0.652,1.678-0.437,0.372-1.086,0.559-1.956,0.559-0.521,0-1.055-0.076-1.602-0.229v-0.85h0.01c0.637,0.158,1.141,0.238,1.508,0.238,0.443,0,0.775-0.111,0.999-0.334,0.225-0.225,0.336-0.559,0.336-1.004,0-0.479-0.135-0.822-0.4-1.03-0.268-0.208-0.885-0.313-1.852-0.313v-0.828z"/>
<path d="M24.86,11.36v7.28h-1.328v-5.04l-1.373,2.617h-0.561l-1.38-2.62v5.039h-1.334v-7.28h1.123l1.871,3.56,1.869-3.56h1.107z"/>
</svg>
