<?xml version="1.0" encoding="UTF-8" standalone="no"?>
<!DOCTYPE svg PUBLIC "-//W3C//DTD SVG 1.1 Tiny//EN" "http://www.w3.org/Graphics/SVG/1.1/DTD/svg11-tiny.dtd">
<svg xmlns="http://www.w3.org/2000/svg" xmlns:xlink="http://www.w3.org/1999/xlink" baseProfile="tiny" height="30px" version="1.1" viewBox="0 0 30 30" width="30px" x="0px" y="0px">
<rect fill="none" height="30" width="30"/>
<path d="M24.64,2.317c-1.588,1.121-4.315,2.698-5.496,2.698h-0.004c-0.271-0.031-0.67-0.292-1.092-0.568-0.836-0.548-1.982-1.299-3.654-1.31-0.963,0-2.313,0.739-3.456,1.504l5.146,13.32c0.676-1.401,1.627-3.068,2.503-3.689,0.306-0.218,1.161-0.649,1.849-0.995,0.693-0.351,1.294-0.653,1.648-0.878,2.91-1.868,3.971-8.409,4.082-9.149l0.33-2.251-1.86,1.317z"/>
<polygon points="8.435,3.566,3.5,5.465,4.802,8.84,5.583,8.539,12.58,26.66,15.88,29,16.74,25.07"/>
</svg>
