<?xml version="1.0" encoding="UTF-8"?>
<!DOCTYPE svg PUBLIC "-//W3C//DTD SVG 1.1 Tiny//EN" "http://www.w3.org/Graphics/SVG/1.1/DTD/svg11-tiny.dtd">
<svg baseProfile="tiny" height="60" viewBox="0 0 60 60" width="60" xmlns="http://www.w3.org/2000/svg" xmlns:xlink="http://www.w3.org/1999/xlink">
<g>
<linearGradient gradientTransform="matrix(0.2118 0.9773 -0.9773 0.2118 -634.5609 -270.4865)" gradientUnits="userSpaceOnUse" id="SVGID_1_" x1="423.0967" x2="429.6524" y1="-578.646" y2="-582.9078">
<stop offset="0" style="stop-color:#A7E722"/>
<stop offset="0.1333" style="stop-color:#A7E722"/>
<stop offset="0.6303" style="stop-color:#428C0F"/>
<stop offset="1" style="stop-color:#5CA617"/>
</linearGradient>
<path d="M19.081,33.91c2.089-3.595,4.591-6.496,7.281-9.188c2.593-2.591,6.72-5.3,8.562-6.256l9.604-10.282  c-0.845-0.3-3.693-0.464-7.279,0.616c-3.586,1.083-11.736,6.303-16.979,11.547c-5.242,5.246-9.727,12.347-10.581,14.595  c-1.343,3.541-1.221,7.445-0.929,8.58c0,0,0.34,1.035,1.144,2.377C10.248,46.475,19.081,33.91,19.081,33.91z" fill="url(#SVGID_1_)"/>
<path d="M31.184,20.8c1.488-1.036,2.87-1.882,3.74-2.334L44.271,8.46  c-0.132-0.058-0.209-0.088-0.209-0.088c-0.247-0.088-0.642-0.162-1.124-0.219c-0.793,0.006-1.596,0.093-2.401,0.27  C34.843,9.673,31.019,14.958,31.184,20.8z" fill="#020202" fill-opacity="0.05" stroke-opacity="0.05"/>
<path d="M31.906,20.306c1.205-0.809,2.291-1.462,3.018-1.84l9.377-10.04  c-0.146-0.063-0.233-0.098-0.233-0.098c-0.231-0.08-0.604-0.152-1.06-0.203c-0.751,0.006-1.51,0.087-2.27,0.253  C35.275,9.576,31.636,14.695,31.906,20.306z" fill="#020202" fill-opacity="0.1" stroke-opacity="0.1"/>
<path d="M44.079,8.263c-0.21-0.073-0.55-0.137-0.962-0.186c-0.681,0.006-1.369,0.08-2.06,0.231  c-5.087,1.116-8.426,5.984-7.978,11.233c0.725-0.455,1.363-0.826,1.844-1.076l9.424-10.088C44.178,8.302,44.079,8.263,44.079,8.263z  " fill="#020202" fill-opacity="0.1" stroke-opacity="0.1"/>
<radialGradient cx="40.9697" cy="9.21" gradientUnits="userSpaceOnUse" id="SVGID_2_" r="12.2872">
<stop offset="0" style="stop-color:#A7E722"/>
<stop offset="0.6242" style="stop-color:#428C0F"/>
<stop offset="1" style="stop-color:#5CA617"/>
</radialGradient>
<path d="M34.924,18.466l0.929,1.55c0,0,15.101-6.784,14.084-8.038c-0.513-0.631-0.577-0.656-1.237-1.263  c-1.985-1.815-4.172-2.531-4.172-2.531c-0.186-0.063-0.481-0.12-0.845-0.161c-0.596,0.004-1.2,0.068-1.806,0.201  c-4.591,1.009-7.57,5.501-6.963,10.257C34.916,18.477,34.921,18.47,34.924,18.466z" fill="url(#SVGID_2_)"/>
<path d="M17.483,34.105c-0.988-0.139-2.007-0.119-3.027,0.105c-2.418,0.531-4.376,2.066-5.646,4.131  c-0.367,2.35-0.25,4.408-0.05,5.18c0,0,0.34,1.035,1.144,2.377c0.29,0.482,6.54-8.264,8.556-11.107L17.483,34.105z" fill="#020202" fill-opacity="0.1" stroke-opacity="0.1"/>
<path d="M18.366,34.135c-0.989-0.139-2.008-0.117-3.029,0.105c-3.313,0.727-5.775,3.332-6.76,6.623  c-0.026,1.025,0.034,1.873,0.127,2.398c0.003,0.012,0.005,0.033,0.01,0.047c0,0,0.34,1.033,1.144,2.379  c0.3,0.498,6.981-8.887,8.75-11.383L18.366,34.135z" fill="#020202" fill-opacity="0.1" stroke-opacity="0.1"/>
<radialGradient cx="437.4258" cy="-571.231" gradientTransform="matrix(0.2095 0.9787 -0.9682 0.2124 -629.4526 -270.6148)" gradientUnits="userSpaceOnUse" id="SVGID_3_" r="14.6187">
<stop offset="0" style="stop-color:#A7E722"/>
<stop offset="0.6242" style="stop-color:#428C0F"/>
<stop offset="1" style="stop-color:#5CA617"/>
</radialGradient>
<path d="M11.202,47.738c0.616,0.74,0.646,0.953,1.295,1.523c1.194,1.055,9.301-13.611,9.301-13.611  l-2.683-1.719c-0.941-0.111-1.914-0.08-2.89,0.135c-4.777,1.049-7.806,5.869-6.87,10.832C9.749,45.686,10.349,46.709,11.202,47.738z  " fill="url(#SVGID_3_)"/>
<path d="M49.937,11.978c-0.179-0.22-0.381-0.446-0.578-0.67l-13.944,7.959l0.438,0.749  C35.853,20.016,50.953,13.231,49.937,11.978z" fill="#020202" fill-opacity="0.4" stroke-opacity="0.4"/>
<linearGradient gradientTransform="matrix(0.2118 0.9773 -0.9773 0.2118 -634.5599 -270.4865)" gradientUnits="userSpaceOnUse" id="SVGID_4_" x1="422.2881" x2="427.4786" y1="-610.9287" y2="-594.4409">
<stop offset="0" style="stop-color:#C6FF45"/>
<stop offset="0.6788" style="stop-color:#387300"/>
<stop offset="1" style="stop-color:#66A00E"/>
</linearGradient>
<path d="M35.853,20.016l1.178,1.981c0.302,0.515,0.972,0.674,1.569,0.422l4.09-2.334l8.043-4.668  c0.632-0.363,0.878-1.119,0.549-1.686c0,0-0.333-0.501-1.349-1.751L35.853,20.016z" fill="url(#SVGID_4_)"/>
<path d="M21.798,35.65l-0.725-0.473l-9.215,13.486c0.216,0.205,0.43,0.414,0.639,0.598  C13.691,50.316,21.798,35.65,21.798,35.65z" fill="#020202" fill-opacity="0.4" stroke-opacity="0.4"/>
<linearGradient gradientTransform="matrix(0.2118 0.9773 -0.9773 0.2118 -634.5599 -270.4865)" gradientUnits="userSpaceOnUse" id="SVGID_5_" x1="439.6982" x2="451.5232" y1="-577.7549" y2="-564.7323">
<stop offset="0" style="stop-color:#C6FF45"/>
<stop offset="0.6788" style="stop-color:#387300"/>
<stop offset="1" style="stop-color:#66A00E"/>
</linearGradient>
<path d="M12.498,49.262c1.193,1.049,1.686,1.369,1.686,1.369c0.567,0.367,1.363,0.17,1.781-0.441l7.9-11.605  c0.419-0.615,0.307-1.412-0.26-1.777l-1.808-1.156L12.498,49.262z" fill="url(#SVGID_5_)"/>
<rect fill="none" height="60" width="60"/>
</g>
<g transform="matrix(0.5 0 0 0.5 30 30)">
<linearGradient gradientTransform="matrix(2 0 0 -2 -292 -262)" gradientUnits="userSpaceOnUse" id="SVGID_1__" x1="161" x2="161" y1="-138.1694" y2="-153.478">
<stop offset="0" style="stop-color:#D1D7D9"/>
<stop offset="0.0667" style="stop-color:#D1D7D9"/>
<stop offset="0.2606" style="stop-color:#BDC2C4"/>
<stop offset="0.6606" style="stop-color:#949DA1"/>
<stop offset="0.9636" style="stop-color:#ADB3B5"/>
<stop offset="1" style="stop-color:#595C5E"/>
</linearGradient>
<path d="M50.816,42.857c0,1.353-1.099,2.451-2.45,2.451H11.632c-1.352,0-2.45-1.099-2.45-2.451V17.142  c0-1.352,1.098-2.45,2.45-2.45h36.734c1.352,0,2.45,1.098,2.45,2.45V42.857z" style="fill:url(#SVGID_1__);"/>
<linearGradient gradientTransform="matrix(2 0 0 -2 -292 -262)" gradientUnits="userSpaceOnUse" id="SVGID_2__" x1="161" x2="161" y1="-138.1694" y2="-153.4771">
<stop offset="0" style="stop-color:#E4EBED"/>
<stop offset="0.0667" style="stop-color:#E4EBED"/>
<stop offset="0.2606" style="stop-color:#D6DCDE"/>
<stop offset="0.6606" style="stop-color:#B2BEC2"/>
<stop offset="1" style="stop-color:#ADB3B5"/>
</linearGradient>
<path d="M48.368,14.694H11.632c-1.352,0-2.45,1.098-2.45,2.45v25.713c0,1.353,1.098,2.451,2.45,2.451  c-1.012,0-1.836-0.824-1.836-1.838v-0.613V17.756v-0.614c0-1.012,0.824-1.836,1.836-1.836h36.734c1.016,0,1.836,0.824,1.836,1.836  v0.614v25.102v0.613c0,1.014-0.82,1.838-1.836,1.838c1.352,0,2.45-1.099,2.45-2.451V17.142  C50.816,15.792,49.718,14.694,48.368,14.694z" style="fill:url(#SVGID_2__);"/>
<linearGradient gradientTransform="matrix(2 0 0 -2 -292 -262)" gradientUnits="userSpaceOnUse" id="SVGID_3__" x1="161.001" x2="161.001" y1="-140.4063" y2="-147.2606">
<stop offset="0" style="stop-color:#686C6E"/>
<stop offset="1" style="stop-color:#E4EEF2"/>
</linearGradient>
<path d="M13.692,32.43c-0.676,0-1.226-0.556-1.226-1.238  V20.022c0-0.686,0.55-1.24,1.226-1.24h32.623c0.676,0,1.226,0.554,1.226,1.24v11.169c0,0.683-0.55,1.238-1.226,1.238H13.692z" style="opacity:0.4;fill:url(#SVGID_3__);enable-background:new    ;"/>
<linearGradient gradientTransform="matrix(2 0 0 -2 -292 -262)" gradientUnits="userSpaceOnUse" id="SVGID_4__" x1="161" x2="161" y1="-140.7256" y2="-147.0228">
<stop offset="0" style="stop-color:#171717"/>
<stop offset="1" style="stop-color:#2E2E2E"/>
</linearGradient>
<path d="M46.918,31.191c0,0.343-0.273,0.621-0.613,0.621H13.692c-0.34,0-0.614-0.278-0.614-0.621  V20.022c0-0.344,0.274-0.622,0.614-0.622h32.615c0.34,0,0.613,0.278,0.613,0.622v11.169H46.918z" style="fill:url(#SVGID_4__);"/>
<linearGradient gradientTransform="matrix(2 0 0 -2 -292 -262)" gradientUnits="userSpaceOnUse" id="SVGID_5__" x1="161" x2="161" y1="-130.8403" y2="-150.5097">
<stop offset="0" style="stop-color:#45E8FF"/>
<stop offset="0.1455" style="stop-color:#45E8FF"/>
<stop offset="0.5576" style="stop-color:#30A4D5"/>
<stop offset="0.8727" style="stop-color:#1347BA"/>
<stop offset="1" style="stop-color:#1C65C3"/>
</linearGradient>
<rect height="11.169" style="fill:url(#SVGID_5__);" width="32.615" x="13.692" y="20.022"/>
<linearGradient gradientTransform="matrix(2 0 0 -2 -292 -262)" gradientUnits="userSpaceOnUse" id="SVGID_6_" x1="160.999" x2="160.999" y1="-134.8784" y2="-148.12">
<stop offset="0" style="stop-color:#45E8FF"/>
<stop offset="0.1455" style="stop-color:#45E8FF"/>
<stop offset="0.5576" style="stop-color:#4FADD5"/>
<stop offset="0.8727" style="stop-color:#1347BA"/>
<stop offset="1" style="stop-color:#1C65C3"/>
</linearGradient>
<polygon points="13.692,24.85 46.305,23.804 46.305,20.006 13.692,20.006 " style="fill:url(#SVGID_6_);"/>
<linearGradient gradientTransform="matrix(2 0 0 -2 -292 -262)" gradientUnits="userSpaceOnUse" id="SVGID_7_" x1="162.9805" x2="162.9805" y1="-148.5093" y2="-151.0052">
<stop offset="0" style="stop-color:#646263"/>
<stop offset="0.2" style="stop-color:#4D4D4D"/>
<stop offset="0.7212" style="stop-color:#242424"/>
<stop offset="1" style="stop-color:#373737"/>
</linearGradient>
<path d="M29.606,39.962c-0.676,0-1.222-0.548-1.222-1.224  v-2.45c0-0.674,0.546-1.224,1.222-1.224h8.708c0.676,0,1.226,0.55,1.226,1.224v2.45c0,0.676-0.55,1.224-1.226,1.224H29.606z" style="opacity:0.8;fill:url(#SVGID_7_);enable-background:new    ;"/>
<path d="M38.313,39.962h-8.708c-0.676,0-1.222-0.548-1.222-1.224  v0.611c0,0.676,0.546,1.225,1.222,1.225h8.708c0.676,0,1.226-0.549,1.226-1.225v-0.611C39.54,39.414,38.988,39.962,38.313,39.962z" style="opacity:0.4;fill:#231F20;enable-background:new    ;"/>
<linearGradient gradientTransform="matrix(2 0 0 -2 -292 -262)" gradientUnits="userSpaceOnUse" id="SVGID_8_" x1="162.9785" x2="162.9785" y1="-148.8169" y2="-150.7223">
<stop offset="0" style="stop-color:#A0A3A6"/>
<stop offset="0.1333" style="stop-color:#838688"/>
<stop offset="0.2606" style="stop-color:#7B7E80"/>
<stop offset="0.6606" style="stop-color:#474B4D"/>
<stop offset="1" style="stop-color:#707577"/>
</linearGradient>
<path d="M38.926,38.738c0,0.338-0.273,0.611-0.613,0.611h-8.708c-0.34,0-0.614-0.273-0.614-0.611  v-2.45c0-0.338,0.274-0.612,0.614-0.612h8.708c0.34,0,0.613,0.274,0.613,0.612V38.738z" style="fill:url(#SVGID_8_);"/>
<linearGradient gradientTransform="matrix(2 0 0 -2 -292 -262)" gradientUnits="userSpaceOnUse" id="SVGID_9_" x1="155.625" x2="155.625" y1="-148.5093" y2="-151.0052">
<stop offset="0" style="stop-color:#646263"/>
<stop offset="0.2" style="stop-color:#4D4D4D"/>
<stop offset="0.7212" style="stop-color:#242424"/>
<stop offset="1" style="stop-color:#373737"/>
</linearGradient>
<path d="M14.894,39.962c-0.672,0-1.222-0.548-1.222-1.224  v-2.45c0-0.674,0.55-1.224,1.222-1.224h8.71c0.676,0,1.222,0.55,1.222,1.224v2.45c0,0.676-0.546,1.224-1.222,1.224H14.894z" style="opacity:0.8;fill:url(#SVGID_9_);enable-background:new    ;"/>
<path d="M23.606,39.962h-8.712c-0.672,0-1.222-0.548-1.222-1.224  v0.611c0,0.676,0.55,1.225,1.222,1.225h8.71c0.676,0,1.222-0.549,1.222-1.225v-0.611C24.828,39.414,24.282,39.962,23.606,39.962z" style="opacity:0.4;fill:#231F20;enable-background:new    ;"/>
<linearGradient gradientTransform="matrix(2 0 0 -2 -292 -262)" gradientUnits="userSpaceOnUse" id="SVGID_10_" x1="155.625" x2="155.625" y1="-148.8169" y2="-150.7223">
<stop offset="0" style="stop-color:#A0A3A6"/>
<stop offset="0.1333" style="stop-color:#838688"/>
<stop offset="0.2606" style="stop-color:#7B7E80"/>
<stop offset="0.6606" style="stop-color:#474B4D"/>
<stop offset="1" style="stop-color:#707577"/>
</linearGradient>
<path d="M24.218,38.738c0,0.338-0.274,0.611-0.614,0.611h-8.71c-0.336,0-0.61-0.273-0.61-0.611v-2.45  c0-0.338,0.274-0.612,0.61-0.612h8.71c0.34,0,0.614,0.274,0.614,0.612V38.738z" style="fill:url(#SVGID_10_);"/>
<rect height="60" style="fill:none;" width="60"/>
</g>
</svg>
