<?xml version="1.0" encoding="UTF-8" standalone="no"?>
<!DOCTYPE svg PUBLIC "-//W3C//DTD SVG 1.1 Tiny//EN" "http://www.w3.org/Graphics/SVG/1.1/DTD/svg11-tiny.dtd">
<svg xmlns="http://www.w3.org/2000/svg" xmlns:xlink="http://www.w3.org/1999/xlink" baseProfile="tiny" height="30px" version="1.1" viewBox="0 0 30 30" width="30px" x="0px" y="0px">
<g fill-opacity="0.5" stroke-opacity="0.5">
<rect fill="none" height="30" width="30"/>
</g>
<path d="M0.998,3v24h28v-24h-28zm25,21h-22v-18h22v18z"/>
<path d="M9.573,17.86v0.781h-4.31v-0.781h1.533v-5.45l-1.533,0.352v-0.78l2.152-0.68h0.709v6.559h1.449z"/>
<path d="M11.3,18.72c-0.215,0-0.398-0.076-0.553-0.23-0.152-0.152-0.229-0.334-0.229-0.547,0-0.215,0.074-0.396,0.227-0.547,0.15-0.148,0.336-0.225,0.555-0.225,0.215,0,0.396,0.076,0.549,0.225,0.15,0.15,0.227,0.332,0.227,0.547s-0.076,0.398-0.227,0.551c-0.16,0.16-0.34,0.24-0.55,0.24z"/>
<path d="M13.66,14.38c0.957,0,1.555-0.098,1.793-0.293,0.236-0.195,0.355-0.496,0.355-0.898,0-0.355-0.096-0.623-0.285-0.801-0.191-0.18-0.475-0.27-0.852-0.27-0.332,0-0.799,0.084-1.402,0.25h-0.01v-0.859c0.613-0.154,1.166-0.23,1.66-0.23,0.746,0,1.307,0.15,1.68,0.449,0.375,0.301,0.563,0.75,0.563,1.348,0,0.414-0.113,0.77-0.338,1.068-0.225,0.297-0.547,0.508-0.967,0.631,0.457,0.082,0.805,0.273,1.047,0.574,0.244,0.301,0.365,0.678,0.365,1.131,0,0.744-0.219,1.305-0.652,1.678-0.436,0.371-1.086,0.559-1.955,0.559-0.521,0-1.055-0.076-1.602-0.23v-0.85h0.01c0.637,0.16,1.141,0.24,1.508,0.24,0.443,0,0.775-0.111,0.998-0.334,0.225-0.225,0.336-0.559,0.336-1.004,0-0.479-0.135-0.822-0.4-1.031-0.268-0.207-0.885-0.313-1.852-0.313v-0.827z"/>
<path d="M24.74,11.36v7.281h-1.328v-5.039l-1.373,2.617h-0.561l-1.377-2.617v5.039h-1.334v-7.281h1.123l1.871,3.561,1.869-3.561h1.105z"/>
</svg>
